<svg width="19" height="15" viewBox="0 0 19 15" fill="none" xmlns="http://www.w3.org/2000/svg">
<g id="haiyun">
<path id="&#232;&#183;&#175;&#229;&#190;&#132; 4" d="M16.5337 13.1621C16.2625 13.7324 15.7232 14.0898 15.1323 14.0898H2.38721C2.15218 14.0895 2.00006 13.8202 2.10596 13.5918L2.11084 13.5801C2.28326 13.207 2.18114 12.7539 1.86865 12.5117L1.85107 12.498C1.12905 11.9355 0.699707 11.0273 0.699707 10.0605V8.94922H12.0474V8.94141C12.0474 8.56641 12.3274 8.26367 12.6704 8.26367H18.6958L16.5337 13.1621ZM2.98584 0V1.94336H3.58252V2.5918H2.98584V3.5625H5.26709L4.47607 4.15039V8.74805H1.19873V4.21289H0.304199V3.56445H2.68799V2.5918H1.79346V1.94336H2.68799V0H2.98584ZM7.94873 5.17773C8.12099 5.17796 8.26221 5.33217 8.26221 5.52148V8.26367C8.26221 8.45104 8.12278 8.60525 7.94873 8.60547H5.42627C5.25222 8.60525 5.11264 8.45299 5.11084 8.26367V5.52148C5.11084 5.33217 5.25222 5.17796 5.42627 5.17773H7.94873ZM11.4146 4.15039C11.5888 4.15039 11.7308 4.30273 11.729 4.49219V8.26172C11.729 8.44922 11.5888 8.60352 11.4146 8.60352H9.20947C9.03525 8.60352 8.89307 8.45117 8.89307 8.26172V4.49219C8.89307 4.30469 9.03525 4.15039 9.20947 4.15039H11.4146ZM15.1978 5.52148C15.3718 5.5217 15.5133 5.67397 15.5151 5.86328V7.23438C15.5151 7.42188 15.373 7.57617 15.1987 7.57617H12.6772C12.5031 7.57605 12.3618 7.42375 12.3618 7.23438V5.86328C12.3618 5.67586 12.5031 5.52161 12.6772 5.52148H15.1978ZM2.98389 6.15625V7.45117H3.87842V6.15625H2.98389ZM2.98389 5.50586H3.87842V4.5332H2.98389V5.50586Z" fill="#3385FF"/>
</g>
</svg>
