<?xml version="1.0" encoding="UTF-8"?>
<svg width="32px" height="32px" viewBox="0 0 32 32" version="1.1" xmlns="http://www.w3.org/2000/svg" xmlns:xlink="http://www.w3.org/1999/xlink">
    <title>yonghu</title>
    <g id="-门户网站页面" stroke="none" stroke-width="1" fill="none" fill-rule="evenodd">
        <g id="首页-框架" transform="translate(-1191.000000, -10.000000)">
            <g id="编组-6" transform="translate(120.000000, 0.000000)">
                <g id="yonghu" transform="translate(1071.000000, 10.000000)">
                    <path d="M16,30.6740849 C7.90863836,30.6740849 1.3265844,24.0913616 1.3265844,16 C1.3265844,7.90863833 7.90863836,1.32591506 16,1.32591506 C24.0913616,1.32591506 30.6734156,7.90863833 30.6734156,16 C30.6734156,24.0913616 24.0913616,30.6740849 16,30.6740849 Z" id="路径" fill-opacity="0.25" fill="#DCDFE6"></path>
                    <path d="M16,7.15491715e-17 C7.17774526,7.15491715e-17 1.0016884e-15,7.17841454 1.0016884e-15,16 C1.0016884e-15,24.8215855 7.17841454,32 16,32 C24.8215855,32 32,24.8215855 32,16 C32,7.17841454 24.8222548,7.15491715e-17 16,7.15491715e-17 Z M16,30.6740849 C7.90863836,30.6740849 1.3265844,24.0913616 1.3265844,16 C1.3265844,7.90863833 7.90863836,1.32591506 16,1.32591506 C24.0913616,1.32591506 30.6734156,7.90863833 30.6734156,16 C30.6734156,24.0913616 24.0913616,30.6740849 16,30.6740849 Z M19.1163355,16.2717423 L19.1163355,16.2717423 C20.61895,15.2657603 21.6095378,13.5529805 21.6095378,11.6086174 C21.6095378,8.5110228 19.098264,5.99974899 16.0006693,5.99974899 C12.9030747,5.99974899 10.3918009,8.5110228 10.3918009,11.6086174 C10.3918009,13.5536499 11.3823886,15.2657603 12.8856724,16.2717423 C9.73051663,17.5153315 7.49700897,20.5881614 7.49700897,24.1843966 C7.49700897,24.191759 7.49700897,24.1984522 7.49767829,24.2051454 C7.49767829,24.206484 7.49700897,24.2084919 7.49700897,24.2098306 C7.49700897,24.7011085 7.89525202,25.0986823 8.38653001,25.0986823 C8.87713865,25.0986823 9.07525623,24.7011086 9.07525623,24.2098306 C9.07525623,24.1991215 9.07257896,24.1890818 9.07190964,24.1777034 C9.07525623,20.464338 12.2866346,17.2549676 16.0013386,17.2549676 C19.7180506,17.2549676 22.9307676,20.4676846 22.9307676,24.1843966 C22.9307676,24.1890818 22.8845848,25.0986823 23.6221711,25.0986823 C24.1101025,25.0986823 24.5056683,24.7031165 24.5056683,24.2158544 C24.5056683,24.2138465 24.5049989,24.2118385 24.5049989,24.2091613 C24.5049989,24.2011295 24.5056683,24.1930977 24.5056683,24.1843966 C24.5043297,20.5881614 22.2701527,17.5153315 19.1163355,16.2717423 Z M16,15.8487346 C13.6587325,15.8487346 11.7605522,13.9505543 11.7605522,11.6092868 C11.7605522,9.26734992 13.6587325,7.36983895 16,7.36983895 C18.3419368,7.36983895 20.2394478,9.26801924 20.2394478,11.6092868 C20.2394478,13.9505543 18.3412675,15.8487346 16,15.8487346 Z" id="形状" fill="#FFFFFF" fill-rule="nonzero"></path>
                </g>
            </g>
        </g>
    </g>
</svg>