<?xml version="1.0" encoding="UTF-8"?>
<svg width="15px" height="14px" viewBox="0 0 15 14" version="1.1" xmlns="http://www.w3.org/2000/svg" xmlns:xlink="http://www.w3.org/1999/xlink">
    <title>船舶</title>
    <g id="-门户网站页面" stroke="none" stroke-width="1" fill="none" fill-rule="evenodd">
        <g id="首页-框架" transform="translate(-186.000000, -857.000000)" fill="#C8C9CC" fill-rule="nonzero">
            <g id="编组-8" transform="translate(0.000000, 732.000000)">
                <g id="编组-7" transform="translate(136.000000, 87.000000)">
                    <g id="编组-4" transform="translate(50.000000, 8.000000)">
                        <g id="船舶" transform="translate(0.000000, 30.000000)">
                            <path d="M7.19693638,13.5464306 L7.21649349,5.76907867 C7.21811827,5.40037226 6.78633352,5.1838553 6.47186386,5.39566537 C6.31218497,5.50392385 6.12969481,5.62473403 5.93091089,5.75182007 C3.65141325,7.20781817 0.656619356,5.46626872 0.0993726144,6.18485399 C-0.759308769,7.28940427 4.15814932,13.9480852 6.71789971,13.999861 C6.98022931,14.0061369 7.195307,13.7990337 7.19693638,13.5464306 Z M9.06908991,5.75182007 C8.87030598,5.62473403 8.68781582,5.50392385 8.52813693,5.39566537 C8.21366728,5.1838553 7.7835119,5.40037226 7.7835119,5.76907867 L7.80306441,13.5464306 C7.80306441,13.7990337 8.0181421,14.0061369 8.28047171,13.999861 C10.8418515,13.9480852 15.7593096,7.28940427 14.9006282,6.18485399 C14.3433814,5.46626872 11.3485875,7.20781817 9.06908991,5.75182007 Z M10.9722016,0 L3.76872835,0 C3.50802812,0 3.29620919,0.203965251 3.29620919,0.454999406 L3.29620919,1.92982507 C3.29620919,2.18085922 3.50802812,2.38482447 3.76872835,2.38482447 L10.9722016,2.38482447 C11.2329018,2.38482447 11.4447208,2.18085922 11.4447208,1.92982507 L11.4447208,0.454999406 C11.4447208,0.203965251 11.2329018,0 10.9722016,0 L10.9722016,0 Z M6.29426183,1.61603237 L4.74635422,1.61603237 C4.48565399,1.61603237 4.27383505,1.41206712 4.27383505,1.16103297 C4.27383505,0.909998811 4.48565399,0.706033561 4.74635422,0.706033561 L6.29426183,0.706033561 C6.55496206,0.706033561 6.766781,0.909998811 6.766781,1.16103297 C6.766781,1.41206712 6.55496206,1.61603237 6.29426183,1.61603237 Z M9.99294635,1.61603237 L8.44503873,1.61603237 C8.1843385,1.61603237 7.97251956,1.41206712 7.97251956,1.16103297 C7.97251956,0.909998811 8.1843385,0.706033561 8.44503873,0.706033561 L9.99294635,0.706033561 C10.2536466,0.706033561 10.4654655,0.909998811 10.4654655,1.16103297 C10.4654655,1.41206712 10.2536466,1.61603237 9.99294635,1.61603237 Z" id="形状"></path>
                            <path d="M6.0780112,5.30401927 C6.5987395,4.89311137 6.99313725,4.54640784 7.1780112,4.37947651 C7.25504202,4.30976892 7.35056022,4.2712463 7.44761905,4.2712463 L7.67563025,4.2712463 C7.77268908,4.2712463 7.86820728,4.30976892 7.9452381,4.37947651 C8.13165266,4.54640784 8.5245098,4.89311137 9.0452381,5.30401927 C10.2145658,6.22856203 11.5364146,5.98275106 12.5855742,5.89103055 C12.8197479,5.87085204 13,5.63971634 13,5.36088599 L13,3.53197897 C13,3.23847333 12.7997199,3 12.5532213,3 L2.44677871,3 C2.20028011,3 2,3.23847333 2,3.53197897 L2,5.35721717 C2,5.63604752 2.1802521,5.86718321 2.41288515,5.88736173 C3.48207283,5.98275106 4.86246499,6.26341583 6.0780112,5.30401927 Z" id="路径"></path>
                        </g>
                    </g>
                </g>
            </g>
        </g>
    </g>
</svg>