<?xml version="1.0" encoding="UTF-8"?>
<svg width="16px" height="15px" viewBox="0 0 16 15" version="1.1" xmlns="http://www.w3.org/2000/svg" xmlns:xlink="http://www.w3.org/1999/xlink">
    <title>形状</title>
    <g id="-门户网站页面" stroke="none" stroke-width="1" fill="none" fill-rule="evenodd">
        <g id="首页-框架" transform="translate(-656.000000, -857.000000)" fill="#C8C9CC" fill-rule="nonzero">
            <g id="编组-8" transform="translate(0.000000, 732.000000)">
                <g id="编组-7" transform="translate(136.000000, 87.000000)">
                    <g id="编组-4" transform="translate(520.000000, 8.000000)">
                        <path d="M11.4285714,30.5769231 C11.4285714,30.2538462 11.1771429,30 10.8571429,30 C10.5371429,30 10.2857143,30.2538462 10.2857143,30.5769231 L10.2857143,31.1538462 L11.4285714,31.1538462 L11.4285714,30.5769231 Z M5.71428571,30.5769231 C5.71428571,30.2538462 5.46285714,30 5.14285714,30 C4.82285714,30 4.57142857,30.2538462 4.57142857,30.5769231 L4.57142857,31.1538462 L5.71428571,31.1538462 L5.71428571,30.5769231 Z M13.7142857,31.1538462 L11.4285714,31.1538462 L11.4285714,32.8846154 C11.4285714,33.2076923 11.1771429,33.4615385 10.8571429,33.4615385 C10.5371429,33.4615385 10.2857143,33.2076923 10.2857143,32.8846154 L10.2857143,31.1538462 L5.71428571,31.1538462 L5.71428571,32.8846154 C5.71428571,33.2076923 5.46285714,33.4615385 5.14285714,33.4615385 C4.82285714,33.4615385 4.57142857,33.2076923 4.57142857,32.8846154 L4.57142857,31.1538462 L2.28571429,31.1538462 C1.02857143,31.1538462 0,32.1923077 0,33.4615385 L0,42.6923077 C0,43.9615385 1.02857143,45 2.28571429,45 L13.7142857,45 C14.9714286,45 16,43.9615385 16,42.6923077 L16,33.4615385 C16,32.1923077 14.9714286,31.1538462 13.7142857,31.1538462 Z M5.14285714,41.5384615 L4,41.5384615 C3.68,41.5384615 3.42857143,41.2846154 3.42857143,40.9615385 C3.42857143,40.6384615 3.68,40.3846154 4,40.3846154 L5.14285714,40.3846154 C5.46285714,40.3846154 5.71428571,40.6384615 5.71428571,40.9615385 C5.71428571,41.2846154 5.46285714,41.5384615 5.14285714,41.5384615 Z M5.14285714,39.2307692 L4,39.2307692 C3.68,39.2307692 3.42857143,38.9769231 3.42857143,38.6538462 C3.42857143,38.3307692 3.68,38.0769231 4,38.0769231 L5.14285714,38.0769231 C5.46285714,38.0769231 5.71428571,38.3307692 5.71428571,38.6538462 C5.71428571,38.9769231 5.46285714,39.2307692 5.14285714,39.2307692 Z M8.57142857,41.5384615 L7.42857143,41.5384615 C7.10857143,41.5384615 6.85714286,41.2846154 6.85714286,40.9615385 C6.85714286,40.6384615 7.10857143,40.3846154 7.42857143,40.3846154 L8.57142857,40.3846154 C8.89142857,40.3846154 9.14285714,40.6384615 9.14285714,40.9615385 C9.14285714,41.2846154 8.89142857,41.5384615 8.57142857,41.5384615 Z M8.57142857,39.2307692 L7.42857143,39.2307692 C7.10857143,39.2307692 6.85714286,38.9769231 6.85714286,38.6538462 C6.85714286,38.3307692 7.10857143,38.0769231 7.42857143,38.0769231 L8.57142857,38.0769231 C8.89142857,38.0769231 9.14285714,38.3307692 9.14285714,38.6538462 C9.14285714,38.9769231 8.89142857,39.2307692 8.57142857,39.2307692 Z M12,41.5384615 L10.8571429,41.5384615 C10.5371429,41.5384615 10.2857143,41.2846154 10.2857143,40.9615385 C10.2857143,40.6384615 10.5371429,40.3846154 10.8571429,40.3846154 L12,40.3846154 C12.32,40.3846154 12.5714286,40.6384615 12.5714286,40.9615385 C12.5714286,41.2846154 12.32,41.5384615 12,41.5384615 Z M12,39.2307692 L10.8571429,39.2307692 C10.5371429,39.2307692 10.2857143,38.9769231 10.2857143,38.6538462 C10.2857143,38.3307692 10.5371429,38.0769231 10.8571429,38.0769231 L12,38.0769231 C12.32,38.0769231 12.5714286,38.3307692 12.5714286,38.6538462 C12.5714286,38.9769231 12.32,39.2307692 12,39.2307692 Z M14.2857143,35.7692308 L1.71428571,35.7692308 C1.39428571,35.7692308 1.14285714,35.5153846 1.14285714,35.1923077 C1.14285714,34.8692308 1.39428571,34.6153846 1.71428571,34.6153846 L14.2857143,34.6153846 C14.6057143,34.6153846 14.8571429,34.8692308 14.8571429,35.1923077 C14.8571429,35.5153846 14.6057143,35.7692308 14.2857143,35.7692308 Z" id="形状"></path>
                    </g>
                </g>
            </g>
        </g>
    </g>
</svg>