<?xml version="1.0" encoding="UTF-8"?>
<svg width="63px" height="63px" viewBox="0 0 63 63" version="1.1" xmlns="http://www.w3.org/2000/svg" xmlns:xlink="http://www.w3.org/1999/xlink">
    <title>编组 17</title>
    <defs>
        <circle id="path-1" cx="31.5" cy="31.5" r="31.5"></circle>
    </defs>
    <g id="-门户网站页面" stroke="none" stroke-width="1" fill="none" fill-rule="evenodd">
        <g id="运价详情页" transform="translate(-661.000000, -546.000000)">
            <g id="编组-23" transform="translate(643.000000, 15.685162)">
                <g id="暂无船期" transform="translate(0.000000, 512.314838)">
                    <g id="undraw_container_ship_re_alm4" transform="translate(18.000000, 18.000000)">
                        <mask id="mask-2" fill="white">
                            <use xlink:href="#path-1"></use>
                        </mask>
                        <use id="椭圆形" fill="#FFEAC1" xlink:href="#path-1"></use>
                        <g id="编组-20" opacity="0.8" mask="url(#mask-2)" fill-rule="nonzero">
                            <g transform="translate(-16.000000, 9.000000)">
                                <path d="M27.6024221,31.6780323 C25.5538369,31.6289987 23.3576643,32.7768592 22.7747278,34.7413653 L33.8951521,34.2886598 C33.6848422,34.1432875 33.4735853,33.9997329 33.2613812,33.8579961 C31.555154,32.7231488 29.6510025,31.72707 27.6024221,31.6780323 Z" id="路径" fill="#F2F2F2"></path>
                                <path d="M33.8951521,34.2886598 C35.3739531,35.31086 36.8171283,36.4017861 38.4648506,37.1114063 C42.5448624,38.8685327 47.2416495,38.0490592 51.534635,36.9069999 C55.8276198,35.7649422 60.2098388,34.3138496 64.6129624,34.9024767 C67.1097542,35.2362601 69.466952,36.2131046 71.8769863,36.9459795 C74.2870207,37.6788544 76.8801077,38.1696031 79.3116538,37.5116128 C81.7432056,36.8536224 83.9364261,34.7671292 84,32.2489268 C65.6432175,28.854904 48.6244281,28.7541298 33.8951521,34.2886598 Z" id="路径" fill="#FFDA95"></path>
                                <path d="M11.1204243,37.92629 C12.5992253,38.9484901 14.0424005,40.0394162 15.6901228,40.7490364 C19.7701346,42.5061628 24.4669217,41.6866893 28.7599073,40.5446301 C33.052892,39.4025723 37.4351111,37.9514798 41.8382346,38.5401068 C44.3350264,38.8738903 46.6922242,39.8507347 49.1022585,40.5836096 C51.5122929,41.3164846 54.1053799,41.8072333 56.5369261,41.1492429 C58.9684778,40.4912526 61.1616983,38.4047593 61.2252722,35.8865569 C42.8684897,32.4925341 25.8497004,32.3917599 11.1204243,37.92629 Z" id="路径" fill="#FFDA95"></path>
                                <path d="M35.7702911,20.990879 L24.2753799,20.990879 C23.9339408,20.9910971 23.6572035,21.2678324 23.6569828,21.6092714 L23.6569828,25.7972908 C23.6572009,26.1387317 23.933939,26.4154698 24.2753799,26.4156879 L35.7702911,26.4156879 C36.111732,26.4154698 36.3884701,26.1387317 36.3886882,25.7972908 L36.3886882,21.6092714 C36.3884675,21.2678324 36.1117302,20.9910971 35.7702911,20.990879 Z" id="路径" fill="#F2F3F5"></path>
                                <rect id="矩形" fill="#CCCCCC" x="24.4873122" y="20.9908822" width="1" height="5.42481205"></rect>
                                <rect id="矩形" fill="#CCCCCC" x="25.8316538" y="20.9908822" width="1" height="5.42481205"></rect>
                                <rect id="矩形" fill="#CCCCCC" x="27.1759953" y="20.9908822" width="1" height="5.42481205"></rect>
                                <rect id="矩形" fill="#CCCCCC" x="28.5203369" y="20.9908822" width="1" height="5.42481205"></rect>
                                <rect id="矩形" fill="#CCCCCC" x="29.8646785" y="20.9908822" width="1" height="5.42481205"></rect>
                                <rect id="矩形" fill="#CCCCCC" x="31.20902" y="20.9908822" width="1" height="5.42481205"></rect>
                                <rect id="矩形" fill="#CCCCCC" x="32.5533616" y="20.9908822" width="1" height="5.42481205"></rect>
                                <rect id="矩形" fill="#CCCCCC" x="33.8977032" y="20.9908822" width="1" height="5.42481205"></rect>
                                <rect id="矩形" fill="#CCCCCC" x="35.2420447" y="20.9908822" width="1" height="5.42481205"></rect>
                                <path d="M64.0014641,20.990879 L52.5065529,20.990879 C52.1651138,20.9910971 51.8883765,21.2678324 51.8881558,21.6092714 L51.8881558,25.7972908 C51.8883739,26.1387317 52.165112,26.4154698 52.5065529,26.4156879 L64.0014641,26.4156879 C64.342905,26.4154698 64.6196431,26.1387317 64.6198612,25.7972908 L64.6198612,21.6092714 C64.6196405,21.2678324 64.3429032,20.9910971 64.0014641,20.990879 Z" id="路径" fill="#F2F3F5"></path>
                                <rect id="矩形" fill="#CCCCCC" x="52.7184852" y="20.9908822" width="1" height="5.42481205"></rect>
                                <rect id="矩形" fill="#CCCCCC" x="54.0628267" y="20.9908822" width="1" height="5.42481205"></rect>
                                <rect id="矩形" fill="#CCCCCC" x="55.4071683" y="20.9908822" width="1" height="5.42481205"></rect>
                                <rect id="矩形" fill="#CCCCCC" x="56.7515099" y="20.9908822" width="1" height="5.42481205"></rect>
                                <rect id="矩形" fill="#CCCCCC" x="58.0958514" y="20.9908822" width="1" height="5.42481205"></rect>
                                <rect id="矩形" fill="#CCCCCC" x="59.440193" y="20.9908822" width="1" height="5.42481205"></rect>
                                <rect id="矩形" fill="#CCCCCC" x="60.7845346" y="20.9908822" width="1" height="5.42481205"></rect>
                                <rect id="矩形" fill="#CCCCCC" x="62.1288762" y="20.9908822" width="1" height="5.42481205"></rect>
                                <rect id="矩形" fill="#CCCCCC" x="63.4732177" y="20.9908822" width="1" height="5.42481205"></rect>
                                <path d="M51.1906797,20.990879 L39.6957685,20.990879 C39.3543294,20.9910971 39.0775921,21.2678324 39.0773714,21.6092714 L39.0773714,25.7972908 C39.0775895,26.1387317 39.3543276,26.4154698 39.6957685,26.4156879 L51.1906797,26.4156879 C51.5321206,26.4154698 51.8088587,26.1387317 51.8090768,25.7972908 L51.8090768,21.6092714 C51.8088561,21.2678324 51.5321188,20.9910971 51.1906797,20.990879 Z" id="路径" fill="#F2F3F5"></path>
                                <rect id="矩形" fill="#CCCCCC" x="39.9077008" y="20.9908822" width="1" height="5.42481205"></rect>
                                <rect id="矩形" fill="#CCCCCC" x="41.2520424" y="20.9908822" width="1" height="5.42481205"></rect>
                                <rect id="矩形" fill="#CCCCCC" x="42.5963839" y="20.9908822" width="1" height="5.42481205"></rect>
                                <rect id="矩形" fill="#CCCCCC" x="43.9407255" y="20.9908822" width="1" height="5.42481205"></rect>
                                <rect id="矩形" fill="#CCCCCC" x="45.2850671" y="20.9908822" width="1" height="5.42481205"></rect>
                                <rect id="矩形" fill="#CCCCCC" x="46.6294086" y="20.9908822" width="1" height="5.42481205"></rect>
                                <rect id="矩形" fill="#CCCCCC" x="47.9737502" y="20.9908822" width="1" height="5.42481205"></rect>
                                <rect id="矩形" fill="#CCCCCC" x="49.3180918" y="20.9908822" width="1" height="5.42481205"></rect>
                                <rect id="矩形" fill="#CCCCCC" x="50.6624333" y="20.9908822" width="1" height="5.42481205"></rect>
                                <path d="M64.8713322,15.5344338 L53.3764209,15.5344338 C53.0349819,15.5346519 52.7582445,15.8113872 52.7580238,16.1528262 L52.7580238,20.3408456 C52.7582419,20.6822865 53.03498,20.9590246 53.3764209,20.9592427 L64.8713322,20.9592427 C65.2127731,20.9590246 65.4895112,20.6822865 65.4897293,20.3408456 L65.4897293,16.1528262 C65.4895086,15.8113872 65.2127712,15.5346519 64.8713322,15.5344338 L64.8713322,15.5344338 Z" id="路径" fill="#F2F3F5"></path>
                                <rect id="矩形" fill="#CCCCCC" x="53.5883532" y="15.534437" width="1" height="5.42481205"></rect>
                                <rect id="矩形" fill="#CCCCCC" x="54.9326948" y="15.534437" width="1" height="5.42481205"></rect>
                                <rect id="矩形" fill="#CCCCCC" x="56.2770364" y="15.534437" width="1" height="5.42481205"></rect>
                                <rect id="矩形" fill="#CCCCCC" x="57.6213779" y="15.534437" width="1" height="5.42481205"></rect>
                                <rect id="矩形" fill="#CCCCCC" x="58.9657195" y="15.534437" width="1" height="5.42481205"></rect>
                                <rect id="矩形" fill="#CCCCCC" x="60.3100611" y="15.534437" width="1" height="5.42481205"></rect>
                                <rect id="矩形" fill="#CCCCCC" x="61.6544027" y="15.534437" width="1" height="5.42481205"></rect>
                                <rect id="矩形" fill="#CCCCCC" x="62.9987442" y="15.534437" width="1" height="5.42481205"></rect>
                                <rect id="矩形" fill="#CCCCCC" x="64.3430858" y="15.534437" width="1" height="5.42481205"></rect>
                                <path d="M61.4709388,21.3862736 L49.9760276,21.3862736 C49.6345885,21.3864917 49.3578512,21.6632269 49.3576304,22.004666 L49.3576304,26.1926854 C49.3578485,26.5341263 49.6345866,26.8108644 49.9760276,26.8110825 L61.4709388,26.8110825 C61.8123797,26.8108644 62.0891178,26.5341263 62.0893359,26.1926854 L62.0893359,22.004666 C62.0891152,21.6632269 61.8123778,21.3864917 61.4709388,21.3862736 Z" id="路径" fill="#F9A826"></path>
                                <rect id="矩形" fill="#3F3D56" x="50.1879599" y="21.3862768" width="1" height="5.42481205"></rect>
                                <rect id="矩形" fill="#3F3D56" x="51.5323014" y="21.3862768" width="1" height="5.42481205"></rect>
                                <rect id="矩形" fill="#3F3D56" x="52.876643" y="21.3862768" width="1" height="5.42481205"></rect>
                                <rect id="矩形" fill="#3F3D56" x="54.2209846" y="21.3862768" width="1" height="5.42481205"></rect>
                                <rect id="矩形" fill="#3F3D56" x="55.5653261" y="21.3862768" width="1" height="5.42481205"></rect>
                                <rect id="矩形" fill="#3F3D56" x="56.9096677" y="21.3862768" width="1" height="5.42481205"></rect>
                                <rect id="矩形" fill="#3F3D56" x="58.2540093" y="21.3862768" width="1" height="5.42481205"></rect>
                                <rect id="矩形" fill="#3F3D56" x="59.5983508" y="21.3862768" width="1" height="5.42481205"></rect>
                                <rect id="矩形" fill="#3F3D56" x="60.9426924" y="21.3862768" width="1" height="5.42481205"></rect>
                                <path d="M46.9994972,21.3862736 L35.504586,21.3862736 C35.1631469,21.3864917 34.8864096,21.6632269 34.8861888,22.004666 L34.8861888,26.1926854 C34.8864069,26.5341263 35.163145,26.8108644 35.504586,26.8110825 L46.9994972,26.8110825 C47.3409381,26.8108644 47.6176762,26.5341263 47.6178943,26.1926854 L47.6178943,22.004666 C47.6176736,21.6632269 47.3409362,21.3864917 46.9994972,21.3862736 Z" id="路径" fill="#F9A826"></path>
                                <rect id="矩形" fill="#3F3D56" x="35.7165182" y="21.3862768" width="1" height="5.42481205"></rect>
                                <rect id="矩形" fill="#3F3D56" x="37.0608598" y="21.3862768" width="1" height="5.42481205"></rect>
                                <rect id="矩形" fill="#3F3D56" x="38.4052014" y="21.3862768" width="1" height="5.42481205"></rect>
                                <rect id="矩形" fill="#3F3D56" x="39.749543" y="21.3862768" width="1" height="5.42481205"></rect>
                                <rect id="矩形" fill="#3F3D56" x="41.0938845" y="21.3862768" width="1" height="5.42481205"></rect>
                                <rect id="矩形" fill="#3F3D56" x="42.4382261" y="21.3862768" width="1" height="5.42481205"></rect>
                                <rect id="矩形" fill="#3F3D56" x="43.7825677" y="21.3862768" width="1" height="5.42481205"></rect>
                                <rect id="矩形" fill="#3F3D56" x="45.1269092" y="21.3862768" width="1" height="5.42481205"></rect>
                                <rect id="矩形" fill="#3F3D56" x="46.4712508" y="21.3862768" width="1" height="5.42481205"></rect>
                                <path d="M51.3488375,15.9298284 L39.8539263,15.9298284 C39.5124873,15.9300465 39.2357499,16.2067817 39.2355292,16.5482208 L39.2355292,20.7362402 C39.2357473,21.0776811 39.5124854,21.3544192 39.8539263,21.3546373 L51.3488375,21.3546373 C51.6902785,21.3544192 51.9670166,21.0776811 51.9672347,20.7362402 L51.9672347,16.5482208 C51.9670139,16.2067817 51.6902766,15.9300465 51.3488375,15.9298284 Z" id="路径" fill="#F9A826"></path>
                                <rect id="矩形" fill="#3F3D56" x="40.0658586" y="15.9298316" width="1" height="5.42481205"></rect>
                                <rect id="矩形" fill="#3F3D56" x="41.4102002" y="15.9298316" width="1" height="5.42481205"></rect>
                                <rect id="矩形" fill="#3F3D56" x="42.7545418" y="15.9298316" width="1" height="5.42481205"></rect>
                                <rect id="矩形" fill="#3F3D56" x="44.0988833" y="15.9298316" width="1" height="5.42481205"></rect>
                                <rect id="矩形" fill="#3F3D56" x="45.4432249" y="15.9298316" width="1" height="5.42481205"></rect>
                                <rect id="矩形" fill="#3F3D56" x="46.7875665" y="15.9298316" width="1" height="5.42481205"></rect>
                                <rect id="矩形" fill="#3F3D56" x="48.131908" y="15.9298316" width="1" height="5.42481205"></rect>
                                <rect id="矩形" fill="#3F3D56" x="49.4762496" y="15.9298316" width="1" height="5.42481205"></rect>
                                <rect id="矩形" fill="#3F3D56" x="50.8205912" y="15.9298316" width="1" height="5.42481205"></rect>
                                <path d="M31.5791086,21.3862736 L20.0841974,21.3862736 C19.7427583,21.3864917 19.466021,21.6632269 19.4658002,22.004666 L19.4658002,26.1926854 C19.4660183,26.5341263 19.7427564,26.8108644 20.0841974,26.8110825 L31.5791086,26.8110825 C31.9205495,26.8108644 32.1972876,26.5341263 32.1975057,26.1926854 L32.1975057,22.004666 C32.197285,21.6632269 31.9205476,21.3864917 31.5791086,21.3862736 Z" id="路径" fill="#F9A826"></path>
                                <rect id="矩形" fill="#3F3D56" x="20.2961296" y="21.3862768" width="1" height="5.42481205"></rect>
                                <rect id="矩形" fill="#3F3D56" x="21.6404712" y="21.3862768" width="1" height="5.42481205"></rect>
                                <rect id="矩形" fill="#3F3D56" x="22.9848128" y="21.3862768" width="1" height="5.42481205"></rect>
                                <rect id="矩形" fill="#3F3D56" x="24.3291544" y="21.3862768" width="1" height="5.42481205"></rect>
                                <rect id="矩形" fill="#3F3D56" x="25.6734959" y="21.3862768" width="1" height="5.42481205"></rect>
                                <rect id="矩形" fill="#3F3D56" x="27.0178375" y="21.3862768" width="1" height="5.42481205"></rect>
                                <rect id="矩形" fill="#3F3D56" x="28.3621791" y="21.3862768" width="1" height="5.42481205"></rect>
                                <rect id="矩形" fill="#3F3D56" x="29.7065206" y="21.3862768" width="1" height="5.42481205"></rect>
                                <rect id="矩形" fill="#3F3D56" x="31.0508622" y="21.3862768" width="1" height="5.42481205"></rect>
                                <path d="M34.4259495,15.9298284 L22.9310383,15.9298284 C22.5895993,15.9300465 22.3128619,16.2067817 22.3126412,16.5482208 L22.3126412,20.7362402 C22.3128593,21.0776811 22.5895974,21.3544192 22.9310383,21.3546373 L34.4259495,21.3546373 C34.7673905,21.3544192 35.0441286,21.0776811 35.0443467,20.7362402 L35.0443467,16.5482208 C35.0441259,16.2067817 34.7673886,15.9300465 34.4259495,15.9298284 Z" id="路径" fill="#F9A826"></path>
                                <rect id="矩形" fill="#3F3D56" x="23.1429706" y="15.9298316" width="1" height="5.42481205"></rect>
                                <rect id="矩形" fill="#3F3D56" x="24.4873122" y="15.9298316" width="1" height="5.42481205"></rect>
                                <rect id="矩形" fill="#3F3D56" x="25.8316538" y="15.9298316" width="1" height="5.42481205"></rect>
                                <rect id="矩形" fill="#3F3D56" x="27.1759953" y="15.9298316" width="1" height="5.42481205"></rect>
                                <rect id="矩形" fill="#3F3D56" x="28.5203369" y="15.9298316" width="1" height="5.42481205"></rect>
                                <rect id="矩形" fill="#3F3D56" x="29.8646785" y="15.9298316" width="1" height="5.42481205"></rect>
                                <rect id="矩形" fill="#3F3D56" x="31.20902" y="15.9298316" width="1" height="5.42481205"></rect>
                                <rect id="矩形" fill="#3F3D56" x="32.5533616" y="15.9298316" width="1" height="5.42481205"></rect>
                                <rect id="矩形" fill="#3F3D56" x="33.8977032" y="15.9298316" width="1" height="5.42481205"></rect>
                                <path d="M71.5911817,27.1313616 C71.5721543,27.0629916 71.5476376,26.9962694 71.5178708,26.9318455 L70.1066229,23.8955172 C69.8952112,23.440668 69.4391684,23.1497371 68.9375882,23.1497358 L63.1489768,23.1497358 C62.6473965,23.1497371 62.1913537,23.440668 61.9799421,23.8955172 L60.8196172,26.3919714 L27.7367874,26.3919714 L26.6132191,23.9745961 C26.4018075,23.5197469 25.9457647,23.2288161 25.4441845,23.2288147 L19.655573,23.2288147 C19.4333955,23.2289185 19.2150284,23.2865346 19.0217207,23.3960564 L18.0484522,21.6580726 C17.9162763,21.4220455 17.6414159,21.3050158 17.3796636,21.3733166 C17.1179114,21.4416174 16.9352757,21.6780247 16.9352757,21.9485413 L16.9352757,35.5981245 C16.9352757,36.0088332 17.0984282,36.4027207 17.3888432,36.6931356 C17.6792582,36.9835506 18.0731456,37.1467031 18.4838544,37.1467031 L62.7820973,37.1467031 C63.1987934,37.1467031 63.5979058,36.9787709 63.8892503,36.6808548 L71.377909,29.0232756 C71.8787881,28.5182374 71.9670549,27.7352349 71.5911817,27.1313616 Z" id="路径" fill="#3C4144"></path>
                                <path d="M63.7973329,26.1942717 L63.0700228,26.1942717 C62.7469284,26.1939022 62.4851008,25.9320746 62.4847313,25.6089802 L62.4847313,24.8025927 C62.4851008,24.4794982 62.7469283,24.2176704 63.0700228,24.2173004 L63.7973329,24.2173004 C64.1204278,24.2176699 64.3822557,24.4794979 64.3826253,24.8025927 L64.3826253,25.6089818 C64.3822544,25.9320757 64.1204268,26.1939022 63.7973329,26.1942717 L63.7973329,26.1942717 Z" id="路径" fill="#FFFFFF"></path>
                                <path d="M66.4069372,26.1942717 L65.679627,26.1942717 C65.3565326,26.1939022 65.094705,25.9320746 65.0943355,25.6089802 L65.0943355,24.8025927 C65.094705,24.4794982 65.3565325,24.2176704 65.679627,24.2173004 L66.4069372,24.2173004 C66.730032,24.2176699 66.9918599,24.4794979 66.9922295,24.8025927 L66.9922295,25.6089818 C66.9918586,25.9320757 66.7300311,26.1939022 66.4069372,26.1942717 L66.4069372,26.1942717 Z" id="路径" fill="#FFFFFF"></path>
                                <path d="M69.0165414,26.1942717 L68.2892312,26.1942717 C67.9661369,26.1939022 67.7043093,25.9320746 67.7039397,25.6089802 L67.7039397,24.8025927 C67.7043093,24.4794982 67.9661367,24.2176704 68.2892312,24.2173004 L69.0165414,24.2173004 C69.3396362,24.2176699 69.6014642,24.4794979 69.6018337,24.8025927 L69.6018337,25.6089818 C69.6014629,25.9320757 69.3396353,26.1939022 69.0165414,26.1942717 L69.0165414,26.1942717 Z" id="路径" fill="#FFFFFF"></path>
                                <path d="M20.3039292,26.2733506 L19.5766191,26.2733506 C19.2535247,26.2729811 18.9916971,26.0111535 18.9913275,25.6880591 L18.9913275,24.8816716 C18.9916971,24.5585771 19.2535245,24.2967493 19.5766191,24.2963793 L20.3039292,24.2963793 C20.627024,24.2967488 20.888852,24.5585768 20.8892215,24.8816716 L20.8892215,25.6880607 C20.8888507,26.0111546 20.6270231,26.2729811 20.3039292,26.2733506 Z" id="路径" fill="#FFFFFF"></path>
                                <path d="M22.9135334,26.2733506 L22.1862233,26.2733506 C21.8631289,26.2729811 21.6013013,26.0111535 21.6009318,25.6880591 L21.6009318,24.8816716 C21.6013013,24.5585771 21.8631288,24.2967493 22.1862233,24.2963793 L22.9135334,24.2963793 C23.2366282,24.2967488 23.4984562,24.5585768 23.4988257,24.8816716 L23.4988257,25.6880607 C23.4984549,26.0111546 23.2366273,26.2729811 22.9135334,26.2733506 Z" id="路径" fill="#FFFFFF"></path>
                                <path d="M25.5231376,26.2733506 L24.7958275,26.2733506 C24.4727331,26.2729811 24.2109055,26.0111535 24.210536,25.6880591 L24.210536,24.8816716 C24.2109055,24.5585771 24.472733,24.2967493 24.7958275,24.2963793 L25.5231376,24.2963793 C25.8462325,24.2967488 26.1080604,24.5585768 26.10843,24.8816716 L26.10843,25.6880607 C26.1080591,26.0111546 25.8462315,26.2729811 25.5231376,26.2733506 L25.5231376,26.2733506 Z" id="路径" fill="#FFFFFF"></path>
                                <path d="M15.790451,34.601534 C13.7418659,34.5525051 11.5456933,35.7003616 10.9627568,37.6648669 L22.0831803,37.2121615 C21.8728715,37.0667891 21.6616148,36.9232346 21.4494102,36.7814977 C19.7431853,35.6466536 17.8390307,34.6505756 15.790451,34.601534 Z" id="路径" fill="#F9A826"></path>
                                <path d="M22.0831803,37.2121615 C23.5619813,38.2343617 25.0051573,39.3252877 26.6528788,40.0349079 C30.7328914,41.7920343 35.4296785,40.9725609 39.7226617,39.8305024 C44.0156449,38.6884439 48.3978662,37.2373513 52.800989,37.8259792 C55.2977816,38.1597618 57.6549786,39.136607 60.0650129,39.8694819 C62.4750473,40.6023569 65.0681351,41.0931056 67.4996813,40.4351152 C69.9312322,39.7771249 72.1244535,37.6906316 72.1880274,35.1724284 C53.8312465,31.7784064 36.8124563,31.6776322 22.0831803,37.2121615 Z" id="路径" fill="#F9A826"></path>
                                <circle id="椭圆形" fill="#F56C6C" cx="60.6595598" cy="2.11146636" r="2.11146636"></circle>
                                <path d="M65.3851711,1.11165186 C65.2634657,0.712610027 64.9163985,0.423957018 64.5018597,0.377008732 C64.4971232,0.376612898 64.4923619,0.376612898 64.4876254,0.377008732 C64.4819405,0.375230776 64.476123,0.37390861 64.4702281,0.373054786 C63.7632626,0.281323243 62.9772182,0.504325786 62.4481802,0.98987033 L62.4423782,0.995195504 C62.1697576,1.24740232 61.7859347,1.34036501 61.4281262,1.24084941 C61.3313753,1.21413863 61.2309719,1.2030904 61.1307278,1.20812418 C60.6922815,1.23710992 60.3190768,1.53788757 60.1975966,1.96016467 C60.1842109,2.01187844 60.2064061,2.06624049 60.2521611,2.09380804 C60.3157597,2.14820433 60.391384,2.18669414 60.4727913,2.2061001 C60.6475557,2.24326719 60.8239016,2.27727113 61.0002476,2.3081119 C61.3450317,2.36821188 61.691661,2.41697721 62.0401354,2.4544079 C62.270255,2.47892236 62.5009019,2.49842849 62.7320759,2.5129263 C63.2097125,2.54297628 63.6897216,2.55009339 64.168149,2.53506839 C64.4053857,2.5271605 64.633133,2.51925261 64.8498093,2.41486844 C65.0076996,2.33721847 65.142617,2.21974494 65.2412499,2.07403831 C65.429214,1.79032309 65.481911,1.43794348 65.3851711,1.11165186 Z" id="路径" fill="#FFFFFF"></path>
                                <path d="M61.0413663,4.18782327 C61.0373646,4.09934934 61.0224914,4.01170398 60.9970821,3.92686285 C60.8748107,3.52788028 60.5276052,3.23937047 60.1129798,3.19221972 C60.1085074,3.19182412 60.1040088,3.19182412 60.0995364,3.19221972 C60.0935619,3.19052451 60.0874873,3.18920396 60.0813483,3.18826577 C59.6900713,3.14033621 59.2930235,3.18114915 58.919679,3.30767494 C58.5990019,3.41232151 58.3040166,3.58345985 58.0540021,3.80990513 C57.7815157,4.06239712 57.3976022,4.15555904 57.0396956,4.05604063 C56.9427887,4.02933614 56.8422358,4.01829527 56.7418433,4.02333596 C56.3033962,4.05231987 55.9301906,4.35309826 55.8087121,4.77537645 C55.7960961,4.82703578 55.8181094,4.8809524 55.8632765,4.90901982 C55.9269757,4.96326545 56.002562,5.00173594 56.0839067,5.02131188 C56.2594619,5.05847897 56.4350171,5.09248291 56.6121538,5.12332368 C56.9569379,5.18342366 57.3033036,5.23218899 57.6512508,5.26961968 C58.3581474,5.34550713 59.0694429,5.37245815 59.7800552,5.35028017 C60.0165012,5.34237228 60.2450392,5.33446439 60.4617155,5.23008022 C60.6193736,5.15240184 60.7540278,5.03492007 60.8523653,4.88925009 C60.9909884,4.68267902 61.0574359,4.43607661 61.0413663,4.18782327 L61.0413663,4.18782327 Z" id="路径" fill="#FFFFFF"></path>
                                <path d="M61.8252258,9.34737854 C61.8000178,9.45740378 61.8176996,9.57290047 61.8746699,9.67034474 C61.9432732,9.77225115 62.0721081,9.81487069 62.1879497,9.77398003 C62.4091334,9.70530948 62.6273469,9.62488464 62.8466399,9.55036621 C62.908826,9.53170075 62.9453251,9.4674172 62.9294877,9.40445137 C62.9115539,9.34168593 62.8466612,9.30484102 62.7835729,9.32160356 L62.2355718,9.50782254 C62.1942349,9.52186933 62.1530466,9.53784248 62.1109244,9.54937614 C62.1065205,9.55058209 62.0904272,9.55412088 62.0912939,9.5540418 C62.0933152,9.55385438 62.1058112,9.55518844 62.0919423,9.55422763 C62.0840345,9.55184894 62.084089,9.5523677 62.092106,9.55578391 L62.0816249,9.54981819 C62.0911935,9.55778223 62.0804719,9.54875221 62.0771751,9.54540796 C62.0742698,9.5424599 62.0657277,9.53070403 62.0723252,9.54036589 C62.0675699,9.53346923 62.0634141,9.52617785 62.0599035,9.51857174 C62.0656913,9.53138727 62.0548227,9.49968611 62.0540556,9.49529802 C62.0496139,9.44584538 62.0524463,9.39600869 62.0624625,9.34737775 C62.0621449,9.28199863 62.0092233,9.22907697 61.9438441,9.22875937 C61.87901,9.2303657 61.8268321,9.28254365 61.8252258,9.34737775 L61.8252258,9.34737854 Z" id="路径" fill="#3F3D56"></path>
                                <path d="M52.9935699,9.76389589 L53.5782153,10.5010838 C53.6526143,10.5948951 53.8121086,10.4933388 53.7764717,10.3856744 C53.7035941,10.1654974 53.9551473,10.0428128 54.1287825,10.006559 C54.3591623,9.95845691 54.5903274,9.96625962 54.808926,9.8672465 C54.9477886,9.80434871 54.8273253,9.59983086 54.6891879,9.66239968 C54.4334759,9.77822262 54.1353097,9.72512666 53.876376,9.83778881 C53.6449374,9.93848869 53.4619385,10.1896109 53.5477098,10.4487414 L53.745963,10.3333345 L53.1613176,9.59614578 C53.1148083,9.55027349 53.0400752,9.55027349 52.9935659,9.59614578 C52.9487084,9.64306701 52.9487084,9.71697703 52.9935659,9.76389826 L52.9935699,9.76389589 Z" id="路径" fill="#3F3D56"></path>
                                <path d="M51.8073861,1.14429406 L52.3920316,1.88148194 C52.4664306,1.97529326 52.6259249,1.87373695 52.590288,1.76607259 C52.5174104,1.54589554 52.7689636,1.42321093 52.9425988,1.3869572 C53.1729786,1.33885508 53.4041436,1.34665779 53.6227423,1.24764466 C53.7616049,1.18474687 53.6411416,0.980229028 53.5030042,1.04279785 C53.2472922,1.15862078 52.9491259,1.10552483 52.6901923,1.21818698 C52.4587536,1.31888686 52.2757547,1.57000907 52.3615261,1.82913961 L52.5597793,1.71373263 L51.9751339,0.976543951 C51.9286246,0.930671653 51.8538914,0.930671653 51.8073822,0.976543951 C51.7625247,1.02346518 51.7625247,1.0973752 51.8073822,1.14429643 L51.8073861,1.14429406 Z" id="路径" fill="#3F3D56"></path>
                            </g>
                        </g>
                    </g>
                </g>
            </g>
        </g>
    </g>
</svg>