<?xml version="1.0" encoding="UTF-8"?>
<svg width="177px" height="126px" viewBox="0 0 177 126" version="1.1" xmlns="http://www.w3.org/2000/svg" xmlns:xlink="http://www.w3.org/1999/xlink">
    <title>编组 12</title>
    <defs>
        <filter x="-7.6%" y="-11.1%" width="115.2%" height="122.2%" filterUnits="objectBoundingBox" id="filter-1">
            <feOffset dx="0" dy="2" in="SourceAlpha" result="shadowOffsetOuter1"></feOffset>
            <feGaussianBlur stdDeviation="2" in="shadowOffsetOuter1" result="shadowBlurOuter1"></feGaussianBlur>
            <feColorMatrix values="0 0 0 0 0   0 0 0 0 0   0 0 0 0 0  0 0 0 0.5 0" type="matrix" in="shadowBlurOuter1" result="shadowMatrixOuter1"></feColorMatrix>
            <feMerge>
                <feMergeNode in="shadowMatrixOuter1"></feMergeNode>
                <feMergeNode in="SourceGraphic"></feMergeNode>
            </feMerge>
        </filter>
    </defs>
    <g id="DMS-客户-提单-门户框架" stroke="none" stroke-width="1" fill="none" fill-rule="evenodd">
        <g id="基础首页" transform="translate(-191.000000, -263.000000)" fill="#FFFFFF">
            <g id="编组-12" filter="url(#filter-1)" transform="translate(200.000000, 272.000000)">
                <g id="编组-9" transform="translate(0.000000, 0.000000)">
                    <path d="M0,93.6 C6.6,96.8 13.2,98.4 19.8,98.4 C26.4,98.4 33,96.8 39.6,93.6 C46.2,96.8 52.8,98.4 59.4,98.4 C66,98.4 72.6,96.8 79.2,93.6 C85.8,96.8 92.4,98.4 99,98.4 C105.6,98.4 112.2,96.8 118.8,93.6 C125.4,96.8 132,98.4 138.6,98.4 C145.2,98.4 151.8,96.8 158.4,93.6 L158.4,108 L0,108 L0,93.6 Z M158.4,84 L158.4,91.2 C151.8,94.4 145.2,96 138.6,96 C132,96 125.4,94.4 118.8,91.2 C112.2,94.4 105.6,96 99,96 C92.4,96 85.8,94.4 79.2,91.2 C72.6,94.4 66,96 59.4,96 C52.8,96 46.2,94.4 39.6,91.2 C33,94.4 26.4,96 19.8,96 C13.2,96 6.6,94.4 0,91.2 L0,84 C6.6,87.2 13.2,88.8 19.8,88.8 C26.4,88.8 33,87.2 39.6,84 C46.2,87.2 52.8,88.8 59.4,88.8 C66,88.8 72.6,87.2 79.2,84 C85.8,87.2 92.4,88.8 99,88.8 C105.6,88.8 112.2,87.2 118.8,84 C125.4,87.2 132,88.8 138.6,88.8 C145.2,88.8 151.8,87.2 158.4,84 Z M158.4,76.8 L158.4,79.2 C151.8,82.4 145.2,84 138.6,84 C132,84 125.4,82.4 118.8,79.2 C112.2,82.4 105.6,84 99,84 C92.4,84 85.8,82.4 79.2,79.2 C72.6,82.4 66,84 59.4,84 C52.8,84 46.2,82.4 39.6,79.2 C33,82.4 26.4,84 19.8,84 C13.2,84 6.6,82.4 0,79.2 L0,76.8 C6.6,80 13.2,81.6 19.8,81.6 C26.4,81.6 33,80 39.6,76.8 C46.2,80 52.8,81.6 59.4,81.6 C66,81.6 72.6,80 79.2,76.8 C85.8,80 92.4,81.6 99,81.6 C105.6,81.6 112.2,80 118.8,76.8 C125.4,80 132,81.6 138.6,81.6 C145.2,81.6 151.8,80 158.4,76.8 Z" id="矩形备份-3"></path>
                    <g id="编组-5" transform="translate(9.000000, 0.000000)" fill-rule="nonzero">
                        <path d="M120.319565,3.55271368e-14 C124.102174,3.55271368e-14 127.08587,0.226917511 129.270652,0.680752533 C131.455435,1.13458755 133.265217,2.13950796 134.7,3.69551375 C136.134783,5.25151954 137.080435,7.22894356 137.536957,9.62778582 C137.797826,11.0541245 137.928261,13.6798842 137.928261,17.5050651 L137.928261,18.3803184 L123.352174,18.3803184 L123.352174,15.3655572 C123.352174,13.6150507 123.319565,12.5452967 123.254348,12.1562952 C122.993478,10.665123 122.178261,9.9195369 120.808696,9.9195369 C118.917391,9.9195369 117.971739,11.6700434 117.971739,15.1710564 C117.971739,17.8940666 118.411957,19.8390738 119.292391,21.0060781 C120.172826,22.1730825 122.895652,24.2153401 127.46087,27.1328509 C132.482609,30.3096961 135.776087,33.681042 137.341304,37.2468886 C138.580435,40.0347323 139.2,44.4109986 139.2,50.3756874 C139.2,54.2008683 138.922826,56.9400868 138.368478,58.593343 C137.81413,60.2465991 136.884783,61.7863965 135.580435,63.2127352 C134.276087,64.6390738 132.45,65.6602026 130.102174,66.2761216 C127.754348,66.8920405 124.95,67.2 121.68913,67.2 C118.167391,67.2 115.265217,66.8758321 112.982609,66.2274964 C110.7,65.5791606 108.890217,64.4769899 107.553261,62.9209841 C106.216304,61.3649783 105.238043,59.5334298 104.618478,57.4263386 C103.998913,55.3192475 103.68913,51.96411 103.68913,47.3609262 L103.68913,44.8324168 L118.363043,44.8324168 L118.363043,51.0564399 C118.363043,53.3256151 118.509783,54.8816208 118.803261,55.7244573 C119.096739,56.5672938 119.863043,56.988712 121.102174,56.988712 C123.18913,56.988712 124.232609,55.1733719 124.232609,51.5426918 C124.232609,49.2086831 124.102174,47.4581766 123.841304,46.2911722 C123.580435,45.1241679 122.797826,43.89233 121.493478,42.5956585 C115.428261,38.251809 111.254348,35.0101302 108.971739,32.8706223 C105.123913,29.3047757 103.2,24.0532562 103.2,17.1160637 C103.2,14.6523878 103.346739,12.5128799 103.640217,10.6975398 C103.933696,8.88219971 104.536957,7.16410999 105.45,5.54327062 C106.754348,3.40376266 108.580435,1.94500724 110.928261,1.16700434 C113.276087,0.389001447 116.406522,3.55271368e-14 120.319565,3.55271368e-14 Z M71.3307042,0 C82.2828169,0 89.2597183,3.86478873 92.2614085,11.5943662 C92.8292958,12.9352113 93.1943662,14.7098592 93.3566197,16.9183099 C93.5188732,19.1267606 93.6,21.4140845 93.6,23.7802817 L93.6,47.7971831 L93.6,47.7971831 C93.4377465,50.7943662 92.9509859,53.3971831 92.1397183,55.6056338 C90.7605634,59.628169 88.3673239,62.5661972 84.96,64.4197183 C81.5526761,66.2732394 77.171831,67.2 71.8174648,67.2 L69.7487324,67.2 L69.7487324,67.2 C66.6659155,67.2 64.2321127,67.0422535 62.4473239,66.7267606 C60.6625352,66.4112676 58.9183099,65.6225352 57.2146479,64.3605634 C54.3752113,62.3098592 52.5295775,59.6084507 51.6777465,56.256338 C50.8259155,52.9042254 50.4,48.2704225 50.4,42.3549296 L50.4,21.1774648 L50.4,21.1774648 C50.4,19.8366197 50.5216901,18.4169014 50.7650704,16.9183099 C51.576338,11.2394366 53.7059155,7 57.1538028,4.2 C60.6016901,1.4 65.3273239,0 71.3307042,0 Z M40.8,0 L40.8,9.6 L27.9845974,9.6 L27.9845974,67.1189652 L11.858973,67.1189652 L11.858973,9.6 L0,9.6 L0,0 L40.8,0 Z M71.9391549,11.0028169 C70.56,11.0028169 69.7487324,11.6929577 69.5053521,13.0732394 C69.2619718,14.4535211 69.1402817,15.8140845 69.1402817,17.1549296 L69.1402817,50.7549296 C69.1402817,52.5690141 69.3228169,53.9690141 69.6878873,54.9549296 C70.0529577,55.9408451 70.8033803,56.4338028 71.9391549,56.4338028 C73.8050704,56.4338028 74.7380282,55.2507042 74.7380282,52.884507 L74.7380282,17.1549296 L74.7380282,17.1549296 C74.7380282,14.4732394 74.5352113,12.7774648 74.1295775,12.0676056 C73.7239437,11.3577465 72.9938028,11.0028169 71.9391549,11.0028169 Z" id="路径-4"></path>
                    </g>
                </g>
            </g>
        </g>
    </g>
</svg>