<?xml version="1.0" encoding="UTF-8"?>
<svg width="18px" height="20px" viewBox="0 0 18 20" version="1.1" xmlns="http://www.w3.org/2000/svg" xmlns:xlink="http://www.w3.org/1999/xlink">
    <title>dingwei</title>
    <g id="-门户网站页面" stroke="none" stroke-width="1" fill="none" fill-rule="evenodd">
        <g id="首页-框架" transform="translate(-353.000000, -782.000000)" fill="#C8C9CC" fill-rule="nonzero">
            <g id="编组-8" transform="translate(0.000000, 732.000000)">
                <g id="dingwei" transform="translate(353.000000, 50.000000)">
                    <path d="M6.12554113,14.3073593 L5.73593074,13.982684 C5.51948052,13.8095238 0.584415584,9.56709957 0.584415584,5.54112554 C0.584415584,2.48917749 3.07359307,0 6.12554113,0 C9.17748918,0 11.6666667,2.48917749 11.6666667,5.54112554 C11.6666667,9.56709957 6.73160173,13.8095238 6.51515152,13.982684 L6.12554113,14.3073593 Z M6.12554113,1.19047619 C3.72294372,1.19047619 1.77489177,3.13852814 1.77489177,5.54112554 C1.77489177,8.44155844 5,11.6883117 6.12554113,12.7489177 C7.25108225,11.7099567 10.4761905,8.44155844 10.4761905,5.54112554 C10.4761905,3.13852814 8.52813853,1.19047619 6.12554113,1.19047619 Z" id="形状"></path>
                    <path d="M6.12554113,8.41991342 C4.54545455,8.41991342 3.24675325,7.12121212 3.24675325,5.54112554 C3.24675325,3.96103896 4.54545455,2.66233766 6.12554113,2.66233766 C7.70562771,2.66233766 9.004329,3.96103896 9.004329,5.54112554 C8.98268398,7.12121212 7.70562771,8.41991342 6.12554113,8.41991342 Z M6.12554113,3.85281385 C5.19480519,3.85281385 4.43722944,4.61038961 4.43722944,5.54112554 C4.43722944,6.47186147 5.19480519,7.22943723 6.12554113,7.22943723 C7.05627706,7.22943723 7.81385281,6.47186147 7.81385281,5.54112554 C7.81385281,4.61038961 7.05627706,3.85281385 6.12554113,3.85281385 Z" id="形状"></path>
                    <path d="M17.0562771,20 L2.94372294,20 C1.32034632,20 0,18.9393939 0,17.6406926 C0,16.3419913 1.32034632,15.3030303 2.94372294,15.3030303 L10,15.3030303 C10.974026,15.3030303 11.7748918,14.6536797 11.7748918,13.8311688 C11.7748918,13.008658 10.974026,12.3593074 10,12.3593074 C9.67532468,12.3593074 9.41558442,12.0995671 9.41558442,11.7748918 C9.41558442,11.4502165 9.67532468,11.1904762 10,11.1904762 C11.6233766,11.1904762 12.9437229,12.3809524 12.9437229,13.8311688 C12.9437229,15.2813853 11.6233766,16.4718615 10,16.4718615 L2.94372294,16.4718615 C1.99134199,16.4718615 1.16883117,17.012987 1.16883117,17.6406926 C1.16883117,18.2683983 1.96969697,18.8095238 2.94372294,18.8095238 L17.0562771,18.8095238 C17.3809524,18.8095238 17.6406926,19.0692641 17.6406926,19.3939394 C17.6406926,19.7186147 17.3809524,20 17.0562771,20 Z" id="路径"></path>
                </g>
            </g>
        </g>
    </g>
</svg>