<?xml version="1.0" encoding="UTF-8"?>
<svg width="240px" height="26px" viewBox="0 0 240 26" version="1.1" xmlns="http://www.w3.org/2000/svg" xmlns:xlink="http://www.w3.org/1999/xlink">
    <title>编组 10</title>
    <g id="DMS-客户-提单-门户框架" stroke="none" stroke-width="1" fill="none" fill-rule="evenodd">
        <g id="基础首页" transform="translate(-128.000000, -13.000000)" fill="#FFFFFF">
            <g id="编组-6" transform="translate(120.000000, 0.000000)">
                <g id="编组-10" transform="translate(8.000000, 13.000000)">
                    <g id="编组-9">
                        <path d="M0,21.2037188 C1.49513402,21.9286323 2.99026804,22.291089 4.48540206,22.291089 C5.98053607,22.291089 7.47567009,21.9286323 8.97080411,21.2037188 C10.4659381,21.9286323 11.9610721,22.291089 13.4562062,22.291089 C14.9513402,22.291089 16.4464742,21.9286323 17.9416082,21.2037188 C19.4367422,21.9286323 20.9318763,22.291089 22.4270103,22.291089 C23.9221443,22.291089 25.4172783,21.9286323 26.9124123,21.2037188 C28.4075463,21.9286323 29.9026804,22.291089 31.3978144,22.291089 C32.8929484,22.291089 34.3880824,21.9286323 35.8832164,21.2037188 L35.8832164,24.4658294 L0,24.4658294 L0,21.2037188 Z" id="矩形"></path>
                        <path d="M0,19.0289784 C1.49513402,19.7538919 2.99026804,20.1163486 4.48540206,20.1163486 C5.98053607,20.1163486 7.47567009,19.7538919 8.97080411,19.0289784 C10.4659381,19.7538919 11.9610721,20.1163486 13.4562062,20.1163486 C14.9513402,20.1163486 16.4464742,19.7538919 17.9416082,19.0289784 C19.4367422,19.7538919 20.9318763,20.1163486 22.4270103,20.1163486 C23.9221443,20.1163486 25.4172783,19.7538919 26.9124123,19.0289784 C28.4075463,19.7538919 29.9026804,20.1163486 31.3978144,20.1163486 C32.8929484,20.1163486 34.3880824,19.7538919 35.8832164,19.0289784 L35.8832164,20.6600337 C34.3880824,21.3849472 32.8929484,21.7474039 31.3978144,21.7474039 C29.9026804,21.7474039 28.4075463,21.3849472 26.9124123,20.6600337 C25.4172783,21.3849472 23.9221443,21.7474039 22.4270103,21.7474039 C20.9318763,21.7474039 19.4367422,21.3849472 17.9416082,20.6600337 C16.4464742,21.3849472 14.9513402,21.7474039 13.4562062,21.7474039 C11.9610721,21.7474039 10.4659381,21.3849472 8.97080411,20.6600337 C7.47567009,21.3849472 5.98053607,21.7474039 4.48540206,21.7474039 C2.99026804,21.7474039 1.49513402,21.3849472 0,20.6600337 L0,19.0289784 Z" id="矩形备份"></path>
                        <path d="M0,17.3979231 C1.49513402,18.1228366 2.99026804,18.4852933 4.48540206,18.4852933 C5.98053607,18.4852933 7.47567009,18.1228366 8.97080411,17.3979231 C10.4659381,18.1228366 11.9610721,18.4852933 13.4562062,18.4852933 C14.9513402,18.4852933 16.4464742,18.1228366 17.9416082,17.3979231 C19.4367422,18.1228366 20.9318763,18.4852933 22.4270103,18.4852933 C23.9221443,18.4852933 25.4172783,18.1228366 26.9124123,17.3979231 C28.4075463,18.1228366 29.9026804,18.4852933 31.3978144,18.4852933 C32.8929484,18.4852933 34.3880824,18.1228366 35.8832164,17.3979231 L35.8832164,17.9416082 C34.3880824,18.6665217 32.8929484,19.0289784 31.3978144,19.0289784 C29.9026804,19.0289784 28.4075463,18.6665217 26.9124123,17.9416082 C25.4172783,18.6665217 23.9221443,19.0289784 22.4270103,19.0289784 C20.9318763,19.0289784 19.4367422,18.6665217 17.9416082,17.9416082 C16.4464742,18.6665217 14.9513402,19.0289784 13.4562062,19.0289784 C11.9610721,19.0289784 10.4659381,18.6665217 8.97080411,17.9416082 C7.47567009,18.6665217 5.98053607,19.0289784 4.48540206,19.0289784 C2.99026804,19.0289784 1.49513402,18.6665217 0,17.9416082 L0,17.3979231 Z" id="矩形备份-2"></path>
                        <g id="o" transform="translate(12.504757, 0.000000)" fill-rule="nonzero">
                            <path d="M9.78633176,9.08566716 C9.78633176,9.31794577 9.78633176,9.48768783 9.78633176,9.59489334 C9.78633176,10.0058478 9.78633176,10.4168023 9.78633176,10.8277567 C9.74957558,11.506725 9.63930705,12.0963553 9.45552618,12.5966477 C9.14309868,13.5078945 8.60094509,14.1734621 7.82906541,14.5933503 C7.05718572,15.0132386 6.06476898,15.2231827 4.85181518,15.2231827 C4.63127813,15.2231827 4.47506438,15.2231827 4.38317394,15.2231827 C3.68480661,15.2231827 3.13346397,15.1874476 2.72914604,15.1159772 C2.32482811,15.0445069 1.92969922,14.865831 1.54375938,14.5799497 C0.900526302,14.1153924 0.482424805,13.5034276 0.289454883,12.7440553 C0.096484961,11.9846829 0,10.9349622 0,9.59489334 L0,5.7354949 C0,5.41387837 0,5.10119562 0,4.79744667 C0,4.49369772 0.0275671317,4.17208118 0.0827013951,3.83259706 C0.266482273,2.54613091 0.748907078,1.5857482 1.52997581,0.951448921 C2.31104454,0.31714964 3.38156816,0 4.74154665,0 C7.22258851,0 8.80310406,0.875511683 9.48309331,2.62653505 C9.61173992,2.930284 9.69444132,3.33230467 9.73119749,3.83259706 C9.76795367,4.33288945 9.78633176,4.85104943 9.78633176,5.38707699 L9.78633176,9.08566716 Z M5.51342634,11.980216 L5.51342634,4.23461773 C5.51342634,4.07380946 5.51342634,3.95767016 5.51342634,3.88619982 C5.51342634,3.27870191 5.46748112,2.89454883 5.37559068,2.73374056 C5.28370024,2.57293229 5.11829745,2.49252816 4.87938231,2.49252816 C4.56695482,2.49252816 4.38317394,2.64886953 4.32803968,2.96155227 C4.27290541,3.27423502 4.24533828,3.58245087 4.24533828,3.88619982 C4.24533828,4.04700809 4.24533828,4.16314739 4.24533828,4.23461773 L4.24533828,11.4977912 C4.24533828,11.9087456 4.28668898,12.2258953 4.36939038,12.4492401 C4.45209177,12.6725849 4.62208908,12.7842573 4.87938231,12.7842573 C5.30207833,12.7842573 5.51342634,12.5162435 5.51342634,11.980216 Z" id="形状"></path>
                        </g>
                        <g id="S" transform="translate(24.465829, 0.000000)" fill-rule="nonzero">
                            <path d="M8.15527646,11.4118794 C8.15527646,12.2784185 8.09248674,12.8989486 7.96690731,13.2734697 C7.84132787,13.6479909 7.63079763,13.9968096 7.3353166,14.3199259 C7.03983557,14.6430421 6.62616213,14.874364 6.09429627,15.0138915 C5.56243041,15.153419 4.9271462,15.2231827 4.18844362,15.2231827 C3.39064483,15.2231827 2.73319954,15.1497472 2.21610773,15.0028762 C1.69901593,14.8560051 1.289036,14.6063244 0.986167942,14.2538339 C0.683299885,13.9013434 0.461689111,13.4864327 0.321335622,13.0091019 C0.180982132,12.531771 0.110805387,11.7717134 0.110805387,10.7289291 L0.110805387,10.156132 L3.43496699,10.156132 L3.43496699,11.566094 C3.43496699,12.0801426 3.4682086,12.4326331 3.53469184,12.6235654 C3.60117507,12.8144978 3.77477017,12.9099639 4.05547715,12.9099639 C4.5282468,12.9099639 4.76463163,12.498725 4.76463163,11.6762472 C4.76463163,11.1475115 4.73508353,10.7509597 4.67598732,10.4865919 C4.61689111,10.222224 4.4396025,9.94316904 4.14412146,9.64942697 C2.77013467,8.66539104 1.82459537,7.93103587 1.30750356,7.44636145 C0.435834521,6.63857076 0,5.44891538 0,3.87739531 C0,3.31928538 0.033241616,2.83461097 0.0997248481,2.42337207 C0.16620808,2.01213317 0.302868057,1.62292493 0.509704779,1.25574735 C0.80518581,0.771072931 1.21885925,0.440613104 1.75072511,0.264367862 C2.28259097,0.0881226207 2.99174544,0 3.87818854,0 C4.73508353,0 5.41099639,0.0514048621 5.90592711,0.154214586 C6.40085784,0.25702431 6.81083777,0.484674414 7.13586691,0.837164897 C7.46089604,1.18965538 7.67511979,1.63761204 7.77853815,2.18103486 C7.83763436,2.50415114 7.86718246,3.09897883 7.86718246,3.96551793 L7.86718246,4.16379383 L4.56518193,4.16379383 L4.56518193,3.48084352 C4.56518193,3.08429173 4.55779491,2.84195452 4.54302086,2.7538319 C4.48392465,2.41602852 4.29924901,2.24712683 3.98899392,2.24712683 C3.56054643,2.24712683 3.34632268,2.64367862 3.34632268,3.43678221 C3.34632268,4.05364055 3.44604753,4.49425366 3.64549722,4.75862152 C3.84494692,5.02298938 4.46176357,5.48563314 5.49594718,6.1465528 C6.63354915,6.86622087 7.37963876,7.62995025 7.73421599,8.43774094 C8.01492297,9.06928638 8.15527646,10.0606659 8.15527646,11.4118794 Z" id="路径"></path>
                        </g>
                        <polygon id="矩形" points="1.0873702 0 10.3300169 0 10.3300169 2.17474039 7.42687377 2.17474039 7.42687377 15.2048255 3.77384806 15.2048255 3.77384806 2.17474039 1.0873702 2.17474039"></polygon>
                    </g>
                    <g id="宁波泛洋国际货运代理有限公司" transform="translate(41.863753, 1.631055)" fill-rule="nonzero">
                        <path d="M11.0128853,1.64410374 L6.19801011,1.64410374 C6.01533192,1.04387539 5.81960528,0.495840809 5.61083021,0 L4.60610015,0.156581308 C4.84097211,0.600228348 5.04974719,1.09606916 5.23242538,1.64410374 L0.130484423,1.64410374 L0.130484423,4.17550155 L1.08302071,4.17550155 L1.08302071,2.54444626 L10.060349,2.54444626 L10.060349,4.18854999 L11.0128853,4.18854999 L11.0128853,1.64410374 Z M0,4.99755342 L0,5.91094438 L5.29766759,5.91094438 L5.29766759,10.5953352 C5.29766759,10.9867885 5.10194096,11.1955635 4.72353613,11.1955635 C4.14940466,11.1955635 3.53612787,11.1694666 2.90980264,11.1303213 L3.11857772,12.0437123 L5.04974719,12.0437123 C5.84570217,12.0437123 6.25020388,11.6392106 6.25020388,10.8302071 L6.25020388,5.91094438 L11.1433698,5.91094438 L11.1433698,4.99755342 L0,4.99755342 Z" id="形状"></path>
                        <path d="M21.1558745,0.156581308 L21.1558745,1.80068504 L17.8154733,1.80068504 L17.8154733,5.51949111 C17.7632795,7.94650139 17.189148,9.92986462 16.0930789,11.4956777 L16.8237917,12.1350514 C17.9590061,10.4518023 18.5853314,8.45539064 18.6897189,6.14581634 L19.2377535,6.14581634 C19.5900614,7.41151525 20.2816289,8.55977818 21.3255043,9.57755668 C20.4382102,10.3343663 19.3029957,10.9606916 17.9459577,11.4434839 L18.5331376,12.1741967 C19.8901756,11.652259 21.051487,10.9867885 21.9909748,10.177785 C22.8652205,10.9084978 23.9612896,11.5478715 25.2661339,12.1220029 L25.7750231,11.2999511 C24.5354211,10.8041103 23.4784973,10.2299788 22.6173001,9.56450824 C23.5176426,8.58587506 24.1439678,7.42456369 24.4962758,6.08057413 L24.4962758,5.28461915 L22.0823139,5.28461915 L22.0823139,2.67493068 L24.3527429,2.67493068 C24.1700647,3.24906214 23.9612896,3.78404828 23.7133692,4.2537922 L24.5876149,4.48866417 C24.9268744,3.75795139 25.1878432,3.01419018 25.3444245,2.25738053 L25.3444245,1.80068504 L22.0823139,1.80068504 L22.0823139,0.156581308 L21.1558745,0.156581308 Z M21.1558745,2.67493068 L21.1558745,5.28461915 L18.7027674,5.28461915 L18.7027674,2.67493068 L21.1558745,2.67493068 Z M21.9387811,8.97732833 C21.051487,8.14222802 20.4512586,7.20274017 20.1119991,6.14581634 L23.5437395,6.14581634 C23.2305768,7.21578862 22.6955907,8.16832491 21.9387811,8.97732833 Z M14.82738,0.378404828 L14.1619094,1.0177785 C15.1144457,1.67020062 15.8712554,2.29652585 16.4192899,2.88370576 L17.0717121,2.23128364 C16.4584353,1.60495841 15.7146741,0.991681618 14.82738,0.378404828 Z M14.4881205,3.49698255 L13.8356984,4.13635622 C14.7751862,4.80182678 15.505899,5.44120046 16.0539336,6.0414288 L16.6933072,5.40205513 C16.0930789,4.76268145 15.3623661,4.12330778 14.4881205,3.49698255 Z M15.9234491,6.96786821 C15.3754146,8.54672973 14.7229924,10.0864459 13.9661828,11.6000652 L14.8534769,11.9784701 C15.5450443,10.5170445 16.1713695,8.95123145 16.7324526,7.29407927 L15.9234491,6.96786821 Z" id="形状"></path>
                        <path d="M38.8669603,0.300114174 C36.9227423,0.874245637 34.4696352,1.16131137 31.5206872,1.16131137 L31.8077529,2.00946012 C34.9393791,2.00946012 37.44468,1.70934595 39.3367042,1.1091176 L38.8669603,0.300114174 Z M35.5135106,2.40091339 L34.4957321,2.5574947 C34.730604,3.06638395 34.9393791,3.64051541 35.1351057,4.27988909 L32.016528,4.27988909 L32.016528,5.18023161 L37.8883271,5.18023161 C36.8183548,6.92872288 35.3308324,8.3510031 33.4257598,9.43402381 C33.373566,9.38183004 33.3344207,9.32963627 33.2952754,9.30353939 C33.1778394,9.19915185 33.047355,9.14695808 32.8907737,9.14695808 C32.2905453,9.14695808 31.6642201,9.90376774 31.0378949,11.4434839 L31.7686076,12.0698092 C32.2383515,10.8041103 32.6167564,10.177785 32.8777252,10.177785 C32.9821128,10.177785 33.0865003,10.2430272 33.2039363,10.3865601 C33.4388082,10.7780134 33.6997771,11.0781275 33.9998913,11.2869026 C34.3782961,11.5739684 34.9132822,11.7435981 35.6048497,11.7957919 C35.9702061,11.8088403 36.4138531,11.8218888 36.9227423,11.8218888 L39.6498668,11.8218888 L39.8455934,10.8954494 C38.7625727,10.9215462 37.7447942,10.9476431 36.7792095,10.9476431 C36.2833687,10.9476431 35.8397216,10.9345947 35.4743652,10.9345947 C34.9002338,10.9084978 34.404393,10.647529 33.9607459,10.1386397 C36.1006905,8.91208612 37.7708911,7.22883706 38.9582994,5.10194096 L38.9582994,4.27988909 L36.087642,4.27988909 C35.9049638,3.5752732 35.7092372,2.94894797 35.5135106,2.40091339 Z M28.9892894,0.352307943 L28.3238188,1.00473006 C29.2241614,1.6962975 29.9418257,2.34871962 30.4637634,2.97504485 L31.1292339,2.29652585 C30.542054,1.64410374 29.8243897,1.00473006 28.9892894,0.352307943 Z M28.6630783,3.43174034 L27.9976078,4.07111401 C28.8327081,4.7757299 29.4851302,5.44120046 29.9548741,6.05447725 L30.6333931,5.38900669 C30.098407,4.73658457 29.4459849,4.08416245 28.6630783,3.43174034 Z M30.2027945,7.05920731 C29.6286631,8.5989235 28.9631925,10.1125428 28.180286,11.5870168 L29.1197738,11.9915185 C29.8243897,10.5561899 30.4768118,9.0295221 31.0639917,7.39846681 L30.2027945,7.05920731 Z" id="形状"></path>
                        <path d="M49.231773,3.49698255 L49.231773,5.3629098 L46.2697765,5.3629098 L46.2697765,6.26325232 L49.231773,6.26325232 L49.231773,8.23356712 L45.48687,8.23356712 L45.48687,9.14695808 L49.231773,9.14695808 L49.231773,12.1350514 L50.1973577,12.1350514 L50.1973577,9.14695808 L53.9422606,9.14695808 L53.9422606,8.23356712 L50.1973577,8.23356712 L50.1973577,6.26325232 L53.1202088,6.26325232 L53.1202088,5.3629098 L50.1973577,5.3629098 L50.1973577,3.49698255 L53.5247105,3.49698255 L53.5247105,2.59664003 L51.26733,2.59664003 C51.6979286,1.97031479 52.0893818,1.25265046 52.4286413,0.44364704 L51.5282988,0.117435981 C51.1890393,1.00473006 50.797586,1.82678193 50.3278421,2.59664003 L45.8522264,2.59664003 L45.8522264,3.49698255 L49.231773,3.49698255 Z M47.6659599,0.208775077 L46.8700049,0.587179905 C47.3136519,1.17435981 47.7312021,1.83983037 48.1226554,2.58359158 L48.9055619,2.19213831 C48.5141086,1.47447398 48.0965585,0.809003425 47.6659599,0.208775077 Z M43.007666,0.417550155 L42.3682923,1.03082695 C43.333877,1.72239439 44.0906867,2.37481651 44.6387213,2.9880933 L45.2780949,2.34871962 C44.6648181,1.70934595 43.9080085,1.06997227 43.007666,0.417550155 Z M42.772794,3.61441853 L42.1334203,4.22769532 C43.0598597,4.91926276 43.7775241,5.57168488 44.2994618,6.18496167 L44.9388354,5.545588 C44.3516555,4.90621432 43.6339912,4.26684065 42.772794,3.61441853 Z M44.2733649,7.13749796 C43.6992334,8.70331104 43.007666,10.2430272 42.2247594,11.7435981 L43.1381504,12.1480998 C43.8558147,10.6866743 44.5082368,9.13390964 45.0823683,7.46370902 L44.2733649,7.13749796 Z" id="形状"></path>
                        <path d="M58.8789213,2.83151199 L58.8789213,3.67966074 L61.6321427,3.67966074 L61.6321427,5.55863644 L59.2964715,5.55863644 L59.2964715,6.39373675 L61.6321427,6.39373675 L61.6321427,8.46843908 L58.5266134,8.46843908 L58.5266134,9.32963627 L65.7163051,9.32963627 L65.7163051,8.46843908 L62.5977274,8.46843908 L62.5977274,6.39373675 L64.9333986,6.39373675 L64.9333986,5.55863644 L62.5977274,5.55863644 L62.5977274,3.67966074 L65.3379003,3.67966074 L65.3379003,2.83151199 L58.8789213,2.83151199 Z M67.4778448,0.756809656 L56.7520252,0.756809656 L56.7520252,12.0959061 L57.7045615,12.0959061 L57.7045615,11.534823 L66.5253085,11.534823 L66.5253085,12.0959061 L67.4778448,12.0959061 L67.4778448,0.756809656 Z M57.7045615,10.647529 L57.7045615,1.64410374 L66.5253085,1.64410374 L66.5253085,10.647529 L57.7045615,10.647529 Z M64.1374436,6.66775404 L63.3936824,6.91567444 C63.706845,7.34627304 63.9939107,7.85516229 64.2548796,8.4423422 L64.9855923,8.10308269 C64.7507204,7.59419344 64.4636547,7.11140108 64.1374436,6.66775404 Z" id="形状"></path>
                        <path d="M76.1855054,6.10667102 C75.820149,7.72467787 75.2460175,9.19915185 74.4370141,10.530093 L75.2199206,11.0259338 C76.0028272,9.69499266 76.616104,8.11613114 77.0467025,6.28934921 L76.1855054,6.10667102 Z M80.7263633,5.93704127 L79.9043114,6.21105855 C80.452346,7.60724189 80.9481868,9.21220029 81.3918338,11.0389822 L82.2269342,10.6605774 C81.809384,8.99037677 81.3004948,7.41151525 80.7263633,5.93704127 Z M77.855706,12.0567607 C78.6125156,12.0567607 79.0039689,11.6653075 79.0039689,10.8824009 L79.0039689,4.98450497 L82.2008373,4.98450497 L82.2008373,4.07111401 L74.8284674,4.07111401 L74.8284674,4.98450497 L78.0644811,4.98450497 L78.0644811,10.647529 C78.0644811,11.0389822 77.8818029,11.2347089 77.5425434,11.2347089 C77.1641385,11.2347089 76.7726853,11.208612 76.381232,11.1694666 L76.5639102,12.0567607 L77.855706,12.0567607 Z M75.6244223,0.939487849 L75.6244223,1.83983037 L81.5223183,1.83983037 L81.5223183,0.939487849 L75.6244223,0.939487849 Z M70.835644,0.704615886 L70.835644,12.1350514 L71.749035,12.1350514 L71.749035,1.59190997 L73.8367857,1.59190997 C73.4975262,2.67493068 73.0277823,3.88843582 72.427554,5.24547382 C73.2365574,6.34154298 73.6410591,7.32017615 73.6410591,8.20747023 C73.6410591,8.50758441 73.5627684,8.71635948 73.4192356,8.83379547 C73.2887512,8.96427989 73.0016854,9.04257054 72.5841353,9.06866743 C72.4536508,9.06866743 72.2840211,9.04257054 72.0882945,9.01647366 L72.3884086,9.92986462 C73.2365574,9.91681618 73.8367857,9.76023487 74.1760452,9.44707226 C74.4239656,9.18610341 74.5544501,8.7816017 74.5544501,8.20747023 C74.5022563,7.28103083 74.0977546,6.25020388 73.3539934,5.10194096 C73.8889795,3.83624205 74.3587234,2.62273691 74.7501767,1.4483771 L74.7501767,0.704615886 L70.835644,0.704615886 Z" id="形状"></path>
                        <path d="M94.4054803,5.0236503 C94.9013212,5.0236503 95.2536291,4.93231121 95.4885011,4.7757299 C95.7494699,4.58000326 95.9321481,4.03196868 96.0234872,3.13162616 L95.16229,2.85760887 C95.1100962,3.51003099 95.0057087,3.9145327 94.8491274,4.04501713 C94.7316914,4.14940466 94.5229163,4.21464688 94.2358506,4.21464688 L91.8218888,4.21464688 C91.4565324,4.21464688 91.2869026,4.05806557 91.2869026,3.75795139 L91.2869026,3.09248084 C92.9310064,2.51834937 94.3402381,1.82678193 95.5406948,1.04387539 L94.9404665,0.417550155 C93.9879302,1.06997227 92.7744251,1.65715218 91.2869026,2.20518676 L91.2869026,0.22182352 L90.3735117,0.22182352 L90.3735117,2.50530093 C89.7080411,2.71407601 88.9903768,2.92285108 88.2335671,3.11857772 L88.7424564,3.86233893 C89.2904909,3.70575763 89.8385255,3.54917632 90.3735117,3.39259501 L90.3735117,3.94062959 C90.3735117,4.65829392 90.7649649,5.0236503 91.5739684,5.0236503 L94.4054803,5.0236503 Z M94.6273039,5.76741152 L86.4328821,5.76741152 L86.4328821,9.83852553 L87.3854184,9.83852553 L87.3854184,6.62860871 L93.6617191,6.62860871 L93.6617191,9.65584733 L94.6273039,9.65584733 L94.6273039,5.76741152 Z M91.3521448,9.66889578 L90.8824009,10.3865601 C92.4351656,10.8302071 93.9487849,11.4304355 95.4232588,12.2002936 L95.9451965,11.4043386 C94.5620617,10.7258196 93.0353939,10.1386397 91.3521448,9.66889578 Z M90.0733975,7.20274017 C89.9690099,8.5989235 89.616702,9.59060512 89.0164737,10.177785 C88.3379547,10.8041103 86.9548198,11.1694666 84.8540206,11.2738542 L85.2324254,12.1220029 C87.5941934,11.9262763 89.1078128,11.4565324 89.7863318,10.7258196 C90.3996085,10.1255913 90.8041103,8.97732833 90.9867885,7.28103083 L90.0733975,7.20274017 Z M86.5894634,2.76626978 L86.5894634,5.19328005 L87.5028543,5.19328005 L87.5028543,2.03555701 C88.0378405,1.55276464 88.494536,1.03082695 88.8598924,0.469743924 L88.0900343,0.0913390964 C87.3593215,1.13521448 86.1849617,2.07470233 84.5800033,2.8967542 L84.867069,3.81014516 C85.4933942,3.48393411 86.0675257,3.13162616 86.5894634,2.76626978 Z" id="形状"></path>
                        <path d="M99.6031099,0.287065732 L98.9506878,0.900342522 C99.9032241,1.65715218 100.646985,2.34871962 101.19502,3.00114174 L101.86049,2.33567118 C101.247214,1.65715218 100.490404,0.978633176 99.6031099,0.287065732 Z M107.2234,11.887131 L110.250639,11.887131 L110.485511,10.9476431 C110.133203,10.97374 109.637362,10.9867885 109.011037,10.9998369 C108.358615,11.0128853 107.719241,11.0259338 107.092916,11.0259338 C106.088186,11.0259338 105.253085,11.0128853 104.574566,10.9998369 C103.817757,10.97374 103.230577,10.8693525 102.839124,10.6866743 C102.473767,10.5170445 102.147556,10.2430272 101.834394,9.86462241 C101.730006,9.74718643 101.638667,9.65584733 101.534279,9.57755668 L101.534279,4.6843908 L98.7941065,4.6843908 L98.7941065,5.545588 L100.660034,5.545588 L100.660034,9.51231447 C100.111999,9.74718643 99.4987223,10.412657 98.7941065,11.5087261 L99.4987223,12.1480998 C100.229435,10.9476431 100.751373,10.3474148 101.064535,10.3474148 C101.221117,10.3474148 101.390746,10.4518023 101.560376,10.6736258 C101.964878,11.1433698 102.421573,11.4695808 102.917414,11.6261621 C103.439352,11.769695 104.117871,11.8479856 104.939923,11.8610341 C105.761975,11.8740825 106.518784,11.887131 107.2234,11.887131 Z M103.321916,0.900342522 L103.321916,1.76153972 L109.311151,1.76153972 L109.311151,0.900342522 L103.321916,0.900342522 Z M102.525961,3.86233893 L102.525961,4.76268145 L105.266134,4.76268145 C104.248355,7.3332246 103.478497,8.70331104 102.930463,8.85989235 L103.165335,9.68194422 C105.487957,9.4601207 107.366933,9.18610341 108.802262,8.84684391 C108.958843,9.21220029 109.102376,9.60365356 109.23286,10.0081553 L110.067961,9.78633176 C109.519926,8.24661556 108.893601,6.87652911 108.188985,5.67607242 L107.419127,5.92399282 C107.797532,6.60251183 108.14984,7.30712771 108.463002,8.03784048 C107.353885,8.29880933 105.957701,8.53368129 104.261404,8.71635948 C104.835535,7.93345294 105.474909,6.61556027 106.192573,4.76268145 L110.263687,4.76268145 L110.263687,3.86233893 L102.525961,3.86233893 Z" id="形状"></path>
                        <path d="M124.021095,3.27515903 L119.780351,3.81014516 C119.702061,2.75322133 119.662915,1.52666775 119.662915,0.130484423 L118.697331,0.130484423 C118.710379,1.56581308 118.762573,2.83151199 118.853912,3.92758115 L115.957158,4.30598597 L116.10069,5.20632849 L118.932202,4.84097211 C119.023542,5.80655684 119.154026,6.60251183 119.323656,7.25493394 C119.689012,8.71635948 120.237047,9.90376774 120.980808,10.8171587 C121.659327,11.6392106 122.324797,12.0567607 122.964171,12.0567607 C123.316479,12.0437123 123.616593,11.8479856 123.851465,11.4695808 C124.138531,10.9476431 124.360354,10.1516881 124.529984,9.08171587 L123.707932,8.61197195 C123.525254,10.2560757 123.264285,11.091176 122.911977,11.1042244 C122.46833,11.091176 121.985538,10.738868 121.476649,10.0342522 C120.915566,9.27744251 120.484967,8.23356712 120.171804,6.87652911 C120.04132,6.27630077 119.936933,5.55863644 119.858642,4.72353613 L124.164628,4.17550155 L124.021095,3.27515903 Z M114.326102,4.80182678 L114.326102,12.1480998 L115.291687,12.1480998 L115.291687,3.3273528 C115.800576,2.45310716 116.218126,1.51361931 116.557386,0.521937694 L115.68314,0.104387539 C115.030718,2.13994454 113.999891,3.95367803 112.564563,5.53253955 L112.864677,6.51117273 C113.386614,5.96313815 113.882455,5.40205513 114.326102,4.80182678 Z M121.085195,0.22182352 L120.484967,0.809003425 C121.320067,1.52666775 121.985538,2.20518676 122.455282,2.84456043 L123.107704,2.20518676 C122.559669,1.55276464 121.88115,0.887294079 121.085195,0.22182352 Z" id="形状"></path>
                        <path d="M131.697929,0.678519002 L131.697929,6.70689936 L134.425053,6.70689936 L134.425053,8.24661556 L131.476105,8.24661556 L131.476105,9.13390964 L134.425053,9.13390964 L134.425053,10.8302071 L130.92807,10.8302071 L130.92807,11.7305497 L138.783233,11.7305497 L138.783233,10.8302071 L135.364541,10.8302071 L135.364541,9.13390964 L138.30044,9.13390964 L138.30044,8.24661556 L135.364541,8.24661556 L135.364541,6.70689936 L138.078617,6.70689936 L138.078617,0.678519002 L131.697929,0.678519002 Z M137.178274,5.87179905 L135.364541,5.87179905 L135.364541,4.11025934 L137.178274,4.11025934 L137.178274,5.87179905 Z M134.425053,5.87179905 L132.598271,5.87179905 L132.598271,4.11025934 L134.425053,4.11025934 L134.425053,5.87179905 Z M132.598271,3.28820747 L132.598271,1.51361931 L134.425053,1.51361931 L134.425053,3.28820747 L132.598271,3.28820747 Z M135.364541,1.51361931 L137.178274,1.51361931 L137.178274,3.28820747 L135.364541,3.28820747 L135.364541,1.51361931 Z M127.091828,4.99755342 L127.091828,5.89789594 L128.514109,5.89789594 L128.514109,9.17305497 C127.953026,9.32963627 127.378894,9.4601207 126.804763,9.56450824 L127.039635,10.4648508 C128.42277,10.1255913 129.714565,9.7080411 130.915022,9.21220029 L130.915022,8.29880933 C130.445278,8.50758441 129.975534,8.6902626 129.479693,8.85989235 L129.479693,5.89789594 L130.915022,5.89789594 L130.915022,4.99755342 L129.479693,4.99755342 L129.479693,1.90507258 L131.071603,1.90507258 L131.071603,1.0177785 L126.90915,1.0177785 L126.90915,1.90507258 L128.514109,1.90507258 L128.514109,4.99755342 L127.091828,4.99755342 Z" id="形状"></path>
                        <path d="M144.972544,4.85402055 L150.152776,4.85402055 L150.152776,6.27630077 L144.972544,6.27630077 L144.972544,4.85402055 Z M150.152776,7.09835263 L150.152776,8.48148752 L144.972544,8.48148752 L144.972544,7.09835263 L150.152776,7.09835263 Z M150.152776,9.30353939 L150.152776,10.7910618 C150.152776,11.1042244 149.983146,11.2608057 149.643886,11.2608057 C149.213288,11.2608057 148.743544,11.2347089 148.247703,11.208612 L148.482575,12.0698092 L149.944,12.0698092 C150.674713,12.0437123 151.04007,11.7175012 151.04007,11.0781275 L151.04007,4.03196868 L144.985592,4.03196868 C145.298755,3.54917632 145.572772,3.04028707 145.833741,2.51834937 L152.71027,2.51834937 L152.71027,1.60495841 L146.225194,1.60495841 C146.407873,1.14826293 146.564454,0.678519002 146.721035,0.195726635 L145.768499,0.0782906541 C145.611918,0.587179905 145.416191,1.09606916 145.194367,1.60495841 L141.305932,1.60495841 L141.305932,2.51834937 L144.763769,2.51834937 C143.863426,4.20159843 142.597727,5.68912086 140.953624,6.9939651 L141.5669,7.78992008 C142.506388,7.03311042 143.354537,6.18496167 144.08525,5.27157071 L144.08525,12.0959061 L144.972544,12.0959061 L144.972544,9.30353939 L150.152776,9.30353939 Z" id="形状"></path>
                        <path d="M155.637471,0.678519002 L155.637471,12.1350514 L156.550862,12.1350514 L156.550862,1.57886152 L158.703855,1.57886152 C158.364595,2.66188224 157.881803,3.88843582 157.268526,5.24547382 C158.181917,6.34154298 158.638613,7.34627304 158.638613,8.23356712 C158.638613,8.50758441 158.547273,8.70331104 158.390692,8.82074702 C158.221062,8.92513456 157.894851,8.99037677 157.412059,9.01647366 C157.281575,9.01647366 157.111945,8.99037677 156.90317,8.96427989 L157.216332,9.91681618 C158.15582,9.90376774 158.808242,9.74718643 159.173599,9.44707226 C159.434567,9.19915185 159.5781,8.79465014 159.5781,8.23356712 C159.525907,7.29407927 159.069211,6.25020388 158.234111,5.10194096 C158.782145,3.82319361 159.251889,2.60968847 159.643343,1.43532866 L159.643343,0.678519002 L155.637471,0.678519002 Z M161.183059,3.94062959 L165.032349,3.94062959 L165.032349,5.41510357 L161.183059,5.41510357 L161.183059,3.94062959 Z M165.032349,3.07943239 L161.183059,3.07943239 L161.183059,1.57886152 L165.032349,1.57886152 L165.032349,3.07943239 Z M162.68363,6.27630077 C163.127277,8.71635948 164.445169,10.6344805 166.611211,12.0176154 L167.133148,11.1955635 C166.141467,10.6083836 165.35856,9.90376774 164.758332,9.08171587 C165.502093,8.70331104 166.167564,8.15527646 166.767792,7.45066058 L166.154515,6.83738379 C165.567335,7.54199967 164.954059,8.06393737 164.327733,8.41624531 C163.949329,7.76382319 163.68836,7.04615886 163.531778,6.27630077 L165.94574,6.27630077 L165.94574,0.691567444 L160.256619,0.691567444 L160.256619,10.7910618 C160.256619,10.9215462 160.152232,11.0259338 159.969554,11.091176 L160.191377,11.9001794 C161.613657,11.5217746 162.788017,11.1303213 163.727505,10.7258196 L163.51873,9.85157397 C162.748872,10.2038819 161.965965,10.5039961 161.183059,10.738868 L161.183059,6.27630077 L162.68363,6.27630077 Z" id="形状"></path>
                        <path d="M172.970152,0.287065732 C172.135051,2.77931822 170.908498,4.76268145 169.277443,6.25020388 L170.008155,6.88957756 C171.600065,5.4542489 172.865764,3.36649812 173.831349,0.626325232 L172.970152,0.287065732 Z M177.419671,7.20274017 L176.571522,7.4898059 C177.119556,8.27271244 177.641494,9.13390964 178.150383,10.0733975 C176.284456,10.3735117 174.288044,10.5953352 172.161148,10.7258196 C173.283314,9.31658783 174.40548,7.37236992 175.527646,4.89316588 L174.614255,4.58000326 C173.035394,8.15527646 171.73055,10.2169304 170.686674,10.7649649 L170.856304,11.6783559 C173.700864,11.4956777 176.271408,11.2347089 178.567933,10.8693525 C178.76366,11.2608057 178.959387,11.6783559 179.155113,12.1220029 L180.029359,11.7305497 C179.298646,10.1255913 178.437449,8.61197195 177.419671,7.20274017 Z M177.223944,0.195726635 L176.427989,0.639373675 C177.184799,3.19686837 178.541837,5.29766759 180.486054,6.91567444 L181.151525,6.14581634 C179.285598,4.60610015 177.980754,2.62273691 177.223944,0.195726635 Z" id="形状"></path>
                        <path d="M184.744196,5.72826619 L184.744196,9.74718643 L190.498559,9.74718643 L190.498559,5.72826619 L184.744196,5.72826619 Z M189.598217,8.91208612 L185.657587,8.91208612 L185.657587,6.57641494 L189.598217,6.57641494 L189.598217,8.91208612 Z M192.768988,12.0306638 C193.656282,12.0306638 194.099929,11.5609199 194.099929,10.6344805 L194.099929,0.704615886 L184.287501,0.704615886 L184.287501,1.61800685 L193.160441,1.61800685 L193.160441,10.3735117 C193.160441,10.8954494 192.951666,11.1564182 192.560213,11.1564182 L190.733431,11.1303213 L190.968303,12.0306638 L192.768988,12.0306638 Z M183.765563,3.27515903 L183.765563,4.12330778 L191.790355,4.12330778 L191.790355,3.27515903 L183.765563,3.27515903 Z" id="形状"></path>
                    </g>
                    <g id="Ningbo-Transocean-In" transform="translate(41.863753, 17.941608)" fill-rule="nonzero">
                        <polygon id="路径" points="0 0.106562279 0 5.54123851 0.624150492 5.54123851 0.624150492 1.07323438 0.646985266 1.07323438 3.73729136 5.54123851 4.37666504 5.54123851 4.37666504 0.106562279 3.75251454 0.106562279 3.75251454 4.52889686 3.72967977 4.52889686 0.654596858 0.106562279"></polygon>
                        <path d="M5.77505007,0.121785462 C5.6345542,0.121785462 5.51885172,0.159843419 5.41967817,0.251182515 C5.32050461,0.327298429 5.2791823,0.433860708 5.2791823,0.570869352 C5.2791823,0.700266406 5.32050461,0.806828685 5.41967817,0.898167781 C5.51885172,0.981895286 5.6345542,1.02756483 5.77505007,1.02756483 C5.91554593,1.02756483 6.03124841,0.981895286 6.13042197,0.898167781 C6.22959552,0.806828685 6.2791823,0.700266406 6.2791823,0.570869352 C6.2791823,0.433860708 6.22959552,0.327298429 6.13042197,0.251182515 C6.03124841,0.159843419 5.91554593,0.121785462 5.77505007,0.121785462 Z M5.44447155,1.60604578 L5.44447155,5.54123851 L6.10562858,5.54123851 L6.10562858,1.60604578 L5.44447155,1.60604578 Z" id="形状"></path>
                        <path d="M8.86097972,1.4994835 C8.60218561,1.4994835 8.36622628,1.56037623 8.15310172,1.68216169 C7.93997717,1.79633556 7.76491056,1.96379057 7.62790192,2.18452672 L7.62790192,1.60604578 L7.01897461,1.60604578 L7.01897461,5.54123851 L7.62790192,5.54123851 L7.62790192,3.16642201 C7.65073669,2.80867721 7.76491056,2.52704833 7.97803512,2.31392378 C8.1759365,2.1160224 8.41189583,2.01707171 8.68591312,2.01707171 C9.37095634,2.01707171 9.72108954,2.39765128 9.72108954,3.16642201 L9.72108954,5.54123851 L10.3300169,5.54123851 L10.3300169,3.12075246 C10.3300169,2.03990649 9.83526342,1.4994835 8.86097972,1.4994835 Z" id="路径"></path>
                        <path d="M12.7320176,1.4994835 C12.183983,1.4994835 11.7501223,1.68977328 11.4304355,2.07796444 C11.1107487,2.44332083 10.9585168,2.9076279 10.9585168,3.48610885 C10.9585168,4.0569782 11.1107487,4.52128527 11.4304355,4.88664166 C11.7501223,5.25960963 12.183983,5.44989942 12.7320176,5.44989942 C13.3257217,5.44989942 13.767194,5.18349372 14.0564345,4.65829392 L14.0564345,5.35094873 C14.0564345,6.21867015 13.6606318,6.66014245 12.8690263,6.66014245 C12.5112815,6.66014245 12.2448758,6.59163812 12.0698092,6.46224107 C11.8947426,6.34045561 11.7805687,6.14255423 11.7348991,5.87614853 L11.1259718,5.87614853 C11.1944762,6.30239765 11.3695428,6.62208449 11.6511716,6.83520905 C11.9251889,7.04833361 12.3362149,7.15489588 12.8690263,7.15489588 C14.0640461,7.15489588 14.6653618,6.5231338 14.6653618,5.26722123 L14.6653618,1.60604578 L14.0564345,1.60604578 L14.0564345,2.28347741 C13.767194,1.75827761 13.3257217,1.4994835 12.7320176,1.4994835 Z M12.8233567,2.00184853 C13.2115479,2.00184853 13.5160115,2.13885717 13.7443593,2.42809765 C13.9574838,2.68689175 14.0640461,3.04463655 14.0640461,3.48610885 C14.0640461,3.91235796 13.9574838,4.26249117 13.7443593,4.52889686 C13.5160115,4.80291415 13.2115479,4.9399228 12.8157451,4.9399228 C12.389496,4.9399228 12.0774208,4.78769097 11.8642962,4.4984505 C11.6740064,4.23965639 11.5826673,3.89713478 11.5826673,3.48610885 C11.5826673,3.04463655 11.6892296,2.68689175 11.9023542,2.42809765 C12.1230903,2.13885717 12.427554,2.00184853 12.8233567,2.00184853 Z" id="形状"></path>
                        <path d="M15.4460936,0 L15.4460936,5.54123851 L16.016963,5.54123851 L16.016963,4.89425325 C16.2833687,5.39661828 16.7172294,5.64780079 17.3261567,5.64780079 C17.897026,5.64780079 18.3461099,5.43467624 18.6734084,5.0236503 C18.9626488,4.64307073 19.1148807,4.15592889 19.1148807,3.56222476 C19.1148807,2.98374382 18.9626488,2.51182515 18.6734084,2.13124558 C18.3537215,1.70499647 17.9122492,1.4994835 17.3566031,1.4994835 C16.7933453,1.4994835 16.3594846,1.77350079 16.0550209,2.32914696 L16.0550209,0 L15.4460936,0 Z M17.227206,2.00184853 C17.6534551,2.00184853 17.973142,2.15408036 18.1938781,2.45854401 C18.3917795,2.72494971 18.4907302,3.09030609 18.4907302,3.56222476 C18.4907302,4.03414342 18.3917795,4.4071114 18.2091013,4.68112869 C17.9959767,4.98559234 17.6762899,5.14543576 17.2500408,5.14543576 C16.854238,5.14543576 16.5421628,4.99320394 16.3290382,4.68874028 C16.1311368,4.41472299 16.0321862,4.0569782 16.0321862,3.6155059 L16.0321862,3.53938999 C16.0321862,3.0826945 16.1387484,2.70972653 16.3670962,2.42809765 C16.5802207,2.13885717 16.8694612,2.00184853 17.227206,2.00184853 Z" id="形状"></path>
                        <path d="M21.5016582,1.4994835 C20.9079541,1.4994835 20.443647,1.69738487 20.0935138,2.10841081 C19.7586038,2.49660197 19.5911488,2.98374382 19.5911488,3.57744794 C19.5911488,4.16354048 19.7586038,4.65068232 20.0935138,5.03126189 C20.443647,5.44228783 20.9079541,5.64780079 21.5016582,5.64780079 C22.0877508,5.64780079 22.5596694,5.44228783 22.9174142,5.03126189 C23.2447127,4.65068232 23.4121677,4.16354048 23.4121677,3.57744794 C23.4121677,2.98374382 23.2447127,2.49660197 22.9098026,2.10841081 C22.5596694,1.69738487 22.0877508,1.4994835 21.5016582,1.4994835 Z M21.5016582,2.00946012 C21.9126842,2.00946012 22.2399826,2.16930354 22.4835535,2.48899038 C22.6890665,2.77823085 22.7956288,3.13597564 22.7956288,3.57744794 C22.7956288,4.00369706 22.6890665,4.36905344 22.4835535,4.65829392 C22.2399826,4.97798075 21.9126842,5.13782417 21.5016582,5.13782417 C21.0830207,5.13782417 20.7557223,4.97798075 20.5273745,4.65829392 C20.31425,4.36905344 20.2152993,4.01130865 20.2152993,3.57744794 C20.2152993,3.13597564 20.31425,2.77823085 20.5273745,2.48899038 C20.7557223,2.16930354 21.0830207,2.00946012 21.5016582,2.00946012 Z" id="形状"></path>
                        <polygon id="路径" points="26.0697004 0.106562279 26.0697004 0.646985266 27.9878215 0.646985266 27.9878215 5.54123851 28.6043604 5.54123851 28.6043604 0.646985266 30.5224814 0.646985266 30.5224814 0.106562279"></polygon>
                        <path d="M32.6885228,1.4994835 C32.4145055,1.4994835 32.1785462,1.583211 31.9730332,1.75066601 C31.8055782,1.88006307 31.6685696,2.06274126 31.5620073,2.291089 L31.5620073,1.60604578 L30.9606916,1.60604578 L30.9606916,5.54123851 L31.5620073,5.54123851 L31.5620073,3.45566248 C31.5620073,3.09030609 31.660958,2.77823085 31.8740825,2.51943674 C32.0795955,2.24541945 32.3383896,2.1160224 32.6428533,2.1160224 C32.833143,2.1160224 33.0310444,2.13885717 33.2289458,2.1997499 L33.2289458,1.5908226 C33.0843256,1.52992986 32.9016474,1.4994835 32.6885228,1.4994835 Z" id="路径"></path>
                        <path d="M35.2884249,1.4994835 C34.8165063,1.4994835 34.4435383,1.5908226 34.1542978,1.77350079 C33.834611,1.97140216 33.629098,2.28347741 33.5453705,2.69450334 L34.1466862,2.74017289 C34.207579,2.48899038 34.336976,2.29870059 34.542489,2.17691513 C34.7251672,2.05512967 34.9611265,2.00184853 35.250367,2.00184853 C35.9354102,2.00184853 36.2779318,2.32914696 36.2779318,2.99135541 L36.2779318,3.19686837 L35.3340945,3.21209156 C34.7403904,3.21970315 34.2836949,3.33387702 33.964008,3.54700158 C33.5986517,3.77534932 33.4235851,4.11025934 33.4235851,4.55934323 C33.4235851,4.87903007 33.5453705,5.14543576 33.7889414,5.35094873 C34.0249008,5.54885011 34.336976,5.64780079 34.7327788,5.64780079 C35.0981352,5.64780079 35.4254336,5.56407329 35.7146741,5.40422987 C35.958245,5.26722123 36.163758,5.09215462 36.3159898,4.87903007 L36.3159898,5.54123851 L36.8868591,5.54123851 L36.8868591,3.01419018 C36.8868591,2.5574947 36.7650737,2.1997499 36.5367259,1.9409558 C36.2627086,1.64410374 35.8516827,1.4994835 35.2884249,1.4994835 Z M36.2779318,3.65356386 L36.2779318,3.98847388 C36.2779318,4.29293753 36.1333116,4.56695482 35.8516827,4.80291415 C35.5624422,5.04648508 35.2351438,5.16827054 34.8621758,5.16827054 C34.6186049,5.16827054 34.4207035,5.10737781 34.2684717,4.99320394 C34.1162399,4.87141847 34.0477356,4.72679824 34.0477356,4.54412005 C34.0477356,3.97325069 34.4892079,3.68401022 35.3721524,3.66878704 L36.2779318,3.65356386 Z" id="形状"></path>
                        <path d="M39.509596,1.4994835 C39.2508019,1.4994835 39.0148426,1.56037623 38.801718,1.68216169 C38.5885935,1.79633556 38.4135269,1.96379057 38.2765182,2.18452672 L38.2765182,1.60604578 L37.6675909,1.60604578 L37.6675909,5.54123851 L38.2765182,5.54123851 L38.2765182,3.16642201 C38.299353,2.80867721 38.4135269,2.52704833 38.6266514,2.31392378 C38.8245528,2.1160224 39.0605122,2.01707171 39.3345294,2.01707171 C40.0195727,2.01707171 40.3697059,2.39765128 40.3697059,3.16642201 L40.3697059,5.54123851 L40.9786332,5.54123851 L40.9786332,3.12075246 C40.9786332,2.03990649 40.4838797,1.4994835 39.509596,1.4994835 Z" id="路径"></path>
                        <path d="M43.1522862,1.4994835 C42.7108139,1.4994835 42.3454575,1.59843419 42.0714402,1.79633556 C41.7745882,1.99423694 41.6299679,2.25303104 41.6299679,2.58794106 C41.6299679,2.92285108 41.7745882,3.1740336 42.0790518,3.35671179 C42.26173,3.47849725 42.5890284,3.59267112 43.0533355,3.706845 C43.4795846,3.81340727 43.7612135,3.89713478 43.8906106,3.95802751 C44.1341815,4.07981297 44.2635785,4.24726798 44.2635785,4.46800413 C44.2635785,4.90947643 43.9058337,5.13782417 43.2055673,5.13782417 C42.8706573,5.13782417 42.6194748,5.07693144 42.4520198,4.95514598 C42.2845648,4.81813733 42.1703909,4.59740119 42.1247214,4.28532594 L41.5310172,4.28532594 C41.6223563,5.19110531 42.1856141,5.64780079 43.2207905,5.64780079 C44.3320829,5.64780079 44.887729,5.23677486 44.887729,4.42994618 C44.887729,4.08742456 44.7278856,3.82101887 44.4158104,3.62311749 C44.2102974,3.49372044 43.8753874,3.37193498 43.4034687,3.2577611 C43.007666,3.15119883 42.7336487,3.06747132 42.5890284,2.998967 C42.3606807,2.88479313 42.2541184,2.74017289 42.2541184,2.57271788 C42.2541184,2.39765128 42.3378459,2.26064264 42.5053009,2.16169195 C42.6575328,2.05512967 42.8706573,2.00946012 43.1446746,2.00946012 C43.4567499,2.00946012 43.7003208,2.07035285 43.8677758,2.19213831 C44.0200076,2.29870059 44.1189583,2.48137879 44.1722394,2.72494971 L44.7659436,2.72494971 C44.6593813,1.90289784 44.1265699,1.4994835 43.1522862,1.4994835 Z" id="路径"></path>
                        <path d="M47.1983907,1.4994835 C46.6046866,1.4994835 46.1403795,1.69738487 45.7902463,2.10841081 C45.4553363,2.49660197 45.2878813,2.98374382 45.2878813,3.57744794 C45.2878813,4.16354048 45.4553363,4.65068232 45.7902463,5.03126189 C46.1403795,5.44228783 46.6046866,5.64780079 47.1983907,5.64780079 C47.7844832,5.64780079 48.2564019,5.44228783 48.6141467,5.03126189 C48.9414451,4.65068232 49.1089001,4.16354048 49.1089001,3.57744794 C49.1089001,2.98374382 48.9414451,2.49660197 48.6065351,2.10841081 C48.2564019,1.69738487 47.7844832,1.4994835 47.1983907,1.4994835 Z M47.1983907,2.00946012 C47.6094166,2.00946012 47.9367151,2.16930354 48.180286,2.48899038 C48.3857989,2.77823085 48.4923612,3.13597564 48.4923612,3.57744794 C48.4923612,4.00369706 48.3857989,4.36905344 48.180286,4.65829392 C47.9367151,4.97798075 47.6094166,5.13782417 47.1983907,5.13782417 C46.7797532,5.13782417 46.4524547,4.97798075 46.224107,4.65829392 C46.0109824,4.36905344 45.9120318,4.01130865 45.9120318,3.57744794 C45.9120318,3.13597564 46.0109824,2.77823085 46.224107,2.48899038 C46.4524547,2.16930354 46.7797532,2.00946012 47.1983907,2.00946012 Z" id="形状"></path>
                        <path d="M51.434785,1.4994835 C50.8486924,1.4994835 50.3843854,1.70499647 50.0494753,2.12363399 C49.7374001,2.50421356 49.5851683,2.99135541 49.5851683,3.59267112 C49.5851683,4.19398684 49.7374001,4.68112869 50.0494753,5.05409667 C50.3767738,5.44989942 50.8334693,5.64780079 51.4271734,5.64780079 C51.9143152,5.64780079 52.3025064,5.51840374 52.5993585,5.26722123 C52.9038221,5.00842712 53.0941119,4.62023596 53.185451,4.11787093 L52.5765237,4.11787093 C52.4851846,4.79530256 52.0969934,5.13782417 51.4271734,5.13782417 C51.0313706,5.13782417 50.726907,4.99320394 50.521394,4.71918665 C50.3082695,4.44516936 50.2093188,4.06458979 50.2093188,3.58505953 C50.2093188,3.10552928 50.315881,2.72494971 50.5290056,2.44332083 C50.7497417,2.15408036 51.0542054,2.00946012 51.434785,2.00946012 C51.7468602,2.00946012 51.9980427,2.07796444 52.1959441,2.23019627 C52.3862339,2.3824281 52.5080194,2.61077584 52.5613005,2.91523949 L53.1626162,2.91523949 C53.0941119,2.43570924 52.9114337,2.07796444 52.60697,1.84200511 C52.310118,1.61365737 51.9219268,1.4994835 51.434785,1.4994835 Z" id="路径"></path>
                        <path d="M55.359104,1.4994835 C54.7882347,1.4994835 54.3391508,1.70499647 54.0042407,2.1160224 C53.6693307,2.50421356 53.5094873,2.99135541 53.5094873,3.56983635 C53.5094873,4.20921003 53.6769423,4.71157506 54.0270755,5.09215462 C54.3619855,5.45751101 54.818681,5.64780079 55.3819388,5.64780079 C55.8919154,5.64780079 56.3105529,5.49556897 56.6378514,5.20632849 C56.9042571,4.96275757 57.0793237,4.65829392 57.1706628,4.27771435 L56.5617354,4.27771435 C56.4627848,4.55173164 56.3333877,4.7572446 56.1659327,4.89425325 C55.9680313,5.05409667 55.7016256,5.13782417 55.3819388,5.13782417 C55.0089708,5.13782417 54.7121187,5.01603871 54.4989942,4.77246779 C54.2858696,4.52889686 54.1716958,4.18637525 54.1412494,3.74490295 L57.2467787,3.74490295 C57.2315555,3.05985973 57.0793237,2.51943674 56.7900832,2.13885717 C56.4703963,1.71260806 55.9908661,1.4994835 55.359104,1.4994835 Z M55.3743272,2.00946012 C56.1202631,2.00946012 56.5389007,2.42809765 56.6150166,3.27298429 L54.1564726,3.27298429 C54.1945305,2.88479313 54.316316,2.58032947 54.5294405,2.35198173 C54.7425651,2.12363399 55.024194,2.00946012 55.3743272,2.00946012 Z" id="形状"></path>
                        <path d="M59.5117708,1.4994835 C59.0398521,1.4994835 58.6668841,1.5908226 58.3776437,1.77350079 C58.0579568,1.97140216 57.8524439,2.28347741 57.7687164,2.69450334 L58.3700321,2.74017289 C58.4309248,2.48899038 58.5603219,2.29870059 58.7658348,2.17691513 C58.948513,2.05512967 59.1844724,2.00184853 59.4737128,2.00184853 C60.158756,2.00184853 60.5012777,2.32914696 60.5012777,2.99135541 L60.5012777,3.19686837 L59.5574403,3.21209156 C58.9637362,3.21970315 58.5070407,3.33387702 58.1873539,3.54700158 C57.8219975,3.77534932 57.6469309,4.11025934 57.6469309,4.55934323 C57.6469309,4.87903007 57.7687164,5.14543576 58.0122873,5.35094873 C58.2482466,5.54885011 58.5603219,5.64780079 58.9561246,5.64780079 C59.321481,5.64780079 59.6487794,5.56407329 59.9380199,5.40422987 C60.1815908,5.26722123 60.3871038,5.09215462 60.5393356,4.87903007 L60.5393356,5.54123851 L61.110205,5.54123851 L61.110205,3.01419018 C61.110205,2.5574947 60.9884195,2.1997499 60.7600718,1.9409558 C60.4860545,1.64410374 60.0750285,1.4994835 59.5117708,1.4994835 Z M60.5012777,3.65356386 L60.5012777,3.98847388 C60.5012777,4.29293753 60.3566574,4.56695482 60.0750285,4.80291415 C59.7857881,5.04648508 59.4584896,5.16827054 59.0855217,5.16827054 C58.8419507,5.16827054 58.6440494,5.10737781 58.4918175,4.99320394 C58.3395857,4.87141847 58.2710814,4.72679824 58.2710814,4.54412005 C58.2710814,3.97325069 58.7125537,3.68401022 59.5954983,3.66878704 L60.5012777,3.65356386 Z" id="形状"></path>
                        <path d="M63.7329419,1.4994835 C63.4741478,1.4994835 63.2381884,1.56037623 63.0250639,1.68216169 C62.8119393,1.79633556 62.6368727,1.96379057 62.4998641,2.18452672 L62.4998641,1.60604578 L61.8909368,1.60604578 L61.8909368,5.54123851 L62.4998641,5.54123851 L62.4998641,3.16642201 C62.5226989,2.80867721 62.6368727,2.52704833 62.8499973,2.31392378 C63.0478987,2.1160224 63.283858,2.01707171 63.5578753,2.01707171 C64.2429185,2.01707171 64.5930517,2.39765128 64.5930517,3.16642201 L64.5930517,5.54123851 L65.201979,5.54123851 L65.201979,3.12075246 C65.201979,2.03990649 64.7072256,1.4994835 63.7329419,1.4994835 Z" id="路径"></path>
                        <polygon id="路径" points="68.4760507 0.106562279 68.4760507 5.54123851 69.0925896 5.54123851 69.0925896 0.106562279"></polygon>
                        <path d="M71.8371119,1.4994835 C71.5783178,1.4994835 71.3423585,1.56037623 71.1292339,1.68216169 C70.9161094,1.79633556 70.7410428,1.96379057 70.6040341,2.18452672 L70.6040341,1.60604578 L69.9951068,1.60604578 L69.9951068,5.54123851 L70.6040341,5.54123851 L70.6040341,3.16642201 C70.6268689,2.80867721 70.7410428,2.52704833 70.9541673,2.31392378 C71.1520687,2.1160224 71.3880281,2.01707171 71.6620453,2.01707171 C72.3470886,2.01707171 72.6972218,2.39765128 72.6972218,3.16642201 L72.6972218,5.54123851 L73.3061491,5.54123851 L73.3061491,3.12075246 C73.3061491,2.03990649 72.8113956,1.4994835 71.8371119,1.4994835 Z" id="路径"></path>
                        <path d="M75.1372805,0.33491002 L74.5359648,0.586092535 L74.5359648,1.60604578 L73.7443593,1.60604578 L73.7443593,2.1160224 L74.5359648,2.1160224 L74.5359648,4.62023596 C74.5359648,4.91708802 74.5968575,5.13782417 74.7262546,5.290056 C74.8632632,5.45751101 75.0992225,5.54123851 75.4189094,5.54123851 L76.0126135,5.54123851 L76.0126135,5.03126189 L75.5102485,5.03126189 C75.3732398,5.03126189 75.2742891,4.99320394 75.221008,4.93231121 C75.1601153,4.87141847 75.1372805,4.7648562 75.1372805,4.62023596 L75.1372805,2.1160224 L76.1115642,2.1160224 L76.1115642,1.60604578 L75.1372805,1.60604578 L75.1372805,0.33491002 Z" id="路径"></path>
                        <path d="M78.2471592,1.4994835 C77.6762899,1.4994835 77.227206,1.70499647 76.892296,2.1160224 C76.557386,2.50421356 76.3975425,2.99135541 76.3975425,3.56983635 C76.3975425,4.20921003 76.5649976,4.71157506 76.9151308,5.09215462 C77.2500408,5.45751101 77.7067363,5.64780079 78.269994,5.64780079 C78.7799706,5.64780079 79.1986082,5.49556897 79.5259066,5.20632849 C79.7923123,4.96275757 79.9673789,4.65829392 80.058718,4.27771435 L79.4497907,4.27771435 C79.35084,4.55173164 79.2214429,4.7572446 79.0539879,4.89425325 C78.8560866,5.05409667 78.5896809,5.13782417 78.269994,5.13782417 C77.897026,5.13782417 77.600174,5.01603871 77.3870494,4.77246779 C77.1739249,4.52889686 77.059751,4.18637525 77.0293046,3.74490295 L80.1348339,3.74490295 C80.1196107,3.05985973 79.9673789,2.51943674 79.6781384,2.13885717 C79.3584516,1.71260806 78.8789213,1.4994835 78.2471592,1.4994835 Z M78.2623824,2.00946012 C79.0083184,2.00946012 79.4269559,2.42809765 79.5030718,3.27298429 L77.0445278,3.27298429 C77.0825858,2.88479313 77.2043712,2.58032947 77.4174958,2.35198173 C77.6306203,2.12363399 77.9122492,2.00946012 78.2623824,2.00946012 Z" id="形状"></path>
                        <path d="M82.4150492,1.4994835 C82.1410319,1.4994835 81.9050726,1.583211 81.6995596,1.75066601 C81.5321046,1.88006307 81.395096,2.06274126 81.2885337,2.291089 L81.2885337,1.60604578 L80.687218,1.60604578 L80.687218,5.54123851 L81.2885337,5.54123851 L81.2885337,3.45566248 C81.2885337,3.09030609 81.3874844,2.77823085 81.6006089,2.51943674 C81.8061219,2.24541945 82.064916,2.1160224 82.3693797,2.1160224 C82.5596694,2.1160224 82.7575708,2.13885717 82.9554722,2.1997499 L82.9554722,1.5908226 C82.810852,1.52992986 82.6281738,1.4994835 82.4150492,1.4994835 Z" id="路径"></path>
                        <path d="M85.1443484,1.4994835 C84.8855543,1.4994835 84.649595,1.56037623 84.4364704,1.68216169 C84.2233458,1.79633556 84.0482792,1.96379057 83.9112706,2.18452672 L83.9112706,1.60604578 L83.3023433,1.60604578 L83.3023433,5.54123851 L83.9112706,5.54123851 L83.9112706,3.16642201 C83.9341054,2.80867721 84.0482792,2.52704833 84.2614038,2.31392378 C84.4593052,2.1160224 84.6952645,2.01707171 84.9692818,2.01707171 C85.654325,2.01707171 86.0044582,2.39765128 86.0044582,3.16642201 L86.0044582,5.54123851 L86.6133855,5.54123851 L86.6133855,3.12075246 C86.6133855,2.03990649 86.1186321,1.4994835 85.1443484,1.4994835 Z" id="路径"></path>
                        <path d="M89.1067254,1.4994835 C88.6348067,1.4994835 88.2618387,1.5908226 87.9725983,1.77350079 C87.6529114,1.97140216 87.4473985,2.28347741 87.363671,2.69450334 L87.9649867,2.74017289 C88.0258794,2.48899038 88.1552765,2.29870059 88.3607894,2.17691513 C88.5434676,2.05512967 88.779427,2.00184853 89.0686674,2.00184853 C89.7537107,2.00184853 90.0962323,2.32914696 90.0962323,2.99135541 L90.0962323,3.19686837 L89.1523949,3.21209156 C88.5586908,3.21970315 88.1019953,3.33387702 87.7823085,3.54700158 C87.4169521,3.77534932 87.2418855,4.11025934 87.2418855,4.55934323 C87.2418855,4.87903007 87.363671,5.14543576 87.6072419,5.35094873 C87.8432012,5.54885011 88.1552765,5.64780079 88.5510792,5.64780079 C88.9164356,5.64780079 89.243734,5.56407329 89.5329745,5.40422987 C89.7765454,5.26722123 89.9820584,5.09215462 90.1342902,4.87903007 L90.1342902,5.54123851 L90.7051596,5.54123851 L90.7051596,3.01419018 C90.7051596,2.5574947 90.5833741,2.1997499 90.3550264,1.9409558 C90.0810091,1.64410374 89.6699831,1.4994835 89.1067254,1.4994835 Z M90.0962323,3.65356386 L90.0962323,3.98847388 C90.0962323,4.29293753 89.951612,4.56695482 89.6699831,4.80291415 C89.3807427,5.04648508 89.0534442,5.16827054 88.6804763,5.16827054 C88.4369053,5.16827054 88.239004,5.10737781 88.0867721,4.99320394 C87.9345403,4.87141847 87.866036,4.72679824 87.866036,4.54412005 C87.866036,3.97325069 88.3075083,3.68401022 89.1904529,3.66878704 L90.0962323,3.65356386 Z" id="形状"></path>
                        <path d="M92.536291,0.33491002 L91.9349753,0.586092535 L91.9349753,1.60604578 L91.1433698,1.60604578 L91.1433698,2.1160224 L91.9349753,2.1160224 L91.9349753,4.62023596 C91.9349753,4.91708802 91.995868,5.13782417 92.125265,5.290056 C92.2622737,5.45751101 92.498233,5.54123851 92.8179199,5.54123851 L93.411624,5.54123851 L93.411624,5.03126189 L92.909259,5.03126189 C92.7722503,5.03126189 92.6732996,4.99320394 92.6200185,4.93231121 C92.5591258,4.87141847 92.536291,4.7648562 92.536291,4.62023596 L92.536291,2.1160224 L93.5105747,2.1160224 L93.5105747,1.60604578 L92.536291,1.60604578 L92.536291,0.33491002 Z" id="路径"></path>
                        <path d="M94.5664381,0.121785462 C94.4259422,0.121785462 94.3102397,0.159843419 94.2110662,0.251182515 C94.1118926,0.327298429 94.0705703,0.433860708 94.0705703,0.570869352 C94.0705703,0.700266406 94.1118926,0.806828685 94.2110662,0.898167781 C94.3102397,0.981895286 94.4259422,1.02756483 94.5664381,1.02756483 C94.706934,1.02756483 94.8226364,0.981895286 94.92181,0.898167781 C95.0209835,0.806828685 95.0705703,0.700266406 95.0705703,0.570869352 C95.0705703,0.433860708 95.0209835,0.327298429 94.92181,0.251182515 C94.8226364,0.159843419 94.706934,0.121785462 94.5664381,0.121785462 Z M94.2358596,1.60604578 L94.2358596,5.54123851 L94.8970166,5.54123851 L94.8970166,1.60604578 L94.2358596,1.60604578 Z" id="形状"></path>
                        <path d="M97.5686402,1.4994835 C96.9749361,1.4994835 96.510629,1.69738487 96.1604958,2.10841081 C95.8255858,2.49660197 95.6581308,2.98374382 95.6581308,3.57744794 C95.6581308,4.16354048 95.8255858,4.65068232 96.1604958,5.03126189 C96.510629,5.44228783 96.9749361,5.64780079 97.5686402,5.64780079 C98.1547328,5.64780079 98.6266514,5.44228783 98.9843962,5.03126189 C99.3116947,4.65068232 99.4791497,4.16354048 99.4791497,3.57744794 C99.4791497,2.98374382 99.3116947,2.49660197 98.9767846,2.10841081 C98.6266514,1.69738487 98.1547328,1.4994835 97.5686402,1.4994835 Z M97.5686402,2.00946012 C97.9796662,2.00946012 98.3069646,2.16930354 98.5505355,2.48899038 C98.7560485,2.77823085 98.8626108,3.13597564 98.8626108,3.57744794 C98.8626108,4.00369706 98.7560485,4.36905344 98.5505355,4.65829392 C98.3069646,4.97798075 97.9796662,5.13782417 97.5686402,5.13782417 C97.1500027,5.13782417 96.8227043,4.97798075 96.5943565,4.65829392 C96.381232,4.36905344 96.2822813,4.01130865 96.2822813,3.57744794 C96.2822813,3.13597564 96.381232,2.77823085 96.5943565,2.48899038 C96.8227043,2.16930354 97.1500027,2.00946012 97.5686402,2.00946012 Z" id="形状"></path>
                        <path d="M101.949655,1.4994835 C101.690861,1.4994835 101.454901,1.56037623 101.241777,1.68216169 C101.028652,1.79633556 100.853586,1.96379057 100.716577,2.18452672 L100.716577,1.60604578 L100.10765,1.60604578 L100.10765,5.54123851 L100.716577,5.54123851 L100.716577,3.16642201 C100.739412,2.80867721 100.853586,2.52704833 101.06671,2.31392378 C101.264612,2.1160224 101.500571,2.01707171 101.774588,2.01707171 C102.459631,2.01707171 102.809765,2.39765128 102.809765,3.16642201 L102.809765,5.54123851 L103.418692,5.54123851 L103.418692,3.12075246 C103.418692,2.03990649 102.923938,1.4994835 101.949655,1.4994835 Z" id="路径"></path>
                        <path d="M105.912032,1.4994835 C105.440113,1.4994835 105.067145,1.5908226 104.777905,1.77350079 C104.458218,1.97140216 104.252705,2.28347741 104.168977,2.69450334 L104.770293,2.74017289 C104.831186,2.48899038 104.960583,2.29870059 105.166096,2.17691513 C105.348774,2.05512967 105.584733,2.00184853 105.873974,2.00184853 C106.559017,2.00184853 106.901539,2.32914696 106.901539,2.99135541 L106.901539,3.19686837 L105.957701,3.21209156 C105.363997,3.21970315 104.907302,3.33387702 104.587615,3.54700158 C104.222258,3.77534932 104.047192,4.11025934 104.047192,4.55934323 C104.047192,4.87903007 104.168977,5.14543576 104.412548,5.35094873 C104.648508,5.54885011 104.960583,5.64780079 105.356386,5.64780079 C105.721742,5.64780079 106.04904,5.56407329 106.338281,5.40422987 C106.581852,5.26722123 106.787365,5.09215462 106.939597,4.87903007 L106.939597,5.54123851 L107.510466,5.54123851 L107.510466,3.01419018 C107.510466,2.5574947 107.38868,2.1997499 107.160333,1.9409558 C106.886315,1.64410374 106.47529,1.4994835 105.912032,1.4994835 Z M106.901539,3.65356386 L106.901539,3.98847388 C106.901539,4.29293753 106.756918,4.56695482 106.47529,4.80291415 C106.186049,5.04648508 105.858751,5.16827054 105.485783,5.16827054 C105.242212,5.16827054 105.04431,5.10737781 104.892079,4.99320394 C104.739847,4.87141847 104.671342,4.72679824 104.671342,4.54412005 C104.671342,3.97325069 105.112815,3.68401022 105.995759,3.66878704 L106.901539,3.65356386 Z" id="形状"></path>
                        <polygon id="路径" points="108.412983 0 108.412983 5.54123851 109.014299 5.54123851 109.014299 0"></polygon>
                        <polygon id="路径" points="112.364486 0.106562279 112.364486 5.54123851 112.988637 5.54123851 112.988637 3.01419018 115.842984 3.01419018 115.842984 2.47376719 112.988637 2.47376719 112.988637 0.646985266 116.002827 0.646985266 116.002827 0.106562279"></polygon>
                        <path d="M118.275431,1.4994835 C117.681727,1.4994835 117.21742,1.69738487 116.867286,2.10841081 C116.532376,2.49660197 116.364921,2.98374382 116.364921,3.57744794 C116.364921,4.16354048 116.532376,4.65068232 116.867286,5.03126189 C117.21742,5.44228783 117.681727,5.64780079 118.275431,5.64780079 C118.861523,5.64780079 119.333442,5.44228783 119.691187,5.03126189 C120.018485,4.65068232 120.18594,4.16354048 120.18594,3.57744794 C120.18594,2.98374382 120.018485,2.49660197 119.683575,2.10841081 C119.333442,1.69738487 118.861523,1.4994835 118.275431,1.4994835 Z M118.275431,2.00946012 C118.686457,2.00946012 119.013755,2.16930354 119.257326,2.48899038 C119.462839,2.77823085 119.569401,3.13597564 119.569401,3.57744794 C119.569401,4.00369706 119.462839,4.36905344 119.257326,4.65829392 C119.013755,4.97798075 118.686457,5.13782417 118.275431,5.13782417 C117.856793,5.13782417 117.529495,4.97798075 117.301147,4.65829392 C117.088023,4.36905344 116.989072,4.01130865 116.989072,3.57744794 C116.989072,3.13597564 117.088023,2.77823085 117.301147,2.48899038 C117.529495,2.16930354 117.856793,2.00946012 118.275431,2.00946012 Z" id="形状"></path>
                        <path d="M122.542272,1.4994835 C122.268254,1.4994835 122.032295,1.583211 121.826782,1.75066601 C121.659327,1.88006307 121.522318,2.06274126 121.415756,2.291089 L121.415756,1.60604578 L120.81444,1.60604578 L120.81444,5.54123851 L121.415756,5.54123851 L121.415756,3.45566248 C121.415756,3.09030609 121.514707,2.77823085 121.727831,2.51943674 C121.933344,2.24541945 122.192138,2.1160224 122.496602,2.1160224 C122.686892,2.1160224 122.884793,2.13885717 123.082695,2.1997499 L123.082695,1.5908226 C122.938074,1.52992986 122.755396,1.4994835 122.542272,1.4994835 Z" id="路径"></path>
                        <polygon id="路径" points="122.995705 1.60604578 124.335345 5.54123851 124.906214 5.54123851 125.834828 2.37481651 126.748219 5.54123851 127.3267 5.54123851 128.66634 1.60604578 127.99652 1.60604578 127.029848 4.79530256 126.116457 1.60604578 125.545588 1.60604578 124.632197 4.79530256 123.665525 1.60604578"></polygon>
                        <path d="M130.72582,1.4994835 C130.253901,1.4994835 129.880933,1.5908226 129.591692,1.77350079 C129.272006,1.97140216 129.066493,2.28347741 128.982765,2.69450334 L129.584081,2.74017289 C129.644974,2.48899038 129.774371,2.29870059 129.979884,2.17691513 C130.162562,2.05512967 130.398521,2.00184853 130.687762,2.00184853 C131.372805,2.00184853 131.715326,2.32914696 131.715326,2.99135541 L131.715326,3.19686837 L130.771489,3.21209156 C130.177785,3.21970315 129.72109,3.33387702 129.401403,3.54700158 C129.036046,3.77534932 128.86098,4.11025934 128.86098,4.55934323 C128.86098,4.87903007 128.982765,5.14543576 129.226336,5.35094873 C129.462295,5.54885011 129.774371,5.64780079 130.170173,5.64780079 C130.53553,5.64780079 130.862828,5.56407329 131.152069,5.40422987 C131.39564,5.26722123 131.601153,5.09215462 131.753384,4.87903007 L131.753384,5.54123851 L132.324254,5.54123851 L132.324254,3.01419018 C132.324254,2.5574947 132.202468,2.1997499 131.974121,1.9409558 C131.700103,1.64410374 131.289077,1.4994835 130.72582,1.4994835 Z M131.715326,3.65356386 L131.715326,3.98847388 C131.715326,4.29293753 131.570706,4.56695482 131.289077,4.80291415 C130.999837,5.04648508 130.672538,5.16827054 130.29957,5.16827054 C130.056,5.16827054 129.858098,5.10737781 129.705866,4.99320394 C129.553635,4.87141847 129.48513,4.72679824 129.48513,4.54412005 C129.48513,3.97325069 129.926603,3.68401022 130.809547,3.66878704 L131.715326,3.65356386 Z" id="形状"></path>
                        <path d="M134.832817,1.4994835 C134.5588,1.4994835 134.32284,1.583211 134.117327,1.75066601 C133.949872,1.88006307 133.812864,2.06274126 133.706301,2.291089 L133.706301,1.60604578 L133.104986,1.60604578 L133.104986,5.54123851 L133.706301,5.54123851 L133.706301,3.45566248 C133.706301,3.09030609 133.805252,2.77823085 134.018377,2.51943674 C134.22389,2.24541945 134.482684,2.1160224 134.787147,2.1160224 C134.977437,2.1160224 135.175338,2.13885717 135.37324,2.1997499 L135.37324,1.5908226 C135.22862,1.52992986 135.045941,1.4994835 134.832817,1.4994835 Z" id="路径"></path>
                        <path d="M138.627739,0 L138.627739,2.32914696 C138.323275,1.77350079 137.889414,1.4994835 137.326157,1.4994835 C136.762899,1.4994835 136.329038,1.70499647 136.009351,2.13124558 C135.712499,2.51182515 135.567879,2.98374382 135.567879,3.56222476 C135.567879,4.15592889 135.712499,4.64307073 136.009351,5.0236503 C136.329038,5.43467624 136.778122,5.64780079 137.356603,5.64780079 C137.950307,5.64780079 138.391779,5.39661828 138.665797,4.89425325 L138.665797,5.54123851 L139.236666,5.54123851 L139.236666,0 L138.627739,0 Z M137.455554,2.00184853 C137.805687,2.00184853 138.094927,2.13885717 138.315664,2.42809765 C138.528788,2.70972653 138.642962,3.0826945 138.642962,3.53938999 L138.642962,3.6155059 C138.642962,4.0569782 138.544011,4.41472299 138.353722,4.68874028 C138.132985,4.99320394 137.828522,5.14543576 137.432719,5.14543576 C137.00647,5.14543576 136.686783,4.98559234 136.473658,4.68112869 C136.283369,4.4071114 136.19203,4.03414342 136.19203,3.56222476 C136.19203,3.09030609 136.283369,2.72494971 136.48127,2.45854401 C136.694395,2.15408036 137.021693,2.00184853 137.455554,2.00184853 Z" id="形状"></path>
                        <path d="M144.055891,0.106562279 L141.917034,5.54123851 L142.586854,5.54123851 L143.165335,4.01892024 L145.661937,4.01892024 L146.240418,5.54123851 L146.917849,5.54123851 L144.778992,0.106562279 L144.055891,0.106562279 Z M143.363236,3.49372044 L144.406024,0.776382319 L144.43647,0.776382319 L145.464035,3.49372044 L143.363236,3.49372044 Z" id="形状"></path>
                        <path d="M148.847931,1.4994835 C148.299897,1.4994835 147.866036,1.68977328 147.546349,2.07796444 C147.226662,2.44332083 147.07443,2.9076279 147.07443,3.48610885 C147.07443,4.0569782 147.226662,4.52128527 147.546349,4.88664166 C147.866036,5.25960963 148.299897,5.44989942 148.847931,5.44989942 C149.441635,5.44989942 149.883108,5.18349372 150.172348,4.65829392 L150.172348,5.35094873 C150.172348,6.21867015 149.776545,6.66014245 148.98494,6.66014245 C148.627195,6.66014245 148.360789,6.59163812 148.185723,6.46224107 C148.010656,6.34045561 147.896482,6.14255423 147.850813,5.87614853 L147.241885,5.87614853 C147.31039,6.30239765 147.485456,6.62208449 147.767085,6.83520905 C148.041103,7.04833361 148.452129,7.15489588 148.98494,7.15489588 C150.17996,7.15489588 150.781275,6.5231338 150.781275,5.26722123 L150.781275,1.60604578 L150.172348,1.60604578 L150.172348,2.28347741 C149.883108,1.75827761 149.441635,1.4994835 148.847931,1.4994835 Z M148.93927,2.00184853 C149.327462,2.00184853 149.631925,2.13885717 149.860273,2.42809765 C150.073397,2.68689175 150.17996,3.04463655 150.17996,3.48610885 C150.17996,3.91235796 150.073397,4.26249117 149.860273,4.52889686 C149.631925,4.80291415 149.327462,4.9399228 148.931659,4.9399228 C148.50541,4.9399228 148.193334,4.78769097 147.98021,4.4984505 C147.78992,4.23965639 147.698581,3.89713478 147.698581,3.48610885 C147.698581,3.04463655 147.805143,2.68689175 148.018268,2.42809765 C148.239004,2.13885717 148.543468,2.00184853 148.93927,2.00184853 Z" id="形状"></path>
                        <path d="M153.183276,1.4994835 C152.612407,1.4994835 152.163323,1.70499647 151.828413,2.1160224 C151.493503,2.50421356 151.33366,2.99135541 151.33366,3.56983635 C151.33366,4.20921003 151.501115,4.71157506 151.851248,5.09215462 C152.186158,5.45751101 152.642853,5.64780079 153.206111,5.64780079 C153.716088,5.64780079 154.134725,5.49556897 154.462024,5.20632849 C154.728429,4.96275757 154.903496,4.65829392 154.994835,4.27771435 L154.385908,4.27771435 C154.286957,4.55173164 154.15756,4.7572446 153.990105,4.89425325 C153.792204,5.05409667 153.525798,5.13782417 153.206111,5.13782417 C152.833143,5.13782417 152.536291,5.01603871 152.323166,4.77246779 C152.110042,4.52889686 151.995868,4.18637525 151.965422,3.74490295 L155.070951,3.74490295 C155.055728,3.05985973 154.903496,2.51943674 154.614255,2.13885717 C154.294569,1.71260806 153.815038,1.4994835 153.183276,1.4994835 Z M153.198499,2.00946012 C153.944435,2.00946012 154.363073,2.42809765 154.439189,3.27298429 L151.980645,3.27298429 C152.018703,2.88479313 152.140488,2.58032947 152.353613,2.35198173 C152.566737,2.12363399 152.848366,2.00946012 153.198499,2.00946012 Z" id="形状"></path>
                        <path d="M157.46534,1.4994835 C157.206546,1.4994835 156.970587,1.56037623 156.757462,1.68216169 C156.544338,1.79633556 156.369271,1.96379057 156.232262,2.18452672 L156.232262,1.60604578 L155.623335,1.60604578 L155.623335,5.54123851 L156.232262,5.54123851 L156.232262,3.16642201 C156.255097,2.80867721 156.369271,2.52704833 156.582395,2.31392378 C156.780297,2.1160224 157.016256,2.01707171 157.290273,2.01707171 C157.975317,2.01707171 158.32545,2.39765128 158.32545,3.16642201 L158.32545,5.54123851 L158.934377,5.54123851 L158.934377,3.12075246 C158.934377,2.03990649 158.439624,1.4994835 157.46534,1.4994835 Z" id="路径"></path>
                        <path d="M161.412494,1.4994835 C160.826401,1.4994835 160.362094,1.70499647 160.027184,2.12363399 C159.715109,2.50421356 159.562877,2.99135541 159.562877,3.59267112 C159.562877,4.19398684 159.715109,4.68112869 160.027184,5.05409667 C160.354483,5.44989942 160.811178,5.64780079 161.404882,5.64780079 C161.892024,5.64780079 162.280215,5.51840374 162.577067,5.26722123 C162.881531,5.00842712 163.071821,4.62023596 163.16316,4.11787093 L162.554233,4.11787093 C162.462893,4.79530256 162.074702,5.13782417 161.404882,5.13782417 C161.00908,5.13782417 160.704616,4.99320394 160.499103,4.71918665 C160.285978,4.44516936 160.187028,4.06458979 160.187028,3.58505953 C160.187028,3.10552928 160.29359,2.72494971 160.506715,2.44332083 C160.727451,2.15408036 161.031914,2.00946012 161.412494,2.00946012 C161.724569,2.00946012 161.975752,2.07796444 162.173653,2.23019627 C162.363943,2.3824281 162.485728,2.61077584 162.539009,2.91523949 L163.140325,2.91523949 C163.071821,2.43570924 162.889143,2.07796444 162.584679,1.84200511 C162.287827,1.61365737 161.899636,1.4994835 161.412494,1.4994835 Z" id="路径"></path>
                        <polygon id="路径" points="163.281683 1.60604578 164.842059 5.44989942 164.164628 7.04833361 164.826836 7.04833361 166.980917 1.60604578 166.311097 1.60604578 165.146523 4.71157506 163.943892 1.60604578"></polygon>
                        <path d="M172.119828,0 C171.282553,0 170.627956,0.281628881 170.171261,0.860109824 C169.752623,1.37769804 169.54711,2.03990649 169.54711,2.84673517 C169.54711,3.65356386 169.745012,4.30816071 170.156038,4.81052574 C170.605122,5.36617191 171.252107,5.64780079 172.096993,5.64780079 C172.675474,5.64780079 173.177839,5.48034578 173.596477,5.15304735 C174.045561,4.80291415 174.32719,4.30816071 174.448975,3.67639863 L173.847659,3.67639863 C173.741097,4.14831729 173.520361,4.50606209 173.200674,4.74963301 C172.896211,4.97798075 172.530854,5.09215462 172.096993,5.09215462 C171.45762,5.09215462 170.978089,4.87903007 170.643179,4.46039254 C170.323493,4.06458979 170.171261,3.5241668 170.171261,2.84673517 C170.171261,2.16930354 170.331104,1.62888055 170.650791,1.21785462 C170.993313,0.776382319 171.480455,0.55564617 172.112217,0.55564617 C172.538466,0.55564617 172.896211,0.654596858 173.193063,0.860109824 C173.497526,1.07323438 173.695428,1.37769804 173.771544,1.77350079 L174.372859,1.77350079 C174.296743,1.2330778 174.053172,0.799217093 173.642146,0.479530256 C173.231121,0.159843419 172.721144,0 172.119828,0 Z" id="路径"></path>
                        <path d="M176.835753,1.4994835 C176.242049,1.4994835 175.777742,1.69738487 175.427608,2.10841081 C175.092698,2.49660197 174.925243,2.98374382 174.925243,3.57744794 C174.925243,4.16354048 175.092698,4.65068232 175.427608,5.03126189 C175.777742,5.44228783 176.242049,5.64780079 176.835753,5.64780079 C177.421845,5.64780079 177.893764,5.44228783 178.251509,5.03126189 C178.578807,4.65068232 178.746262,4.16354048 178.746262,3.57744794 C178.746262,2.98374382 178.578807,2.49660197 178.243897,2.10841081 C177.893764,1.69738487 177.421845,1.4994835 176.835753,1.4994835 Z M176.835753,2.00946012 C177.246779,2.00946012 177.574077,2.16930354 177.817648,2.48899038 C178.023161,2.77823085 178.129723,3.13597564 178.129723,3.57744794 C178.129723,4.00369706 178.023161,4.36905344 177.817648,4.65829392 C177.574077,4.97798075 177.246779,5.13782417 176.835753,5.13782417 C176.417115,5.13782417 176.089817,4.97798075 175.861469,4.65829392 C175.648344,4.36905344 175.549394,4.01130865 175.549394,3.57744794 C175.549394,3.13597564 175.648344,2.77823085 175.861469,2.48899038 C176.089817,2.16930354 176.417115,2.00946012 176.835753,2.00946012 Z" id="形状"></path>
                        <path d="M179.907574,4.63545914 C179.770565,4.63545914 179.664003,4.68112869 179.580275,4.77246779 C179.488936,4.86380688 179.443266,4.97036916 179.443266,5.10737781 C179.443266,5.23677486 179.488936,5.34333714 179.580275,5.43467624 C179.664003,5.52601533 179.770565,5.57168488 179.907574,5.57168488 C180.029359,5.57168488 180.143533,5.52601533 180.234872,5.43467624 C180.326211,5.34333714 180.371881,5.23677486 180.371881,5.10737781 C180.371881,4.97036916 180.326211,4.86380688 180.234872,4.77246779 C180.143533,4.68112869 180.029359,4.63545914 179.907574,4.63545914 Z" id="路径"></path>
                        <path d="M181.753928,4.63545914 C181.601696,4.63545914 181.487522,4.6735171 181.403795,4.7648562 C181.304844,4.8485837 181.259175,4.96275757 181.259175,5.10737781 C181.259175,5.23677486 181.304844,5.35094873 181.396183,5.44228783 C181.487522,5.53362692 181.594085,5.57929647 181.723482,5.57929647 C181.799598,5.57929647 181.852879,5.56407329 181.890937,5.54885011 C181.890937,5.7315283 181.837656,5.89898331 181.723482,6.05882673 C181.601696,6.21105855 181.434241,6.32523243 181.23634,6.39373675 L181.23634,6.76670472 C181.563638,6.68297722 181.830044,6.51552221 182.027945,6.27195129 C182.225847,6.01315718 182.324797,5.71630512 182.324797,5.3813951 C182.324797,5.16065895 182.271516,4.98559234 182.172566,4.8485837 C182.066003,4.70396346 181.921383,4.63545914 181.753928,4.63545914 Z" id="路径"></path>
                        <polygon id="路径" points="183.143587 0.106562279 183.143587 5.54123851 186.903713 5.54123851 186.903713 5.00081553 183.760126 5.00081553 183.760126 0.106562279"></polygon>
                        <polygon id="路径" points="187.03746 0.106562279 187.03746 0.646985266 188.955581 0.646985266 188.955581 5.54123851 189.57212 5.54123851 189.57212 0.646985266 191.490241 0.646985266 191.490241 0.106562279"></polygon>
                        <path d="M192.004567,0.106562279 L192.004567,5.54123851 L193.892242,5.54123851 C194.74474,5.54123851 195.399337,5.290056 195.856032,4.79530256 C196.289893,4.3233839 196.510629,3.66117545 196.510629,2.8239004 C196.510629,1.97140216 196.305116,1.30919372 195.901702,0.852498233 C195.460229,0.350133203 194.813244,0.106562279 193.953134,0.106562279 L192.004567,0.106562279 Z M192.628717,0.646985266 L193.854184,0.646985266 C194.569673,0.646985266 195.087261,0.829663459 195.422171,1.20263144 C195.734247,1.55276464 195.89409,2.09318763 195.89409,2.8239004 C195.89409,3.53177839 195.719024,4.07220138 195.384114,4.43755777 C195.026369,4.81052574 194.493557,5.00081553 193.785679,5.00081553 L192.628717,5.00081553 L192.628717,0.646985266 Z" id="形状"></path>
                        <path d="M197.67194,4.63545914 C197.534932,4.63545914 197.428369,4.68112869 197.344642,4.77246779 C197.253303,4.86380688 197.207633,4.97036916 197.207633,5.10737781 C197.207633,5.23677486 197.253303,5.34333714 197.344642,5.43467624 C197.428369,5.52601533 197.534932,5.57168488 197.67194,5.57168488 C197.793726,5.57168488 197.9079,5.52601533 197.999239,5.43467624 C198.090578,5.34333714 198.136247,5.23677486 198.136247,5.10737781 C198.136247,4.97036916 198.090578,4.86380688 197.999239,4.77246779 C197.9079,4.68112869 197.793726,4.63545914 197.67194,4.63545914 Z" id="路径"></path>
                    </g>
                </g>
            </g>
        </g>
    </g>
</svg>