<?xml version="1.0" encoding="UTF-8"?>
<svg width="22px" height="22px" viewBox="0 0 22 22" version="1.1" xmlns="http://www.w3.org/2000/svg" xmlns:xlink="http://www.w3.org/1999/xlink">
    <title>kefu</title>
    <defs>
        <linearGradient x1="0%" y1="0%" x2="100%" y2="100%" id="linearGradient-1">
            <stop stop-color="#FAD961" offset="0%"></stop>
            <stop stop-color="#F76B1C" offset="100%"></stop>
        </linearGradient>
    </defs>
    <g id="总平台-平台管理" stroke="none" stroke-width="1" fill="none" fill-rule="evenodd">
        <g id="企业信息模块-子管理员拥有" transform="translate(-239.000000, -352.000000)" fill-rule="nonzero">
            <g id="客服卡" transform="translate(224.000000, 344.000000)">
                <g id="kefu" transform="translate(16.000000, 9.000000)">
                    <path d="M10,-0.25 C12.8304593,-0.25 15.3929593,0.897270329 17.2478445,2.75215549 C19.1027297,4.60704066 20.25,7.16954066 20.25,10 C20.25,12.8304593 19.1027297,15.3929593 17.2478445,17.2478445 C15.3929593,19.1027297 12.8304593,20.25 10,20.25 C7.16954066,20.25 4.60704066,19.1027297 2.75215549,17.2478445 C0.897270329,15.3929593 -0.25,12.8304593 -0.25,10 C-0.25,7.16954066 0.897270329,4.60704066 2.75215549,2.75215549 C4.60704066,0.897270329 7.16954066,-0.25 10,-0.25 L10,-0.25 Z" id="路径" stroke="#FA6400" stroke-width="0.5" fill="url(#linearGradient-1)"></path>
                    <path d="M9.525,13.9 C9.1,13.725 8.85,13.325 8.8,12.9 C8.675,12.7 8.575,12.45 8.575,12.175 L8.575,12.15 C8.475,11.85 8.475,11.525 8.575,11.225 C8.6,10.1 8.7,8.975 9.3,7.95 C9.425,7.725 9.6,7.575 9.775,7.475 C10.05,6.725 10.8,6.3 11.6,6.425 C10.775,5.725 9.725,5.3 8.575,5.3 C6,5.3 3.875,7.4 3.875,10 C3.875,11.025 4.225,12.05 4.85,12.85 L4.675,13.725 C4.65,13.9 4.7,14.075 4.85,14.2 C4.975,14.325 5.175,14.35 5.35,14.3 L6.175,14.025 C6.925,14.45 7.75,14.7 8.6,14.7 C9.1,14.7 9.575,14.625 10.025,14.475 C9.775,14.35 9.625,14.125 9.525,13.9 L9.525,13.9 Z" id="路径" fill="#FFFFFF" opacity="0.65"></path>
                    <path d="M10.875,4.75 C8,4.75 5.625,7.1 5.625,10 C5.625,11.15 6,12.275 6.7,13.175 L6.5,14.15 C6.475,14.35 6.525,14.55 6.7,14.675 C6.85,14.8 7.05,14.85 7.25,14.8 L8.175,14.5 C9,14.975 9.925,15.25 10.875,15.25 C13.75,15.25 16.125,12.9 16.125,10 C16.1,7.1 13.75,4.75 10.875,4.75 L10.875,4.75 Z M12.475,11.55 C12.15,12.175 11.55,12.575 10.875,12.575 L10.825,12.575 C10.175,12.575 9.575,12.2 9.2,11.575 C9.1,11.375 9.175,11.15 9.35,11.05 C9.55,10.95 9.775,11.025 9.875,11.2 C10.075,11.575 10.45,11.8 10.85,11.8 C11.25,11.8 11.6,11.575 11.8,11.175 C11.85,11.075 11.925,11.025 12.025,10.975 C12.125,10.95 12.225,10.95 12.325,11 C12.425,11.05 12.475,11.125 12.5,11.25 C12.55,11.35 12.525,11.45 12.475,11.55 L12.475,11.55 Z" id="形状" fill="#FFFFFF"></path>
                </g>
            </g>
        </g>
    </g>
</svg>