<?xml version="1.0" encoding="UTF-8"?>
<svg width="81px" height="81px" viewBox="0 0 81 81" version="1.1" xmlns="http://www.w3.org/2000/svg" xmlns:xlink="http://www.w3.org/1999/xlink">
    <title>xitongweihu</title>
    <defs>
        <filter color-interpolation-filters="auto" id="filter-1">
            <feColorMatrix in="SourceGraphic" type="matrix" values="0 0 0 0 0.956863 0 0 0 0 0.964706 0 0 0 0 0.976471 0 0 0 1.000000 0"></feColorMatrix>
        </filter>
    </defs>
    <g id="-门户网站页面" stroke="none" stroke-width="1" fill="none" fill-rule="evenodd" opacity="0.203677223">
        <g id="网站管理员-配置与首页维护备份-2" transform="translate(-1018.000000, -338.000000)">
            <g id="xitongweihu" transform="translate(841.000000, 314.000000)" filter="url(#filter-1)">
                <g transform="translate(177.000000, 24.000000)">
                    <path d="M33.0075,24.84 C39.140846,21.9081797 46.4204739,22.8211201 51.6399054,27.1766957 C56.8593368,31.5322713 59.0604639,38.5309485 57.27375,45.09 L79.38,67.19625 L67.095,79.4475 L44.98875,57.375 C38.4242665,59.1933247 31.4031317,57.0015885 27.0388352,51.7717065 C22.6745387,46.5418246 21.7748571,39.2417825 24.73875,33.10875 L36.315,44.685 L44.4825,36.5175 L33.0075,24.84 Z M17.98875,5.73749997 L24.975,12.72375 C27.0980725,11.5011644 29.3656542,10.5487801 31.725,9.88874997 L31.725,0 L49.0725,0 L49.0725,9.88874997 C51.4318458,10.5487801 53.6994275,11.5011644 55.8225,12.72375 L63.01125,5.73749997 L75.2625,17.98875 L68.27625,24.975 C69.4827189,27.1060219 70.4342603,29.3715968 71.11125,31.725 L81,31.725 L81,49.0725 L71.11125,49.0725 C70.7234463,50.4769549 70.2385286,51.8527678 69.66,53.19 L62.91,46.44 C64.5077356,40.4500876 63.6402253,34.0698054 60.5011934,28.7239389 C57.3621615,23.3780724 52.2130641,19.5118894 46.20375,17.98875 C34.0642838,15.1627918 21.8176853,22.2537053 18.225,34.18875 C15.9457447,42.2088364 18.1547866,50.8350173 24.0083518,56.7724044 C29.861917,62.7097915 38.4558194,65.041251 46.5075,62.87625 L53.2575,69.62625 C51.9223273,70.2100176 50.5461355,70.6950688 49.14,71.0775 L49.14,81 L31.82625,81 L31.82625,71.11125 C29.4728468,70.4342603 27.2072719,69.4827189 25.07625,68.27625 L17.98875,75.2625 L5.73749997,63.01125 L12.72375,56.025 C11.5147267,53.8952331 10.5630552,51.6293485 9.88874997,49.275 L0,49.275 L0,31.82625 L9.88874997,31.82625 C10.5630552,29.4719015 11.5147267,27.2060169 12.72375,25.07625 L5.73749997,17.98875 L17.98875,5.73749997 Z" id="形状" fill="#303030" fill-rule="nonzero"></path>
                </g>
            </g>
        </g>
    </g>
</svg>