<?xml version="1.0" encoding="UTF-8"?>
<svg width="89px" height="64px" viewBox="0 0 89 64" version="1.1" xmlns="http://www.w3.org/2000/svg" xmlns:xlink="http://www.w3.org/1999/xlink">
    <title>云搜系统,云端搜索,云搜</title>
    <defs>
        <filter color-interpolation-filters="auto" id="filter-1">
            <feColorMatrix in="SourceGraphic" type="matrix" values="0 0 0 0 0.956863 0 0 0 0 0.964706 0 0 0 0 0.976471 0 0 0 1.000000 0"></feColorMatrix>
        </filter>
    </defs>
    <g id="-门户网站页面" stroke="none" stroke-width="1" fill="none" fill-rule="evenodd" opacity="0.203677223">
        <g id="网站管理员-配置与首页维护备份-2" transform="translate(-717.000000, -338.000000)">
            <g id="云搜系统,云端搜索,云搜" transform="translate(548.000000, 314.000000)" filter="url(#filter-1)">
                <g transform="translate(169.000000, 24.000000)">
                    <path d="M66.7173977,13.6714227 C65.1437921,13.4366082 63.7527596,12.5408344 62.8746703,11.2189156 C58.4407541,4.47886941 50.6335841,0 41.713588,0 C29.602911,0 19.5266191,8.25329528 17.2140275,19.2026091 C16.8314936,21.0115505 15.6056462,22.5334964 13.8929374,23.2292431 C5.70323337,26.5688273 0,34.013317 0,42.6666667 C0,54.0247316 9.84155514,63.3564343 22.2478265,64 L63.9701084,64 C77.7848002,64 89,52.6506319 89,38.6661231 C88.991306,26.0209268 79.3410179,15.5760294 66.7173977,13.6714227 Z M63.1789587,47.8151923 C62.6312396,48.3891833 61.9009475,48.6761788 61.1706555,48.6761788 C60.4577513,48.6761788 59.7448471,48.406577 59.205822,47.8586765 L54.0329198,42.6927572 C53.1635245,41.814377 51.8072678,41.6230466 50.7292175,42.2231281 C48.2427469,43.6059247 45.3824363,44.3886398 42.3308586,44.3886398 C32.7588161,44.3886398 25.0038097,36.6223672 25.0038097,27.05585 C25.0038097,17.480636 32.7588161,9.7230602 42.3308586,9.7230602 C51.9029012,9.7230602 59.6318257,17.428455 59.6579076,27.003669 C59.6666015,30.0649545 58.8841457,32.9349096 57.5018072,35.4395978 C56.9019244,36.526702 57.0758035,37.8834081 57.9625867,38.7704851 L63.0920191,43.9016171 C64.1700694,44.9626308 64.230927,46.7193912 63.1789587,47.8151923 L63.1789587,47.8151923 Z M54.0937775,27.0471531 C54.0937775,30.1867102 52.8679301,33.1436336 50.650972,35.3700231 C48.4253199,37.5964126 45.4780697,38.8139693 42.3308586,38.8139693 C39.1836476,38.8139693 36.2363974,37.5877157 34.0107453,35.3700231 C31.7850933,33.1436336 30.5679398,30.195407 30.5679398,27.0471531 C30.5679398,23.8988993 31.7937872,20.9506726 34.0107453,18.7242832 C36.2363974,16.4978937 39.1836476,15.280337 42.3308586,15.280337 C45.4693758,15.280337 48.4253199,16.5065906 50.650972,18.7242832 C52.8679301,20.9506726 54.0937775,23.9075961 54.0937775,27.0471531 L54.0937775,27.0471531 Z" id="形状" fill="#000000" fill-rule="nonzero"></path>
                </g>
            </g>
        </g>
    </g>
</svg>