<?xml version="1.0" encoding="UTF-8"?>
<svg width="96px" height="67px" viewBox="0 0 96 67" version="1.1" xmlns="http://www.w3.org/2000/svg" xmlns:xlink="http://www.w3.org/1999/xlink">
    <title>路径 3备份 7</title>
    <g id="-门户网站页面" stroke="none" stroke-width="1" fill="none" fill-rule="evenodd" opacity="0.203677223">
        <g id="网站管理员-配置与首页维护备份-2" transform="translate(-417.000000, -338.000000)" fill="#F4F6F9" fill-rule="nonzero">
            <g id="编组-39" transform="translate(255.000000, 314.000000)">
                <path d="M258,65 L246.82515,86.8598726 C245.423653,89.4049614 242.639222,91 239.585629,91 L173.724551,91 C172.508683,91 171.71976,89.797184 172.267365,88.7774053 L172.29521,88.725109 C173.186228,87.0603419 172.657186,85.0382166 171.042216,83.9574254 L170.949401,83.896413 C167.218263,81.3861884 165,77.3332216 165,73.018773 L165,68.0593362 L223.64012,68.0593362 L223.64012,68.024472 C223.64012,66.3509889 225.088024,65 226.860778,65 L258,65 Z M219.327909,44 C220.248712,44 220.998644,44.7868421 220.98924,45.7653509 L220.98924,45.7653509 L220.98924,65.2346491 C220.98924,66.2030702 220.248712,67 219.327909,67 L219.327909,67 L207.670735,67 C206.749932,67 206,66.2131579 206,65.2346491 L206,65.2346491 L206,45.7653509 C206,44.7969298 206.749932,44 207.670735,44 L207.670735,44 Z M201.205128,47 C202.189744,47 203,47.8102564 203,48.8051282 L203,48.8051282 L203,63.2051282 C203,64.1897436 202.2,65 201.205128,65 L201.205128,65 L186.805128,65 C185.810256,65 185.010256,64.2 185,63.2051282 L185,63.2051282 L185,48.8051282 C185,47.8102564 185.810256,47 186.805128,47 L186.805128,47 Z M176.049222,24 L176.049222,33.1080598 L179.173362,33.1080598 L179.173362,36.1471311 L176.049222,36.1471311 L176.049222,40.6965841 L188,40.6965841 L183.859573,43.4518866 L183.859573,65 L166.686211,65 L166.686211,43.7448091 L162,43.7448091 L162,40.7057379 L174.487152,40.7057379 L174.487152,36.1471311 L169.800941,36.1471311 L169.800941,33.1080598 L174.487152,33.1080598 L174.487152,24 L176.049222,24 Z M239.319772,51.0815789 C240.240575,51.0815789 240.990507,51.8684211 241,52.8469298 L241,52.8469298 L241,59.9285088 C241,60.8969298 240.250068,61.6938596 239.329265,61.6938596 L239.329265,61.6938596 L226.001356,61.6938596 C225.080553,61.6938596 224.330621,60.9070175 224.330621,59.9285088 L224.330621,59.9285088 L224.330621,52.8469298 C224.330621,51.8785088 225.080553,51.0815789 226.001356,51.0815789 L226.001356,51.0815789 Z M180.726022,52.8528689 L176.039812,52.8528689 L176.039812,58.9218576 L180.726022,58.9218576 L180.726022,52.8528689 Z M180.726022,45.2460371 L176.039812,45.2460371 L176.039812,49.8046439 L180.726022,49.8046439 L180.726022,45.2460371 Z M246.5,24 C252.851286,24 258,29.1487143 258,35.5 C258,41.8496429 252.851286,47 246.5,47 C240.148714,47 235,41.8496429 235,35.5 C235,29.1487143 240.148714,24 246.5,24 Z M243.856643,28.9975714 L241.091714,28.9975714 L244.152357,34.6391429 L242.327143,34.6391429 L242.327143,37.0689286 L245.451857,37.0689286 L245.451857,37.9117143 L242.327143,37.9117143 L242.327143,40.3447857 L245.451857,40.3447857 L245.451857,42.6809286 L247.847143,42.6809286 L247.847143,40.3447857 L251.062214,40.3447857 L251.062214,37.9117143 L247.847143,37.9117143 L247.847143,37.0689286 L251.062214,37.0689286 L251.062214,34.6391429 L248.847643,34.6391429 L251.908286,28.9975714 L249.141714,28.9975714 L246.5,33.8637143 L243.856643,28.9975714 Z" id="路径-3备份-7"></path>
            </g>
        </g>
    </g>
</svg>