<?xml version="1.0" encoding="UTF-8"?>
<svg width="69px" height="64px" viewBox="0 0 69 64" version="1.1" xmlns="http://www.w3.org/2000/svg" xmlns:xlink="http://www.w3.org/1999/xlink">
    <title>dingbudaohang-wenjianxiazai</title>
    <defs>
        <filter color-interpolation-filters="auto" id="filter-1">
            <feColorMatrix in="SourceGraphic" type="matrix" values="0 0 0 0 0.956863 0 0 0 0 0.964706 0 0 0 0 0.976471 0 0 0 1.000000 0"></feColorMatrix>
        </filter>
    </defs>
    <g id="-门户网站页面" stroke="none" stroke-width="1" fill="none" fill-rule="evenodd" opacity="0.203677223">
        <g id="网站管理员-配置与首页维护备份-2" transform="translate(-1323.000000, -338.000000)">
            <g id="dingbudaohang-wenjianxiazai" transform="translate(1134.000000, 314.000000)" filter="url(#filter-1)">
                <g transform="translate(189.000000, 24.000000)">
                    <path d="M7.70525902,23.0790342 C9.11626077,20.0571832 12.470674,17.6444769 16.5916335,16.6810886 C17.5807257,16.4500603 17.7136349,16.4500603 36.7953856,16.415406 L56,16.3715106 L55.9327726,14.8551944 C55.8779089,13.150205 55.6669541,12.286929 55.0000897,11.0694095 C53.9229065,9.08795624 52.2901318,7.72642904 50.0793564,6.95171387 L49.0245824,6.58668904 L37.2512952,6.55280491 L25.4764626,6.51969086 L24.3660522,4.90249226 C22.6335955,2.38967368 21.7781854,1.58184452 19.9676831,0.729349803 C18.3905448,-0.0222624794 18.6123178,0 10.4268078,0 C3.61829945,0.0108515727 2.99625327,0.0224030153 2.46307081,0.210306086 C1.34106941,0.586882303 0.540522953,1.33926466 0.154158893,2.35809977 C0,2.77857141 -0.0135231467,5.16971503 0.0081132051,26.4143138 L0.0413405671,50 L3.64070857,37.0416188 C6.47275754,26.8209237 7.34053131,23.8653008 7.70525902,23.0790342 Z" id="路径" fill="#CCCCCC" fill-rule="nonzero"></path>
                    <path d="M68.9318997,24.4550386 C68.6012015,22.5505759 67.1894045,21.1086365 64.8952342,20.3267883 L64.0128609,20.0296707 L42.1760426,20.0082292 C21.1111089,19.9860219 20.3085329,19.9967426 19.3463625,20.1950763 C16.0271047,20.899582 12.9833008,22.957964 11.6927341,25.3685987 C11.4717572,25.7867076 9.80931494,31.2570923 6.70540739,41.7797531 C2.33190547,56.650184 2.05491702,57.6296001 2.01118197,58.609782 C1.94826494,59.7982524 2.14315432,60.4951005 2.79227406,61.4385255 C3.24496985,62.0986168 4.46878313,63.0343841 5.34041443,63.386637 C6.96167927,64.0360075 5.75934988,63.9996308 28.9726704,63.9996308 C52.1215394,63.9996308 51.0519496,64.0321786 52.9824287,63.386637 C55.0003778,62.72578 57.2500459,61.2509126 58.353396,59.8863156 C58.6902872,59.4533597 58.9891014,58.9921875 59.2465111,58.5079349 C59.5334742,57.9795557 60.8578013,53.5878814 64.2200268,42.1297086 C66.7604944,33.5132974 68.87819,26.1718884 68.9441762,25.8058518 C69.0225293,25.3585907 69.0183689,24.9008077 68.9318997,24.4550386 Z M47.427314,43.9484054 C47.1403509,44.5097127 46.7766597,44.8290376 43.5563812,47.4043123 C39.9831534,50.2659838 37.9429531,51.7852657 37.1158241,52.2140953 C35.9572297,52.826709 36.1666975,52.9300875 31.810843,49.6717486 C27.6966821,46.5895361 25.1938113,44.6084966 25.0280786,44.311379 C24.8623459,43.9813334 24.7856178,43.0455661 24.9068482,42.7262412 L25.0280786,42.4291235 L29.6601542,42.4291235 L29.6601542,36.9156005 C29.6601542,32.9971704 29.6931473,31.2688341 29.7921266,30.9609958 C29.9686012,30.3774813 30.6637578,29.6951828 31.3036702,29.5060383 C31.7003545,29.3743263 32.7369512,29.3413984 36.290997,29.3413984 L40.7573399,29.3299118 L41.3197569,29.605588 C41.9249769,29.9104115 42.3762451,30.4523069 42.5658213,31.1018969 C42.6325748,31.3224378 42.6763098,33.7108653 42.6763098,36.946997 L42.6763098,42.4283577 L44.8822428,42.4283577 C47.0881757,42.4283577 47.0989177,42.4283577 47.3636297,42.7032682 C47.692026,43.0233588 47.7142771,43.3978189 47.427314,43.9484054 L47.427314,43.9484054 Z" id="形状" fill="#CCCCCC" fill-rule="nonzero"></path>
                </g>
            </g>
        </g>
    </g>
</svg>