<?xml version="1.0" encoding="UTF-8"?>
<svg width="14px" height="13px" viewBox="0 0 14 13" version="1.1" xmlns="http://www.w3.org/2000/svg" xmlns:xlink="http://www.w3.org/1999/xlink">
    <title>信息查询</title>
    <g id="页面-1" stroke="none" stroke-width="1" fill="none" fill-rule="evenodd">
        <g id="信息查询" fill="#B1B5BB" fill-rule="nonzero">
            <path d="M2.16666666,11.1813471 L8.4296875,11.1813471 C8.15885417,10.9119171 7.92187501,10.5751295 7.75260417,10.238342 L2.16666666,10.238342 C1.48958333,10.238342 0.947916665,9.69948187 0.947916665,9.02590674 L0.947916665,2.15544041 C0.947916665,1.48186528 1.48958333,0.943005179 2.16666666,0.943005179 L10.8333333,0.943005179 C11.5104167,0.943005179 12.0520833,1.48186528 12.0520833,2.15544041 L12.0520833,5.89378238 C12.4244792,6.06217616 12.7291667,6.2642487 13,6.53367875 L13,2.15544041 C13,0.976683937 12.0520833,0 10.8333333,0 L2.16666666,0 C0.981770833,0 0,0.976683937 0,2.15544041 L0,9.02590674 C0,10.2046632 0.981770833,11.1813471 2.16666666,11.1813471 Z M11.2395833,12.0569948 C11.0703125,12.0906736 10.8671875,12.1243523 10.6979167,12.1243523 C10.4947917,12.1243523 10.2916667,12.0906736 10.1223958,12.0569948 L0.473958339,12.0569948 C0.203125008,12.0569948 0,12.2590673 0,12.5284974 C0,12.7979275 0.203124995,13 0.473958339,13 L12.5260417,13 L11.578125,12.0569948 L11.2395833,12.0569948 L11.2395833,12.0569948 Z" id="形状"></path>
            <path d="M13.8522572,12.2095808 L12.4404925,10.7934132 C12.9329685,10.2664671 13.2284542,9.5748503 13.2284542,8.78443114 C13.2284542,7.13772455 11.9151847,5.82035928 10.2735978,5.82035928 C8.63201094,5.82035928 7.31874146,7.13772455 7.31874146,8.78443114 C7.31874146,10.4311377 8.63201095,11.748503 10.2735978,11.748503 C10.7989056,11.748503 11.2913817,11.6167665 11.7181943,11.3862275 L13.1956224,12.8682635 C13.2941177,12.9670659 13.3926129,13 13.5239398,13 C13.6552668,13 13.753762,12.9670659 13.8522572,12.8682635 C14.0492476,12.7035928 14.0492476,12.4071856 13.8522572,12.2095808 L13.8522572,12.2095808 Z M8.2380301,8.78443114 C8.2380301,7.66467065 9.15731875,6.74251497 10.2735978,6.74251497 C11.3898769,6.74251497 12.3091655,7.66467065 12.3091655,8.78443114 C12.3091655,9.90419162 11.3898769,10.8263473 10.2735978,10.8263473 C9.15731874,10.8263473 8.2380301,9.90419162 8.2380301,8.78443114 L8.2380301,8.78443114 Z M3.41176471,4.83233533 C4.19972641,4.83233533 4.82352941,4.20658682 4.82352941,3.41616767 C4.82352941,2.62574851 4.1997264,2 3.41176471,2 C2.62380302,2 2,2.6257485 2,3.41616767 C2,4.20658684 2.62380301,4.83233533 3.41176471,4.83233533 L3.41176471,4.83233533 Z M3.41176471,2.65868264 C3.8385773,2.65868264 4.1997264,3.02095809 4.1997264,3.4491018 C4.1997264,3.87724552 3.83857729,4.23952096 3.41176471,4.23952096 C2.98495213,4.23952096 2.62380301,3.87724551 2.62380301,3.4491018 C2.62380301,3.0209581 2.98495212,2.65868264 3.41176471,2.65868264 L3.41176471,2.65868264 Z M2.32831737,6.1497006 L4.49521204,6.1497006 C4.65937072,6.1497006 4.79069767,6.01796406 4.79069767,5.85329341 C4.79069767,5.68862276 4.65937072,5.55688623 4.49521204,5.55688623 L2.32831737,5.55688623 C2.16415869,5.55688623 2.03283174,5.68862276 2.03283174,5.85329341 C2.03283174,6.01796406 2.13132695,6.1497006 2.32831737,6.1497006 Z" id="形状"></path>
            <path d="M10,4.2115736 L10,4.1780477 L10,4.1109959 L10,4.07747 C10,4.07747 10,4.04394411 9.96721311,4.04394411 L9.96721311,4.01041822 L9.93442623,3.97689232 L8.95081967,3.07169308 C8.81967212,2.97111539 8.62295082,2.97111539 8.52459017,3.10521898 C8.42622951,3.23932257 8.42622951,3.44047795 8.55737706,3.54105565 L8.91803279,3.87631462 L7.70491803,3.87631462 L7.67213114,3.87631462 C7.67213114,3.87631462 7.63934426,3.87631462 7.63934427,3.90984052 C7.60655738,3.90984052 7.60655738,3.94336642 7.5737705,3.94336642 L4.39344263,7.39653385 L2.29508197,7.39653385 C2.13114755,7.39653385 2,7.53063744 2,7.69826692 C2,7.86589641 2.13114755,8 2.29508197,8 L4.45901639,8 C4.55737705,8 4.62295081,7.9664741 4.6885246,7.89942232 L7.86885246,4.44625488 L8.78688525,4.44625488 L8.52459017,4.68093617 C8.39344262,4.78151386 8.36065575,4.98266924 8.4590164,5.11677283 C8.52459017,5.18382462 8.62295082,5.25087642 8.68852459,5.25087642 C8.75409836,5.25087642 8.81967214,5.21735052 8.88524591,5.18382462 L9.86885247,4.41272898 L9.90163934,4.37920308 C9.90163934,4.37920308 9.90163934,4.34567718 9.93442623,4.34567719 L9.96721311,4.3121513 L9.96721311,4.2786254 L9.96721311,4.2450995 C10,4.2786254 10,4.2450995 10,4.2115736 C10,4.2450995 10,4.2115736 10,4.2115736 L10,4.2115736 Z" id="路径"></path>
        </g>
    </g>
</svg>