<?xml version="1.0" encoding="UTF-8"?>
<svg width="17px" height="20px" viewBox="0 0 17 20" version="1.1" xmlns="http://www.w3.org/2000/svg" xmlns:xlink="http://www.w3.org/1999/xlink">
    <title>youlun</title>
    <g id="-门户网站页面" stroke="none" stroke-width="1" fill="none" fill-rule="evenodd">
        <g id="首页-框架" transform="translate(-168.000000, -782.000000)" fill="#FFFFFF" fill-rule="nonzero">
            <g id="编组-8" transform="translate(0.000000, 732.000000)">
                <g id="youlun" transform="translate(168.000000, 50.000000)">
                    <path d="M5.62493542,11.2943808 C5.3773148,11.2937416 5.15960858,11.1303067 5.08987799,10.8927062 C5.02014739,10.6551056 5.11500358,10.3999404 5.32300641,10.2655857 L7.50360469,8.85658373 C8.07941126,8.48721634 8.81764994,8.48721634 9.39345651,8.85658373 L9.95258428,9.20324295 C10.1938098,9.37701836 10.2568618,9.70918106 10.0960943,9.9592639 C9.93532673,10.2093467 9.60696577,10.2898868 9.3487263,10.1425776 L8.78959854,9.80150965 C8.58217101,9.66680328 8.3148902,9.66680328 8.10746266,9.80150965 L5.9268644,11.1825552 C5.83936301,11.2486284 5.73436593,11.2875162 5.62493542,11.2943808 L5.62493542,11.2943808 Z M11.7026542,11.5683534 C11.5955188,11.5680757 11.4907188,11.5370239 11.4007252,11.4788929 L11.11557,11.2999721 C10.9467753,11.1881081 10.8504812,10.9946906 10.8629609,10.792578 C10.8754405,10.5904655 10.994798,10.4103636 11.1760724,10.3201151 C11.3573468,10.2298665 11.5729984,10.2431822 11.7417931,10.3550461 L12.021357,10.5395583 C12.2293598,10.673913 12.324216,10.9290782 12.2544854,11.1666788 C12.1847548,11.4042793 11.9670486,11.5677142 11.719428,11.5683534 L11.7026542,11.5683534 Z" id="形状"></path>
                    <line x1="8.48876497" y1="1.60469668" x2="8.48876497" y2="0.41934582" id="路径"></line>
                    <path d="M14.2914157,16.7738328 L15.2251591,12.0324294 C15.2853746,11.7236317 15.083859,11.4244873 14.7750612,11.3642717 C14.4662635,11.3040562 14.1671191,11.5055719 14.1069035,11.8143696 L13.0836997,17.0366229 C12.8552116,17.1513594 12.6443304,17.2982232 12.4574766,17.4727425 L12.4183377,17.4727425 L12.2338255,17.4336036 L12.1387738,17.4336036 C12.0438035,17.4280396 11.948589,17.4280396 11.8536187,17.4336036 C11.7279886,17.4334191 11.6026014,17.4446478 11.4790031,17.4671513 L11.3615862,17.5006989 C11.2818138,17.5198056 11.20337,17.5440859 11.1267526,17.5733855 L11.0037445,17.623707 C10.9310579,17.6572547 10.8639625,17.6963936 10.7968672,17.7355326 L10.6906329,17.8082192 C10.6218266,17.8578025 10.5564463,17.9119747 10.4949382,17.9703662 L10.4166603,18.0374616 C10.3340288,18.1233982 10.2574324,18.2149403 10.1874179,18.3114342 L10.1594616,18.3673469 C10.1055874,18.451836 10.0570354,18.5396031 10.0140883,18.630137 C9.99771483,18.666163 9.98461572,18.703589 9.97494938,18.7419625 C9.95149089,18.7884257 9.93275926,18.837128 9.91903661,18.8873358 L6.96684204,18.8873358 C6.96684204,18.8370143 6.92770309,18.792284 6.91092926,18.7419625 C6.89415544,18.691641 6.91092926,18.6636846 6.86619903,18.630137 C6.82516884,18.5396923 6.77848243,18.4519219 6.7264171,18.3673469 L6.69286944,18.3114342 C6.62480839,18.2149993 6.55007508,18.123451 6.46921833,18.0374616 L6.39094044,17.9703662 L6.19524573,17.8082192 L6.08342018,17.7355326 L5.88213419,17.623707 L5.75912608,17.5733855 C5.68087353,17.5432989 5.6005154,17.5190045 5.51870114,17.5006989 L5.40687559,17.4671512 C5.28379534,17.4390119 5.15840305,17.4221682 5.03225999,17.4168297 C4.93542887,17.4111109 4.83834466,17.4111109 4.74151354,17.4168297 L4.65205311,17.4168297 L4.47313221,17.4951076 L4.428402,17.4951076 C4.24154829,17.3205883 4.03066706,17.1737246 3.80217891,17.058988 L2.62801061,11.0819122 C2.57786415,10.8199699 2.69609831,10.5545008 2.92434833,10.4165502 L7.23522337,7.90047525 C7.9858486,7.45896279 8.9168039,7.45896279 9.66742913,7.90047525 L13.2178904,9.97483926 L13.2570293,9.97483926 L13.3800374,10.0139782 L13.6036886,10.0139782 L13.7155141,9.96924797 C13.7464143,9.95660353 13.7763189,9.94165122 13.8049746,9.92451775 C13.8287146,9.90357121 13.8511233,9.88116248 13.8720699,9.85742242 C13.9010677,9.83027487 13.9272897,9.80030683 13.9503478,9.76796197 L13.9503478,9.69527537 C13.9682947,9.65990051 13.9814565,9.62229555 13.9894867,9.58344982 C13.9950684,9.54450989 13.9950684,9.50497293 13.9894867,9.46603299 L13.9894867,9.38216383 L13.0948823,4.64076041 C13.0433032,4.37399597 12.8074147,4.18292627 12.5357545,4.18786693 L12.4071551,4.18786693 L11.8983489,1.4984624 C11.8467699,1.23169795 11.6108813,1.04062823 11.3392211,1.04556891 L8.86787641,1.04556891 L8.86787641,0.41934582 C8.86787641,0.187747519 8.68012889,0 8.44853059,0 C8.21693229,0 8.02918477,0.187747519 8.02918477,0.41934582 L8.02918477,1.0511602 L5.47956219,1.0511602 C5.20790202,1.04621953 4.97201349,1.23728923 4.92043444,1.50405367 L4.75828739,2.34274531 C4.70115982,2.65154304 4.90517878,2.94818411 5.2139765,3.00531169 C5.52277423,3.06243927 5.8194153,2.85842032 5.8765429,2.5496226 L5.94922952,2.1694157 L10.9813794,2.1694157 L11.3615862,4.1934582 L4.29421134,4.1934582 C4.02255115,4.18851754 3.78666262,4.37958725 3.73508358,4.6463517 L2.89080065,9.11937377 L2.3316729,9.43248533 C1.69162286,9.80937208 1.35800416,10.5482591 1.49857255,11.2776069 L2.61123678,16.7738328 C1.15807928,16.7891974 -0.00920777592,17.9764808 5.47446316e-05,19.4296897 C5.47446316e-05,19.7384874 0.250440171,19.9888174 0.559237898,19.9888174 C0.868035625,19.9888174 1.11836565,19.7384874 1.11836565,19.4296897 C1.11388471,19.0234427 1.27213395,18.6322911 1.55783155,18.3434424 C1.84352916,18.0545937 2.23292149,17.8920636 2.63919317,17.8920883 C2.79565888,17.8939753 2.95067657,17.9223322 3.09767794,17.9759575 L3.13122559,17.9759575 C3.24659341,18.0205336 3.35712477,18.076736 3.46111098,18.1436958 C3.2982997,18.3868622 3.35053158,18.714434 3.58089307,18.8949083 C3.81125457,19.0753826 4.14180729,19.0476993 4.33894157,18.831423 C4.4054869,18.7480799 4.48702984,18.6779151 4.57936649,18.6245457 C4.71973339,18.5551111 4.87603471,18.5242368 5.03225999,18.5350853 C5.52633636,18.5350853 5.9268644,18.9356133 5.9268644,19.4296897 C5.9268644,19.7384874 6.17719442,19.9888174 6.48599216,19.9888174 L10.3998865,19.9888174 C10.7086842,19.9888174 10.9590142,19.7384874 10.9590142,19.4296897 C10.9590142,18.9356133 11.3595423,18.5350853 11.8536187,18.5350853 C12.0130605,18.5333635 12.169849,18.575948 12.3065122,18.6580934 C12.3970628,18.7093818 12.4768119,18.7777381 12.5413458,18.8593794 C12.6361449,18.973725 12.7725456,19.0456516 12.9204504,19.0592882 C13.0683552,19.0729248 13.2156077,19.0271506 13.3297159,18.932066 C13.5556289,18.7419714 13.5948036,18.4089869 13.4191764,18.1716522 C13.525737,18.1057769 13.6380165,18.0496372 13.7546531,18.0039139 L13.7826094,18.0039139 C13.9316797,17.950788 14.08845,17.922456 14.2466855,17.9200447 C14.650034,17.9200447 15.0368624,18.0802743 15.3220729,18.3654848 C15.6072834,18.6506953 15.767513,19.0375237 15.767513,19.4408722 C15.767513,19.74967 16.017843,20 16.3266407,20 C16.6354385,20 16.8859238,19.74967 16.8859238,19.4408722 C16.9013483,17.9897713 15.7423932,16.7983455 14.2914157,16.7738328 Z M4.7526961,5.31171373 L12.1443651,5.31171373 L12.7034929,8.3925077 L10.2321482,6.93318424 C9.13205819,6.28995594 7.77059428,6.28995594 6.67050432,6.93318424 L4.17679452,8.38691641 L4.7526961,5.31171373 Z" id="形状"></path>
                </g>
            </g>
        </g>
    </g>
</svg>