<?xml version="1.0" encoding="UTF-8"?>
<svg width="38px" height="38px" viewBox="0 0 38 38" version="1.1" xmlns="http://www.w3.org/2000/svg" xmlns:xlink="http://www.w3.org/1999/xlink">
    <title>路径</title>
    <defs>
        <linearGradient x1="75.0493288%" y1="86.0198929%" x2="0.0997225386%" y2="83.436955%" id="linearGradient-1">
            <stop stop-color="#00A2FF" offset="0%"></stop>
            <stop stop-color="#0D8AFF" stop-opacity="0.635317949" offset="42.9203487%"></stop>
            <stop stop-color="#15BDFF" stop-opacity="0.391827781" offset="73.6021669%"></stop>
            <stop stop-color="#1DA4FF" stop-opacity="0.093334278" offset="100%"></stop>
        </linearGradient>
    </defs>
    <g id="-门户网站页面" stroke="none" stroke-width="1" fill="none" fill-rule="evenodd">
        <g id="完整首页长版面内容" transform="translate(-435.000000, -1131.000000)" fill="url(#linearGradient-1)" fill-rule="nonzero">
            <g id="模块组2" transform="translate(120.000000, 896.000000)">
                <g id="价格标签样式" transform="translate(1.000000, 180.000000)">
                    <g id="编组-61" transform="translate(0.000000, 31.000000)">
                        <g id="编组-57" transform="translate(309.000000, 19.000000)">
                            <g id="redo" transform="translate(24.000000, 24.000000) rotate(-90.000000) translate(-24.000000, -24.000000) ">
                                <path d="M35.540625,39.3328125 C39.928125,35.9015625 42.75,30.5578125 42.75,24.5578125 C42.75,14.203125 34.3828125,5.8265625 24.028125,5.81227407 C13.659375,5.7984375 5.25,14.19375 5.25,24.5578125 C5.25,30.4265625 7.9453125,35.6625 12.16875,39.0984375 C12.3328125,39.2296875 13.7377364,38.6995851 14.0152248,38.3439209 C14.3533614,37.9105226 14.6484375,36.28125 14.49375,36.15 C14.1140625,35.840625 13.7484375,35.5078125 13.396875,35.15625 C12.01875,33.778125 10.9359375,32.175 10.18125,30.3890625 C9.39375,28.546875 9,26.5828125 9,24.5578125 C9,22.5328125 9.39375,20.56875 10.1765625,18.721875 C10.93125,16.9359375 12.0140625,15.3328125 13.3921875,13.9546875 C14.7703125,12.5765625 16.3734375,11.49375 18.159375,10.7390625 C20.0109375,9.95625 21.975,9.5625 24,9.5625 C26.025,9.5625 27.9890625,9.95625 29.8359375,10.7390625 C31.621875,11.49375 33.225,12.5765625 34.603125,13.9546875 C35.98125,15.3328125 37.0640625,16.9359375 37.81875,18.721875 C38.6015625,20.56875 38.9953125,22.5328125 38.9953125,24.5578125 C38.9953125,26.5828125 38.6015625,28.546875 37.81875,30.39375 C37.0640625,32.1796875 35.98125,33.7828125 34.603125,35.1609375 C34.1671875,35.596875 33.7078125,36.0046875 33.2296875,36.3796875 L31.321875,33.9375 C31.1296875,33.6890625 30.7359375,33.7734375 30.6609375,34.078125 L28.8046875,41.68125 C28.7484375,41.915625 28.9265625,42.1453125 29.165625,42.1453125 L36.99375,42.1828125 C37.3078125,42.1828125 37.4859375,41.821875 37.2890625,41.578125 L35.540625,39.3328125 Z" id="路径"></path>
                            </g>
                        </g>
                    </g>
                </g>
            </g>
        </g>
    </g>
</svg>