<?xml version="1.0" encoding="UTF-8"?>
<svg width="12px" height="14px" viewBox="0 0 12 14" version="1.1" xmlns="http://www.w3.org/2000/svg" xmlns:xlink="http://www.w3.org/1999/xlink">
    <title>daohangdizhi</title>
    <g id="-门户网站页面" stroke="none" stroke-width="1" fill="none" fill-rule="evenodd">
        <g id="产品服务" transform="translate(-165.000000, -2599.000000)" fill="#A0CFFF" fill-rule="nonzero">
            <g id="编组-8备份" transform="translate(120.000000, 2374.000000)">
                <g id="编组-11" transform="translate(24.000000, 160.000000)">
                    <g id="编组-10" transform="translate(12.000000, 0.000000)">
                        <g id="daohangdizhi" transform="translate(9.366599, 65.000000)">
                            <path d="M5.3861737,2.92997764 C6.74215343,2.92997764 7.84139218,4.0292164 7.84139218,5.38519612 C7.84139218,6.74117584 6.74215343,7.8404146 5.3861737,7.8404146 C4.03019398,7.8404146 2.93095523,6.74117584 2.93095523,5.38519612 C2.93095523,4.0292164 4.03019398,2.92997764 5.3861737,2.92997764 Z M10.7723362,5.38627486 C10.7723362,3.08614013 9.31152878,1.03988169 7.13618734,0.292546805 C4.96084591,-0.454788082 2.55097822,0.261737156 1.13733088,2.076185 C-0.276316462,3.89063285 -0.38175193,6.40255523 0.874871557,8.32908507 L4.9039757,13.7012239 C4.99521764,13.8842944 5.18216506,14 5.38671308,14 C5.5912611,14 5.77820852,13.8842944 5.86945046,13.7012239 L9.9061058,8.32908507 C10.4497921,7.48119328 10.7723362,6.47364755 10.7723362,5.38627486 Z" id="形状"></path>
                        </g>
                    </g>
                </g>
            </g>
        </g>
    </g>
</svg>