<?xml version="1.0" encoding="UTF-8"?>
<svg width="15px" height="14px" viewBox="0 0 15 14" version="1.1" xmlns="http://www.w3.org/2000/svg" xmlns:xlink="http://www.w3.org/1999/xlink">
    <title>24gf-phoneBubble</title>
    <g id="-门户网站页面" stroke="none" stroke-width="1" fill="none" fill-rule="evenodd">
        <g id="产品服务" transform="translate(-163.000000, -2627.000000)" fill="#A0CFFF" fill-rule="nonzero">
            <g id="编组-8备份" transform="translate(120.000000, 2374.000000)">
                <g id="编组-11" transform="translate(24.000000, 160.000000)">
                    <g id="编组-10" transform="translate(12.000000, 0.000000)">
                        <g id="24gf-phoneBubble" transform="translate(7.366599, 93.000000)">
                            <path d="M12.8980198,11.2755757 C13.2400267,11.6183946 13.2400267,12.1733531 12.8980198,12.516172 L12.2776668,13.1365249 C11.8192833,13.5949084 11.2163665,13.8741056 10.4855848,13.96655 C10.3043597,13.9891983 10.1218877,14.0004059 9.93925309,14.0001121 C9.40739666,14.0001121 8.83354001,13.9102938 8.22612706,13.7316558 C6.57737212,13.2470634 4.84330082,12.1541806 3.34478161,10.6552228 C1.8462624,9.15626491 0.752941026,7.42274193 0.268348534,5.77387732 C0.0270940639,4.95240587 -0.0523005763,4.19223499 0.0334544144,3.51485823 C0.125898739,2.78407652 0.405095946,2.18115969 0.863479435,1.72277621 L1.4838324,1.10242324 C1.82665126,0.7604163 2.3816098,0.7604163 2.72442866,1.10242324 L5.45400361,3.83188854 C5.79602316,4.17474499 5.79602316,4.729738 5.45400361,5.07259445 L4.83365064,5.69250877 C4.48273506,6.04342435 4.83200572,7.17973288 5.82619344,8.17381094 C6.82038116,9.16788901 7.95614139,9.51770798 8.30749562,9.16635375 L8.92784857,8.54600078 C9.27070502,8.20398122 9.82569804,8.20398122 10.1685545,8.54600078 L12.8980198,11.2755757 Z M13.770703,1.48152174 C13.6259503,1.18806858 13.4197874,0.925539862 13.1580263,0.701173209 C12.6304467,0.249040404 11.9325633,0 11.1926797,0 C10.4527961,0 9.75491274,0.249040404 9.2273331,0.701173209 C8.96557201,0.925539862 8.75940909,1.18806858 8.61465641,1.48152174 C8.46377598,1.78434859 8.38528048,2.11807644 8.38535495,2.45640911 C8.38676152,2.85878863 8.49739765,3.25323542 8.70545582,3.59765239 C8.83929402,3.81912673 9.00652301,4.01861045 9.20123374,4.18905481 C9.04518596,4.31977087 8.84011968,4.45377675 8.56519926,4.60686367 C8.42617586,4.68495159 8.3572765,4.84695359 8.39746299,5.00125937 C8.43764947,5.15556515 8.5768181,5.26337915 8.7362706,5.26373378 C9.52352779,5.26373378 10.1928993,5.1288506 10.6837424,4.87246291 C10.8520576,4.89932282 11.0222349,4.91281673 11.1926797,4.9128182 C11.9325633,4.9128182 12.6304467,4.6637778 13.1580263,4.21164499 C13.4197874,3.98727834 13.6259503,3.72474962 13.770703,3.43129646 C14.0764323,2.81732588 14.0764323,2.09549232 13.770703,1.48152174 L13.770703,1.48152174 Z" id="形状"></path>
                        </g>
                    </g>
                </g>
            </g>
        </g>
    </g>
</svg>