<?xml version="1.0" encoding="UTF-8"?>
<svg width="12px" height="14px" viewBox="0 0 12 14" version="1.1" xmlns="http://www.w3.org/2000/svg" xmlns:xlink="http://www.w3.org/1999/xlink">
    <title>zujian-lianxiren</title>
    <g id="-门户网站页面" stroke="none" stroke-width="1" fill="none" fill-rule="evenodd">
        <g id="产品服务" transform="translate(-164.000000, -2655.000000)" fill="#A0CFFF" fill-rule="nonzero">
            <g id="编组-8备份" transform="translate(120.000000, 2374.000000)">
                <g id="编组-11" transform="translate(24.000000, 160.000000)">
                    <g id="编组-10" transform="translate(12.000000, 0.000000)">
                        <g id="zujian-lianxiren" transform="translate(8.046419, 120.996512)">
                            <path d="M7.73978092,5.89473685 C7.96083356,5.89473685 8.62399145,6.04210527 9.43451777,6.77894737 C10.4660967,7.73684212 11.8660967,9.57894738 11.7924125,11.7894737 C11.7187283,14 9.36083355,14 5.89767568,14 C2.4345178,14 0.0766230452,14 0.00293882677,11.7894737 C-0.0707453916,9.57894736 1.2555704,7.6631579 2.36083356,6.77894737 C3.46609672,5.89473685 4.20293883,5.89473685 4.20293883,5.89473685 L4.57135988,5.89473685 C3.61346514,5.30526316 3.02399147,4.34736844 3.02399145,3.16842106 C2.95030725,1.40000001 4.35030725,0 6.11872829,0 C7.88714934,0 9.28714933,1.39999999 9.28714935,3.16842106 C9.28714935,4.34736842 8.69767567,5.37894738 7.73978092,5.89473685 Z" id="路径"></path>
                        </g>
                    </g>
                </g>
            </g>
        </g>
    </g>
</svg>