<svg width="10" height="10" viewBox="0 0 10 10" fill="none" xmlns="http://www.w3.org/2000/svg">
<path d="M4.125 7.625V5.875H2.375C1.4375 5.875 0.625 6.6875 0.625 7.625C0.625 8.5625 1.4375 9.375 2.375 9.375C3.3125 9.375 4.125 8.5625 4.125 7.625ZM4.75 7.625C4.75 8.9375 3.6875 10 2.375 10C1.0625 10 0 8.9375 0 7.625C0 6.3125 1.0625 5.25 2.375 5.25H4.75V7.625ZM5.875 7.625V5.875H7.625C8.5625 5.875 9.375 6.625 9.375 7.625C9.375 8.5625 8.625 9.375 7.625 9.375C6.6875 9.375 5.875 8.5625 5.875 7.625ZM5.25 7.625C5.25 8.9375 6.3125 10 7.625 10C8.9375 10 10 8.9375 10 7.625C10 6.3125 8.9375 5.25 7.625 5.25H5.25V7.625ZM4.125 2.375V4.125H2.375C1.375 4.125 0.625 3.3125 0.625 2.375C0.625 1.375 1.375 0.625 2.375 0.625C3.3125 0.625 4.125 1.375 4.125 2.375ZM4.75 2.375C4.75 1.0625 3.6875 0 2.375 0C1.0625 0 0 1.0625 0 2.375C0 3.6875 1.0625 4.75 2.375 4.75H4.75V2.375ZM5.875 2.375V4.125H7.625C8.5625 4.125 9.375 3.375 9.375 2.375C9.375 1.375 8.625 0.625 7.625 0.625C6.6875 0.625 5.875 1.375 5.875 2.375ZM5.25 2.375C5.25 1.0625 6.3125 0 7.625 0C8.9375 0 10 1.0625 10 2.375C10 3.6875 8.9375 4.75 7.625 4.75H5.25V2.375Z" fill="black"/>
</svg>
