<svg width="12" height="12" viewBox="0 0 12 12" fill="none" xmlns="http://www.w3.org/2000/svg">
<path d="M0.0942383 2.92254V2.76755C0.112573 2.75118 0.111766 2.72823 0.114995 2.7069C0.120876 2.66677 0.124451 2.62618 0.131831 2.58651C0.180781 2.32306 0.301833 2.07835 0.481529 1.87958C0.661225 1.68081 0.892524 1.53577 1.14971 1.46058C1.30005 1.41599 1.45672 1.39651 1.61339 1.40292C1.67971 1.40456 1.74583 1.41084 1.81128 1.42172C2.09102 1.47057 2.3503 1.60039 2.55702 1.79511C2.56613 1.80352 2.5765 1.81079 2.58677 1.81898C2.60349 1.8101 2.61825 1.80283 2.63289 1.79464L3.94967 1.03507C4.46213 0.739706 4.97455 0.444192 5.48693 0.148525C5.61293 0.0746725 5.75279 0.0275676 5.8978 0.0101477C5.90811 0.0077918 5.91816 0.00439169 5.92778 0H6.09383C6.10152 0.0043009 6.10974 0.00755841 6.11828 0.00968644C6.26924 0.0268261 6.41475 0.0762206 6.54495 0.154522C6.69889 0.245505 6.85468 0.333375 7.00966 0.422744L8.50991 1.2876C8.52755 1.29775 8.5445 1.30802 8.56169 1.31966C8.62305 1.36338 8.66772 1.42666 8.68835 1.49912C8.70899 1.57158 8.70437 1.6489 8.67525 1.71838C8.64613 1.78787 8.59424 1.84538 8.5281 1.88147C8.46197 1.91757 8.38553 1.93009 8.31134 1.91699C8.26604 1.90833 8.22266 1.89166 8.18322 1.86775C7.57459 1.51666 6.96592 1.16564 6.35721 0.814699C6.29956 0.781603 6.2419 0.748278 6.18424 0.715528C6.11347 0.674145 6.03019 0.659575 5.94958 0.674476C5.90077 0.684657 5.85416 0.703396 5.81189 0.729827C5.40291 0.965915 4.99389 1.20181 4.58483 1.43751L2.706 2.5209C2.68712 2.53237 2.66764 2.54284 2.64765 2.55226C2.59985 2.57473 2.54738 2.5855 2.49459 2.5837C2.4418 2.58189 2.39019 2.56756 2.34403 2.54188C2.28695 2.51167 2.2474 2.46393 2.21176 2.41123C2.13246 2.29344 2.02273 2.19933 1.89423 2.1389C1.76573 2.07847 1.62326 2.05399 1.48196 2.06804C1.34066 2.0821 1.2058 2.13417 1.09172 2.21873C0.977645 2.30329 0.888606 2.41717 0.834065 2.54828C0.779524 2.67939 0.76152 2.82282 0.781966 2.96334C0.802412 3.10386 0.860544 3.23622 0.950185 3.34635C1.03983 3.45647 1.15763 3.54026 1.29107 3.5888C1.42452 3.63735 1.56862 3.64883 1.70807 3.62204C1.80441 3.60417 1.89642 3.56791 1.97906 3.51526C1.98754 3.50841 1.99528 3.50068 2.00212 3.49219C1.98598 3.48204 1.97387 3.47374 1.9613 3.46648L1.51065 3.20679C1.46648 3.17992 1.42036 3.1557 1.377 3.1278C1.31538 3.08766 1.26895 3.02808 1.24509 2.95852C1.22122 2.88896 1.2213 2.81342 1.24531 2.74391C1.31819 2.53289 1.5479 2.47143 1.71061 2.55434C1.73032 2.56437 1.74935 2.57567 1.76826 2.58674L4.55807 4.19469C4.57537 4.20461 4.59267 4.21372 4.61331 4.22444C4.98889 3.81231 5.44853 3.58629 6.00919 3.58606C6.56985 3.58583 7.03031 3.81023 7.40577 4.22202C7.41285 4.22041 7.41979 4.21825 7.42653 4.21556C7.5001 4.17855 9.03182 3.29085 9.0663 3.26491C9.06296 3.24899 9.06008 3.23112 9.05558 3.21371C9.00959 3.03841 8.99745 2.85595 9.01983 2.67611C9.05923 2.35624 9.20386 2.05854 9.43097 1.82987C9.65807 1.60119 9.95476 1.45451 10.2744 1.41291C10.5939 1.37132 10.9183 1.43715 11.1964 1.60007C11.4745 1.76299 11.6905 2.01374 11.8104 2.31287C11.8529 2.41919 11.8869 2.52816 11.8954 2.64359C11.8976 2.65216 11.9012 2.66031 11.906 2.66769V3.02194C11.902 3.03774 11.8969 3.05342 11.8945 3.06933C11.8921 3.08525 11.8917 3.10243 11.8886 3.11869C11.8398 3.3805 11.7195 3.62372 11.5412 3.82152C11.3629 4.01933 11.1334 4.16403 10.878 4.23966C10.859 4.24531 10.838 4.24716 10.822 4.26157C10.8142 4.28521 10.8177 4.30931 10.8177 4.33307V7.58206C10.8178 7.77527 10.7611 7.96424 10.6545 8.12542C10.5674 8.26106 10.4487 8.37358 10.3086 8.45338L9.90118 8.68816C9.37143 8.99321 8.84209 9.29814 8.31318 9.60295C8.2959 9.61358 8.27799 9.62317 8.25956 9.63167C8.12879 9.68829 8.00529 9.67387 7.89816 9.58035C7.79104 9.48683 7.76186 9.36402 7.80176 9.22818C7.82805 9.13893 7.88998 9.07827 7.97012 9.03214C8.54416 8.70211 9.11781 8.37154 9.69108 8.04044C9.78218 7.98785 9.87328 7.93539 9.96437 7.88303C10.0889 7.81154 10.152 7.70464 10.1514 7.56015V4.02276C10.1514 4.00246 10.1506 3.98205 10.1514 3.96187C10.1595 3.8198 10.2272 3.71821 10.3581 3.66032C10.3991 3.64222 10.4432 3.63726 10.4874 3.63391C10.5241 3.63115 10.561 3.62838 10.5973 3.62238C10.7455 3.5967 10.8832 3.52894 10.9939 3.42718C11.1047 3.32543 11.1838 3.19398 11.2219 3.04849C11.2601 2.90301 11.2555 2.74963 11.2089 2.60665C11.1623 2.46367 11.0755 2.33711 10.959 2.24206C10.7 2.03023 10.3277 2.00209 10.0443 2.18533C9.79221 2.34965 9.67032 2.58524 9.67689 2.88633C9.67766 2.89334 9.67912 2.90025 9.68128 2.90697C9.70342 2.90789 9.7176 2.89475 9.73305 2.88587C9.9154 2.78116 10.0976 2.67619 10.2795 2.57094C10.3254 2.54311 10.3768 2.52582 10.4301 2.52032C10.4957 2.51388 10.5618 2.52711 10.6199 2.55832C10.6779 2.58953 10.7254 2.63732 10.7562 2.6956C10.7868 2.75503 10.799 2.82221 10.7913 2.88861C10.7836 2.955 10.7563 3.01759 10.7129 3.06841C10.6816 3.10238 10.6447 3.13077 10.6039 3.15236C10.3769 3.28305 10.1501 3.41374 9.92355 3.54443L8.18807 4.54513C8.05545 4.62155 7.9228 4.698 7.79011 4.77449C7.77328 4.78429 7.75206 4.78994 7.74399 4.81151C7.74779 4.82431 7.75125 4.83676 7.75552 4.84899C7.84608 5.12732 7.8685 5.42332 7.8209 5.71212C7.78905 5.92227 7.71847 6.12469 7.61276 6.3091C7.33739 6.78489 6.93148 7.0844 6.39504 7.20763C6.37935 7.21121 6.36413 7.21674 6.35029 7.2209C6.34153 7.28363 6.33784 8.73152 6.34511 9.09465C6.34511 9.10733 6.34741 9.1199 6.34845 9.13051C6.35194 9.13367 6.35581 9.13638 6.35998 9.13858C6.37036 9.14204 6.38108 9.14492 6.39169 9.14792C6.7536 9.24642 7.0634 9.48105 7.25627 9.80273C7.44914 10.1244 7.51015 10.5082 7.42653 10.8738C7.35857 11.1661 7.20181 11.4301 6.97776 11.6297C6.75372 11.8293 6.47338 11.9546 6.17525 11.9885C6.15922 11.9913 6.14339 11.9952 6.12785 12H5.89457C5.87877 11.9961 5.86321 11.991 5.84729 11.9885C5.81454 11.9833 5.78122 11.981 5.7487 11.9747C5.42455 11.9125 5.14975 11.7605 4.92939 11.5146C4.69933 11.2581 4.57745 10.9554 4.55969 10.6114C4.55305 10.4637 4.56911 10.316 4.60731 10.1732C4.61089 10.1592 4.61296 10.1448 4.61585 10.1298C4.60166 10.1208 4.58955 10.1125 4.57687 10.1053C4.49869 10.0599 4.42043 10.0147 4.34209 9.96977L2.90907 9.14365C2.50931 8.91302 2.1099 8.68274 1.71084 8.4528C1.55717 8.36315 1.4297 8.23477 1.34115 8.08046C1.25261 7.92615 1.20608 7.75132 1.20622 7.57341C1.20795 6.82064 1.20622 6.06798 1.20622 5.3152V5.26539C1.2105 5.18438 1.24432 5.10774 1.30128 5.04998C1.35824 4.99221 1.43439 4.95732 1.51533 4.95189C1.59627 4.94647 1.6764 4.97089 1.74056 5.02054C1.80471 5.07019 1.84846 5.14162 1.86351 5.22134C1.86855 5.25222 1.87105 5.28346 1.87101 5.31474V7.52879C1.87101 7.55093 1.87101 7.57307 1.8717 7.59509C1.87322 7.63952 1.88367 7.68318 1.90243 7.72348C1.92119 7.76378 1.94788 7.79988 1.9809 7.82964C2.007 7.85299 2.03558 7.87341 2.06612 7.89053C2.43005 8.10109 2.79426 8.31116 3.15873 8.52072L4.99465 9.57874C5.0665 9.62013 5.13891 9.66084 5.21029 9.70316C5.2841 9.74704 5.33809 9.81775 5.36097 9.90051C5.38386 9.98327 5.37387 10.0717 5.3331 10.1472C5.32688 10.1588 5.32053 10.1703 5.31454 10.1811C5.22479 10.3468 5.19945 10.5399 5.24339 10.7231C5.26815 10.8286 5.31445 10.9279 5.3794 11.0146C5.44435 11.1013 5.52654 11.1737 5.62079 11.2272C5.71505 11.2806 5.81935 11.314 5.92713 11.3252C6.03491 11.3364 6.14385 11.3252 6.24709 11.2923C6.35034 11.2594 6.44567 11.2055 6.52708 11.134C6.6085 11.0625 6.67425 10.9749 6.7202 10.8768C6.76615 10.7787 6.7913 10.6721 6.79408 10.5638C6.79687 10.4554 6.77722 10.3477 6.73637 10.2473C6.66591 10.0757 6.54587 9.94659 6.38316 9.85734C6.37278 9.85157 6.3624 9.84016 6.34487 9.85284C6.34487 9.87048 6.34395 9.89055 6.34395 9.9105V10.5192C6.34403 10.5469 6.34203 10.5745 6.33796 10.6018C6.3254 10.6789 6.286 10.7492 6.22671 10.8001C6.16741 10.851 6.09204 10.8793 6.01389 10.8801C5.93574 10.8808 5.85984 10.8539 5.79959 10.8041C5.73934 10.7544 5.69861 10.6849 5.68458 10.608C5.67868 10.5699 5.67587 10.5313 5.67616 10.4927C5.6757 9.71419 5.67547 8.93559 5.67547 8.15691V7.28801C5.67547 7.26621 5.67443 7.2443 5.67386 7.22055L5.61805 7.2059C5.57699 7.19541 5.53537 7.18653 5.49489 7.17431C5.06292 7.04446 4.72124 6.79146 4.47332 6.41508C4.24269 6.06533 4.15043 5.67856 4.1818 5.26193C4.1925 5.12015 4.2209 4.98026 4.26633 4.84553C4.27082 4.83203 4.27348 4.81797 4.27786 4.80251C4.2548 4.78879 4.23508 4.77611 4.21443 4.76423L2.67602 3.87757C2.65745 3.86685 2.64004 3.85174 2.61617 3.85036C2.60614 3.85959 2.59634 3.86789 2.58723 3.877C2.44623 4.0187 2.27691 4.12904 2.09034 4.2008C1.86436 4.28972 1.61967 4.32045 1.37873 4.29017C1.20778 4.26951 1.04209 4.2176 0.88991 4.13703C0.613155 3.99116 0.400976 3.77956 0.260292 3.49784C0.183585 3.34403 0.134818 3.17782 0.116263 3.00695C0.113035 2.97777 0.112112 2.94779 0.0942383 2.92254ZM6.01162 4.24935C5.37738 4.24543 4.84694 4.76446 4.8414 5.40584C4.8354 6.03523 5.34325 6.58205 6.00723 6.58378C6.16124 6.58434 6.31384 6.55447 6.45626 6.49586C6.59869 6.43726 6.72812 6.35109 6.83713 6.2423C6.94615 6.13351 7.03259 6.00425 7.09148 5.86195C7.15038 5.71965 7.18057 5.56711 7.18033 5.41311C7.17791 4.76342 6.64412 4.24635 6.01162 4.24935Z" fill="black" fill-opacity="0.85"/>
<path d="M6.01115 5.78811C5.8097 5.7948 5.59717 5.62851 5.59683 5.37482C5.59687 5.32035 5.6077 5.26643 5.6287 5.21617C5.64969 5.16591 5.68043 5.1203 5.71915 5.08198C5.75786 5.04367 5.80378 5.0134 5.85426 4.99292C5.90473 4.97244 5.95876 4.96217 6.01323 4.96269C6.26127 4.9643 6.42513 5.17221 6.42502 5.37425C6.42502 5.61583 6.21907 5.79561 6.01115 5.78811Z" fill="black" fill-opacity="0.85"/>
</svg>
