<svg width="18" height="18" viewBox="0 0 18 18" fill="none" xmlns="http://www.w3.org/2000/svg">
<path d="M2.25 2.25L6 6.75" stroke="black" stroke-width="0.75" stroke-linecap="round" stroke-linejoin="round"/>
<path d="M15.75 2.25L12 6.75" stroke="black" stroke-width="0.75" stroke-linecap="round" stroke-linejoin="round"/>
<path d="M11.625 1.5L9.75 6" stroke="black" stroke-width="0.75" stroke-linecap="round" stroke-linejoin="round"/>
<path d="M6.375 1.5L8.25 6" stroke="black" stroke-width="0.75" stroke-linecap="round" stroke-linejoin="round"/>
<path d="M9 16.5C11.8995 16.5 14.25 14.1495 14.25 11.25C14.25 8.35051 11.8995 6 9 6C6.10051 6 3.75 8.35051 3.75 11.25C3.75 14.1495 6.10051 16.5 9 16.5Z" stroke="black" stroke-width="0.75"/>
<path d="M9 13.875C10.4497 13.875 11.625 12.6997 11.625 11.25C11.625 9.80025 10.4497 8.625 9 8.625C7.55025 8.625 6.375 9.80025 6.375 11.25C6.375 12.6997 7.55025 13.875 9 13.875Z" stroke="black" stroke-width="0.75"/>
</svg>
