<svg width="18" height="18" viewBox="0 0 18 18" fill="none" xmlns="http://www.w3.org/2000/svg">
<path d="M4.875 15.75H13.125L15.375 7.875L11.625 9.75L9 4.5L6.375 9.75L2.625 7.875L4.875 15.75Z" stroke="black" stroke-width="0.75" stroke-linecap="round" stroke-linejoin="round"/>
<path d="M2.625 7.875C3.24632 7.875 3.75 7.37132 3.75 6.75C3.75 6.12868 3.24632 5.625 2.625 5.625C2.00368 5.625 1.5 6.12868 1.5 6.75C1.5 7.37132 2.00368 7.875 2.625 7.875Z" stroke="black" stroke-width="0.75"/>
<path d="M9 4.5C9.62132 4.5 10.125 3.99632 10.125 3.375C10.125 2.75368 9.62132 2.25 9 2.25C8.37868 2.25 7.875 2.75368 7.875 3.375C7.875 3.99632 8.37868 4.5 9 4.5Z" stroke="black" stroke-width="0.75"/>
<path d="M15.375 7.875C15.9963 7.875 16.5 7.37132 16.5 6.75C16.5 6.12868 15.9963 5.625 15.375 5.625C14.7537 5.625 14.25 6.12868 14.25 6.75C14.25 7.37132 14.7537 7.875 15.375 7.875Z" stroke="black" stroke-width="0.75"/>
</svg>
