<?xml version="1.0" encoding="UTF-8"?>
<svg width="18px" height="18px" viewBox="0 0 18 18" version="1.1" xmlns="http://www.w3.org/2000/svg" xmlns:xlink="http://www.w3.org/1999/xlink">
    <title>yingyong</title>
    <defs>
        <linearGradient x1="1.8564885e-13%" y1="0.0258716546%" x2="100%" y2="99.9741283%" id="linearGradient-1">
            <stop stop-color="#96C9FD" offset="0%"></stop>
            <stop stop-color="#3388FF" offset="100%"></stop>
        </linearGradient>
    </defs>
    <g id="及时通-客户端运价" stroke="none" stroke-width="1" fill="none" fill-rule="evenodd">
        <g id="整箱运价-未认证" transform="translate(-26.000000, -160.000000)" fill="url(#linearGradient-1)" fill-rule="nonzero">
            <g id="工具组" transform="translate(0.000000, 51.000000)">
                <g id="工作台备份-4" transform="translate(5.000000, 100.000000)">
                    <g id="yingyong" transform="translate(21.000000, 9.000000)">
                        <path d="M17.3817779,6.21653321 L14.7689222,8.82938889 C13.944464,9.65368506 12.607925,9.65368506 11.7834668,8.82938889 L9.1706111,6.21653321 C8.34631494,5.392075 8.34631494,4.05553601 9.1706111,3.23107781 L11.7834668,0.618222128 C12.607925,-0.206074043 13.944464,-0.206074043 14.7689222,0.618222128 L17.3817779,3.23107781 C18.206074,4.05553601 18.206074,5.392075 17.3817779,6.21653321 L17.3817779,6.21653321 Z M5.80789844,8.68034901 L2.10984603,8.68034901 C0.945471826,8.68034901 0,7.73487716 0,6.57050298 L0,2.87710804 C0,1.70807637 0.945471826,0.76260452 2.10984603,0.76260452 L5.80324095,0.76260452 C6.97227264,0.76260452 7.91774447,1.70807637 7.91774447,2.87245055 L7.91774447,6.56584547 C7.91774447,7.73487716 6.97227262,8.68034901 5.80789844,8.68034901 Z M15.122892,17.9953425 L11.429497,17.9953425 C10.2651229,17.9953425 9.319651,17.0498707 9.319651,15.8854965 L9.319651,12.1921016 C9.319651,11.0277274 10.2651229,10.0822555 11.429497,10.0822555 L15.122892,10.0822555 C16.2872661,10.0822555 17.232738,11.0277274 17.232738,12.1921016 L17.232738,15.8854965 C17.232738,17.0498707 16.2872661,17.9953425 15.122892,17.9953425 L15.122892,17.9953425 Z M5.80789844,17.9953425 L2.10984603,17.9953425 C0.945471826,17.9953425 0,17.0498707 0,15.8854965 L0,12.1921016 C0,11.0230699 0.945471826,10.077598 2.10984603,10.077598 L5.80324095,10.077598 C6.96761513,10.077598 7.91310761,11.0230699 7.91310761,12.1874441 L7.91310761,15.880839 C7.91556462,16.4407819 7.69486287,16.978641 7.29979457,17.3754574 C6.90472628,17.7722737 6.36784683,17.9953425 5.80789844,17.9953425 L5.80789844,17.9953425 Z" id="形状"></path>
                    </g>
                </g>
            </g>
        </g>
    </g>
</svg>