<?xml version="1.0" standalone="no"?><!DOCTYPE svg PUBLIC "-//W3C//DTD SVG 1.1//EN" "http://www.w3.org/Graphics/SVG/1.1/DTD/svg11.dtd"><svg t="1656898743331" class="icon" viewBox="0 0 1024 1024" version="1.1" xmlns="http://www.w3.org/2000/svg" p-id="2121" xmlns:xlink="http://www.w3.org/1999/xlink" width="200" height="200"><defs><style type="text/css">@font-face { font-family: feedback-iconfont; src: url("//at.alicdn.com/t/font_1031158_u69w8yhxdu.woff2?t=1630033759944") format("woff2"), url("//at.alicdn.com/t/font_1031158_u69w8yhxdu.woff?t=1630033759944") format("woff"), url("//at.alicdn.com/t/font_1031158_u69w8yhxdu.ttf?t=1630033759944") format("truetype"); }
</style></defs><path d="M511.53125 137.9375C718.379375 137.9375 886.0625 305.620625 886.0625 512.46875S718.379375 887 511.53125 887 137 719.316875 137 512.46875 304.683125 137.9375 511.53125 137.9375z m0 75C346.1046875 212.9375 212 347.0421875 212 512.46875S346.1046875 812 511.53125 812 811.0625 677.8953125 811.0625 512.46875 676.9578125 212.9375 511.53125 212.9375z" fill="#bfbfbf" p-id="2122"></path><path d="M571.0465625 699.5478125c14.64375 14.6446875 38.3878125 14.6446875 53.0325 0 14.4984375-14.4975 14.64375-37.914375 0.435-52.5909375l-0.435-0.4415625-161.750625-161.750625c-14.64375-14.6446875-38.3878125-14.6446875-53.0325 0-14.4984375 14.4975-14.64375 37.914375-0.435 52.5909375l0.435 0.4415625 161.750625 161.750625z" fill="#bfbfbf" p-id="2123"></path><path d="M623.969375 377.125625c14.6446875-14.64375 14.6446875-38.3878125 0-53.0325-14.4975-14.4984375-37.914375-14.64375-52.5909375-0.435l-0.4415625 0.435-161.53125 161.53125c-14.6446875 14.64375-14.6446875 38.3878125 0 53.0325 14.4975 14.4984375 37.914375 14.64375 52.5909375 0.435l0.4415625-0.435 161.53125-161.53125z" fill="#bfbfbf" p-id="2124"></path></svg>