<?xml version="1.0" encoding="UTF-8"?>
<svg width="588px" height="103px" viewBox="0 0 588 103" version="1.1" xmlns="http://www.w3.org/2000/svg" xmlns:xlink="http://www.w3.org/1999/xlink">
    <title>编组 19</title>
    <g id="页面-1" stroke="none" stroke-width="1" fill="none" fill-rule="evenodd">
        <g id="及时通备份-7" transform="translate(-701.000000, -168.000000)" fill="#FFFFFF" fill-rule="nonzero">
            <g id="编组-14" transform="translate(94.000000, 104.000000)">
                <g id="编组-19" transform="translate(607.714000, 64.000000)">
                    <g id="LOGO" transform="translate(193.286000, 0.000000)">
                        <path d="M122.662948,1.08121485 C123.047126,1.14558798 123.405217,1.31693537 123.695899,1.5754845 L123.427332,2.31688897 C122.384239,3.7589555 121.556168,5.34402983 120.968908,7.0227479 L118.427848,13.9528202 L125.885756,13.9528202 L125.881,13.963 L136.752402,13.9631175 L126.743105,39.840193 C125.968392,41.9717308 124.191716,48.4487227 124.191716,48.4487227 L166.325793,48.4796145 L164.933,49.951 L108.921,49.951 L108.397893,48.4796145 L116.248321,48.4796145 L126.42289,21.1712165 L118.727404,21.1712165 L118.731,21.16 L115.814482,21.1609192 L104.8652,51.1157193 C103.742726,55.5778758 98.3989257,57.9805755 88.8337982,58.3238183 L91.3645285,50.3640175 C96.5292842,50.3640175 97.3763041,49.6535049 97.758496,48.170696 L107.61285,21.1815138 L90.507179,21.1815138 L79.6508625,50.889179 L71.9553765,50.889179 L73.2155769,47.4292915 L65.5200909,47.4292915 L64.0739593,51.393746 L64.047,51.393 L60.9751059,59.7448435 C52.6495197,58.2723319 43.6731743,54.0710399 39.7376304,51.2598813 C33.170364,55.0057292 26.1753424,57.9512743 18.9030059,60.0331675 L15.0397686,53.5973648 C20.9275901,52.444069 28.4681335,49.4784511 35.3992356,45.8229152 C33.0319194,41.6088834 32.0391244,36.7647639 32.55862,31.9627705 C28.0446235,40.2005979 19.3368454,49.5505321 7.36494164,58.3032237 L1.34283648,53.8547969 C16.258651,44.2851874 27.1390697,30.5829344 33.9840926,12.748038 L1.88535386e-14,12.7583353 L0.45,11.522 L35.1675216,11.5222545 L35.1675216,10.8415417 L0.698,10.841 L1.215,9.418 L36.530859,9.41823322 L36.530859,8.73752045 L1.463,8.737 L1.981,7.314 L37.4500788,7.31421194 L37.4500788,6.63349917 L2.229,6.633 L2.6236959,5.55023624 L68.1231278,5.55023624 C64.7488207,11.1588238 61.0956168,16.853222 57.1635162,22.6334309 L63.8776986,22.6334309 C59.5161139,31.2762849 53.6908455,39.1038436 46.6584031,45.7714287 C49.0039416,47.7347161 53.038077,48.9488545 57.3761982,49.9307064 L73.3705196,6.08569502 L95.9818201,6.08569502 L93.0792274,14.0043067 L110.226216,14.0043067 L114.967462,1.08121485 L122.662948,1.08121485 Z M166.098544,54.1637154 C165.019478,54.1637154 164.462983,53.6880737 164.42906,52.7367901 L165.694885,52.7374838 C165.716117,53.0898207 165.88478,53.2472571 166.253486,53.2472571 C166.614471,53.2472571 166.829118,53.0711937 166.992655,52.7366464 L168.300149,52.736722 C167.960945,53.6136055 167.087196,54.2121281 166.098544,54.1637154 Z M171.800434,54.1225263 C170.500914,54.1225263 169.768282,53.6381378 169.607376,52.7368781 L170.950282,52.7370275 C170.95775,52.7630433 170.96568,52.7889619 170.974073,52.8147712 C171.19198,53.1341562 171.570859,53.3051136 171.955377,53.2575544 C172.3729,53.2898399 172.78163,53.1260966 173.060634,52.8147712 L173.111,52.736 L174.454493,52.7371093 C173.930395,53.6515158 172.907533,54.2185434 171.800434,54.1225263 Z M162.3,52.736 L161.057742,54.0504453 L160.923516,54.0508768 C159.152115,54.0565411 140.214837,54.1161797 126.037436,54.1230303 L121.304524,54.123103 C114.920359,54.1196431 110.365665,54.0998723 110.381159,54.0504453 L109.913,52.736 L162.3,52.736 Z M188.627208,54.1225263 C187.391782,54.1503584 186.627992,53.6610091 186.358147,52.7370798 L187.757704,52.7368887 C187.946468,53.0844121 188.287536,53.2575544 188.782151,53.2575544 C189.276365,53.2575544 189.672569,53.0846924 189.9782,52.7377326 L191.433435,52.7370948 C190.849107,53.6631743 189.875356,54.0944076 188.627208,54.1225263 Z M183.819,52.736 L183.576077,54.1019317 L182.295217,54.1019317 L182.535,52.736 L183.819,52.736 Z M177.543642,54.0916345 C176.14624,54.1260306 175.562814,53.6505865 175.55275,52.7372611 L176.957682,52.7372904 C177.054948,53.0292142 177.319132,53.1751761 177.750232,53.1751761 C178.323001,53.1751761 178.715976,53.0190691 178.924809,52.7371816 L180.239582,52.7371478 C179.842683,53.6057186 178.942027,54.0572142 177.543642,54.0916345 Z M196.803,52.736 L196.147092,54.0607426 L195.114141,54.0607426 L194.939,52.736 L196.803,52.736 Z M199.193,52.736 L198.967049,54.0298507 L197.779155,54.0298507 L198.006,52.736 L199.193,52.736 Z M193.781,52.736 L193.554385,54.0298507 L192.366491,54.0298507 L192.592,52.736 L193.781,52.736 Z M164.289,50.632 L162.943,52.055 L109.841225,52.0556056 L109.841,52.534 L109.164,50.632 L164.289,50.632 Z M168.704,50.632 L168.452,52.055 L167.194,52.055 L167.468,50.632 L168.704,50.632 Z M171.107,50.632 L170.974073,51.3731514 C170.901869,51.5951922 170.863883,51.8253191 170.860114,52.055868 L169.586521,52.0563688 C169.592495,51.9913819 169.600514,51.9249621 169.610577,51.8571238 L169.825,50.632 L171.107,50.632 Z M174.99,50.632 L174.775333,51.8571238 C174.763082,51.9244841 174.748466,51.9908692 174.731581,52.0562044 L173.445047,52.0554754 C173.516972,51.8354166 173.561598,51.6062855 173.57711,51.3731514 L173.708,50.632 L174.99,50.632 Z M180.439445,52.0557919 L179.049742,52.0547905 C178.934365,51.8141414 178.587834,51.6811412 178.039459,51.5790971 C177.967815,51.5692281 177.89813,51.5483879 177.832869,51.5173134 C177.021563,51.3250638 176.505663,51.030385 176.2769,50.6332771 L179.041525,50.6322885 C180.075462,50.9164108 180.541436,51.3909119 180.439445,52.0557919 Z M184.195,50.632 L183.941,52.055 L182.655,52.055 L182.906,50.632 L184.195,50.632 Z M187.656234,51.1157193 C187.594102,51.4744412 187.5709,51.7878877 187.586789,52.0562211 L186.251569,52.0553131 C186.239102,51.7691333 186.259585,51.455468 186.313397,51.1157193 C186.347945,50.9477207 186.387166,50.7865742 186.431073,50.6322799 L187.765086,50.6309538 C187.723305,50.782443 187.686986,50.9440431 187.656234,51.1157193 Z M191.984299,51.1157193 C191.935773,51.4612522 191.860496,51.7743202 191.760175,52.056285 L190.382013,52.0564197 C190.490569,51.7880424 190.576726,51.4745297 190.641463,51.1157193 C190.672359,50.9444691 190.694236,50.783095 190.707129,50.6316851 L192.03505,50.6315799 C192.02487,50.7860868 192.007928,50.9474666 191.984299,51.1157193 Z M194.151,50.632 L193.901,52.055 L192.711,52.055 L192.96,50.632 L194.151,50.632 Z M195.748,50.632 L195.909,52.055 L194.849,52.055 L194.661,50.632 L195.748,50.632 Z M197.845,50.632 L197.14,52.055 L196.127,52.055 L196.81,50.632 L197.845,50.632 Z M199.561,50.632 L199.312,52.055 L198.126,52.055 L198.376,50.632 L199.561,50.632 Z M169.145749,48.1501014 L168.825,49.951 L167.599,49.951 L167.87522,48.5208036 L169.145749,48.1501014 Z M171.552526,48.1501014 L171.229,49.951 L169.945,49.951 L170.261337,48.1501014 L171.552526,48.1501014 Z M175.426092,48.1501014 L175.11,49.951 L173.828,49.951 L174.145233,48.1501014 L175.426092,48.1501014 Z M178.969115,47.9338584 C180.243088,47.9956421 180.811211,48.6031819 180.673484,49.7564778 L179.454602,49.838856 C179.537238,49.2416135 179.268671,48.9429923 178.6489,48.9429923 C178.0188,48.9429923 177.615949,49.2416135 177.553972,49.7152886 C177.542661,49.8017343 177.541671,49.8806348 177.552196,49.9524908 L176.149083,49.9520849 C176.151913,49.9283027 176.155382,49.9042895 176.159488,49.8800452 C176.438384,48.6752629 177.37837,48.0162367 178.969115,47.9338584 Z M186.385704,48.1501014 L186.210102,49.1798298 L184.454085,49.1798298 L184.316,49.951 L183.026,49.951 L183.162896,49.1798298 L181.406879,49.1798298 L181.582481,48.1501014 L186.385704,48.1501014 Z M189.711807,48.026534 C191.171286,48.026534 191.922815,48.6681169 192.032436,49.9512827 L190.695908,49.9513591 C190.597794,49.2844793 190.212517,48.9429923 189.546534,48.9429923 C188.879221,48.9429923 188.364763,49.281084 188.022652,49.950791 L186.675097,49.9505011 C187.243772,48.6678564 188.252624,48.026534 189.711807,48.026534 Z M195.465344,48.1192096 L195.671,49.951 L194.571,49.951 L194.442723,48.9738842 L194.27,49.951 L193.079,49.951 L193.399442,48.1192096 L195.465344,48.1192096 Z M200,48.1192096 L199.68,49.951 L198.495,49.951 L198.667493,48.9738842 L198.183,49.951 L197.137,49.951 L198.016734,48.1192096 L200,48.1192096 Z M180.301622,0 C175.427575,4.48521115 170.321247,8.71288724 165.003615,12.6656597 C165.379855,13.1056176 165.848984,13.4572456 166.37744,13.6953881 L174.878628,13.6953881 L165.024274,40.6845703 C164.459667,42.4066665 163.135231,43.7762918 161.429604,44.4018899 C159.797542,45.2256727 156.884619,45.7199423 152.690838,45.8846989 L154.591468,39.7063283 C159.017765,39.9437715 158.171074,37.4151172 158.09786,37.2164262 L158.093172,37.2040882 L158.093172,37.2040882 L152.133044,37.2040882 L149.364735,44.587241 L142.134077,44.587241 L144.840409,37.1628991 L139.128189,37.1628991 L136.504493,44.3709981 L129.056916,44.3709981 L140.264435,13.6644963 L153.186654,13.6644963 L148.538374,11.4402829 L154.312571,7.18750444 C155.642573,7.64887786 156.928549,8.22782901 158.155149,8.91744821 C158.829681,9.10738045 159.486359,9.35545045 160.117756,9.65885268 L164.249561,6.44609997 L142.671212,6.44609997 L145.02634,0 L180.301622,0 Z M79.8161347,29.3060711 L72.368557,29.3060711 L68.0301622,41.1994345 L75.4777399,41.1994345 L79.8161347,29.3060711 Z M55.0666253,12.7583353 L43.1463692,12.7583353 L40.9771718,18.6998683 C39.8684709,29.4365034 40.3023104,36.8677102 42.2786902,40.9934888 C45.6206183,37.6216715 48.5694788,33.884054 51.0691044,29.8518272 L43.1153806,29.8518272 C43.8040147,28.856423 44.9264883,27.3701817 46.4828014,25.3931031 C50.4562201,19.9424073 53.3174947,15.730818 55.0666253,12.7583353 Z M99.3285818,24.0544561 L99.514513,37.2246828 C99.514513,37.2246828 97.6337657,37.9150716 95.639327,38.6315745 L95.093898,38.8271327 C93.0024598,39.5754283 90.9623368,40.2862626 90.992666,40.2005979 L90.91003,26.8141283 L99.3285818,24.0544561 Z M148.032228,28.4822884 L142.320008,28.4822884 L141.049478,31.9524732 L146.761698,31.9524732 L148.032228,28.4822884 Z M161.460593,28.4822884 L155.262886,28.4822884 L154.002686,31.9524732 L160.200393,31.9524732 L161.460593,28.4822884 Z M86.0345006,12.9642809 L78.3390146,12.9642809 L74.6823675,23.1174033 L82.326206,23.1174033 L86.0345006,12.9642809 Z M151.37899,19.3177054 L145.65644,19.3177054 L144.303274,23.035025 L150.015494,23.035025 L151.37899,19.3177054 Z M164.807355,19.3177054 L158.609648,19.3177054 L157.256482,23.035025 L163.454189,23.035025 L164.807355,19.3177054 Z M136.37021,0.442783225 L138.198533,11.8727688 L129.573391,12.0478226 L128.034294,3.27453641 L136.37021,0.442783225 Z" id="形状"></path>
                    </g>
                    <g id="专注国际物流行业，帮助货代企业快速搭建数" transform="translate(0.000000, 88.394000)">
                        <path d="M1.13686838e-13,4.438 L1.13686838e-13,5.418 L3.724,5.418 C3.43,6.384 3.108,7.308 2.772,8.204 L9.688,8.204 C8.946,9.128 7.924,10.024 6.636,10.864 C5.67,10.528 4.662,10.206 3.612,9.926 L3.08,10.71 C5.306,11.312 7.476,12.124 9.576,13.16 L10.136,12.278 C9.366,11.914 8.554,11.564 7.714,11.256 C9.156,10.22 10.206,9.17 10.878,8.134 L10.878,7.266 L4.214,7.266 C4.41,6.692 4.62,6.076 4.816,5.418 L12.572,5.418 L12.572,4.438 L5.082,4.438 C5.222,3.892 5.362,3.318 5.502,2.702 L11.746,2.702 L11.746,1.764 L5.712,1.764 C5.824,1.26 5.922,0.714 6.034,0.154 L4.998,0.07 C4.886,0.63 4.774,1.19 4.648,1.764 L0.952,1.764 L0.952,2.702 L4.438,2.702 C4.298,3.29 4.158,3.864 4.004,4.438 L1.13686838e-13,4.438 Z" id="路径"></path>
                        <path d="M15.12,0.378 L14.392,1.078 C15.428,1.806 16.254,2.506 16.842,3.164 L17.556,2.45 C16.898,1.764 16.086,1.078 15.12,0.378 Z M14.77,3.682 L14.056,4.368 C15.036,5.124 15.806,5.824 16.366,6.468 L17.08,5.754 C16.464,5.054 15.694,4.368 14.77,3.682 Z M16.534,7.546 C15.904,9.226 15.162,10.864 14.322,12.46 L15.33,12.894 C16.1,11.34 16.8,9.674 17.43,7.91 L16.534,7.546 Z M18.102,2.534 L18.102,3.528 L21.742,3.528 L21.742,6.888 L18.494,6.888 L18.494,7.854 L21.742,7.854 L21.742,11.536 L17.752,11.536 L17.752,12.53 L26.642,12.53 L26.642,11.536 L22.764,11.536 L22.764,7.854 L25.998,7.854 L25.998,6.888 L22.764,6.888 L22.764,3.528 L26.376,3.528 L26.376,2.534 L22.204,2.534 L22.778,2.31 C22.568,1.638 22.26,0.91 21.868,0.098 L20.916,0.364 C21.28,1.064 21.588,1.778 21.868,2.534 L18.102,2.534 Z" id="形状"></path>
                        <path d="M30.814,3.038 L30.814,3.948 L33.768,3.948 L33.768,5.964 L31.262,5.964 L31.262,6.86 L33.768,6.86 L33.768,9.086 L30.436,9.086 L30.436,10.01 L38.15,10.01 L38.15,9.086 L34.804,9.086 L34.804,6.86 L37.31,6.86 L37.31,5.964 L34.804,5.964 L34.804,3.948 L37.744,3.948 L37.744,3.038 L30.814,3.038 Z M40.04,0.812 L28.532,0.812 L28.532,12.978 L29.554,12.978 L29.554,12.376 L39.018,12.376 L39.018,12.978 L40.04,12.978 L40.04,0.812 Z M29.554,11.424 L29.554,1.764 L39.018,1.764 L39.018,11.424 L29.554,11.424 Z M36.456,7.154 L35.658,7.42 C35.994,7.882 36.302,8.428 36.582,9.058 L37.366,8.694 C37.114,8.148 36.806,7.63 36.456,7.154 Z" id="形状"></path>
                        <path d="M48.216,6.552 C47.824,8.288 47.208,9.87 46.34,11.298 L47.18,11.83 C48.02,10.402 48.678,8.708 49.14,6.748 L48.216,6.552 Z M53.088,6.37 L52.206,6.664 C52.794,8.162 53.326,9.884 53.802,11.844 L54.698,11.438 C54.25,9.646 53.704,7.952 53.088,6.37 Z M50.008,12.936 C50.82,12.936 51.24,12.516 51.24,11.676 L51.24,5.348 L54.67,5.348 L54.67,4.368 L46.76,4.368 L46.76,5.348 L50.232,5.348 L50.232,11.424 C50.232,11.844 50.036,12.054 49.672,12.054 C49.266,12.054 48.846,12.026 48.426,11.984 L48.622,12.936 L50.008,12.936 Z M47.614,1.008 L47.614,1.974 L53.942,1.974 L53.942,1.008 L47.614,1.008 Z M42.476,0.756 L42.476,13.02 L43.456,13.02 L43.456,1.708 L45.696,1.708 C45.332,2.87 44.828,4.172 44.184,5.628 C45.052,6.804 45.486,7.854 45.486,8.806 C45.486,9.128 45.402,9.352 45.248,9.478 C45.108,9.618 44.8,9.702 44.352,9.73 C44.212,9.73 44.03,9.702 43.82,9.674 L44.142,10.654 C45.052,10.64 45.696,10.472 46.06,10.136 C46.326,9.856 46.466,9.422 46.466,8.806 C46.41,7.812 45.976,6.706 45.178,5.474 C45.752,4.116 46.256,2.814 46.676,1.554 L46.676,0.756 L42.476,0.756 Z" id="形状"></path>
                        <path d="M62.314,0.154 C61.922,2.254 61.278,3.864 60.382,4.984 L61.124,5.614 C61.6,5.026 62.02,4.298 62.398,3.402 L63.364,3.402 C62.832,6.09 61.852,8.064 60.41,9.296 L61.068,10.052 C62.636,8.666 63.7,6.454 64.26,3.402 L65.352,3.402 C65.086,5.53 64.68,7.252 64.134,8.554 C63.546,9.842 62.678,11.018 61.502,12.082 L62.118,12.88 C63.392,11.718 64.344,10.402 64.988,8.946 C65.534,7.588 65.954,5.74 66.262,3.402 L67.214,3.402 C67.186,7.462 67.13,9.898 67.032,10.682 C66.906,11.578 66.416,12.026 65.562,12.026 C65.24,12.026 64.862,11.998 64.414,11.97 L64.652,12.88 C65.156,12.908 65.506,12.922 65.702,12.922 C67.06,12.922 67.816,12.306 67.97,11.074 C68.11,9.982 68.18,7.098 68.18,2.422 L62.748,2.422 C62.944,1.806 63.112,1.134 63.266,0.406 L62.314,0.154 Z M57.246,4.074 L58.394,4.074 L58.394,7.854 C57.61,8.162 56.798,8.414 55.958,8.61 L56.196,9.59 C56.952,9.352 57.68,9.086 58.394,8.806 L58.394,13.006 L59.374,13.006 L59.374,8.386 C59.752,8.204 60.13,8.022 60.494,7.826 L60.494,6.874 C60.13,7.07 59.766,7.252 59.374,7.434 L59.374,4.074 L60.55,4.074 L60.55,3.094 L59.374,3.094 L59.374,0.182 L58.394,0.182 L58.394,3.094 L57.414,3.094 C57.498,2.492 57.554,1.876 57.582,1.26 L56.7,1.19 C56.63,2.828 56.336,4.382 55.804,5.866 L56.686,6.118 C56.91,5.46 57.092,4.774 57.246,4.074 Z" id="形状"></path>
                        <path d="M74.13,6.02 C76.538,5.88 78.778,5.698 80.836,5.46 C81.06,5.824 81.284,6.174 81.48,6.524 L82.306,5.936 C81.802,5.068 81.088,4.074 80.136,2.926 L79.31,3.416 C79.646,3.836 79.954,4.242 80.262,4.648 C78.666,4.844 77.07,4.984 75.46,5.068 C75.964,4.522 76.538,3.668 77.196,2.506 L82.306,2.506 L82.306,1.596 L78.624,1.596 C78.428,1.008 78.232,0.476 78.008,0 L76.986,0.168 C77.21,0.602 77.42,1.078 77.616,1.596 L73.71,1.596 L73.71,2.506 L76.16,2.506 C75.32,3.892 74.648,4.746 74.116,5.082 C74.06,5.11 73.99,5.138 73.906,5.166 L74.13,6.02 Z M71.12,0.364 L70.392,1.064 C71.316,1.708 72.03,2.31 72.562,2.884 L73.276,2.17 C72.688,1.568 71.974,0.966 71.12,0.364 Z M70.784,3.71 L70.07,4.41 C71.008,5.138 71.75,5.824 72.282,6.468 L72.996,5.74 C72.408,5.068 71.666,4.382 70.784,3.71 Z M72.212,7.434 C71.68,9.142 71.064,10.794 70.336,12.418 L71.274,12.824 C71.946,11.256 72.548,9.576 73.108,7.784 L72.212,7.434 Z M76.986,6.664 L76.986,12.726 L78.008,12.726 L78.008,6.664 L76.986,6.664 Z M74.718,6.65 C74.662,8.302 74.508,9.506 74.242,10.248 C73.962,11.004 73.486,11.648 72.814,12.194 L73.458,12.992 C74.242,12.348 74.816,11.578 75.152,10.682 C75.46,9.828 75.642,8.484 75.698,6.65 L74.718,6.65 Z M81.382,12.866 C81.942,12.838 82.292,12.684 82.46,12.432 C82.628,12.152 82.712,11.396 82.712,10.164 L81.83,9.828 C81.83,10.57 81.802,11.116 81.746,11.452 C81.718,11.76 81.578,11.914 81.326,11.942 L80.71,11.942 C80.528,11.914 80.444,11.802 80.444,11.592 L80.444,6.664 L79.478,6.664 L79.478,11.774 C79.478,12.502 79.87,12.866 80.682,12.866 L81.382,12.866 Z" id="形状"></path>
                        <path d="M89.236,1.064 L89.236,2.058 L95.942,2.058 L95.942,1.064 L89.236,1.064 Z M88.858,4.62 L88.858,5.614 L93.268,5.614 L93.268,11.48 C93.268,11.844 93.03,12.026 92.582,12.026 C91.966,12.026 91.336,11.998 90.664,11.956 L90.874,12.95 L92.932,12.95 C93.828,12.95 94.29,12.544 94.29,11.732 L94.29,5.614 L96.558,5.614 L96.558,4.62 L88.858,4.62 Z M87.024,0.294 C86.366,1.61 85.316,2.786 83.86,3.822 L84.154,4.83 C85.89,3.64 87.15,2.268 87.934,0.714 L87.024,0.294 Z M87.682,3.486 C86.898,5.04 85.652,6.412 83.944,7.616 L84.238,8.624 C84.91,8.162 85.512,7.672 86.072,7.168 L86.072,13.006 L87.066,13.006 L87.066,6.146 C87.682,5.446 88.186,4.69 88.592,3.906 L87.682,3.486 Z" id="形状"></path>
                        <path d="M102.256,0.308 L102.256,11.438 L98.084,11.438 L98.084,12.418 L110.488,12.418 L110.488,11.438 L106.288,11.438 L106.288,0.308 L105.266,0.308 L105.266,11.438 L103.278,11.438 L103.278,0.308 L102.256,0.308 Z M109.214,2.856 C108.612,5.418 107.898,7.532 107.086,9.184 L107.996,9.506 C108.85,7.672 109.55,5.544 110.11,3.108 L109.214,2.856 Z M99.288,2.828 L98.434,3.108 C99.19,5.18 99.82,7.336 100.324,9.576 L101.248,9.338 C100.674,6.888 100.016,4.718 99.288,2.828 Z" id="形状"></path>
                        <path d="M113.89,9.94 C113.61,9.94 113.4,10.01 113.232,10.178 C113.064,10.332 112.98,10.542 112.98,10.808 C112.98,11.046 113.064,11.256 113.232,11.424 C113.4,11.592 113.596,11.676 113.834,11.676 C113.974,11.676 114.086,11.648 114.142,11.62 C114.142,11.956 114.044,12.264 113.834,12.558 C113.61,12.838 113.316,13.048 112.952,13.174 L112.952,13.86 C113.54,13.706 114.03,13.398 114.394,12.95 C114.758,12.474 114.94,11.928 114.94,11.312 C114.94,10.906 114.842,10.584 114.66,10.332 C114.464,10.066 114.198,9.94 113.89,9.94 Z" id="路径"></path>
                        <path d="M126.448,1.05 L126.448,1.932 L129.304,1.932 L129.304,2.94 L126.798,2.94 L126.798,3.766 L129.276,3.766 C129.248,4.102 129.192,4.438 129.122,4.76 L126.154,4.76 L126.154,5.642 L128.8,5.642 C128.744,5.726 128.702,5.796 128.66,5.88 C128.226,6.482 127.456,6.958 126.364,7.322 L126.882,8.134 C128.058,7.742 128.912,7.182 129.444,6.482 C129.612,6.23 129.766,5.95 129.892,5.642 L132.678,5.642 L132.678,4.76 L130.144,4.76 C130.214,4.452 130.256,4.13 130.284,3.766 L132.342,3.766 L132.342,2.94 L130.298,2.94 L130.298,1.932 L132.678,1.932 L132.678,1.05 L130.298,1.05 L130.298,0.196 L129.304,0.196 L129.304,1.05 L126.448,1.05 Z M131.908,7.014 L131.908,8.288 L127.638,8.288 L127.638,12.278 L128.646,12.278 L128.646,9.226 L131.908,9.226 L131.908,13.132 L132.916,13.132 L132.916,9.226 L136.234,9.226 L136.234,10.864 C136.234,11.13 136.066,11.27 135.744,11.27 L134.624,11.242 L134.876,12.18 L136.066,12.18 C136.836,12.18 137.228,11.816 137.228,11.088 L137.228,8.288 L132.916,8.288 L132.916,7.014 L131.908,7.014 Z M133.532,0.728 L133.532,7.378 L134.54,7.378 L134.54,1.666 L136.948,1.666 C136.612,2.338 136.192,2.968 135.702,3.556 C136.654,4.382 137.144,4.984 137.144,5.362 C137.144,5.782 136.752,5.992 135.968,6.006 C135.744,6.006 135.492,5.978 135.184,5.95 L135.548,6.902 C136.164,6.902 136.654,6.846 137.018,6.748 C137.774,6.58 138.166,6.118 138.18,5.362 C138.18,4.83 137.732,4.228 136.85,3.556 C137.326,2.884 137.746,2.17 138.096,1.428 L138.096,0.728 L133.532,0.728 Z" id="形状"></path>
                        <path d="M145.53,1.008 L140.854,1.008 L140.854,10.654 C140.518,10.71 140.182,10.78 139.846,10.85 L140.126,11.83 C142.534,11.326 144.648,10.78 146.468,10.192 L146.468,9.24 C146.16,9.338 145.852,9.436 145.53,9.534 L145.53,1.008 Z M141.848,10.444 L141.848,7.868 L144.55,7.868 L144.55,9.8 C143.696,10.024 142.8,10.234 141.848,10.444 Z M141.848,6.958 L141.848,4.844 L144.55,4.844 L144.55,6.958 L141.848,6.958 Z M141.848,3.92 L141.848,1.932 L144.55,1.932 L144.55,3.92 L141.848,3.92 Z M148.078,0.238 L148.078,3.038 L146.342,3.038 L146.342,4.018 L148.078,4.018 L148.078,4.214 C148.05,7.98 147.14,10.71 145.348,12.404 L146.104,13.062 C148.05,11.2 149.044,8.246 149.086,4.214 L149.086,4.018 L151.186,4.018 C151.158,7.77 151.102,10.024 151.018,10.752 C150.906,11.564 150.472,11.984 149.73,11.984 C149.366,11.984 148.946,11.956 148.456,11.928 L148.694,12.824 C149.254,12.852 149.646,12.866 149.87,12.866 C151.13,12.866 151.83,12.278 151.97,11.13 C152.11,10.094 152.18,7.406 152.18,3.038 L149.086,3.038 L149.086,0.238 L148.078,0.238 Z" id="形状"></path>
                        <path d="M164.598,5.39 C165.13,5.39 165.508,5.292 165.76,5.124 C166.04,4.914 166.236,4.326 166.334,3.36 L165.41,3.066 C165.354,3.766 165.242,4.2 165.074,4.34 C164.948,4.452 164.724,4.522 164.416,4.522 L161.826,4.522 C161.434,4.522 161.252,4.354 161.252,4.032 L161.252,3.318 C163.016,2.702 164.528,1.96 165.816,1.12 L165.172,0.448 C164.15,1.148 162.848,1.778 161.252,2.366 L161.252,0.238 L160.272,0.238 L160.272,2.688 C159.558,2.912 158.788,3.136 157.976,3.346 L158.522,4.144 C159.11,3.976 159.698,3.808 160.272,3.64 L160.272,4.228 C160.272,4.998 160.692,5.39 161.56,5.39 L164.598,5.39 Z M164.836,6.188 L156.044,6.188 L156.044,10.556 L157.066,10.556 L157.066,7.112 L163.8,7.112 L163.8,10.36 L164.836,10.36 L164.836,6.188 Z M161.322,10.374 L160.818,11.144 C162.484,11.62 164.108,12.264 165.69,13.09 L166.25,12.236 C164.766,11.508 163.128,10.878 161.322,10.374 Z M159.95,7.728 C159.838,9.226 159.46,10.29 158.816,10.92 C158.088,11.592 156.604,11.984 154.35,12.096 L154.756,13.006 C157.29,12.796 158.914,12.292 159.642,11.508 C160.3,10.864 160.734,9.632 160.93,7.812 L159.95,7.728 Z M156.212,2.968 L156.212,5.572 L157.192,5.572 L157.192,2.184 C157.766,1.666 158.256,1.106 158.648,0.504 L157.822,0.098 C157.038,1.218 155.778,2.226 154.056,3.108 L154.364,4.088 C155.036,3.738 155.652,3.36 156.212,2.968 Z" id="形状"></path>
                        <path d="M180.04,3.514 L175.49,4.088 C175.406,2.954 175.364,1.638 175.364,0.14 L174.328,0.14 C174.342,1.68 174.398,3.038 174.496,4.214 L171.388,4.62 L171.542,5.586 L174.58,5.194 C174.678,6.23 174.818,7.084 175,7.784 C175.392,9.352 175.98,10.626 176.778,11.606 C177.506,12.488 178.22,12.936 178.906,12.936 C179.284,12.922 179.606,12.712 179.858,12.306 C180.166,11.746 180.404,10.892 180.586,9.744 L179.704,9.24 C179.508,11.004 179.228,11.9 178.85,11.914 C178.374,11.9 177.856,11.522 177.31,10.766 C176.708,9.954 176.246,8.834 175.91,7.378 C175.77,6.734 175.658,5.964 175.574,5.068 L180.194,4.48 L180.04,3.514 Z M169.638,5.152 L169.638,13.034 L170.674,13.034 L170.674,3.57 C171.22,2.632 171.668,1.624 172.032,0.56 L171.094,0.112 C170.394,2.296 169.288,4.242 167.748,5.936 L168.07,6.986 C168.63,6.398 169.162,5.796 169.638,5.152 Z M176.89,0.238 L176.246,0.868 C177.142,1.638 177.856,2.366 178.36,3.052 L179.06,2.366 C178.472,1.666 177.744,0.952 176.89,0.238 Z" id="形状"></path>
                        <path d="M187.922,0.21 C186.27,2.058 184.212,3.612 181.748,4.844 L182.28,5.81 C184.772,4.494 186.774,2.926 188.286,1.106 C189.938,3.038 191.912,4.606 194.236,5.796 L194.782,4.83 C192.472,3.71 190.428,2.17 188.65,0.21 L187.922,0.21 Z M188.174,3.906 L188.174,11.466 L185.486,11.466 L185.486,5.922 L184.492,5.922 L184.492,11.466 L182.378,11.466 L182.378,12.446 L194.026,12.446 L194.026,11.466 L189.196,11.466 L189.196,8.022 L193.018,8.022 L193.018,7.056 L189.196,7.056 L189.196,3.906 L188.174,3.906 Z" id="形状"></path>
                        <path d="M200.256,0.308 L200.256,11.438 L196.084,11.438 L196.084,12.418 L208.488,12.418 L208.488,11.438 L204.288,11.438 L204.288,0.308 L203.266,0.308 L203.266,11.438 L201.278,11.438 L201.278,0.308 L200.256,0.308 Z M207.214,2.856 C206.612,5.418 205.898,7.532 205.086,9.184 L205.996,9.506 C206.85,7.672 207.55,5.544 208.11,3.108 L207.214,2.856 Z M197.288,2.828 L196.434,3.108 C197.19,5.18 197.82,7.336 198.324,9.576 L199.248,9.338 C198.674,6.888 198.016,4.718 197.288,2.828 Z" id="形状"></path>
                        <path d="M214.914,2.31 L214.914,3.248 L217.406,3.248 L217.406,4.466 C217.406,5.194 217.35,5.894 217.252,6.538 L214.34,6.538 L214.34,7.518 L217.056,7.518 C216.524,9.632 215.348,11.158 213.556,12.11 L214.172,12.936 C216.034,11.872 217.28,10.234 217.91,7.994 C218.792,9.982 220.192,11.62 222.096,12.922 L222.782,12.138 C220.892,10.962 219.506,9.422 218.638,7.518 L222.46,7.518 L222.46,6.538 L221.368,6.538 L221.368,2.31 L218.386,2.31 L218.386,0.196 L217.406,0.196 L217.406,2.31 L214.914,2.31 Z M218.386,3.248 L220.388,3.248 L220.388,6.538 L218.218,6.538 C218.33,5.824 218.386,5.068 218.386,4.256 L218.386,3.248 Z M210.35,2.87 C210.308,4.214 210.126,5.488 209.818,6.692 L210.644,6.93 C210.938,5.67 211.106,4.326 211.148,2.926 L210.35,2.87 Z M213.878,2.562 L213.122,2.8 C213.514,3.78 213.836,4.788 214.088,5.838 L214.914,5.642 C214.606,4.48 214.27,3.458 213.878,2.562 Z M211.848,0.21 L211.848,12.95 L212.842,12.95 L212.842,0.21 L211.848,0.21 Z" id="形状"></path>
                        <path d="M228.242,1.316 L228.242,2.24 L231.812,2.24 L231.812,3.43 L228.76,3.43 L228.76,7 L231.154,7 C230.496,8.078 229.404,9.016 227.864,9.8 L228.494,10.598 C229.992,9.716 231.098,8.652 231.812,7.406 L231.812,11.284 L232.75,11.284 L232.75,7 L235.802,7 L235.802,3.43 L232.75,3.43 L232.75,2.24 L236.264,2.24 L236.264,1.316 L232.75,1.316 L232.75,0.182 L231.812,0.182 L231.812,1.316 L228.242,1.316 Z M234.878,6.104 L232.75,6.104 L232.75,4.312 L234.878,4.312 L234.878,6.104 Z M231.812,6.104 L229.698,6.104 L229.698,4.312 L231.812,4.312 L231.812,6.104 Z M233.856,7.42 L233.198,8.036 C234.262,8.904 235.088,9.716 235.704,10.5 L236.376,9.828 C235.69,9.016 234.85,8.218 233.856,7.42 Z M225.05,0.392 L224.364,1.05 C225.386,1.834 226.184,2.576 226.772,3.276 L227.486,2.576 C226.828,1.848 226.016,1.12 225.05,0.392 Z M233.212,12.754 L236.432,12.754 L236.684,11.746 C236.32,11.774 235.788,11.788 235.102,11.802 C234.416,11.816 233.744,11.83 233.072,11.83 C231.98,11.83 231.056,11.816 230.314,11.802 C229.474,11.774 228.844,11.662 228.41,11.466 C228.018,11.284 227.654,10.99 227.318,10.584 C227.192,10.444 227.08,10.346 226.968,10.262 L226.968,5.026 L224.042,5.026 L224.042,5.95 L226.03,5.95 L226.03,10.206 C225.47,10.458 224.812,11.172 224.084,12.348 L224.84,13.034 C225.596,11.746 226.142,11.102 226.478,11.102 C226.646,11.102 226.828,11.214 227.024,11.452 C227.458,11.956 227.948,12.306 228.508,12.474 C229.068,12.628 229.81,12.712 230.706,12.726 C231.602,12.74 232.442,12.754 233.212,12.754 Z" id="形状"></path>
                        <path d="M239.554,12.852 C240.408,12.852 240.842,12.39 240.842,11.494 L240.842,7.434 C241.29,7.238 241.724,7.028 242.144,6.804 L242.144,5.824 C241.724,6.048 241.29,6.272 240.842,6.482 L240.842,3.71 L242.144,3.71 L242.144,2.744 L240.842,2.744 L240.842,0.196 L239.862,0.196 L239.862,2.744 L238.056,2.744 L238.056,3.71 L239.862,3.71 L239.862,6.888 C239.19,7.14 238.518,7.35 237.818,7.518 L238.07,8.47 C238.686,8.274 239.274,8.078 239.862,7.854 L239.862,11.242 C239.862,11.718 239.638,11.97 239.218,11.97 C238.868,11.97 238.49,11.942 238.098,11.9 L238.308,12.852 L239.554,12.852 Z M242.27,1.316 L242.27,2.254 L244.048,2.254 L244.048,3.43 L245.014,3.43 L245.014,2.254 L247.324,2.254 L247.324,3.374 L248.304,3.374 L248.304,2.254 L250.222,2.254 L250.222,1.316 L248.304,1.316 L248.304,0.238 L247.324,0.238 L247.324,1.316 L245.014,1.316 L245.014,0.238 L244.048,0.238 L244.048,1.316 L242.27,1.316 Z M244.048,6.622 L244.048,7.112 L248.43,7.112 L248.43,6.566 C248.962,6.972 249.578,7.364 250.264,7.728 L250.81,6.902 C248.836,5.88 247.45,4.69 246.638,3.318 L245.77,3.318 C244.818,4.858 243.446,6.118 241.682,7.084 L242.2,7.882 C242.844,7.518 243.46,7.098 244.048,6.622 Z M248.066,6.272 L244.44,6.272 C245.084,5.67 245.672,4.97 246.204,4.172 C246.68,4.928 247.31,5.628 248.066,6.272 Z M249.186,8.316 L243.208,8.316 L243.208,12.978 L244.188,12.978 L244.188,12.292 L248.22,12.292 L248.22,12.978 L249.186,12.978 L249.186,8.316 Z M244.188,11.382 L244.188,9.226 L248.22,9.226 L248.22,11.382 L244.188,11.382 Z" id="形状"></path>
                        <path d="M263.522,5.908 L263.522,3.948 L264.46,3.948 L264.46,3.108 L263.522,3.108 L263.522,1.162 L260.526,1.162 L260.526,0.14 L259.546,0.14 L259.546,1.162 L257.096,1.162 L257.096,2.002 L259.546,2.002 L259.546,3.108 L256.41,3.108 L256.41,3.948 L259.546,3.948 L259.546,5.068 L257.096,5.068 L257.096,5.908 L259.546,5.908 L259.546,7.028 L256.802,7.028 L256.802,7.854 L259.546,7.854 L259.546,9.016 L256.368,9.016 L256.368,9.87 L259.546,9.87 L259.546,11.256 L260.526,11.256 L260.526,9.87 L264.208,9.87 L264.208,9.016 L260.526,9.016 L260.526,7.854 L263.802,7.854 L263.802,7.028 L260.526,7.028 L260.526,5.908 L263.522,5.908 Z M260.526,2.002 L262.542,2.002 L262.542,3.108 L260.526,3.108 L260.526,2.002 Z M260.526,3.948 L262.542,3.948 L262.542,5.068 L260.526,5.068 L260.526,3.948 Z M259.868,11.76 C257.964,11.732 256.522,11.466 255.57,10.934 C255.332,10.794 255.108,10.612 254.884,10.374 C255.556,9.086 255.934,7.518 255.99,5.67 L255.99,5.068 L253.792,5.068 C254.464,4.116 255.164,3.01 255.864,1.722 L255.864,0.896 L252.434,0.896 L252.434,1.848 L254.73,1.848 C254.058,3.052 253.302,4.172 252.49,5.208 L252.49,5.992 L255.08,5.992 C254.996,7.322 254.716,8.484 254.24,9.478 C253.876,8.862 253.54,8.05 253.26,7.056 L252.42,7.364 C252.756,8.568 253.204,9.562 253.75,10.346 C253.302,10.99 252.756,11.55 252.098,12.026 L252.756,12.88 C253.4,12.39 253.96,11.816 254.408,11.158 C254.548,11.298 254.702,11.424 254.884,11.564 C255.976,12.292 257.782,12.656 260.302,12.656 L264.446,12.656 L264.614,11.69 C262.99,11.732 261.408,11.76 259.868,11.76 Z" id="形状"></path>
                        <path d="M274.498,3.276 L276.57,3.276 C276.514,5.166 276.22,6.818 275.674,8.232 C275.114,7.056 274.666,5.642 274.316,4.004 L274.498,3.276 Z M275.212,9.24 C274.568,10.43 273.714,11.396 272.622,12.152 L273.14,12.992 C274.19,12.236 275.058,11.298 275.73,10.178 C276.43,11.354 277.27,12.306 278.25,13.006 L278.796,12.18 C277.788,11.494 276.934,10.528 276.206,9.268 C276.99,7.616 277.424,5.614 277.494,3.276 L278.404,3.276 L278.404,2.31 L274.708,2.31 C274.82,1.694 274.932,1.022 275.016,0.308 L274.036,0.14 C273.756,2.8 273.196,4.914 272.37,6.482 L273,7.252 C273.294,6.748 273.574,6.174 273.826,5.53 C274.204,6.93 274.666,8.162 275.212,9.24 Z M268.576,6.678 C268.478,6.958 268.366,7.252 268.24,7.56 L266.196,7.56 L266.196,8.442 L267.848,8.442 C267.568,9.002 267.246,9.576 266.882,10.192 C267.568,10.444 268.212,10.71 268.828,10.976 C268.016,11.438 267.022,11.816 265.874,12.124 L266.35,12.964 C267.75,12.572 268.912,12.054 269.836,11.41 C270.662,11.774 271.376,12.152 271.992,12.516 L272.538,11.732 C271.922,11.396 271.278,11.088 270.606,10.78 C271.334,10.108 271.852,9.31 272.16,8.386 L272.16,7.56 L269.234,7.56 C269.318,7.308 269.416,7.056 269.514,6.79 L268.576,6.678 Z M269.682,10.388 C269.178,10.178 268.646,9.982 268.086,9.786 C268.366,9.366 268.618,8.918 268.842,8.442 L271.25,8.442 C270.914,9.17 270.382,9.828 269.682,10.388 Z M267.302,0.434 L266.504,0.7 C266.84,1.232 267.148,1.834 267.442,2.52 L268.17,2.184 C267.918,1.568 267.638,0.98 267.302,0.434 Z M271.558,0.392 C271.306,0.98 270.942,1.568 270.494,2.17 L271.208,2.534 C271.656,1.946 272.006,1.344 272.286,0.728 L271.558,0.392 Z M266.224,2.856 L266.224,3.738 L268.212,3.738 C267.792,4.508 267.036,5.208 265.958,5.838 L266.448,6.65 C267.652,5.838 268.492,4.886 268.954,3.78 L268.954,6.44 L269.892,6.44 L269.892,4.62 C270.396,4.956 270.998,5.404 271.698,5.964 L272.216,5.18 C271.432,4.704 270.648,4.27 269.892,3.892 L269.892,3.738 L272.44,3.738 L272.44,2.856 L269.892,2.856 L269.892,0.182 L268.954,0.182 L268.954,2.856 L266.224,2.856 Z" id="形状"></path>
                        <path d="M292.222,1.61 L286.944,1.61 C286.762,1.036 286.566,0.518 286.37,0.056 L285.222,0.252 C285.446,0.658 285.656,1.106 285.852,1.61 L280.35,1.61 L280.35,4.732 L281.358,4.732 L281.358,2.576 L291.214,2.576 L291.214,4.732 L292.222,4.732 L292.222,1.61 Z M282.506,4.088 L282.506,5.026 L288.512,5.026 C287.938,5.39 287.084,5.88 285.95,6.468 L285.95,7.84 L280.098,7.84 L280.098,8.82 L285.95,8.82 L285.95,11.438 C285.95,11.844 285.768,12.054 285.404,12.054 C284.816,12.054 284.284,12.04 283.794,12.026 L284.032,12.95 L285.754,12.95 C286.566,12.95 286.972,12.558 286.972,11.788 L286.972,8.82 L292.488,8.82 L292.488,7.84 L286.972,7.84 L286.972,6.902 C288.092,6.286 289.114,5.67 290.024,5.026 L290.024,4.088 L282.506,4.088 Z" id="形状"></path>
                        <path d="M298.144,0.07 C297.248,2.282 295.806,4.242 293.818,5.95 L294.14,7 C294.882,6.384 295.568,5.726 296.198,5.04 L296.198,13.034 L297.206,13.034 L297.206,3.808 C297.962,2.772 298.592,1.68 299.082,0.504 L298.144,0.07 Z M304.598,12.782 C305.27,12.782 305.732,12.614 305.984,12.278 C306.222,11.942 306.39,10.962 306.488,9.352 L305.55,9.044 C305.494,10.43 305.396,11.242 305.242,11.466 C305.074,11.69 304.794,11.816 304.43,11.816 L302.162,11.816 C301.686,11.816 301.462,11.592 301.462,11.158 L301.462,6.426 C303.198,5.334 304.724,4.088 306.026,2.688 L305.326,1.89 C304.22,3.136 302.932,4.256 301.462,5.236 L301.462,0.238 L300.454,0.238 L300.454,5.852 C299.74,6.272 298.984,6.65 298.2,7.014 L298.648,7.966 C299.264,7.672 299.866,7.364 300.454,7.028 L300.454,11.298 C300.454,12.278 300.944,12.782 301.924,12.782 L304.598,12.782 Z" id="形状"></path>
                        <path d="M309.834,4.956 L312.088,4.956 L312.088,7.294 L309.834,7.294 L309.834,4.956 Z M312.088,4.046 L309.834,4.046 L309.834,1.68 L312.088,1.68 L312.088,4.046 Z M309.82,8.204 L312.088,8.204 L312.088,11.368 C312.088,11.872 311.906,12.124 311.556,12.124 C311.22,12.124 310.87,12.096 310.478,12.068 L310.716,12.964 L311.836,12.964 C312.62,12.964 313.012,12.53 313.012,11.69 L313.012,0.77 L308.924,0.77 L308.924,7.49 C308.91,9.45 308.63,11.074 308.07,12.334 L308.826,13.034 C309.4,11.774 309.736,10.164 309.82,8.204 Z M315.14,6.818 L315.476,6.818 C315.784,8.19 316.386,9.422 317.282,10.514 C316.722,11.186 316.05,11.732 315.252,12.166 L315.784,12.978 C316.624,12.53 317.338,11.956 317.954,11.242 C318.598,11.872 319.354,12.446 320.25,12.964 L320.754,12.11 C319.9,11.62 319.158,11.074 318.528,10.458 C319.172,9.45 319.634,8.218 319.9,6.776 L319.9,5.922 L315.14,5.922 L315.14,1.68 L318.878,1.68 C318.85,2.744 318.794,3.43 318.696,3.738 C318.612,3.948 318.486,4.088 318.318,4.144 C318.15,4.186 317.912,4.214 317.576,4.214 C317.184,4.214 316.876,4.2 316.638,4.2 L316.904,5.068 L318.038,5.068 C318.92,5.068 319.438,4.774 319.606,4.2 C319.774,3.64 319.858,2.492 319.858,0.756 L314.188,0.756 L314.188,13.02 L315.14,13.02 L315.14,6.818 Z M316.344,6.818 L319.004,6.818 C318.752,7.924 318.374,8.89 317.856,9.73 C317.142,8.862 316.638,7.896 316.344,6.818 Z" id="形状"></path>
                        <path d="M326.102,0.126 C325.514,1.526 324.366,2.702 322.686,3.668 L323.302,4.48 C323.946,4.088 324.52,3.654 325.052,3.178 C325.724,3.766 326.452,4.298 327.236,4.76 C325.696,5.376 323.918,5.824 321.888,6.104 L322.35,7.056 C324.618,6.706 326.62,6.132 328.328,5.348 C330.064,6.216 332.038,6.776 334.25,7.028 L334.712,6.09 C332.766,5.894 331.002,5.46 329.42,4.788 C330.708,4.06 331.8,3.178 332.696,2.142 L332.696,1.33 L326.592,1.33 C326.788,0.994 326.97,0.644 327.124,0.266 L326.102,0.126 Z M328.314,4.27 C327.376,3.78 326.508,3.192 325.724,2.506 L325.906,2.282 L331.254,2.282 C330.428,3.038 329.448,3.71 328.314,4.27 Z M327.46,6.356 C327.46,6.916 327.404,7.448 327.292,7.952 L322.84,7.952 L322.84,8.862 L327.012,8.862 C326.9,9.142 326.746,9.408 326.578,9.66 C325.85,10.682 324.324,11.536 322.028,12.208 L322.7,13.034 C325.276,12.222 326.914,11.172 327.628,9.912 C327.81,9.576 327.964,9.226 328.076,8.862 L332.22,8.862 C332.178,10.262 332.052,11.13 331.842,11.466 C331.618,11.802 331.1,11.984 330.26,11.998 L328.608,11.928 L328.86,12.838 C329.504,12.866 330.05,12.894 330.498,12.894 C331.492,12.894 332.192,12.656 332.598,12.194 C333.004,11.732 333.214,10.318 333.242,7.952 L328.314,7.952 C328.398,7.448 328.454,6.916 328.454,6.356 L327.46,6.356 Z" id="形状"></path>
                        <path d="M336.644,0.798 L336.644,1.778 L341.712,1.778 L341.712,7.07 L336.084,7.07 L336.084,8.036 L341.712,8.036 L341.712,12.992 L342.748,12.992 L342.748,8.036 L348.488,8.036 L348.488,7.07 L342.748,7.07 L342.748,1.778 L347.956,1.778 L347.956,0.798 L336.644,0.798 Z M338.352,2.674 L337.414,3.136 C337.946,4.074 338.45,5.138 338.926,6.342 L339.864,5.88 C339.388,4.718 338.884,3.654 338.352,2.674 Z M346.29,2.604 C345.884,3.668 345.338,4.732 344.652,5.824 L345.548,6.286 C346.234,5.222 346.794,4.144 347.214,3.038 L346.29,2.604 Z" id="形状"></path>
                        <path d="M360.962,7.182 L351.61,7.182 L351.61,13.02 L352.632,13.02 L352.632,12.32 L359.94,12.32 L359.94,13.02 L360.962,13.02 L360.962,7.182 Z M352.632,11.354 L352.632,8.148 L359.94,8.148 L359.94,11.354 L352.632,11.354 Z M350.616,5.74 C354.256,5.6 357.546,5.404 360.5,5.138 C360.836,5.67 361.186,6.216 361.536,6.804 L362.516,6.328 C361.48,4.634 360.36,3.08 359.156,1.68 L358.246,2.114 C358.806,2.758 359.352,3.472 359.884,4.228 C357.476,4.452 354.928,4.634 352.24,4.746 C353.5,3.71 354.774,2.282 356.034,0.49 L354.998,0.14 C353.178,2.814 351.652,4.368 350.42,4.788 L350.616,5.74 Z" id="形状"></path>
                        <path d="M365.89,9.94 C365.61,9.94 365.4,10.01 365.232,10.178 C365.064,10.332 364.98,10.542 364.98,10.808 C364.98,11.046 365.064,11.256 365.232,11.424 C365.4,11.592 365.596,11.676 365.834,11.676 C365.974,11.676 366.086,11.648 366.142,11.62 C366.142,11.956 366.044,12.264 365.834,12.558 C365.61,12.838 365.316,13.048 364.952,13.174 L364.952,13.86 C365.54,13.706 366.03,13.398 366.394,12.95 C366.758,12.474 366.94,11.928 366.94,11.312 C366.94,10.906 366.842,10.584 366.66,10.332 C366.464,10.066 366.198,9.94 365.89,9.94 Z" id="路径"></path>
                        <path d="M379.596,12.88 C380.394,12.88 380.8,12.474 380.8,11.69 L380.8,7.56 C381.206,7.364 381.612,7.168 382.004,6.958 L382.004,5.936 C381.612,6.16 381.206,6.356 380.8,6.552 L380.8,3.822 L382.214,3.822 L382.214,2.856 L380.8,2.856 L380.8,0.21 L379.764,0.21 L379.764,2.856 L378.07,2.856 L378.07,3.822 L379.764,3.822 L379.764,6.986 C379.148,7.224 378.532,7.42 377.902,7.574 L378.14,8.582 C378.686,8.414 379.232,8.218 379.764,8.008 L379.764,11.424 C379.764,11.774 379.582,11.956 379.246,11.956 C378.882,11.956 378.518,11.928 378.126,11.9 L378.336,12.88 L379.596,12.88 Z M383.306,0.658 L383.306,5.516 L389.41,5.516 L389.41,0.658 L383.306,0.658 Z M388.43,4.69 L384.286,4.69 L384.286,3.486 L388.43,3.486 L388.43,4.69 Z M384.286,2.702 L384.286,1.484 L388.43,1.484 L388.43,2.702 L384.286,2.702 Z M382.326,6.496 L382.326,7.392 L385.868,7.392 L385.868,11.48 C385.742,11.438 385.63,11.396 385.532,11.354 C384.944,11.088 384.426,10.486 383.978,9.548 C384.09,9.072 384.16,8.596 384.188,8.092 L383.292,7.994 C383.18,9.59 382.592,11.046 381.528,12.334 L382.27,12.978 C382.872,12.25 383.334,11.452 383.67,10.584 C384.09,11.368 384.58,11.9 385.112,12.18 C385.784,12.516 387.044,12.698 388.892,12.712 C389.34,12.712 389.858,12.726 390.418,12.726 L390.698,11.746 C390.18,11.788 389.55,11.816 388.822,11.816 C388.052,11.816 387.394,11.774 386.834,11.69 L386.834,9.884 L389.76,9.884 L389.76,8.974 L386.834,8.974 L386.834,7.392 L390.334,7.392 L390.334,6.496 L382.326,6.496 Z" id="形状"></path>
                        <path d="M398.552,0.252 C396.886,0.994 394.814,1.484 392.35,1.722 L392.672,2.632 C393.624,2.548 394.562,2.422 395.458,2.226 L395.458,5.488 L392.056,5.488 L392.056,6.468 L395.444,6.468 C395.304,9.128 394.24,11.088 392.252,12.348 L393.008,13.006 C395.164,11.606 396.312,9.436 396.48,6.468 L400.246,6.468 L400.246,12.992 L401.268,12.992 L401.268,6.468 L404.502,6.468 L404.502,5.488 L401.268,5.488 L401.268,0.308 L400.246,0.308 L400.246,5.488 L396.494,5.488 L396.494,1.974 C397.362,1.736 398.216,1.442 399.028,1.078 L398.552,0.252 Z" id="路径"></path>
                        <path d="M411.922,0.21 C410.27,2.058 408.212,3.612 405.748,4.844 L406.28,5.81 C408.772,4.494 410.774,2.926 412.286,1.106 C413.938,3.038 415.912,4.606 418.236,5.796 L418.782,4.83 C416.472,3.71 414.428,2.17 412.65,0.21 L411.922,0.21 Z M412.174,3.906 L412.174,11.466 L409.486,11.466 L409.486,5.922 L408.492,5.922 L408.492,11.466 L406.378,11.466 L406.378,12.446 L418.026,12.446 L418.026,11.466 L413.196,11.466 L413.196,8.022 L417.018,8.022 L417.018,7.056 L413.196,7.056 L413.196,3.906 L412.174,3.906 Z" id="形状"></path>
                        <path d="M424.256,0.308 L424.256,11.438 L420.084,11.438 L420.084,12.418 L432.488,12.418 L432.488,11.438 L428.288,11.438 L428.288,0.308 L427.266,0.308 L427.266,11.438 L425.278,11.438 L425.278,0.308 L424.256,0.308 Z M431.214,2.856 C430.612,5.418 429.898,7.532 429.086,9.184 L429.996,9.506 C430.85,7.672 431.55,5.544 432.11,3.108 L431.214,2.856 Z M421.288,2.828 L420.434,3.108 C421.19,5.18 421.82,7.336 422.324,9.576 L423.248,9.338 C422.674,6.888 422.016,4.718 421.288,2.828 Z" id="形状"></path>
                        <path d="M444.402,8.666 L436.422,8.666 L436.422,13.048 L437.402,13.048 L437.402,12.446 L443.422,12.446 L443.422,13.048 L444.402,13.048 L444.402,8.666 Z M437.402,11.536 L437.402,9.576 L443.422,9.576 L443.422,11.536 L437.402,11.536 Z M438.522,2.422 C437.626,3.724 436.492,4.774 435.106,5.572 L435.75,6.356 C436.366,5.964 436.954,5.53 437.5,5.04 C438.102,5.572 438.76,6.048 439.474,6.468 C437.99,7.056 436.114,7.518 433.86,7.882 L434.238,8.778 C436.758,8.344 438.844,7.756 440.496,7 C442.232,7.84 444.206,8.33 446.446,8.498 L446.67,7.588 C444.78,7.448 443.072,7.084 441.546,6.482 C442.624,5.866 443.45,5.166 444.024,4.368 L444.024,3.556 L438.858,3.556 C439.082,3.262 439.292,2.954 439.502,2.632 L438.522,2.422 Z M440.51,6.02 C439.642,5.586 438.83,5.068 438.088,4.452 L438.13,4.41 L442.82,4.41 C442.246,4.998 441.476,5.544 440.51,6.02 Z M445.97,1.218 L440.804,1.218 C440.636,0.798 440.482,0.406 440.314,0.07 L439.208,0.238 C439.39,0.532 439.558,0.854 439.726,1.218 L434.602,1.218 L434.602,3.864 L435.624,3.864 L435.624,2.128 L444.948,2.128 L444.948,3.864 L445.97,3.864 L445.97,1.218 Z" id="形状"></path>
                        <path d="M458.472,2.884 L458.472,5.614 L450.478,5.614 L450.478,2.884 L458.472,2.884 Z M450.478,6.594 L459.494,6.594 L459.494,1.89 L455.07,1.89 C454.818,1.218 454.566,0.616 454.314,0.084 L453.236,0.252 C453.53,0.756 453.796,1.302 454.048,1.89 L449.484,1.89 L449.484,6.272 C449.456,8.778 448.882,10.822 447.748,12.39 L448.49,13.062 C449.75,11.256 450.408,9.1 450.478,6.594 Z" id="形状"></path>
                        <path d="M466.942,2.59 L464.688,2.59 C464.968,1.89 465.178,1.12 465.346,0.294 L464.338,0.154 C464.212,0.994 464.016,1.806 463.736,2.59 L462.434,2.59 L462.434,12.544 L463.414,12.544 L463.414,11.34 L465.962,11.34 L465.962,12.138 L466.942,12.138 L466.942,2.59 Z M463.414,10.402 L463.414,7.336 L465.962,7.336 L465.962,10.402 L463.414,10.402 Z M463.414,6.426 L463.414,3.542 L465.962,3.542 L465.962,6.426 L463.414,6.426 Z M469.378,5.838 L468.566,6.342 C469.532,7.49 470.302,8.526 470.876,9.45 L471.674,8.89 C471.142,8.022 470.386,7 469.378,5.838 Z M474.18,2.604 L469.714,2.604 C469.966,1.876 470.162,1.092 470.33,0.266 L469.336,0.14 C468.972,2.128 468.314,3.808 467.334,5.18 L467.936,5.978 C468.482,5.264 468.944,4.466 469.336,3.584 L473.186,3.584 C473.158,7.616 473.102,10.038 473.018,10.822 C472.906,11.536 472.528,11.9 471.87,11.9 C471.436,11.9 470.932,11.886 470.344,11.858 L470.582,12.782 C471.254,12.81 471.73,12.838 472.01,12.838 C473.186,12.838 473.83,12.292 473.97,11.228 C474.11,10.136 474.18,7.252 474.18,2.604 Z" id="形状"></path>
                        <path d="M478.744,3.472 L478.744,4.298 L483.35,4.298 L483.35,3.472 L478.744,3.472 Z M479.122,5.194 L479.122,8.05 L483.028,8.05 L483.028,5.194 L479.122,5.194 Z M482.09,7.266 L480.074,7.266 L480.074,5.978 L482.09,5.978 L482.09,7.266 Z M488.082,1.428 L487.144,1.428 C487.004,0.966 486.85,0.546 486.696,0.182 L485.8,0.336 C485.968,0.672 486.122,1.036 486.262,1.428 L484.736,1.428 C484.708,1.008 484.708,0.574 484.708,0.112 L483.742,0.112 C483.742,0.56 483.742,1.008 483.77,1.428 L477.12,1.428 L477.12,4.186 C477.078,5.81 476.686,7.07 475.93,7.98 L476.686,8.666 C477.582,7.532 478.058,6.034 478.1,4.186 L478.1,2.352 L483.812,2.352 C483.882,3.514 484.022,4.48 484.246,5.264 C484.414,5.838 484.61,6.356 484.834,6.804 C484.386,7.308 483.882,7.728 483.336,8.05 L483.854,8.834 C484.358,8.526 484.848,8.134 485.31,7.644 C485.366,7.728 485.45,7.826 485.534,7.924 C486.052,8.484 486.584,8.778 487.144,8.778 C487.732,8.778 488.236,8.036 488.656,6.566 L487.844,6.09 C487.564,7.252 487.298,7.84 487.046,7.84 C486.738,7.84 486.402,7.588 486.038,7.098 L485.912,6.902 C486.556,6.006 487.088,4.886 487.522,3.514 L486.738,3.108 C486.402,4.2 485.968,5.138 485.464,5.95 C485.324,5.6 485.212,5.208 485.114,4.774 C484.946,4.144 484.834,3.332 484.778,2.352 L488.082,2.352 L488.082,1.428 Z M477.554,8.932 C477.218,10.052 476.7,11.074 476,11.998 L476.854,12.544 C477.554,11.578 478.086,10.444 478.478,9.128 L477.554,8.932 Z M484.12,12.782 C484.638,12.782 485.016,12.684 485.268,12.488 C485.548,12.236 485.73,11.578 485.814,10.486 L484.862,10.164 C484.806,10.976 484.694,11.452 484.554,11.62 C484.428,11.76 484.218,11.83 483.938,11.83 L480.956,11.83 C480.606,11.83 480.438,11.634 480.438,11.242 L480.438,8.778 L479.416,8.778 L479.416,11.452 C479.416,12.334 479.822,12.782 480.648,12.782 L484.12,12.782 Z M486.766,9.226 L485.954,9.73 C486.766,10.64 487.396,11.48 487.872,12.236 L488.67,11.662 C488.236,10.962 487.606,10.15 486.766,9.226 Z M482.286,8.54 L481.53,9.002 C482.174,9.702 482.678,10.346 483.042,10.934 L483.798,10.402 C483.448,9.87 482.944,9.24 482.286,8.54 Z" id="形状"></path>
                        <path d="M502.026,1.652 L497.336,1.652 L497.336,12.39 L498.302,12.39 L498.302,11.466 L501.046,11.466 L501.046,12.362 L502.026,12.362 L502.026,1.652 Z M498.302,10.528 L498.302,2.59 L501.046,2.59 L501.046,10.528 L498.302,10.528 Z M492.044,3.01 L493.402,3.01 C493.388,4.018 493.332,4.956 493.22,5.796 L490.154,5.796 L490.154,6.762 L493.08,6.762 C493.01,7.126 492.926,7.476 492.842,7.812 C492.366,9.45 491.386,10.808 489.902,11.886 L490.56,12.698 C492.044,11.634 493.066,10.318 493.64,8.75 C494.298,9.478 495.096,10.5 496.048,11.844 L496.65,10.92 C495.726,9.772 494.802,8.736 493.906,7.826 C493.99,7.49 494.06,7.126 494.13,6.762 L496.608,6.762 L496.608,5.796 L494.27,5.796 C494.368,4.956 494.424,4.018 494.438,3.01 L496.482,3.01 L496.482,2.044 L492.436,2.044 C492.632,1.512 492.814,0.938 492.982,0.336 L491.988,0.126 C491.568,1.736 490.91,3.206 489.986,4.55 L490.868,5.11 C491.302,4.466 491.694,3.766 492.044,3.01 Z" id="形状"></path>
                        <path d="M506.94,7.868 L506.94,8.736 L507.794,8.736 C508.438,9.618 509.292,10.388 510.328,11.032 C509.068,11.564 507.612,11.942 505.988,12.18 L506.422,13.062 C508.27,12.754 509.908,12.25 511.322,11.578 C512.652,12.25 514.29,12.74 516.222,13.062 L516.656,12.194 C514.99,11.97 513.534,11.592 512.274,11.06 C513.408,10.388 514.36,9.562 515.144,8.61 L515.144,7.868 L506.94,7.868 Z M508.858,8.736 L513.828,8.736 C513.1,9.45 512.246,10.066 511.266,10.584 C510.3,10.08 509.502,9.464 508.858,8.736 Z M506.128,4.732 L508.48,4.732 L508.48,6.916 L514.15,6.916 L514.15,4.732 L516.306,4.732 L516.306,3.808 L514.15,3.808 L514.15,2.66 L513.17,2.66 L513.17,3.808 L509.46,3.808 L509.46,2.674 L508.48,2.674 L508.48,3.808 L506.128,3.808 L506.128,2.212 L516.334,2.212 L516.334,1.26 L511.532,1.26 C511.378,0.84 511.21,0.448 511.042,0.098 L509.978,0.266 C510.174,0.574 510.342,0.896 510.51,1.26 L505.12,1.26 L505.12,5.824 C505.092,8.582 504.672,10.738 503.86,12.292 L504.616,12.964 C505.568,11.172 506.072,8.792 506.128,5.824 L506.128,4.732 Z M509.46,4.732 L513.17,4.732 L513.17,6.062 L509.46,6.062 L509.46,4.732 Z" id="形状"></path>
                        <path d="M530.026,1.12 L524.678,1.12 L524.678,12.586 L525.644,12.586 L525.644,11.34 L529.046,11.34 L529.046,12.446 L530.026,12.446 L530.026,1.12 Z M525.644,10.388 L525.644,2.058 L529.046,2.058 L529.046,10.388 L525.644,10.388 Z M518.28,4.018 L518.28,4.956 L520.73,4.956 L520.73,5.054 C520.156,6.594 519.218,7.98 517.916,9.212 L518.336,10.304 C519.33,9.226 520.128,8.022 520.73,6.692 L520.73,12.908 L521.71,12.908 L521.71,6.594 C522.228,7.182 522.844,7.98 523.572,8.974 L524.16,8.106 C523.334,7.182 522.522,6.37 521.71,5.656 L521.71,4.956 L524.104,4.956 L524.104,4.018 L521.71,4.018 L521.71,1.806 C522.494,1.638 523.236,1.414 523.964,1.148 L523.488,0.308 C522.088,0.84 520.352,1.19 518.266,1.358 L518.588,2.254 C519.316,2.198 520.03,2.114 520.73,2.002 L520.73,4.018 L518.28,4.018 Z" id="形状"></path>
                        <path d="M533.834,4.956 L536.088,4.956 L536.088,7.294 L533.834,7.294 L533.834,4.956 Z M536.088,4.046 L533.834,4.046 L533.834,1.68 L536.088,1.68 L536.088,4.046 Z M533.82,8.204 L536.088,8.204 L536.088,11.368 C536.088,11.872 535.906,12.124 535.556,12.124 C535.22,12.124 534.87,12.096 534.478,12.068 L534.716,12.964 L535.836,12.964 C536.62,12.964 537.012,12.53 537.012,11.69 L537.012,0.77 L532.924,0.77 L532.924,7.49 C532.91,9.45 532.63,11.074 532.07,12.334 L532.826,13.034 C533.4,11.774 533.736,10.164 533.82,8.204 Z M539.14,6.818 L539.476,6.818 C539.784,8.19 540.386,9.422 541.282,10.514 C540.722,11.186 540.05,11.732 539.252,12.166 L539.784,12.978 C540.624,12.53 541.338,11.956 541.954,11.242 C542.598,11.872 543.354,12.446 544.25,12.964 L544.754,12.11 C543.9,11.62 543.158,11.074 542.528,10.458 C543.172,9.45 543.634,8.218 543.9,6.776 L543.9,5.922 L539.14,5.922 L539.14,1.68 L542.878,1.68 C542.85,2.744 542.794,3.43 542.696,3.738 C542.612,3.948 542.486,4.088 542.318,4.144 C542.15,4.186 541.912,4.214 541.576,4.214 C541.184,4.214 540.876,4.2 540.638,4.2 L540.904,5.068 L542.038,5.068 C542.92,5.068 543.438,4.774 543.606,4.2 C543.774,3.64 543.858,2.492 543.858,0.756 L538.188,0.756 L538.188,13.02 L539.14,13.02 L539.14,6.818 Z M540.344,6.818 L543.004,6.818 C542.752,7.924 542.374,8.89 541.856,9.73 C541.142,8.862 540.638,7.896 540.344,6.818 Z" id="形状"></path>
                        <path d="M550.102,0.126 C549.514,1.526 548.366,2.702 546.686,3.668 L547.302,4.48 C547.946,4.088 548.52,3.654 549.052,3.178 C549.724,3.766 550.452,4.298 551.236,4.76 C549.696,5.376 547.918,5.824 545.888,6.104 L546.35,7.056 C548.618,6.706 550.62,6.132 552.328,5.348 C554.064,6.216 556.038,6.776 558.25,7.028 L558.712,6.09 C556.766,5.894 555.002,5.46 553.42,4.788 C554.708,4.06 555.8,3.178 556.696,2.142 L556.696,1.33 L550.592,1.33 C550.788,0.994 550.97,0.644 551.124,0.266 L550.102,0.126 Z M552.314,4.27 C551.376,3.78 550.508,3.192 549.724,2.506 L549.906,2.282 L555.254,2.282 C554.428,3.038 553.448,3.71 552.314,4.27 Z M551.46,6.356 C551.46,6.916 551.404,7.448 551.292,7.952 L546.84,7.952 L546.84,8.862 L551.012,8.862 C550.9,9.142 550.746,9.408 550.578,9.66 C549.85,10.682 548.324,11.536 546.028,12.208 L546.7,13.034 C549.276,12.222 550.914,11.172 551.628,9.912 C551.81,9.576 551.964,9.226 552.076,8.862 L556.22,8.862 C556.178,10.262 556.052,11.13 555.842,11.466 C555.618,11.802 555.1,11.984 554.26,11.998 L552.608,11.928 L552.86,12.838 C553.504,12.866 554.05,12.894 554.498,12.894 C555.492,12.894 556.192,12.656 556.598,12.194 C557.004,11.732 557.214,10.318 557.242,7.952 L552.314,7.952 C552.398,7.448 552.454,6.916 552.454,6.356 L551.46,6.356 Z" id="形状"></path>
                        <path d="M561.54,5.46 L561.54,13.02 L562.534,13.02 L562.534,3.836 C563.08,2.8 563.528,1.694 563.892,0.532 L562.982,0.112 C562.338,2.422 561.288,4.466 559.832,6.258 L560.126,7.266 C560.63,6.692 561.106,6.09 561.54,5.46 Z M563.654,2.562 L563.654,3.542 L566.384,3.542 C565.712,6.118 564.606,8.218 563.038,9.842 L563.556,10.71 C565.278,8.848 566.496,6.454 567.196,3.542 L567.364,3.542 L567.364,9.156 L565.222,9.156 L565.222,10.122 L567.364,10.122 L567.364,13.006 L568.358,13.006 L568.358,10.122 L570.528,10.122 L570.528,9.156 L568.358,9.156 L568.358,3.542 L568.526,3.542 C569.17,6.132 570.36,8.47 572.068,10.542 L572.726,9.716 C571.102,7.91 569.968,5.852 569.324,3.542 L572.18,3.542 L572.18,2.562 L568.358,2.562 L568.358,0.154 L567.364,0.154 L567.364,2.562 L563.654,2.562 Z" id="形状"></path>
                        <path d="M580.748,4.284 L580.748,5.152 L584.682,5.152 L584.682,4.284 C585.158,4.802 585.69,5.292 586.292,5.754 L586.838,4.914 C585.102,3.57 583.87,2.016 583.17,0.224 L582.246,0.224 C581.406,2.17 580.188,3.752 578.62,4.97 L579.152,5.782 C579.712,5.348 580.244,4.844 580.748,4.284 Z M584.64,4.228 L580.79,4.228 C581.518,3.388 582.148,2.38 582.708,1.204 C583.184,2.296 583.828,3.304 584.64,4.228 Z M579.026,11.55 L579.026,12.516 L586.67,12.516 L586.67,11.55 L584.556,11.55 C585.116,10.01 585.578,8.246 585.97,6.258 L585.004,6.02 C584.584,8.218 584.108,10.066 583.576,11.55 L579.026,11.55 Z M580.314,6.426 L579.446,6.72 C579.936,7.98 580.342,9.282 580.65,10.654 L581.518,10.444 C581.154,8.932 580.762,7.588 580.314,6.426 Z M582.47,6.02 L581.602,6.286 C582.022,7.49 582.358,8.75 582.61,10.052 L583.492,9.842 C583.184,8.4 582.848,7.126 582.47,6.02 Z M577.458,1.736 L576.842,6.58 L575.19,6.58 L575.75,2.73 L574.826,2.674 L574.168,7.476 L577.738,7.476 C577.738,9.604 577.654,10.878 577.514,11.326 C577.374,11.746 576.968,11.97 576.296,11.97 C576.1,11.97 575.75,11.942 575.26,11.886 L575.526,12.782 C575.862,12.81 576.198,12.824 576.52,12.824 C577.402,12.824 577.976,12.572 578.256,12.096 C578.522,11.606 578.662,9.772 578.662,6.58 L577.794,6.58 L578.466,0.812 L574.07,0.812 L574.07,1.736 L577.458,1.736 Z M576.94,8.722 C576.016,9.058 574.924,9.324 573.692,9.534 L573.818,10.486 C574.98,10.262 576.016,9.982 576.94,9.632 L576.94,8.722 Z" id="形状"></path>
                    </g>
                </g>
            </g>
        </g>
    </g>
</svg>