<?xml version="1.0" encoding="UTF-8"?>
<svg width="56px" height="56px" viewBox="0 0 56 56" version="1.1" xmlns="http://www.w3.org/2000/svg" xmlns:xlink="http://www.w3.org/1999/xlink">
    <title>箱货查询</title>
    <defs>
        <path d="M17.823267,13 L38.00884,13 C38.8222144,13.0099192 39.6322825,13.2744312 40.2836433,13.7670848 C41.0837921,14.3589305 41.6425738,15.2681905 41.7946682,16.2534978 C41.8574898,16.6304274 41.8475706,17.0139698 41.8475706,17.3975122 C41.8475706,20.9551988 41.850877,24.5128854 41.8442642,28.0672655 C41.8310386,28.1995215 41.7814426,28.3251647 41.7053954,28.4342759 C41.5003986,28.731852 41.0771793,28.8442696 40.7531521,28.6855624 C39.9265521,28.2821815 39.0371304,28.0077503 38.124564,27.8887199 C36.8284551,27.7167871 35.4893631,27.8457367 34.2527694,28.2689559 C33.3170582,28.5896768 32.4342493,29.0757176 31.6671645,29.6973208 C30.126382,30.9306081 29.0385764,32.7160642 28.6583403,34.6536147 C28.4169731,35.8637571 28.4401179,37.126802 28.7310811,38.3270252 C28.9658356,39.3057197 29.3791356,40.2414309 29.94453,41.0779502 C30.0139644,41.1771422 30.0900116,41.2796406 30.1230756,41.398671 C30.2123484,41.6830214 30.126382,42.010355 29.9015468,42.208739 C29.762678,42.3343822 29.5775196,42.4038166 29.3890548,42.4038166 L18.1307622,42.4038166 C17.7835902,42.407123 17.4364182,42.3972038 17.095859,42.324463 C16.401515,42.1855942 15.7501541,41.8483414 15.2310493,41.365607 C14.4408197,40.6381989 13.9746172,39.5702317 14.0010684,38.4956516 L14.0010684,16.8651818 C13.9845364,15.7178609 14.5333989,14.5837657 15.4261269,13.8662768 C16.0874069,13.314108 16.9536838,13.0099192 17.823267,13 M20.1608919,19.4375611 C19.8666223,19.4937699 19.6219487,19.7384435 19.5624335,20.0294067 C19.5029183,20.2939188 19.5921911,20.584882 19.7938815,20.766734 C19.9426695,20.9089092 20.1476663,20.9783436 20.3526631,20.9750372 L35.3339623,20.9750372 C35.4860567,20.9750372 35.6447639,20.9783436 35.7902455,20.9221348 C36.0812087,20.8130236 36.2895119,20.5154476 36.2895119,20.2046459 C36.3027375,19.8740059 36.0712895,19.5565915 35.7571815,19.4573995 C35.6216191,19.4111099 35.4761375,19.4144163 35.3339623,19.4177227 L20.3559695,19.4177227 C20.2865351,19.4210291 20.2237135,19.4243355 20.1608919,19.4375611 M20.1311343,25.7693174 C19.8500903,25.8387518 19.6186423,26.080119 19.5624335,26.3644694 C19.5062247,26.6256751 19.5954975,26.9166383 19.7971879,27.0984903 C19.9426695,27.2406655 20.1476663,27.3067935 20.3493567,27.3034871 L28.6186635,27.3034871 C28.8302732,27.3100999 29.0451892,27.2406655 29.20059,27.0951839 C29.4684084,26.8538167 29.5279236,26.4173719 29.332846,26.113183 C29.1939772,25.8751222 28.919546,25.7362534 28.6451147,25.7428662 L20.3493567,25.7428662 C20.2766159,25.7428662 20.2038751,25.749479 20.1311343,25.7693174 M39.7546193,29.9122368 C40.9416169,30.4115032 41.9798266,31.2513289 42.7237666,32.3027641 C43.3552891,33.1921858 43.7718955,34.2303954 43.9272963,35.3082819 C44.1091483,36.5680203 43.9504411,37.8806612 43.4445619,39.0544333 C43.024649,40.0463533 42.3666754,40.9390814 41.5433818,41.6334254 C40.6704921,42.3773654 39.6157505,42.8997767 38.4948808,43.1345311 C37.1855464,43.4122687 35.7968583,43.3097703 34.5503454,42.8303422 C32.893839,42.2021262 31.4985381,40.9126302 30.7446788,39.3057197 C30.2520252,38.2741228 30.02719,37.1168828 30.0833988,35.9761747 C30.1363012,34.8751435 30.457022,33.7840314 31.0124973,32.8317882 C31.5547469,31.8960769 32.3185253,31.0893153 33.2211726,30.4974696 C34.2197054,29.8461088 35.3868647,29.4526472 36.5771687,29.3799064 C37.6583616,29.3071656 38.7560864,29.4890176 39.7546193,29.9122368 Z M39.0371304,32.6300978 C37.7575536,32.9673506 36.4779767,33.317829 35.1983999,33.6550818 C35.0595311,33.6749202 34.9140494,33.6947586 34.7917126,33.7708058 C34.5701838,33.8931426 34.4114766,34.1212842 34.381719,34.3725706 C34.3684934,34.4982138 34.3354294,34.6205506 34.3023654,34.7428875 C34.0213214,35.7910163 33.7402774,36.8358388 33.4592334,37.8839676 C33.389799,38.1650116 33.2806878,38.4460556 33.3170582,38.7403252 C33.3501222,39.2032213 33.6245534,39.6363597 34.0279342,39.8678077 C34.3552678,40.0595789 34.761955,40.1091749 35.1289655,40.0066765 C36.1539495,39.7322453 37.1789336,39.4578141 38.207224,39.1833829 C38.4849616,39.1139485 38.7593928,39.0147565 39.0470497,38.9816925 C39.4140601,38.9221773 39.6951041,38.5783116 39.7116361,38.2113012 C40.0191313,37.0375292 40.3365457,35.8703699 40.6506537,34.6999043 C40.7035561,34.4849882 40.7796033,34.2733786 40.7762969,34.0485434 C40.7829097,33.6253242 40.5911385,33.202105 40.2604985,32.9309802 C39.9232457,32.6499362 39.4603497,32.5342121 39.0371304,32.6300978 Z M35.5687167,35.9794811 L37.3839304,37.7946948 C36.5573303,38.0162236 35.7274239,38.2377524 34.9008238,38.4592812 C35.1289655,37.6359876 35.3471879,36.8060812 35.5687167,35.9794811 Z M39.1726929,34.1874122 C38.9478576,35.0305443 38.7230224,35.8703699 38.4948808,36.713502 C37.8798904,36.1018179 37.2649,35.4835211 36.6499095,34.8685307 C37.4897352,34.6403891 38.3328672,34.4188602 39.1726929,34.1874122 Z M23.5168881,31.9555921 C23.6557569,31.9555921 23.7979321,31.9456729 23.9334945,31.9853497 C24.2112321,32.0613969 24.4327609,32.2961513 24.4856633,32.5771954 C24.5517913,32.8813842 24.4129225,33.218637 24.1484105,33.3872634 C24.0227673,33.466617 23.8739793,33.516213 23.7251913,33.5096002 L23.7251913,33.5096002 L20.3229055,33.5096002 C20.0550871,33.5195194 19.7905751,33.367425 19.6550127,33.135977 C19.5194503,32.9078354 19.5095311,32.6135658 19.6318679,32.3788113 C19.7310599,32.1837337 19.9162183,32.0349457 20.1311343,31.9820433 C20.2534711,31.9489793 20.3758079,31.9555921 20.4981447,31.9555921 Z" id="path-1"></path>
        <filter x="-10.0%" y="-3.3%" width="113.3%" height="113.2%" filterUnits="objectBoundingBox" id="filter-2">
            <feOffset dx="-1" dy="1" in="SourceAlpha" result="shadowOffsetOuter1"></feOffset>
            <feGaussianBlur stdDeviation="0.5" in="shadowOffsetOuter1" result="shadowBlurOuter1"></feGaussianBlur>
            <feColorMatrix values="0 0 0 0 0.168627451   0 0 0 0 0.42745098   0 0 0 0 0.690196078  0 0 0 1 0" type="matrix" in="shadowBlurOuter1"></feColorMatrix>
        </filter>
    </defs>
    <g id="客户端-舱单功能" stroke="none" stroke-width="1" fill="none" fill-rule="evenodd">
        <g id="画板" transform="translate(-378.000000, -99.000000)">
            <g id="箱货查询" transform="translate(378.000000, 99.000000)">
                <rect id="矩形" stroke="#F2F3F5" fill="#3496FB" x="0.5" y="0.5" width="55" height="55" rx="12"></rect>
                <g id="形状" fill-rule="nonzero">
                    <use fill="black" fill-opacity="1" filter="url(#filter-2)" xlink:href="#path-1"></use>
                    <use fill="#FFFFFF" xlink:href="#path-1"></use>
                </g>
            </g>
        </g>
    </g>
</svg>