<?xml version="1.0" encoding="UTF-8"?>
<svg width="14px" height="16px" viewBox="0 0 14 16" version="1.1" xmlns="http://www.w3.org/2000/svg" xmlns:xlink="http://www.w3.org/1999/xlink">
    <title>jizhuangxiang</title>
    <g id="及时通供应商报价" stroke="none" stroke-width="1" fill="none" fill-rule="evenodd">
        <g id="及时通-询价沟通-无浮窗页" transform="translate(-1042.000000, -651.000000)" fill="#FF9912" fill-rule="nonzero">
            <g id="编组-15" transform="translate(160.000000, 59.000000)">
                <g id="次要信息" transform="translate(858.000000, 210.000000)">
                    <g id="编组-33" transform="translate(0.000000, 205.000000)">
                        <g id="编组-18" transform="translate(24.000000, 175.000000)">
                            <g id="jizhuangxiang" transform="translate(0.000000, 2.000000)">
                                <path d="M13.4665614,15.2586402 L0.542493136,15.2586402 C0.23980954,15.2548696 -0.00277784949,15.0069368 2.40286756e-05,14.704243 L2.40286756e-05,7.7412168 C-0.000290143296,7.59352077 0.0569019632,7.45149827 0.159501267,7.34525508 C0.259000932,7.23973637 0.397461681,7.17969994 0.542493136,7.17919022 L2.66547861,7.17919022 L6.14114253,4.29327274 L6.13376753,4.28538911 C5.90222952,4.04298301 5.77353871,3.72034457 5.77468087,3.38512933 C5.77227401,3.20756162 5.91399205,3.06152151 6.09155195,3.05859443 C6.27131318,3.05929531 6.41658849,3.20536696 6.41630669,3.38512933 C6.41710993,3.54569754 6.4802008,3.69968667 6.59228967,3.81466005 C6.60848642,3.83450324 6.62771107,3.85166811 6.64925525,3.86552218 L6.79828131,3.73989272 C6.91935583,3.6415615 7.09366964,3.64478356 7.21102753,3.74752204 L7.35598461,3.86552218 L7.37378636,3.85077217 L7.41701917,3.81440574 L7.43227781,3.79863848 C7.53034016,3.68352407 7.58440599,3.53736609 7.58486421,3.38614658 C7.58766912,3.22896236 7.52708225,3.07726606 7.41676485,2.96526241 L7.40150621,2.94161152 C7.29075413,2.84401722 7.14781313,2.79084462 7.00020398,2.79233116 C6.91303938,2.79036036 6.83033462,2.75339685 6.77072622,2.6897699 C6.71111781,2.62614295 6.67962089,2.54120578 6.68333289,2.45409796 L6.68333289,2.09170526 L5.98041819,2.09170526 C5.89262353,2.09204036 5.80845759,2.05670352 5.74721531,1.99379566 C5.68553019,1.93058838 5.65126214,1.84560361 5.65184881,1.75728674 L5.65184881,0.337978881 C5.64986904,0.249290571 5.68361464,0.163527435 5.74549985,0.0999683564 C5.80738506,0.0364092781 5.89221725,0.000387342417 5.98092681,0 L8.0278734,0 C8.2095774,0.00512989633 8.35305535,0.155991903 8.34906777,0.337724565 L8.34906777,1.75728674 C8.35233213,1.93813478 8.20870898,2.08755743 8.0278734,2.09145096 L7.32419578,2.09145096 L7.32419578,2.16596398 C7.5199914,2.22413743 7.69918796,2.32794244 7.84705851,2.46884799 L7.86613181,2.49249888 C8.09812391,2.7315238 8.2270601,3.05203797 8.22521849,3.38512933 C8.22934014,3.70717097 8.10899461,4.01837486 7.88927409,4.25385458 L7.86613181,4.28513479 L7.86613181,4.29301843 L11.3423044,7.17919022 L13.4657985,7.17919022 C13.7681462,7.18764767 14.0068275,7.43883128 13.9998509,7.7412168 L13.9998509,14.704243 C14.000904,14.8502929 13.9450867,14.9910218 13.8442127,15.0966443 C13.7457824,15.2000202 13.6093027,15.2586402 13.4665614,15.2586402 Z M11.3087354,8.9517356 C11.1271416,8.9550778 10.9822482,9.10428613 10.9842349,9.28589982 L10.9842349,13.1631203 C10.9809279,13.281265 11.0420681,13.3918784 11.1438688,13.451926 C11.2456695,13.5119737 11.3720556,13.5119737 11.4738562,13.451926 C11.5756569,13.3918784 11.6367971,13.281265 11.6334901,13.1631203 L11.6334901,9.28640844 C11.6357573,9.10449996 11.4906297,8.95494011 11.3087354,8.9517356 L11.3087354,8.9517356 Z M9.58247453,8.9517356 C9.40275309,8.9567262 9.26093571,9.10616328 9.26534912,9.28589982 L9.26534912,13.1631203 C9.26180023,13.3419182 9.40368373,13.4898321 9.58247453,13.4937242 C9.76461442,13.491951 9.91210737,13.345248 9.91485857,13.1631203 L9.91485857,9.28640844 C9.9132253,9.10314316 9.76572429,8.95462646 9.58247453,8.9517356 L9.58247453,8.9517356 Z M7.86765767,8.9517356 C7.7797089,8.95227172 7.69559869,8.98782976 7.63393557,9.05054287 C7.57227245,9.11325598 7.5381395,9.19795453 7.53908829,9.28589982 L7.53908829,13.1631203 C7.53908486,13.3449162 7.68586522,13.4926054 7.86765767,13.4937242 C8.04644847,13.4898321 8.18833197,13.3419182 8.18478309,13.1631203 L8.18478309,9.28640844 C8.18948187,9.10647558 8.04758271,8.95672475 7.86765767,8.9517356 L7.86765767,8.9517356 Z M6.14139685,8.9517356 C5.96046964,8.95669803 5.81643623,9.10490468 5.81664191,9.28589982 L5.81664191,13.1631203 C5.81661391,13.3434477 5.96109766,13.4905337 6.14139685,13.4937242 C6.32122432,13.4909363 6.46477176,13.3429493 6.46208261,13.1631203 L6.46208261,9.28640844 C6.46356789,9.10637084 6.32133387,8.95793312 6.14139685,8.9517356 L6.14139685,8.9517356 Z M4.41513602,8.9517356 C4.23430866,8.95683316 4.09042599,9.10500074 4.09063537,9.28589982 L4.09063537,13.1631203 C4.09063537,13.3434605 4.23683026,13.4896552 4.4171705,13.4896552 C4.59751075,13.4896552 4.7437054,13.3434605 4.7437054,13.1631203 L4.7437054,9.28640844 C4.74479059,9.19837555 4.71071806,9.11354582 4.64904018,9.05072221 C4.58736229,8.98789861 4.50317397,8.9522707 4.41513602,8.9517356 Z M2.69294416,8.9517356 C2.51322273,8.95672621 2.37140535,9.10616329 2.37581876,9.28589982 L2.37581876,13.1631203 C2.37307794,13.2492818 2.40516933,13.3329134 2.46484418,13.3951245 C2.52451903,13.4573357 2.60674323,13.4928783 2.69294416,13.4937242 C2.8737901,13.4919068 3.01899708,13.3439687 3.01744458,13.1631203 L3.01744458,9.28640844 C3.01971185,9.10449995 2.87458423,8.9549401 2.69268984,8.9517356 L2.69294416,8.9517356 Z M6.75988039,4.62845419 L3.68933337,7.17919022 L10.3115832,7.17919022 L7.24129049,4.62845419 L7.20136373,4.63481197 C7.13506884,4.64721857 7.06788409,4.65427722 7.00045829,4.65591975 C6.93218469,4.65399324 6.8641639,4.64676603 6.79700976,4.63430335 L6.76064333,4.62870851 L6.75988039,4.62845419 Z M6.30212119,0.665276713 L6.30212119,1.42413975 L7.70769627,1.42413975 L7.70769627,0.664259466 L6.30212119,0.665276713 Z" id="形状"></path>
                            </g>
                        </g>
                    </g>
                </g>
            </g>
        </g>
    </g>
</svg>