<?xml version="1.0" encoding="UTF-8"?>
<svg width="14px" height="12px" viewBox="0 0 14 12" version="1.1" xmlns="http://www.w3.org/2000/svg" xmlns:xlink="http://www.w3.org/1999/xlink">
    <title>quanbu-xiangxing-fill</title>
    <g id="及时通供应商报价" stroke="none" stroke-width="1" fill="none" fill-rule="evenodd">
        <g id="及时通-询价沟通-无浮窗页" transform="translate(-1148.000000, -653.000000)" fill="#FF9912" fill-rule="nonzero">
            <g id="编组-15" transform="translate(160.000000, 59.000000)">
                <g id="次要信息" transform="translate(858.000000, 210.000000)">
                    <g id="编组-33" transform="translate(0.000000, 205.000000)">
                        <g id="编组-18" transform="translate(24.000000, 175.000000)">
                            <g id="quanbu-xiangxing-fill" transform="translate(106.000000, 4.000000)">
                                <path d="M2.95689655,0.534706689 L2.95689655,4.84505152 C2.95689655,5.14677565 3.19827586,5.37953428 3.49137931,5.37953428 L10.5,5.37953428 C10.8017241,5.37953428 11.0344828,5.13815497 11.0344828,4.84505152 L11.0344828,0.534706689 C11.0344828,0.232982551 10.7931034,0.000223930565 10.5,0.000223930565 L3.5,0.000223930565 C3.19827586,-0.00839675909 2.95689655,0.232982551 2.95689655,0.534706689 Z M7.81034483,3.22436186 L6.18965517,3.22436186 C5.88793103,3.22436186 5.65517241,2.98298255 5.65517241,2.6898791 C5.65517241,2.38815497 5.89655172,2.15539634 6.18965517,2.15539634 L7.81034483,2.15539634 C8.11206897,2.15539634 8.34482759,2.39677565 8.34482759,2.6898791 C8.34482759,2.98298255 8.10344828,3.22436186 7.81034483,3.22436186 L7.81034483,3.22436186 Z M0,6.99160324 L0,11.3105688 C0,11.6122929 0.24137931,11.8450515 0.534482759,11.8450515 L5.93103448,11.8450515 C6.23275862,11.8450515 6.49137931,11.6036722 6.49137931,11.3105688 L6.49137931,7.00884462 C6.49137931,6.70712048 6.25,6.47436186 5.95689655,6.47436186 L0.534482759,6.47436186 C0.232758621,6.45712048 0,6.70712048 0,6.99160324 L0,6.99160324 Z M4.03448276,9.68125841 L2.42241379,9.68125841 C2.12068966,9.68125841 1.88793103,9.4398791 1.88793103,9.14677565 C1.88793103,8.84505152 2.12931034,8.6122929 2.42241379,8.6122929 L4.04310345,8.6122929 C4.34482759,8.6122929 4.59482759,8.85367221 4.59482759,9.14677565 C4.60344828,9.4398791 4.3362069,9.68125841 4.03448276,9.68125841 L4.03448276,9.68125841 Z M7.52586207,6.99160324 L7.52586207,11.3105688 C7.52586207,11.6122929 7.76724138,11.8450515 8.06034483,11.8450515 L13.4655172,11.8450515 C13.7672414,11.8450515 14,11.6036722 14,11.3105688 L14,7.00884462 C14,6.70712048 13.7586207,6.47436186 13.4655172,6.47436186 L8.06034483,6.47436186 C7.75862069,6.45712048 7.52586207,6.70712048 7.52586207,6.99160324 L7.52586207,6.99160324 Z M11.5689655,9.68125841 L9.96551724,9.68125841 C9.6637931,9.68125841 9.4137931,9.4398791 9.4137931,9.14677565 C9.4137931,8.84505152 9.67241379,8.6122929 9.96551724,8.6122929 L11.5775862,8.6122929 C11.8793103,8.6122929 12.112069,8.85367221 12.112069,9.14677565 C12.112069,9.4398791 11.8706897,9.68125841 11.5689655,9.68125841 L11.5689655,9.68125841 Z" id="形状"></path>
                            </g>
                        </g>
                    </g>
                </g>
            </g>
        </g>
    </g>
</svg>