<?xml version="1.0" encoding="UTF-8"?>
<svg width="49px" height="20px" viewBox="0 0 49 20" version="1.1" xmlns="http://www.w3.org/2000/svg" xmlns:xlink="http://www.w3.org/1999/xlink">
    <title>编组 6备份 2</title>
    <defs>
        <linearGradient x1="50%" y1="0%" x2="50%" y2="100%" id="linearGradient-1">
            <stop stop-color="#FF9100" offset="0%"></stop>
            <stop stop-color="#FF1600" offset="100%"></stop>
        </linearGradient>
    </defs>
    <g id="页面-1" stroke="none" stroke-width="1" fill="none" fill-rule="evenodd">
        <g id="编组-6备份-2">
            <path d="M45.4081633,0.897959184 L3.59183673,0.897959184 C2.15718451,0.897959184 0.984467782,2.01943834 0.902532214,3.43355097 L0.897959184,3.59183673 L0.897959184,16.1632653 C0.897959184,17.5979175 2.01943834,18.7706343 3.43355097,18.8525698 L3.59183673,18.8571429 L45.4081633,18.8571429 C46.8428155,18.8571429 48.0155322,17.7356637 48.0974678,16.3215511 L48.1020408,16.1632653 L48.1020408,3.59183673 C48.1020408,2.15718451 46.9805617,0.984467782 45.566449,0.902532214 L45.4081633,0.897959184 Z" id="路径" fill="url(#linearGradient-1)" fill-rule="nonzero"></path>
            <path d="M45.4081633,0 C47.3918799,0 49,1.60812008 49,3.59183673 L49,16.1632653 C49,18.146982 47.3918799,19.755102 45.4081633,19.755102 L3.59183673,19.755102 C1.60812008,19.755102 0,18.146982 0,16.1632653 L0,3.59183673 C0,1.60812008 1.60812008,0 3.59183673,0 L45.4081633,0 Z M45.4081633,0.897959184 L3.59183673,0.897959184 C2.15718451,0.897959184 0.984467782,2.01943834 0.902532214,3.43355097 L0.897959184,3.59183673 L0.897959184,16.1632653 C0.897959184,17.5979175 2.01943834,18.7706343 3.43355097,18.8525698 L3.59183673,18.8571429 L45.4081633,18.8571429 C46.8428155,18.8571429 48.0155322,17.7356637 48.0974678,16.3215511 L48.1020408,16.1632653 L48.1020408,3.59183673 C48.1020408,2.15718451 46.9805617,0.984467782 45.566449,0.902532214 L45.4081633,0.897959184 Z" id="矩形-4" fill="#FF1600" fill-rule="nonzero"></path>
            <path d="M2.89795918,1 L17.1632653,1 L17.1632653,1 L17.1632653,18.9591837 L2.89795918,18.9591837 C1.79338968,18.9591837 0.897959184,18.0637532 0.897959184,16.9591837 L0.897959184,3 C0.897959184,1.8954305 1.79338968,1 2.89795918,1 Z" id="矩形" fill="#FFFFFF"></path>
            <g id="jiangbei-" transform="translate(3.000000, 3.000000)" fill-rule="nonzero">
                <polygon id="路径" fill="#FF4C4C" points="12 -5.68434189e-16 10 -5.68434189e-16 7.33333333 3.33333333 9.33333333 3.33333333"></polygon>
                <polygon id="路径" fill="#3B8CFF" points="10 -5.68434189e-16 8 -5.68434189e-16 5.33333333 3.33333333 7.33333333 3.33333333"></polygon>
                <polygon id="路径" fill="#F1F1F1" points="8 -5.68434189e-16 6 -5.68434189e-16 3.33333333 3.33333333 5.33333333 3.33333333"></polygon>
                <polygon id="路径" fill="#FF4C4C" points="0 -5.68434189e-16 2 -5.68434189e-16 4.66666667 3.33333333 2.66666667 3.33333333"></polygon>
                <polygon id="路径" fill="#3B8CFF" points="2 -5.68434189e-16 4 -5.68434189e-16 6.66666667 3.33333333 4.66666667 3.33333333"></polygon>
                <polygon id="路径" fill="#FBFBFB" points="4 -5.68434189e-16 6 -5.68434189e-16 8.66666667 3.33333333 6.66666667 3.33333333"></polygon>
                <polygon id="路径" fill="#E3A815" points="2.66666667 3.33333333 9.33333333 3.33333333 9.33333333 6.66666666 2.66666667 6.66666666"></polygon>
                <path d="M1,9.66666666 C1,12.4280904 3.23857625,14.6666667 6,14.6666667 C8.76142375,14.6666667 11,12.4280904 11,9.66666666 C11,6.90524291 8.76142375,4.66666666 6,4.66666666 C3.23857625,4.66666666 1,6.90524291 1,9.66666666 Z" id="路径" fill="#FDDC3A"></path>
                <path d="M2,9.66666666 C2,11.8758057 3.790861,13.6666667 6,13.6666667 C8.209139,13.6666667 10,11.8758057 10,9.66666666 C10,7.45752766 8.209139,5.66666666 6,5.66666666 C3.790861,5.66666666 2,7.45752766 2,9.66666666 Z" id="路径" fill="#E3A815"></path>
                <path d="M2.66666667,9.66666666 C2.66666667,11.5076158 4.15905084,13 6,13 C7.84094916,13 9.33333333,11.5076158 9.33333333,9.66666666 C9.33333333,8.47578135 8.69800361,7.37535793 7.66666667,6.77991527 C6.63532975,6.18447261 5.36467025,6.18447261 4.33333332,6.77991527 C3.30199639,7.37535793 2.66666667,8.47578135 2.66666667,9.66666666 Z" id="路径" fill="#F5CF41"></path>
                <path d="M2.33333333,3.33333333 L9.66666667,3.33333333 C9.85076159,3.33333333 9.99999999,3.48257175 9.99999999,3.66666666 C9.99999999,3.85076158 9.85076159,4 9.66666667,4 L2.33333333,4 C2.14923841,4 1.99999999,3.85076158 1.99999999,3.66666666 C1.99999999,3.48257175 2.14923841,3.33333333 2.33333333,3.33333333 L2.33333333,3.33333333 Z" id="路径" fill="#D19A0E"></path>
                <path d="M2.33333333,3.48571427 C2.22287638,3.48571427 2.13333333,3.58165325 2.13333333,3.69999998 C2.13333333,3.8183467 2.22287638,3.91428568 2.33333333,3.91428568 L9.66666667,3.91428568 C9.77712362,3.91428568 9.86666667,3.8183467 9.86666667,3.69999998 C9.86666667,3.58165325 9.77712362,3.48571427 9.66666667,3.48571427 L2.33333333,3.48571427 Z M2.33333333,3.19999999 L9.66666667,3.19999999 C9.83341095,3.19996731 9.98750207,3.29525962 10.070883,3.44997358 C10.154264,3.60468754 10.154264,3.79531243 10.070883,3.95002639 C9.98750207,4.10474035 9.83341095,4.20003266 9.66666667,4.19999999 L2.33333333,4.19999999 C2.16658905,4.20003266 2.01249793,4.10474035 1.92911698,3.95002639 C1.84573603,3.79531243 1.84573603,3.60468754 1.92911698,3.44997358 C2.01249793,3.29525962 2.16658905,3.19996731 2.33333333,3.19999999 L2.33333333,3.19999999 Z" id="形状" fill="#F9D525"></path>
                <polygon id="路径" fill="#FFF2A0" points="6 11 4.43266667 11.824 4.732 10.0786667 3.464 8.84266666 5.216 8.588 6 7 6.784 8.588 8.536 8.84266666 7.268 10.0786667 7.56733333 11.824"></polygon>
            </g>
            <g id="精选" transform="translate(20.390000, 4.301000)" fill="#FFFFFF" fill-rule="nonzero">
                <path d="M0.273,4.55 L0.273,5.681 L1.963,5.681 C1.547,6.903 0.884,7.982 0,8.931 L0.533,10.27 C1.131,9.425 1.638,8.502 2.028,7.488 L2.028,12.038 L3.211,12.038 L3.211,7.163 C3.536,7.67 3.926,8.32 4.368,9.113 L5.07,8.06 C4.446,7.332 3.835,6.669 3.211,6.071 L3.211,5.681 L4.667,5.681 L4.667,4.55 L3.211,4.55 L3.211,0.065 L2.028,0.065 L2.028,4.55 L0.273,4.55 Z M4.03,0.936 C3.952,1.976 3.796,2.899 3.562,3.692 L4.355,3.952 C4.667,3.107 4.862,2.145 4.94,1.053 L4.03,0.936 Z M1.157,1.131 L0.273,1.417 C0.494,2.262 0.676,3.146 0.832,4.056 L1.651,3.848 C1.508,2.834 1.339,1.924 1.157,1.131 Z M7.982,0.026 L7.982,0.793 L5.291,0.793 L5.291,1.794 L7.982,1.794 L7.982,2.431 L5.668,2.431 L5.668,3.406 L7.982,3.406 L7.982,4.056 L5.031,4.056 L5.031,5.083 L12.077,5.083 L12.077,4.056 L9.165,4.056 L9.165,3.406 L11.401,3.406 L11.401,2.431 L9.165,2.431 L9.165,1.794 L11.778,1.794 L11.778,0.793 L9.165,0.793 L9.165,0.026 L7.982,0.026 Z M6.786,8.359 L10.283,8.359 L10.283,9.061 L6.786,9.061 L6.786,8.359 Z M10.283,7.423 L6.786,7.423 L6.786,6.682 L10.283,6.682 L10.283,7.423 Z M6.786,9.984 L10.283,9.984 L10.283,10.504 C10.283,10.79 10.153,10.933 9.906,10.933 L9.061,10.868 L9.36,11.947 L10.257,11.947 C11.063,11.947 11.466,11.544 11.466,10.751 L11.466,5.681 L5.629,5.681 L5.629,12.012 L6.786,12.012 L6.786,9.984 Z" id="形状"></path>
                <path d="M14.365,0.169 L13.52,0.975 C14.443,1.729 15.158,2.431 15.652,3.081 L16.523,2.223 C15.938,1.547 15.223,0.858 14.365,0.169 Z M21.814,11.817 L24.804,11.817 L25.116,10.595 C24.752,10.621 24.245,10.647 23.595,10.66 C22.932,10.673 22.282,10.686 21.645,10.686 C20.631,10.686 19.76,10.673 19.032,10.66 C18.252,10.634 17.68,10.517 17.29,10.335 C16.978,10.166 16.666,9.906 16.354,9.555 C16.289,9.477 16.224,9.425 16.172,9.373 L16.172,4.446 L13.273,4.446 L13.273,5.59 L15.015,5.59 L15.015,9.269 C14.495,9.529 13.897,10.192 13.247,11.258 L14.157,12.103 C14.82,10.92 15.288,10.335 15.574,10.335 C15.717,10.335 15.886,10.439 16.068,10.66 C16.458,11.102 16.913,11.414 17.433,11.57 C17.966,11.7 18.655,11.778 19.5,11.791 C20.332,11.804 21.112,11.817 21.814,11.817 Z M20.566,0 L20.566,1.56 L19.188,1.56 C19.318,1.209 19.435,0.832 19.552,0.442 L18.369,0.208 C18.07,1.313 17.576,2.353 16.874,3.328 L17.94,3.991 C18.2,3.601 18.434,3.185 18.668,2.743 L20.566,2.743 L20.566,4.355 L17.212,4.355 L17.212,5.538 L19.201,5.538 C19.149,6.253 19.032,6.864 18.837,7.358 C18.525,8.099 17.849,8.723 16.822,9.23 L17.628,10.192 C18.85,9.542 19.63,8.736 19.968,7.748 C20.189,7.124 20.319,6.383 20.371,5.538 L21.45,5.538 L21.45,8.996 C21.45,9.308 21.541,9.581 21.749,9.802 C21.944,9.997 22.23,10.101 22.62,10.101 L23.543,10.101 C23.998,10.088 24.31,9.984 24.492,9.802 C24.674,9.607 24.817,8.944 24.921,7.826 L23.842,7.462 C23.803,8.346 23.725,8.827 23.621,8.918 C23.53,8.996 23.413,9.048 23.283,9.048 L22.997,9.048 C22.737,9.048 22.607,8.931 22.607,8.723 L22.607,5.538 L24.713,5.538 L24.713,4.355 L21.762,4.355 L21.762,2.743 L24.258,2.743 L24.258,1.56 L21.762,1.56 L21.762,0 L20.566,0 Z" id="形状"></path>
            </g>
        </g>
    </g>
</svg>