<?xml version="1.0" encoding="UTF-8"?>
<svg width="28px" height="28px" viewBox="0 0 28 28" version="1.1" xmlns="http://www.w3.org/2000/svg" xmlns:xlink="http://www.w3.org/1999/xlink">
    <title>编组 14</title>
    <defs>
        <rect id="path-1" x="0" y="0" width="28" height="28"></rect>
        <rect id="path-3" x="0" y="0" width="80" height="30.1886792"></rect>
    </defs>
    <g id="船期保函下载" stroke="none" stroke-width="1" fill="none" fill-rule="evenodd">
        <g id="及时通备份-3" transform="translate(-32.000000, -72.000000)">
            <g id="编组-14备份" transform="translate(8.000000, 59.000000)">
                <g id="编组-14" transform="translate(24.000000, 13.000000)">
                    <mask id="mask-2" fill="white">
                        <use xlink:href="#path-1"></use>
                    </mask>
                    <rect stroke="#F8F8F8" x="0.5" y="0.5" width="27" height="27"></rect>
                    <g id="编组" mask="url(#mask-2)">
                        <g transform="translate(-26.000000, -1.000000)" id="编组-7备份">
                            <mask id="mask-4" fill="white">
                                <use xlink:href="#path-3"></use>
                            </mask>
                            <use id="矩形" fill="#F7F8FA" xlink:href="#path-3"></use>
                            <path d="M44.3733595,9.99956252 L35.6266405,9.99956252 C34.7298727,9.99956252 34,10.7294033 34,11.6261319 L34,18.1089041 C34,19.0056328 34.7298727,19.7354735 35.6266405,19.7354735 L44.3733595,19.7354735 C45.2701273,19.7354735 46,19.0056328 46,18.1089041 L46,11.6261319 C46,10.7294033 45.2701273,9.99956252 44.3733595,9.99956252 Z M37.3285015,11.6602146 C38.1382958,11.6602146 38.7976494,12.3124878 38.7976494,13.1140198 C38.7976494,13.9155518 38.1382958,14.5678249 37.3285015,14.5678249 C36.5187071,14.5678249 35.859352,13.9155518 35.859352,13.1140198 C35.8581783,12.3124878 36.5175318,11.6602146 37.3285015,11.6602146 Z M45.1149853,18.0900998 C45.1149853,18.1194815 45.1114594,18.1488632 45.1055828,18.1770696 C45.0973555,18.2170287 45.0609207,18.359236 44.958668,18.5049691 C44.7988247,18.7341461 44.5578844,18.8598997 44.2805093,18.8598997 L43.5952987,18.8598997 L43.5941234,18.8598997 L36.3988247,18.848147 C36.2319295,18.848147 36.0826641,18.747074 36.0191969,18.5931141 C35.9557297,18.4391541 35.9909892,18.2616888 36.1096964,18.1453374 L37.5365328,16.725615 L37.5388834,16.7232644 C37.7762977,16.4905616 38.0901077,16.3436532 38.4215475,16.3107458 C38.7529873,16.2778383 39.0891283,16.3589317 39.3676787,16.5399228 C39.6274241,16.707986 39.9717924,16.6692022 40.1868756,16.4459015 L41.3339863,15.2565314 C41.8957884,14.673599 42.8278159,14.65597 43.4107738,15.2177475 L44.9868756,16.7150376 C45.0691479,16.7926052 45.1149853,16.9007297 45.1149853,17.0135554 L45.1149853,18.0900998 Z" id="形状" fill="#EAECF0" fill-rule="nonzero" mask="url(#mask-4)"></path>
                        </g>
                    </g>
                </g>
            </g>
        </g>
    </g>
</svg>