<?xml version="1.0" encoding="UTF-8"?>
<svg width="18px" height="18px" viewBox="0 0 18 18" version="1.1" xmlns="http://www.w3.org/2000/svg" xmlns:xlink="http://www.w3.org/1999/xlink">
    <title>形状</title>
    <defs>
        <linearGradient x1="1.8564885e-13%" y1="0.622271086%" x2="100%" y2="99.3777289%" id="linearGradient-1">
            <stop stop-color="#96C9FD" offset="0%"></stop>
            <stop stop-color="#3388FF" offset="100%"></stop>
        </linearGradient>
    </defs>
    <g id="概况（暂缓" stroke="none" stroke-width="1" fill="none" fill-rule="evenodd">
        <g id="首页概况" transform="translate(-24.000000, -77.000000)" fill="url(#linearGradient-1)" fill-rule="nonzero">
            <g id="工具组" transform="translate(0.000000, 51.000000)">
                <g id="工作台" transform="translate(21.000000, 26.000000)">
                    <path d="M19.3820226,0 L4.61797761,0 L4.61797753,0 C3.72439326,0 3,0.724393261 3,1.61797753 C3,1.61797753 3,1.61797753 3,1.61797753 L3,12.5617978 L3,12.561798 C3,13.4553823 3.72439326,14.1797756 4.61797753,14.1797756 L19.3820225,14.1797756 L19.3820225,14.1797756 C20.2756067,14.1797756 21,13.4553823 21,12.561798 L21,1.61797778 L21,1.61797778 C21,0.724393506 20.2756067,0 19.3820225,0 L19.3820226,0 Z M19.1741574,17.8876405 L4.83707873,17.8876405 L4.83707869,17.8876405 C4.39028543,17.8876405 4.02808993,17.5254428 4.02808993,17.0786518 C4.02808993,16.6318585 4.39028768,16.269663 4.83707869,16.269663 L19.1741574,16.269663 L19.1741574,16.269663 C19.6209506,16.269663 19.9831461,16.6318585 19.9831461,17.0786518 C19.9831461,17.525445 19.6209506,17.8876405 19.1741574,17.8876405 L19.1741574,17.8876405 Z M8.41011245,11.1235957 L8.41011242,11.1235957 C7.96331916,11.1235957 7.60112365,10.7613978 7.60112365,10.3146068 C7.60112365,10.3146068 7.60112365,10.3146068 7.60112365,10.3146068 L7.60112365,6.06741575 L7.60112365,6.06741588 C7.60112365,5.62062262 7.96331916,5.25842711 8.41011242,5.25842711 C8.85690568,5.25842711 9.21910118,5.62062262 9.21910118,6.06741588 C9.21910118,6.06741588 9.21910118,6.06741588 9.21910118,6.06741588 L9.21910118,10.3146069 L9.21910118,10.3146069 C9.21910118,10.7614002 8.85690568,11.1235957 8.41011242,11.1235957 L8.41011245,11.1235957 Z M15.6011237,11.1235957 L15.6011237,11.1235957 C15.1543304,11.1235957 14.7921349,10.7613978 14.7921349,10.3146068 C14.7921349,10.3146068 14.7921349,10.3146068 14.7921349,10.3146068 L14.7921349,8.24719104 L14.7921349,8.24719117 C14.7921349,7.80039791 15.1543304,7.4382024 15.6011237,7.4382024 C16.0479169,7.4382024 16.4101124,7.80039791 16.4101124,8.24719117 C16.4101124,8.24719117 16.4101124,8.24719117 16.4101124,8.24719117 L16.4101124,10.3146069 L16.4101124,10.3146069 C16.4101124,10.7614002 16.0479169,11.1235957 15.6011237,11.1235957 L15.6011237,11.1235957 Z M12.0000001,11.1235956 L12.0000001,11.1235956 C11.5532068,11.1235956 11.1910113,10.7613978 11.1910113,10.3146068 C11.1910113,10.3146068 11.1910113,10.3146068 11.1910113,10.3146068 L11.1910113,3.93258429 L11.1910113,3.93258441 C11.1910113,3.48579115 11.5532068,3.12359564 12.0000001,3.12359564 C12.4467933,3.12359564 12.8089888,3.48579115 12.8089888,3.93258441 C12.8089888,3.93258441 12.8089888,3.93258441 12.8089888,3.93258441 L12.8089888,10.3146069 L12.8089888,10.3146069 C12.8089888,10.7614002 12.4467933,11.1235956 12.0000001,11.1235956 L12.0000001,11.1235956 Z" id="形状"></path>
                </g>
            </g>
        </g>
    </g>
</svg>