<?xml version="1.0" encoding="UTF-8"?>
<svg width="18px" height="18px" viewBox="0 0 18 18" version="1.1" xmlns="http://www.w3.org/2000/svg" xmlns:xlink="http://www.w3.org/1999/xlink">
    <title>形状</title>
    <g id="概况（暂缓" stroke="none" stroke-width="1" fill="none" fill-rule="evenodd">
        <path d="M16.3820226,0 L1.61797761,0 L1.61797753,0 C0.724393261,0 0,0.724393261 0,1.61797753 C0,1.61797753 0,1.61797753 0,1.61797753 L0,12.5617978 L0,12.561798 C0,13.4553823 0.724393261,14.1797756 1.61797753,14.1797756 L16.3820225,14.1797756 L16.3820225,14.1797756 C17.2756067,14.1797756 18,13.4553823 18,12.561798 L18,1.61797778 L18,1.61797778 C18,0.724393506 17.2756067,0 16.3820225,0 L16.3820226,0 Z M16.1741574,17.8876405 L1.83707873,17.8876405 L1.83707869,17.8876405 C1.39028543,17.8876405 1.02808993,17.5254428 1.02808993,17.0786518 C1.02808993,16.6318585 1.39028768,16.269663 1.83707869,16.269663 L16.1741574,16.269663 L16.1741574,16.269663 C16.6209506,16.269663 16.9831461,16.6318585 16.9831461,17.0786518 C16.9831461,17.525445 16.6209506,17.8876405 16.1741574,17.8876405 L16.1741574,17.8876405 Z M5.41011245,11.1235957 L5.41011242,11.1235957 C4.96331916,11.1235957 4.60112365,10.7613978 4.60112365,10.3146068 C4.60112365,10.3146068 4.60112365,10.3146068 4.60112365,10.3146068 L4.60112365,6.06741575 L4.60112365,6.06741588 C4.60112365,5.62062262 4.96331916,5.25842711 5.41011242,5.25842711 C5.85690568,5.25842711 6.21910118,5.62062262 6.21910118,6.06741588 C6.21910118,6.06741588 6.21910118,6.06741588 6.21910118,6.06741588 L6.21910118,10.3146069 L6.21910118,10.3146069 C6.21910118,10.7614002 5.85690568,11.1235957 5.41011242,11.1235957 L5.41011245,11.1235957 Z M12.6011237,11.1235957 L12.6011237,11.1235957 C12.1543304,11.1235957 11.7921349,10.7613978 11.7921349,10.3146068 C11.7921349,10.3146068 11.7921349,10.3146068 11.7921349,10.3146068 L11.7921349,8.24719104 L11.7921349,8.24719117 C11.7921349,7.80039791 12.1543304,7.4382024 12.6011237,7.4382024 C13.0479169,7.4382024 13.4101124,7.80039791 13.4101124,8.24719117 C13.4101124,8.24719117 13.4101124,8.24719117 13.4101124,8.24719117 L13.4101124,10.3146069 L13.4101124,10.3146069 C13.4101124,10.7614002 13.0479169,11.1235957 12.6011237,11.1235957 L12.6011237,11.1235957 Z M9.00000011,11.1235956 L9.00000007,11.1235956 C8.55320681,11.1235956 8.1910113,10.7613978 8.1910113,10.3146068 C8.1910113,10.3146068 8.1910113,10.3146068 8.1910113,10.3146068 L8.1910113,3.93258429 L8.1910113,3.93258441 C8.1910113,3.48579115 8.55320681,3.12359564 9.00000007,3.12359564 C9.44679333,3.12359564 9.80898884,3.48579115 9.80898884,3.93258441 C9.80898884,3.93258441 9.80898884,3.93258441 9.80898884,3.93258441 L9.80898884,10.3146069 L9.80898884,10.3146069 C9.80898884,10.7614002 9.44679333,11.1235956 9.00000007,11.1235956 L9.00000011,11.1235956 Z" id="形状" fill="#C8C9CC" fill-rule="nonzero"></path>
    </g>
</svg>