<?xml version="1.0" encoding="UTF-8"?>
<svg width="48px" height="48px" viewBox="0 0 48 48" version="1.1" xmlns="http://www.w3.org/2000/svg" xmlns:xlink="http://www.w3.org/1999/xlink">
    <title>形状</title>
    <g id="页面-1" stroke="none" stroke-width="1" fill="none" fill-rule="evenodd">
        <path d="M24.0001086,0 C10.8000624,0 0,10.8000081 0,24.0001086 C0,37.1999919 10.8000624,47.9999457 24.0001629,47.9999457 C37.1999919,47.9999457 48,37.1999919 48,24.0001086 C48,10.7999539 37.1999919,0 24.0001629,0 L24.0001086,0 Z M24.6000095,7.19995114 C33.7500322,7.19995114 33.7500322,14.1000875 33.7500322,17.999905 C33.7500322,21.9001025 30.1499752,29.1000536 24.6000095,29.2498796 C19.2000326,29.2498796 15.4499868,22.0499827 15.4499868,17.999905 C15.4499868,14.1000332 15.4499868,7.19995114 24.6000095,7.19995114 Z M24.0001629,46.6499379 C17.1000265,46.6499379 10.8000624,43.499793 6.60005021,38.5500539 C7.19995114,37.0498945 7.95000373,35.3999091 9.00008821,34.5000305 C11.2499746,32.6998392 17.9999593,29.6999003 17.9999593,29.6999003 L22.1999715,37.8000014 L22.9499698,35.8499298 L21.7500051,33.4498918 L24.1500431,31.0500709 L26.5500811,33.4498918 L25.4999423,35.9998643 L26.1000604,37.9499902 L30.4500071,29.9999864 C30.4500071,29.9999864 37.1999376,32.9998711 39.4500411,34.8000624 C40.4999084,35.5498979 41.249961,36.9000685 41.6999817,38.0998704 C37.6500126,43.3499671 31.2000054,46.6499379 24.0001086,46.6499379 L24.0001629,46.6499379 Z" id="形状" fill="#DCDFE6" fill-rule="nonzero"></path>
    </g>
</svg>