<?xml version="1.0" encoding="UTF-8"?>
<svg width="16px" height="19px" viewBox="0 0 16 19" version="1.1" xmlns="http://www.w3.org/2000/svg" xmlns:xlink="http://www.w3.org/1999/xlink">
    <title>excel</title>
    <g id="现舱管理功能" stroke="none" stroke-width="1" fill="none" fill-rule="evenodd">
        <g id="上传拖书后界面" transform="translate(-32.000000, -177.000000)" fill-rule="nonzero">
            <g id="编组-18备份" transform="translate(16.000000, 158.000000)">
                <g id="编组-17" transform="translate(16.000000, 18.000000)">
                    <g id="excel" transform="translate(0.000000, 1.000000)">
                        <path d="M2.98780087,0.325286093 L2.98780087,0.325286093 C2.78263977,0.327165787 2.61707954,0.517205624 2.6166728,0.751286756 L2.6166728,17.7810192 C2.6166728,17.8941622 2.65536319,18.0021618 2.72560692,18.0823047 L2.72560693,18.0823048 C2.79506446,18.1618255 2.88940138,18.2065906 2.98780072,18.2065906 L14.4987509,18.2065906 L14.4987509,18.2065906 C14.7041089,18.205646 14.8700872,18.0153174 14.8698792,17.781019 L14.8698792,3.91671214 L11.5244726,0.324845794 L2.98779264,0.324845794 L2.98780087,0.325286093 Z" id="路径" fill="#FFFFFF"></path>
                        <path d="M3.08057683,0.428564998 C2.87397761,0.429428561 2.706445,0.621001057 2.706445,0.85714285 L2.706445,18.0000183 C2.706445,18.2361619 2.87397761,18.4277334 3.08057683,18.4285906 L14.6910821,18.4285906 L14.6910821,18.4285906 C14.8975021,18.4290661 15.0651768,18.2385338 15.0655956,18.0030236 C15.0655956,18.0020215 15.0655956,18.0010194 15.0655956,18.0000174 L15.0655956,4.04313728 L11.6908893,0.428564998 L3.08059224,0.428564998 L3.08057683,0.428564998 Z M3.08057683,0 L11.6908739,0 C11.7859096,0 11.8771893,0.0415715774 11.9466809,0.115714487 L15.3210112,3.73028677 C15.3968894,3.81171547 15.4400882,3.92442902 15.4400882,4.04314445 L15.4400882,18.0000245 L15.4400882,18.0000232 C15.4407109,18.4727008 15.105366,18.856457 14.6910748,18.8571679 C14.6910742,18.8571679 14.6910737,18.8571679 14.6910731,18.8571679 L3.08019663,18.8571679 L3.08019662,18.8571679 C2.66590384,18.8564583 2.3305594,18.4727027 2.33117995,18.0000269 C2.33117995,18.0000262 2.33117995,18.0000256 2.33117995,18.0000249 L2.33117995,0.85714949 L2.33117995,0.857150903 C2.33055729,0.384473232 2.66590223,0.000717038039 3.0801934,0 C3.08019397,0 3.08019454,0 3.08019511,0 L3.08057683,0 Z" id="形状" fill="#E6E7E6"></path>
                        <path d="M4.32619261,4.20643681 L8.08779959,4.20643681 L8.08779959,2.92629314 L4.32619261,2.92629314 L4.32619261,4.20643681 L4.32619261,4.20643681 Z M4.32619261,6.33987456 L13.7302181,6.33987456 L13.7302181,5.48658786 L4.32619261,5.48658786 L4.32619261,6.33987456 Z M4.32619261,8.04687705 L13.7302181,8.04687705 L13.7302181,7.19359035 L4.32619261,7.19359035 L4.32619261,8.04644798 L4.32619261,8.04687705 Z M4.32619261,9.75387954 L13.7302181,9.75387954 L13.7302181,8.90016376 L4.32619261,8.90016376 L4.32619261,9.75387954 Z" id="形状" fill="#E6E7E6"></path>
                        <polygon id="路径" fill="#65C250" points="0.336945579 16.9950198 12.5901519 16.9950198 12.5901519 11.1428718 0.336945579 11.1428718"></polygon>
                        <path d="M2.51488233,13.0855833 C2.85032361,13.0855833 3.10951202,13.2128692 3.28493413,13.4768695 C3.444579,13.7138694 3.52834514,14.041299 3.53247713,14.4600128 L1.96833376,14.4600128 C1.98448611,14.6875842 2.03632363,14.8654419 2.13211046,14.9880134 C2.22789728,15.1062992 2.3593696,15.1701565 2.52690221,15.1701565 C2.67452672,15.1701565 2.79435459,15.1294422 2.88600878,15.0518707 C2.95775505,14.9880134 3.01748095,14.883442 3.07382685,14.7467272 L3.49641588,14.7467272 C3.44871018,14.965299 3.35667975,15.1521562 3.21318771,15.2978702 C3.03363361,15.475299 2.80637447,15.5661557 2.53103419,15.5661557 C2.22789664,15.5661557 1.98448563,15.4568699 1.80906352,15.2430131 C1.61748954,15.0154418 1.52170336,14.7102982 1.52170336,14.3237263 C1.52170336,13.9731543 1.60960197,13.6817264 1.79291165,13.4451537 C1.96833376,13.2038686 2.21174477,13.0851531 2.51488233,13.0851531 L2.51488233,13.0855833 Z M2.52690266,13.4815828 C2.36725779,13.4815828 2.24367449,13.5317267 2.1478867,13.6410124 C2.06036368,13.7455839 2.00026219,13.8955842 1.97659657,14.0961552 L3.08960309,14.0961552 C3.04978577,13.6864409 2.86196787,13.4815828 2.52690266,13.4815828 L2.52690266,13.4815828 Z M3.76386871,13.1494399 L4.25858024,13.1494399 L4.71309854,13.8955832 L5.16386092,13.1494399 L5.65894853,13.1494399 L4.94449128,14.2508695 L5.74647235,15.5023002 L5.25176082,15.5023002 L4.71310015,14.6057286 L4.17068357,15.5023002 L3.67184006,15.5023002 L4.47795311,14.2508695 L3.76387033,13.1494399 L3.76386871,13.1494399 Z M6.92333579,13.085154 C7.18665618,13.085154 7.39813793,13.1537256 7.55778264,13.2904393 C7.71742751,13.4361538 7.82110303,13.6547251 7.86092019,13.9461549 L7.44208707,13.9461549 C7.41429011,13.7862975 7.35832045,13.6680117 7.27042248,13.5951538 C7.18289947,13.5180109 7.06720471,13.4815823 6.92333579,13.4815823 C6.74791367,13.4815823 6.61231034,13.5544395 6.51239056,13.7044394 C6.40871535,13.8501539 6.36100966,14.0597257 6.36100966,14.323726 C6.36100966,14.5877263 6.40871535,14.7968695 6.50863416,14.9472978 C6.60028901,15.0930123 6.73589331,15.1701549 6.91957939,15.1701549 C7.23473683,15.1701549 7.41015894,14.9880118 7.44997609,14.6331547 L7.86880922,14.6331547 C7.82110352,14.9472978 7.71329633,15.1838705 7.55365178,15.338584 C7.3943825,15.488584 7.1787678,15.5661553 6.91544741,15.5661553 C6.60028997,15.5661553 6.35687896,15.4478695 6.18145685,15.2112981 C6.00979226,14.9837267 5.92602435,14.692297 5.92602435,14.3284403 C5.92602435,13.9727249 6.00979097,13.6817261 6.17769933,13.4541529 C6.35687735,13.2085806 6.60442034,13.0855818 6.9233353,13.0855818 L6.92333579,13.085154 Z M9.10578221,13.0851529 C9.44084903,13.0851529 9.70003744,13.2128684 9.87583401,13.4768693 C10.0351033,13.7138692 10.119245,14.0412989 10.1230025,14.4600126 L8.55923364,14.4600126 C8.57501032,14.687584 8.62684792,14.8654417 8.72263426,14.9880132 C8.81842109,15.106299 8.95026949,15.1701563 9.11780209,15.1701563 C9.2654266,15.1701563 9.38487839,15.129442 9.47690866,15.0518705 C9.54827934,14.9880132 9.60838083,14.8834418 9.66435065,14.746727 L10.0873158,14.746727 C10.0392345,14.9652988 9.94757947,15.152156 9.80371152,15.29787 C9.6245335,15.4752988 9.39689827,15.5661555 9.121558,15.5661555 C8.81842044,15.5661555 8.57500943,15.4568698 8.39958732,15.2430129 C8.20801335,15.0154416 8.11222717,14.710298 8.11222717,14.3237261 C8.11222717,13.9731541 8.20012578,13.6817262 8.38381153,13.4451535 C8.55923364,13.2038684 8.80264465,13.0851529 9.10578221,13.0851529 L9.10578221,13.0851529 Z M9.11780252,13.4815827 C8.95815765,13.4815827 8.83457435,13.5317265 8.73841049,13.6410123 C8.65088747,13.7455837 8.59116157,13.895584 8.56712036,14.096155 L9.68012688,14.096155 C9.64030956,13.6864407 9.45286773,13.4815827 9.11780091,13.4815827 L9.11780252,13.4815827 Z M10.5301907,12.1890115 L10.9527797,12.1890115 L10.9527797,15.5022927 L10.5298146,15.5022927 L10.5298146,12.1890115 L10.5301907,12.1890115 Z" id="形状" fill="#FFFFFF"></path>
                    </g>
                </g>
            </g>
        </g>
    </g>
</svg>