<?xml version="1.0" encoding="UTF-8"?>
<svg width="117px" height="101px" viewBox="0 0 117 101" version="1.1" xmlns="http://www.w3.org/2000/svg" xmlns:xlink="http://www.w3.org/1999/xlink">
    <title>暂无数据 (2)</title>
    <defs>
        <filter x="-5.9%" y="-6.0%" width="111.8%" height="111.9%" filterUnits="objectBoundingBox" id="filter-1">
            <feOffset dx="0" dy="2" in="SourceAlpha" result="shadowOffsetOuter1"></feOffset>
            <feGaussianBlur stdDeviation="4" in="shadowOffsetOuter1" result="shadowBlurOuter1"></feGaussianBlur>
            <feColorMatrix values="0 0 0 0 0   0 0 0 0 0   0 0 0 0 0  0 0 0 0.1 0" type="matrix" in="shadowBlurOuter1" result="shadowMatrixOuter1"></feColorMatrix>
            <feMerge>
                <feMergeNode in="shadowMatrixOuter1"></feMergeNode>
                <feMergeNode in="SourceGraphic"></feMergeNode>
            </feMerge>
        </filter>
    </defs>
    <g id="页面-1" stroke="none" stroke-width="1" fill="none" fill-rule="evenodd">
        <g id="及时通备份" transform="translate(-1033.000000, -452.000000)" fill="#B3B3B3" fill-rule="nonzero">
            <g id="编组备份" filter="url(#filter-1)" transform="translate(918.000000, 339.000000)">
                <g id="暂无数据-(2)" transform="translate(130.000000, 128.000000)">
                    <path d="M59.5687227,16 L23.4312773,16 C23.1976688,16 23,16.1985407 23,16.4331797 L23,62.5668203 C23,62.8014593 23.1976688,63 23.4312773,63 L59.5687227,63 C59.8023312,63 60,62.8014593 60,62.5668203 L60,16.4331797 C60,16.1804916 59.8023312,16 59.5687227,16 Z M51.0869354,48.7772657 C51.0869354,49.0119048 50.8892666,49.2104455 50.6556581,49.2104455 L32.326372,49.2104455 C32.0927635,49.2104455 31.8950947,49.0119048 31.8950947,48.7772657 L31.8950947,46.7377112 C31.8950947,46.5030722 32.0927635,46.3045315 32.326372,46.3045315 L50.6556581,46.3045315 C50.8892666,46.3045315 51.0869354,46.5030722 51.0869354,46.7377112 L51.0869354,48.7772657 Z M51.0869354,40.5107527 C51.0869354,40.7453917 50.8892666,40.9439324 50.6556581,40.9439324 L32.326372,40.9439324 C32.0927635,40.9439324 31.8950947,40.7453917 31.8950947,40.5107527 L31.8950947,38.4711982 C31.8950947,38.2365591 32.0927635,38.0380184 32.326372,38.0380184 L50.6556581,38.0380184 C50.8892666,38.0380184 51.0869354,38.2365591 51.0869354,38.4711982 L51.0869354,40.5107527 Z M51.0869354,32.2622888 C51.0869354,32.4969278 50.8892666,32.6954685 50.6556581,32.6954685 L32.326372,32.6954685 C32.0927635,32.6954685 31.8950947,32.4969278 31.8950947,32.2622888 L31.8950947,30.2227343 C31.8950947,29.9880952 32.0927635,29.7895545 32.326372,29.7895545 L50.6556581,29.7895545 C50.8892666,29.7895545 51.0869354,29.9880952 51.0869354,30.2227343 L51.0869354,32.2622888 Z" id="形状" opacity="0.35"></path>
                    <g id="编组">
                        <path d="M59.6486314,10.5086064 L59.6486314,10.5086064 C45.4875773,10.399711 33.7996698,21.0896093 32.5172975,34.8104294 C29.1281707,31.3439259 24.3833932,29.166018 19.1256668,29.1297195 L19.1256668,29.1297195 C8.72013161,29.0571226 0.219835251,37.351322 0.146556834,47.6600864 L0,66.0634086 L32.169225,66.2993487 L37.6834259,66.3356471 L86.2486967,66.6986318 L86.468532,37.4965159 C86.5967692,22.704891 74.5791088,10.6175018 59.6486314,10.5086064 Z" id="路径" opacity="0.1"></path>
                        <path d="M14.7289618,8.80257854 C14.1060953,8.80257854 13.5381875,9.00222011 13.0801974,9.3289063 C13.1168366,9.14741397 13.1351562,8.96592164 13.1351562,8.78442931 C13.1534758,7.27804297 11.9260624,6.04389513 10.3872156,6.0257459 C8.84836884,6.00759666 7.62095536,7.22359527 7.60263576,8.74813085 C7.60263576,8.80257854 7.60263576,8.85702624 7.60263576,8.91147394 C7.30952209,8.80257854 6.97976921,8.72998161 6.65001634,8.72998161 C5.12948918,8.71183238 3.8837561,9.92783099 3.86543649,11.4523666 C3.84711689,12.9406037 5.03789116,14.1566023 6.52177911,14.21105 L6.52177911,14.21105 L14.6923226,14.2654977 C16.2128497,14.2836469 17.4585828,13.0676483 17.4769024,11.5431127 C17.495222,10.0185772 16.249489,8.82072778 14.7289618,8.80257854 Z" id="路径" opacity="0.3"></path>
                        <path d="M84.2518599,2.77703319 C83.6289933,2.77703319 83.0610856,2.97667476 82.6030955,3.30336095 C82.6397347,3.12186862 82.6580543,2.94037629 82.6580543,2.75888396 C82.6763739,1.25249762 81.4489604,0.0183497779 79.9101137,0.000200544864 C78.3712669,-0.0179486881 77.1438534,1.19804992 77.1255338,2.72258549 C77.1255338,2.77703319 77.1255338,2.83148089 77.1255338,2.88592859 C76.8324201,2.77703319 76.5026673,2.70443626 76.1729144,2.70443626 C74.6523872,2.68628703 73.4066542,3.90228564 73.3883346,5.42682121 C73.3700149,6.91505831 74.5607892,8.13105692 76.0446772,8.18550462 L76.0446772,8.18550462 L84.2152207,8.23995232 C85.7357478,8.25810156 86.9814809,7.04210294 86.9998005,5.51756737 C87.0181201,3.9930318 85.772387,2.79518243 84.2518599,2.77703319 Z" id="路径" opacity="0.3"></path>
                        <g transform="translate(63.733903, 57.823657)" opacity="0.1">
                            <g transform="translate(1.612125, 0.000000)" id="路径">
                                <path d="M0.677825357,0 C0.293113668,0 0,0.290387728 0,0.671521621 C0,0.943760115 0.146556834,1.16155091 0.366392085,1.27044631 L0.274794063,13.085597 L0.915980212,13.085597 L1.00757823,1.23414784 C1.20909388,1.12525245 1.33733111,0.907461649 1.33733111,0.671521621 C1.35565071,0.290387728 1.06253705,0.018149233 0.677825357,0 Z"></path>
                                <path d="M14.4908069,0.762267786 C14.4908069,0.417432359 14.1976933,0.108895398 13.8129816,0.0907461649 C13.4282699,0.0907461649 13.1351562,0.381133893 13.1351562,0.762267786 C13.1351562,1.01635705 13.2817131,1.23414784 13.4832287,1.34304324 L13.3916307,13.1763432 L14.0328168,13.1763432 L14.1244149,1.34304324 C14.3442501,1.23414784 14.4724873,1.01635705 14.4908069,0.762267786 Z"></path>
                            </g>
                            <polygon id="矩形" transform="translate(8.534462, 3.790311) rotate(-89.573251) translate(-8.534462, -3.790311) " points="7.0365199 -4.66470151 10.0312327 -4.66449214 10.032404 12.2453232 7.03769115 12.2451138"></polygon>
                            <polygon id="路径" points="2.01515647 2.23235566 1.97851726 2.28680336 0.201515647 5.2269791 0.0732784169 5.2269791 0.0915980212 2.23235566"></polygon>
                            <polygon id="路径" points="6.28362425 2.26865412 4.46998343 5.26327757 2.1800329 5.24512833 2.89449747 4.04727896 3.95703451 2.25050489"></polygon>
                            <polygon id="路径" points="10.552092 2.30495259 8.73845122 5.2814268 6.44850069 5.26327757 8.2255023 2.28680336"></polygon>
                            <polygon id="路径" points="14.8205598 2.34125106 13.0252386 5.31772527 10.7169685 5.29957603 12.5122897 2.32310182"></polygon>
                            <polygon id="路径" points="17.0005927 2.34125106 16.9822731 5.35402373 14.9854363 5.3358745 16.7807575 2.34125106"></polygon>
                            <polygon id="矩形" transform="translate(8.498001, 8.421927) rotate(-89.573251) translate(-8.498001, -8.421927) " points="7.00005992 -0.0330555991 9.99477021 -0.0328462222 9.99594146 16.8769101 7.00123116 16.8767007"></polygon>
                            <polygon id="路径" points="1.97851726 6.86041007 1.94187805 6.91485777 0.164876438 9.85503351 0.0366392085 9.85503351 0.0549588127 6.86041007"></polygon>
                            <polygon id="路径" points="6.24698504 6.89670854 4.43334422 9.89133198 2.1433937 9.87318275 2.85785826 8.67533337 3.92039531 6.8785593"></polygon>
                            <polygon id="路径" points="10.5154528 6.933007 8.70181201 9.90948121 6.41186148 9.89133198 8.18886309 6.91485777"></polygon>
                            <polygon id="路径" points="14.7839206 6.96930547 13.006919 9.94577968 10.6803293 9.92763045 12.4756505 6.95115623"></polygon>
                            <polygon id="路径" points="16.9639535 6.9874547 16.9456339 9.98207814 14.9487971 9.96392891 16.7441183 6.9874547"></polygon>
                            <path d="M16.9822731,5.35402373 C16.9822731,5.35402373 16.9822731,5.3358745 16.9822731,5.29957603 L16.9822731,5.13623294 C16.9822731,5.00918831 16.9822731,4.80954674 16.9822731,4.55545748 C16.9822731,4.04727896 17.0005927,3.3031604 17.0005927,2.34125106 L17.0189123,2.35940029 L0.109917625,2.26865412 L0.109917625,2.26865412 L0.12823723,2.25050489 C0.12823723,3.26686194 0.109917625,4.28321899 0.109917625,5.24512833 L0.0915980212,5.2269791 L12.1458976,5.3358745 L15.7182204,5.35402373 L16.6891595,5.35402373 L16.6891595,5.35402373 L15.7182204,5.35402373 L12.1458976,5.3358745 L0.0915980212,5.2814268 L0.0366392085,5.2814268 L0.0549588127,2.23235566 L0.0732784169,2.23235566 L16.9822731,2.37754952 L17.0005927,2.37754952 L17.0005927,2.39569875 C17.0005927,3.3576081 16.9822731,4.10172666 16.9822731,4.60990518 C16.9822731,4.88214367 16.9822731,5.063636 16.9822731,5.19068064 L16.9822731,5.31772527 C16.9822731,5.31772527 16.9822731,5.35402373 16.9822731,5.35402373 Z" id="路径"></path>
                            <path d="M16.9456339,9.98207814 C16.9456339,9.98207814 16.9456339,9.96392891 16.9456339,9.92763045 L16.9456339,9.76428735 C16.9456339,9.63724272 16.9456339,9.43760115 16.9456339,9.18351189 C16.9456339,8.67533337 16.9639535,7.93121482 16.9639535,6.96930547 L16.9822731,6.9874547 L0.0732784169,6.89670854 L0.0732784169,6.89670854 L0.0915980212,6.8785593 C0.0915980212,7.89491635 0.0732784169,8.9112734 0.0732784169,9.87318275 L0.0549588127,9.85503351 L12.1092584,9.96392891 L15.6815812,9.98207814 L16.6525202,9.98207814 L16.6525202,9.98207814 L15.6815812,9.98207814 L12.1092584,9.96392891 L0.0549588127,9.90948121 L0,9.90948121 L0.0183196042,6.8785593 L0.0366392085,6.8785593 L16.9456339,7.02375317 L16.9639535,7.02375317 L16.9639535,7.0419024 C16.9639535,8.00381175 16.9456339,8.7479303 16.9456339,9.25610882 C16.9456339,9.52834732 16.9456339,9.70983965 16.9456339,9.83688428 L16.9456339,9.96392891 C16.9456339,9.94577968 16.9456339,9.98207814 16.9456339,9.98207814 Z" id="路径"></path>
                        </g>
                    </g>
                </g>
            </g>
        </g>
    </g>
</svg>