<?xml version="1.0" encoding="UTF-8"?>
<svg width="56px" height="56px" viewBox="0 0 56 56" version="1.1" xmlns="http://www.w3.org/2000/svg" xmlns:xlink="http://www.w3.org/1999/xlink">
    <title>极速抢舱</title>
    <g id="客户端-舱单功能" stroke="none" stroke-width="1" fill="none" fill-rule="evenodd">
        <g id="画板" transform="translate(-486.000000, -93.000000)">
            <g id="极速抢舱" transform="translate(486.000000, 93.000000)">
                <rect id="矩形" stroke="#F2F3F5" fill="#FFDB8F" x="0.5" y="0.5" width="55" height="55" rx="12"></rect>
                <g id="1_qianggoumiaosha-30" transform="translate(13.000000, 13.000000)" fill-rule="nonzero">
                    <path d="M17.9739472,22.1422123 L27.2835405,13.7753176 L28.4041067,14.4174199 C28.4041067,14.4174199 29.6011561,20.3795438 24.9552528,25.3367154 C26.2216706,26.9161802 26.9758294,27.8713296 26.9758294,27.8713296 C26.9758294,27.8713296 27.8829545,29.0808296 26.714364,30.0253069 C25.4888558,31.0160298 24.5799521,30.1373635 24.1744138,29.6055392 C23.7688756,29.0754936 22.4064093,27.4978075 22.4064093,27.4978075 C22.4064093,27.4978075 19.2439223,29.8278738 14.8221323,29.6944731 C10.5924394,29.5664083 9.00052388,28.3320068 7.52600099,27.4568979 C6.48369652,28.7713399 5.56056337,29.931037 5.56056337,29.931037 C5.56056337,29.931037 4.43643977,31.0106937 3.32298823,30.0679951 C2.21131536,29.1252966 2.84274555,28.1310163 3.0668588,27.8233053 C3.29097205,27.5155942 3.68405957,27.0246795 3.68405957,27.0246795 L16.7555538,21.6459615 L17.9739472,22.1422123 Z" id="路径" fill="#F48E00"></path>
                    <path d="M9.55191362,1.93288894 C9.55191362,1.93288894 3.98821327,4.14022658 1.22948589,9.75017252 C-0.287725239,6.76199586 -0.6096657,4.02639128 1.4642712,1.74968525 C3.33010293,-0.299350177 7.89596572,-0.918329628 9.55191362,1.93288894 Z" id="路径" fill="#FCAE43"></path>
                    <path d="M20.4480864,1.93288894 C20.4480864,1.93288894 26.0117867,4.14022658 28.7705141,9.75017252 C30.2877252,6.76199586 30.6096657,4.02639128 28.5357288,1.74968525 C26.6698971,-0.299350177 22.1040343,-0.918329628 20.4480864,1.93288894 L20.4480864,1.93288894 Z" id="路径" fill="#FF9809"></path>
                    <path d="M15,2.66392501 C7.53133702,2.66392501 1.47672193,8.7185401 1.47672193,16.1872031 C1.47672193,16.4148737 1.48205796,16.6407656 1.4945087,16.8648789 C1.49806605,16.9431406 1.50518076,17.0196237 1.51051679,17.0961068 C1.51941017,17.2419583 1.53008223,17.3878098 1.54431164,17.5318826 C1.55320503,17.6261524 1.56743444,17.7168649 1.5781065,17.8111348 C1.59411459,17.9374208 1.608344,18.0654856 1.62613077,18.1899929 C1.64036018,18.2895988 1.65992562,18.3892047 1.67593371,18.4888106 C1.69549915,18.6044246 1.71506459,18.7218172 1.73818739,18.8374312 C1.75953151,18.9423731 1.7826543,19.0437577 1.8057771,19.1486996 C1.83067857,19.2571989 1.85380137,19.3656981 1.88048152,19.4724187 C1.90716167,19.5791393 1.93739917,19.6840812 1.96585799,19.7908018 C1.99431682,19.8921864 2.02099697,19.993571 2.05301315,20.0949555 C2.08502932,20.2034548 2.12060286,20.3119541 2.15617639,20.4204533 C2.18819257,20.5147232 2.21843007,20.6107717 2.25222492,20.7032629 C2.29135581,20.8135409 2.33226537,20.9238188 2.37495361,21.0340968 C2.40874846,21.1230306 2.44254332,21.2101858 2.47811685,21.2973409 C2.52436244,21.4093975 2.57238671,21.5214542 2.62041098,21.6317321 C2.65598451,21.7135512 2.69333672,21.7953703 2.73068892,21.8754108 C2.78404922,21.9892461 2.83740952,22.1013027 2.89254849,22.2133593 C2.9299007,22.2880638 2.96903159,22.3627682 3.00638379,22.4374726 C3.0668588,22.5530866 3.1273338,22.6669219 3.19136616,22.7807572 C3.22871837,22.8483469 3.26784925,22.9159366 3.30698014,22.9817476 C3.37456985,23.0991403 3.44393823,23.2147543 3.5150853,23.3285896 C3.55243751,23.3890646 3.59156839,23.4477609 3.6289206,23.5064572 C3.70540369,23.6256286 3.78366546,23.7430212 3.86370591,23.8586352 C3.89927944,23.9102168 3.93663165,23.9600198 3.97220518,24.0098227 C4.05758166,24.1307727 4.14473681,24.2517227 4.23544931,24.370894 C4.26568682,24.4118036 4.29948167,24.4509345 4.32971917,24.491844 C4.42754639,24.6181301 4.5253736,24.7426374 4.62853684,24.8635875 C4.64988096,24.8902676 4.67300375,24.9151691 4.69612655,24.9418492 C4.80996185,25.07525 4.92557583,25.2086507 5.04474716,25.3384941 L3.42259412,27.3786361 C4.75660155,27.5760692 6.07993693,27.6578884 7.38548554,27.6347656 L7.52600099,27.4568979 C7.52777967,27.4568979 7.52777967,27.4586766 7.52955835,27.4586766 C7.61315615,27.5155942 7.7003113,27.5689545 7.78568778,27.6223148 C16.6025876,27.3163825 24.4999116,22.1635564 28.4041067,14.4174199 C27.5361126,7.7847349 21.869249,2.66392501 15,2.66392501 L15,2.66392501 Z" id="路径" fill="#FF9809"></path>
                    <path d="M25.8588205,0.220023386 C23.8560307,-0.311800913 21.5313004,0.0688358761 20.4480864,1.93111026 C20.4480864,1.93111026 22.5575968,2.76886693 24.8236308,4.72185382 C25.2505132,3.44298536 25.576011,2.11253527 25.7876735,0.734060918 C25.8143536,0.565086643 25.8356977,0.392555014 25.8588205,0.220023386 Z M24.2313315,6.30843333 C21.81411,4.04951407 18.5698039,2.66392501 15,2.66392501 C7.53133702,2.66392501 1.47672193,8.7185401 1.47672193,16.1872031 C1.47672193,16.4148737 1.48205796,16.6407656 1.4945087,16.8648789 C1.49806605,16.9431406 1.50518076,17.0196237 1.51051679,17.0961068 C1.51941017,17.2419583 1.53008223,17.3878098 1.54431164,17.5318826 C1.55320503,17.6261524 1.56743444,17.7168649 1.5781065,17.8111348 C1.59411459,17.9374208 1.608344,18.0654856 1.62613077,18.1899929 C1.64036018,18.2895988 1.65992562,18.3892047 1.67593371,18.4888106 C1.69549915,18.6044246 1.71506459,18.7218172 1.73818739,18.8374312 C1.75953151,18.9423731 1.7826543,19.0437577 1.8057771,19.1486996 C1.83067857,19.2571989 1.85380137,19.3656981 1.88048152,19.4724187 C1.90716167,19.5791393 1.93739917,19.6840812 1.96585799,19.7908018 C1.99431682,19.8921864 2.02099697,19.993571 2.05301315,20.0949555 C2.08502932,20.2034548 2.12060286,20.3119541 2.15617639,20.4204533 C2.18819257,20.5147232 2.21843007,20.6107717 2.25222492,20.7032629 C2.29135581,20.8135409 2.33226537,20.9238188 2.37495361,21.0340968 C2.38740434,21.0678916 2.40163376,21.1016865 2.41586317,21.1354813 C12.0153807,20.9860725 20.5957165,15.0844236 24.2313315,6.30843333 Z" id="形状" fill="#FFA830"></path>
                    <path d="M16.9565442,2.80621914 C16.3179993,2.71372796 15.665225,2.66392501 15,2.66392501 C8.46336355,2.66392501 3.00994115,7.30093487 1.75063813,13.4640492 C8.05782529,12.1371565 13.5681653,8.25964155 16.9565442,2.80621914 Z" id="路径" fill="#FCAE43"></path>
                    <path d="M17.5168274,7.7847349 L10.099746,15.9595325 C9.94500115,16.1302854 10.0179269,16.4042016 10.2367041,16.4753487 L13.7495904,17.6083657 C13.9132286,17.661726 14.0057198,17.8360363 13.9559168,17.9996745 L12.431591,23.1400498 C12.3373212,23.4566543 12.7321874,23.6878822 12.9634153,23.4513182 L20.9799107,15.2391685 C21.1666717,15.0470714 21.0475004,14.7251309 20.7806989,14.7020081 L17.0276913,14.3765103 C16.9367422,14.3685318 16.8536154,14.3218295 16.7994921,14.2483036 C16.7453688,14.1747776 16.7254758,14.0815283 16.7448817,13.9923162 L18.0611024,8.0657658 C18.1322495,7.74916137 17.7356046,7.54461356 17.5168274,7.7847349 Z" id="路径" fill="#FFFFFF"></path>
                </g>
            </g>
        </g>
    </g>
</svg>