<?xml version="1.0" encoding="UTF-8"?>
<svg width="120px" height="100px" viewBox="0 0 120 100" version="1.1" xmlns="http://www.w3.org/2000/svg" xmlns:xlink="http://www.w3.org/1999/xlink">
    <title>zanweikaifang</title>
    <g id="及时通抢舱任务" stroke="none" stroke-width="1" fill="none" fill-rule="evenodd">
        <g id="功能暂未开放弹窗" transform="translate(-159.000000, -91.000000)" fill-rule="nonzero">
            <g id="编组" transform="translate(142.000000, 91.000000)">
                <g id="zanweikaifang" transform="translate(17.000000, 0.000000)">
                    <polygon id="路径" fill="#FF9809" points="91.0344828 26.8041237 104.482759 26.8041237 104.482759 100 91.0344828 100"></polygon>
                    <path d="M98.3426905,84.5211725 L98.3426905,38.8397843 C98.3426906,37.0855403 97.6426727,35.4031605 96.3966618,34.1628191 C95.150651,32.9224776 93.4607353,32.225798 91.6987468,32.2260706 L44.6656948,32.2260706 L32.4421183,18.556701 L13.8853232,18.556701 C12.1231558,18.556701 10.4330836,19.2532492 9.18704303,20.4938129 C7.94100251,21.7343767 7.24137931,23.4170205 7.24137931,25.1714426 L7.24137931,85.1388636 C7.24137931,88.7915168 10.2155122,91.7525773 13.8842909,91.7525773 L105.517241,91.7525773 L98.3426905,84.5211725 L98.3426905,84.5211725 Z" id="路径" fill="#FF9809"></path>
                    <path d="M58.3338994,15.4639175 C56.5807037,15.4639175 54.8993293,16.1553276 53.6597291,17.3860167 C52.4201289,18.6167059 51.7241379,20.2858415 51.7241379,22.0261636 L51.7241379,85.1913508 C51.7241379,86.9318347 52.4195239,88.6009455 53.6593036,89.8306019 C54.8989685,91.0608146 56.5799702,91.7525773 58.3328722,91.7525773 L108.217825,91.7525773 C111.867825,91.7514518 114.826452,88.8145498 114.827586,85.1913508 L114.827586,40.0040261 L89.886137,15.4639175 L58.3338994,15.4639175 Z" id="路径" fill="#EDF0F6"></path>
                    <path d="M114.827586,39.0413112 L90,14.4329897 L90,32.5944975 C89.9997289,34.3397296 90.6928136,36.0135743 91.9267548,37.2477357 C93.160696,38.481897 94.8343945,39.1752577 96.5795865,39.1752577 L114.827586,39.0423337 L114.827586,39.0413112 Z" id="路径" fill="#CAD3E8"></path>
                    <path d="M90.6406218,93.3942631 L90.6406218,47.0627434 C90.6400551,43.4143296 87.6835831,40.4570065 84.036786,40.4570065 L37.4189999,40.4570065 L25.2681883,26.8041237 L6.60280971,26.8041237 C2.9561786,26.8041237 0,29.7616129 0,33.4098606 L0,93.3942631 L0,93.3932366 C0,97.0412496 2.95538728,99.9988664 6.60178363,100 L97.2413793,100 C93.595452,99.9983007 90.6402681,97.0418067 90.6385696,93.3942631 L90.6406218,93.3942631 L90.6406218,93.3942631 Z" id="路径" fill="#FFE5C0"></path>
                    <path d="M24.8275862,64.2866885 C24.8275862,66.1982284 26.3736755,67.7478377 28.2808732,67.7478377 C30.188071,67.7478377 31.7341602,66.1982284 31.7341602,64.2866885 C31.7341602,62.3751486 30.188071,60.8255393 28.2808732,60.8255393 C26.3736755,60.8255393 24.8275862,62.3751486 24.8275862,64.2866885 Z M57.2298803,64.2866885 C57.2304722,65.5228841 57.8886453,66.6649742 58.9567258,67.2831843 C60.0248062,67.9013944 61.3407249,67.9019182 62.409295,67.2845587 C63.8613098,66.4453326 64.5023833,64.6822295 63.9295814,63.1034132 C63.3567795,61.5245969 61.7355235,60.5860191 60.0848221,60.8776045 C58.4341207,61.1691899 57.2306855,62.6067306 57.2309121,64.2866885 L57.2298803,64.2866885 Z M40.5855941,78.3505155 L40.2327336,78.3505155 C39.8211226,78.1512046 39.6437744,77.6588269 39.8334441,77.241955 C39.8334441,76.8417564 41.7370337,73.1603428 44.5692037,73.0269433 C46.3407285,73.0269433 48.0235224,74.3568022 49.483457,77.153022 C49.6279028,77.5459818 49.4628219,77.9834082 49.0965486,78.1829905 C48.7311141,78.383596 48.2741586,78.2849507 48.0235224,77.951351 C46.8720828,75.7776624 45.6773095,74.6236013 44.6146009,74.6680678 C43.5518923,74.7125343 41.6926682,77.0640889 41.3387759,77.863452 C41.2022669,78.1575085 40.9091733,78.3466422 40.5855941,78.3494814 L40.5855941,78.3505155 Z" id="形状" fill="#E98700"></path>
                    <path d="M104.696605,13.4020619 C104.008457,13.4037411 103.451029,13.9498798 103.449315,14.6240912 L103.448276,21.8788721 C103.448276,22.5543426 104.007172,23.1019196 104.696605,23.1019196 C105.386038,23.1019196 105.944934,22.5543426 105.944934,21.8788721 L105.944934,14.6240912 C105.943216,13.9490864 105.384525,13.4026209 104.695565,13.4020619 L104.696605,13.4020619 Z M117.673612,25.8107515 L110.26991,25.8107515 C109.600281,25.8375297 109.071494,26.3771853 109.071494,27.0337992 C109.071494,27.690413 109.600281,28.2300686 110.26991,28.2568469 L117.673612,28.2568469 C117.976994,28.7693949 118.611948,28.9948764 119.180069,28.7918124 C119.74819,28.5887484 120.085784,28.015649 119.981026,27.4321065 C119.876268,26.8485641 119.359343,26.4227179 118.754596,26.4217661 C118.531177,26.0438871 118.11934,25.8111004 117.673612,25.8107515 L117.673612,25.8107515 Z M114.863053,19.126251 C115.355587,18.6439728 115.35582,17.8618175 114.863573,17.3792582 C114.371326,16.8966988 113.573003,16.8964709 113.080469,17.378749 L107.862641,22.5336761 C107.412339,23.0227167 107.431989,23.7716546 107.907343,24.2373815 C108.382697,24.7031084 109.147116,24.7223611 109.646265,24.2811781 L114.864093,19.126251 L114.863053,19.126251 Z" id="形状" fill="#CAD3E8"></path>
                    <path d="M36.3986808,5.62080459 L39.9737963,6.61437098 L36.3986808,7.56561507 L35.3953714,13.4020619 L34.4347561,7.56561507 L31.0344828,6.61437098 L34.4347561,5.62080459 L35.3953714,1.94481048 L36.3986808,5.62080459 Z M46.821103,2.89706224 L49.6551724,3.67498644 L46.821103,4.41058833 L46.0790404,8.9924812 L45.2942837,4.40958065 L42.6350565,3.67397876 L45.2942837,2.89706224 L46.0800569,0 L46.821103,2.89706224 Z" id="形状" fill="#FF9809"></path>
                </g>
            </g>
        </g>
    </g>
</svg>