<?xml version="1.0" encoding="UTF-8"?>
<svg width="56px" height="56px" viewBox="0 0 56 56" version="1.1" xmlns="http://www.w3.org/2000/svg" xmlns:xlink="http://www.w3.org/1999/xlink">
    <title>运价监控</title>
    <defs>
        <path d="M27.6735617,0 L2.31907627,0 C1.70274345,0 1.11176126,0.245338507 0.676641555,0.681843941 C0.241521852,1.11834937 -0.00193943497,1.71010867 1.16369047e-05,2.32643837 L1.16369047e-05,18.4637965 C-0.00193942879,19.0801262 0.241521861,19.6718855 0.676641563,20.1083909 C1.11176126,20.5448964 1.70274345,20.7902349 2.31907627,20.7902349 L27.6735617,20.7902349 C28.9584181,20.7902349 30,19.7486529 30,18.4637965 L30,2.32643837 C30,1.04158195 28.9584181,0 27.6735617,0 Z M15.7459491,20.7976204 L15.745,22.378 L22.9616008,22.3781214 C23.3604188,22.3781214 23.5598278,22.5775304 23.5598278,22.9763484 L23.5598278,23.1683719 C23.5598278,23.5671899 23.3604188,23.7665989 22.9616008,23.7665989 L7.03842267,23.7665989 C6.63960465,23.7665989 6.44019565,23.5671899 6.44019565,23.1683719 L6.44019565,22.9763484 C6.44019565,22.5775304 6.63960465,22.3781214 7.03842267,22.3781214 L14.239,22.378 L14.2393033,20.7976204 L15.7459491,20.7976204 Z M24.9113777,6.02658319 C25.025941,6.16051172 25.0812013,6.33522431 25.0644919,6.51067345 C25.0477824,6.6861226 24.9605361,6.84726313 24.8227515,6.95715852 L16.8094638,13.3456321 L12.3781526,8.61890022 L6.0266066,14.8079648 C5.90528848,14.9235278 5.74362869,14.9871316 5.57608997,14.9852593 C5.39759713,14.9832223 5.22839378,14.9053351 5.11080231,14.7710372 C4.86005483,14.5201406 4.86005483,14.113515 5.11080231,13.8626184 L12.3855381,6.76513505 L16.912861,11.5731077 L24.0029589,5.92318593 C24.2840701,5.7069247 24.6860576,5.75267938 24.9113777,6.02658319 Z" id="path-1"></path>
        <filter x="-10.0%" y="-4.2%" width="113.3%" height="116.8%" filterUnits="objectBoundingBox" id="filter-2">
            <feOffset dx="-1" dy="1" in="SourceAlpha" result="shadowOffsetOuter1"></feOffset>
            <feGaussianBlur stdDeviation="0.5" in="shadowOffsetOuter1" result="shadowBlurOuter1"></feGaussianBlur>
            <feColorMatrix values="0 0 0 0 0.878431373   0 0 0 0 0.125490196   0 0 0 0 0.125490196  0 0 0 1 0" type="matrix" in="shadowBlurOuter1"></feColorMatrix>
        </filter>
    </defs>
    <g id="客户端-舱单功能" stroke="none" stroke-width="1" fill="none" fill-rule="evenodd">
        <g id="画板" transform="translate(-577.000000, -93.000000)">
            <g id="运价监控" transform="translate(577.000000, 93.000000)">
                <rect id="矩形" stroke="#F2F3F5" fill="#FA6400" x="0.5" y="0.5" width="55" height="55" rx="12"></rect>
                <g id="ziyuanxhdpi" transform="translate(13.000000, 16.000000)" fill-rule="nonzero">
                    <g id="形状">
                        <use fill="black" fill-opacity="1" filter="url(#filter-2)" xlink:href="#path-1"></use>
                        <use fill="#FFFFFF" xlink:href="#path-1"></use>
                    </g>
                </g>
            </g>
        </g>
    </g>
</svg>