<?xml version="1.0" encoding="UTF-8"?>
<svg width="18px" height="19px" viewBox="0 0 18 19" version="1.1" xmlns="http://www.w3.org/2000/svg" xmlns:xlink="http://www.w3.org/1999/xlink">
    <title>zhengcezhinanzhen</title>
    <defs>
        <linearGradient x1="0.94260756%" y1="-3.33447507e-13%" x2="99.0573924%" y2="100%" id="linearGradient-1">
            <stop stop-color="#96C9FD" offset="0%"></stop>
            <stop stop-color="#3388FF" offset="100%"></stop>
        </linearGradient>
    </defs>
    <g id="概况（暂缓" stroke="none" stroke-width="1" fill="none" fill-rule="evenodd">
        <g id="zhengcezhinanzhen" fill="url(#linearGradient-1)" fill-rule="nonzero">
            <path d="M2.29396021,0 L14.405304,0 C14.8933287,0.00595152029 15.3793695,0.164658728 15.770186,0.460250902 C16.2502753,0.81535828 16.5855443,1.36091431 16.6768009,1.95209865 C16.7144939,2.17825643 16.7085424,2.40838188 16.7085424,2.63850733 C16.7085424,4.77311927 16.7105262,6.90773122 16.7065585,9.04035932 C16.6986232,9.11971292 16.6688655,9.19509885 16.6232372,9.26056557 C16.5002391,9.43911118 16.2463076,9.50656174 16.0518913,9.41133742 C15.5559313,9.16930893 15.0222783,9.0046502 14.4747384,8.93323195 C13.6970731,8.83007227 12.8936178,8.90744203 12.1516617,9.16137356 C11.5902349,9.35380605 11.0605496,9.64543055 10.6002987,10.0183925 C9.67582921,10.7583648 9.02314582,11.8296385 8.79500421,12.9921688 C8.65018388,13.7182543 8.66407076,14.4760812 8.83864869,15.1962151 C8.97950134,15.7834318 9.22748135,16.3448586 9.56671801,16.8467701 C9.60837865,16.9062853 9.65400697,16.9677843 9.67384537,17.0392026 C9.72740905,17.2098128 9.67582921,17.406213 9.54092808,17.5252434 C9.4576068,17.6006293 9.34651175,17.64229 9.23343287,17.64229 L2.47845734,17.64229 C2.27015413,17.6442738 2.06185092,17.6383223 1.85751539,17.5946778 C1.44090897,17.5113565 1.05009247,17.3090048 0.738629576,17.0193642 C0.264491793,16.5829194 -0.0152296602,15.942139 0.000641060526,15.297391 L0.000641060526,2.31910907 C-0.00927813996,1.63071656 0.320039316,0.950259406 0.855676142,0.519766105 C1.25244416,0.188464809 1.77221027,0.00595152029 2.29396021,0 M3.69653516,3.86253667 C3.51997339,3.89626195 3.37316922,4.04306612 3.3374601,4.21764404 C3.30175098,4.37635125 3.35531466,4.55092918 3.47632891,4.66004039 C3.56560171,4.74534551 3.6885998,4.78700615 3.81159789,4.78502231 L12.8003774,4.78502231 C12.891634,4.78502231 12.9868583,4.78700615 13.0741473,4.75328087 C13.2487252,4.68781415 13.3737071,4.50926854 13.3737071,4.32278757 C13.3816425,4.12440356 13.2427737,3.93395491 13.0543089,3.87443971 C12.9729715,3.84666595 12.8856825,3.84864979 12.8003774,3.85063363 L3.81358173,3.85063363 C3.77192108,3.85261747 3.73422812,3.85460131 3.69653516,3.86253667 M3.6786806,7.66159045 C3.51005419,7.70325109 3.37118538,7.84807142 3.3374601,8.01868167 C3.30373482,8.17540504 3.3572985,8.34998297 3.47831275,8.45909417 C3.56560171,8.54439929 3.6885998,8.5840761 3.80961405,8.58209226 L8.77119813,8.58209226 C8.89816389,8.58605994 9.0271135,8.54439929 9.12035398,8.45711033 C9.28104503,8.31229 9.31675415,8.05042311 9.19970759,7.86790982 C9.1163863,7.72507334 8.95172758,7.64175205 8.78706885,7.64571973 L3.80961405,7.64571973 C3.76596956,7.64571973 3.72232508,7.64968741 3.6786806,7.66159045 M15.4527716,10.1473421 C16.1649702,10.4469019 16.787896,10.9507973 17.23426,11.5816585 C17.6131734,12.1153115 17.8631373,12.7382373 17.9563778,13.3849691 C18.065489,14.1408122 17.9702647,14.9283967 17.6667371,15.63266 C17.4147894,16.227812 17.0200052,16.7634488 16.5260291,17.1800552 C16.0022953,17.6264193 15.3694503,17.939866 14.6969285,18.0807186 C13.9113278,18.2473612 13.078115,18.1858622 12.3302073,17.8982053 C11.3363034,17.5212757 10.4991229,16.7475781 10.0468073,15.7834318 C9.75121513,15.1644737 9.61631401,14.4701297 9.65003929,13.7857048 C9.68178073,13.1250861 9.87421322,12.4704188 10.2074984,11.8990729 C10.5328481,11.3376462 10.9911152,10.8535892 11.5327035,10.4984818 C12.1318232,10.1076653 12.8321188,9.87158832 13.5463012,9.82794384 C14.1950169,9.78429936 14.8536519,9.89341056 15.4527716,10.1473421 Z M15.0222783,11.7780587 C14.2545322,11.9804103 13.486786,12.1906974 12.7190399,12.3930491 C12.6357186,12.4049521 12.5484297,12.4168552 12.4750276,12.4624835 C12.3421103,12.5358856 12.246886,12.6727705 12.2290314,12.8235424 C12.2210961,12.8989283 12.2012577,12.9723304 12.1814193,13.0457325 C12.0127928,13.6746098 11.8441664,14.3015033 11.67554,14.9303806 C11.6338794,15.099007 11.5684127,15.2676334 11.5902349,15.4441951 C11.6100733,15.7219328 11.774732,15.9818158 12.0167605,16.1206846 C12.2131607,16.2357473 12.457173,16.2655049 12.6773793,16.2040059 C13.2923697,16.0393472 13.9073601,15.8746885 14.5243344,15.7100297 C14.690977,15.6683691 14.8556357,15.6088539 15.0282298,15.5890155 C15.248436,15.5533064 15.4170624,15.346987 15.4269816,15.1267807 C15.6114788,14.4225175 15.8019274,13.7222219 15.9903922,13.0199426 C16.0221337,12.8909929 16.067762,12.7640272 16.0657782,12.6291261 C16.0697458,12.3751945 15.9546831,12.121263 15.7562991,11.9585881 C15.5539474,11.7899617 15.2762098,11.7205273 15.0222783,11.7780587 Z M12.94123,13.7876887 L14.0303582,14.8768169 C13.5343982,15.0097342 13.0364543,15.1426515 12.5404943,15.2755687 C12.6773793,14.7815926 12.8083127,14.2836487 12.94123,13.7876887 Z M15.1036157,12.7124473 C14.9687146,13.2183266 14.8338135,13.7222219 14.6969285,14.2281012 L13.5899457,13.1211184 L13.5899457,13.1211184 C14.0938411,12.9842334 14.5997203,12.8513161 15.1036157,12.7124473 Z M5.71013286,11.3733553 C5.79345414,11.3733553 5.87875927,11.3674038 5.96009671,11.3912098 C6.12673928,11.4368382 6.25965656,11.5776908 6.29139801,11.7463172 C6.33107481,11.9288305 6.24775352,12.1311822 6.08904632,12.232358 C6.01366039,12.2799702 5.92438759,12.3097278 5.83511478,12.3057601 L5.83511478,12.3057601 L3.79374332,12.3057601 C3.63305228,12.3117116 3.47434507,12.220455 3.39300763,12.0815862 C3.31167018,11.9447012 3.30571866,11.7681395 3.37912074,11.6272868 C3.43863595,11.5102402 3.54973099,11.4209674 3.6786806,11.389226 C3.75208268,11.3693876 3.82548477,11.3733553 3.89888685,11.3733553 Z" id="形状"></path>
        </g>
    </g>
</svg>