<?xml version="1.0" encoding="UTF-8"?>
<svg width="12px" height="14px" viewBox="0 0 12 14" version="1.1" xmlns="http://www.w3.org/2000/svg" xmlns:xlink="http://www.w3.org/1999/xlink">
    <title>形状</title>
    <g id="页面-1" stroke="none" stroke-width="1" fill="none" fill-rule="evenodd">
        <path d="M6.00803034,0.00033459214 C7.76356407,0.00033459214 9.18670534,1.42347587 9.18670534,3.17900959 C9.18670534,4.74492528 8.05409325,6.04650904 6.56346196,6.30950258 L6.56279278,8.04438992 L8.22206113,8.04438992 L8.22206113,9.04818203 L6.56279278,9.04818203 L6.56279278,10.9747937 C8.01881614,10.8375446 9.36074334,10.1277072 10.2935534,9.00133839 L9.36906089,8.44557217 L12,6.99007362 L11.950145,9.99643098 L11.1628374,9.52331029 C10.0385079,10.9472387 8.37170705,11.8382927 6.56312737,11.9822663 L6.56312737,13.5568816 L5.55933527,13.5568816 L5.55933527,11.9852777 C3.72153606,11.8497267 2.02692567,10.9427984 0.894713357,9.48884676 L0.0495204053,9.99643098 L0,6.99007362 L2.63093911,8.44557217 L1.76232433,8.96754407 C2.70408949,10.1232058 4.07351869,10.8484747 5.55866607,10.9781397 L5.55866607,9.04784744 L3.87329912,9.04784744 L3.87329912,8.04405533 L5.55866607,8.04405533 L5.55866607,6.32589784 C4.04494757,6.11175553 2.87419139,4.83158599 2.83035913,3.26901629 L2.82902074,3.178675 C2.82902074,1.42314127 4.25216202,0 6.00769574,0 L6.00803034,0.00033459214 Z M6.00803034,1.0041267 C5.23101951,1.0041267 4.51303189,1.41865702 4.12452647,2.09156814 C3.73602105,2.76447925 3.73602105,3.59353994 4.12452647,4.26645105 C4.51303189,4.93936217 5.23101951,5.35389249 6.00803034,5.35389249 C7.20918498,5.35389249 8.1829132,4.38016424 8.1829132,3.17900959 C8.1829132,1.97785495 7.20918498,1.0041267 6.00803034,1.0041267 L6.00803034,1.0041267 Z" id="形状" fill="#969799" fill-rule="nonzero"></path>
    </g>
</svg>