<?xml version="1.0" encoding="UTF-8"?>
<svg width="18px" height="18px" viewBox="0 0 18 18" version="1.1" xmlns="http://www.w3.org/2000/svg" xmlns:xlink="http://www.w3.org/1999/xlink">
    <title>a-yiwenbangzhu</title>
    <defs>
        <linearGradient x1="1.8564885e-13%" y1="-3.33447507e-13%" x2="100%" y2="100%" id="linearGradient-1">
            <stop stop-color="#96C9FD" offset="0%"></stop>
            <stop stop-color="#3388FF" offset="100%"></stop>
        </linearGradient>
    </defs>
    <g id="页面-1" stroke="none" stroke-width="1" fill="none" fill-rule="evenodd">
        <g id="及时通" transform="translate(-26.000000, -852.000000)" fill="url(#linearGradient-1)" fill-rule="nonzero">
            <g id="工具组" transform="translate(0.000000, 50.000000)">
                <g id="编组-9" transform="translate(24.000000, 802.000000)">
                    <g id="a-yiwenbangzhu" transform="translate(2.000000, 0.000000)">
                        <path d="M9,6.8127322e-16 C4.05,6.8127322e-16 6.8127322e-16,4.05 6.8127322e-16,9 C6.8127322e-16,13.95 4.05,18 9,18 C13.95,18 18,13.95 18,9 C18,4.05 13.95,6.8127322e-16 9,6.8127322e-16 Z M9,13.9090909 C8.54999999,13.9090909 8.18181817,13.5409091 8.18181817,13.0909091 C8.18181817,12.6409091 8.54999999,12.2727273 9,12.2727273 C9.45000001,12.2727273 9.81818183,12.6409091 9.81818183,13.0909091 C9.81818183,13.5409091 9.45000001,13.9090909 9,13.9090909 L9,13.9090909 Z M10.3909091,9.65454545 C10.0227273,9.85909091 9.81818181,10.2272727 9.81818183,10.6363636 C9.81818183,11.0863636 9.45000001,11.4545455 9,11.4545455 C8.54999999,11.4545455 8.18181817,11.0863636 8.18181817,10.6363636 C8.18181817,9.61363636 8.71363635,8.67272727 9.61363636,8.22272728 C10.0636364,7.97727273 10.4318182,7.44545456 10.2681818,6.75 C10.1454545,6.25909091 9.77727272,5.85000001 9.28636363,5.76818182 C8.87727273,5.68636363 8.46818181,5.76818182 8.14090909,6.01363637 C7.81363636,6.25909091 7.65,6.62727273 7.65,7.03636363 C7.65,7.48636364 7.28181818,7.85454546 6.83181817,7.85454546 C6.38181817,7.85454546 6.01363637,7.48636364 6.01363637,7.03636363 C6.01363637,6.13636364 6.42272727,5.31818182 7.11818182,4.74545454 C7.81363638,4.17272726 8.71363637,3.96818181 9.61363636,4.13181817 C10.7181818,4.37727272 11.6590909,5.27727271 11.8636364,6.38181819 C12.15,7.73181819 11.5772727,9.0409091 10.3909091,9.65454545 L10.3909091,9.65454545 Z" id="形状"></path>
                    </g>
                </g>
            </g>
        </g>
    </g>
</svg>