<?xml version="1.0" encoding="UTF-8"?>
<svg width="56px" height="23px" viewBox="0 0 56 23" version="1.1" xmlns="http://www.w3.org/2000/svg" xmlns:xlink="http://www.w3.org/1999/xlink">
    <title>编组 28</title>
    <g id="页面-1" stroke="none" stroke-width="1" fill="none" fill-rule="evenodd">
        <g id="工作台-运价查询" transform="translate(-778.000000, -148.000000)">
            <g id="编组-6" transform="translate(16.000000, 72.000000)">
                <g id="编组-15" transform="translate(550.000000, 71.000000)">
                    <g id="编组-28" transform="translate(212.000000, 5.000000)">
                        <rect id="矩形" stroke="#FA6400" x="0.5" y="0.5" width="55" height="22" rx="2"></rect>
                        <g id="热门港口" transform="translate(4.396000, 6.040000)" fill="#FA6400" fill-rule="nonzero">
                            <path d="M10.332,8.136 C10.548,8.136 10.716,8.028 10.86,7.812 C11.052,7.512 11.184,6.84 11.244,5.784 L10.38,5.352 C10.368,5.808 10.344,6.192 10.296,6.516 C10.236,6.84 10.176,7.008 10.116,7.008 C10.044,7.008 9.972,6.888 9.9,6.672 C9.708,6.18 9.624,5.292 9.624,3.996 L9.624,1.584 L7.176,1.584 L7.176,0.108 L6.06,0.108 L6.06,1.584 L4.788,1.584 L4.788,2.7 L6.06,2.7 C6.036,3.276 5.976,3.816 5.88,4.32 C5.628,4.152 5.376,3.984 5.112,3.84 L4.5,4.728 C4.848,4.92 5.196,5.148 5.556,5.412 C5.208,6.276 4.68,6.972 3.972,7.512 L4.812,8.256 C5.52,7.704 6.072,6.996 6.468,6.144 C6.876,6.48 7.284,6.852 7.692,7.284 L8.34,6.312 C7.872,5.844 7.38,5.412 6.864,5.028 C7.044,4.332 7.152,3.564 7.176,2.7 L8.508,2.7 L8.508,3.996 C8.508,5.82 8.76,7.02 9.264,7.608 C9.552,7.944 9.9,8.124 10.332,8.136 Z M0.312,1.536 L0.312,2.64 L1.92,2.64 L1.92,4.476 C1.296,4.608 0.648,4.716 0,4.8 L0.264,5.868 C0.828,5.772 1.38,5.652 1.92,5.532 L1.92,6.696 C1.92,6.984 1.8,7.14 1.56,7.14 C1.236,7.14 0.9,7.104 0.552,7.056 L0.816,8.148 L1.956,8.148 C2.688,8.148 3.06,7.752 3.06,6.972 L3.06,5.256 C3.492,5.148 3.912,5.028 4.344,4.908 L4.344,3.816 C3.924,3.96 3.492,4.08 3.06,4.2 L3.06,2.64 L4.428,2.64 L4.428,1.536 L3.06,1.536 L3.06,0.108 L1.92,0.108 L1.92,1.536 L0.312,1.536 Z M1.548,8.436 C1.14,9.276 0.648,9.996 0.084,10.596 L1.02,11.28 C1.584,10.608 2.076,9.816 2.508,8.904 L1.548,8.436 Z M4.428,8.772 L3.36,8.988 C3.588,9.636 3.78,10.38 3.936,11.244 L5.076,10.98 C4.884,10.188 4.668,9.456 4.428,8.772 Z M6.912,8.604 L5.844,8.832 C6.18,9.516 6.468,10.308 6.696,11.22 L7.824,10.956 C7.56,10.116 7.26,9.324 6.912,8.604 Z M9.216,8.244 L8.292,8.832 C8.976,9.708 9.516,10.512 9.912,11.244 L10.86,10.572 C10.476,9.912 9.936,9.132 9.216,8.244 Z" id="形状"></path>
                            <path d="M21.168,11.1 C22.068,11.1 22.524,10.644 22.524,9.732 L22.524,0.648 L16.908,0.648 L16.908,1.704 L21.42,1.704 L21.42,9.42 C21.42,9.84 21.252,10.056 20.94,10.056 L19.896,10.032 L20.184,11.1 L21.168,11.1 Z M12.66,2.112 L12.66,11.208 L13.764,11.208 L13.764,2.112 L12.66,2.112 Z M14.664,0 L13.632,0.456 C14.16,1.104 14.652,1.836 15.108,2.676 L16.128,2.136 C15.708,1.368 15.216,0.648 14.664,0 Z" id="形状"></path>
                            <path d="M27.744,1.332 L27.744,2.376 L29.064,2.376 L29.064,3.54 L27.276,3.54 L27.276,4.596 L29.004,4.596 C28.572,5.316 27.816,5.964 26.736,6.564 L27.324,7.524 C27.756,7.26 28.152,6.972 28.512,6.66 L28.512,9.948 C28.512,10.62 28.896,10.968 29.676,10.968 L33.552,10.968 C34.104,10.944 34.452,10.728 34.608,10.308 C34.704,10.044 34.788,9.612 34.86,9.012 L33.78,8.664 C33.732,9.216 33.672,9.552 33.612,9.672 C33.54,9.828 33.396,9.912 33.192,9.924 L30.12,9.924 C29.784,9.924 29.628,9.78 29.628,9.504 L29.628,8.592 L33.264,8.592 L33.264,6.24 C33.672,6.6 34.176,6.936 34.752,7.248 L35.232,6.264 C34.272,5.856 33.54,5.292 33.06,4.596 L34.836,4.596 L34.836,3.54 L33.024,3.54 L33.024,2.376 L34.452,2.376 L34.452,1.332 L33.024,1.332 L33.024,0.156 L31.92,0.156 L31.92,1.332 L30.168,1.332 L30.168,0.156 L29.064,0.156 L29.064,1.332 L27.744,1.332 Z M29.436,5.676 C29.7,5.34 29.916,4.98 30.084,4.596 L31.944,4.596 C32.136,4.98 32.388,5.34 32.7,5.676 L29.436,5.676 Z M30.168,3.54 L30.168,2.376 L31.92,2.376 L31.92,3.54 L30.168,3.54 Z M29.628,7.632 L29.628,6.624 L32.196,6.624 L32.196,7.632 L29.628,7.632 Z M25.152,0.3 L24.348,1.08 C25.26,1.728 25.968,2.34 26.472,2.904 L27.276,2.112 C26.7,1.512 25.992,0.9 25.152,0.3 Z M24.924,3.252 L24.132,4.032 C24.972,4.656 25.632,5.232 26.112,5.784 L26.904,4.98 C26.376,4.404 25.716,3.828 24.924,3.252 Z M25.848,6.816 C25.392,8.136 24.852,9.42 24.24,10.68 L25.38,11.184 C25.932,9.96 26.436,8.64 26.88,7.224 L25.848,6.816 Z" id="形状"></path>
                            <path d="M46.092,1.464 L37.128,1.464 L37.128,11.004 L38.28,11.004 L38.28,10.32 L44.928,10.32 L44.928,11.004 L46.092,11.004 L46.092,1.464 Z M38.28,9.204 L38.28,2.58 L44.928,2.58 L44.928,9.204 L38.28,9.204 Z" id="形状"></path>
                        </g>
                    </g>
                </g>
            </g>
        </g>
    </g>
</svg>