<?xml version="1.0" encoding="UTF-8"?>
<svg width="10px" height="10px" viewBox="0 0 10 10" version="1.1" xmlns="http://www.w3.org/2000/svg" xmlns:xlink="http://www.w3.org/1999/xlink">
    <title>-jinbi备份 2</title>
    <defs>
        <linearGradient x1="6.11261636%" y1="16.5369599%" x2="87.9862165%" y2="82.1863169%" id="linearGradient-1">
            <stop stop-color="#D3830D" offset="0%"></stop>
            <stop stop-color="#D3830D" offset="54.8908688%"></stop>
            <stop stop-color="#BF790A" offset="56.9262549%"></stop>
            <stop stop-color="#BF790A" offset="100%"></stop>
        </linearGradient>
    </defs>
    <g id="客户端-舱单功能" stroke="none" stroke-width="1" fill="none" fill-rule="evenodd">
        <g id="画板" transform="translate(-225.000000, -101.000000)" fill-rule="nonzero">
            <g id="-jinbi备份-2" transform="translate(225.000000, 101.000000)">
                <path d="M0,4.99986044 C0,6.78613855 0.952967969,8.43672761 2.49993019,9.32986668 C4.0468924,10.2230057 5.95282847,10.2230057 7.49979068,9.32986668 C9.0467529,8.43672761 9.99972087,6.78613855 9.99972087,4.99986044 C9.99972087,2.23851377 7.7612071,0 4.99986044,0 C2.23851377,0 0,2.23851377 0,4.99986044 L0,4.99986044 Z" id="路径" fill="#FFD96B"></path>
                <path d="M8.53659207,1.46647692 L1.46647692,8.53770811 C3.4195474,10.4885465 6.58352159,10.4885465 8.53547603,8.53659207 C10.4874305,6.58352159 10.4885465,3.4195474 8.53659207,1.46647692 Z" id="路径" fill="#FDC223"></path>
                <path d="M1.36491726,4.99986044 C1.36491726,7.00738412 2.99233675,8.63480361 4.99986044,8.63480361 C7.00738412,8.63480361 8.63480361,7.00738412 8.63480361,4.99986044 C8.63480361,2.99233675 7.00738412,1.36491726 4.99986044,1.36491726 C2.99233675,1.36491726 1.36491726,2.99233675 1.36491726,4.99986044 Z" id="路径" fill="#F9AB10"></path>
                <path d="M7.49197837,2.35930914 C6.06791098,1.01448061 3.82467002,1.03568538 2.42961968,2.42961968 C1.03568538,3.82467002 1.01448061,6.06791098 2.35930914,7.49197837 L7.49197837,2.35930914 Z" id="路径" fill="#F9B721"></path>
                <path d="M7.25694029,3.08562815 C7.01353035,3.49150283 6.75000184,3.90358734 6.46635475,4.32188168 L6.95069085,4.32188168 C6.63606239,4.94733605 6.21584924,5.51379024 5.70855505,5.99630102 C5.96413548,6.21091284 6.49765032,6.30182479 6.96484837,6.39795301 L6.74130863,7.0075102 C6.14073187,6.90094947 5.49321177,6.59691605 5.2093163,6.39348193 C4.73557818,6.66455638 4.23098339,6.87771561 3.70638414,7.02837524 L3.4277046,6.56263777 C3.8524301,6.47917762 4.39637679,6.2645658 4.89636067,6.00002692 C4.7255913,5.69507157 4.65397477,5.34451888 4.69144925,4.99701471 C4.36582636,5.59315867 3.7376797,6.26978206 2.87407119,6.90318501 L2.43965897,6.58126727 C3.34429334,5.99902319 4.04315647,5.20537608 4.53624838,4.20032593 L4.80607762,4.19991068 L4.80607762,4.06067017 L4.60206032,4.06229236 C4.64625495,3.96688269 4.68866399,3.86963856 4.72928744,3.77055998 L4.90475639,3.76953093 L4.90475639,3.63029043 L4.78490923,3.63086999 C4.78804355,3.62276151 4.79116632,3.61464116 4.79427752,3.60650894 L2.34279175,3.60725412 L2.43979175,3.33862815 L4.9712898,3.33915118 L4.9712898,3.19991068 L2.49079175,3.19962815 L2.53205539,3.08562815 L7.25694029,3.08562815 Z M6.34268009,3.59989951 L5.46152452,3.59989951 L5.30117559,4.03277271 C5.21921946,4.81499532 5.25128925,5.3563994 5.39738495,5.65698495 C5.64442314,5.41132961 5.86240544,5.13902372 6.04717992,4.84525393 L5.45923382,4.84525393 C5.51013825,4.7727333 5.59311246,4.66445248 5.70815645,4.52041149 C6.00187498,4.12329847 6.21338286,3.81646115 6.34268009,3.59989951 Z" id="形状" fill="url(#linearGradient-1)"></path>
            </g>
        </g>
    </g>
</svg>