<?xml version="1.0" encoding="UTF-8"?>
<svg width="160px" height="128px" viewBox="0 0 160 128" version="1.1" xmlns="http://www.w3.org/2000/svg" xmlns:xlink="http://www.w3.org/1999/xlink">
    <!-- Generator: Sketch 64 (93537) - https://sketch.com -->
    <title>undraw_Lost_re_xqjt</title>
    <desc>Created with Sketch.</desc>
    <g id="注册/登录/后台" stroke="none" stroke-width="1" fill="none" fill-rule="evenodd">
        <g id="若未进行认证的个人账号，登录后反馈界面" transform="translate(-640.000000, -243.000000)" fill-rule="nonzero">
            <g id="编组-2" transform="translate(128.000000, 117.000000)">
                <g id="undraw_Lost_re_xqjt" transform="translate(512.000000, 126.000000)">
                    <path d="M26.8276262,127.879847 C26.8276262,127.879847 24.5246014,122.211043 31.4334953,117.959485 L26.8276262,127.879847 Z" id="aabd4afe-642c-4327-a3f2-08ec89276309" fill="#F0F0F0"></path>
                    <path d="M23.9953084,127.776724 C23.9953084,127.776724 23.2928253,123.736273 17.8553535,123.770945 L23.9953084,127.776724 Z" id="e302a207-98de-4798-aedc-79a63cff2427" fill="#F0F0F0"></path>
                    <path d="M103.938236,127.879847 C103.938236,127.879847 101.635211,122.211043 108.544105,117.959485 L103.938236,127.879847 Z" id="e16a8a0b-115e-4877-a9d6-27a72cf85b73" fill="#F0F0F0"></path>
                    <path d="M101.105918,127.776724 C101.105918,127.776724 100.403435,123.736273 94.965963,123.770945 L101.105918,127.776724 Z" id="b0706b48-08e0-43ea-ab25-36cfaee90c12" fill="#F0F0F0"></path>
                    <circle id="椭圆形" fill="#F0F0F0" cx="102.041297" cy="71.1567549" r="20.0185824"></circle>
                    <polygon id="路径" fill="#F0F0F0" points="102.096253 71.1566591 102.151332 71.1566591 103.141309 127.912777 101.051377 127.912777"></polygon>
                    <circle id="椭圆形" fill="#F0F0F0" cx="145.020981" cy="86.5165544" r="14.6009752"></circle>
                    <polygon id="路径" fill="#F0F0F0" points="145.061129 86.5164786 145.101219 86.5164786 145.823205 127.912777 144.298871 127.912777"></polygon>
                    <path d="M64.1676045,86.6648415 C64.7337884,86.5998397 65.2421004,86.2873916 65.5557633,85.8115713 C65.8694262,85.3357509 65.9562197,84.745436 65.7927892,84.1994691 L71.3430953,80.1963052 L68.0186257,78.9337156 L63.2576325,82.9287512 C62.3384596,83.2716252 61.8210048,84.2477989 62.0531615,85.200975 C62.2853182,86.1541511 63.1937052,86.7830452 64.1675991,86.6648415 L64.1676045,86.6648415 Z" id="路径" fill="#FFB6B6"></path>
                    <polygon id="路径" fill="#FFB6B6" points="60.0986005 125.932822 58.3362528 125.932641 57.4977878 119.134989 60.0989616 119.134989"></polygon>
                    <path d="M60.5480307,127.641165 L54.8653761,127.640955 L54.8653761,127.569082 C54.8654608,126.347553 55.8556952,125.357334 57.0772244,125.35727 L57.0773634,125.35727 L60.5481354,125.35741 L60.5480307,127.641165 Z" id="路径" fill="#2F2E41"></path>
                    <polygon id="路径" fill="#FFB6B6" points="46.6371106 125.932822 44.874763 125.932641 44.0364786 119.134989 46.6374718 119.134989"></polygon>
                    <path d="M47.086642,127.641165 L41.4039874,127.640955 L41.4039874,127.569082 C41.4040721,126.347553 42.3943054,125.357335 43.6158339,125.35727 L43.6159747,125.35727 L47.0867467,125.35741 L47.086642,127.641165 Z" id="路径" fill="#2F2E41"></path>
                    <polygon id="路径" fill="#2F2E41" points="47.9983747 88.132009 44.2634763 108.557111 42.9571106 124.780677 47.1983747 124.572099 49.6126411 108.817698 55.613544 95.100316 57.3995485 124.534176 61.3038375 124.546817 63.404605 87.3150339"></polygon>
                    <path d="M63.8826998,64.7536397 L58.647684,62.6706962 L52.6420641,63.3578293 L47.5508081,66.1723305 C47.5508081,66.1723305 49.1081896,85.7041842 46.8507377,90.2856433 C46.8507377,90.2856433 48.6594962,92.7910302 56.0293255,92.1794275 C56.0293255,92.1794275 63.2082185,91.2721029 63.3861707,88.9180135 C63.5641228,86.5639242 63.6016686,82.2837923 63.6016686,82.2837923 L66.0935693,73.6967494 L63.8826998,64.7536397 Z" id="路径" fill="#409EFF"></path>
                    <path d="M49.597181,66.5483124 L47.5508009,66.1723305 C47.5508009,66.1723305 45.373405,67.1270483 45.3957526,69.9719946 C45.4181002,72.8169409 41.5490257,82.3549291 46.177972,82.7548009 C50.8069183,83.1546727 49.597181,75.9910808 49.597181,75.9910808 L49.597181,66.5483124 Z" id="路径" fill="#409EFF"></path>
                    <path d="M62.2223314,65.9655693 L63.8826998,64.7536343 C63.8826998,64.7536343 66.4177084,65.3262971 67.3553986,67.3669887 C67.3553986,67.3669887 77.7510122,74.9064758 74.8916388,77.7658492 C72.0322655,80.6252226 66.2035449,84.1444497 66.2035449,84.1444497 L64.0454628,81.7009156 L69.3996515,76.8504163 L65.0072361,72.8489571 L62.2223314,65.9655693 Z" id="路径" fill="#409EFF"></path>
                    <path d="M59.5675991,57.2553499 C59.5660612,59.6279021 57.6422962,61.5504204 55.2697436,61.5504204 C52.8971909,61.5504204 50.973426,59.6279021 50.971888,57.2553499 L50.971888,57.0903856 C51.0635239,54.7519905 53.0091882,52.9166934 55.3489469,52.9616141 C57.6887055,53.0065347 59.5624909,54.9151608 59.5643034,57.2553499 L59.5675991,57.2553499 Z" id="路径" fill="#FFB6B6"></path>
                    <path d="M55.9229959,56.5625029 C56.1979359,56.5174122 56.4959729,56.474521 56.7423187,56.600995 C57.2778998,56.8748352 57.1547269,57.651265 57.4472596,58.1637526 C57.5627341,58.367209 57.7496939,58.5332713 57.8266727,58.7532226 C57.9036515,58.9731738 57.8563684,59.2481138 57.97734,59.4603666 C58.1522041,59.7672 58.6261995,59.8122889 58.9374266,59.62973 C59.2317937,59.4258038 59.4451148,59.1248956 59.5400921,58.7796172 C59.6434691,58.4870808 59.7303476,58.1637508 59.9800018,57.9723937 C60.0707389,57.9207215 60.1521535,57.8541774 60.2208488,57.7755377 C60.2724348,57.6713766 60.2923198,57.5543669 60.2780388,57.4390122 C60.2780388,56.6955756 60.1625643,56.1193011 60.3308244,55.3989598 C60.60026,54.2376144 60.8466113,53.6635395 59.9931973,52.8024289 C59.5563174,52.3670269 58.9940612,52.0793606 58.3853508,51.9798086 C57.8354637,51.8896289 57.0260515,52.6572605 56.4695729,52.6396731 C55.0541851,52.5835847 53.8598483,51.2726736 52.5104415,51.6960795 C51.9204354,51.8814252 51.4089175,52.2579064 51.0565634,52.7661454 C50.3967097,53.7383314 50.4560939,54.1144488 50.5517725,55.2746944 C50.5503363,55.3627858 50.5760618,55.4491826 50.6254519,55.52214 C50.6749436,55.5815278 50.7552235,55.6134212 50.8036117,55.673907 C50.8556755,55.753815 50.8753387,55.8505574 50.8586005,55.9444497 C50.8438795,56.1334423 50.7997233,56.318975 50.7277291,56.4943368 C50.6909591,56.5537401 50.6836544,56.6267861 50.7079332,56.6922944 C50.734997,56.7290285 50.7737993,56.7554134 50.8179106,56.7670772 C51.3677887,56.9650348 51.9616614,56.5834203 52.5500298,56.5933147 C53.1383982,56.603209 53.6970781,56.9969264 54.3041463,56.9111476 C54.8397363,56.8286447 55.3830176,56.6515828 55.9229959,56.5625029 Z" id="路径" fill="#2F2E41"></path>
                    <path d="M55.8945427,80.4559422 C55.8579094,80.4700239 55.8197804,80.4798526 55.7809047,80.4852352 L51.0085111,81.1514203 C50.7707095,81.1854661 50.5410767,81.0501228 50.4556804,80.8255874 L46.3477725,70.1364677 C46.2939397,69.9964336 46.3037458,69.8399 46.3746341,69.7076791 C46.4455224,69.5754582 46.5704671,69.4806544 46.7168921,69.4479856 L46.7169174,69.4479856 L51.2048632,68.4464758 C51.2395059,68.4386929 51.2729911,68.4264435 51.3044786,68.4100352 L55.6696397,66.1277905 C55.7033625,66.1101132 55.7389557,66.096261 55.7757562,66.0864921 L60.5796515,64.8058239 C60.8344782,64.7374003 61.0997835,64.8727177 61.1940081,65.1191729 L64.7758537,74.4394221 C64.839818,74.6044796 64.8142078,74.7908488 64.7080921,74.9325345 L63.4693526,76.5960271 C63.411085,76.6743157 63.3317761,76.7344409 63.2406609,76.7694014 L60.5334826,77.8097896 C60.5140765,77.8172542 60.4952706,77.8261941 60.4772298,77.8365309 L55.9661201,80.4219503 C55.9431678,80.4350995 55.9192381,80.4464637 55.8945427,80.4559422 L55.8945427,80.4559422 Z" id="路径" fill="#FFFFFF"></path>
                    <polygon id="路径" fill="#E4E4E4" points="58.1149129 66.2307395 57.5048758 66.3934393 55.8882835 66.8245995 55.8853941 66.8252605 53.6721571 67.9825138 52.8508081 68.4120542 52.8504253 68.4122005 51.6168361 69.0571088 51.583005 69.0647296 50.3015187 69.3505065 49.6821761 69.4889842 47.1560903 70.0526573 51.1217264 80.3715594 53.7248289 80.0083124 54.3630916 79.9190573 55.7234926 79.7289354 55.7392831 79.726902 60.1107503 77.2214537 62.7704686 76.1993029 63.9848217 74.5686357 60.5328163 65.5862302"></polygon>
                    <polygon id="矩形" fill="#FFFFFF" transform="translate(54.638698, 69.886114) rotate(-21.022150) translate(-54.638698, -69.886114) " points="47.5943842 69.5722165 61.6830127 69.5722165 61.6830127 70.2000124 47.5943842 70.2000124"></polygon>
                    <polygon id="矩形" fill="#FFFFFF" transform="translate(55.389399, 71.839497) rotate(-21.022150) translate(-55.389399, -71.839497) " points="48.3450847 71.5255987 62.4337131 71.5255987 62.4337131 72.1533947 48.3450847 72.1533947"></polygon>
                    <polygon id="矩形" fill="#FFFFFF" transform="translate(56.905804, 75.785316) rotate(-21.022150) translate(-56.905804, -75.785316) " points="49.8614897 75.4714184 63.9501181 75.4714184 63.9501181 76.0992144 49.8614897 76.0992144"></polygon>
                    <polygon id="路径" fill="#FFFFFF" points="58.1148533 66.2307901 62.052009 76.4754853 61.4660045 76.7006772 57.5048307 66.3934989"></polygon>
                    <polygon id="路径" fill="#FFFFFF" points="53.6722348 67.9824831 52.8637472 70.2320542 52.5834763 71.0121896 51.9295711 72.8328668 51.7894357 73.2220316 51.6491196 73.6131828 51.4645598 74.1265914 50.1392325 77.815079 49.7946727 76.918465 50.8753047 73.9106095 51.1198194 73.2296163 51.1555756 73.1302935 51.4446953 72.3250564 51.8094808 71.3097968 52.0899323 70.5293002 52.8503837 68.4122799 52.8507449 68.4120993"></polygon>
                    <polygon id="路径" fill="#FFFFFF" points="50.3015801 69.3504289 54.3629797 79.9190971 53.7247856 80.008307 49.682167 69.4889391"></polygon>
                    <circle id="椭圆形" fill="#FFB6B6" cx="49.4322257" cy="77.6008849" r="1.86958916"></circle>
                    <circle id="椭圆形" fill="#E4E4E4" cx="126.632074" cy="33.2235973" r="33.2235991"></circle>
                    <path d="M151.163308,11.0328433 C157.564063,26.0053062 152.17119,43.4102107 138.426172,52.1405487 C124.681155,60.8708867 106.634594,58.3538635 95.8029725,46.1957273 C100.976132,58.29833 112.805582,66.2064954 125.966541,66.3605276 C139.127501,66.5145599 151.138795,58.8854201 156.59379,46.9072065 C162.048785,34.9289929 159.919077,20.8599026 151.163308,11.0328433 Z" id="路径" fill="#000000" opacity="0.1"></path>
                    <polygon id="路径" fill="#E4E4E4" points="126.540858 33.2234763 126.449481 33.2234763 124.806501 127.417968 128.275034 127.417968"></polygon>
                    <path d="M150.790068,127.819684 L0.180586907,127.819684 C0.0808515124,127.819684 1.02651772e-14,127.738832 1.02651772e-14,127.639097 C1.02651772e-14,127.539362 0.0808515124,127.45851 0.180586907,127.45851 L150.790068,127.45851 C150.889803,127.45851 150.970655,127.539362 150.970655,127.639097 C150.970655,127.738832 150.889803,127.819684 150.790068,127.819684 Z" id="路径" fill="#CACACA"></path>
                </g>
            </g>
        </g>
    </g>
</svg>