<?xml version="1.0" standalone="no"?><!DOCTYPE svg PUBLIC "-//W3C//DTD SVG 1.1//EN" "http://www.w3.org/Graphics/SVG/1.1/DTD/svg11.dtd"><svg t="1645603209354" class="icon" viewBox="0 0 1024 1024" version="1.1" xmlns="http://www.w3.org/2000/svg" p-id="7679" xmlns:xlink="http://www.w3.org/1999/xlink" width="200" height="200"><defs><style type="text/css"></style></defs><path d="M864.4608 507.136h-225.1264c-3.1744 66.304-57.9072 119.0912-125.0304 119.0912S392.4992 573.44 389.3248 507.136H164.1984c-46.4896 0-84.224 37.6832-84.224 84.224v259.7888c0 46.4896 37.6832 84.224 84.224 84.224h700.2624c46.4896 0 84.224-37.6832 84.224-84.224V591.36c-0.0512-46.4896-37.7344-84.224-84.224-84.224z" fill="#FFAC3E" p-id="7680"></path><path d="M798.6688 842.5472H229.9904c-42.5984 0-77.1072-34.5088-77.1072-77.1072V170.6496c0-42.5984 34.5088-77.1072 77.1072-77.1072h568.6272c42.5984 0 77.1072 34.5088 77.1072 77.1072V765.44c0.0512 42.5984-34.4576 77.1072-77.056 77.1072z" fill="#FFAC3E" p-id="7681"></path><path d="M875.776 508.0064c-3.7376-0.512-7.4752-0.8704-11.3152-0.8704h-225.1264c-3.1744 66.304-57.9072 119.0912-125.0304 119.0912-67.072 0-121.8048-52.7872-125.0304-119.0912H164.1984c-3.84 0-7.6288 0.3584-11.3152 0.8704v257.4336c0 42.5984 34.5088 77.1072 77.1072 77.1072h568.6272c42.5984 0 77.1072-34.5088 77.1072-77.1072V508.0064z" fill="#FF7C0E" p-id="7682"></path><path d="M621.5168 297.7792H407.1424c-22.6304 0-40.96-18.3296-40.96-40.96s18.3296-40.96 40.96-40.96h214.3744c22.6304 0 40.96 18.3296 40.96 40.96s-18.3296 40.96-40.96 40.96zM621.5168 450.56H407.1424c-22.6304 0-40.96-18.3296-40.96-40.96s18.3296-40.96 40.96-40.96h214.3744c22.6304 0 40.96 18.3296 40.96 40.96s-18.3296 40.96-40.96 40.96z" fill="#FFFFFF" p-id="7683"></path></svg>