<?xml version="1.0" encoding="UTF-8"?>
<svg width="16px" height="13px" viewBox="0 0 16 13" version="1.1" xmlns="http://www.w3.org/2000/svg" xmlns:xlink="http://www.w3.org/1999/xlink">
    <!-- Generator: Sketch 64 (93537) - https://sketch.com -->
    <title>微信</title>
    <desc>Created with Sketch.</desc>
    <g id="注册/登录/后台" stroke="none" stroke-width="1" fill="none" fill-rule="evenodd">
        <g id="手机登录" transform="translate(-736.000000, -491.000000)">
            <g id="编组-17" transform="translate(505.000000, 99.000000)">
                <g id="编组-13" transform="translate(103.000000, 388.000000)">
                    <g id="微信" transform="translate(128.000000, 3.000000)">
                        <rect id="矩形" x="0" y="0" width="16" height="16"></rect>
                        <path d="M10.7460779,4.94001286 C10.9281747,4.94001286 11.1084106,4.95351881 11.2872473,4.97354481 C10.8010324,2.69382889 8.38113247,1 5.61847284,1 C2.5298075,1 0,3.11949875 0,5.81184748 C0,7.36642832 0.84156114,8.64157069 2.2480386,9.63170161 L1.68637756,11.3334578 L3.6503232,10.3414692 C4.35356432,10.4816517 4.91708779,10.6260254 5.61847125,10.6260254 C5.79451434,10.6260254 5.9696262,10.6167109 6.14287404,10.6036708 L6.14287405,10.6036708 C6.02931789,10.2186148 5.97098722,9.81938988 5.96962462,9.41794123 C5.96962462,6.94588512 8.07748713,4.94002674 10.7460699,4.94002674 M7.68580273,3.29137384 C8.16549753,3.29137384 8.55438014,3.68258069 8.55438014,4.16600036 L8.55438014,4.16600928 C8.55591671,4.64732933 8.16711326,5.03883545 7.6857948,5.04062785 C7.2061,5.04062785 6.81722199,4.64942099 6.81722199,4.16600132 C6.81722199,3.68304646 7.2061,3.29137384 7.6857948,3.29137384 M3.75510192,5.05833308 C3.27540712,5.05833308 2.88606429,4.66712527 2.88606429,4.1837056 C2.88606429,3.70075074 3.2749423,3.30907907 3.7546371,3.30907907 C4.2343319,3.30907907 4.62321451,3.70028593 4.62321451,4.1837056 L4.62321451,4.18371452 C4.62475108,4.66503457 4.23594764,5.05654069 3.75462917,5.05833308 M15.8345639,9.36813495 C15.8345639,7.10612013 13.5869805,5.26232543 11.0622987,5.26232543 C8.38905187,5.26232543 6.28399097,7.10658176 6.28399097,9.36813495 C6.28399097,11.6343363 8.38905187,13.4744061 11.0622987,13.4744061 C11.6216309,13.4744061 12.1860872,13.331895 12.7482162,13.1903147 L14.289292,14.0402584 L13.8664158,12.6263249 C14.9943956,11.7740523 15.8345639,10.6442165 15.8345639,9.36813018 M9.59387856,8.73428147 L9.59387859,8.73428147 C9.25119692,8.73274145 8.97457598,8.45382742 8.97586087,8.11114416 C8.97586087,7.76697573 9.25250381,7.48847325 9.594345,7.48847325 C9.93571978,7.48847325 10.2128246,7.76697573 10.2128246,8.11114416 C10.2128246,8.45531259 9.93571978,8.73428147 9.594345,8.73428147 M12.6830103,8.76967715 L12.6830103,8.76967715 C12.3401504,8.76839268 12.0632477,8.48940852 12.0645262,8.14654857 C12.0645262,8.14654566 12.0645262,8.14654275 12.0645262,8.14653984 C12.0645262,7.80237141 12.3411692,7.52386893 12.6830103,7.52386893 C13.0243851,7.52386893 13.30149,7.80237141 13.30149,8.14653984 C13.30149,8.49070827 13.0243851,8.76967715 12.6830103,8.76967715" id="形状" fill="#00CC00" fill-rule="nonzero"></path>
                    </g>
                </g>
            </g>
        </g>
    </g>
</svg>