<?xml version="1.0" encoding="UTF-8"?>
<svg width="14px" height="16px" viewBox="0 0 14 16" version="1.1" xmlns="http://www.w3.org/2000/svg" xmlns:xlink="http://www.w3.org/1999/xlink">
    <!-- Generator: Sketch 64 (93537) - https://sketch.com -->
    <title>iphone</title>
    <desc>Created with Sketch.</desc>
    <g id="注册/登录/后台" stroke="none" stroke-width="1" fill="none" fill-rule="evenodd">
        <g id="手机登录" transform="translate(-610.000000, -489.000000)">
            <g id="编组-17" transform="translate(505.000000, 99.000000)">
                <g id="编组-13" transform="translate(103.000000, 388.000000)">
                    <g id="iphone" transform="translate(0.000000, 2.000000)">
                        <rect id="矩形" x="0" y="0" width="16" height="16"></rect>
                        <g id="短信" transform="translate(2.000000, 0.000000)" fill-rule="nonzero">
                            <path d="M11.5845766,14.3452437 L8.28208009,14.3452437 L4.97958356,15.9954547 L4.97958356,14.3452437 L4.97958347,14.3452437 C4.06819381,14.3452437 3.32937249,13.606416 3.32937249,12.6950328 C3.32937249,12.6950328 3.32937249,12.6950327 3.32937249,12.6950327 L3.32937249,8.56640951 L3.32937249,8.56640974 C3.32937249,7.65502009 4.06819864,6.91619876 4.97958347,6.91619876 C4.97958347,6.91619876 4.9795835,6.91619876 4.9795835,6.91619876 L11.5845605,6.91619876 L11.5845604,6.91619876 C12.4959501,6.91619876 13.2347715,7.65502491 13.2347715,8.56640974 C13.2347715,8.56640974 13.2347715,8.56640976 13.2347715,8.56640976 L13.2347715,12.6943575 L13.2347715,12.6944743 C13.235086,13.6054845 12.4968218,14.3442672 11.5858148,14.3445727 C11.5853573,14.3445729 11.5848998,14.3445729 11.5844422,14.3445726 L11.5845766,14.3452437 Z M5.80505089,9.39253622 L5.80505093,9.39253622 C5.34974689,9.37902582 4.96969645,9.73717112 4.95618605,10.1924752 C4.94267565,10.6477792 5.30082095,11.0278296 5.75612499,11.04134 C5.77197234,11.0418103 5.78782996,11.0418235 5.80367801,11.0413796 L5.80367801,11.0413796 C6.25900457,11.0286272 6.61778188,10.6491745 6.60502895,10.1938479 C6.59279343,9.75697856 6.24189826,9.40549921 5.8050498,9.3925356 L5.80505089,9.39253622 Z M8.28209617,9.39253622 L8.28209621,9.39253622 C7.82679218,9.37902582 7.44674173,9.73717112 7.43323134,10.1924752 C7.41972094,10.6477792 7.77786624,11.0278296 8.23317028,11.04134 C8.24901763,11.0418103 8.26487524,11.0418235 8.2807233,11.0413796 L8.28072329,11.0413796 C8.73604985,11.0286272 9.09482716,10.6491745 9.08207423,10.1938479 C9.06983871,9.75697856 8.71894354,9.40549921 8.28209508,9.3925356 L8.28209617,9.39253622 Z M10.7591415,9.39253622 L10.7591414,9.39253622 C10.303831,9.37921123 9.92392686,9.73751045 9.91060301,10.1928209 C9.89727802,10.6481314 10.2555772,11.0280355 10.7108877,11.0413593 C10.7267402,11.0418233 10.7426028,11.0418299 10.7584557,11.0413791 L10.7584556,11.0413791 C11.2137774,11.0284331 11.5723923,10.6488282 11.5594463,10.1935065 C11.5470253,9.7566484 11.1959892,9.40532021 10.7591407,9.39253511 L10.7591415,9.39253622 Z" id="形状" fill="#027AFF"></path>
                            <path d="M0.851651856,1.96210798 L0.851651856,10.217312 L2.50392132,10.217312 L2.50392132,14.3452598 L1.67847007,14.3452598 L1.67847,14.3452598 C0.76708034,14.3452598 0.0282590127,13.6064321 0.0282590127,12.6950488 C0.0282590127,12.6950488 0.0282590127,12.6950488 0.0282590127,12.6950488 L0.0282590127,1.96212406 L0.0282590127,1.96212431 C0.0282590127,1.05073466 0.767085165,0.311913328 1.67847,0.311913328 L7.45868725,0.311913328 L7.45868719,0.311913328 C8.37007685,0.311913328 9.10889818,1.05073948 9.10889818,1.96212431 C9.10889818,1.96212431 9.10889818,1.96212433 9.10889818,1.96212433 L9.10889818,6.09007211 L8.28344693,6.09007211 L8.28344693,1.96212433 L0.852327167,1.96212433 L0.851651856,1.96210798 Z" id="路径" fill="#A0C8FA"></path>
                        </g>
                    </g>
                </g>
            </g>
        </g>
    </g>
</svg>