<?xml version="1.0" encoding="UTF-8"?>
<svg width="11px" height="16px" viewBox="0 0 11 16" version="1.1" xmlns="http://www.w3.org/2000/svg" xmlns:xlink="http://www.w3.org/1999/xlink">
    <!-- Generator: Sketch 64 (93537) - https://sketch.com -->
    <title>iphone</title>
    <desc>Created with Sketch.</desc>
    <g id="注册/登录/后台" stroke="none" stroke-width="1" fill="none" fill-rule="evenodd">
        <g id="微信登录" transform="translate(-739.000000, -397.000000)">
            <g id="微信扫码" transform="translate(505.000000, 99.000000)">
                <g id="编组-13" transform="translate(103.000000, 296.000000)">
                    <g id="iphone" transform="translate(128.000000, 2.000000)">
                        <rect id="矩形" x="0" y="0" width="16" height="16"></rect>
                        <path d="M4.4781005,0.360762768 C4.16346576,0.428508933 3.85057596,0.603462009 3.6120672,0.84546229 C3.37600398,1.08466837 3.25203449,1.29524005 3.16717725,1.60219278 C3.10920899,1.81032056 3.10920899,1.82638352 3.10920899,8.00000975 C3.10920899,14.1670065 3.10955819,14.189694 3.1668281,14.3981705 C3.29603455,14.8654091 3.63057522,15.2725847 4.05905191,15.4831564 C4.48403707,15.6919815 4.26194158,15.6815924 8.33334259,15.6815924 C12.4047387,15.6815924 12.1826432,15.6919815 12.6076333,15.4831564 L12.6076333,15.4831564 C13.0493149,15.2613244 13.374768,14.8608634 13.5016021,14.3831551 C13.5567768,14.168393 13.5574751,14.0706156 13.5574751,8.00000483 C13.5574751,1.92938913 13.5567767,1.8316167 13.5016021,1.61685454 L13.501602,1.61685448 C13.3747675,1.13914618 13.0493133,0.738685151 12.6076333,0.516853197 C12.1822995,0.308028102 12.4071892,0.318154007 8.3193798,0.320249248 C5.2976992,0.321646069 4.62790973,0.32863021 4.47810003,0.360757286 M11.9902412,1.7547912 C12.0331936,1.77714038 12.0925588,1.83056901 12.1215429,1.87352144 C12.1732254,1.94964857 12.1746224,2.10574448 12.1746224,8.00000476 C12.1746224,13.8942601 12.1732256,14.0503556 12.1215429,14.1264881 C12.0070031,14.2955036 12.239924,14.2858315 8.33334801,14.2858315 C4.42677204,14.2858315 4.65968749,14.2955041 4.54515313,14.1264881 C4.49347058,14.0503611 4.49207381,13.894265 4.49207381,8.00000476 C4.49207381,2.11133124 4.49347063,1.94965397 4.54480397,1.87386519 C4.65794696,1.70694491 4.42362918,1.71672215 8.32776076,1.71521069 C11.4046215,1.71427776 11.9231935,1.71986506 11.9902412,1.7547858 M7.40619867,2.45669138 C7.15442115,2.53421528 6.93651613,2.83802515 6.93651613,3.11110538 C6.93651613,3.39186761 7.15442115,3.68869281 7.41807279,3.76691567 C7.62585027,3.82872526 9.04083659,3.82872526 9.24860915,3.76691567 C9.5122608,3.6886933 9.73016581,3.39186761 9.73016581,3.11110538 C9.73016581,2.83034315 9.5122608,2.53351795 9.24860915,2.4552951 C9.04746606,2.39558074 7.60140634,2.39697751 7.40618885,2.45669193 M6.70777479,12.2344756 C6.45599727,12.3119995 6.23809225,12.6158094 6.23809225,12.8888896 C6.23809225,13.1696519 6.45599727,13.4664771 6.71964892,13.5446999 C6.93266449,13.6079063 9.73399617,13.6079063 9.94702321,13.5446999 C10.2106749,13.4664776 10.4285799,13.1696519 10.4285799,12.8888896 C10.4285799,12.6081274 10.2106749,12.3113022 9.94702321,12.2330794 C9.74099068,12.1716189 6.90753306,12.173365 6.70778134,12.2344762" id="形状" fill="#0D6EB8" fill-rule="nonzero"></path>
                    </g>
                </g>
            </g>
        </g>
    </g>
</svg>