<?xml version="1.0" encoding="UTF-8"?>
<svg width="14px" height="14px" viewBox="0 0 14 14" version="1.1" xmlns="http://www.w3.org/2000/svg" xmlns:xlink="http://www.w3.org/1999/xlink">
    <!-- Generator: Sketch 64 (93537) - https://sketch.com -->
    <title>编组 13</title>
    <desc>Created with Sketch.</desc>
    <g id="系统服务" stroke="none" stroke-width="1" fill="none" fill-rule="evenodd">
        <g id="编组-13">
            <rect id="矩形" x="0" y="0" width="14" height="14"></rect>
            <g id="操作" fill="#409EFF" fill-rule="nonzero">
                <g id="形状">
                    <path d="M7.00000815,13.720016 C3.29700384,13.720016 0.280000326,10.7030125 0.280000326,7.00000815 C0.280000326,3.29700384 3.29700384,0.280000326 7.00000815,0.280000326 C10.7030125,0.280000326 13.720016,3.29700384 13.720016,7.00000815 C13.720016,10.7030125 10.7030125,13.720016 7.00000815,13.720016 Z M7.00000815,1.26000147 C3.83600446,1.26000147 1.26000147,3.83600446 1.26000147,7.00000815 C1.26000147,10.1640118 3.83600446,12.7400148 7.00000815,12.7400148 C10.1640118,12.7400148 12.7400148,10.1640118 12.7400148,7.00000815 C12.7400148,3.83600446 10.1640118,1.26000147 7.00000815,1.26000147 Z M3.85000448,7.98000929 C3.31100385,7.98000929 2.87000334,7.53900877 2.87000334,7.00000815 C2.87000334,6.46100752 3.31100385,6.02000701 3.85000448,6.02000701 C4.38900511,6.02000701 4.83000562,6.46100752 4.83000562,7.00000815 C4.83000562,7.53900877 4.38900511,7.98000929 3.85000448,7.98000929 Z M7.00000815,7.98000929 C6.46100752,7.98000929 6.02000701,7.53900877 6.02000701,7.00000815 C6.02000701,6.46100752 6.46100752,6.02000701 7.00000815,6.02000701 C7.53900877,6.02000701 7.98000929,6.46100752 7.98000929,7.00000815 C7.98000929,7.53900877 7.53900877,7.98000929 7.00000815,7.98000929 Z M10.1500118,7.98000929 C9.61101118,7.98000929 9.17001067,7.53900877 9.17001067,7.00000815 C9.17001067,6.46100752 9.61101118,6.02000701 10.1500118,6.02000701 C10.6890124,6.02000701 11.130013,6.46100752 11.130013,7.00000815 C11.130013,7.53900877 10.6890124,7.98000929 10.1500118,7.98000929 Z"></path>
                </g>
            </g>
        </g>
    </g>
</svg>