<?xml version="1.0" encoding="UTF-8"?>
<svg width="16px" height="16px" viewBox="0 0 16 16" version="1.1" xmlns="http://www.w3.org/2000/svg" xmlns:xlink="http://www.w3.org/1999/xlink">
    <title>编组 3</title>
    <g id="页面-1" stroke="none" stroke-width="1" fill="none" fill-rule="evenodd">
        <g id="及时通备份-5" transform="translate(-522.000000, -139.000000)">
            <g id="应用推荐" transform="translate(249.000000, 75.000000)">
                <g id="编组-7" transform="translate(43.000000, 24.000000)">
                    <g id="编组" transform="translate(0.000000, 36.000000)">
                        <g id="编组-3" transform="translate(230.000000, 4.000000)">
                            <rect id="矩形" stroke="#F2F3F5" fill="#FFFFFF" x="0.5" y="0.5" width="15" height="15" rx="2"></rect>
                            <path d="M8,7 C8.78897821,7 9.42857143,7.63959321 9.42857143,8.42857143 C9.42857143,9.21754964 8.78897821,9.85714286 8,9.85714286 C7.21102179,9.85714286 6.57142857,9.21754964 6.57142857,8.42857143 C6.57142857,7.63959321 7.21102179,7 8,7 Z M12.5714286,7 C13.3604068,7 14,7.63959321 14,8.42857143 C14,9.21754964 13.3604068,9.85714286 12.5714286,9.85714286 C11.7824504,9.85714286 11.1428571,9.21754964 11.1428571,8.42857143 C11.1428571,7.63959321 11.7824504,7 12.5714286,7 Z M3.42857143,7 C4.21754964,7 4.85714286,7.63959321 4.85714286,8.42857143 C4.85714286,9.21754964 4.21754964,9.85714286 3.42857143,9.85714286 C2.63959321,9.85714286 2,9.21754964 2,8.42857143 C2,7.63959321 2.63959321,7 3.42857143,7 Z" id="矩形备份-4" fill="#C8C9CC"></path>
                        </g>
                    </g>
                </g>
            </g>
        </g>
    </g>
</svg>