<?xml version="1.0" encoding="UTF-8"?>
<svg width="100px" height="57px" viewBox="0 0 100 57" version="1.1" xmlns="http://www.w3.org/2000/svg" xmlns:xlink="http://www.w3.org/1999/xlink">
    <title>undraw_logistics_x-4-dc</title>
    <defs>
        <linearGradient x1="49.9844369%" y1="100.022771%" x2="49.9844369%" y2="0.00917027855%" id="linearGradient-1">
            <stop stop-color="#808080" stop-opacity="0.25" offset="0%"></stop>
            <stop stop-color="#808080" stop-opacity="0.12" offset="54%"></stop>
            <stop stop-color="#808080" stop-opacity="0.1" offset="100%"></stop>
        </linearGradient>
    </defs>
    <g id="概况（暂缓" stroke="none" stroke-width="1" fill="none" fill-rule="evenodd">
        <g id="首页概况备份" transform="translate(-791.000000, -620.000000)" fill-rule="nonzero">
            <g id="页面详情" transform="translate(78.000000, 59.000000)">
                <g id="消息通知模块" transform="translate(511.000000, 504.000000)">
                    <g id="undraw_logistics_x-4-dc" transform="translate(202.000000, 57.000000)">
                        <path d="M100,37.6371704 C100.005337,40.5301552 99.2154995,43.3689746 97.7167233,45.8434564 C97.7167233,48.8696773 96.3058855,51.6126818 94.0174261,53.6118058 C93.4446864,54.1123857 92.8279702,54.5602949 92.1747705,54.9500912 C92.1485468,54.9666996 92.1214489,54.9824338 92.094351,54.9981681 C92.0454,55.0270142 91.996449,55.0558604 91.9466239,55.0855806 L91.9002952,55.1126785 L91.9002952,55.1126785 C89.7341259,56.3199246 87.2927139,56.9468387 84.8128893,56.9328439 L18.9834056,56.9328439 C14.4440742,56.9328439 10.3348123,55.3521887 7.35754234,52.7979953 C4.3802724,50.2438019 2.54548391,46.7088402 2.54548391,42.8102425 C0.878304385,40.243034 -0.00610794721,37.2462976 0,34.1852506 C0,25.5191748 6.92659868,18.4938317 15.4720452,18.4938317 C15.7744925,18.4938317 16.0743174,18.5043212 16.372394,18.5209296 C21.7342771,9.3775815 33.8286714,3.00171335 47.8793575,3.00171335 C56.5174613,3.00171335 64.4134329,5.40992788 70.4615041,9.38894513 C72.7525631,8.09383103 75.3402074,7.41469487 77.9719866,7.41779313 C86.5156849,7.41779313 93.4440001,14.4431362 93.4440001,23.109212 C93.4427281,23.6575428 93.4135528,24.2054536 93.3565876,24.7508188 C97.5359871,27.7093546 100.014291,32.516613 100,37.6371704 L100,37.6371704 Z" id="路径" fill="#3A8EE6" opacity="0.1"></path>
                        <ellipse id="椭圆形" fill="#3A8EE6" opacity="0.1" cx="36.1013965" cy="41.674754" rx="34.2657021" ry="1"></ellipse>
                        <g id="编组" opacity="0.7" transform="translate(12.412608, 16.106596)">
                            <rect id="矩形" fill="#65617D" x="0" y="18.7936887" width="10.9265632" height="6.03146288"></rect>
                            <rect id="矩形" fill="#000000" opacity="0.1" x="3.84615024" y="19.8426387" width="3.32167521" height="1"></rect>
                            <rect id="矩形" fill="#000000" opacity="0.1" x="4.26135964" y="19.9300512" width="2.49125641" height="1"></rect>
                            <rect id="矩形" fill="#65617D" x="11.1013882" y="18.7936887" width="10.9265632" height="6.03146288"></rect>
                            <rect id="矩形" fill="#000000" opacity="0.1" x="14.9475384" y="19.8426387" width="3.32167521" height="1"></rect>
                            <rect id="矩形" fill="#000000" opacity="0.1" x="15.3627478" y="19.9300512" width="2.49125641" height="1"></rect>
                            <rect id="矩形" fill="#65617D" x="0" y="12.5874008" width="10.9265632" height="6.03146288"></rect>
                            <rect id="矩形" fill="#000000" opacity="0.1" x="3.84615024" y="13.6363509" width="3.32167521" height="1"></rect>
                            <rect id="矩形" fill="#000000" opacity="0.1" x="4.26135964" y="13.7237634" width="2.49125641" height="1"></rect>
                            <rect id="矩形" fill="#65617D" x="11.1013882" y="12.5874008" width="10.9265632" height="6.03146288"></rect>
                            <rect id="矩形" fill="#000000" opacity="0.1" x="14.9475384" y="13.6363509" width="3.32167521" height="1"></rect>
                            <rect id="矩形" fill="#000000" opacity="0.1" x="15.3627478" y="13.7237634" width="2.49125641" height="1"></rect>
                            <rect id="矩形" fill="#65617D" x="0" y="6.29370039" width="10.9265632" height="6.03146288"></rect>
                            <rect id="矩形" fill="#000000" opacity="0.1" x="3.84615024" y="7.34265046" width="3.32167521" height="1"></rect>
                            <rect id="矩形" fill="#000000" opacity="0.1" x="4.26135964" y="7.43006296" width="2.49125641" height="1"></rect>
                            <rect id="矩形" fill="#65617D" x="11.1013882" y="6.29370039" width="10.9265632" height="6.03146288"></rect>
                            <rect id="矩形" fill="#000000" opacity="0.1" x="14.9475384" y="7.34265046" width="3.32167521" height="1"></rect>
                            <rect id="矩形" fill="#000000" opacity="0.1" x="15.3627478" y="7.43006296" width="2.49125641" height="1"></rect>
                            <rect id="矩形" fill="#65617D" x="11.1013882" y="0" width="10.9265632" height="6.03146288"></rect>
                            <rect id="矩形" fill="#000000" opacity="0.1" x="14.9475384" y="1.04895007" width="3.32167521" height="1"></rect>
                            <rect id="矩形" fill="#000000" opacity="0.1" x="15.3627478" y="1.13636257" width="2.49125641" height="1"></rect>
                        </g>
                        <g id="编组" opacity="0.7" transform="translate(34.615384, 16.019184)">
                            <rect id="矩形" fill="#65617D" x="0" y="18.7936887" width="10.9265632" height="6.03146288"></rect>
                            <rect id="矩形" fill="#000000" opacity="0.1" x="3.84615024" y="19.8426387" width="3.32167521" height="1"></rect>
                            <rect id="矩形" fill="#000000" opacity="0.1" x="4.26135964" y="19.9300512" width="2.49125641" height="1"></rect>
                            <rect id="矩形" fill="#65617D" x="11.1013882" y="18.7936887" width="10.9265632" height="6.03146288"></rect>
                            <rect id="矩形" fill="#000000" opacity="0.1" x="14.9475384" y="19.8426387" width="3.32167521" height="1"></rect>
                            <rect id="矩形" fill="#000000" opacity="0.1" x="15.3627478" y="19.9300512" width="2.49125641" height="1"></rect>
                            <rect id="矩形" fill="#65617D" x="0" y="12.5874008" width="10.9265632" height="6.03146288"></rect>
                            <rect id="矩形" fill="#000000" opacity="0.1" x="3.84615024" y="13.6363509" width="3.32167521" height="1"></rect>
                            <rect id="矩形" fill="#000000" opacity="0.1" x="4.26135964" y="13.7237634" width="2.49125641" height="1"></rect>
                            <rect id="矩形" fill="#65617D" x="11.1013882" y="12.5874008" width="10.9265632" height="6.03146288"></rect>
                            <rect id="矩形" fill="#000000" opacity="0.1" x="14.9475384" y="13.6363509" width="3.32167521" height="1"></rect>
                            <rect id="矩形" fill="#000000" opacity="0.1" x="15.3627478" y="13.7237634" width="2.49125641" height="1"></rect>
                            <rect id="矩形" fill="#65617D" x="0" y="6.29370039" width="10.9265632" height="6.03146288"></rect>
                            <rect id="矩形" fill="#000000" opacity="0.1" x="3.84615024" y="7.34265046" width="3.32167521" height="1"></rect>
                            <rect id="矩形" fill="#000000" opacity="0.1" x="4.26135964" y="7.43006296" width="2.49125641" height="1"></rect>
                            <rect id="矩形" fill="#65617D" x="11.1013882" y="6.29370039" width="10.9265632" height="6.03146288"></rect>
                            <rect id="矩形" fill="#000000" opacity="0.1" x="14.9475384" y="7.34265046" width="3.32167521" height="1"></rect>
                            <rect id="矩形" fill="#000000" opacity="0.1" x="15.3627478" y="7.43006296" width="2.49125641" height="1"></rect>
                            <rect id="矩形" fill="#65617D" x="11.1013882" y="0" width="10.9265632" height="6.03146288"></rect>
                            <rect id="矩形" fill="#000000" opacity="0.1" x="14.9475384" y="1.04895007" width="3.32167521" height="1"></rect>
                            <rect id="矩形" fill="#000000" opacity="0.1" x="15.3627478" y="1.13636257" width="2.49125641" height="1"></rect>
                        </g>
                        <path d="M76.7735612,0.00958329214 C76.7735612,0.00958329214 69.4143023,-0.434472236 70.2796861,4.72286559 C70.2796861,4.72286559 70.1048611,5.63457802 70.9335317,6.04803917 C70.9335317,6.04803917 70.9466436,5.66604652 71.6887757,5.79629115 C71.9529899,5.84008787 72.2214026,5.85299515 72.4886002,5.83475266 C72.8495672,5.80982679 73.1926089,5.66806895 73.465872,5.43090688 L73.465872,5.43090688 C73.465872,5.43090688 75.534926,4.57601258 76.339121,1.19489687 C76.339121,1.19489687 76.9344002,0.45713532 76.9107988,0.267450183 L75.6686671,0.798044091 C75.6686671,0.798044091 76.0934919,1.69402227 75.7560796,2.43877682 C75.7560796,2.43877682 75.7158699,0.830386718 75.4772337,0.865351721 C75.4291568,0.873218846 74.8321294,1.17566611 74.8321294,1.17566611 C74.8321294,1.17566611 75.5620238,2.73597934 75.0113251,3.87059366 C75.0113251,3.87059366 75.2202409,1.94751854 74.6039828,1.28842825 L73.7298577,1.79891728 C73.7298577,1.79891728 74.5830038,3.41080388 74.004333,4.72636209 C74.004333,4.72636209 74.1529343,2.70888146 73.5454173,1.92304304 L72.75346,2.54104945 C72.75346,2.54104945 73.5550327,4.1302088 73.0663968,5.22111687 C73.0663968,5.22111687 73.0025857,2.87234285 72.5821315,2.69489546 C72.5821315,2.69489546 71.8889504,3.306783 71.7831812,3.55678276 C71.7831812,3.55678276 72.3321318,4.71062784 71.991223,5.31901887 C71.991223,5.31901887 71.7823071,3.75433503 71.6109786,3.74559378 C71.6109786,3.74559378 70.9204198,4.78230609 70.8487415,5.49384388 C70.8487415,5.49384388 70.8784618,4.43615257 71.4440207,3.64681764 C71.4440207,3.64681764 70.7761892,3.76132803 70.3863294,4.19489405 C70.3863294,4.19489405 70.4938468,3.46150313 71.6144751,3.397692 C71.6144751,3.397692 72.1852788,2.61097945 72.3373765,2.56290258 C72.3373765,2.56290258 71.2237412,2.47024532 70.5480425,2.76919609 C70.5480425,2.76919609 71.1424476,2.07776317 72.5419218,2.39244819 L73.3242637,1.75346278 C73.3242637,1.75346278 71.8574819,1.55328814 71.2351048,1.77444178 C71.2351048,1.77444178 71.9510132,1.16255424 73.5349278,1.60923214 L74.3880739,1.10398786 C74.3880739,1.10398786 73.1372009,0.834757344 72.3924464,0.92916285 C72.3924464,0.92916285 73.1791589,0.505212198 74.6380737,0.965001977 L75.2499612,0.691400835 C75.2499612,0.691400835 74.3338781,0.511331073 74.0655217,0.482484947 C73.7971654,0.45363882 73.7831794,0.380212315 73.7831794,0.380212315 C74.3635552,0.283433767 74.9594048,0.349706526 75.5043316,0.571645702 C75.5043316,0.571645702 76.7962884,0.0908769222 76.7735612,0.00958329214 Z" id="路径" fill="#3A8EE6" opacity="0.1"></path>
                        <path d="M67.6966466,1.321645 C67.6966466,1.321645 64.3749714,1.12059624 64.763957,3.45188776 C64.763957,3.45188776 64.6861599,3.86360066 65.0585372,4.05066342 C65.0585372,4.05066342 65.0646561,3.87583841 65.4003201,3.93615304 C65.5195451,3.95621834 65.6407277,3.96208675 65.7613337,3.95363554 C65.9244733,3.94254731 66.0795046,3.87838584 66.2027669,3.7709434 L66.2027669,3.7709434 C66.2027669,3.7709434 67.1380807,3.38545425 67.5017167,1.85748366 C67.5017167,1.85748366 67.7700731,1.52356789 67.7595836,1.43790363 L67.1983953,1.6774139 C67.1983953,1.6774139 67.3907028,2.08300792 67.2394792,2.41954607 C67.2394792,2.41954607 67.2211226,1.69227402 67.1136052,1.70975652 C67.0917521,1.70975652 66.8216474,1.84961653 66.8216474,1.84961653 C66.8216474,1.84961653 67.1520667,2.55503545 66.9029411,3.06814686 C66.9029411,3.06814686 66.9973466,2.19926655 66.7185007,1.90118991 L66.3233961,2.13195892 C66.3233961,2.13195892 66.7097594,2.8601051 66.4475219,3.45451013 C66.4475219,3.45451013 66.5148295,2.5427977 66.2403543,2.18790293 L65.8828371,2.46674882 C65.8828371,2.46674882 66.2447249,3.18527962 66.0244454,3.67828615 C66.0244454,3.67828615 65.9955992,2.6162242 65.80504,2.53667882 C65.80504,2.53667882 65.4921032,2.81290234 65.4440263,2.9265386 C65.4440263,2.9265386 65.6922779,3.45101363 65.5384318,3.7219924 C65.5384318,3.7219924 65.4440263,3.01482523 65.3636068,3.01220285 C65.3636068,3.01220285 65.0524183,3.48073388 65.0192016,3.7989154 C65.0347887,3.50196785 65.127589,3.21422659 65.2884321,2.96412598 C65.1083516,2.99823664 64.9421608,3.08421836 64.8102857,3.21150337 C64.8102857,3.21150337 64.8592367,2.8810841 65.3653551,2.85136384 C65.3653551,2.85136384 65.6275926,2.49646907 65.6922779,2.47461595 C65.6922779,2.47461595 65.1887818,2.43265794 64.8837122,2.56814733 C64.8837122,2.56814733 65.1520686,2.25521056 65.7849351,2.39769294 L66.1345851,2.10923167 C66.1345851,2.10923167 65.4719983,2.02181917 65.1905301,2.11884705 C65.1905301,2.11884705 65.5139563,1.84262353 66.2298648,2.04367229 L66.6144798,1.8137774 C66.6144798,1.8137774 66.049795,1.6913999 65.7123827,1.73598027 C65.7123827,1.73598027 66.0681516,1.54367276 66.7272419,1.75171453 L67.0025913,1.62846289 C67.0025913,1.62846289 66.588256,1.54629514 66.4667526,1.53405739 C66.3452493,1.52181964 66.3391304,1.48772876 66.3391304,1.48772876 C66.6015404,1.44407596 66.8709221,1.47434356 67.1171017,1.57514126 C67.1171017,1.57514126 67.7071361,1.35835825 67.6966466,1.321645 Z" id="路径" fill="#3A8EE6" opacity="0.1"></path>
                        <ellipse id="椭圆形" fill="#3A8EE6" cx="19.5970413" cy="55.7656499" rx="3.51485684" ry="1"></ellipse>
                        <path d="M21.0507113,54.7936228 C21.2111896,54.6628967 21.3279817,54.4863363 21.3855012,54.2875044 C21.4292075,54.0873298 21.3435432,53.8504419 21.1512357,53.7726448 C20.9362009,53.690477 20.706306,53.8399524 20.5323552,53.9903019 C20.3584043,54.1406514 20.1582296,54.3128541 19.9309571,54.2805114 C20.1691811,54.0640992 20.2766459,53.7387195 20.2141736,53.4229948 C20.204227,53.3586821 20.1770399,53.2982665 20.1355024,53.2481697 C20.0157473,53.1205475 19.7998384,53.1747432 19.6564819,53.2752676 C19.2019368,53.5951974 19.0751887,54.2132038 19.0725663,54.7682732 C19.0271118,54.5680986 19.0655733,54.3591827 19.0646992,54.1563857 C19.0638251,53.9535887 19.0070069,53.7193231 18.8330561,53.6118058 C18.725779,53.5540944 18.6051592,53.5257487 18.483406,53.529638 C18.2797349,53.5217709 18.0515883,53.5427499 17.9126024,53.6922253 C17.7377774,53.8775398 17.784106,54.1887283 17.9344555,54.3915253 C18.084805,54.5943223 18.3146999,54.724567 18.5262382,54.8653011 C18.6954602,54.966199 18.839769,55.1039347 18.9484406,55.2682727 C18.9615364,55.2912409 18.9720883,55.3155689 18.9799091,55.3408251 L20.2613764,55.3408251 C20.5479741,55.1948771 20.8134964,55.0108051 21.0507113,54.7936228 Z" id="路径" fill="#3A8EE6"></path>
                        <path d="M62.7062667,29.8959189 C62.6916828,29.7613686 62.6096794,29.6434682 62.4886095,29.5829821 C62.3872488,29.5397811 62.2726924,29.5395805 62.171181,29.5824262 C62.0696696,29.6252719 61.9899014,29.7074927 61.9501485,29.8102547 L60.0087167,33.895041 L59.5716542,49.978942 L60.2709543,49.978942 L60.5331918,33.9308802 L62.6695534,30.1494152 C62.7082001,30.070897 62.7210495,29.9821752 62.7062667,29.8959189 L62.7062667,29.8959189 Z" id="路径" fill="#3F3D56"></path>
                        <path d="M94.0174261,53.6118058 C93.4446864,54.1123857 92.8279702,54.5602949 92.1747705,54.9500912 C92.1645849,54.9644503 92.153179,54.9779035 92.1406796,54.990301 C92.0713413,55.0491407 91.988911,55.0905057 91.9002952,55.1109302 L91.9002952,55.1109302 C89.7341259,56.3181764 87.2927139,56.9450905 84.8128893,56.9308586 L36.7517455,56.9308586 C31.2447577,56.3644256 27.884621,55.6135521 27.884621,54.7892522 C27.884621,54.1502668 29.9021016,53.5549876 33.3758746,53.0567364 C33.7360141,53.0042888 34.1115965,52.9535896 34.5026218,52.9046386 C34.7432975,52.8743356 34.9895094,52.8451981 35.2412575,52.8172261 L35.6687046,52.767401 C35.9857206,52.7312705 36.3111865,52.6960141 36.6451023,52.6616318 L36.6722002,52.6616318 L37.0218502,52.6266668 C37.3173045,52.5960724 37.6188776,52.5672263 37.9265696,52.5392543 L38.1503456,52.5191494 L38.7211493,52.4684502 C39.0917783,52.4352334 39.4705658,52.4034736 39.8575119,52.3731706 C40.1786071,52.3481123 40.5049472,52.3230541 40.8365319,52.2979958 C44.1984169,52.0488702 48.0742874,51.8609333 52.2919408,51.7394299 L53.4964851,51.698346 L53.9020791,51.6896048 L54.7587217,51.670374 L55.1022528,51.663381 L55.4632665,51.656388 L55.7202592,51.6520174 L56.9265518,51.6327866 L57.5463065,51.6240454 L57.6730546,51.6240454 C59.1386709,51.6065629 60.6316765,51.5975303 62.1520714,51.5969475 C65.1573133,51.5969475 68.0716462,51.6327866 70.8487415,51.7009684 L70.8487415,51.7009684 C72.4431456,51.7394299 73.9888901,51.7883809 75.485975,51.8478214 L75.499961,51.8478214 C79.8163905,52.0174017 83.6800232,52.2674014 86.8775727,52.5777158 L86.9361391,52.5838347 C87.7569425,52.6633801 88.5340397,52.7481702 89.2630599,52.8355827 C89.9492481,52.9177505 90.5934783,53.0042888 91.1913798,53.0925755 C91.3985475,53.1231699 91.5995962,53.1546384 91.7954002,53.1852327 L91.8452254,53.193974 C92.6738959,53.3277151 93.401168,53.4640786 94.0174261,53.6118058 Z" id="路径" fill="#3A8EE6" opacity="0.1"></path>
                        <path d="M92.1747705,54.9500912 C92.1645849,54.9644503 92.153179,54.9779035 92.1406796,54.990301 C92.0713413,55.0491407 91.988911,55.0905057 91.9002952,55.1109302 L91.9002952,55.1109302 C91.7235373,55.1605037 91.5417182,55.1898293 91.3583377,55.1983427 L91.3032678,55.1983427 C91.1985473,55.2018341 91.0937105,55.1983298 90.9894569,55.1878532 C90.9133376,55.1768405 90.8364658,55.1718716 90.759562,55.1729931 L90.7490725,55.1729931 C90.6372931,55.1887004 90.5274413,55.2159436 90.4212756,55.2542867 C90.1847529,55.3191324 89.9409756,55.3537899 89.6957518,55.3574335 L89.6083393,55.3574335 C89.3338641,55.3574335 89.0558923,55.3478181 88.7805429,55.3495664 C88.7359625,55.3495664 88.6931304,55.3495664 88.6468018,55.3495664 C88.1747743,55.3618041 87.7053691,55.4369789 87.2333416,55.444846 L87.0821179,55.444846 C86.6197058,55.4334824 86.1468041,55.3347062 85.7787975,55.0549862 C85.7045838,55.0059193 85.6443513,54.9384588 85.6039725,54.8591822 C85.5726272,54.7755519 85.5621264,54.6855447 85.5733781,54.5969447 C85.5821193,54.4387281 85.6127137,54.2665254 85.7315947,54.1598822 C85.8063111,54.102579 85.8919957,54.0612243 85.9833427,54.0383788 C86.1433076,53.9868054 86.3041466,53.9369803 86.4641115,53.8871552 C86.6240764,53.83733 86.8067685,53.7840084 86.9789712,53.7333091 L87.0121879,53.7228196 L87.1083417,53.6939735 L87.1704046,53.6729945 C87.2456472,53.6488367 87.3178136,53.6159804 87.3854393,53.5750925 C87.4746285,53.518666 87.5501665,53.443128 87.606593,53.3539389 C87.6162083,53.3382046 87.6266978,53.3215962 87.6354391,53.3049879 C87.6441803,53.2883795 87.6354391,53.27789 87.6293202,53.263904 C87.6144601,53.1546384 87.6030965,53.0427504 87.5838657,52.9361071 C87.3378447,52.8790648 87.1135318,52.7521868 86.9378873,52.5707228 C86.786974,52.4211245 86.6599125,52.2492524 86.5611394,52.0611079 C86.3434823,51.6520174 86.2315943,51.19485 86.069007,50.7604098 C85.8198814,50.0995713 85.4571195,49.489432 85.0917352,48.8845375 C84.7578194,48.3268457 84.4221554,47.7674056 84.0427851,47.2403082 C83.790163,46.8906582 83.5183101,46.5576166 83.2683103,46.2070924 C82.5610999,45.2290035 82.0537493,44.1210306 81.7753047,42.946606 C81.7326897,42.7212871 81.6721834,42.4997233 81.5943608,42.2840192 C81.4440113,41.9168867 81.1686619,41.6179359 80.9553754,41.2822719 C80.7260788,40.9204497 80.5690484,40.5176328 80.4929633,40.0960842 C80.449257,39.8565739 80.3758305,39.5978329 80.1371944,39.5716091 L80.1371944,39.5716091 L80.1118448,39.6214343 C79.61709,40.5829718 79.1092233,41.5619919 78.3635946,42.3469562 C78.2443274,42.4623447 78.1352398,42.58781 78.037546,42.7219558 C77.9591803,42.8520183 77.8891107,42.9869023 77.827756,43.1258016 C77.7097315,43.3752094 77.5530843,43.6044275 77.3635956,43.8049968 C77.3072173,43.8620215 77.2457762,43.9138076 77.1800293,43.9597169 C77.0927016,44.023201 76.9955486,44.0719252 76.8924422,44.1039475 L76.8924422,44.1039475 C76.8518234,44.1163577 76.810332,44.1257078 76.7683164,44.1319195 C76.7683164,44.142409 76.772687,44.1520244 76.7735612,44.1625139 C76.7744353,44.1730034 76.7788059,44.1852412 76.7805542,44.1966048 C76.9091538,44.8959593 76.8540352,45.6167183 76.6205893,46.2883861 C76.6144704,46.3093651 76.6074774,46.3294699 76.5996103,46.3504489 C76.5634798,46.4483509 76.5241442,46.5445047 76.4816034,46.6389102 C76.3749601,46.8705533 76.248212,47.0925811 76.1485618,47.3277207 C76.1319534,47.3679305 76.115345,47.4081403 76.1004849,47.44835 C75.7508349,48.3845379 75.8382474,49.4299915 75.7927929,50.4361094 C75.7887834,50.6561106 75.7627206,50.8751552 75.7149957,51.089955 C75.6555552,51.3320876 75.5602756,51.5820874 75.5078281,51.8320872 C75.460006,52.019517 75.456117,52.2154593 75.4964645,52.4046391 L75.4754855,52.4125062 C75.3819541,52.4474712 75.2866744,52.4789397 75.1913948,52.5086599 L75.1913948,52.5217718 C75.2254857,52.7175758 75.2587024,52.9133798 75.2927933,53.1083097 C75.3216395,53.2761417 75.3557303,53.4579598 75.4728631,53.5768408 C75.5047462,53.6030968 75.5340195,53.6323701 75.5602756,53.6642533 C75.6293315,53.7726448 75.5681427,53.9160013 75.5812546,54.0444977 C75.6004853,54.2263157 75.7683174,54.3810358 75.7420936,54.5619797 C75.7181182,54.6717374 75.6416062,54.7626362 75.5375483,54.8049865 C75.4945064,54.8244799 75.4493257,54.8388556 75.4029331,54.8478186 L75.374087,54.8539375 C75.3216395,54.8635528 75.2691919,54.8687976 75.2167444,54.8740423 C74.5655213,54.9387276 73.9055569,55.0034128 73.2604526,54.8932731 C73.1328303,54.87142 73.0060822,54.8425738 72.8767117,54.8320843 C72.7132669,54.8247944 72.5494981,54.8315206 72.3872016,54.8521892 C71.1904646,54.9654919 69.9869145,54.9888675 68.7866805,54.9221192 C68.4746179,54.9046367 68.1162266,54.8539375 67.951017,54.5873293 C67.8137794,54.3661757 67.8636045,54.0803368 67.9326604,53.8277147 C67.9524301,53.7348261 67.9882209,53.6460887 68.0384295,53.5654771 C68.0440718,53.5567434 68.0505095,53.5485501 68.0576602,53.5410016 C68.2184993,53.340827 68.5209465,53.3285892 68.7814358,53.3364564 L69.6328336,53.361806 C69.7166596,53.3686083 69.8010339,53.362118 69.8828334,53.3425752 C70.0209451,53.3023655 70.1258401,53.1922257 70.2552106,53.1301629 C70.4177979,53.0523657 70.6223432,53.0427504 70.7394759,52.9098833 L70.754336,52.8906526 C70.7750104,52.8624939 70.7942651,52.8333201 70.8120283,52.8032401 C70.8120283,52.7971212 70.8198954,52.7910023 70.824266,52.7848835 L70.824266,52.7848835 C70.8274576,52.7794417 70.8309599,52.7741883 70.8347555,52.7691492 C70.9422729,52.627541 71.1302098,52.5803382 71.2831817,52.4903033 C71.3063389,52.4767939 71.328275,52.4612924 71.3487411,52.4439747 L71.3662236,52.4282404 C71.2015218,52.3107368 71.0578867,52.1662151 70.9413988,52.0007933 C70.8964493,51.9524775 70.8632464,51.8944474 70.8443709,51.831213 C70.8336728,51.7837287 70.8373238,51.7341364 70.8548604,51.6887306 C70.8586186,51.677581 70.8632967,51.6667629 70.8688464,51.656388 L70.873217,51.6476468 C70.9326576,51.530514 71.0550351,51.4247449 71.1223427,51.3049897 C71.1248994,51.3011902 71.1269559,51.2970771 71.1284616,51.292752 C71.2211188,51.117927 71.2394754,50.8469482 71.1022378,50.7062141 C71.1721678,49.5549914 71.4886011,48.4334889 71.5585311,47.2787697 C71.5865031,46.8216023 71.5751395,46.3626867 71.5961185,45.903771 C71.6170975,45.4448554 71.6660485,44.9999257 71.7176219,44.5497513 C71.8330064,43.5209061 72.1127264,42.5130399 72.0733907,41.4798241 C72.0700289,41.3834987 72.0741204,41.2870575 72.0856285,41.1913629 C72.0852085,41.1843762 72.0852085,41.1773706 72.0856285,41.1703839 C72.1136368,40.9586563 72.1796744,40.7537324 72.2805584,40.5654893 C72.4072748,40.3527422 72.5507971,40.1504663 72.7097538,39.9605948 C73.2473407,39.2612947 73.8933191,38.5619947 74.0847525,37.7018556 C74.1835286,37.2578001 74.4020599,36.851332 74.619717,36.4518568 C74.7482134,36.2140948 74.8819545,35.9702139 75.0873739,35.7953889 C75.1986117,35.718348 75.3019687,35.6305091 75.3959401,35.5331514 C75.5392966,35.3478369 75.5445413,35.0917182 75.6293315,34.8714387 C75.6730377,34.7569283 75.7403454,34.6520333 75.7735621,34.5340264 C75.7735621,34.5217887 75.779681,34.5104251 75.7823034,34.4981873 C75.8016717,34.3790968 75.8118997,34.2586989 75.8128977,34.1380478 C75.8128977,34.1030828 75.8181425,34.0689919 75.8225131,34.034901 C75.8225131,34.034901 75.8225131,34.034901 75.8225131,34.034901 C75.8735757,33.6893174 75.9739573,33.3528477 76.1205898,33.0357761 C76.1389464,32.9955664 76.1564289,32.9544825 76.1739114,32.9142727 C75.7705999,32.6789835 75.4148372,32.3703593 75.1249613,32.0043085 C75.026672,31.8858745 74.9413924,31.7572225 74.8705909,31.6205676 C74.6905212,31.2630505 74.6494373,30.8557082 74.5646472,30.4641002 C74.3618501,29.5305346 73.8976897,28.6511648 73.8330045,27.6966203 C73.8137737,27.4055366 73.8330045,27.1048376 73.731606,26.8294882 C73.703691,26.7550475 73.6706877,26.6826155 73.6328298,26.6127052 C73.6170956,26.582985 73.6022355,26.5532647 73.5865012,26.5252927 L73.5690187,26.4920759 L73.5244383,26.4046634 L73.4527601,26.4606074 C71.6644696,27.8608783 69.7869622,29.1433064 67.832136,30.2997647 L67.664304,30.3994149 C67.5769281,30.4415636 67.5008261,30.5038834 67.4422762,30.581233 C67.4352832,30.5925966 67.4291643,30.6039602 67.4230455,30.6153238 L67.4230455,30.6153238 C67.3828357,30.6983657 67.3723462,30.7901488 67.335633,30.8775613 C67.2569617,31.077736 67.0550388,31.2053582 66.8487453,31.2647987 C66.4755169,31.3607731 66.0796849,31.3097687 65.7429771,31.1223164 C65.700145,31.1004632 65.6555646,31.077736 65.6171031,31.0523864 C65.5148688,31.1090459 65.407075,31.1550341 65.2954251,31.189624 C64.9457751,31.2910225 64.5795167,31.2866519 64.2176289,31.2857777 C63.8557411,31.2849036 63.4859862,31.2857777 63.1433292,31.4046588 C62.9143084,31.4824559 62.6922807,31.6109523 62.4545186,31.62319 C62.4271573,31.6249385 62.3997122,31.6249385 62.3723509,31.62319 C62.236796,31.6076418 62.1049226,31.5689077 61.9824911,31.5086796 L61.9108129,31.476337 C61.87368,31.4587298 61.8374994,31.4391807 61.8024214,31.4177706 C61.7641544,31.3941554 61.7286737,31.3662987 61.6966522,31.3347287 C61.6503817,31.2882837 61.6166906,31.2308284 61.5987502,31.1677709 C61.5869429,31.1221945 61.5869429,31.0743613 61.5987502,31.028785 C61.6021246,31.0083314 61.6126581,30.9897428 61.6284705,30.9763375 C61.6440487,30.9671119 61.6619511,30.9625605 61.6800439,30.9632256 C61.7802741,30.9621337 61.8803793,30.9706222 61.9789946,30.9885752 C62.036912,30.9965202 62.0953802,30.9997359 62.1538196,30.9981906 L62.1852881,30.9981906 C62.2894716,30.9869978 62.3843862,30.9332128 62.4475256,30.8495893 C62.457113,30.8367904 62.4647703,30.8226538 62.4702529,30.8076313 L62.4702529,30.8076313 C62.4808259,30.7830676 62.4861838,30.7565761 62.4859872,30.7298342 C62.4864695,30.7231413 62.4864695,30.7164223 62.4859872,30.7097293 C62.4492739,30.693121 62.4125606,30.6765126 62.3775956,30.6564077 C62.359239,30.6467923 62.3417565,30.6363028 62.324274,30.6258133 L62.3137845,30.6188203 C62.2824008,30.5974781 62.25313,30.5731833 62.226372,30.5462679 C62.2093754,30.5294273 62.194413,30.510651 62.1817916,30.4903239 C62.1585825,30.4586537 62.1411253,30.4231477 62.1302183,30.3854289 L62.1302183,30.3854289 C62.0581892,30.3703803 61.983631,30.3724763 61.9125611,30.3915478 C61.8172815,30.4177716 61.7211277,30.4737156 61.6267222,30.4929463 C61.5790684,30.5049285 61.5289593,30.5028026 61.4824916,30.4868274 C61.3461281,30.4378764 61.2980512,30.2717927 61.2692051,30.1293103 C61.2639603,30.1022124 61.2578414,30.0742404 61.2534708,30.0462684 L61.2534708,30.0462684 C61.2434244,29.9925382 61.2434244,29.9374113 61.2534708,29.8836812 C61.2957372,29.7615483 61.3763851,29.6563687 61.4833657,29.5838563 L61.7700787,29.3434719 L61.7910577,29.3259894 C61.7910577,29.302388 61.7814424,29.2787866 61.7779459,29.2551852 C61.7678912,29.201162 61.7678912,29.1457471 61.7779459,29.0917239 C61.8202089,28.969822 61.9008784,28.8649208 62.0078407,28.7927731 L62.6424555,28.2586827 C62.7613365,28.1590324 62.8907071,28.0541374 63.0454272,28.0436479 C63.2753221,28.0279137 63.4588883,28.2184729 63.631091,28.3714448 C63.847874,28.5637523 64.1109856,28.7210948 64.400321,28.7403256 C64.5380888,28.7466323 64.6758476,28.727672 64.8067892,28.6843816 L64.8810898,28.6599061 C64.8653555,28.6275635 64.8496213,28.5952208 64.8347612,28.5628782 C64.8094115,28.5095566 64.7840619,28.4553608 64.7595864,28.4011651 C65.1319637,28.3775637 65.4702501,28.1730184 65.7525925,27.9282634 C66.0349349,27.6835084 66.2770675,27.394173 66.5620323,27.1537886 C66.8697243,26.8915511 67.2228708,26.6966212 67.5349335,26.4439991 C68.2604573,25.8557129 68.7421002,24.9912032 69.5183232,24.4728471 C69.7875537,24.2919032 70.0987423,24.1476725 70.2823085,23.878442 C70.3391266,23.7910295 70.3819588,23.703617 70.4405251,23.6162045 C70.6267138,23.353967 70.9457694,23.2333377 71.2088811,23.0515197 C71.4719927,22.8697017 71.7010135,22.6030936 71.9151741,22.3469749 C72.0672719,22.1642828 72.2202438,21.9815907 72.3653485,21.7936538 C72.4990897,21.5445281 72.6118518,21.2840389 72.7517118,21.0384097 C72.870388,20.8308987 73.0088528,20.6353502 73.1651729,20.4544942 C73.2010121,20.3845642 73.2377253,20.3146342 73.2770609,20.2464524 C73.3163966,20.1782707 73.3452427,20.131942 73.381956,20.0716274 C73.4073056,20.0322918 73.4335293,19.9947044 73.4606272,19.9562429 C73.3810818,19.8155088 73.305033,19.6940054 73.2691938,19.6406838 L73.2517113,19.6170824 C73.1745865,19.5349437 73.0922481,19.4578609 73.0052081,19.3863134 C72.9138176,19.3724736 72.8233315,19.3532088 72.7342293,19.3286211 C71.6252367,19.0246927 70.856884,18.0160956 70.8583569,16.8662108 C70.8579168,16.8636069 70.8579168,16.8609476 70.8583569,16.8583437 C70.8586793,16.4577422 70.9539398,16.0629204 71.1363287,15.7062469 C71.1730419,15.6345686 71.2123776,15.5655128 71.2552097,15.4982051 C71.2152619,15.4855913 71.1763854,15.4698069 71.1389511,15.4510024 C71.0751585,15.4195695 71.0195097,15.3737939 70.9763638,15.3172612 C70.9407416,15.2669022 70.9176653,15.2087618 70.9090562,15.147681 C70.8942657,15.00361 70.9159071,14.8581318 70.9719932,14.7246045 C70.9958536,14.6603224 71.022987,14.597303 71.0532868,14.5357934 C71.05566,14.5321949 71.0577077,14.528392 71.0594057,14.5244298 C71.4501396,13.7377173 72.2831808,13.2543261 73.1153478,13.2202352 C74.0130742,13.1843961 74.8871993,13.6057244 75.5952406,14.2088707 C75.8065161,14.3822226 75.9955906,14.5809857 76.1581771,14.8006533 C76.527932,15.3146389 76.6948899,15.9719809 76.7438409,16.6232041 C76.7622235,16.8246219 76.7587064,17.0274393 76.7333514,17.2280986 C76.724094,17.2996053 76.7094842,17.3703165 76.6896452,17.4396369 C76.6782815,17.4807208 76.6634214,17.5218046 76.6476872,17.5628885 C76.6319529,17.6039724 76.6223375,17.622329 76.6083515,17.650301 L76.6083515,17.6546716 C76.5952397,17.6826436 76.5803795,17.7088674 76.5655194,17.7350911 L76.5576523,17.7464548 L76.5462887,17.7648114 C76.5532817,17.7814198 76.5611488,17.7989023 76.5690159,17.8155107 C76.576883,17.832119 76.583876,17.8478533 76.5926173,17.8635875 L76.6031068,17.8635875 C76.7779318,17.8775735 76.9396449,17.902049 77.1179664,17.916035 C77.2018464,17.920019 77.2850648,17.932912 77.366218,17.9544965 C77.541043,18.006944 77.6730358,18.1345663 77.8198889,18.2377131 C78.1835249,18.4947058 78.6310769,18.614461 78.9885941,18.880195 C79.5130691,19.271803 79.7753066,19.9186555 80.0934881,20.4982004 C80.5130682,21.2744235 81.1966339,21.935262 81.4982071,22.7656808 C81.6345706,23.1427201 81.7715169,23.5191766 81.9090459,23.8950504 C82.1774023,24.6319378 82.4457586,25.3723218 82.8102688,26.0672512 C83.3172613,27.0340335 84.0034495,27.9029138 84.4099176,28.9186471 C84.4502651,29.0204402 84.5260021,29.1042475 84.6232042,29.1546609 C85.1770655,29.9367805 85.6695056,30.7606314 86.0961049,31.6188194 C86.320755,32.0724903 86.5331674,32.5436437 86.5987268,33.0462656 C86.6498813,33.493771 86.6127586,33.946965 86.4894611,34.3801804 C86.4197525,34.6375429 86.3342168,34.8903548 86.2333425,35.1371727 C86.194035,35.2235932 86.1647082,35.3142132 86.14593,35.4072774 C86.14593,35.4168928 86.14593,35.4265081 86.14593,35.4361235 C86.1284475,35.6039555 86.1922586,35.7700393 86.2097411,35.9378713 C86.2243629,36.0729754 86.2091445,36.2096423 86.1651608,36.3382206 C86.1581678,36.3583254 86.1503006,36.3784303 86.1424335,36.3985352 C86.0882266,36.5007426 86.0423326,36.6071466 86.0051959,36.7167167 C86.0020184,36.7299589 85.9996827,36.743389 85.9982029,36.7569265 C85.9693567,36.9466116 86.0445315,37.138045 86.0856154,37.3277301 C86.2394614,38.0130442 86.2114894,38.7263302 86.1730279,39.4256303 C86.152923,39.7752803 86.4352654,40.0558744 86.6712792,40.3137413 C87.1083417,40.7971325 87.4501246,41.3626914 87.7796697,41.9256279 C87.9594959,42.2114115 88.1108612,42.5141421 88.2315924,42.8294732 C88.3565923,43.1896127 88.4064174,43.5707313 88.4754733,43.9439827 C88.6983752,45.0978277 89.4265213,46.1170575 89.6240736,47.273525 C89.7156994,47.8031139 89.9492187,48.2979453 90.2997723,48.7053418 C90.4054017,48.8144537 90.5027023,48.9313313 90.5908559,49.0549919 C90.6517388,49.1535308 90.7001843,49.2592302 90.7350865,49.3696769 C90.8210436,49.6267303 90.8615676,49.8967921 90.8548417,50.167753 C90.8409874,50.2974515 90.8483686,50.4285411 90.8766948,50.5558646 C90.9588626,50.824221 91.2525686,50.9719481 91.374072,51.2245702 C91.4955753,51.4771924 91.4116593,51.8006186 91.4614845,52.0873317 C91.5005726,52.3184913 91.6254381,52.5263923 91.8111345,52.669499 C91.7412045,52.7306877 91.667778,52.7866317 91.5926032,52.844324 C91.6621755,52.8983631 91.7231793,52.9626086 91.7735471,53.0348832 C91.8079642,53.0832902 91.837259,53.1351419 91.8609596,53.1896034 C91.9763441,53.4579598 91.9798406,53.7770154 92.0742461,54.0637284 C92.1144559,54.1826094 92.171274,54.3084834 92.136309,54.4291127 C92.1213547,54.4636659 92.1113494,54.5001559 92.1065887,54.5375042 C92.1065887,54.6161755 92.1887565,54.6677488 92.220225,54.7394271 C92.2435238,54.8127395 92.226226,54.8929084 92.1747705,54.9500912 Z" id="路径" fill="url(#linearGradient-1)"></path>
                        <path d="M73.6747878,20.8592141 C74.2097524,20.7149835 74.6861505,20.4134103 75.1529333,20.1153337 L76.77968,19.0794955 C76.3382469,19.0445305 75.9571284,18.7298455 75.73073,18.3487269 C75.5043316,17.9676084 75.4108002,17.524427 75.3338772,17.0891127 C74.6345772,17.3618398 74.0288085,17.8242519 73.4641237,18.3128878 C73.2403477,18.5060694 72.7648237,18.7980272 72.6957678,19.0996004 C72.6267119,19.4011735 73.0672709,19.6459285 73.2377253,19.8478514 C73.2962917,19.915159 73.8478646,20.8111372 73.6747878,20.8592141 Z" id="路径" fill="#FBBEBE"></path>
                        <path d="M73.6747878,20.8592141 C74.2097524,20.7149835 74.6861505,20.4134103 75.1529333,20.1153337 L76.77968,19.0794955 C76.3382469,19.0445305 75.9571284,18.7298455 75.73073,18.3487269 C75.5043316,17.9676084 75.4108002,17.524427 75.3338772,17.0891127 C74.6345772,17.3618398 74.0288085,17.8242519 73.4641237,18.3128878 C73.2403477,18.5060694 72.7648237,18.7980272 72.6957678,19.0996004 C72.6267119,19.4011735 73.0672709,19.6459285 73.2377253,19.8478514 C73.2962917,19.915159 73.8478646,20.8111372 73.6747878,20.8592141 Z" id="路径" fill="#000000" opacity="0.1"></path>
                        <path d="M64.7858102,29.4151501 C64.4990972,29.5620031 64.1940275,29.7123526 63.8732236,29.6913736 C63.5847623,29.673017 63.3216507,29.5165486 63.1048677,29.3251152 C62.9300427,29.1730175 62.7499729,28.9833324 62.520078,28.9990666 C62.366232,29.0095561 62.2368615,29.113577 62.1179805,29.2123531 L61.4842398,29.742947 C61.3775755,29.8146438 61.2969371,29.9188911 61.2543449,30.0401495 C61.2418287,30.1224444 61.2468934,30.2064575 61.2692051,30.2866528 C61.2980512,30.4282611 61.3461281,30.5934707 61.4824916,30.6415476 C61.6188551,30.6896245 61.7674564,30.5864777 61.911687,30.5471421 C62.0911654,30.5012596 62.2813614,30.5572786 62.4073159,30.693121 C62.4588357,30.7437721 62.489945,30.8115903 62.4947284,30.8836802 C62.4947284,31.0418969 62.3199034,31.1459177 62.1590644,31.1537849 C61.9982254,31.161652 61.8443794,31.1092045 61.6852886,31.1188199 C61.6658844,31.1163643 61.6463108,31.1218472 61.6310058,31.1340254 C61.6157008,31.1462035 61.6059611,31.1640453 61.603995,31.1835051 C61.5839299,31.2957133 61.6224901,31.410405 61.7062676,31.4877006 C61.7893192,31.563507 61.8860239,31.622835 61.9912324,31.6625256 C62.1135127,31.7229827 62.2454786,31.7614481 62.3810921,31.7761619 C62.6494485,31.7936444 62.8959518,31.6450431 63.1503222,31.5585048 C63.4929792,31.4431203 63.86186,31.4396238 64.2237478,31.4404979 C64.5856355,31.441372 64.9527681,31.4466168 65.2997957,31.3452182 C65.6468233,31.2438197 65.9763685,31.0191696 66.1118579,30.6843797 C66.12786,30.6531445 66.1330845,30.6174946 66.126718,30.5829812 C66.1132085,30.546159 66.0872292,30.5152312 66.0532915,30.4955687 C65.5655297,30.134555 65.3679775,29.6957443 64.8190269,29.4361291 L64.7858102,29.4151501 Z" id="路径" fill="#FBBEBE"></path>
                        <path d="M64.7858102,29.4151501 C64.4990972,29.5620031 64.1940275,29.7123526 63.8732236,29.6913736 C63.5847623,29.673017 63.3216507,29.5165486 63.1048677,29.3251152 C62.9300427,29.1730175 62.7499729,28.9833324 62.520078,28.9990666 C62.366232,29.0095561 62.2368615,29.113577 62.1179805,29.2123531 L61.4842398,29.742947 C61.3775755,29.8146438 61.2969371,29.9188911 61.2543449,30.0401495 C61.2418287,30.1224444 61.2468934,30.2064575 61.2692051,30.2866528 C61.2980512,30.4282611 61.3461281,30.5934707 61.4824916,30.6415476 C61.6188551,30.6896245 61.7674564,30.5864777 61.911687,30.5471421 C62.0911654,30.5012596 62.2813614,30.5572786 62.4073159,30.693121 C62.4588357,30.7437721 62.489945,30.8115903 62.4947284,30.8836802 C62.4947284,31.0418969 62.3199034,31.1459177 62.1590644,31.1537849 C61.9982254,31.161652 61.8443794,31.1092045 61.6852886,31.1188199 C61.6658844,31.1163643 61.6463108,31.1218472 61.6310058,31.1340254 C61.6157008,31.1462035 61.6059611,31.1640453 61.603995,31.1835051 C61.5839299,31.2957133 61.6224901,31.410405 61.7062676,31.4877006 C61.7893192,31.563507 61.8860239,31.622835 61.9912324,31.6625256 C62.1135127,31.7229827 62.2454786,31.7614481 62.3810921,31.7761619 C62.6494485,31.7936444 62.8959518,31.6450431 63.1503222,31.5585048 C63.4929792,31.4431203 63.86186,31.4396238 64.2237478,31.4404979 C64.5856355,31.441372 64.9527681,31.4466168 65.2997957,31.3452182 C65.6468233,31.2438197 65.9763685,31.0191696 66.1118579,30.6843797 C66.12786,30.6531445 66.1330845,30.6174946 66.126718,30.5829812 C66.1132085,30.546159 66.0872292,30.5152312 66.0532915,30.4955687 C65.5655297,30.134555 65.3679775,29.6957443 64.8190269,29.4361291 L64.7858102,29.4151501 Z" id="路径" fill="#000000" opacity="0.1"></path>
                        <path d="M75.0218146,20.0926064 C74.7469249,19.9152013 74.4052474,19.8754789 74.0969903,19.985089 C73.7924607,20.094786 73.5191689,20.2768806 73.3006623,20.5156829 C73.0825038,20.7381456 72.8936242,20.9875371 72.7385999,21.2578151 C72.5899987,21.5200526 72.4763624,21.7945279 72.3277611,22.0558913 C72.0655236,22.5235482 71.7228666,22.9361352 71.3784613,23.3452257 C71.1643007,23.5995961 70.9475177,23.857463 70.6730424,24.0445258 C70.3985671,24.2315886 70.0917493,24.3460989 69.9055606,24.6057141 C69.8469942,24.6878818 69.8050362,24.7805391 69.747344,24.863581 C69.5646518,25.1310632 69.2543374,25.2744197 68.9842328,25.4536154 C68.209758,25.9693492 67.7281151,26.82774 67.0043396,27.4125296 C66.6922769,27.6642776 66.3400045,27.8618299 66.0331866,28.1188227 C65.7473477,28.3574588 65.5087116,28.6432977 65.2237468,28.8880527 C64.9387821,29.1328077 64.6039922,29.3347306 64.232489,29.3574579 C64.4807405,29.910779 64.7770689,30.4536107 65.2027678,30.8845543 C65.6284667,31.315498 66.266578,31.5908474 66.8478712,31.4221413 C67.0541647,31.3627007 67.2560876,31.2368267 67.3347588,31.0375262 C67.3595146,30.935093 67.3940556,30.8352754 67.4379056,30.7394496 C67.4963099,30.6625263 67.572094,30.6005211 67.6590592,30.5585057 C69.992546,29.1964002 72.2168717,27.6553583 74.312025,25.9492443 C74.8740874,25.4912028 75.4317792,25.0812381 76.0087017,24.6380567 C76.2155637,24.4913437 76.4068323,24.3238005 76.5795054,24.1380572 C77.0714823,23.5505658 77.1624761,22.7250726 76.8102744,22.0445277 C76.6555866,21.7899028 76.4782983,21.5497153 76.2805546,21.326871 C75.9208285,20.8585479 75.49711,20.4430684 75.0218146,20.0926064 L75.0218146,20.0926064 Z" id="路径" fill="#3A8EE6"></path>
                        <path d="M75.0218146,20.0926064 C74.7469249,19.9152013 74.4052474,19.8754789 74.0969903,19.985089 C73.7924607,20.094786 73.5191689,20.2768806 73.3006623,20.5156829 C73.0825038,20.7381456 72.8936242,20.9875371 72.7385999,21.2578151 C72.5899987,21.5200526 72.4763624,21.7945279 72.3277611,22.0558913 C72.0655236,22.5235482 71.7228666,22.9361352 71.3784613,23.3452257 C71.1643007,23.5995961 70.9475177,23.857463 70.6730424,24.0445258 C70.3985671,24.2315886 70.0917493,24.3460989 69.9055606,24.6057141 C69.8469942,24.6878818 69.8050362,24.7805391 69.747344,24.863581 C69.5646518,25.1310632 69.2543374,25.2744197 68.9842328,25.4536154 C68.209758,25.9693492 67.7281151,26.82774 67.0043396,27.4125296 C66.6922769,27.6642776 66.3400045,27.8618299 66.0331866,28.1188227 C65.7473477,28.3574588 65.5087116,28.6432977 65.2237468,28.8880527 C64.9387821,29.1328077 64.6039922,29.3347306 64.232489,29.3574579 C64.4807405,29.910779 64.7770689,30.4536107 65.2027678,30.8845543 C65.6284667,31.315498 66.266578,31.5908474 66.8478712,31.4221413 C67.0541647,31.3627007 67.2560876,31.2368267 67.3347588,31.0375262 C67.3595146,30.935093 67.3940556,30.8352754 67.4379056,30.7394496 C67.4963099,30.6625263 67.572094,30.6005211 67.6590592,30.5585057 C69.992546,29.1964002 72.2168717,27.6553583 74.312025,25.9492443 C74.8740874,25.4912028 75.4317792,25.0812381 76.0087017,24.6380567 C76.2155637,24.4913437 76.4068323,24.3238005 76.5795054,24.1380572 C77.0714823,23.5505658 77.1624761,22.7250726 76.8102744,22.0445277 C76.6555866,21.7899028 76.4782983,21.5497153 76.2805546,21.326871 C75.9208285,20.8585479 75.49711,20.4430684 75.0218146,20.0926064 L75.0218146,20.0926064 Z" id="路径" fill="#000000" opacity="0.1"></path>
                        <path d="M71.2656992,52.5200236 C71.1127273,52.6074361 70.9247904,52.6563871 70.817273,52.7979953 C70.782308,52.8434498 70.7587067,52.8967715 70.7211193,52.9404777 C70.6048607,53.0768412 70.3985671,53.0829601 70.236854,53.1607572 C70.1074835,53.221946 70.0025885,53.3355822 69.8653509,53.3714214 C69.7832487,53.3909261 69.6985927,53.3974154 69.614477,53.3906521 L68.7648274,53.3653025 C68.4955969,53.3574354 68.1800378,53.3714214 68.0235694,53.5908268 C67.9727285,53.6712115 67.9366164,53.7600116 67.9169261,53.8530643 C67.8513667,54.1039382 67.7980451,54.3880288 67.9352827,54.6083083 C68.0996183,54.8705458 68.4597578,54.9238675 68.7700722,54.94135 C69.9688571,55.0076702 71.1709224,54.9842951 72.3662226,54.87142 C72.527933,54.8507485 72.6911214,54.8440221 72.8539844,54.8513151 C72.9833549,54.8618046 73.1101031,54.8906507 73.2377253,54.9125038 C73.8819555,55.0217695 74.5410458,54.9579583 75.1913948,54.8932731 C75.3013049,54.8879819 75.409637,54.8649576 75.5121987,54.8250913 C75.6157919,54.7828061 75.6919523,54.6922635 75.7158699,54.5829587 C75.7429677,54.4028889 75.5742616,54.2499171 75.555905,54.0689732 C75.5427931,53.9413509 75.6039818,53.7988685 75.5340518,53.690477 C75.5078746,53.6585224 75.4785939,53.6292418 75.4466393,53.6030645 C75.3295066,53.4815611 75.2954157,53.3041137 75.2665696,53.13803 L75.1135977,52.2403036 C75.1093171,52.1770233 75.0833899,52.1171438 75.0401712,52.0707233 C75.008035,52.0475716 74.9709054,52.0323005 74.9317797,52.0261429 C74.2656964,51.8757934 73.5830047,52.013031 72.9212921,52.096947 C72.5807685,52.1468617 72.2362551,52.1641313 71.8924469,52.1485204 C71.7438456,52.138905 71.6861534,52.1214225 71.5751395,52.2184504 C71.4641256,52.3154783 71.4046851,52.4387299 71.2656992,52.5200236 Z" id="路径" fill="#3F3D56"></path>
                        <path d="M87.3504743,53.6004421 C87.2335588,53.6657972 87.1082797,53.714909 86.9780971,53.746421 C86.6348573,53.846654 86.2922003,53.9512577 85.950126,54.0602319 C85.8590955,54.0827613 85.7736912,54.1238267 85.6992521,54.1808612 C85.5803711,54.2857562 85.5497767,54.4570847 85.5410355,54.6179237 C85.5297128,54.7065233 85.5402156,54.7965476 85.5716298,54.8801612 C85.6126078,54.9585543 85.6727477,55.0253096 85.7464549,55.074217 C86.1380629,55.3705454 86.649426,55.4623285 87.1406843,55.4623285 C87.6319426,55.4623285 88.1197044,55.3792866 88.6109627,55.3661747 C89.2044936,55.3504405 89.8137587,55.4343565 90.3845624,55.2682727 C90.4934979,55.2279952 90.6067176,55.2004235 90.7219747,55.186105 C90.7985894,55.1849298 90.875175,55.1898991 90.9509954,55.2009651 C91.2571274,55.2312277 91.5662217,55.2030473 91.8618337,55.1179232 C91.9507942,55.0982152 92.0336062,55.0571092 92.1030922,54.9981681 C92.173463,54.9372258 92.1991578,54.8393078 92.1677775,54.7516648 C92.136309,54.6808607 92.0558895,54.6292873 92.0550154,54.5514902 C92.0591554,54.5141203 92.0688791,54.4775831 92.0838615,54.4430987 C92.1197006,54.3233436 92.0620084,54.1983437 92.0217986,54.0803368 C91.9090365,53.7429245 91.9273931,53.354813 91.7254702,53.0619811 C91.5235473,52.7691492 91.1529183,52.64852 90.8006459,52.6021913 C90.5143141,52.5617509 90.2232049,52.5700261 89.9396327,52.6266668 C89.6205771,52.6948486 89.3225005,52.837331 89.0095637,52.92824 C88.6464103,53.0326845 88.2669758,53.0685529 87.8906836,53.0340091 C87.6406838,53.0130301 87.7263481,53.0523657 87.641558,53.2621557 C87.5814392,53.4020516 87.4798377,53.5201289 87.3504743,53.6004421 Z" id="路径" fill="#3F3D56"></path>
                        <circle id="椭圆形" fill="#FBBEBE" cx="73.3828301" cy="17.11184" r="2.53496266"></circle>
                        <path d="M91.7604352,52.6939745 C90.9737227,53.3696731 89.9116607,53.6651274 88.8758225,53.6758857 C88.43876,53.6799875 87.9850891,53.6327848 87.6127118,53.4063864 C87.5864881,53.2630299 87.5759986,53.1083097 87.5497748,52.9649532 C87.0978522,52.8705477 86.747328,52.5025411 86.5287968,52.0951988 C86.3102655,51.6878565 86.1992516,51.2350597 86.0366644,50.803242 C85.7884129,50.1458999 85.4247768,49.5401313 85.0611408,48.9387332 C84.727225,48.3845379 84.3924351,47.8285944 84.0121907,47.3049935 C83.7604427,46.9553435 83.4877157,46.6266725 83.2385901,46.2778966 C82.5328079,45.3070384 82.0262706,44.2060254 81.7482069,43.0383891 C81.7056978,42.8144732 81.6451868,42.5943533 81.567263,42.3801729 C81.4169135,42.0147887 81.1415641,41.7175861 80.9291517,41.3845445 C80.7000767,41.0251484 80.5430282,40.6246599 80.4667395,40.2053498 C80.4239074,39.9675878 80.3504809,39.710595 80.1118448,39.6861195 L80.1118448,39.6861195 C79.610097,40.660769 79.0987338,41.6511526 78.3399933,42.4439841 C78.2207512,42.5584521 78.1116597,42.6830446 78.0139446,42.8163613 C77.9355955,42.9458303 77.8655252,43.0801316 77.8041546,43.2184589 C77.686459,43.4665279 77.530079,43.6943115 77.3408683,43.8932834 C77.1822641,44.0629305 76.9732168,44.1769563 76.744715,44.2184579 C76.9132545,45.0583754 76.8129364,45.9300422 76.458002,46.7097143 C76.3522329,46.9404833 76.2254848,47.1607629 76.1258345,47.3941542 C75.7184922,48.3556918 75.8128977,49.440481 75.7700656,50.4833122 C75.766346,50.7018408 75.7405743,50.9194357 75.6931426,51.1327871 C75.5873735,51.5593601 75.3688422,52.013031 75.4746113,52.4396041 C74.3784585,52.85831 73.1608023,52.8320862 71.9999642,52.655513 C71.7729143,52.6347489 71.5524993,52.5678213 71.3522376,52.4588348 C71.1876108,52.3422854 71.0439622,52.1986368 70.9274128,52.03401 C70.882477,51.9860214 70.8492665,51.9282771 70.8303849,51.8653039 C70.7849304,51.6660034 71.0052099,51.5156539 71.1074826,51.3408289 C71.2097552,51.1660039 71.2281118,50.8889062 71.0873777,50.7455497 C71.1573077,49.60132 71.473741,48.4841882 71.543671,47.336462 C71.571643,46.881917 71.5602793,46.4256237 71.5812583,45.9702045 C71.6022373,45.5147854 71.6511883,45.071604 71.7018876,44.624052 C71.8172721,43.6021998 72.0969921,42.6004525 72.0576565,41.5733555 C72.0456698,41.2572513 72.1184017,40.9436892 72.2683206,40.6651396 C72.3946785,40.4534743 72.5379175,40.2523551 72.6966419,40.0637415 C73.2333547,39.3705604 73.878459,38.675631 74.0698924,37.8198625 C74.1686685,37.3784294 74.3871998,36.9745836 74.6039828,36.5777308 C74.7324792,36.3408429 74.8662203,36.0987103 75.0707656,35.9247594 C75.1820453,35.8477731 75.2854075,35.7599298 75.3793317,35.6625219 C75.5226882,35.4780815 75.527933,35.2254594 75.6127231,35.0051799 C75.6564293,34.8915436 75.723737,34.7866486 75.7560796,34.6695158 C75.7827433,34.5401078 75.7959256,34.408285 75.7954152,34.2761596 C75.8233872,33.853083 75.9859745,33.4439925 76.157303,33.0567551 C75.7543771,32.8234818 75.3986154,32.5169337 75.1083529,32.1529098 C75.0108488,32.0347047 74.9258937,31.9066862 74.8548567,31.7709171 C74.6747869,31.4160224 74.633703,31.0113025 74.5489129,30.6223168 C74.34699,29.693996 73.8828296,28.8207451 73.8181444,27.8723194 C73.7989136,27.582984 73.8181444,27.2840332 73.71762,27.0104321 C73.6712344,26.8946444 73.6169094,26.7821976 73.5550327,26.673894 C73.4940981,26.5674949 73.4476501,26.4534326 73.416921,26.3347334 C73.360977,26.0768665 73.4379,25.8102584 73.416921,25.5480209 C73.395942,25.3163777 73.2971658,25.0995947 73.2482148,24.8731963 C73.1982416,24.5786288 73.1897091,24.2785198 73.2228652,23.9815888 C73.2447183,23.6319388 73.3207672,23.2709251 73.291047,22.9256457 C73.1935959,21.7701223 73.5925115,20.6277296 74.3880739,19.7840403 L74.4081788,19.7639354 C74.5751367,19.5891104 74.7578288,19.4343903 74.9081783,19.2490757 C75.1127236,19.0008242 75.2578283,18.7088665 75.4737372,18.4676079 C75.5681427,18.3600906 75.674786,18.2639368 75.7683174,18.1555453 C75.8541078,18.0418566 75.9491266,17.9354356 76.052408,17.8373638 C76.1584688,17.7388553 76.306422,17.6992483 76.4475125,17.7315946 C76.4650362,17.8619568 76.5058984,17.9880965 76.5681418,18.1039719 C76.7499598,18.1179579 76.9116729,18.1433075 77.0926168,18.1572935 C77.1764968,18.1612775 77.2597152,18.1741705 77.3408683,18.1957551 C77.5113227,18.2473284 77.6476862,18.3705801 77.7936651,18.4763492 C78.1573011,18.7324678 78.603979,18.8513488 78.9614962,19.1153346 C79.4859712,19.5043203 79.7482087,20.1468022 80.064642,20.7228506 C80.4833479,21.494703 81.1660396,22.1511709 81.4632421,22.976345 L81.8732067,24.0987215 C82.1415631,24.8312383 82.4099195,25.5663775 82.7735555,26.2569363 C83.2796739,27.2184739 83.964988,28.0847318 84.3714561,29.0908497 C84.4120727,29.191761 84.4874039,29.2748423 84.5838685,29.3251152 C85.1373261,30.1013545 85.6292108,30.919701 86.055021,31.7726654 C86.2796711,32.2237139 86.4920835,32.692245 86.5567688,33.1913704 C86.6520484,33.8967893 86.4597409,34.6100753 86.1922586,35.2691656 C86.1490299,35.3635325 86.1195914,35.4636237 86.1048461,35.5663681 C86.0873636,35.733326 86.1511748,35.8976615 86.1686573,36.0646194 C86.1855339,36.2205358 86.162368,36.3781874 86.1013496,36.5226609 C86.0469959,36.624193 86.0010949,36.7300284 85.964112,36.8390942 C85.9169092,37.040143 86.0008252,37.2446882 86.0462797,37.445737 C86.2001258,38.1266804 86.1721538,38.8320993 86.1336923,39.5296511 C86.1135874,39.8793012 86.3959298,40.1563988 86.6310694,40.4125174 C87.0681319,40.8924121 87.4090407,41.4536004 87.7385859,42.0139145 C87.9177519,42.2980944 88.0688145,42.5990486 88.1896344,42.9125151 C88.3146343,43.2700322 88.3644594,43.6485284 88.4335153,44.0200315 C88.655543,45.1660095 89.3828151,46.1791204 89.5803673,47.3285949 C89.6718359,47.8551941 89.9051429,48.3468916 90.2551919,48.7507963 C90.3606655,48.8600481 90.4579561,48.9769137 90.5462755,49.1004464 C90.6066777,49.1985041 90.6548228,49.3036012 90.689632,49.4133831 C90.7755793,49.6686304 90.8161112,49.9369695 90.8093872,50.2062146 C90.7955377,50.3350413 90.8029201,50.4652676 90.8312403,50.5917037 C90.9134081,50.8583118 91.2071141,51.0051648 91.3277433,51.2560387 C91.4483726,51.5069126 91.3653307,51.8285907 91.4151558,52.1135554 C91.4528003,52.3436972 91.5761573,52.5510619 91.7604352,52.6939745 Z" id="路径" fill="#3A8EE6"></path>
                        <path d="M65.3102852,28.6284376 C65.0235722,28.7752906 64.7185025,28.9256401 64.3976986,28.9046611 C64.1092374,28.8863045 63.8461257,28.7298361 63.6293427,28.5384027 C63.4545177,28.3863049 63.274448,28.1966198 63.0445531,28.2123541 C62.8907071,28.2228436 62.7613365,28.3268644 62.6424555,28.4256406 L62.0087149,28.9562345 C61.9020505,29.0279312 61.8214122,29.1321786 61.77882,29.253437 C61.7663038,29.3357319 61.7713684,29.4197449 61.7936801,29.4999403 C61.8225262,29.6415485 61.8706031,29.8067582 62.0069666,29.854835 C62.1433301,29.9029119 62.2919314,29.7997652 62.436162,29.7604295 C62.6156404,29.7145471 62.8058364,29.770566 62.9317909,29.9064084 C62.9833107,29.9570596 63.01442,30.0248778 63.0192034,30.0969677 C63.0192034,30.2551843 62.8443784,30.3592052 62.6835394,30.3670723 C62.5227004,30.3749394 62.3688544,30.3224919 62.2097636,30.3321073 C62.1903595,30.3296517 62.1707858,30.3351346 62.1554808,30.3473128 C62.1401758,30.359491 62.1304361,30.3773327 62.12847,30.3967926 C62.108405,30.5090008 62.1469651,30.6236925 62.2307426,30.7009881 C62.3137942,30.7767944 62.4104989,30.8361225 62.5157074,30.8758131 C62.6379877,30.9362702 62.7699536,30.9747356 62.9055672,30.9894494 C63.1739236,31.0069319 63.4204268,30.8583306 63.6747972,30.7717922 C64.0174542,30.6564077 64.386335,30.6529112 64.7482228,30.6537853 C65.1101106,30.6546595 65.4772431,30.6599042 65.8242707,30.5585057 C66.1712984,30.4571072 66.5008435,30.2324571 66.6363329,29.8976672 C66.652335,29.866432 66.6575596,29.830782 66.651193,29.7962687 C66.6376836,29.7594464 66.6117042,29.7285187 66.5777665,29.7088561 C66.0900048,29.3478425 65.8924525,28.9090317 65.343502,28.6494166 L65.3102852,28.6284376 Z" id="路径" fill="#FBBEBE"></path>
                        <path d="M72.1494396,15.5541491 C71.998216,15.5786246 71.8697196,15.6808973 71.7263631,15.7377154 C71.5317513,15.8133263 71.3140611,15.8018689 71.1284616,15.7062469 C71.0644609,15.6751504 71.0085168,15.6296772 70.9650002,15.5733799 C70.8478674,15.4107926 70.8889513,15.1747789 70.9606296,14.9842196 C71.2997901,14.0829967 72.2053836,13.5253049 73.1022359,13.4894658 C73.9990882,13.4536266 74.871465,13.8723325 75.5786322,14.4711082 C75.7889661,14.6438829 75.9776841,14.8414058 76.1406946,15.0593944 C76.5095754,15.5707575 76.6765333,16.2237289 76.7254843,16.8705815 C76.7547631,17.1420263 76.7367216,17.4164929 76.6721627,17.6817695 C76.6094615,17.9422406 76.4434688,18.1659835 76.2123729,18.3015242 C75.9623731,18.4291464 75.6625482,18.3889367 75.4099261,18.2665592 C75.1573039,18.1441817 74.9405209,17.951 74.7237379,17.7665597 C74.6255258,17.6718638 74.5093017,17.597849 74.381955,17.5489025 C74.2522435,17.5026905 74.1074873,17.5369118 74.0122001,17.636315 C73.8950674,17.7770492 73.9247876,18.0078182 73.8181444,18.1607901 C73.7115011,18.3137619 73.4894733,18.3356151 73.3024106,18.3356151 C73.1153478,18.3356151 72.9256627,18.3198808 72.8137747,18.1712796 C72.711502,18.0366643 72.7263622,17.8399862 72.7648237,17.6704059 C72.8032852,17.5008256 72.8688445,17.3329936 72.8522362,17.1590427 C72.816397,16.8093927 72.5104533,16.594358 72.4151736,16.2726799 C72.3531108,16.0620158 72.4894743,15.972855 72.4754883,15.7822958 C72.4649988,15.6144638 72.284929,15.532296 72.1494396,15.5541491 Z" id="路径" fill="#3F3D56"></path>
                        <path d="M80.113593,39.6642664 L80.113593,39.6861195 L80.113593,39.6861195 C79.6118452,40.660769 79.1004821,41.6511526 78.3417415,42.4439841 C78.2224995,42.5584521 78.113408,42.6830446 78.0156929,42.8163613 C77.9373438,42.9458303 77.8672735,43.0801316 77.8059029,43.2184589 C77.6882072,43.4665279 77.5318273,43.6943115 77.3426166,43.8932834 L76.70975,44.2097167 L78.7202377,33.720216 L80.113593,39.6642664 Z" id="路径" fill="#000000" opacity="0.1"></path>
                        <path d="M77.1913929,23.7884072 C77.0187199,23.9741505 76.8274512,24.1416936 76.6205893,24.2884067 C76.0436667,24.7254692 75.4842267,25.1380562 74.9239126,25.5995943 C74.4722813,25.9673095 74.0142397,26.3274491 73.549788,26.6800128 C73.4888534,26.5736138 73.4424053,26.4595515 73.4116762,26.3408523 C73.3557322,26.0829854 73.4326552,25.8163773 73.4116762,25.5541398 C73.3906972,25.3224966 73.2919211,25.1057136 73.2429701,24.8793152 C73.1929969,24.5847477 73.1844644,24.2846387 73.2176204,23.9877077 C73.2394736,23.6380576 73.3155225,23.277044 73.2858022,22.9317646 C73.1879618,21.7733977 73.58895,20.6283078 74.3880739,19.7840403 L74.4081788,19.7639354 C74.5022563,19.7092363 74.601884,19.6646969 74.7053813,19.6310684 C75.0143068,19.5227452 75.3560255,19.5640874 75.6302056,19.7429564 C76.1055011,20.0934184 76.5292195,20.5088979 76.8889457,20.977221 C77.0866894,21.2000652 77.2639776,21.4402528 77.4186655,21.6948776 C77.7718315,22.3747354 77.6822224,23.2001732 77.1913929,23.7884072 L77.1913929,23.7884072 Z" id="路径" fill="#000000" opacity="0.1"></path>
                        <path d="M75.5462896,19.3058939 C75.2714,19.1284887 74.9297225,19.0887663 74.6214653,19.1983765 C74.3169358,19.3080735 74.0436439,19.4901681 73.8251374,19.7289704 C73.6069788,19.951433 73.4180993,20.2008245 73.2630749,20.4711026 C73.1144737,20.7333401 73.0008374,21.0078154 72.8522362,21.2691787 C72.5899987,21.7368356 72.2473416,22.1494227 71.9029364,22.5585132 C71.6887757,22.8128836 71.4719927,23.0707505 71.1975174,23.2578132 C70.9230422,23.444876 70.6162243,23.5593864 70.4300356,23.8190015 C70.3714693,23.9011693 70.3295113,23.9938265 70.271819,24.0768684 C70.0891269,24.3443507 69.7788125,24.4877072 69.5087078,24.6669028 C68.734233,25.1826366 68.2525901,26.0410274 67.5288146,26.6258171 C67.2167519,26.8775651 66.8644795,27.0751174 66.5576617,27.3321101 C66.2718228,27.5707463 66.0331866,27.8565852 65.7482219,28.1013402 C65.4632571,28.3460952 65.1284672,28.5480181 64.756964,28.5707453 C65.0052156,29.1240665 65.301544,29.6668981 65.7272429,30.0978418 C66.1529418,30.5287854 66.791053,30.8041348 67.3723462,30.6354287 C67.5786397,30.5759882 67.7805626,30.4501142 67.8592339,30.2508137 C67.8839896,30.1483804 67.9185306,30.0485629 67.9623806,29.952737 C68.0207849,29.8758138 68.096569,29.8138086 68.1835343,29.7717931 C70.5170211,28.4096876 72.7413468,26.8686458 74.8365,25.1625317 C75.3985625,24.7044902 75.9562542,24.2945256 76.5331768,23.8513442 C76.7400387,23.7046311 76.9313074,23.5370879 77.1039804,23.3513446 C77.5959573,22.7638532 77.6869512,21.93836 77.3347495,21.2578151 C77.1800616,21.0031903 77.0027734,20.7630027 76.8050297,20.5401584 C76.4453035,20.0718354 76.0215851,19.6563559 75.5462896,19.3058939 L75.5462896,19.3058939 Z" id="路径" fill="#3A8EE6"></path>
                        <g id="编组" opacity="0.1" transform="translate(70.890481, 14.614465)" fill="#000000">
                            <path d="M2.58675424,3.36887796 C2.41192923,3.36887796 2.21000635,3.35314371 2.09811834,3.20454245 C1.99671983,3.06992719 2.01070583,2.87324905 2.04916734,2.70366879 C2.08762884,2.53408853 2.15318822,2.36625652 2.13657984,2.19230564 C2.10074071,1.84265562 1.79479694,1.62762085 1.69951731,1.30594283 C1.63745444,1.09527869 1.77381794,1.00611794 1.75983194,0.815558676 C1.74759419,0.650349041 1.56839856,0.568181285 1.43290917,0.590034412 C1.28168554,0.614509913 1.15318915,0.716782545 1.00983265,0.773600673 C0.815220883,0.84921156 0.597530614,0.837754177 0.411931109,0.742132171 C0.347930404,0.711035721 0.291986321,0.665562455 0.248469723,0.609265163 C0.131336966,0.446677903 0.172420844,0.210664138 0.244099098,0.0201048763 C0.244099098,0.0131118758 0.250217974,0.00699300044 0.252840349,0 C0.179723416,0.116961202 0.118241012,0.240804331 0.0692740872,0.369754898 C-0.00240416725,0.56031416 -0.0434880448,0.796327925 0.0736447125,0.958915185 C0.11716131,1.01521248 0.173105393,1.06068574 0.237106098,1.09178219 C0.422705603,1.1874042 0.640395872,1.19886158 0.835007635,1.1232507 C0.978364144,1.06643257 1.10686053,0.964159935 1.25808416,0.939684434 C1.39357354,0.917831307 1.57276918,1 1.58500693,1.1652087 C1.59899293,1.35576796 1.46262942,1.44492872 1.5246923,1.65559285 C1.61822368,1.97727087 1.92416745,2.19580214 1.96175483,2.54195566 C1.97923733,2.71678067 1.9154262,2.88461268 1.87434232,3.05331882 C1.83325845,3.22202495 1.82189482,3.41957721 1.92329333,3.55419247 C2.03518133,3.70279373 2.23535597,3.71677973 2.41192923,3.71852798 C2.58850249,3.72027623 2.81577501,3.70803848 2.92766302,3.54370297 C2.97595731,3.46116706 3.00772511,3.37002019 3.0211944,3.27534658 C2.90231339,3.36013671 2.73622963,3.37062621 2.58675424,3.36887796 Z" id="路径"></path>
                            <path d="M5.49671655,3.33740946 C5.24671679,3.46503172 4.94689189,3.42482196 4.69426975,3.30244446 C4.44164761,3.18006695 4.2248646,2.98688531 4.00808158,2.80244492 C3.90986944,2.70774905 3.79364538,2.63373424 3.66629869,2.58478779 C3.53658714,2.53857575 3.39183093,2.57279708 3.29654379,2.67220029 C3.23716129,2.75995712 3.19969153,2.86067585 3.18727816,2.96590631 C3.27925377,2.91171917 3.39016051,2.89992736 3.49147368,2.93356368 C3.61882037,2.98251014 3.73504442,3.05652494 3.83325657,3.15122082 C4.05003959,3.33566121 4.2703191,3.52971697 4.51944474,3.65122035 C4.76857038,3.77272374 5.07189177,3.81380761 5.32189154,3.68618536 C5.5429912,3.55677838 5.7041265,3.34538647 5.77031769,3.09789919 C5.69848496,3.19747354 5.60491879,3.2793813 5.49671655,3.33740946 Z" id="路径"></path>
                        </g>
                        <circle id="椭圆形" fill="#3F3D56" cx="54.6328477" cy="52.907261" r="2.62237516"></circle>
                        <circle id="椭圆形" fill="#000000" opacity="0.1" cx="54.6328477" cy="52.907261" r="2.62237516"></circle>
                        <circle id="椭圆形" fill="#65617D" cx="54.6328477" cy="52.907261" r="1.6608376"></circle>
                        <circle id="椭圆形" fill="#000000" opacity="0.1" cx="54.6328477" cy="52.907261" r="1.6608376"></circle>
                        <path d="M52.62236,48.7988732 L54.3426381,52.6887297 C54.3949373,52.8077904 54.5116003,52.8856584 54.6416147,52.8882849 C54.7716291,52.8909115 54.8913418,52.8178187 54.9484068,52.7009675 L56.9929853,48.5366357 L52.62236,48.7988732 Z" id="路径" fill="#3F3D56"></path>
                        <path d="M52.62236,48.7988732 L54.3426381,52.6887297 C54.3949373,52.8077904 54.5116003,52.8856584 54.6416147,52.8882849 C54.7716291,52.8909115 54.8913418,52.8178187 54.9484068,52.7009675 L56.9929853,48.5366357 L52.62236,48.7988732 Z" id="路径" fill="#000000" opacity="0.1"></path>
                        <circle id="椭圆形" fill="#3F3D56" cx="38.2867091" cy="52.907261" r="2.62237516"></circle>
                        <circle id="椭圆形" fill="#000000" opacity="0.1" cx="38.2867091" cy="52.907261" r="2.62237516"></circle>
                        <circle id="椭圆形" fill="#65617D" cx="38.2867091" cy="52.907261" r="1.6608376"></circle>
                        <circle id="椭圆形" fill="#000000" opacity="0.1" cx="38.2867091" cy="52.907261" r="1.6608376"></circle>
                        <path d="M36.2762215,48.7988732 L37.9964996,52.6887297 C38.0487988,52.8077904 38.1654618,52.8856584 38.2954761,52.8882849 C38.4254905,52.8909115 38.5452032,52.8178187 38.6022683,52.7009675 L40.6468468,48.5366357 L36.2762215,48.7988732 Z" id="路径" fill="#3F3D56"></path>
                        <path d="M36.2762215,48.7988732 L37.9964996,52.6887297 C38.0487988,52.8077904 38.1654618,52.8856584 38.2954761,52.8882849 C38.4254905,52.8909115 38.5452032,52.8178187 38.6022683,52.7009675 L40.6468468,48.5366357 L36.2762215,48.7988732 Z" id="路径" fill="#000000" opacity="0.1"></path>
                        <path d="M63.1433292,30.0707439 C63.1287453,29.9361936 63.046742,29.8182932 62.9256721,29.7578071 C62.8243113,29.7146061 62.7097549,29.7144055 62.6082435,29.7572512 C62.5067321,29.8000969 62.426964,29.8823177 62.387211,29.9850797 L60.8828418,33.720216 L60.4457793,50.5034171 L61.1450793,50.5034171 L61.4073168,33.7560551 L63.1066159,30.3242402 C63.1452626,30.245722 63.158112,30.1570002 63.1433292,30.0707439 L63.1433292,30.0707439 Z" id="路径" fill="#3F3D56"></path>
                        <polygon id="路径" fill="#3A8EE6" points="32.21154 49.1922295 34.5716777 47.7062169 60.052423 47.4876856 60.7080168 49.1922295"></polygon>
                        <polygon id="路径" fill="#3F3D56" points="32.21154 50.7656546 32.21154 49.1922295 61.1695548 48.9125095 61.1415828 49.978942 32.736015 49.978942 32.736015 50.7656546"></polygon>
                        <circle id="椭圆形" fill="#3F3D56" cx="35.8828652" cy="53.8250923" r="2.62237516"></circle>
                        <circle id="椭圆形" fill="#65617D" cx="35.8828652" cy="53.8250923" r="1.6608376"></circle>
                        <path d="M33.8723776,49.7167045 L35.5926557,53.606561 C35.6449549,53.7256217 35.7616179,53.8034897 35.8916322,53.8061162 C36.0216466,53.8087428 36.1413593,53.73565 36.1984244,53.6187988 L38.2430029,49.454467 L33.8723776,49.7167045 Z" id="路径" fill="#3F3D56"></path>
                        <circle id="椭圆形" fill="#3F3D56" cx="56.249979" cy="53.8250923" r="2.62237516"></circle>
                        <circle id="椭圆形" fill="#65617D" cx="56.249979" cy="53.8250923" r="1.6608376"></circle>
                        <path d="M54.2394914,49.7167045 L55.9597695,53.606561 C56.0120686,53.7256217 56.1287316,53.8034897 56.258746,53.8061162 C56.3887604,53.8087428 56.5084731,53.73565 56.5655382,53.6187988 L58.6101167,49.454467 L54.2394914,49.7167045 Z" id="路径" fill="#3F3D56"></path>
                        <rect id="矩形" fill="#65617D" x="35.489509" y="42.3303478" width="10.9265632" height="6.03146288"></rect>
                        <rect id="矩形" fill="#000000" opacity="0.1" x="39.3356592" y="43.3792979" width="3.32167521" height="1"></rect>
                        <rect id="矩形" fill="#000000" opacity="0.1" x="39.7508686" y="43.4667104" width="2.49125641" height="1"></rect>
                        <rect id="矩形" fill="#65617D" x="46.5908972" y="42.3303478" width="10.9265632" height="6.03146288"></rect>
                        <rect id="矩形" fill="#000000" opacity="0.1" x="50.4370474" y="43.3792979" width="3.32167521" height="1"></rect>
                        <rect id="矩形" fill="#000000" opacity="0.1" x="50.8522568" y="43.4667104" width="2.49125641" height="1"></rect>
                        <rect id="矩形" fill="#65617D" x="35.489509" y="36.1240599" width="10.9265632" height="6.03146288"></rect>
                        <rect id="矩形" fill="#000000" opacity="0.1" x="39.3356592" y="37.17301" width="3.32167521" height="1"></rect>
                        <rect id="矩形" fill="#000000" opacity="0.1" x="39.7508686" y="37.2604225" width="2.49125641" height="1"></rect>
                        <rect id="矩形" fill="#65617D" x="46.5908972" y="36.1240599" width="10.9265632" height="6.03146288"></rect>
                        <rect id="矩形" fill="#000000" opacity="0.1" x="50.4370474" y="37.17301" width="3.32167521" height="1"></rect>
                        <rect id="矩形" fill="#000000" opacity="0.1" x="50.8522568" y="37.2604225" width="2.49125641" height="1"></rect>
                        <rect id="矩形" fill="#65617D" x="35.489509" y="29.8303595" width="10.9265632" height="6.03146288"></rect>
                        <rect id="矩形" fill="#000000" opacity="0.1" x="39.3356592" y="30.8793096" width="3.32167521" height="1"></rect>
                        <rect id="矩形" fill="#000000" opacity="0.1" x="39.7508686" y="30.9667221" width="2.49125641" height="1"></rect>
                        <rect id="矩形" fill="#65617D" x="46.5908972" y="29.8303595" width="10.9265632" height="6.03146288"></rect>
                        <rect id="矩形" fill="#000000" opacity="0.1" x="50.4370474" y="30.8793096" width="3.32167521" height="1"></rect>
                        <rect id="矩形" fill="#000000" opacity="0.1" x="50.8522568" y="30.9667221" width="2.49125641" height="1"></rect>
                        <rect id="矩形" fill="#65617D" x="46.5908972" y="23.5366591" width="10.9265632" height="6.03146288"></rect>
                        <rect id="矩形" fill="#000000" opacity="0.1" x="50.4370474" y="24.5856092" width="3.32167521" height="1"></rect>
                        <rect id="矩形" fill="#000000" opacity="0.1" x="50.8522568" y="24.6730217" width="2.49125641" height="1"></rect>
                    </g>
                </g>
            </g>
        </g>
    </g>
</svg>