<?xml version="1.0" encoding="UTF-8"?>
<svg width="120px" height="118px" viewBox="0 0 120 118" version="1.1" xmlns="http://www.w3.org/2000/svg" xmlns:xlink="http://www.w3.org/1999/xlink">
    <title>undraw_no_data_re_kwbl</title>
    <g id="客户-工作台" stroke="none" stroke-width="1" fill="none" fill-rule="evenodd">
        <g id="编组-4备份" transform="translate(-231.000000, -87.000000)" fill-rule="nonzero">
            <g id="undraw_no_data_re_kwbl" transform="translate(231.000000, 87.000000)">
                <path d="M76.1808259,26.3418231 L43.8459849,26.3418231 C42.3117695,26.3436893 41.0685076,27.5869513 41.0666413,29.1211667 L41.0666413,100.985728 L40.6960622,101.098764 L32.7638044,103.52791 C31.9810479,103.76658 31.1528553,103.326358 30.9128097,102.544023 L7.31797413,25.472815 C7.07887463,24.6900017 7.51925276,23.861503 8.30187289,23.6217721 L20.5254669,19.8789227 L55.962098,9.03207102 L68.1855993,5.28922161 C68.5612945,5.17359481 68.9675517,5.21214078 69.3147972,5.39636069 C69.6620427,5.58058061 69.9217605,5.89534625 70.0366866,6.27125636 L76.0678252,25.9712439 L76.1808259,26.3418231 Z" id="路径" fill="#F2F3F5"></path>
                <path d="M83.2366715,25.9712439 L75.9677614,2.22823784 C75.7235195,1.42927568 75.1717675,0.760132286 74.4339815,0.368129161 C73.6961954,-0.0238739639 72.8328647,-0.106597456 72.0340638,0.138171444 L54.8484558,5.39854246 L19.4137276,16.2472507 L2.22811955,21.5094747 C0.565802361,22.0199146 -0.369347464,23.7799091 0.138001268,25.4431723 L24.9816422,106.587036 C25.38797,107.910691 26.6098817,108.814711 27.9944989,108.81607 C28.3066787,108.81607 28.6171019,108.769366 28.9153362,108.677102 L40.6960622,105.071367 L41.0666413,104.956487 L41.0666413,104.569232 L40.6960622,104.682259 L28.806045,108.323199 C27.3387856,108.770462 25.7863428,107.945753 25.3355713,106.479568 L0.493829514,25.3338515 C0.277189573,24.6291644 0.349810994,23.8672399 0.695672703,23.2161667 C1.04153441,22.5650935 1.63221612,22.0783718 2.33740705,21.8633777 L19.5230151,16.6011538 L54.9578378,5.75430215 L72.1434458,0.492078237 C72.4082818,0.411254744 72.6836155,0.370045164 72.9605098,0.369787118 C74.1803214,0.372526008 75.2560802,1.16956134 75.6139158,2.3357095 L82.8494366,25.9712476 L82.9643384,26.3418268 L83.3497555,26.3418268 L83.2366715,25.9712439 Z" id="路径" fill="#3F3D56"></path>
                <path d="M22.7312485,23.6823581 C21.9981527,23.6818359 21.3510574,23.2034125 21.1356588,22.502675 L18.7490605,14.7072127 C18.6195388,14.284312 18.6633472,13.8272773 18.8708454,13.4366811 C19.0783437,13.0460848 19.4325291,12.7539332 19.8554616,12.6245153 L52.4551241,2.64412029 C53.335678,2.37541782 54.2675327,2.87038835 54.5379123,3.75042875 L56.9245106,11.5459818 C57.1930351,12.4265185 56.6981287,13.3582526 55.8182021,13.62877 L23.2184489,23.609165 C23.0605829,23.6576142 22.8963817,23.6823581 22.7312485,23.6823581 L22.7312485,23.6823581 Z" id="路径" fill="#409EFF"></path>
                <circle id="椭圆形" fill="#409EFF" cx="35.233216" cy="4.62233294" r="3.70579149"></circle>
                <circle id="椭圆形" fill="#FFFFFF" cx="35.233216" cy="4.62233294" r="2.34662205"></circle>
                <path d="M111.662012,107.869236 L49.0341356,107.869236 C48.1647237,107.868234 47.4601759,107.163686 47.4591742,106.294274 L47.4591742,31.2519968 C47.4601453,30.3825722 48.164711,29.6780065 49.0341356,29.6770354 L111.662012,29.6770354 C112.531423,29.6780381 113.23597,30.3825853 113.236973,31.2519968 L113.236973,106.294274 C113.235939,107.163673 112.53141,107.868202 111.662012,107.869236 Z" id="路径" fill="#F2F3F5"></path>
                <path d="M82.8494403,25.9712439 L43.8459849,25.9712439 C42.1073508,25.9737045 40.6985227,27.3825326 40.6960622,29.1211667 L40.6960622,104.682255 L41.0666413,104.569228 L41.0666413,29.1211667 C41.0685076,27.5869513 42.3117695,26.3436893 43.8459849,26.3418231 L82.9643421,26.3418231 L82.8494403,25.9712439 Z M116.850077,25.9712439 L43.8459849,25.9712439 C42.1073508,25.9737045 40.6985227,27.3825326 40.6960622,29.1211667 L40.6960622,113.983792 C40.6985217,115.722426 42.1073504,117.131255 43.8459849,117.133715 L116.850077,117.133715 C118.588712,117.131255 119.99754,115.722426 120,113.983792 L120,29.1211667 C119.997539,27.3825326 118.588711,25.9737045 116.850077,25.9712439 L116.850077,25.9712439 Z M119.629421,113.983792 C119.627555,115.518007 118.384293,116.761269 116.850077,116.763135 L43.8459849,116.763135 C42.3117695,116.761269 41.0685076,115.518007 41.0666413,113.983792 L41.0666413,29.1211667 C41.0685076,27.5869513 42.3117695,26.3436893 43.8459849,26.3418231 L116.850077,26.3418231 C118.384293,26.3436893 119.627555,27.5869513 119.629421,29.1211667 L119.629421,113.983792 Z" id="形状" fill="#3F3D56"></path>
                <path d="M97.3947145,34.1239852 L63.3014328,34.1239852 C62.380869,34.1229487 61.6348631,33.3769428 61.6338267,32.456379 L61.6338267,24.3036377 C61.6348641,23.3830744 62.3808695,22.637069 63.3014328,22.6360316 L97.3947145,22.6360316 C98.3152779,22.637069 99.0612833,23.3830744 99.0623207,24.3036377 L99.0623207,32.456379 C99.0612843,33.3769428 98.3152783,34.1229487 97.3947145,34.1239852 Z" id="路径" fill="#409EFF"></path>
                <circle id="椭圆形" fill="#409EFF" cx="80.3480311" cy="19.4861107" r="3.70579149"></circle>
                <circle id="椭圆形" fill="#FFFFFF" cx="80.3480311" cy="19.4861107" r="2.25717351"></circle>
            </g>
        </g>
    </g>
</svg>