<?xml version="1.0" encoding="UTF-8"?>
<svg width="75px" height="24px" viewBox="0 0 75 24" version="1.1" xmlns="http://www.w3.org/2000/svg" xmlns:xlink="http://www.w3.org/1999/xlink">
    <title>编组 4</title>
    <g id="托单跟踪" stroke="none" stroke-width="1" fill="none" fill-rule="evenodd">
        <g id="编组-4">
            <rect id="矩形" stroke="#F56C6C" fill="#FEF0F0" x="0.5" y="0.5" width="74" height="23" rx="4"></rect>
            <g id="一键显示所有" transform="translate(4.600000, 6.112000)" fill="#EF4333" fill-rule="nonzero">
                <polygon id="路径" points="0 5.052 0 5.916 10.788 5.916 10.788 5.052"></polygon>
                <path d="M11.7068571,4.392 L11.7068571,4.644 L12.6788571,4.644 L12.6788571,6.12 L11.3348571,6.12 L11.3348571,6.912 L12.6788571,6.912 L12.6788571,9.648 C12.6788571,9.816 12.5708571,9.936 12.3548571,10.02 L12.7028571,10.74 C13.4948571,10.44 14.2028571,10.056 14.8148571,9.6 L14.6708571,8.856 C14.2628571,9.192 13.8548571,9.456 13.4588571,9.672 L13.4588571,6.912 L14.6948571,6.912 L14.6948571,6.12 L13.4588571,6.12 L13.4588571,4.644 L14.5148571,4.644 L14.5148571,3.876 L11.9348571,3.876 C12.1388571,3.372 12.3308571,2.844 12.4988571,2.268 L14.5508571,2.268 L14.5508571,1.44 L12.7268571,1.44 C12.8228571,1.032 12.9068571,0.612 13.0028571,0.168 L12.1868571,0 C11.9228571,1.512 11.5148571,2.892 10.9508571,4.14 L11.6228571,4.572 C11.6468571,4.512 11.6828571,4.452 11.7068571,4.392 Z M21.3428571,5.124 L21.3428571,3.456 L21.9068571,3.456 L21.9068571,2.76 L21.3428571,2.76 L21.3428571,1.044 L19.6748571,1.044 L19.6748571,0.156 L18.8948571,0.156 L18.8948571,1.044 L17.7068571,1.044 L17.7068571,1.74 L18.8948571,1.74 L18.8948571,2.76 L17.2988571,2.76 L17.2988571,3.456 L18.8948571,3.456 L18.8948571,4.428 L17.7068571,4.428 L17.7068571,5.124 L18.8948571,5.124 L18.8948571,6.048 L17.5868571,6.048 L17.5868571,6.732 L18.8948571,6.732 L18.8948571,7.68 L17.2868571,7.68 L17.2868571,8.4 L18.8948571,8.4 L18.8948571,9.576 L19.6748571,9.576 L19.6748571,8.4 L21.7748571,8.4 L21.7748571,7.68 L19.6748571,7.68 L19.6748571,6.732 L21.4748571,6.732 L21.4748571,6.048 L19.6748571,6.048 L19.6748571,5.124 L21.3428571,5.124 Z M19.6748571,1.74 L20.6108571,1.74 L20.6108571,2.76 L19.6748571,2.76 L19.6748571,1.74 Z M19.6748571,3.456 L20.6108571,3.456 L20.6108571,4.428 L19.6748571,4.428 L19.6748571,3.456 Z M20.1788571,10.104 C19.0148571,10.056 18.1628571,9.912 17.6228571,9.648 C17.2388571,9.468 16.8788571,9.192 16.5668571,8.808 C16.9388571,7.752 17.1428571,6.468 17.1668571,4.968 L17.1668571,4.5 L15.9308571,4.5 C16.3268571,3.78 16.7228571,2.928 17.1308571,1.92 L17.1308571,1.212 L14.9588571,1.212 L14.9588571,1.956 L16.3508571,1.956 C15.9668571,2.904 15.5228571,3.792 15.0428571,4.608 L15.0428571,5.208 L16.4708571,5.208 C16.4228571,6.264 16.2788571,7.2 16.0388571,8.016 C15.7508571,7.464 15.5228571,6.84 15.3668571,6.132 L14.7188571,6.372 C14.9588571,7.38 15.2948571,8.22 15.7148571,8.892 C15.4508571,9.492 15.1028571,10.008 14.6948571,10.44 L15.2828571,11.016 C15.6548571,10.608 15.9788571,10.14 16.2428571,9.588 C16.4588571,9.84 16.7108571,10.056 16.9988571,10.236 C17.6228571,10.644 18.8348571,10.86 20.6108571,10.884 L21.9188571,10.884 L22.0748571,10.056 C21.6068571,10.08 20.9708571,10.104 20.1788571,10.104 Z" id="形状"></path>
                <path d="M23.7497143,0.54 L23.7497143,5.424 L31.6337143,5.424 L31.6337143,0.54 L23.7497143,0.54 Z M30.7937143,4.62 L24.6137143,4.62 L24.6137143,3.384 L30.7937143,3.384 L30.7937143,4.62 Z M24.6137143,2.604 L24.6137143,1.344 L30.7937143,1.344 L30.7937143,2.604 L24.6137143,2.604 Z M25.9817143,6.012 L25.9817143,9.948 L22.4057143,9.948 L22.4057143,10.788 L32.9657143,10.788 L32.9657143,9.948 L29.3657143,9.948 L29.3657143,6.012 L28.5017143,6.012 L28.5017143,9.948 L26.8457143,9.948 L26.8457143,6.012 L25.9817143,6.012 Z M31.6817143,6.216 C31.2737143,7.248 30.7697143,8.124 30.1937143,8.868 L30.8657143,9.336 C31.4657143,8.568 31.9937143,7.656 32.4497143,6.588 L31.6817143,6.216 Z M23.6537143,6.396 L22.9457143,6.84 C23.5697143,7.752 24.0737143,8.568 24.4337143,9.3 L25.1177143,8.82 C24.7817143,8.136 24.2897143,7.332 23.6537143,6.396 Z" id="形状"></path>
                <path d="M38.1925714,10.944 C38.9365714,10.944 39.3085714,10.572 39.3085714,9.852 L39.3085714,4.644 L43.9405714,4.644 L43.9405714,3.792 L33.7165714,3.792 L33.7165714,4.644 L38.4325714,4.644 L38.4325714,9.636 C38.4325714,9.972 38.2525714,10.152 37.8925714,10.152 C37.4365714,10.152 36.9685714,10.128 36.4645714,10.104 L36.6445714,10.944 L38.1925714,10.944 Z M35.5645714,5.964 C35.1445714,7.428 34.4725714,8.76 33.5485714,9.96 L34.3045714,10.428 C35.2165714,9.228 35.9125714,7.8 36.4165714,6.144 L35.5645714,5.964 Z M41.9005714,5.844 L41.1205714,6.108 C41.8885714,7.332 42.5965714,8.736 43.2445714,10.332 L44.0365714,9.972 C43.4365714,8.508 42.7165714,7.14 41.9005714,5.844 Z M34.8205714,0.744 L34.8205714,1.584 L42.8725714,1.584 L42.8725714,0.744 L34.8205714,0.744 Z" id="形状"></path>
                <path d="M49.2394286,7.152 L49.2394286,3.144 L46.1674286,3.144 L46.1674286,1.752 C47.4154286,1.572 48.4714286,1.248 49.3354286,0.78 L48.7594286,0.12 C47.9434286,0.612 46.8274286,0.948 45.3994286,1.116 L45.3994286,6.096 C45.3754286,7.776 45.0394286,9.216 44.3914286,10.44 L44.9914286,11.064 C45.5914286,9.948 45.9634286,8.64 46.1074286,7.152 L49.2394286,7.152 Z M46.1674286,3.984 L48.4474286,3.984 L48.4474286,6.36 L46.1554286,6.36 C46.1554286,6.264 46.1674286,6.18 46.1674286,6.096 L46.1674286,3.984 Z M51.0514286,4.62 L53.2234286,4.62 L53.2234286,11.088 L54.0754286,11.088 L54.0754286,4.62 L55.4314286,4.62 L55.4314286,3.792 L51.0514286,3.792 L51.0394286,1.692 C52.5034286,1.62 53.8234286,1.356 55.0114286,0.9 L54.5794286,0.144 C53.4034286,0.636 51.9634286,0.912 50.2714286,0.984 L50.2714286,6.408 C50.2474286,8.256 49.9714286,9.684 49.4554286,10.704 L50.2354286,11.088 C50.7634286,10.044 51.0274286,8.484 51.0514286,6.408 L51.0514286,4.62 Z" id="形状"></path>
                <path d="M59.3142857,4.404 L64.0782857,4.404 L64.0782857,5.712 L59.3142857,5.712 L59.3142857,4.404 Z M64.0782857,6.468 L64.0782857,7.74 L59.3142857,7.74 L59.3142857,6.468 L64.0782857,6.468 Z M64.0782857,8.496 L64.0782857,9.864 C64.0782857,10.152 63.9222857,10.296 63.6102857,10.296 C63.2142857,10.296 62.7822857,10.272 62.3262857,10.248 L62.5422857,11.04 L63.8862857,11.04 C64.5582857,11.016 64.8942857,10.716 64.8942857,10.128 L64.8942857,3.648 L59.3262857,3.648 C59.6142857,3.204 59.8662857,2.736 60.1062857,2.256 L66.4302857,2.256 L66.4302857,1.416 L60.4662857,1.416 C60.6342857,0.996 60.7782857,0.564 60.9222857,0.12 L60.0462857,0.012 C59.9022857,0.48 59.7222857,0.948 59.5182857,1.416 L55.9422857,1.416 L55.9422857,2.256 L59.1222857,2.256 C58.2942857,3.804 57.1302857,5.172 55.6182857,6.372 L56.1822857,7.104 C57.0462857,6.408 57.8262857,5.628 58.4982857,4.788 L58.4982857,11.064 L59.3142857,11.064 L59.3142857,8.496 L64.0782857,8.496 Z" id="形状"></path>
            </g>
        </g>
    </g>
</svg>