<?xml version="1.0" encoding="UTF-8"?>
<svg width="14px" height="16px" viewBox="0 0 14 16" version="1.1" xmlns="http://www.w3.org/2000/svg" xmlns:xlink="http://www.w3.org/1999/xlink">
    <title>haiguangangkou备份</title>
    <g id="及时通-客户端运价" stroke="none" stroke-width="1" fill="none" fill-rule="evenodd">
        <g id="及时通-运价查询" transform="translate(-587.000000, -156.000000)" fill="#D3DADD" fill-rule="nonzero">
            <g id="编组-38" transform="translate(321.000000, 126.000000)">
                <g id="目的港" transform="translate(266.000000, 10.000000)">
                    <g id="haiguangangkou备份" transform="translate(0.000000, 20.000000)">
                        <path d="M7.00936873,0.000390357497 C9.05749141,0.000390357497 10.7178229,1.66072184 10.7178229,3.70884453 C10.7178229,5.53574616 9.39644213,7.05426055 7.65737229,7.36108634 L7.65659157,9.38512158 L9.59240465,9.38512158 L9.59240465,10.5562124 L7.65659157,10.5562124 L7.65659157,12.8039259 C9.3552855,12.643802 10.9208672,11.8156584 12.0091457,10.5015615 L10.930571,9.85316754 L14,8.15508589 L13.9418358,11.6625028 L13.0233103,11.1105287 C11.7115926,12.7717785 9.76699156,13.8113415 7.65698193,13.9793107 L7.65698193,15.8163618 L6.48589114,15.8163618 L6.48589114,13.982824 C4.34179207,13.8246812 2.36474661,12.7665981 1.04383225,11.0703212 L0.0577738061,11.6625028 L0,8.15508589 L3.06942896,9.85316754 L2.05604505,10.4621347 C3.15477107,11.8104068 4.75243847,12.6565538 6.48511041,12.8078296 L6.48511041,10.555822 L4.51884898,10.555822 L4.51884898,9.38473122 L6.48511041,9.38473122 L6.48511041,7.38021415 C4.7191055,7.13038145 3.35322328,5.63685032 3.30208565,3.81385234 L3.3005242,3.70845417 C3.3005242,1.66033149 4.96085569,0 7.00897837,0 L7.00936873,0.000390357497 Z M7.00936873,1.17148115 C6.10285609,1.17148115 5.26520387,1.65509986 4.81194755,2.44016283 C4.35869123,3.22522579 4.35869123,4.19246326 4.81194755,4.97752623 C5.26520387,5.7625892 6.10285609,6.24620791 7.00936873,6.24620791 C8.41071581,6.24620791 9.54673207,5.11019161 9.54673207,3.70884453 C9.54673207,2.30749744 8.41071581,1.17148115 7.00936873,1.17148115 L7.00936873,1.17148115 Z" id="形状"></path>
                    </g>
                </g>
            </g>
        </g>
    </g>
</svg>