<?xml version="1.0" encoding="UTF-8"?>
<svg width="18px" height="19px" viewBox="0 0 18 19" version="1.1" xmlns="http://www.w3.org/2000/svg" xmlns:xlink="http://www.w3.org/1999/xlink">
    <title>zhengcezhinanzhen备份</title>
    <g id="概况（暂缓" stroke="none" stroke-width="1" fill="none" fill-rule="evenodd">
        <g id="zhengcezhinanzhen备份" fill="#C8C9CC" fill-rule="nonzero">
            <path d="M2.29396021,0 L14.405304,0 C14.8933287,0.00595152029 15.3793695,0.164658728 15.770186,0.460250902 C16.2502753,0.81535828 16.5855443,1.36091431 16.6768009,1.95209865 C16.7144939,2.17825643 16.7085424,2.40838188 16.7085424,2.63850733 C16.7085424,4.77311927 16.7105262,6.90773122 16.7065585,9.04035932 C16.6986232,9.11971292 16.6688655,9.19509885 16.6232372,9.26056557 C16.5002391,9.43911118 16.2463076,9.50656174 16.0518913,9.41133742 C15.5559313,9.16930893 15.0222783,9.0046502 14.4747384,8.93323195 C13.6970731,8.83007227 12.8936178,8.90744203 12.1516617,9.16137356 C11.5902349,9.35380605 11.0605496,9.64543055 10.6002987,10.0183925 C9.67582921,10.7583648 9.02314582,11.8296385 8.79500421,12.9921688 C8.65018388,13.7182543 8.66407076,14.4760812 8.83864869,15.1962151 C8.97950134,15.7834318 9.22748135,16.3448586 9.56671801,16.8467701 C9.60837865,16.9062853 9.65400697,16.9677843 9.67384537,17.0392026 C9.72740905,17.2098128 9.67582921,17.406213 9.54092808,17.5252434 C9.4576068,17.6006293 9.34651175,17.64229 9.23343287,17.64229 L2.47845734,17.64229 C2.27015413,17.6442738 2.06185092,17.6383223 1.85751539,17.5946778 C1.44090897,17.5113565 1.05009247,17.3090048 0.738629576,17.0193642 C0.264491793,16.5829194 -0.0152296602,15.942139 0.000641060526,15.297391 L0.000641060526,2.31910907 C-0.00927813996,1.63071656 0.320039316,0.950259406 0.855676142,0.519766105 C1.25244416,0.188464809 1.77221027,0.00595152029 2.29396021,0 M3.69653516,3.86253667 C3.51997339,3.89626195 3.37316922,4.04306612 3.3374601,4.21764404 C3.30175098,4.37635125 3.35531466,4.55092918 3.47632891,4.66004039 C3.56560171,4.74534551 3.6885998,4.78700615 3.81159789,4.78502231 L12.8003774,4.78502231 C12.891634,4.78502231 12.9868583,4.78700615 13.0741473,4.75328087 C13.2487252,4.68781415 13.3737071,4.50926854 13.3737071,4.32278757 C13.3816425,4.12440356 13.2427737,3.93395491 13.0543089,3.87443971 C12.9729715,3.84666595 12.8856825,3.84864979 12.8003774,3.85063363 L3.81358173,3.85063363 C3.77192108,3.85261747 3.73422812,3.85460131 3.69653516,3.86253667 M3.6786806,7.66159045 C3.51005419,7.70325109 3.37118538,7.84807142 3.3374601,8.01868167 C3.30373482,8.17540504 3.3572985,8.34998297 3.47831275,8.45909417 C3.56560171,8.54439929 3.6885998,8.5840761 3.80961405,8.58209226 L8.77119813,8.58209226 C8.89816389,8.58605994 9.0271135,8.54439929 9.12035398,8.45711033 C9.28104503,8.31229 9.31675415,8.05042311 9.19970759,7.86790982 C9.1163863,7.72507334 8.95172758,7.64175205 8.78706885,7.64571973 L3.80961405,7.64571973 C3.76596956,7.64571973 3.72232508,7.64968741 3.6786806,7.66159045 M3.6786806,11.389226 C3.54973099,11.4209674 3.43863595,11.5102402 3.37912074,11.6272868 C3.30571866,11.7681395 3.31167018,11.9447012 3.39300763,12.0815862 C3.47434507,12.220455 3.63305228,12.3117116 3.79374332,12.3057601 L5.83511478,12.3057601 C5.92438759,12.3097278 6.01366039,12.2799702 6.08904632,12.232358 C6.24775352,12.1311822 6.33107481,11.9288305 6.29139801,11.7463172 C6.25965656,11.5776908 6.12673928,11.4368382 5.96009671,11.3912098 C5.87875927,11.3674038 5.79345414,11.3733553 5.71013286,11.3733553 L3.89888685,11.3733553 C3.82548477,11.3733553 3.75208268,11.3693876 3.6786806,11.389226 L3.6786806,11.389226 Z M13.78,9.8 C11.4714457,9.8 9.6,11.6714457 9.6,13.98 C9.6,16.2879571 11.4714457,18.16 13.78,18.16 C16.0885543,18.16 17.96,16.2879571 17.96,13.98 C17.96,11.6714457 16.0885543,9.8 13.78,9.8 Z M15.4382657,13.6670971 L15.4382657,14.5502714 L14.2696571,14.5502714 L14.2696571,14.8566057 L15.4382657,14.8566057 L15.4382657,15.7409743 L14.2696571,15.7409743 L14.2696571,16.5901114 L13.3990229,16.5901114 L13.3990229,15.7409743 L12.2632571,15.7409743 L12.2632571,14.8566057 L13.3990229,14.8566057 L13.3990229,14.5502714 L12.2632571,14.5502714 L12.2632571,13.6670971 L12.9266829,13.6670971 L11.8142057,11.6165086 L12.8191971,11.6165086 L13.78,13.3852457 L14.7402057,11.6165086 L15.7457943,11.6165086 L14.6333171,13.6670971 L15.4382657,13.6670971 Z" id="形状"></path>
        </g>
    </g>
</svg>