<?xml version="1.0" encoding="UTF-8"?>
<svg width="25px" height="14px" viewBox="0 0 25 14" version="1.1" xmlns="http://www.w3.org/2000/svg" xmlns:xlink="http://www.w3.org/1999/xlink">
    <title>编组 9</title>
    <g id="页面-1" stroke="none" stroke-width="1" fill="none" fill-rule="evenodd">
        <g id="及时通备份-3" transform="translate(-341.000000, -101.000000)">
            <g id="应用推荐" transform="translate(249.000000, 74.000000)">
                <g id="编组" transform="translate(32.000000, 24.000000)">
                    <g id="编组-9" transform="translate(60.000000, 3.000000)">
                        <rect id="矩形" fill="#F56C6C" x="0" y="0" width="25" height="13.5" rx="6.75"></rect>
                        <g id="推荐" transform="translate(3.400000, 2.000000)" fill="#FFFFFF" fill-rule="nonzero">
                            <path d="M4.72,4.49 L6.5,4.49 L6.5,5.84 L4.72,5.84 L4.72,4.49 Z M4.72,6.51 L6.5,6.51 L6.5,8 L4.72,8 L4.72,6.51 Z M4.72,8.69 L9.06,8.69 L9.06,8 L7.21,8 L7.21,6.51 L8.75,6.51 L8.75,5.84 L7.21,5.84 L7.21,4.49 L8.75,4.49 L8.75,3.81 L7.21,3.81 L7.21,2.45 L8.95,2.45 L8.95,1.75 L7.04,1.75 L7.31,1.65 C7.18,1.15 7,0.61 6.76,0.01 L6.07,0.2 C6.3,0.7 6.5,1.22 6.66,1.75 L4.85,1.75 C5.07,1.24 5.26,0.72 5.41,0.18 L4.71,0.04 C4.37,1.34 3.8,2.53 2.98,3.61 L3.22,4.37 C3.5,4.03 3.77,3.67 4.01,3.29 L4.01,9.15 L4.72,9.15 L4.72,8.69 Z M6.5,2.45 L6.5,3.81 L4.72,3.81 L4.72,2.45 L6.5,2.45 Z M3.09,4.14 C2.79,4.29 2.48,4.43 2.16,4.57 L2.16,2.55 L3.17,2.55 L3.17,1.85 L2.16,1.85 L2.16,0 L1.43,0 L1.43,1.85 L0.15,1.85 L0.15,2.55 L1.43,2.55 L1.43,4.85 C0.97,5.01 0.49,5.15 0,5.26 L0.18,5.98 C0.6,5.86 1.02,5.72 1.43,5.58 L1.43,7.99 C1.43,8.25 1.29,8.38 1.02,8.38 C0.76,8.38 0.48,8.36 0.2,8.33 L0.35,9.03 L1.27,9.03 C1.86,9.03 2.16,8.74 2.16,8.18 L2.16,5.29 C2.48,5.16 2.79,5.02 3.09,4.87 L3.09,4.14 Z" id="形状"></path>
                            <path d="M10.27,0.75 L10.27,1.41 L12.54,1.41 L12.54,2.13 L13.28,2.13 L13.28,1.41 L15.92,1.41 L15.92,2.14 L16.66,2.14 L16.66,1.41 L18.93,1.41 L18.93,0.75 L16.66,0.75 L16.66,0.03 L15.92,0.03 L15.92,0.75 L13.28,0.75 L13.28,0.03 L12.54,0.03 L12.54,0.75 L10.27,0.75 Z M10.4,2.81 L10.4,3.47 L12.84,3.47 C12.19,4.48 11.27,5.38 10.08,6.16 L10.53,6.74 C11.03,6.4 11.49,6.05 11.91,5.67 L11.91,9.21 L12.6,9.21 L12.6,4.97 C13.01,4.5 13.37,4 13.67,3.47 L18.88,3.47 L18.88,2.81 L14,2.81 C14.08,2.6 14.17,2.39 14.25,2.17 L13.55,2.05 C13.45,2.3 13.34,2.55 13.22,2.81 L10.4,2.81 Z M16.06,5.71 L16.06,6.33 L13.3,6.33 L13.3,7.01 L16.06,7.01 L16.06,8.16 C16.06,8.4 15.93,8.52 15.69,8.52 C15.43,8.52 15.06,8.5 14.6,8.47 L14.81,9.17 L15.98,9.17 C16.51,9.17 16.78,8.9 16.78,8.36 L16.78,7.01 L18.98,7.01 L18.98,6.33 L16.78,6.33 L16.78,5.91 C17.35,5.51 17.87,5.12 18.33,4.76 L18.33,4.24 L14.02,4.24 L14.02,4.9 L17.31,4.9 C16.83,5.22 16.42,5.49 16.06,5.71 Z" id="形状"></path>
                        </g>
                    </g>
                </g>
            </g>
        </g>
    </g>
</svg>