<?xml version="1.0" encoding="UTF-8"?>
<svg width="18px" height="18px" viewBox="0 0 18 18" version="1.1" xmlns="http://www.w3.org/2000/svg" xmlns:xlink="http://www.w3.org/1999/xlink">
    <title>形状</title>
    <g id="概况（暂缓" stroke="none" stroke-width="1" fill="none" fill-rule="evenodd">
        <g id="首页概况备份" transform="translate(-24.000000, -626.000000)" fill="#C8C9CC" fill-rule="nonzero">
            <g id="工具组" transform="translate(0.000000, 51.000000)">
                <g id="工作台备份-3" transform="translate(21.000000, 575.000000)">
                    <g id="shezhi" transform="translate(3.000000, 0.000000)">
                        <path d="M17.3740565,6.4389129 L16.2003279,6.27475505 C15.9397273,6.23781953 15.7283741,6.06134984 15.6257754,5.82126898 C15.3939024,5.27339216 15.0984183,4.76039887 14.7454789,4.292549 C14.587477,4.08324774 14.5402816,3.81033531 14.6387763,3.56820248 L15.0840545,2.47039686 C15.2215367,2.13387327 15.0881584,1.74605034 14.7721546,1.56547671 L12.2338638,0.0983159194 C11.9178599,-0.0843096893 11.5177252,-0.00633471034 11.2940601,0.280941528 L10.5676616,1.21048536 C10.4055558,1.41978662 10.1429032,1.51622935 9.88025063,1.48339778 C9.59297439,1.44646227 9.29954223,1.42594254 9.00200613,1.42594254 C8.70447002,1.42594254 8.41103787,1.44646227 8.12376163,1.48339778 C7.86110907,1.51622935 7.59845651,1.41978662 7.43635063,1.21048536 L6.70995214,0.280941528 C6.48628707,-0.00633471034 6.08615231,-0.0843096893 5.77014845,0.0983159194 L3.23185768,1.56342474 C2.91585382,1.74605034 2.78452754,2.13182129 2.91995777,2.46834489 L3.36523594,3.56615051 C3.46373065,3.81033531 3.41653526,4.08119577 3.25853333,4.29049703 C2.90559395,4.7583469 2.60805785,5.27134018 2.37823686,5.81921701 C2.2756382,6.06134984 2.06428497,6.23781953 1.80368438,6.27270307 L0.629955751,6.43686092 C0.26880848,6.48816025 0,6.79595622 0,7.16120744 L0,10.093477 C0,10.4566763 0.26880848,10.7644723 0.627903778,10.8157716 L1.80163241,10.9799294 C2.062233,11.016865 2.27358623,11.1933346 2.37618489,11.4334155 C2.60805785,11.9812923 2.90354198,12.4942856 3.25648136,12.9621355 C3.41448329,13.1714367 3.46167867,13.4443492 3.36318396,13.686482 L2.91790579,14.7842876 C2.78042359,15.1208112 2.91380185,15.5086341 3.22980571,15.6892078 L5.76809647,17.1543166 C6.08410034,17.3369422 6.4842351,17.2589672 6.70790017,16.971691 L7.43429866,16.0421472 C7.59640453,15.8328459 7.85905709,15.7364032 8.12170965,15.7692347 C8.40898589,15.8061702 8.70241805,15.82669 8.99995416,15.82669 C9.29749026,15.82669 9.59092242,15.8061702 9.87819866,15.7692347 C10.1408512,15.7364032 10.4035038,15.8328459 10.5656097,16.0421472 L11.2920081,16.971691 C11.5156732,17.2589672 11.915808,17.3369422 12.2318118,17.1543166 L14.7701026,15.6892078 C15.0861065,15.5065822 15.2174327,15.1208112 15.0820025,14.7842876 L14.6367243,13.686482 C14.5382296,13.4443492 14.585425,13.1714367 14.743427,12.9621355 C15.0963663,12.4942856 15.3939024,11.9812923 15.6237234,11.4334155 C15.7263221,11.1912827 15.9376753,11.014813 16.1982759,10.9799294 L17.3720045,10.8157716 C17.7331518,10.7644723 17.9999547,10.4566763 17.9999547,10.093477 L17.9999547,7.16120744 C18.0040123,6.79595622 17.7352038,6.48816025 17.3740565,6.4389129 Z M9.00200613,11.4765069 C7.42814274,11.4765069 6.15181545,10.2001796 6.15181545,8.62631625 C6.15181545,7.05245286 7.42814274,5.77612557 9.00200613,5.77612557 C10.5758695,5.77612557 11.8521968,7.05245286 11.8521968,8.62631625 C11.8521968,10.2001796 10.5758695,11.4765069 9.00200613,11.4765069 Z" id="形状"></path>
                    </g>
                </g>
            </g>
        </g>
    </g>
</svg>