<?xml version="1.0" encoding="UTF-8"?>
<svg width="56px" height="56px" viewBox="0 0 56 56" version="1.1" xmlns="http://www.w3.org/2000/svg" xmlns:xlink="http://www.w3.org/1999/xlink">
    <title>icon-上海舱单</title>
    <defs>
        <path d="M34,17.8868677 L34,11.7678691 C33.9925455,11.0701811 33.8210099,10.3840387 33.4992636,9.7649236 C33.3895755,9.2413854 33.0987903,8.77329208 32.678056,8.44297959 C32.2410405,8.13233322 31.7218023,7.95809223 31.1858616,7.94224322 L29.8138439,7.94224322 C29.4554038,7.92287463 29.1676133,7.63937948 29.1428571,7.28127118 L29.1428571,6.96079991 C29.1428571,6.63031389 29.3131075,6.12957752 29.3131075,5.7990915 L29.3131075,5.59879698 C29.1340902,4.89370169 28.5424473,4.3695617 27.8209131,4.27685293 L27.6606774,4.27685293 C27.1748285,4.4085517 26.6712169,4.4626308 26.168483,4.43708857 C25.837997,4.43708857 25.507511,4.27685293 25.507511,3.9363522 L25.507511,2.49423143 C25.5845087,1.64771644 25.1188145,0.844795355 24.3458026,0.491285921 C23.5566975,0.1711251 22.7137216,0.00456935588 21.8621502,0.000250647556 L15.072165,0.000250647556 C15.0279609,-0.00220399341 14.9845825,0.0134477522 14.9523301,0.0438030181 C14.9200776,0.074158284 14.901828,0.116509307 14.9019146,0.160799901 C15.1122487,0.657184616 15.5416653,1.02737129 16.063623,1.16227267 C16.8357581,1.24736228 17.6149047,1.24736228 18.3870398,1.16227267 L20.1997054,1.16227267 C20.3699558,1.16227267 20.3699558,1.16227267 20.3699558,1.33252302 C20.3699558,1.50277337 20.3699558,1.66300904 20.1997054,1.66300904 L16.724595,1.66300904 C16.5643593,1.66300904 16.5643593,1.83325943 16.5643593,1.83325939 C16.5643593,1.87575653 16.5812413,1.9165131 16.6112913,1.94656312 C16.6413413,1.97661314 16.6820978,1.99349506 16.724595,1.99349506 C16.8948454,1.99349506 16.724595,2.16374545 16.8948453,2.16374541 L17.055081,2.16374541 C17.2499676,2.29262542 17.4837829,2.34930794 17.716053,2.32398105 L20.3699558,2.32398105 C20.3699558,2.41800773 20.4461795,2.49423141 20.5402062,2.49423143 L21.2011782,2.49423143 C21.2896739,2.49423143 21.3614138,2.56597137 21.3614138,2.65446707 L18.8777614,2.65446707 C18.7175257,2.65446707 18.3870397,2.49423143 18.2167894,2.65446707 L18.2167894,2.98495309 C18.5122546,3.31359637 18.9366966,3.49654553 19.3784978,3.48568946 L21.9823269,3.48568946 C22.3421246,3.2953348 22.7379183,3.18273832 23.1440353,3.15520344 C23.3142857,3.31543908 23.4745214,3.31543908 23.3142857,3.48568946 L20.3098674,3.48568946 C20.1396171,3.48568946 20.1396171,3.48568946 20.1396171,3.6459251 C20.3098674,3.97641112 20.6403534,4.31691185 20.9708394,4.31691185 L23.9752577,4.31691185 C24.1354934,4.31691185 24.3057437,4.47714749 24.1354934,4.64739783 L21.8621502,4.64739783 C21.6918998,4.64739783 21.6918998,4.80763347 21.8621502,4.80763347 C22.0223858,5.13811949 22.1926362,5.30836984 22.5231222,5.13811949 L25.1670103,5.13811949 C25.261037,5.13811951 25.3372607,5.2143432 25.3372607,5.30836988 C25.3372607,5.46860551 25.1670103,5.46860551 25.1670103,5.46860551 L22.9837997,5.46860551 C22.8135493,5.46860551 22.9837997,5.6388559 22.9837997,5.63885586 C23.1440353,5.7990915 23.3142857,5.96934188 23.4745213,5.96934188 C24.1354933,6.2998279 24.1354933,6.47007825 24.1354934,7.29128593 L24.1354934,7.46153628 C24.1572113,7.64075084 24.0985522,7.82039438 23.9752577,7.95225793 L20.9708394,10.9566762 L20.7004418,10.6061607 C20.2478047,9.97864828 19.8586559,9.30770216 19.5387334,8.60321523 C19.3255621,8.19246935 19.4706859,7.68673479 19.8692194,7.45152157 C19.9632461,7.45152157 20.0394698,7.37529787 20.0394698,7.28127118 C20.1997054,7.28127118 20.3699558,7.12103554 20.5402062,7.12103554 L20.8706922,7.12103554 L21.6918998,7.45152157 C22.0223858,7.6117572 22.1926362,7.45152157 22.1926362,7.12103554 C22.1493246,6.30562795 21.7171978,5.5605818 21.0309278,5.11809003 L20.8706922,5.11809003 C20.147674,4.81666095 19.3168593,4.94418135 18.7175257,5.44857605 C17.9212024,6.01517263 17.4802832,6.95782759 17.5558174,7.93222848 L17.5558174,8.10247886 C17.597848,8.86325784 17.8247226,9.60231923 18.2167894,10.2556453 C16.7226718,10.0147665 15.2892867,10.9458173 14.9019146,12.4088117 L11.4268041,8.93370125 L9.11340205,6.47007825 C9.10398367,6.28986208 8.96277084,6.14437008 8.78291602,6.12957752 L7.78144329,5.12810478 L5.77849777,3.12515927 L5.60824743,2.95490888 L5.11752577,2.6244229 C4.67234367,2.19226829 3.98281742,2.13761071 3.47511045,2.49423143 C2.94861346,2.94766703 2.81084305,3.7074917 3.14462443,4.31691185 C3.14462443,4.47714749 3.31487481,4.47714749 3.31487481,4.47714749 L11.9275405,13.0898132 L12.0877761,13.0898132 L13.4097202,14.4117572 C13.5799706,14.4117572 13.4097202,14.5820076 13.4097202,14.5820076 C12.8692029,14.7580822 12.4036006,15.1108112 12.0877761,15.5834803 C11.5998448,16.2484837 11.4211168,17.0910583 11.5970545,17.8968824 C11.5970545,17.8968824 11.7572901,18.0671328 11.5970545,18.0671328 L11.0963181,18.0671328 C10.0519048,18.0512815 9.08906617,18.6297612 8.61266568,19.5593271 C8.14194599,20.7001895 8.27352474,22.0009396 8.96318112,23.0244229 C9.00784591,23.0677976 9.03304967,23.1274059 9.03304967,23.1896659 C9.03304967,23.2519259 9.00784591,23.3115342 8.96318112,23.3549089 L3.31487481,28.9831858 C2.98438879,29.3136718 2.98438879,29.6441578 3.31487481,30.1448942 L3.47511045,30.1448942 C3.64536083,30.3151445 3.80559647,30.3151445 4.1460972,30.1448942 L8.96318112,25.5080753 L10.1248895,24.3463669 C10.1248895,24.1861313 10.2851252,24.1861313 10.4553756,24.3463669 C10.9392017,24.6841773 11.5178485,24.8595249 12.1078056,24.8471033 L12.7687776,24.8471033 C14.1271031,24.8153786 15.2207053,23.7217764 15.25243,22.3634509 L15.25243,21.8627145 C15.25243,21.7024788 15.25243,21.5322285 15.4226804,21.7024788 L15.582916,21.7024788 C16.5494682,21.8641982 17.5352145,21.555455 18.2368188,20.8712564 L18.5673049,20.5407705 C18.5673049,20.3705201 18.7375552,20.2102844 18.7375552,20.0400341 C18.7375552,19.8697837 18.8977908,19.8797984 18.8977908,20.0400341 L20.5602356,21.7024788 L20.8907216,21.8627145 C21.0509573,22.0329649 21.2212077,22.0329649 21.2212076,22.1932005 L22.5431517,23.5251593 C22.9237252,23.9937419 22.9868403,24.6446162 22.7033873,25.1775893 C22.5201312,25.5401994 22.4079522,25.9345258 22.3729013,26.3392977 L22.3729013,27.9917277 C22.3448264,28.4392009 22.4026152,28.8879137 22.5431517,29.3136718 C22.7033873,29.6441578 22.7033873,29.9846585 23.043888,30.3151445 L23.2041237,30.3151445 C24.1396454,31.4445734 25.5232727,32.1071039 26.9896907,32.1278102 C28.8967667,32.3079681 30.7033373,31.2410003 31.4662739,29.4839222 L31.7967599,28.9831858 C31.9709247,28.8011379 32.0861065,28.5707743 32.1272459,28.3222137 L32.1272459,28.1619781 C32.5973678,27.0016793 32.6574281,25.7156824 32.2974963,24.5166173 C32.1208463,23.9207776 31.8393669,23.3612101 31.4662739,22.8641872 C30.6556654,22.0983065 29.5768468,21.6811633 28.4618557,21.7024788 L27.9911635,21.7024788 C27.2441452,21.6878459 26.5049038,21.8563242 25.837997,22.1932005 L25.507511,22.1932005 C25.0166776,22.2086057 24.5390699,22.032645 24.1755523,21.7024788 L24.3458026,21.3719929 L24.1755523,21.2017425 L23.8450663,20.8712564 L23.1840943,20.3705201 L22.6833579,19.8797984 L21.2011782,18.387604 C21.8360225,18.2177251 22.409251,17.8703139 22.8536082,17.3861313 C23.2054749,16.7268933 23.3220506,15.967385 23.1840943,15.2329649 C23.1840943,15.0627145 23.1840943,15.0627145 23.3543446,15.0627145 L23.8450663,15.2329649 C24.9026638,15.7650803 26.1624229,15.7003797 27.1599411,15.0627145 C27.2024382,15.0627145 27.2431948,15.0458326 27.2732448,15.0157826 C27.3032948,14.9857325 27.3201767,14.944976 27.3201767,14.9024788 L27.8209131,14.5719928 L27.9911635,14.4117572 L28.1513991,14.2515216 C28.4527998,13.6276011 28.5134205,12.9144162 28.3216495,12.2485761 C28.3216495,12.0883404 28.1513991,12.0883404 28.1513991,11.91809 C27.6958197,11.4842461 27.1198901,11.1980266 26.4989691,11.0968824 L25.988218,11.0968824 C25.988218,11.0968824 25.8279823,11.0968824 25.988218,11.257118 L25.988218,11.4273684 C25.966174,11.6084532 26.0290096,11.7895674 26.1584683,11.91809 C26.303718,12.169305 26.3601615,12.4621058 26.318704,12.7493124 C26.318704,13.5805348 25.657732,14.0712565 24.9967599,13.7507852 C24.2232354,13.408247 23.4990751,12.9636462 22.8435935,12.4288412 C22.6733431,12.2585908 22.8435935,12.2585908 22.8435935,12.2585908 C23.6748159,11.4373831 24.6662739,10.4359104 25.6577319,9.61470271 C25.8397798,9.44053791 26.0701434,9.32535609 26.318704,9.28421669 C26.64919,9.28421669 26.979676,9.11396631 27.3201767,9.28421669 C27.3200901,9.32850729 27.3383397,9.37085831 27.3705922,9.40121358 C27.4028447,9.43156884 27.446223,9.44722059 27.4904271,9.44445233 C27.6606775,9.77493835 27.8209131,9.9451887 27.9911635,10.2756747 C27.9911635,10.2756747 28.1513991,10.4359104 28.1513991,10.2756747 L28.1513991,8.12250832 L28.3216495,8.12250832 C28.4818851,8.12250832 28.4818851,8.28274395 28.4818851,8.4529943 L28.4818851,11.1068971 C28.4818851,11.2671327 28.6521355,11.5976188 28.8123711,11.5976188 C28.9826215,11.7678692 29.1428571,11.7678692 29.1428571,11.4373831 L29.1428571,9.28421669 C29.1428571,9.11396631 29.3131075,9.11396631 29.4733431,9.11396634 L29.4733431,12.4288412 C29.4733431,12.5890768 29.6435935,12.7593272 29.6435935,12.9195628 C29.7376202,12.9195628 29.8138439,12.9957865 29.8138439,13.0898132 L29.994109,13.0898132 C30.0825912,13.0926243 30.1682948,13.0587088 30.2308927,12.9961109 C30.2934906,12.933513 30.3274061,12.8478093 30.324595,12.7593271 L30.324595,10.1054244 C30.4186216,10.1054244 30.4948453,10.181648 30.4948453,10.2756747 L30.4948453,13.7507852 C30.4787714,14.1111423 30.6744652,14.4477356 30.9955817,14.6120518 L31.1658321,14.6120518 L31.1658321,11.2671327 C31.3260677,11.2671327 31.3260677,11.2671327 31.3260677,11.4373831 L31.3260677,15.0727292 C31.3177738,15.4686674 31.5050772,15.8432742 31.8268041,16.074202 C31.9870397,16.2344376 31.9870397,16.074202 31.9870397,15.9039516 L31.9870397,15.743716 C32.0026531,14.6955449 31.9390455,13.6476924 31.7967599,12.6091063 L31.7967599,12.4488706 C31.9569956,12.4488706 31.9569956,12.4488706 31.9569956,12.6091063 L31.9569956,16.4247174 C31.9267428,16.7676253 31.9853788,17.1125427 32.1272459,17.4261902 C32.260486,17.7191287 32.4952794,17.9539221 32.788218,18.0871622 C32.9584683,18.0871622 32.9584683,18.2574126 33.1187039,18.0871622 C33.2789395,17.9169118 33.9499263,18.0871622 33.9499263,17.9169118 L34,17.8868677 Z M24.8365243,26.1690473 C25.0864185,25.7707026 25.5182114,25.522891 25.988218,25.5080753 C26.1584683,25.5080753 26.1584683,25.5080753 26.1584683,25.3478397 C26.28565,24.5214791 26.9758903,23.8981712 27.8108984,23.8556453 C28.2937237,23.6853692 28.8202674,23.6853692 29.3030928,23.8556453 L29.4633284,23.8556453 C30.1093879,24.1744014 30.588425,24.7540664 30.7797591,25.4486091 C30.9710932,26.1431519 30.8564829,26.8863561 30.4648012,27.4909914 C29.9428207,28.5350063 29.0657926,29.3587735 27.9911635,29.8144081 C26.8751839,30.3160634 25.5604018,29.9696288 24.8365243,28.9831858 C24.6541868,28.6776671 24.5413538,28.3357489 24.5060383,27.981713 L24.5060383,27.4809766 C24.5201627,27.0217325 24.6328721,26.5708948 24.8365243,26.1590326 L24.8365243,26.1690473 Z M10.4353461,21.8627145 C10.248975,21.5048998 10.1365783,21.1132142 10.1048601,20.7110208 C10.1524337,20.2052317 10.6004355,19.8333902 11.1063328,19.8797984 C11.4368189,19.8797984 11.7673049,20.0400341 12.1078056,20.0400341 C12.278056,20.0400341 12.278056,20.2102844 12.1078056,20.2102844 L10.6156112,21.8627145 C10.6156112,22.0329649 10.4553756,22.0329649 10.4553756,21.8627145 L10.4353461,21.8627145 Z M13.7502209,23.0244229 C13.5906149,23.3355444 13.2686438,23.5295029 12.9189985,23.5251593 C12.5142266,23.4901084 12.1199002,23.3779293 11.7572901,23.1946732 C11.5970545,23.1946732 11.5970545,23.0244228 11.7572901,23.0244229 L12.0877761,22.6939369 L13.4097202,21.3719929 C13.7609824,21.8458019 13.885555,22.4503455 13.7502209,23.0244229 L13.7502209,23.0244229 Z M14.7516936,17.726632 L13.9204713,18.5578544 C13.9204713,18.5578544 13.7602356,18.71809 13.7602356,18.5578544 C13.4194557,17.99808 13.4194557,17.2949484 13.7602356,16.735174 C14.1721777,16.3926127 14.7239656,16.2695789 15.2424153,16.404688 C15.4206647,16.4146133 15.562976,16.5569246 15.5729013,16.735174 L15.5729013,16.8954096 L15.0821797,17.5563816 C14.9119293,17.5563816 14.9119293,17.726632 14.7516936,17.726632 L14.7516936,17.726632 Z M17.3955817,18.7281048 L17.3955817,19.2288411 C17.332189,19.9036458 16.7507644,20.41019 16.0736377,20.3805348 C15.7431517,20.3805348 15.5729013,20.2202992 15.4126657,20.2202992 C15.25243,20.2202991 15.2424153,20.0500488 15.4126657,19.8898132 L17.0650957,18.2373831 L17.2353461,18.2373831 C17.3483461,18.3751081 17.4055299,18.5502335 17.3955817,18.7281048 L17.3955817,18.7281048 Z M17.8963181,14.4217719 L17.5658321,14.7522579 L17.7260677,14.9225083 L17.7260677,14.7522579 L17.8963181,14.9225083 L17.7260677,15.0827439 L17.5658321,15.0827439 C17.185042,14.7424696 16.9486055,14.2695966 16.9048601,13.7607999 C16.8888858,13.2728724 17.0650994,12.7981745 17.3955817,12.4388559 C17.5776296,12.2646911 17.8079932,12.1495093 18.0565537,12.1083698 C18.683279,12.0402462 19.3163241,12.1550291 19.8792342,12.4388559 L19.7189985,12.5990915 L19.5487481,12.7693419 L17.8963181,14.4217719 Z M21.3814433,13.9310503 L21.5516936,14.0912859 C21.9086232,14.6272226 22.0282226,15.2868313 21.8821797,15.9139663 C21.2212077,16.5749383 20.8807069,16.9154391 20.2197349,16.9154391 L20.2097202,16.9054243 L19.7189985,16.9054243 C19.3885125,16.9054243 19.0580265,16.5749383 18.8877761,16.4147027 C18.8116647,16.3538898 18.7673489,16.2617571 18.7673489,16.1643345 C18.7673489,16.066912 18.8116647,15.9747793 18.8877761,15.9139663 L19.8892489,15.0827439 L20.7204713,14.2615363 L20.7204713,14.0912859 L20.8907216,14.0912859 C20.8907216,13.9310503 21.0509573,13.9310503 21.2212076,14.0912859 L21.3814433,13.9310503 Z M2.95434462,5.30836988 L9.11340205,11.4373831 L10.4353461,12.7593271 L10.4453608,12.7593271 L10.4453608,12.7593271 L8.79293077,14.4117572 L8.45243004,14.7422432 L7.96170838,15.2429796 L7.62120765,15.6135245 L7.45095727,15.743716 L7.29072163,15.743716 L5.95876287,14.4117572 C5.79852723,14.4117572 5.79852723,14.4117572 5.95876287,14.2515216 L5.95876287,14.2515216 L7.29072163,12.9395922 C7.29072163,12.9395922 7.45095727,12.9395922 7.29072163,12.7793566 L7.29072163,12.7793566 L5.95876287,11.4574126 C5.95876287,11.2871622 5.79852723,11.4574126 5.79852723,11.4574126 C5.39635301,11.8833577 4.95361091,12.26908 4.47658319,12.6091063 L4.47658319,12.6091063 L4.1460972,12.6091063 L2.95434462,11.4373831 C2.78409424,11.4373831 2.78409424,11.2671327 2.95434462,11.2671327 L2.95434462,11.2671327 L3.14462443,11.1068971 L4.27628863,9.93517399 C4.44653902,9.93517399 4.44653902,9.93517399 4.27628863,9.7649236 L4.27628863,9.7649236 L3.11458026,8.60321523 L2.95434462,8.60321523 L1.4921944,10.0653655 L0,8.57317106 L0.500736369,7.75196338 C1.25798645,7.07488872 1.97682812,6.35604706 2.65390277,5.59879698 L2.65390277,5.59879698 L2.95434462,5.30836988 Z M28.9926362,2.32398105 C29.562195,2.19559143 30.1594784,2.31577652 30.6350515,2.65446707 C31.11222,2.93206321 31.422852,3.42608038 31.4662739,3.97641112 L31.4662739,3.97641112 L31.4863034,4.27685293 C31.4177006,5.04325088 30.7631877,5.62308783 29.994109,5.59879698 L29.994109,5.59879698 L29.6536082,5.59879698 L29.6536082,5.46860551 C29.4833579,4.64739787 28.9926362,3.97641112 28.1614138,3.97641112 C28.0106106,3.2980589 28.3580931,2.60728028 28.9926362,2.32398105 Z" id="path-1"></path>
        <filter x="-8.8%" y="-3.1%" width="111.8%" height="112.4%" filterUnits="objectBoundingBox" id="filter-2">
            <feOffset dx="-1" dy="1" in="SourceAlpha" result="shadowOffsetOuter1"></feOffset>
            <feGaussianBlur stdDeviation="0.5" in="shadowOffsetOuter1" result="shadowBlurOuter1"></feGaussianBlur>
            <feColorMatrix values="0 0 0 0 0   0 0 0 0 0   0 0 0 0 0  0 0 0 0.25 0" type="matrix" in="shadowBlurOuter1"></feColorMatrix>
        </filter>
    </defs>
    <g id="客户端-舱单功能" stroke="none" stroke-width="1" fill="none" fill-rule="evenodd">
        <g id="画板" transform="translate(-20.000000, -83.000000)">
            <g id="icon-上海舱单" transform="translate(20.000000, 83.000000)">
                <rect id="矩形" stroke="#F2F3F5" fill="#8DCE6C" x="0.5" y="0.5" width="55" height="55" rx="12"></rect>
                <g id="customsClearance" transform="translate(11.000000, 12.000000)" fill-rule="nonzero">
                    <g id="形状">
                        <use fill="black" fill-opacity="1" filter="url(#filter-2)" xlink:href="#path-1"></use>
                        <use fill="#FFFFFF" xlink:href="#path-1"></use>
                    </g>
                </g>
            </g>
        </g>
    </g>
</svg>