<?xml version="1.0" encoding="UTF-8"?>
<svg width="56px" height="56px" viewBox="0 0 56 56" version="1.1" xmlns="http://www.w3.org/2000/svg" xmlns:xlink="http://www.w3.org/1999/xlink">
    <title>船舶定位</title>
    <g id="客户端-舱单功能" stroke="none" stroke-width="1" fill="none" fill-rule="evenodd">
        <g id="画板" transform="translate(-270.000000, -178.000000)">
            <g id="船舶定位" transform="translate(270.000000, 178.000000)">
                <rect id="矩形" stroke="#F2F3F5" fill="#00B8F4" x="0.5" y="0.5" width="55" height="55" rx="12"></rect>
                <g id="编组-2" transform="translate(16.000000, 16.000000)" fill="#FFFFFF" fill-rule="nonzero">
                    <path d="M11.3320222,9.48664806 C12.7794727,9.09344299 14.2326219,8.71163516 15.6800725,8.31273146 C15.292566,9.76588065 14.9050596,11.2133312 14.5118545,12.6664804 C13.4519104,11.6122349 12.3919663,10.5465922 11.3320222,9.48664806 Z M9.46857203,11.4013858 L12.5971168,14.5299305 C11.1724607,14.9117384 9.742106,15.2935462 8.31744993,15.675354 C8.71065501,14.2563966 9.08676421,12.8260419 9.46857203,11.4013858 Z" id="形状"></path>
                    <path d="M11.2066524,0.0269317719 C13.0701026,-0.0984379621 14.9620458,0.214986373 16.6830304,0.94441028 C18.7288365,1.80490254 20.5182045,3.25235311 21.800395,5.06451563 C22.8888322,6.59744556 23.6068589,8.38681358 23.8746942,10.2445651 C24.1881185,12.4157409 23.9145846,14.6780948 23.042695,16.7011064 C22.3189698,18.4106937 21.1849435,19.9493222 19.7659861,21.1460333 C18.2615493,22.4282238 16.4436881,23.3286064 14.5118545,23.7332087 C12.2551993,24.2118932 9.86177711,24.0352358 7.71339576,23.2089353 C4.858385,22.1261967 2.45356556,19.9037332 1.15427922,17.1342018 C0.305184205,15.3562311 -0.0823222454,13.3617126 0.0145543672,11.3956872 C0.105732356,9.49804531 0.65849891,7.6174993 1.61586779,5.97629551 C2.55044217,4.36358484 3.86682437,2.97312052 5.4225488,1.95306678 C7.14353333,0.830437794 9.1551477,0.152301506 11.2066524,0.0269317719 M15.4464289,5.62867943 C13.2410613,6.20993911 11.0356937,6.81399328 8.83032612,7.39525296 C8.5909839,7.4294447 8.34024443,7.46363645 8.12939533,7.5947048 C7.7475875,7.8055539 7.47405354,8.19875898 7.42276592,8.63185442 C7.39997142,8.84840214 7.34298518,9.05925124 7.28599894,9.27010034 C6.80161587,11.0765642 6.31723281,12.8773295 5.83284975,14.6837934 C5.71317864,15.1681765 5.52512404,15.6525595 5.5878089,16.1597371 C5.64479515,16.9575445 6.11778096,17.7040643 6.81301312,18.102968 C7.37717693,18.4334882 8.07810771,18.5189675 8.71065501,18.3423102 C10.4772285,17.8693244 12.2438021,17.3963386 14.0160742,16.9233527 C14.4947586,16.8036816 14.9677445,16.6327229 15.4635248,16.5757367 C16.0960721,16.4731614 16.5804551,15.8805045 16.6089482,15.2479572 C17.1389203,13.2249456 17.6859882,11.2133312 18.2273575,9.19601823 C18.3185355,8.82560765 18.4496039,8.46089569 18.4439053,8.07338924 C18.4553025,7.34396534 18.1247823,6.61454143 17.5549199,6.14725424 C16.9736602,5.66287118 16.1758528,5.46341933 15.4464289,5.62867943 L15.4464289,5.62867943 Z" id="形状"></path>
                </g>
            </g>
        </g>
    </g>
</svg>