<?xml version="1.0" encoding="UTF-8"?>
<svg width="88px" height="88px" viewBox="0 0 88 88" version="1.1" xmlns="http://www.w3.org/2000/svg" xmlns:xlink="http://www.w3.org/1999/xlink">
    <title>编组 26</title>
    <defs>
        <circle id="path-1" cx="44" cy="44" r="44"></circle>
        <filter x="-10.2%" y="-15.2%" width="120.3%" height="130.5%" filterUnits="objectBoundingBox" id="filter-3">
            <feOffset dx="0" dy="0" in="SourceAlpha" result="shadowOffsetOuter1"></feOffset>
            <feGaussianBlur stdDeviation="2" in="shadowOffsetOuter1" result="shadowBlurOuter1"></feGaussianBlur>
            <feColorMatrix values="0 0 0 0 0.894117647   0 0 0 0 0.905882353   0 0 0 0 0.929411765  0 0 0 1 0" type="matrix" in="shadowBlurOuter1" result="shadowMatrixOuter1"></feColorMatrix>
            <feMerge>
                <feMergeNode in="shadowMatrixOuter1"></feMergeNode>
                <feMergeNode in="SourceGraphic"></feMergeNode>
            </feMerge>
        </filter>
    </defs>
    <g id="客户端-应用" stroke="none" stroke-width="1" fill="none" fill-rule="evenodd">
        <g id="企业入驻反馈" transform="translate(-219.000000, -82.000000)">
            <g id="编组-21" transform="translate(4.000000, 4.000000)">
                <g id="编组-26" transform="translate(215.000000, 78.000000)">
                    <g id="编组-23">
                        <mask id="mask-2" fill="white">
                            <use xlink:href="#path-1"></use>
                        </mask>
                        <use id="Shape-Copy-3备份" fill="#F3F4F6" xlink:href="#path-1"></use>
                        <g id="shimingrenzheng" filter="url(#filter-3)" mask="url(#mask-2)" fill="#FFFFFF" fill-rule="nonzero">
                            <g transform="translate(-13.791045, 17.731343)" id="形状">
                                <path d="M6,0 L72.8059701,0 C76.1196786,8.22077476e-15 78.8059701,2.6862915 78.8059701,6 L78.8059701,46.5373134 C78.8059701,49.8510219 76.1196786,52.5373134 72.8059701,52.5373134 L6,52.5373134 C2.6862915,52.5373134 4.82055882e-15,49.8510219 0,46.5373134 L0,6 C-4.05812251e-16,2.6862915 2.6862915,6.08718376e-16 6,0 Z M59.4603708,7.92341008 C57.7434666,8.12494975 56.0990861,8.89217464 54.8417534,10.0785104 C53.4912849,11.3350798 52.5866466,13.0596181 52.3286147,14.8864531 C52.0621854,16.7010735 52.4263309,18.6011956 53.3538714,20.1845035 C54.3646235,21.9319441 56.0425939,23.2816492 57.9709621,23.8832145 C59.8512357,24.4824897 61.9467902,24.3710321 63.7499595,23.5702174 C65.5554191,22.7808536 67.0509351,21.3143471 67.8792326,19.5272094 C68.7449371,17.6881599 68.8808237,15.5216084 68.2624633,13.5856061 C67.6937245,11.7656418 66.4577672,10.1693559 64.8507936,9.14638945 C63.2674858,8.13182043 61.326903,7.69133408 59.4603708,7.92341008 M11.1021226,9.80979089 C10.4917281,9.93498976 9.96922059,10.2205043 9.68750005,10.5854132 C9.31307655,11.0556725 9.36484574,11.6488404 9.82234061,12.0885633 C10.2605726,12.5305764 11.07684,12.8015862 11.899127,12.7886083 C22.295098,12.7901351 32.6922731,12.7901351 43.0882441,12.7893717 C43.910531,12.8023496 44.7280024,12.5313398 45.1698462,12.0900901 C45.6610513,11.6175407 45.6815182,10.9701708 45.2192075,10.4854068 C44.790607,10.0159109 43.9454452,9.71970874 43.090652,9.73574032 C32.8957379,9.73650371 22.7020278,9.73574032 12.5083177,9.73574032 C12.0375795,9.73803055 11.553598,9.71283806 11.1021226,9.80979089 M10.7694314,30.8247163 C10.2811158,30.9499151 9.86310977,31.2354297 9.63773335,31.6003386 C9.33819454,32.0705978 9.3796099,32.6637658 9.74560579,33.1034887 C10.0961914,33.5455018 10.7492053,33.8165116 11.4070349,33.8035337 C19.7238117,33.8050605 28.0415517,33.8050605 36.3583286,33.8042971 C37.0161581,33.817275 37.6701352,33.5462652 38.0236103,33.1050155 C38.4165744,32.632466 38.4329478,31.9850962 38.0630993,31.5003322 C37.7202189,31.0308363 37.0440894,30.7346341 36.3602549,30.7506657 C28.2043237,30.7514291 20.0493555,30.7506657 11.8943874,30.7506657 C11.5177969,30.7529559 11.1306117,30.7277634 10.7694314,30.8247163 M11.1081422,16.4506757 C10.4676493,16.5796917 9.9222671,16.8881084 9.64897409,17.2782099 C9.30464894,17.7545764 9.38772039,18.3424004 9.86447829,18.7706722 C10.3111378,19.1882563 11.1009186,19.4417077 11.8967191,19.4302566 C22.3360318,19.4302566 32.7753445,19.434837 43.2146572,19.4279663 C44.5413926,19.4287297 45.68513,18.6286783 45.5466775,17.7904565 C45.4900926,17.2011056 44.8375603,16.6613763 43.9610963,16.4667073 C43.4879502,16.3529596 42.9738703,16.3789154 42.4790534,16.3773886 L12.5047059,16.3773886 C12.0375794,16.3796788 11.5584137,16.3544863 11.1081422,16.4506757 M10.7742471,37.4656011 C10.2618528,37.594617 9.82554698,37.9030338 9.60691257,38.2931353 C9.33145245,38.7695018 9.39790962,39.3573258 9.77931594,39.7855976 C10.1366436,40.2031816 10.7684682,40.4566331 11.4051086,40.4451819 C19.7565588,40.4451819 28.1080089,40.4497624 36.4594591,40.4428917 C37.5208474,40.4436551 38.4358373,39.6436037 38.3250753,38.8053819 C38.2798074,38.216031 37.7577815,37.6763017 37.0566104,37.4816327 C36.6780935,37.3678849 36.2668296,37.3938407 35.870976,37.392314 L11.891498,37.392314 C11.5177968,37.3946042 11.1344642,37.3694117 10.7742471,37.4656011 M11.1081422,23.4556508 C10.4676493,23.5846668 9.9222671,23.8930835 9.64897409,24.283185 C9.30464894,24.7595515 9.38772039,25.3473756 9.86447829,25.7756473 C10.3111378,26.1932314 11.1009186,26.4466828 11.8967191,26.4352317 C22.3360318,26.4352317 32.7753445,26.4398121 43.2146572,26.4329415 C44.5413926,26.4337049 45.68513,25.6336535 45.5466775,24.7954316 C45.4900926,24.2060808 44.8375603,23.6663514 43.9610963,23.4716824 C43.4879502,23.3579347 42.9738703,23.3838905 42.4790534,23.3823637 L12.5047059,23.3823637 C12.0375794,23.3846539 11.5584137,23.3594615 11.1081422,23.4556508 M53.5554111,28.5674851 C51.7262859,29.9736824 50.3231423,31.9226626 49.5612612,34.0999018 C48.8115947,36.2366804 48.6886861,38.5864497 49.2001693,40.7911716 C56.9983805,40.7926984 64.7958283,40.7896447 72.5940395,40.7926984 C73.1665954,38.3475031 72.9474973,35.7229069 71.9695718,33.4097811 C70.953476,30.9851978 69.1136631,28.9178893 66.8264932,27.6246764 C64.8912543,26.5154448 62.6392011,25.9741887 60.4123404,26.0703781 C57.9396624,26.15817 55.5066816,27.0483035 53.5554111,28.5674851 Z"></path>
                            </g>
                        </g>
                    </g>
                    <path d="M74,62 C66.8296875,62 61,67.8296875 61,75 C61,82.1703125 66.8296875,88 74,88 C81.1703125,88 87,82.1703125 87,75 C87,67.8296875 81.1703125,62 74,62 Z M80.0090873,81.0238854 C79.6730837,81.3550955 79.253079,81.5 78.8120742,81.5 C78.3710694,81.5 77.9510648,81.3343949 77.6150611,81.0238854 L72.5120051,75.9936306 L72.5120051,75.9729299 L72.4070039,75.8694268 C72.3860037,75.8487261 72.3860037,75.8280255 72.3650035,75.8073248 C72.3440032,75.7866242 72.323003,75.7659236 72.323003,75.7452229 C72.3020028,75.7245223 72.3020028,75.7038217 72.2810025,75.6624204 C72.2600023,75.6417197 72.2600023,75.6210191 72.2390021,75.6003185 C72.2180018,75.5796178 72.2180018,75.5589172 72.1970016,75.5175159 C72.1760014,75.4968153 72.1760014,75.4761146 72.1550012,75.455414 C72.1550012,75.4347134 72.1340009,75.4140127 72.1340009,75.3726115 C72.1340009,75.3519108 72.1130007,75.3312102 72.1130007,75.2898089 C72.1130007,75.2691083 72.0920005,75.2484076 72.0920005,75.2070064 C72.0920005,75.1863057 72.0710002,75.1449045 72.0710002,75.1242038 C72.0710002,75.1035032 72.0710002,75.0621019 72.05,75.0414013 L72.05,74.9792994 L72.05,66.906051 C72.05,65.9952229 72.8060083,65.25 73.7300184,65.25 C74.6540286,65.25 75.4100369,65.9952229 75.4100369,66.906051 L75.4100369,74.1305732 L80.0300876,78.6847134 C80.6600945,79.3264331 80.6600945,80.3821656 80.0090873,81.0238854 L80.0090873,81.0238854 Z" id="形状" fill="#3A8EE6" fill-rule="nonzero"></path>
                </g>
            </g>
        </g>
    </g>
</svg>