<?xml version="1.0" encoding="UTF-8"?>
<svg width="72px" height="19px" viewBox="0 0 72 19" version="1.1" xmlns="http://www.w3.org/2000/svg" xmlns:xlink="http://www.w3.org/1999/xlink">
    <title>编组 16</title>
    <defs>
        <linearGradient x1="58.2107132%" y1="2.18829719%" x2="58.2107127%" y2="96.8829537%" id="linearGradient-1">
            <stop stop-color="#FFFFFF" offset="0%"></stop>
            <stop stop-color="#E6E6E6" offset="100%"></stop>
        </linearGradient>
    </defs>
    <g id="用户中心-网页" stroke="none" stroke-width="1" fill="none" fill-rule="evenodd">
        <g id="页面-用户中心-未认证" transform="translate(-1265.000000, -17.000000)">
            <g id="编组-16" transform="translate(1265.000000, 17.000000)">
                <path d="M9.39130435,0 L62.6086957,0 C67.7953698,-4.50549027e-15 72,4.20463018 72,9.39130435 C72,14.5779785 67.7953698,18.7826087 62.6086957,18.7826087 L9.39130435,18.7826087 C4.20463018,18.7826087 6.35184392e-16,14.5779785 0,9.39130435 C-6.35184392e-16,4.20463018 4.20463018,9.52776589e-16 9.39130435,0 Z" id="矩形-3" fill="url(#linearGradient-1)"></path>
                <polygon id="路径" fill="#969799" points="19.5652174 5.47826087 19.5652174 6.09783028 18.9639534 6.09783028 11.4080229 13.8706101 9.16912434 13.8706101 9.16912434 6.0893816 8.60869565 6.08093293 8.60869565 5.47826087 10.8461861 5.47826087 10.8461861 11.1276074 16.4420243 5.47826087"></polygon>
                <g id="账号未认证" transform="translate(21.543652, 5.249739)" fill="#969799" fill-rule="nonzero">
                    <path d="M3.59686957,0.36626087 L0.347478261,0.36626087 L0.347478261,6.264 L0.967304348,6.264 L0.967304348,0.995478261 L2.99582609,0.995478261 L2.99582609,6.264 L3.59686957,6.264 L3.59686957,0.36626087 Z M1.67165217,1.68104348 L1.67165217,4.73321739 C1.65286957,5.58782609 1.53078261,6.28278261 1.3053913,6.82747826 C1.06121739,7.344 0.619826087,7.75721739 0,8.06713043 L0.36626087,8.6306087 C1.02365217,8.30191304 1.49321739,7.84173913 1.78434783,7.25947826 C2.08486957,6.63026087 2.23513043,5.78504348 2.25391304,4.73321739 L2.25391304,1.68104348 L1.67165217,1.68104348 Z M2.57321739,6.52695652 L2.14121739,6.94956522 C2.67652174,7.51304348 3.09913043,8.04834783 3.39965217,8.55547826 L3.8786087,8.07652174 C3.53113043,7.5693913 3.09913043,7.05286957 2.57321739,6.52695652 Z M6.15130435,4.536 C6.60208696,6.28278261 7.27826087,7.61634783 8.16104348,8.51791304 L8.62121739,7.992 C7.80417391,7.18434783 7.17495652,6.0386087 6.74295652,4.536 L8.44278261,4.536 L8.44278261,3.8786087 L5.32486957,3.8786087 L5.32486957,0 L4.66747826,0 L4.66747826,3.8786087 L3.99130435,3.8786087 L3.99130435,4.536 L4.66747826,4.536 L4.66747826,7.69147826 C4.66747826,7.82295652 4.59234783,7.91686957 4.45147826,7.9826087 L4.73321739,8.58365217 C5.48452174,8.34886957 6.14191304,8.04834783 6.72417391,7.68208696 L6.60208696,7.08104348 C6.17008696,7.3533913 5.73808696,7.5693913 5.32486957,7.72904348 L5.32486957,4.536 L6.15130435,4.536 Z M7.7853913,0.422608696 C7.18434783,1.42747826 6.46121739,2.17878261 5.616,2.66713043 L5.98226087,3.19304348 C6.86504348,2.68591304 7.64452174,1.89704348 8.30191304,0.845217391 L7.7853913,0.422608696 Z" id="形状"></path>
                    <path d="M10.2512795,0.328695652 L10.2512795,2.86434783 L15.7545839,2.86434783 L15.7545839,0.328695652 L10.2512795,0.328695652 Z M15.0596273,2.25391304 L10.946236,2.25391304 L10.946236,0.939130435 L15.0596273,0.939130435 L15.0596273,2.25391304 Z M10.9274534,4.32 L10.4860621,6.02921739 L15.2004969,6.02921739 C15.1441491,6.87443478 15.0596273,7.40034783 14.9469317,7.60695652 C14.8248447,7.81356522 14.5149317,7.91686957 14.0078012,7.91686957 C13.6227578,7.91686957 13.1813665,7.89808696 12.6836273,7.86052174 L12.9090186,8.48034783 C13.2752795,8.51791304 13.6884969,8.53669565 14.1580621,8.53669565 C14.7966708,8.53669565 15.2286708,8.39582609 15.4540621,8.11408696 C15.6794534,7.82295652 15.8297143,6.9213913 15.8860621,5.41878261 L11.2937143,5.41878261 L11.6130186,4.32 L17.2196273,4.32 L17.2196273,3.672 L8.77684472,3.672 L8.77684472,4.32 L10.9274534,4.32 Z" id="形状"></path>
                    <path d="M21.3759503,0.028173913 L21.3759503,1.31478261 L18.220472,1.31478261 L18.220472,1.97217391 L21.3759503,1.97217391 L21.3759503,3.63443478 L17.6569938,3.63443478 L17.6569938,4.29182609 L20.7655155,4.29182609 C20.0893416,5.57843478 18.9999503,6.63026087 17.4973416,7.45669565 L17.8823851,8.08591304 C19.4789068,7.09043478 20.6152547,5.832 21.2914286,4.29182609 L21.3759503,4.29182609 L21.3759503,8.57426087 L22.0709068,8.57426087 L22.0709068,4.29182609 L22.1460373,4.29182609 C22.7658634,5.68173913 23.8834286,6.93078261 25.4799503,8.05773913 L25.9495155,7.45669565 C24.4093416,6.52695652 23.3199503,5.47513043 22.6907329,4.29182609 L25.7898634,4.29182609 L25.7898634,3.63443478 L22.0709068,3.63443478 L22.0709068,1.97217391 L25.2921242,1.97217391 L25.2921242,1.31478261 L22.0709068,1.31478261 L22.0709068,0.028173913 L21.3759503,0.028173913 Z" id="路径"></path>
                    <path d="M31.6366211,0.0375652174 C31.6366211,1.85947826 31.4957516,3.35269565 31.232795,4.5266087 C30.8759255,5.92591304 30.1434037,7.08104348 29.0540124,8.0013913 L29.5141863,8.55547826 C30.7632298,7.52243478 31.5614907,6.18886957 31.9183602,4.57356522 C31.9653168,4.3293913 32.0122733,4.08521739 32.0592298,3.82226087 C32.5851429,5.68173913 33.3458385,7.25947826 34.3507081,8.53669565 L34.8390559,7.97321739 C33.608795,6.56452174 32.744795,4.64869565 32.2470559,2.24452174 C32.3034037,1.56834783 32.3315776,0.826434783 32.3315776,0.0375652174 L31.6366211,0.0375652174 Z M27.2696646,0.0845217391 L26.8000994,0.544695652 C27.4762733,1.05182609 28.0209689,1.54017391 28.4154037,2.00034783 L28.8755776,1.53078261 C28.4435776,1.04243478 27.9082733,0.563478261 27.2696646,0.0845217391 Z M26.170882,2.86434783 L26.170882,3.51234783 L27.5514037,3.51234783 L27.5514037,7.17495652 C27.5514037,7.32521739 27.4762733,7.46608696 27.3354037,7.57878261 L27.5983602,8.17982609 C28.2557516,7.74782609 28.8755776,7.25008696 29.4578385,6.696 L29.288795,6.00104348 C28.9037516,6.36730435 28.5374907,6.6866087 28.1994037,6.96834783 L28.1994037,2.86434783 L26.170882,2.86434783 Z" id="形状"></path>
                    <path d="M40.7045963,1.09878261 L40.7045963,7.61634783 L39.3898137,7.61634783 L39.3898137,2.64834783 L38.7324224,2.64834783 L38.7324224,7.61634783 L37.7745093,7.61634783 L37.7745093,8.28313043 L43.5219876,8.28313043 L43.5219876,7.61634783 L41.3901615,7.61634783 L41.3901615,4.36695652 L43.2026832,4.36695652 L43.2026832,3.73773913 L41.3901615,3.73773913 L41.3901615,1.09878261 L43.3341615,1.09878261 L43.3341615,0.432 L38.0656398,0.432 L38.0656398,1.09878261 L40.7045963,1.09878261 Z M36.0277267,0.0845217391 L35.5581615,0.525913043 C36.2155528,1.04243478 36.7320745,1.53078261 37.117118,2.00034783 L37.5772919,1.53078261 C37.1546832,1.05182609 36.6381615,0.572869565 36.0277267,0.0845217391 Z M34.8819876,2.86434783 L34.8819876,3.51234783 L36.2437267,3.51234783 L36.2437267,7.16556522 C36.2437267,7.31582609 36.1779876,7.44730435 36.0465093,7.56 L36.3094658,8.17043478 C36.9199006,7.74782609 37.4927702,7.26886957 38.0374658,6.74295652 L37.8590311,6.01982609 C37.5115528,6.35791304 37.1922484,6.65843478 36.8917267,6.9213913 L36.8917267,2.86434783 L34.8819876,2.86434783 Z" id="形状"></path>
                </g>
            </g>
        </g>
    </g>
</svg>