<?xml version="1.0" encoding="UTF-8"?>
<svg width="56px" height="56px" viewBox="0 0 56 56" version="1.1" xmlns="http://www.w3.org/2000/svg" xmlns:xlink="http://www.w3.org/1999/xlink">
    <title>船司定位</title>
    <g id="客户端-舱单功能" stroke="none" stroke-width="1" fill="none" fill-rule="evenodd">
        <g id="画板" transform="translate(-378.000000, -186.000000)">
            <g id="船司定位" transform="translate(378.000000, 186.000000)">
                <rect id="矩形" stroke="#F2F3F5" fill="#5380EB" x="0.5" y="0.5" width="55" height="55" rx="12"></rect>
                <g id="guojibaohankailichaxun" transform="translate(14.000000, 13.000000)" fill="#FFFFFF" fill-rule="nonzero">
                    <path d="M6.36691733,30.3063564 C5.91213752,30.3063564 5.53315434,30.1547631 5.15417116,29.9273732 L0.37898318,25.0005919 C0.151593272,24.6216088 0,24.0910323 0,23.6362525 L0,5.82404333 C0,3.70173755 0.985356238,2.71638131 3.10766205,2.71638131 L9.77776589,2.71638131 C10.2325457,2.71638131 10.6873255,2.94377122 10.990512,3.39855101 C11.2936986,3.85333079 11.2179019,4.30811064 10.990512,4.76289042 C10.7631221,5.21767021 10.3083423,5.44506015 9.77776589,5.44506015 L2.72867887,5.44506015 L2.72867887,22.6508962 L5.60895097,22.6508962 C7.73125675,22.6508962 7.73125675,22.7266929 7.73125675,24.8489987 L7.73125675,27.6534741 L20.8440746,27.6534741 L20.8440746,16.8145554 C20.8440746,16.056589 21.4504477,15.4502159 22.208414,15.4502159 C22.9663803,15.4502159 23.5727534,16.056589 23.5727534,16.8145554 L23.5727534,27.274491 C23.5727534,29.3967968 22.5873972,30.382153 20.4650914,30.382153 L6.36691733,30.382153 L6.36691733,30.3063564 Z M7.73125675,19.0126578 C6.97329039,19.0126578 6.36691733,18.4062847 6.36691733,17.6483184 C6.36691733,16.890352 6.97329042,16.2839789 7.73125675,16.2839789 L15.9172933,16.2839789 C16.6752597,16.2839789 17.2816327,16.890352 17.2816327,17.6483184 C17.2816327,18.4062847 16.6752596,19.0126578 15.9172933,19.0126578 L7.73125675,19.0126578 Z M26.6804154,14.8438429 C26.3014323,14.8438429 25.9982457,14.6922496 25.6950592,14.4648597 L23.2695669,12.0393674 C20.7682779,13.7068933 17.433226,13.4037068 15.2351236,11.3571977 C13.0370212,9.31068852 12.5064447,6.05143323 13.9465808,3.39855101 C15.3867169,0.745668805 18.4185822,-0.542874006 21.2988544,0.215092354 C24.1791265,0.973058713 26.2256356,3.55014428 26.2256356,6.58200969 C26.2256356,7.87055247 25.8466525,9.08329864 25.1644828,10.1444515 L27.5899751,12.5699438 C27.9689583,12.948927 28.1205515,13.5553 27.8931616,14.0100799 C27.7415683,14.5406563 27.2109919,14.8438429 26.6804154,14.8438429 Z M19.7071251,2.71638131 C17.5848193,2.71638131 15.8414967,4.45970391 15.8414967,6.58200969 C15.8414967,8.70431546 17.5848193,10.447638 19.7071251,10.447638 C21.8294308,10.447638 23.5727534,8.70431543 23.5727534,6.58200969 C23.5727534,4.45970394 21.8294308,2.71638131 19.7071251,2.71638131 Z M7.73125675,13.5553001 C7.27647693,13.5553001 6.82169712,13.3279102 6.5185106,12.8731304 C6.2911207,12.4183505 6.2911207,11.9635707 6.5185106,11.5087909 C6.74590051,11.0540111 7.20068033,10.8266212 7.73125675,10.8266212 L10.9147154,10.8266212 C11.6726818,10.8266212 12.2790548,11.4329943 12.2790548,12.1909607 C12.2790548,12.948927 11.6726818,13.5553001 10.9147154,13.5553001 L7.73125675,13.5553001 L7.73125675,13.5553001 Z" id="形状"></path>
                </g>
            </g>
        </g>
    </g>
</svg>