<?xml version="1.0" encoding="UTF-8"?>
<svg width="18px" height="18px" viewBox="0 0 18 18" version="1.1" xmlns="http://www.w3.org/2000/svg" xmlns:xlink="http://www.w3.org/1999/xlink">
    <!-- Generator: Sketch 64 (93537) - https://sketch.com -->
    <title>登录</title>
    <desc>Created with Sketch.</desc>
    <g id="注册/登录/后台" stroke="none" stroke-width="1" fill="none" fill-rule="evenodd">
        <g id="手机登录" transform="translate(-778.000000, -436.000000)" fill="#409EFF" fill-rule="nonzero">
            <g id="编组-17" transform="translate(505.000000, 99.000000)">
                <g id="编组-16" transform="translate(124.000000, 337.000000)">
                    <g id="登录" transform="translate(149.000000, 0.000000)">
                        <path d="M8.99990048,0.0458041234 C13.9594453,0.0458041234 17.9796308,4.06617376 17.9796308,9.02527663 C17.9796308,13.9843427 13.9594637,18.0048964 8.99990048,18.0048964 C4.0405398,18.0048964 0.0205200538,13.9844716 0.0205200538,9.02527663 C0.0205200538,4.06608168 4.04059504,0.0458041234 8.99990048,0.0458041234 Z M8.99990048,16.8823979 C13.339295,16.8823979 16.8571139,13.3646344 16.8571139,9.02531346 C16.8571139,4.68595573 13.3393503,1.16822898 8.9999189,1.16822898 C4.66070849,1.16822898 1.14296332,4.68595573 1.14296332,9.02531346 C1.14321675,13.3646712 4.66069007,16.8823979 8.99990048,16.8823979 Z M5.07149636,8.46412865 L11.0124977,8.46412865 L8.69969589,6.15110587 C8.48045373,5.93218045 8.48045373,5.57637484 8.69969589,5.35716399 C8.91877968,5.13823856 9.2739205,5.13823856 9.49313136,5.35716399 L12.6679487,8.53246009 C12.8024212,8.66683765 12.8441726,8.85123457 12.8135402,9.02536686 C12.8442044,9.1993417 12.8023579,9.38386477 12.6679487,9.51859037 L9.49313136,12.6933524 C9.2739205,12.9125946 8.91877968,12.9125946 8.69969589,12.6933524 C8.48045373,12.4741103 8.48045373,12.1187798 8.69969589,11.899696 L11.0124977,9.5865443 L5.07149636,9.5865443 C4.76143411,9.5865443 4.51025999,9.33543463 4.51025999,9.02537054 C4.51035503,8.71556058 4.76143411,8.46413418 5.07149636,8.46413418 L5.07149636,8.46412865 Z" id="形状"></path>
                    </g>
                </g>
            </g>
        </g>
    </g>
</svg>