<?xml version="1.0" encoding="UTF-8"?>
<svg width="88px" height="20px" viewBox="0 0 88 20" version="1.1" xmlns="http://www.w3.org/2000/svg" xmlns:xlink="http://www.w3.org/1999/xlink">
    <title>编组 6</title>
    <defs>
        <linearGradient x1="50%" y1="0%" x2="50%" y2="100%" id="linearGradient-1">
            <stop stop-color="#FFFFFF" offset="0%"></stop>
            <stop stop-color="#FFFFFF" offset="100%"></stop>
        </linearGradient>
        <linearGradient x1="13.3277993%" y1="17.9988625%" x2="100%" y2="82.0011375%" id="linearGradient-2">
            <stop stop-color="#FDD36C" offset="0%"></stop>
            <stop stop-color="#F9AB10" offset="100%"></stop>
        </linearGradient>
        <linearGradient x1="-7.63278329e-14%" y1="17.9988625%" x2="96.7158684%" y2="79.1607979%" id="linearGradient-3">
            <stop stop-color="#FCF6E1" offset="0%"></stop>
            <stop stop-color="#CBA15E" offset="59.6454327%"></stop>
            <stop stop-color="#E1C799" offset="100%"></stop>
        </linearGradient>
    </defs>
    <g id="页面-1" stroke="none" stroke-width="1" fill="none" fill-rule="evenodd">
        <g id="编组-6">
            <path d="M84.4081633,0.897959184 L3.59183673,0.897959184 C2.15718451,0.897959184 0.984467782,2.01943834 0.902532214,3.43355097 L0.897959184,3.59183673 L0.897959184,16.1632653 C0.897959184,17.5979175 2.01943834,18.7706343 3.43355097,18.8525698 L3.59183673,18.8571429 L84.4081633,18.8571429 C85.8428155,18.8571429 87.0155322,17.7356637 87.0974678,16.3215511 L87.1020408,16.1632653 L87.1020408,3.59183673 C87.1020408,2.15718451 85.9805617,0.984467782 84.566449,0.902532214 L84.4081633,0.897959184 Z" id="路径" fill="url(#linearGradient-1)" fill-rule="nonzero"></path>
            <path d="M84.4081633,0 C86.3918799,0 88,1.60812008 88,3.59183673 L88,16.1632653 C88,18.146982 86.3918799,19.755102 84.4081633,19.755102 L3.59183673,19.755102 C1.60812008,19.755102 0,18.146982 0,16.1632653 L0,3.59183673 C0,1.60812008 1.60812008,0 3.59183673,0 L84.4081633,0 Z M84.4081633,0.897959184 L3.59183673,0.897959184 C2.15718451,0.897959184 0.984467782,2.01943834 0.902532214,3.43355097 L0.897959184,3.59183673 L0.897959184,16.1632653 C0.897959184,17.5979175 2.01943834,18.7706343 3.43355097,18.8525698 L3.59183673,18.8571429 L84.4081633,18.8571429 C85.8428155,18.8571429 87.0155322,17.7356637 87.0974678,16.3215511 L87.1020408,16.1632653 L87.1020408,3.59183673 C87.1020408,2.15718451 85.9805617,0.984467782 84.566449,0.902532214 L84.4081633,0.897959184 Z" id="矩形-4" fill="#F79802" fill-rule="nonzero"></path>
            <path d="M2.89795918,0.897959184 L17.0612245,0.897959184 L17.0612245,0.897959184 L17.0612245,18.8571429 L2.89795918,18.8571429 C1.79338968,18.8571429 0.897959184,17.9617124 0.897959184,16.8571429 L0.897959184,2.89795918 C0.897959184,1.79338968 1.79338968,0.897959184 2.89795918,0.897959184 Z" id="矩形" fill="#FFEEB8"></path>
            <g id="shenqingqiyerenzheng" transform="translate(3.591837, 5.387755)" fill-rule="nonzero">
                <path d="M9.5962498,-0.25 L11.0700805,3.37634407 L5.3877551,8.97141066 L-0.294544719,3.37636924 L1.17845831,-0.25 L9.5962498,-0.25 Z" id="形状" stroke="url(#linearGradient-3)" stroke-width="0.5" fill="url(#linearGradient-2)"></path>
                <polygon id="路径" fill="#FFFFFF" points="7.18341811 1.4363772 5.3877551 4.30989765 3.59209209 1.4363772 2.15494883 1.4363772 5.3877551 6.46484648 8.62056138 1.4363772"></polygon>
            </g>
            <g id="编组-16" transform="translate(18.513654, 4.375534)" fill="#E6A23D" fill-rule="nonzero">
                <g id="认证服务商">
                    <path d="M7.22857143,0.213714286 C7.216,2.62742857 7.04,4.60114286 6.688,6.12228571 C6.23542857,7.93257143 5.30514286,9.45371429 3.872,10.6857143 L4.67657143,11.6662857 C6.36114286,10.2582857 7.42971429,8.48571429 7.88228571,6.32342857 L7.98285714,5.83314286 C8.66171429,8.096 9.61714286,10.032 10.8617143,11.6411429 L11.7165714,10.6354286 C10.1074286,8.8 8.976,6.336 8.32228571,3.24342857 C8.39771429,2.31314286 8.43542857,1.29485714 8.43542857,0.213714286 L7.22857143,0.213714286 Z M1.65942857,0.226285714 L0.829714286,1.04342857 C1.72228571,1.69714286 2.41371429,2.32571429 2.91657143,2.91657143 L3.73371429,2.08685714 C3.168,1.45828571 2.47657143,0.842285714 1.65942857,0.226285714 Z M0,3.872 L0,5.016 L1.76,5.016 L1.76,9.51657143 C1.76,9.78057143 1.64685714,9.99428571 1.43314286,10.1702857 L1.88571429,11.2388571 C2.80342857,10.6354286 3.65828571,9.96914286 4.46285714,9.22742857 L4.16114286,7.99542857 C3.70857143,8.42285714 3.29371429,8.8 2.904,9.12685714 L2.904,3.872 L0,3.872 Z" id="形状"></path>
                    <path d="M20.2651429,1.78514286 L20.2651429,10.1325714 L18.7942857,10.1325714 L18.7942857,3.68342857 L17.6251429,3.68342857 L17.6251429,10.1325714 L16.4434286,10.1325714 L16.4434286,11.3017143 L24.2125714,11.3017143 L24.2125714,10.1325714 L21.4845714,10.1325714 L21.4845714,6.13485714 L23.7851429,6.13485714 L23.7851429,5.016 L21.4845714,5.016 L21.4845714,1.78514286 L23.9611429,1.78514286 L23.9611429,0.616 L16.8331429,0.616 L16.8331429,1.78514286 L20.2651429,1.78514286 Z M14.2811429,0.226285714 L13.4514286,1.01828571 C14.3062857,1.68457143 14.9851429,2.31314286 15.4754286,2.91657143 L16.2925714,2.08685714 C15.7394286,1.47085714 15.0605714,0.854857143 14.2811429,0.226285714 Z M12.5588571,3.872 L12.5588571,5.016 L14.2937143,5.016 L14.2937143,9.51657143 C14.2937143,9.768 14.1805714,9.98171429 13.9794286,10.1577143 L14.432,11.2388571 C15.2868571,10.6605714 16.0914286,10.0068571 16.8457143,9.27771429 L16.5314286,8.008 C16.1417143,8.38514286 15.7771429,8.73714286 15.4377143,9.03885714 L15.4377143,3.872 L12.5588571,3.872 Z" id="形状"></path>
                    <path d="M27.0411429,4.58857143 L28.8011429,4.58857143 L28.8011429,6.424 L27.0411429,6.424 L27.0411429,4.58857143 Z M28.8011429,3.52 L27.0411429,3.52 L27.0411429,1.65942857 L28.8011429,1.65942857 L28.8011429,3.52 Z M27.016,7.50514286 L28.8011429,7.50514286 L28.8011429,10.032 C28.8011429,10.472 28.6628571,10.6982857 28.3988571,10.6982857 C28.0971429,10.6982857 27.7828571,10.6731429 27.4308571,10.6354286 L27.72,11.6914286 L28.7257143,11.6914286 C29.4925714,11.6914286 29.8822857,11.264 29.8822857,10.4091429 L29.8822857,0.578285714 L25.9725714,0.578285714 L25.9725714,6.75085714 C25.96,8.448 25.7085714,9.84342857 25.2057143,10.9371429 L26.1108571,11.7542857 C26.6262857,10.6354286 26.928,9.21485714 27.016,7.50514286 Z M31.856,6.26057143 L32.0194286,6.26057143 C32.296,7.42971429 32.7988571,8.48571429 33.528,9.416 C33.0628571,9.944 32.5097143,10.3965714 31.856,10.7485714 L31.856,6.26057143 Z M31.856,10.7862857 L32.472,11.7165714 C33.176,11.3394286 33.792,10.8617143 34.3074286,10.2834286 C34.8354286,10.7988571 35.464,11.2765714 36.1805714,11.704 L36.7714286,10.6982857 C36.0925714,10.296 35.4891429,9.856 34.9737143,9.36571429 C35.5017143,8.49828571 35.8788571,7.44228571 36.1051429,6.21028571 L36.1051429,5.20457143 L31.856,5.20457143 L31.856,1.65942857 L34.8731429,1.65942857 C34.848,2.50171429 34.7977143,3.02971429 34.7222857,3.24342857 C34.6468571,3.41942857 34.5462857,3.53257143 34.4205714,3.57028571 C34.2948571,3.608 34.0937143,3.63314286 33.8297143,3.63314286 C33.4777143,3.63314286 33.2011429,3.62057143 33,3.62057143 L33.3142857,4.62628571 L34.3702857,4.62628571 C35.1748571,4.62628571 35.6525714,4.36228571 35.8034286,3.83428571 C35.9542857,3.29371429 36.0297143,2.21257143 36.0297143,0.578285714 L30.7371429,0.578285714 L30.7371429,11.7417143 L31.856,11.7417143 L31.856,10.7862857 Z M33.0377143,6.26057143 L35.0491429,6.26057143 C34.848,7.09028571 34.5588571,7.832 34.1817143,8.48571429 C33.6662857,7.81942857 33.2891429,7.07771429 33.0377143,6.26057143 Z" id="形状"></path>
                    <path d="M41.36,0.0754285714 C40.8445714,1.29485714 39.8514286,2.32571429 38.3805714,3.168 L39.1097143,4.12342857 C39.6251429,3.80914286 40.0902857,3.46971429 40.5177143,3.10514286 C41.0331429,3.53257143 41.5862857,3.93485714 42.1897143,4.28685714 C40.8822857,4.77714286 39.3737143,5.12914286 37.6891429,5.34285714 L38.2422857,6.46171429 C40.2285714,6.16 41.9885714,5.66971429 43.4971429,4.99085714 C45.056,5.73257143 46.816,6.21028571 48.7645714,6.43657143 L49.3051429,5.31771429 C47.6457143,5.16685714 46.1497143,4.82742857 44.8045714,4.32457143 C45.8731429,3.696 46.7908571,2.94171429 47.5451429,2.07428571 L47.5451429,1.10628571 L42.1645714,1.10628571 C42.3154286,0.842285714 42.4537143,0.553142857 42.5794286,0.251428571 L41.36,0.0754285714 Z M43.4845714,3.73371429 C42.6925714,3.33142857 41.9634286,2.85371429 41.3097143,2.31314286 C41.3222857,2.288 41.3474286,2.26285714 41.3851429,2.22514286 L45.7977143,2.22514286 C45.1188571,2.80342857 44.352,3.30628571 43.4845714,3.73371429 Z M42.5794286,5.75771429 C42.5794286,6.21028571 42.5291429,6.63771429 42.4537143,7.04 L38.5565714,7.04 L38.5565714,8.10857143 L42.0891429,8.10857143 C42.0137143,8.272 41.9131429,8.43542857 41.8125714,8.59885714 C41.184,9.46628571 39.8388571,10.1954286 37.7897143,10.7988571 L38.5817143,11.7668571 C40.9074286,11.0251429 42.3782857,10.0948571 43.0068571,8.96342857 C43.1577143,8.69942857 43.2834286,8.41028571 43.3965714,8.10857143 L46.8034286,8.10857143 C46.7657143,9.21485714 46.6651429,9.90628571 46.5017143,10.1702857 C46.3382857,10.4217143 45.936,10.56 45.2948571,10.5725714 C44.8925714,10.5474286 44.3645714,10.5222857 43.7108571,10.4971429 L44.0125714,11.5782857 C44.616,11.616 45.144,11.6411429 45.5714286,11.6411429 C46.4514286,11.6411429 47.08,11.4148571 47.432,10.9874286 C47.784,10.56 47.9725714,9.24 47.9977143,7.04 L43.6605714,7.04 C43.7234286,6.63771429 43.7611429,6.21028571 43.7611429,5.75771429 L42.5794286,5.75771429 Z" id="形状"></path>
                    <path d="M53.592,7.04 L53.592,10.2708571 L58.5074286,10.2708571 L58.5074286,6.952 L53.7051429,6.952 C54.3714286,6.46171429 54.9622857,5.90857143 55.4777143,5.30514286 L54.6354286,4.56342857 C53.9565714,5.30514286 53.1268571,5.95885714 52.1211429,6.512 L52.1211429,4.53828571 L59.9657143,4.53828571 L59.9657143,9.96914286 C59.9657143,10.3965714 59.8022857,10.6228571 59.5005714,10.6228571 L58.2937143,10.5851429 L58.5954286,11.6662857 L59.8777143,11.6662857 C60.6948571,11.6662857 61.1097143,11.176 61.1097143,10.2205714 L61.1097143,3.48228571 L58.4068571,3.48228571 C58.6205714,3.09257143 58.8217143,2.66514286 59.0228571,2.18742857 L61.6628571,2.18742857 L61.6628571,1.04342857 L56.7097143,1.04342857 C56.584,0.666285714 56.4708571,0.314285714 56.3451429,0 L55.0251429,0.201142857 C55.1508571,0.452571429 55.2765714,0.741714286 55.3897143,1.04342857 L50.4491429,1.04342857 L50.4491429,2.18742857 L53.0011429,2.18742857 C53.2274286,2.58971429 53.416,3.02971429 53.592,3.48228571 L50.9771429,3.48228571 L50.9771429,11.6411429 L52.1211429,11.6411429 L52.1211429,6.56228571 L52.8628571,7.51771429 C53.1142857,7.36685714 53.3531429,7.20342857 53.592,7.04 Z M57.3508571,9.21485714 L54.7485714,9.21485714 L54.7485714,8.02057143 L57.3508571,8.02057143 L57.3508571,9.21485714 Z M57.3885714,4.55085714 L56.584,5.31771429 C57.64,6.09714286 58.4697143,6.81371429 59.048,7.49257143 L59.9405714,6.61257143 C59.2491429,5.93371429 58.3942857,5.24228571 57.3885714,4.55085714 Z M54.8114286,3.48228571 C54.6605714,3.00457143 54.4845714,2.57714286 54.3085714,2.18742857 L57.7154286,2.18742857 C57.5268571,2.62742857 57.3257143,3.05485714 57.0994286,3.48228571 L54.8114286,3.48228571 Z" id="形状"></path>
                </g>
            </g>
        </g>
    </g>
</svg>