<?xml version="1.0" encoding="UTF-8"?>
<svg width="56px" height="56px" viewBox="0 0 56 56" version="1.1" xmlns="http://www.w3.org/2000/svg" xmlns:xlink="http://www.w3.org/1999/xlink">
    <title>船期查询</title>
    <defs>
        <path d="M13.2213788,5.41245848 L14.1093602,5.41245848 C14.4912275,5.46261083 14.8677166,5.54753318 15.2341368,5.66616746 L19.8939252,8.20325736 L19.8939252,4.27922498 C19.8939252,3.5832976 19.3297646,3.019137 18.6338372,3.019137 L15.6147002,3.019137 L15.6147002,1.26008801 C15.6147002,0.925891893 15.4819414,0.605383578 15.245629,0.369071235 C15.0093167,0.132758892 14.6888084,0 14.3546123,0 L13.0945243,0 C12.4019018,0.00464857026 11.8428776,0.567449936 11.8428933,1.26008801 L11.8428933,2.90073947 L8.8152993,2.90073947 C8.12733181,2.90072377 7.56831671,3.45596173 7.56366827,4.14391352 L7.56366827,7.92417749 L11.8428933,5.66616746 C12.286094,5.50928298 12.7513635,5.42365055 13.2213788,5.41245848 Z M25.8138017,12.8376749 L15.5132167,7.42521648 C14.3788729,6.79919161 13.0026079,6.79919161 11.8682641,7.42521648 L1.51693733,12.8376749 C0.510558358,13.4465765 0.891121843,14.6051809 2.77702534,16.9985024 L4.51916039,19.6370759 C6.61998093,20.159541 8.65434658,20.9199455 10.5828053,21.9035428 C13.2213788,23.1636308 13.3482333,23.5441943 16.7479337,21.6498339 L16.9847288,21.5229794 C16.9405327,21.2290337 16.9179203,20.9322463 16.9170731,20.6349979 C16.9217332,16.6668743 20.1373709,13.4512367 24.1054945,13.4465765 C24.8724845,13.4497673 25.6342932,13.5724556 26.3635045,13.8102261 C26.3126409,13.4272518 26.1156752,13.078774 25.8138017,12.8376749 L25.8138017,12.8376749 Z M0.770094648,23.2799182 C1.45938863,22.6058979 4.78937412,19.8238111 9.70328078,23.4173398 C9.70328075,23.4173398 11.4623298,24.6774278 12.7224177,24.6774278 L12.7224177,24.6774278 L13.9825058,24.6774278 C15.0802194,24.5229907 16.1198377,24.0890883 17.0016427,23.4173398 C17.1115833,23.3412271 17.2468947,23.2482005 17.3737493,23.129803 C17.7412287,24.1058705 18.3186331,24.9892992 19.0651425,25.7176347 C18.6107287,25.971486 18.1729034,26.2539539 17.7543127,26.5633313 C17.7543127,26.5633313 16.4942248,27.8234193 13.4750878,27.8234193 C11.9455468,27.9137936 10.4323369,27.4682041 9.19586279,26.5633313 C9.19586279,26.5633313 6.54883232,24.6774278 4.91663781,24.7958253 C3.770004,24.6412511 2.61467864,25.010831 1.77064634,25.8022043 C1.62180223,25.9031011 1.44204222,25.9480411 1.26322835,25.9290588 C0.570590284,25.9290744 0.00778893686,25.3700503 0.00314036668,24.6774278 C-0.030791846,24.173212 0.212210378,23.6904476 0.637412833,23.4173398 C0.637412835,23.4173398 0.660348289,23.3909943 0.705425226,23.3446772 Z M23.970183,14.5290682 C27.300359,14.5290682 30,17.2287092 30,20.5588852 C30,23.8890612 27.300359,26.5887022 23.970183,26.5887022 C20.640007,26.5887022 17.940366,23.8890612 17.940366,20.5588852 C17.940366,17.2287092 20.640007,14.5290682 23.970183,14.5290682 Z M23.1104133,17.1272097 C22.9253523,17.0100619 22.689348,17.0100619 22.504287,17.1272097 C22.319226,17.2443574 22.2182539,17.457671 22.2449619,17.6750597 L22.2449619,17.6750597 L22.2449619,21.4468667 C22.2449274,21.7565273 22.4934955,22.0088616 22.8031216,22.0134834 L22.8031216,22.0134834 L26.5580147,22.0134834 C26.8709485,22.0134834 27.1246314,21.7598005 27.1246314,21.4468667 C27.1246314,21.2973565 27.0646832,21.1540896 26.9581717,21.0491678 C26.8516601,20.944246 26.7075077,20.8864416 26.5580147,20.8887069 L26.5580147,20.8887069 L23.3697384,20.8887069 L23.3697384,17.6750597 C23.3964464,17.457671 23.2954743,17.2443574 23.1104133,17.1272097 Z" id="path-1"></path>
        <filter x="-10.0%" y="-3.6%" width="113.3%" height="114.4%" filterUnits="objectBoundingBox" id="filter-2">
            <feOffset dx="-1" dy="1" in="SourceAlpha" result="shadowOffsetOuter1"></feOffset>
            <feGaussianBlur stdDeviation="0.5" in="shadowOffsetOuter1" result="shadowBlurOuter1"></feGaussianBlur>
            <feColorMatrix values="0 0 0 0 0.0941176471   0 0 0 0 0.482352941   0 0 0 0 0.443137255  0 0 0 0.5 0" type="matrix" in="shadowBlurOuter1"></feColorMatrix>
        </filter>
    </defs>
    <g id="客户端-舱单功能" stroke="none" stroke-width="1" fill="none" fill-rule="evenodd">
        <g id="画板" transform="translate(-685.000000, -93.000000)">
            <g id="船期查询" transform="translate(685.000000, 93.000000)">
                <rect id="矩形" stroke="#F2F3F5" fill="#02AF9E" x="0.5" y="0.5" width="55" height="55" rx="12"></rect>
                <g id="shipDate" transform="translate(13.000000, 14.000000)" fill-rule="nonzero">
                    <g id="形状">
                        <use fill="black" fill-opacity="1" filter="url(#filter-2)" xlink:href="#path-1"></use>
                        <use fill="#FFFFFF" xlink:href="#path-1"></use>
                    </g>
                </g>
            </g>
        </g>
    </g>
</svg>