<?xml version="1.0" encoding="UTF-8"?>
<svg width="56px" height="56px" viewBox="0 0 56 56" version="1.1" xmlns="http://www.w3.org/2000/svg" xmlns:xlink="http://www.w3.org/1999/xlink">
    <title>编组 9备份</title>
    <g id="客户端-舱单功能" stroke="none" stroke-width="1" fill="none" fill-rule="evenodd">
        <g id="画板" transform="translate(-500.000000, -186.000000)">
            <g id="编组-9备份" transform="translate(500.000000, 186.000000)">
                <rect id="矩形" stroke="#F2F3F5" fill="#6675FF" x="0.5" y="0.5" width="55" height="55" rx="12"></rect>
                <g id="rili" transform="translate(13.000000, 13.000000)" fill="#FFFFFF" fill-rule="nonzero">
                    <path d="M26.6781349,3.42525498 L24.9404583,3.42525498 L24.9404583,5.11259898 C24.9404583,6.71451228 23.6372887,8.01774044 22.0354633,8.01774044 C20.4336086,8.01774044 19.1304097,6.71451228 19.1304097,5.11259898 L19.1304097,3.42525498 L10.8697075,3.42525498 L10.8697075,5.11259898 C10.8697075,6.71451228 9.56647929,8.01774044 7.96456599,8.01774044 C6.36274058,8.01774044 5.05954171,6.71451228 5.05954171,5.11259898 L5.05954171,3.42525498 L3.3218944,3.42525498 C1.48727329,3.42525498 0,4.91252827 0,6.74714938 L0,26.6784865 C0,28.5130783 1.48730259,30.0003516 3.32192369,30.0003516 L26.6781349,30.0003516 C28.512756,30.0003516 30,28.5130783 30,26.6784572 L30,6.74712008 C30,4.91249897 28.512756,3.42525498 26.6781349,3.42525498 Z M28.2421669,26.6784572 C28.2421669,27.5408794 27.5405278,28.2425185 26.6781349,28.2425185 L3.32192369,28.2425185 C2.45950148,28.2425185 1.7578624,27.5408794 1.7578624,26.6784572 L1.7578624,10.5768818 L28.2421669,10.5768818 L28.2421669,26.6784572 Z M7.93893092,6.55287953 C7.14362864,6.55287953 6.49876756,5.90801845 6.49876756,5.11259898 L6.49876756,1.44016336 C6.49879686,0.644861073 7.14362864,0 7.93893092,0 C8.7343504,0 9.37921148,0.644861073 9.37921148,1.44016336 L9.37921148,5.11259898 C9.37921148,5.90801845 8.7343797,6.55287953 7.93893092,6.55287953 Z M22.0098575,6.55287953 C21.2145552,6.55287953 20.5696649,5.90801845 20.5696649,5.11259898 L20.5696649,1.44016336 C20.5696356,0.644861073 21.214526,0 22.0098575,0 C22.805277,0 23.4499916,0.644861073 23.4499916,1.44016336 L23.4499916,5.11259898 C23.4499916,5.90801845 22.805277,6.55287953 22.0098575,6.55287953 Z M9.13578089,26.1312437 L4.83143357,26.1312437 C4.37635988,26.1312437 4.0074786,25.7623332 4.0074786,25.3072595 L4.0074786,21.0029414 C4.0074786,20.5478385 4.37635988,20.1789572 4.83143357,20.1789572 L9.13578089,20.1789572 C9.59085458,20.1789572 9.95973586,20.5478385 9.95973586,21.0029414 L9.95973586,25.3072595 C9.95973586,25.7623332 9.59085458,26.1312437 9.13578089,26.1312437 Z M17.1521444,18.5126193 L12.847797,18.5126193 C12.3927234,18.5126193 12.0238128,18.143738 12.0238128,17.688635 L12.0238128,13.384317 C12.0238128,12.9292433 12.3927234,12.5603327 12.847797,12.5603327 L17.1521444,12.5603327 C17.6072181,12.5603327 17.9760993,12.9292433 17.9760993,13.384317 L17.9760993,17.688635 C17.9760993,18.143738 17.6072181,18.5126193 17.1521444,18.5126193 Z M17.1521444,26.1312437 L12.847797,26.1312437 C12.3927234,26.1312437 12.0238128,25.7623332 12.0238128,25.3072595 L12.0238128,21.0029414 C12.0238128,20.5478385 12.3927234,20.1789572 12.847797,20.1789572 L17.1521444,20.1789572 C17.6072181,20.1789572 17.9760993,20.5478385 17.9760993,21.0029414 L17.9760993,25.3072595 C17.9760993,25.7623332 17.6072181,26.1312437 17.1521444,26.1312437 Z M25.1685957,18.5126193 L20.8642484,18.5126193 C20.4091747,18.5126193 20.0402934,18.143738 20.0402934,17.688635 L20.0402934,13.384317 C20.0402934,12.9292433 20.4091747,12.5603327 20.8642484,12.5603327 L25.1685957,12.5603327 C25.6236694,12.5603327 25.99258,12.9292433 25.99258,13.384317 L25.99258,17.688635 C25.99258,18.143738 25.6236694,18.5126193 25.1685957,18.5126193 Z M25.1685957,26.1312437 L20.8642484,26.1312437 C20.4091747,26.1312437 20.0402934,25.7623332 20.0402934,25.3072595 L20.0402934,21.0029414 C20.0402934,20.5478385 20.4091747,20.1789572 20.8642484,20.1789572 L25.1685957,20.1789572 C25.6236694,20.1789572 25.99258,20.5478385 25.99258,21.0029414 L25.99258,25.3072595 C25.99258,25.7623332 25.6236694,26.1312437 25.1685957,26.1312437 Z" id="形状"></path>
                </g>
            </g>
        </g>
    </g>
</svg>