<?xml version="1.0" encoding="UTF-8"?>
<svg width="12px" height="12px" viewBox="0 0 12 12" version="1.1" xmlns="http://www.w3.org/2000/svg" xmlns:xlink="http://www.w3.org/1999/xlink">
    <title>形状</title>
    <g id="页面-1" stroke="none" stroke-width="1" fill="none" fill-rule="evenodd">
        <path d="M6,0 C6.82729212,0 7.60554371,0.157782515 8.3347548,0.473347545 C9.06396588,0.788912575 9.69936034,1.217484 10.2409382,1.75906183 C10.782516,2.30063966 11.2110874,2.93603412 11.5266525,3.6652452 C11.8422175,4.39445629 12,5.17270788 12,6 C12,6.8358209 11.8422175,7.61833689 11.5266525,8.34754797 C11.2110874,9.07675906 10.782516,9.71215351 10.2409382,10.2537313 C9.69936034,10.7953092 9.06396588,11.2238806 8.3347548,11.5394456 C7.60554371,11.8550107 6.82729212,12.0127932 6,12.0127932 C5.17270788,12.0127932 4.39445629,11.8550107 3.6652452,11.5394456 C2.93603412,11.2238806 2.30063966,10.7953092 1.75906183,10.2537313 C1.217484,9.71215351 0.788912575,9.07675906 0.473347545,8.34754797 C0.157782515,7.61833689 0,6.8358209 0,6 C0,5.17270788 0.157782515,4.39445629 0.473347545,3.6652452 C0.788912575,2.93603412 1.217484,2.30063966 1.75906183,1.75906183 C2.30063966,1.217484 2.93603412,0.788912575 3.6652452,0.473347545 C4.39445629,0.157782515 5.17270788,0 6,0 Z M7.63752665,7.66311301 C7.663113,7.62899788 7.65031983,7.58635395 7.59914712,7.53518124 C7.54797442,7.48400853 7.48827293,7.42643924 7.42004265,7.36247336 C7.35181237,7.29850748 7.29211088,7.2324094 7.24093817,7.16417912 C7.18976547,7.09594884 7.1727079,7.03198295 7.18976547,6.97228147 C7.23240939,6.83582092 7.24733476,6.7356077 7.23454158,6.67164181 C7.22174841,6.60767592 7.18123668,6.565032 7.1130064,6.54371004 C7.04477612,6.52238808 6.9466951,6.51385929 6.81876333,6.51812369 C6.69083156,6.52238808 6.53731344,6.52452027 6.35820896,6.52452027 C6.26439233,6.52452027 6.18763327,6.52878467 6.12793177,6.53731345 C6.06823028,6.54584223 6.01279318,6.55223882 5.96162047,6.55650321 C5.91044777,6.56076761 5.85501067,6.565032 5.79530917,6.56929639 C5.73560768,6.57356078 5.6673774,6.57142859 5.59061835,6.5628998 C5.47121536,6.55437102 5.37953093,6.53304906 5.31556504,6.49893392 C5.25159915,6.46481879 5.19189766,6.43070365 5.13646057,6.3965885 C5.08102347,6.36247336 5.010661,6.33262261 4.92537315,6.30703626 C4.8400853,6.28144991 4.71641792,6.26439234 4.55437101,6.25586356 C4.32409383,6.24733477 4.15991473,6.23667379 4.0618337,6.22388062 C3.96375268,6.21108744 3.89339021,6.19829426 3.85074629,6.18550109 C3.80810237,6.17270791 3.77398723,6.16417913 3.74840087,6.15991474 C3.72281451,6.15565034 3.6716418,6.15351815 3.59488275,6.15351815 C3.51812368,6.16204693 3.4008529,6.20042646 3.24307039,6.26865674 C3.08528787,6.33688702 2.92537316,6.41577828 2.76332625,6.50533052 C2.60127934,6.59488276 2.46055439,6.6865672 2.34115141,6.78038383 C2.22174843,6.87420046 2.16204694,6.95095952 2.16204694,7.01066102 C2.16204694,7.18123671 2.17270792,7.31769727 2.19402988,7.42004269 C2.21535184,7.5223881 2.24520258,7.60127936 2.28358212,7.65671646 C2.32196166,7.71215357 2.36247338,7.75692969 2.4051173,7.79104482 C2.44776122,7.82515996 2.49040515,7.86353949 2.53304907,7.90618342 C2.575693,7.94882735 2.6332623,7.97867809 2.70575696,7.99573566 C2.77825162,8.01279323 2.85714288,8.02345421 2.94243074,8.0277186 C3.0277186,8.03198299 3.10660986,8.04264397 3.17910452,8.05970154 C3.25159918,8.07675911 3.30916848,8.10660986 3.35181241,8.14925379 C3.43710025,8.2515992 3.52665249,8.29424312 3.62046912,8.27718556 C3.71428576,8.26012799 3.79744141,8.23240944 3.86993608,8.1940299 C3.94243075,8.15565036 4.00213224,8.14072499 4.04904055,8.14925379 C4.09594886,8.15778258 4.12366742,8.23880603 4.13219621,8.39232415 C4.13219621,8.46055443 4.14498939,8.51172714 4.17057574,8.54584228 C4.19616209,8.57995741 4.23027723,8.60554377 4.27292116,8.62260134 L4.42643928,8.69936041 C4.48614078,8.73347555 4.55010666,8.78038386 4.61833693,8.84008536 C4.68656721,8.90831564 4.71002137,8.97228152 4.6886994,9.03198301 C4.66737743,9.0916845 4.63539449,9.14925379 4.59275057,9.2046909 C4.55010665,9.260128 4.50959492,9.31982949 4.47121538,9.38379537 C4.43283585,9.44776125 4.43496804,9.50959494 4.47761197,9.56929643 C4.53731347,9.66311306 4.60127935,9.73134334 4.66950962,9.77398726 C4.73773989,9.81663118 4.80383797,9.85287851 4.86780386,9.88272927 C4.93176975,9.91258002 4.98933904,9.94669516 5.04051175,9.98507469 C5.09168445,10.0234542 5.12579959,10.0852879 5.14285717,10.1705757 C5.14285717,10.1961621 5.17270791,10.2452026 5.23240941,10.3176973 C5.29211091,10.390192 5.3496802,10.4648188 5.4051173,10.5415779 C5.46055439,10.618337 5.50533051,10.6823028 5.53944566,10.7334755 C5.5735608,10.7846482 5.56503202,10.8059702 5.5138593,10.7974414 C5.61620472,10.814499 5.72494672,10.8230278 5.84008531,10.8230278 C5.95522391,10.8230278 6.02985077,10.8017058 6.06396592,10.7590619 L6.08955227,10.7334755 L6.08955227,10.7206824 L6.1279318,10.7078892 C6.14498936,10.6993604 6.16844352,10.6886994 6.19829426,10.6759062 C6.22814501,10.6631131 6.26865674,10.6353945 6.31982945,10.5927506 C6.42217486,10.5245203 6.52025589,10.4349681 6.61407252,10.3240939 C6.70788915,10.2132197 6.7889126,10.0916845 6.85714288,9.95948832 C6.92537316,9.82729215 6.98294246,9.6929638 7.02985077,9.55650324 C7.07675908,9.42004269 7.10874203,9.29211092 7.1257996,9.17270793 C7.14285717,9.06183373 7.17057572,8.98081028 7.20895526,8.92963756 C7.24733479,8.87846485 7.28144993,8.83368873 7.31130068,8.7953092 C7.34115142,8.75692968 7.36673778,8.70575697 7.38805975,8.64179108 C7.40938171,8.57782519 7.40724952,8.46908319 7.38166316,8.31556507 C7.35607681,8.11940302 7.37953096,7.97654588 7.45202562,7.88699364 C7.52452029,7.7974414 7.58635398,7.72281454 7.63752669,7.66311304 L7.63752665,7.66311301 Z M8.90405116,9.67164179 C9.02345415,9.52665245 9.08528783,9.40724947 9.08955222,9.31343284 C9.09381662,9.21961621 8.9936034,9.14712154 8.78891257,9.09594884 C8.57569295,9.04477613 8.42430702,9.01705757 8.33475479,9.01279318 C8.24520255,9.00852879 8.16204689,9.05330491 8.08528783,9.14712154 C8.00852877,9.24093817 7.95309167,9.336887 7.91897653,9.43496802 C7.8848614,9.53304905 7.89339018,9.66737741 7.94456288,9.8379531 C7.97014924,9.91471216 7.9914712,9.97654585 8.00852876,10.0234542 C8.02558633,10.0703625 8.04690829,10.1002132 8.07249464,10.1130064 C8.09808099,10.1257996 8.13646053,10.130064 8.18763324,10.1257996 C8.23880595,10.1215352 8.31130062,10.1066098 8.40511724,10.0810235 C8.50746266,10.0554371 8.60554368,9.99573562 8.69936031,9.90191899 C8.79317694,9.80810236 8.86140722,9.7313433 8.90405114,9.6716418 L8.90405116,9.67164179 Z M9.24946695,5.93603412 C9.30916844,5.87633262 9.40938166,5.83155651 9.55010661,5.80170576 C9.69083155,5.77185502 9.83368869,5.73347549 9.97867804,5.68656717 C10.1236674,5.63965885 10.2515992,5.57356077 10.3624733,5.48827293 C10.4733475,5.40298509 10.533049,5.2835821 10.5415778,5.13006398 C10.5501066,4.97654585 10.5501066,4.8358209 10.5415778,4.70788914 C10.533049,4.57995737 10.5074627,4.4520256 10.4648188,4.32409382 C10.4221748,4.19616205 10.3646055,4.06183369 10.2921109,3.92110874 C10.2196162,3.7803838 10.1279318,3.62046909 10.0170576,3.44136461 C9.89765458,3.25373135 9.78891258,3.09594883 9.69083155,2.96801707 C9.59275053,2.8400853 9.4968017,2.7313433 9.40298507,2.64179106 C9.30916844,2.55223882 9.21108742,2.47121536 9.108742,2.39872069 C9.00639659,2.32622602 8.89125799,2.25159915 8.76332623,2.17484009 C8.62686568,2.09808102 8.49253732,2.01492537 8.36034115,1.92537313 C8.22814498,1.83582089 8.08528784,1.7761194 7.93176972,1.74626866 C7.7782516,1.71641791 7.6119403,1.73560768 7.43283582,1.80383795 C7.25373134,1.87206822 7.04904051,2.02132195 6.81876333,2.25159914 L6.60127933,2.48187633 C6.5074627,2.56716418 6.40938167,2.64818764 6.30703626,2.7249467 C6.20469084,2.80170576 6.10660982,2.86780384 6.01279319,2.92324094 C5.91897656,2.97867803 5.83368871,3.00639659 5.75692965,3.00639659 C5.68869937,3.00639659 5.58208956,3.01492538 5.43710022,3.03198295 C5.29211089,3.04904051 5.14498935,3.09168444 4.99573562,3.15991472 C4.84648188,3.228145 4.71855011,3.32409382 4.6119403,3.4477612 C4.5053305,3.57142857 4.46055438,3.73560768 4.47761195,3.94029851 C4.48614073,4.17057569 4.52665246,4.31982942 4.59914713,4.3880597 C4.6716418,4.45628998 4.76545843,4.49466951 4.88059702,4.5031983 C4.99573561,4.51172708 5.13219617,4.52025586 5.28997869,4.52878465 C5.44776121,4.53731343 5.6162047,4.59275053 5.79530917,4.69509595 C6.00852879,4.74626866 6.20895523,4.79744137 6.39658849,4.84861407 C6.5586354,4.89125799 6.7228145,4.94456289 6.8891258,5.00852878 C7.05543709,5.07249467 7.19402984,5.13859275 7.30490405,5.20682302 C7.43283582,5.28358208 7.48400853,5.3837953 7.45842218,5.50746268 C7.43283582,5.63113005 7.3880597,5.75692963 7.32409382,5.8848614 C7.26012793,6.01279318 7.20682302,6.13646056 7.16417911,6.25586354 C7.12153519,6.37526653 7.14712154,6.46908316 7.24093817,6.53731344 C7.36886994,6.63113007 7.46268657,6.69083156 7.52238807,6.71641791 C7.58208956,6.74200426 7.64605545,6.74840085 7.71428572,6.73560768 C7.78251599,6.7228145 7.87633262,6.70362474 7.99573561,6.67803838 C8.1151386,6.65245203 8.29850747,6.63965886 8.54584223,6.63965886 C8.47761195,6.63965886 8.46481877,6.6140725 8.5074627,6.56289979 C8.55010663,6.51172708 8.6162047,6.44776119 8.70575694,6.37100214 C8.79530917,6.29424308 8.89125799,6.21535182 8.99360342,6.13432836 C9.09594884,6.0533049 9.18123669,5.98720682 9.24946696,5.93603412 L9.24946695,5.93603412 Z" id="形状" fill="#969799" fill-rule="nonzero"></path>
    </g>
</svg>