<?xml version="1.0" encoding="UTF-8"?>
<svg width="56px" height="56px" viewBox="0 0 56 56" version="1.1" xmlns="http://www.w3.org/2000/svg" xmlns:xlink="http://www.w3.org/1999/xlink">
    <title>编组 9</title>
    <defs>
        <path d="M45,29.9586637 L41.0023438,38.2329082 C40.5009766,39.1962573 39.5048828,39.8 38.4125,39.8 L14.8515625,39.8 C14.4166016,39.8 14.134375,39.3447186 14.3302734,38.9587192 L14.3402344,38.9389243 C14.6589844,38.3087885 14.4697266,37.5433879 13.8919922,37.1342944 L13.8587891,37.1112004 C12.5240234,36.161048 11.7304688,34.6269476 11.7304688,32.993873 L11.7304688,31.116662 L32.7082031,31.116662 L32.7082031,31.1034655 C32.7082031,30.4700305 33.2261719,29.9586637 33.8603516,29.9586637 L45,29.9586637 Z M15.9572266,16 L15.9572266,19.2826449 L17.0595703,19.2826449 L17.0595703,20.3779595 L15.9572266,20.3779595 L15.9572266,22.0176324 L20.1740234,22.0176324 L18.7130859,23.0106737 L18.7130859,30.7768506 L12.6535156,30.7768506 L12.6535156,23.1162462 L11,23.1162462 L11,22.0209315 L15.4060547,22.0209315 L15.4060547,20.3779595 L13.7525391,20.3779595 L13.7525391,19.2826449 L15.4060547,19.2826449 L15.4060547,16 L15.9572266,16 Z M25.13125,24.7460216 C25.45,24.7460216 25.7123047,25.0066537 25.7123047,25.3266704 L25.7123047,25.3266704 L25.7123047,29.9586637 C25.7123047,30.2753812 25.4533203,30.5360133 25.13125,30.5360133 L25.13125,30.5360133 L20.4695312,30.5360133 C20.1474609,30.5360133 19.8884766,30.2786803 19.8851562,29.9586637 L19.8851562,29.9586637 L19.8851562,25.3266704 C19.8851562,25.0066537 20.1474609,24.7460216 20.4695312,24.7460216 L20.4695312,24.7460216 Z M31.5394531,23.0106737 C31.8615234,23.0106737 32.1238281,23.2680067 32.120539,23.5880233 L32.120539,23.5880233 L32.120539,29.9553646 C32.120539,30.2720821 31.8615234,30.5327142 31.5394531,30.5327142 L31.5394531,30.5327142 L27.4621094,30.5327142 C27.1400391,30.5327142 26.8777344,30.2753812 26.8777344,29.9553646 L26.8777344,29.9553646 L26.8777344,23.5880233 C26.8777344,23.2713058 27.1400391,23.0106737 27.4621094,23.0106737 L27.4621094,23.0106737 Z M38.5320312,25.3266704 C38.8541016,25.3266704 39.1164062,25.5840033 39.1197266,25.90402 L39.1197266,25.90402 L39.1197266,28.2200166 C39.1197266,28.5367341 38.8574219,28.7973662 38.5353516,28.7973662 L38.5353516,28.7973662 L33.8736328,28.7973662 C33.5515625,28.7973662 33.2892578,28.5400333 33.2892578,28.2200166 L33.2892578,28.2200166 L33.2892578,25.90402 C33.2892578,25.5873025 33.5515625,25.3266704 33.8736328,25.3266704 L33.8736328,25.3266704 Z M17.6074219,26.398891 L15.9539062,26.398891 L15.9539062,28.5862212 L17.6074219,28.5862212 L17.6074219,26.398891 Z M17.6074219,23.6573052 L15.9539062,23.6573052 L15.9539062,25.3002772 L17.6074219,25.3002772 L17.6074219,23.6573052 Z M41,16 C43.2091429,16 45,17.7908571 45,20 C45,22.2085714 43.2091429,24 41,24 C38.7908571,24 37,22.2085714 37,20 C37,17.7908571 38.7908571,16 41,16 Z M40.0805714,17.7382857 L39.1188571,17.7382857 L40.1834286,19.7005714 L39.5485714,19.7005714 L39.5485714,20.5457143 L40.6354286,20.5457143 L40.6354286,20.8388571 L39.5485714,20.8388571 L39.5485714,21.6851429 L40.6354286,21.6851429 L40.6354286,22.4977143 L41.4685714,22.4977143 L41.4685714,21.6851429 L42.5868571,21.6851429 L42.5868571,20.8388571 L41.4685714,20.8388571 L41.4685714,20.5457143 L42.5868571,20.5457143 L42.5868571,19.7005714 L41.8165714,19.7005714 L42.8811429,17.7382857 L41.9188571,17.7382857 L41,19.4308571 L40.0805714,17.7382857 Z" id="path-1"></path>
        <filter x="-8.8%" y="-4.2%" width="111.8%" height="116.8%" filterUnits="objectBoundingBox" id="filter-2">
            <feOffset dx="-1" dy="1" in="SourceAlpha" result="shadowOffsetOuter1"></feOffset>
            <feGaussianBlur stdDeviation="0.5" in="shadowOffsetOuter1" result="shadowBlurOuter1"></feGaussianBlur>
            <feColorMatrix values="0 0 0 0 0.945098039   0 0 0 0 0.454901961   0 0 0 0 0.176470588  0 0 0 1 0" type="matrix" in="shadowBlurOuter1"></feColorMatrix>
        </filter>
    </defs>
    <g id="及时通-客户端运价" stroke="none" stroke-width="1" fill="none" fill-rule="evenodd">
        <g id="整箱运价-未认证" transform="translate(-119.000000, -130.000000)">
            <g id="应用推荐" transform="translate(79.000000, 62.000000)">
                <g id="编组" transform="translate(24.000000, 16.000000)">
                    <g id="货代授权" transform="translate(0.000000, 36.000000)">
                        <g id="编组-9" transform="translate(16.000000, 16.000000)">
                            <rect id="矩形" stroke="#F2F3F5" fill="#FD953E" x="0.5" y="0.5" width="55" height="55" rx="12"></rect>
                            <g id="路径-3" fill-rule="nonzero">
                                <use fill="black" fill-opacity="1" filter="url(#filter-2)" xlink:href="#path-1"></use>
                                <use fill="#FFFFFF" xlink:href="#path-1"></use>
                            </g>
                        </g>
                    </g>
                </g>
            </g>
        </g>
    </g>
</svg>