<?xml version="1.0" encoding="UTF-8"?>
<svg width="19px" height="18px" viewBox="0 0 19 18" version="1.1" xmlns="http://www.w3.org/2000/svg" xmlns:xlink="http://www.w3.org/1999/xlink">
    <title>31shouyexuanzhong</title>
    <defs>
        <linearGradient x1="1.8564885e-13%" y1="7.7154114%" x2="100%" y2="92.2845886%" id="linearGradient-1">
            <stop stop-color="#96C9FD" offset="0%"></stop>
            <stop stop-color="#3388FF" offset="100%"></stop>
        </linearGradient>
    </defs>
    <g id="页面-1" stroke="none" stroke-width="1" fill="none" fill-rule="evenodd">
        <g id="及时通" transform="translate(-26.000000, -163.000000)" fill="url(#linearGradient-1)" fill-rule="nonzero">
            <g id="工具组" transform="translate(0.000000, 50.000000)">
                <g id="工作台备份-5" transform="translate(5.000000, 101.000000)">
                    <g id="Slice16" transform="translate(21.000000, 12.000000)">
                        <path d="M15.4876291,0 C16.4477265,0 17.2541223,0.722441039 17.3591733,1.6768339 L17.3591733,1.6768339 L18.8538901,15.260168 C18.9765931,16.3748282 18.103787,17.3489181 16.9823458,17.3489181 L16.9823458,17.3489181 L1.88298339,17.3489181 C0.762726164,17.3489181 -0.10975701,16.376658 0.0112238792,15.2629665 L1.48527485,1.67963238 C1.58903425,0.724055556 2.39586055,0 3.35714201,0 Z M13.497149,3.66946669 C12.694628,3.66946669 12.0440867,4.32000808 12.0440867,5.122529 C12.0440867,5.43636888 12.1435764,5.72696595 12.3127383,5.96450249 C11.7193053,7.02256847 10.5957299,7.71361197 9.33951553,7.73136737 C8.14237778,7.74828777 7.04836784,7.15059701 6.4065542,6.19330941 C6.69661594,5.92691987 6.87764291,5.5458702 6.87764291,5.122529 C6.87764291,4.32000808 6.22710155,3.66946669 5.4245806,3.66946669 C4.62205965,3.66946669 3.97151829,4.32000808 3.97151829,5.122529 C3.97151829,5.84174325 4.49400925,6.43889312 5.18013135,6.55511881 C5.50862348,7.14328399 5.96229459,7.65854482 6.51351625,8.06126677 C7.76401812,8.97484133 9.3838739,9.21488852 10.8455806,8.70323741 C11.9372814,8.321102 12.8364376,7.55617974 13.3915719,6.57098535 L13.497149,6.57559131 C14.2996699,6.57559131 14.9502113,5.92504992 14.9502113,5.122529 C14.9502113,4.32000808 14.2996699,3.66946669 13.497149,3.66946669 Z" id="路径-2"></path>
                    </g>
                </g>
            </g>
        </g>
    </g>
</svg>