<?xml version="1.0" encoding="UTF-8"?>
<svg width="54px" height="18px" viewBox="0 0 54 18" version="1.1" xmlns="http://www.w3.org/2000/svg" xmlns:xlink="http://www.w3.org/1999/xlink">
    <title>编组 16</title>
    <defs>
        <linearGradient x1="58.2107132%" y1="2.31763321%" x2="58.2107127%" y2="96.3138753%" id="linearGradient-1">
            <stop stop-color="#FFE6AC" offset="0%"></stop>
            <stop stop-color="#FDD36C" offset="100%"></stop>
        </linearGradient>
        <polygon id="path-2" points="18.75 5.25 18.75 5.84375402 18.1737887 5.84375402 10.9326886 13.292668 8.7870775 13.292668 8.7870775 5.83565737 8.25 5.82756072 8.25 5.25 10.3942617 5.25 10.3942617 10.6639571 15.75694 5.25"></polygon>
        <filter x="-28.6%" y="-37.3%" width="157.1%" height="174.6%" filterUnits="objectBoundingBox" id="filter-3">
            <feOffset dx="0" dy="0" in="SourceAlpha" result="shadowOffsetOuter1"></feOffset>
            <feGaussianBlur stdDeviation="1" in="shadowOffsetOuter1" result="shadowBlurOuter1"></feGaussianBlur>
            <feColorMatrix values="0 0 0 0 0.996078431   0 0 0 0 0.960784314   0 0 0 0 0.576470588  0 0 0 0.5 0" type="matrix" in="shadowBlurOuter1"></feColorMatrix>
        </filter>
        <filter x="-28.6%" y="-37.3%" width="157.1%" height="174.6%" filterUnits="objectBoundingBox" id="filter-4">
            <feGaussianBlur stdDeviation="0.5" in="SourceAlpha" result="shadowBlurInner1"></feGaussianBlur>
            <feOffset dx="0" dy="1" in="shadowBlurInner1" result="shadowOffsetInner1"></feOffset>
            <feComposite in="shadowOffsetInner1" in2="SourceAlpha" operator="arithmetic" k2="-1" k3="1" result="shadowInnerInner1"></feComposite>
            <feColorMatrix values="0 0 0 0 0.773918705   0 0 0 0 0.451107694   0 0 0 0 0  0 0 0 0.8 0" type="matrix" in="shadowInnerInner1"></feColorMatrix>
        </filter>
    </defs>
    <g id="用户中心-网页" stroke="none" stroke-width="1" fill="none" fill-rule="evenodd">
        <g id="页面-支付中心" transform="translate(-1126.000000, -17.000000)">
            <g id="编组-10" transform="translate(990.000000, 15.000000)">
                <g id="编组-16" transform="translate(136.000000, 2.000000)">
                    <path d="M45,0.25 C47.4162458,0.25 49.6037458,1.22937711 51.1871843,2.81281566 C52.7706229,4.39625422 53.75,6.58375422 53.75,9 C53.75,11.4162458 52.7706229,13.6037458 51.1871843,15.1871843 C49.6037458,16.7706229 47.4162458,17.75 45,17.75 L45,17.75 L9,17.75 C6.58375422,17.75 4.39625422,16.7706229 2.81281566,15.1871843 C1.22937711,13.6037458 0.25,11.4162458 0.25,9 C0.25,6.58375422 1.22937711,4.39625422 2.81281566,2.81281566 C4.39625422,1.22937711 6.58375422,0.25 9,0.25 L9,0.25 Z" id="矩形-3" stroke="#FFE6AB" stroke-width="0.5" fill="url(#linearGradient-1)"></path>
                    <g id="路径">
                        <use fill="black" fill-opacity="1" filter="url(#filter-3)" xlink:href="#path-2"></use>
                        <use fill="#BB6D00" fill-rule="evenodd" xlink:href="#path-2"></use>
                        <use fill="black" fill-opacity="1" filter="url(#filter-4)" xlink:href="#path-2"></use>
                    </g>
                    <g id="已认证" transform="translate(21.033000, 5.058000)" fill="#BB6D00" fill-rule="nonzero">
                        <path d="M21.8082857,1.125 L21.8082857,7.101 L20.7552857,7.101 L20.7552857,2.484 L19.9182857,2.484 L19.9182857,7.101 L19.0722857,7.101 L19.0722857,7.938 L24.6342857,7.938 L24.6342857,7.101 L22.6812857,7.101 L22.6812857,4.239 L24.3282857,4.239 L24.3282857,3.438 L22.6812857,3.438 L22.6812857,1.125 L24.4542857,1.125 L24.4542857,0.288 L19.3512857,0.288 L19.3512857,1.125 L21.8082857,1.125 Z M17.5242857,0.009 L16.9302857,0.576 C17.5422857,1.053 18.0282857,1.503 18.3792857,1.935 L18.9642857,1.341 C18.5682857,0.9 18.0822857,0.459 17.5242857,0.009 Z M13.9821429,0 C13.9821429,0.774 13.9551429,1.503 13.9011429,2.169 C14.3691429,4.383 15.1791429,6.147 16.3311429,7.461 L16.3311429,7.461 L15.7191429,8.181 C14.8281429,7.029 14.1441429,5.643 13.6581429,4.023 L13.6581429,4.023 L13.5861429,4.374 C13.2621429,5.922 12.4971429,7.191 11.2911429,8.199 L11.2911429,8.199 L10.7151429,7.497 C11.7411429,6.615 12.4071429,5.526 12.7311429,4.23 C12.9831429,3.141 13.1091429,1.728 13.1181429,0 L13.1181429,0 Z M6.813,0.36 L6.813,4.14 L1.233,4.14 L1.233,6.615 C1.233,6.957 1.404,7.128 1.746,7.128 L1.746,7.128 L6.237,7.128 C6.399,7.128 6.552,7.074 6.678,6.966 C6.822,6.831 6.912,6.291 6.966,5.346 L6.966,5.346 L7.803,5.616 C7.695,6.75 7.542,7.425 7.353,7.632 C7.137,7.83 6.849,7.938 6.48,7.956 L6.48,7.956 L1.512,7.956 C0.747,7.956 0.369,7.56 0.369,6.768 L0.369,6.768 L0.369,2.088 L1.233,2.088 L1.233,3.321 L5.94,3.321 L5.94,1.179 L0,1.179 L0,0.36 L6.813,0.36 Z M10.0221429,2.619 L10.0221429,6.381 C10.3011429,6.147 10.5981429,5.877 10.9221429,5.571 L10.9221429,5.571 L11.1381429,6.453 C10.5621429,6.984 9.95014286,7.461 9.29314286,7.893 L9.29314286,7.893 L8.96914286,7.128 C9.12214286,7.002 9.20314286,6.849 9.20314286,6.66 L9.20314286,6.66 L9.20314286,3.438 L7.94314286,3.438 L7.94314286,2.619 L10.0221429,2.619 Z M18.3522857,2.619 L18.3522857,6.318 C18.5952857,6.102 18.8562857,5.85 19.1352857,5.58 L19.1352857,5.58 L19.3602857,6.489 C18.8202857,7.011 18.2442857,7.479 17.6322857,7.893 L17.6322857,7.893 L17.3082857,7.119 C17.4522857,6.993 17.5332857,6.84 17.5332857,6.66 L17.5332857,6.66 L17.5332857,3.438 L16.2912857,3.438 L16.2912857,2.619 L18.3522857,2.619 Z M9.13114286,0.009 C9.71614286,0.45 10.2111429,0.891 10.6161429,1.341 L10.6161429,1.341 L10.0311429,1.935 C9.67114286,1.512 9.17614286,1.062 8.53714286,0.594 L8.53714286,0.594 Z" id="形状"></path>
                    </g>
                </g>
            </g>
        </g>
    </g>
</svg>