<?xml version="1.0" encoding="UTF-8"?>
<svg width="56px" height="56px" viewBox="0 0 56 56" version="1.1" xmlns="http://www.w3.org/2000/svg" xmlns:xlink="http://www.w3.org/1999/xlink">
    <title>编组 9</title>
    <g id="客户端/网页-账号注册" stroke="none" stroke-width="1" fill="none" fill-rule="evenodd">
        <g id="应用推荐" transform="translate(-306.000000, -68.000000)">
            <g id="编组" transform="translate(24.000000, 16.000000)">
                <g id="货代授权备份" transform="translate(266.000000, 36.000000)">
                    <g id="编组-9" transform="translate(16.000000, 16.000000)">
                        <rect id="矩形" stroke="#F2F3F5" fill="#FFDEDE" x="0.5" y="0.5" width="55" height="55" rx="12"></rect>
                        <g id="mianxingjizhuangxiang" transform="translate(12.000000, 12.000000)" fill="#FF3536" fill-rule="nonzero">
                            <path d="M30.3948529,16.0019064 L28.4999404,16.0019064 C25.2438937,13.965924 21.9916597,11.9337543 18.735613,9.89777195 C18.7623019,9.87108305 18.7889908,9.85583224 18.8156797,9.82914333 C21.0537353,7.59108781 19.8146074,4.19397117 17.1952818,3.25604671 L17.1952818,2.39818897 L22.395806,2.39818897 C23.93995,2.39818897 23.9437627,0 22.395806,0 L9.59656857,0 C8.05242464,0 8.04861194,2.39818897 9.59656857,2.39818897 L14.7970928,2.39818897 L14.7970928,4.21303467 C14.7970928,4.72012391 15.0639819,5.0403908 15.4109377,5.21577505 C15.4566901,5.24627666 15.5024425,5.27296557 15.5558203,5.29965447 L15.559633,5.29965447 C15.6892649,5.35684499 15.8303348,5.4025974 15.9980936,5.41403551 C17.3554152,5.48647683 18.1446443,7.10306208 17.1228405,8.12867866 C16.92458,8.32693912 16.6996306,8.44132015 16.4708686,8.50994877 C16.1620398,8.60526629 15.8493983,8.59764089 15.5558203,8.49851066 C14.9496009,8.29643751 14.450137,7.73978315 14.4081973,7.00393185 C14.3243179,5.46741332 11.9261289,5.45597522 12.0100083,7.00393185 C12.0710116,8.15918027 12.5895389,9.14285714 13.3368283,9.84439414 C10.0579054,11.8956273 6.77898249,13.9430478 3.49624687,15.9942809 L1.60133445,15.9942809 C0.7206005,15.9942809 0,16.7148814 0,17.5956154 L0,30.3948529 C0,31.2755868 0.7206005,31.9961873 1.60133445,31.9961873 L30.3986656,31.9961873 C31.2793995,31.9961873 32,31.2755868 32,30.3948529 L32,17.6032408 C31.9923746,16.7225069 31.2717741,16.0019064 30.3948529,16.0019064 Z M6.52734422,28.0004766 C6.52734422,29.5484332 4.12915525,29.5446205 4.12915525,28.0004766 L4.12915525,20.0014298 C4.12915525,18.4534731 6.52734422,18.4572858 6.52734422,20.0014298 L6.52734422,28.0004766 Z M11.861313,28.0004766 C11.861313,29.5484332 9.46312403,29.5446205 9.46312403,28.0004766 L9.46312403,20.0014298 C9.46312403,18.4534731 11.861313,18.4572858 11.861313,20.0014298 L11.861313,28.0004766 Z M17.1952818,28.0004766 C17.1952818,29.5484332 14.7970928,29.5446205 14.7970928,28.0004766 L14.7970928,20.0014298 C14.7970928,18.4534731 17.1952818,18.4572858 17.1952818,20.0014298 L17.1952818,28.0004766 Z M22.5254379,28.0004766 C22.5254379,29.5484332 20.1272489,29.5446205 20.1272489,28.0004766 L20.1272489,20.0014298 C20.1272489,18.4534731 22.5254379,18.4572858 22.5254379,20.0014298 L22.5254379,28.0004766 Z M8.01811033,16.0019064 C10.675563,14.3395687 13.3368283,12.677231 15.9942809,11.0148934 C18.6517336,12.677231 21.3129989,14.3395687 23.9704516,16.0019064 L8.01811033,16.0019064 Z M27.8594066,20.0014298 L27.8594066,28.0004766 C27.8594066,29.5484332 25.4612177,29.5446205 25.4612177,28.0004766 L25.4612177,20.0014298 C25.4612177,18.4534731 27.8594066,18.4572858 27.8594066,20.0014298 Z M29,4 C31.2091429,4 33,5.79085714 33,8 C33,10.2085714 31.2091429,12 29,12 C26.7908571,12 25,10.2085714 25,8 C25,5.79085714 26.7908571,4 29,4 Z M28.0805714,5.73828571 L27.1188571,5.73828571 L28.1834286,7.70057143 L27.5485714,7.70057143 L27.5485714,8.54571429 L28.6354286,8.54571429 L28.6354286,8.83885714 L27.5485714,8.83885714 L27.5485714,9.68514286 L28.6354286,9.68514286 L28.6354286,10.4977143 L29.4685714,10.4977143 L29.4685714,9.68514286 L30.5868571,9.68514286 L30.5868571,8.83885714 L29.4685714,8.83885714 L29.4685714,8.54571429 L30.5868571,8.54571429 L30.5868571,7.70057143 L29.8165714,7.70057143 L30.8811429,5.73828571 L29.9188571,5.73828571 L29,7.43085714 L28.0805714,5.73828571 Z" id="形状"></path>
                        </g>
                    </g>
                </g>
            </g>
        </g>
    </g>
</svg>