<?xml version="1.0" encoding="UTF-8"?>
<svg width="82px" height="82px" viewBox="0 0 82 82" version="1.1" xmlns="http://www.w3.org/2000/svg" xmlns:xlink="http://www.w3.org/1999/xlink">
    <!-- Generator: Sketch 64 (93537) - https://sketch.com -->
    <title>logo</title>
    <desc>Created with Sketch.</desc>
    <defs>
        <path d="M40,0 C62.09139,-4.05812251e-15 80,17.90861 80,40 C80,62.09139 62.09139,80 40,80 C17.90861,80 2.705415e-15,62.09139 0,40 C-2.705415e-15,17.90861 17.90861,4.05812251e-15 40,0 Z" id="path-1"></path>
    </defs>
    <g id="概况" stroke="none" stroke-width="1" fill="none" fill-rule="evenodd">
        <g id="运价-方案1" transform="translate(-864.000000, -95.000000)">
            <g id="编组-6" transform="translate(16.000000, 72.000000)">
                <g id="编组-2" transform="translate(224.000000, 0.000000)">
                    <g id="logo" transform="translate(625.000000, 24.000000)">
                        <mask id="mask-2" fill="white">
                            <use xlink:href="#path-1"></use>
                        </mask>
                        <use id="蒙版" stroke="#E4E7ED" fill="#EDF4FF" xlink:href="#path-1"></use>
                        <g id="企业" mask="url(#mask-2)" fill-rule="nonzero">
                            <g transform="translate(20.000000, 22.000000)">
                                <polygon id="路径" fill="#BAD4FF" points="6.10327115 1.75674498 25.7565557 1.75674498 25.7565557 34.3167829 6.10327115 34.3167829"></polygon>
                                <path d="M16.9277134,7.24751309 L23.1636035,7.24751309 L23.1636035,9.45301565 L16.9277134,9.45301565 L16.9277134,7.24751309 Z M16.9277134,14.9805221 L23.1636035,14.9805221 L23.1636035,17.2311247 L16.9277134,17.2311247 L16.9277134,14.9805221 Z M30.0036349,22.5661481 L31.9977181,22.5661481 L31.9977181,28.8020382 L30.0036349,28.8020382 L30.0036349,22.5661481 Z M30.0036349,14.1698297 L31.9977181,14.1698297 L31.9977181,20.4059776 L30.0036349,20.4059776 L30.0036349,14.1698297 L30.0036349,14.1698297 Z M8.53139507,22.5661481 L14.7684023,22.5661481 L14.7684023,24.7714315 L8.53139507,24.7714315 L8.53139507,22.5661481 Z" id="形状" fill="#4E8CEE"></path>
                                <path d="M37.1435455,33.7322353 L37.1435455,7.24751309 L27.3172255,7.24751309 L27.3172255,0.191004877 L4.28869872,0.191004877 L4.28869872,33.7322353 L0.179093942,33.7322353 L0.179093942,35.8136569 L39.9111402,35.8136569 L39.9111402,33.7322353 L37.143537,33.7322353 L37.1435455,33.7322353 Z M35.0161431,9.23958962 L35.0161431,33.7322353 L27.3172513,33.7322353 L27.3172513,9.23958962 L35.0161431,9.23958962 Z M25.3251318,2.2721987 L25.3251318,33.7322353 L6.4149926,33.7322353 L6.4149926,2.2721987 L25.3251318,2.2721987 Z" id="形状" fill="#4E8CEE"></path>
                                <path d="M8.53139507,14.9805221 L14.7684023,14.9805221 L14.7684023,17.2311247 L8.53139507,17.2311247 L8.53139507,14.9805221 L8.53139507,14.9805221 Z M16.9277134,22.5661481 L23.1636035,22.5661481 L23.1636035,24.7714315 L16.9277134,24.7714315 L16.9277134,22.5661481 Z M8.53139507,7.24751309 L14.7684023,7.24751309 L14.7684023,9.45301565 L8.53139507,9.45301565 L8.53139507,7.24751309 Z" id="形状" fill="#4E8CEE"></path>
                            </g>
                        </g>
                    </g>
                </g>
            </g>
        </g>
    </g>
</svg>