<svg width="16" height="16" viewBox="0 0 16 16" fill="none" xmlns="http://www.w3.org/2000/svg">
<path d="M10 3.3335H13.3333C13.9619 3.3335 14.2761 3.3335 14.4714 3.52876C14.6667 3.72403 14.6667 4.0383 14.6667 4.66683V11.3335C14.6667 11.962 14.6667 12.2763 14.4714 12.4716C14.2761 12.6668 13.9619 12.6668 13.3333 12.6668H10" stroke="#333333" stroke-width="1.33333"/>
<path d="M6.00004 3.3335H2.66671C2.03817 3.3335 1.7239 3.3335 1.52864 3.52876C1.33337 3.72403 1.33337 4.0383 1.33337 4.66683V11.3335C1.33337 11.962 1.33337 12.2763 1.52864 12.4716C1.7239 12.6668 2.03817 12.6668 2.66671 12.6668H6.00004" stroke="#333333" stroke-width="1.33333"/>
<path d="M8 2V14" stroke="#333333" stroke-width="1.33333"/>
</svg>
