<?xml version="1.0" encoding="UTF-8"?>
<svg width="200px" height="150px" viewBox="0 0 200 150" version="1.1" xmlns="http://www.w3.org/2000/svg" xmlns:xlink="http://www.w3.org/1999/xlink">
    <title>img-gongnengzanweikaifang</title>
    <g id="客户端-舱单功能" stroke="none" stroke-width="1" fill="none" fill-rule="evenodd">
        <g id="及时通" transform="translate(-469.000000, -256.000000)" fill="#BFBFBF" fill-rule="nonzero">
            <g id="编组" transform="translate(401.000000, 220.000000)">
                <g id="img-gongnengzanweikaifang" transform="translate(68.000000, 36.000000)">
                    <path d="M182.291418,150 L68.3975983,150 C67.4712183,149.996964 66.7215254,149.248178 66.7190714,148.323887 C66.7215254,147.398381 67.4718319,146.649595 68.3975983,146.646559 L182.206756,146.646559 C183.133136,146.649595 183.882828,147.398381 183.885283,148.323279 C183.885283,149.244534 183.213504,150 182.291418,150 Z M54.381653,150 L28.1117248,150 C27.1853448,149.996964 26.4356519,149.248178 26.4325843,148.323887 C26.4356519,147.398381 27.1853448,146.649595 28.1111114,146.646559 L54.381653,146.646559 C55.308033,146.649595 56.057726,147.398381 56.0607935,148.323279 C56.057726,149.248178 55.308033,149.996964 54.381653,150 Z M149.306155,138.012146 L123.036227,138.012146 C122.109847,138.009109 121.360154,137.260324 121.357087,136.335425 C121.360154,135.410526 122.11046,134.662348 123.036227,134.659312 L149.306155,134.659312 C150.232535,134.662348 150.982228,135.410526 150.985296,136.335425 C150.982228,137.260324 150.232535,138.009109 149.306155,138.011538 L149.306155,138.012146 Z M114.475494,138.012146 L106.838074,138.012146 C105.911694,138.009717 105.162001,137.260324 105.159547,136.335425 C105.162614,135.410526 105.912307,134.662348 106.838074,134.659312 L114.476108,134.659312 C115.401261,134.662348 116.150954,135.411134 116.154021,136.335425 C116.150954,137.259717 115.401261,138.009109 114.475494,138.011538 L114.475494,138.012146 Z M96.9337834,138.012146 L46.5755212,138.012146 C45.6497547,138.009109 44.9006752,137.259717 44.8976077,136.335425 C44.9006752,135.411134 45.6503681,134.662348 46.5755212,134.659312 L96.9337834,134.659312 C97.8601634,134.662348 98.6098563,135.410526 98.6129238,136.335425 C98.6098563,137.260324 97.8601634,138.009109 96.9337834,138.011538 L96.9337834,138.012146 Z M198.321473,126.025506 L187.578533,126.025506 C186.652153,126.02247 185.90246,125.273684 185.899392,124.348785 C185.90246,123.423887 186.652153,122.675101 187.578533,122.672065 L198.32086,122.672065 C199.24724,122.675101 199.997546,123.423887 200,124.348178 C199.997546,125.273684 199.24724,126.02247 198.321473,126.025506 Z M178.682217,126.025506 L172.386514,126.025506 C171.460134,126.02247 170.710441,125.273684 170.707374,124.348785 C170.710441,123.423887 171.460134,122.675101 172.386514,122.672065 L178.68099,122.672065 C179.60737,122.675101 180.357677,123.423887 180.360131,124.348178 C180.357677,125.273684 179.60737,126.02247 178.681604,126.025506 L178.682217,126.025506 Z M162.063205,126.025506 L11.4945535,126.025506 C10.568787,126.02247 9.81848057,125.273684 9.81602658,124.348785 C9.81848057,123.423887 10.568787,122.675101 11.4945535,122.672065 L162.062592,122.672065 C162.988972,122.675101 163.738665,123.423887 163.741732,124.348178 C163.738665,125.273684 162.988972,126.02247 162.062592,126.025506 L162.063205,126.025506 L162.063205,126.025506 Z M187.488349,35.9320265 C186.284232,35.9370275 185.127821,35.4664235 184.275466,34.624494 C183.42396,33.7832455 182.947697,32.639842 182.952727,31.4489878 C182.947956,30.2585409 183.424205,29.1156098 184.275466,28.2746963 C185.127821,27.4327668 186.284232,26.9621629 187.488349,26.9671664 C188.692465,26.9621628 189.848876,27.4327668 190.701231,28.2746963 C191.552717,29.1155098 192.029192,30.2584533 192.024583,31.4489878 C192.029614,32.639842 191.55335,33.7832455 190.701844,34.624494 C189.849339,35.4665732 188.692678,35.9371895 187.488349,35.9320265 L187.488349,35.9320265 Z M187.488349,27.7967612 C185.472398,27.7967612 183.792031,29.4570851 183.792031,31.4489878 C183.792031,33.4408907 185.472398,35.1012145 187.488349,35.1012145 C189.504299,35.1012145 191.184666,33.4408906 191.184666,31.4489878 C191.184666,29.457085 189.588348,27.7967612 187.488349,27.7967612 Z M4.53566051,99.5951818 C3.33154372,99.6001853 2.1751331,99.1295813 1.32277842,98.2876518 C0.471366,97.44659 -0.00489568134,96.3034102 3.94539309e-05,95.1127531 C-0.00499134056,93.9218989 0.471272435,92.7784954 1.32277842,91.9372469 C2.17528324,91.0951678 3.33194492,90.6245515 4.53627405,90.6297144 C5.74039088,90.6247134 6.89680155,91.0953174 7.74915629,91.9372469 C8.60056869,92.7783088 9.07683032,93.9214886 9.07189362,95.1121458 C9.07666632,96.3025927 8.60041721,97.4455237 7.74915629,98.2864373 C6.89683999,99.128424 5.74040419,99.5990382 4.53627405,99.5939272 L4.53627405,99.5951818 L4.53566051,99.5951818 Z M4.53566051,91.4611336 C2.51971042,91.4611336 0.839343063,93.1208502 0.839343063,95.1133603 C0.839343063,97.1052631 2.52032396,98.7655871 4.53566051,98.7655871 C6.55161061,98.7655871 8.23197811,97.104656 8.23197811,95.1133603 C8.23197811,93.1208502 6.63565971,91.4611336 4.53566051,91.4611336 Z M149.940511,4.47449399 L143.136832,4.47449399 C142.884685,4.47449399 142.715974,4.30748994 142.715974,4.05910928 C142.715974,3.81012144 142.884685,3.64372471 143.135605,3.64372471 L149.940511,3.64372471 C150.192044,3.64372471 150.360142,3.81012144 150.360142,4.05850195 C150.360142,4.30748979 150.108609,4.47449399 149.940511,4.47449399 Z" id="形状"></path>
                    <path d="M146.206156,7.55951411 C145.954623,7.55951411 145.786525,7.39372471 145.786525,7.14412954 L145.786525,0.416599219 C145.786525,0.166396729 145.954009,0 146.206156,0 C146.45769,0 146.625788,0.167004053 146.625788,0.415991895 L146.625788,7.14534419 C146.625788,7.39433203 146.45769,7.56072876 146.206156,7.56072876 L146.206156,7.55951411 Z M26.8540566,60.728745 L20.0516053,60.728745 C19.7994582,60.728745 19.6319736,60.5635627 19.6319736,60.3133603 C19.6319736,60.0643724 19.7994582,59.898583 20.0516053,59.898583 L26.8540566,59.898583 C27.1068173,59.898583 27.2736883,60.0643724 27.2736883,60.3133603 C27.2736883,60.5635627 27.1068172,60.728745 26.8540566,60.728745 Z" id="形状"></path>
                    <path d="M23.619702,63.7651822 C23.435653,63.7651822 23.3129538,63.6054656 23.3129538,63.3649797 L23.3129538,56.8785425 C23.3129538,56.6374494 23.4356531,56.4777328 23.619702,56.4777328 C23.8037509,56.4777328 23.9264505,56.6374494 23.9264505,56.8779352 L23.9264505,63.3643724 C23.9264505,63.5259108 23.7424014,63.7651822 23.619702,63.7651822 Z M87.268143,17.3526316 L86.9344008,17.3526316 C86.0159963,14.6769231 83.5129298,12.7530365 80.5920721,12.7530365 C77.6706008,12.7530365 75.0840989,14.6763158 74.2503568,17.3526316 L73.9988232,17.3526316 C72.7556003,17.3520283 71.5642073,17.8456423 70.6920761,18.722672 C69.8133011,19.6060093 69.3221116,20.7968946 69.3251893,22.0366397 C69.32195,23.276595 69.8131515,24.4677276 70.6920761,25.3512145 C71.5643092,26.2280213 72.7556894,26.7214112 73.9988232,26.7206488 L87.3509651,26.7206488 C88.5941127,26.7214795 89.7855186,26.2280789 90.6577123,25.3512145 C91.5366933,24.4677645 92.0279048,23.2766078 92.0245995,22.0366397 C92.0245995,19.4441297 89.938694,17.3526316 87.268143,17.3526316 L87.268143,17.3526316 Z" id="形状"></path>
                    <path d="M87.463235,27.3279352 L73.8877802,27.3279352 C71.0025054,27.3279352 68.7117087,25.1052631 68.7117087,22.3044535 C68.7117087,19.5874494 71.0025054,17.281579 73.8025042,17.281579 C74.9055713,14.5645749 77.5356316,12.7530365 80.5902316,12.7530365 C83.6454451,12.7530365 86.2748919,14.5645749 87.377959,17.281579 L87.463235,17.281579 C88.8329827,17.2710636 90.1515093,17.7964102 91.1319452,18.7433199 C92.1010397,19.6790944 92.6446239,20.9643557 92.6381379,22.3044535 C92.6381379,25.104656 90.3472828,27.3279352 87.463235,27.3279352 L87.463235,27.3279352 Z M73.9724427,18.105668 C71.59637,18.105668 69.6448371,19.9991902 69.6448371,22.3044535 C69.6448371,24.6097167 71.5963702,26.5038461 73.9718293,26.5038461 L87.547284,26.5038461 C89.9233567,26.5038461 91.8755031,24.6097166 91.8755031,22.3044535 C91.8755031,19.9991903 89.9233567,18.105668 87.547284,18.105668 L86.8681432,18.105668 L86.7840942,17.858502 C85.9350147,15.3054655 83.4748931,13.658502 80.6755076,13.658502 C77.8748953,13.658502 75.4994361,15.3880566 74.5669211,17.858502 L74.4810315,18.105668 L73.9718293,18.105668 L73.9724427,18.105668 Z" id="形状"></path>
                    <path d="M76.1067977,26.7206477 L100.599426,26.7206477 L100.599426,27.5544535 L76.1067977,27.5544535 L76.1067977,26.7206477 Z M102.688996,26.7206477 L105.531326,26.7206477 L105.531326,27.5544535 L102.688996,27.5544535 L102.688996,26.7206477 Z M116.147273,59.7917004 L52.0325742,59.7917004 C49.6920844,59.7917004 47.8528212,61.6244938 47.8528212,63.9576923 L47.8528212,108.85749 C47.8528212,111.190081 49.6920842,113.022267 52.0325742,113.022267 L77.1933005,113.022267 L77.1933005,119.436437 L70.0890087,119.436437 C69.586555,119.436437 69.2515858,119.769838 69.2515858,120.270243 L69.2515858,124.268624 C69.2515858,124.768421 69.586555,125.101215 70.0883953,125.101215 L98.0074026,125.101215 C98.5098564,125.101215 98.8435986,124.768421 98.8435985,124.269231 L98.8435985,120.270243 C98.8435985,119.769838 98.5098564,119.436437 98.0074026,119.436437 L90.9031109,119.436437 L90.9031109,113.022267 L116.063224,113.022267 C118.403713,113.022267 120.242977,111.189474 120.242977,108.85749 L120.242977,63.957085 C120.327026,61.6251012 118.403714,59.7917004 116.147273,59.7917004 L116.147273,59.7917004 Z M97.17182,123.352227 L71.0074134,123.352227 L71.0074134,121.019636 L97.2558691,121.019636 L97.2558691,123.351619 L97.17182,123.351619 L97.17182,123.352227 Z M89.2307189,119.436437 L78.8656923,119.436437 L78.8656923,113.022267 L89.2307189,113.022267 L89.2307189,119.436437 L89.2307189,119.436437 Z M118.655247,108.85749 C118.655247,110.273684 117.568131,111.35587 116.147273,111.35587 L52.0325742,111.35587 C50.6111024,111.35587 49.5245997,110.273684 49.5245997,108.85749 L49.5245997,63.957085 C49.5245997,62.5408906 50.6111023,61.4580971 52.0325742,61.4580971 L116.063224,61.4580971 C117.484082,61.4580971 118.571198,62.5414979 118.571198,63.957085 L118.571198,108.85749 L118.655247,108.85749 L118.655247,108.85749 Z" id="形状"></path>
                    <path d="M113.926415,63.7651822 L54.2515917,63.7651822 C53.6922292,63.759555 53.1539294,63.976108 52.7571139,64.3663967 C52.3622033,64.7549966 52.1423431,65.2848525 52.1472049,65.8360324 L52.1472049,101.714575 C52.1420076,102.266473 52.3621325,102.797091 52.7577272,103.186032 C53.1545428,103.576321 53.6928427,103.792874 54.2522052,103.787354 L113.842366,103.787354 C114.401516,103.792711 114.939564,103.57617 115.33623,103.186032 C115.731269,102.79702 115.951018,102.266742 115.946046,101.715182 L115.946046,65.8366397 C116.030708,64.7593118 115.020893,63.7645749 113.925801,63.7645749 L113.926415,63.7651822 Z M115.188991,101.715789 C115.188991,102.378947 114.598807,102.9583 113.925801,102.9583 L54.2522052,102.9583 C53.5785859,102.9583 52.9890156,102.378947 52.9890156,101.716397 L52.9890156,65.8378542 C52.9890156,65.1734818 53.5791995,64.5941295 54.2522052,64.5941295 L113.842366,64.5941295 C114.515985,64.5941295 115.104328,65.1734818 115.104328,65.8366397 L115.104328,101.715182 L115.188991,101.715182 L115.188991,101.715789 Z M84.046672,104.947773 C82.6153843,104.947773 81.522133,106.107692 81.522133,107.433401 C81.522133,108.759109 82.7000466,109.919028 84.046672,109.919028 C85.3932972,109.919028 86.5718242,108.759109 86.5718242,107.433401 C86.5718242,106.107692 85.4779597,104.947166 84.046672,104.947166 L84.046672,104.947773 Z M84.046672,109.173279 C83.1204189,109.172959 82.3682984,108.432249 82.363237,107.515385 C82.3878612,106.612576 83.1343004,105.893372 84.0466719,105.893372 C84.9590434,105.893372 85.7054826,106.612576 85.7301069,107.515385 C85.7301069,108.428138 85.0564876,109.173279 84.046672,109.173279 L84.046672,109.173279 Z" id="形状"></path>
                    <path d="M83.8601689,79.7611336 L104.154639,79.7611336 C104.409854,79.7611336 104.578566,79.5989878 104.578566,79.354251 C104.578566,79.1101214 104.409854,78.9473684 104.154639,78.9473684 L83.8601689,78.9473684 C83.6055678,78.9473684 83.4356293,79.1101214 83.4356293,79.354251 C83.4356293,79.5989878 83.6902304,79.7611336 83.8601689,79.7611336 Z M107.550344,83.5080971 L87.2564865,83.5080971 C87.0024989,83.5080971 86.8319469,83.6702429 86.8319469,83.9143724 C86.8319469,84.1591093 87.0024989,84.321255 87.255873,84.321255 L107.550344,84.321255 C107.806172,84.321255 107.975497,84.1591093 107.975497,83.9143724 C107.975497,83.6702429 107.806172,83.5074899 107.550957,83.5074899 L107.550344,83.5080971 Z M104.579179,88.5552631 C104.579179,88.3111336 104.409854,88.1483805 104.154639,88.1483805 L83.8601689,88.1483805 C83.6055678,88.1483805 83.4356293,88.3111336 83.4356293,88.5552631 C83.4356293,88.7993927 83.6055678,88.9621458 83.8601689,88.9621458 L104.154639,88.9621458 C104.409854,88.9621458 104.578566,88.7192307 104.578566,88.5552631 L104.579179,88.5552631 Z M107.550344,92.7078948 L87.2564865,92.7078948 C87.0024989,92.7078948 86.8319469,92.871255 86.8319469,93.1153846 C86.8319469,93.3595141 87.0024989,93.5222672 87.255873,93.5222672 L107.550344,93.5222672 C107.806172,93.5222672 107.975497,93.3595141 107.975497,93.1153846 C107.975497,92.871255 107.806172,92.708502 107.550957,92.708502 L107.550344,92.7078948 Z M57.6687683,85.0202429 C57.6687683,90.3868421 62.0632451,94.7368421 67.4841018,94.7368421 C72.9055721,94.7368421 77.3006624,90.3868421 77.3006624,85.0202429 C77.3006624,79.6536437 72.9055721,75.3036437 67.4841018,75.3036437 C62.0632451,75.3036437 57.6687683,79.6536437 57.6687683,85.0202429 Z" id="形状"></path>
                    <path d="M67.17674,95.3441295 C64.4387042,95.3441295 61.9497483,94.2771255 60.0417735,92.3872469 C58.1337988,90.498583 57.0552716,87.952834 57.0552716,85.324494 C57.0552716,82.6961539 58.1331853,80.150405 60.042387,78.2611336 C61.9503616,76.3718624 64.5221398,75.3036437 67.1773535,75.3036437 C69.8325672,75.3036437 72.4043453,76.3718622 74.313547,78.2611336 C76.2215216,80.1504048 77.3006624,82.6961539 77.3006624,85.324494 C77.3006624,87.9522268 76.2209082,90.498583 74.313547,92.3872469 C72.4049588,94.2771255 69.8325671,95.3441295 67.17674,95.3441295 Z M67.17674,76.125911 C64.6890109,76.125911 62.3650855,77.1115386 60.6227548,78.8362348 C58.8804242,80.5603238 57.8847192,82.8601214 57.8847192,85.324494 C57.8847192,87.7882592 58.8804244,90.0874494 60.6227548,91.8127531 C62.3650854,93.5374494 64.6883974,94.5230769 67.17674,94.5230769 C69.6675366,94.5230769 71.9902351,93.5374493 73.7319521,91.8127531 C75.4742827,90.0874494 76.4706013,87.7882591 76.4706013,85.324494 C76.4706013,82.8601216 75.4742827,80.5603239 73.7319521,78.8362348 C71.9896215,77.1115384 69.6663095,76.125911 67.17674,76.125911 Z" id="形状"></path>
                    <path d="M68.8252055,85.2048583 L73.0939156,80.9866397 C73.2541616,80.8356725 73.3448665,80.6262686 73.3448665,80.4072875 C73.3448665,80.1883063 73.2541616,79.9789024 73.0939156,79.8279352 C72.9410821,79.6692107 72.7292355,79.5793875 72.5077195,79.5793875 C72.2862035,79.5793875 72.0743569,79.6692107 71.9215234,79.8279352 L67.6540405,84.0473684 L63.3865575,79.8279352 C63.2337426,79.6694043 63.0220297,79.5797059 62.8006681,79.5797059 C62.5793065,79.5797059 62.3675936,79.6694043 62.2147787,79.8279352 C62.0545327,79.9789024 61.9638278,80.1883063 61.9638278,80.4072875 C61.9638278,80.6262686 62.0545327,80.8356725 62.2147787,80.9866397 L66.4816482,85.2048583 L62.2141652,89.4230769 C62.054115,89.5740259 61.9635364,89.7832973 61.9635364,90.0021255 C61.9635364,90.2209537 62.054115,90.4302251 62.2141652,90.5811741 C62.3822633,90.7463563 62.63257,90.8289473 62.7994411,90.8289473 C62.9681527,90.8289473 63.2184594,90.7463562 63.3865575,90.5811741 L67.6540405,86.3629554 L71.9215234,90.5811741 C72.090235,90.7463563 72.3399282,90.8289473 72.5074127,90.8289473 C72.6748972,90.8289473 72.9258175,90.7463562 73.0939156,90.5811741 C73.2539657,90.4302251 73.3445444,90.2209537 73.3445444,90.0021255 C73.3445444,89.7832973 73.2539657,89.5740259 73.0939156,89.4230769 L68.8252055,85.2048583 L68.8252055,85.2048583 Z M150.2491,124.493927 L128.49144,124.493927 C127.068127,124.493927 125.981625,123.419028 125.981625,122.013158 L125.981625,80.8208502 C125.981625,79.4143724 127.069354,78.3400809 128.49144,78.3400809 L150.2491,78.3400809 C151.672412,78.3400809 152.760755,79.4149797 152.760755,80.8208502 L152.760755,122.013158 C152.760755,123.419636 151.672412,124.493927 150.2491,124.493927 Z M128.49144,79.9937247 C127.990213,79.9937247 127.655244,80.3253037 127.655244,80.8202429 L127.655244,122.012551 C127.655244,122.508704 127.990213,122.839676 128.49144,122.839676 L150.2491,122.839676 C150.752167,122.839676 151.087136,122.508704 151.087136,122.013158 L151.087136,80.8208502 C151.087136,80.3253037 150.752167,79.9949392 150.2491,79.9949392 L128.49144,79.9949392 L128.49144,79.9937247 Z" id="形状"></path>
                    <path d="M146.160144,100.201822 L132.368125,100.201822 C131.434187,100.199487 130.677572,99.450801 130.674874,98.5263158 L130.674874,84.874494 C130.67757,83.9502451 131.433813,83.2016562 132.367512,83.1989878 L146.160144,83.1989878 C147.093843,83.2016562 147.850086,83.9502451 147.852781,84.874494 L147.852781,98.5275303 C147.850086,99.4517793 147.093843,100.200368 146.160144,100.203036 L146.160144,100.202429 L146.160144,100.201822 Z" id="路径"></path>
                    <path d="M146.377322,100.201822 L132.763217,100.201822 C132.207646,100.207399 131.673188,99.9913958 131.28032,99.6025039 C130.887452,99.213612 130.66924,98.6845634 130.674768,98.1346154 L130.674768,84.6582996 C130.669577,84.1084518 130.887897,83.5795978 131.280692,83.1907789 C131.673486,82.8019601 132.207747,82.5858499 132.763217,82.5909939 L146.377322,82.5909939 C146.932898,82.5856857 147.467318,82.8017235 147.860246,83.1905604 C148.253174,83.5793973 148.471578,84.1083454 148.466372,84.6582996 L148.466372,98.1352226 C148.471578,98.6851768 148.253174,99.2141249 147.860246,99.6029618 C147.467318,99.9917987 146.932898,100.207836 146.377322,100.202528 L146.377322,100.201822 L146.377322,100.201822 Z M132.763217,83.4176114 C132.094506,83.4176114 131.51107,83.995749 131.51107,84.6576923 L131.51107,98.1346154 C131.51107,98.7965587 132.094505,99.3753037 132.762603,99.3753037 L146.377322,99.3753037 C147.046033,99.3753037 147.630082,98.7959514 147.630082,98.1346154 L147.630082,84.6582996 C147.630082,83.9963563 147.046033,83.4182187 146.377322,83.4182186 L132.763217,83.4182186 L132.763217,83.4176114 Z" id="形状"></path>
                    <path d="M140.854625,91.4374494 L145.607997,86.704251 C145.767769,86.5524026 145.858083,86.3426312 145.858083,86.1233805 C145.858083,85.9041298 145.767769,85.6943584 145.607997,85.5425101 C145.456097,85.3836963 145.244887,85.2937298 145.023948,85.2937298 C144.80301,85.2937298 144.5918,85.3836963 144.439899,85.5425101 L139.686527,90.274494 L134.933768,85.5425101 C134.781886,85.3838911 134.57081,85.2940503 134.350026,85.2940503 C134.129243,85.2940503 133.918167,85.3838911 133.766284,85.5425101 C133.606512,85.6943584 133.516198,85.9041298 133.516198,86.1233805 C133.516198,86.3426312 133.606512,86.5524026 133.766284,86.704251 L138.519043,91.4374494 L133.766284,96.1694332 C133.606123,96.3213199 133.515558,96.5313556 133.515558,96.7509109 C133.515558,96.9704663 133.606123,97.1805019 133.766284,97.3323886 C133.933155,97.4975708 134.182848,97.5813765 134.349106,97.5813765 C134.51659,97.5813765 134.766284,97.4975708 134.933768,97.3323886 L139.686527,92.5997975 L144.439899,97.3323886 C144.607384,97.4975708 144.857077,97.5813765 145.023335,97.5813765 C145.191433,97.5813765 145.440512,97.4975708 145.607997,97.3323886 C145.768158,97.1805019 145.858723,96.9704663 145.858723,96.7509109 C145.858723,96.5313556 145.768158,96.3213199 145.607997,96.1694332 L140.854625,91.4374494 L140.854625,91.4374494 Z M145.85769,109.12166 L133.266284,109.12166 C133.015364,109.12166 132.849106,108.95587 132.849106,108.706883 C132.849106,108.457895 133.015364,108.292105 133.265671,108.292105 L145.85769,108.292105 C146.107997,108.292105 146.274868,108.457287 146.274868,108.706883 C146.274868,108.95587 146.023948,109.12166 145.85769,109.12166 Z M145.85769,113.771053 L133.266284,113.771053 C133.015364,113.771053 132.849106,113.605263 132.849106,113.356883 C132.849106,113.107287 133.015364,112.941498 133.265671,112.941498 L145.85769,112.941498 C146.107997,112.941498 146.274868,113.107287 146.274868,113.356883 C146.274868,113.60587 146.023948,113.77166 145.85769,113.77166 L145.85769,113.771053 Z M145.85769,118.421053 L133.266284,118.421053 C133.015364,118.421053 132.849106,118.255263 132.849106,118.006275 C132.849106,117.75668 133.015364,117.591498 133.265671,117.591498 L145.85769,117.591498 C146.107997,117.591498 146.274868,117.75668 146.274868,118.006275 C146.274868,118.255263 146.023948,118.421053 145.85769,118.421053 Z M141.604931,50.5050608 L140.603705,50.5050608 C140.020269,50.5050608 139.520269,50.0064778 139.52027,49.425911 C139.52027,49.3421054 139.436834,49.2595143 139.352785,49.1769231 C138.602478,49.0099191 137.852172,48.6783401 137.185301,48.2635627 C137.101252,48.1803643 136.935608,48.1803643 136.935608,48.2635627 C136.737342,48.4623562 136.466894,48.5742526 136.184688,48.5742526 C135.902482,48.5742526 135.632034,48.4623562 135.433768,48.2635627 L134.766897,47.5997975 C134.565977,47.4017348 134.453031,47.1326092 134.453031,46.8519231 C134.453031,46.5712369 134.565977,46.3021113 134.766897,46.1040486 C134.850333,46.0214575 134.850333,45.9388664 134.766897,45.8550608 C134.349719,45.1912956 134.099413,44.4437247 133.849106,43.6967612 C133.849106,43.6135627 133.766284,43.5309718 133.599413,43.5309716 C133.014751,43.5309716 132.515364,43.0329959 132.515364,42.4512145 L132.515364,41.4552631 C132.515364,40.874089 133.015364,40.375506 133.599413,40.375506 C133.682235,40.375506 133.766284,40.2929149 133.849106,40.2103239 C134.015977,39.4621458 134.349106,38.7145749 134.766897,38.0508097 C134.850333,37.9682186 134.850333,37.8018218 134.766897,37.8018218 C134.56639,37.6039115 134.453699,37.335147 134.453699,37.0548583 C134.453699,36.7745696 134.56639,36.5058051 134.766897,36.3078948 L135.433768,35.6435222 C135.631869,35.4444247 135.902379,35.3323171 136.184688,35.3323171 C136.466998,35.3323171 136.737507,35.4444247 136.935608,35.6435222 C137.017816,35.7261133 137.101252,35.7261133 137.185301,35.6435222 C137.852172,35.2287448 138.603092,34.9791498 139.352785,34.7295546 C139.436834,34.7295546 139.520883,34.6469635 139.520883,34.4805668 C139.520883,33.9 140.020269,33.4008097 140.603705,33.4008097 L141.605545,33.4008097 C142.188367,33.4008097 142.688366,33.9 142.688366,34.4805668 C142.688366,34.5637652 142.771802,34.6469635 142.855851,34.7295546 C143.606771,34.8959514 144.356464,35.2275303 145.023335,35.6435222 C145.107384,35.7261133 145.273641,35.7261133 145.273641,35.6435222 C145.471637,35.4444606 145.742045,35.3323672 146.024255,35.3323672 C146.306464,35.3323672 146.576872,35.4444606 146.774868,35.6435222 L147.441739,36.3072875 C147.642433,36.5052221 147.755245,36.7741169 147.755245,37.0545546 C147.755245,37.3349924 147.642433,37.6038872 147.441739,37.8018218 C147.358303,37.8850203 147.358303,37.9682186 147.441739,38.0508097 C147.858916,38.7145749 148.109223,39.4627529 148.35953,40.2103239 C148.35953,40.292915 148.442352,40.3755062 148.609836,40.375506 C149.193272,40.375506 149.693272,40.8734817 149.693272,41.4546558 L149.693272,42.4518218 C149.693272,43.0323886 149.193272,43.5309716 148.609836,43.5309716 C148.526401,43.5309716 148.442352,43.6135627 148.35953,43.6967612 C148.192659,44.4437247 147.85953,45.1912956 147.441739,45.8550608 C147.358303,45.9388664 147.358303,46.1040486 147.441739,46.1040486 C147.642659,46.3021113 147.755605,46.5712369 147.755605,46.8519231 C147.755605,47.1326092 147.642659,47.4017348 147.441739,47.5997975 L146.774868,48.2635627 C146.57679,48.4624721 146.306413,48.5744597 146.024255,48.5744597 C145.742097,48.5744597 145.47172,48.4624721 145.273641,48.2635627 C145.190819,48.1803643 145.107384,48.1803643 145.023335,48.2635627 C144.356464,48.6783401 143.606157,48.9279352 142.855851,49.1769231 C142.771802,49.1769231 142.687753,49.2595143 142.687753,49.425911 C142.606158,50.0902834 142.188367,50.5050608 141.604931,50.5050608 L141.604931,50.5050608 Z M137.101866,47.5159919 C137.268737,47.5159919 137.519043,47.5997975 137.685301,47.6817814 C138.26935,48.0139677 138.936834,48.3455467 139.603092,48.4293523 C140.103705,48.5125507 140.436834,48.927328 140.436834,49.4253037 C140.436834,49.5923077 140.520883,49.6742915 140.68714,49.6742915 L141.687753,49.6742915 C141.855238,49.6742915 141.938673,49.5923077 141.938673,49.4253037 C141.938673,48.927328 142.271802,48.5125506 142.771802,48.428745 C143.439286,48.2635627 144.106771,48.0139676 144.690206,47.6817814 C145.10677,47.4327936 145.691433,47.515992 146.023948,47.8481782 C146.107997,47.9313766 146.274868,47.9313766 146.35769,47.8481782 L147.024561,47.1844129 C147.108532,47.0890525 147.108532,46.9469799 147.024561,46.8516195 C146.691432,46.5200405 146.607383,45.9388664 146.858917,45.5234818 C147.192046,44.942915 147.525788,44.2785426 147.609223,43.6135627 C147.692045,43.1155871 148.109223,42.7834008 148.609836,42.7834008 C148.775481,42.7834008 148.860143,42.7008097 148.860143,42.5344129 L148.860143,41.5384616 C148.860143,41.3714575 148.776094,41.2894737 148.609836,41.2894737 C148.109223,41.2894737 147.692046,40.9566803 147.60861,40.4587044 C147.441739,39.7949392 147.191432,39.1299595 146.858303,38.5493927 C146.60861,38.1340081 146.691432,37.552834 147.024561,37.2206477 C147.108176,37.1253862 147.108176,36.983723 147.024561,36.8884616 L146.35769,36.224089 C146.274868,36.1414979 146.107997,36.1414979 146.023948,36.224089 C145.690819,36.5568825 145.107384,36.6394736 144.690206,36.3904859 C144.106771,36.0576924 143.439286,35.7261135 142.771802,35.6435222 C142.271802,35.5603238 141.938673,35.1455465 141.938673,34.6463563 C141.938673,34.4805669 141.855238,34.3973684 141.687753,34.3973684 L140.686527,34.3973684 C140.520883,34.3973684 140.437447,34.4805668 140.437447,34.6469635 C140.437447,35.1449392 140.103705,35.5603238 139.603705,35.6435222 C138.936834,35.8093116 138.26935,36.0582996 137.685301,36.3904859 C137.268123,36.6394737 136.684074,36.5568826 136.350946,36.224089 C136.268124,36.1414979 136.100639,36.1414979 136.017203,36.224089 L135.350333,36.8884616 C135.267506,36.9840133 135.267506,37.125096 135.350333,37.2206477 C135.683461,37.5534412 135.766897,38.134008 135.517204,38.5493927 C135.183461,39.1299595 134.850333,39.7943319 134.766897,40.4587044 C134.682848,40.9566801 134.266897,41.2894737 133.765671,41.2894737 C133.599413,41.2894737 133.515977,41.3714575 133.515977,41.5384616 L133.515977,42.5344129 C133.515977,42.7008097 133.599413,42.7834008 133.766284,42.7834008 C134.266897,42.7834008 134.682848,43.1155871 134.766284,43.6135627 C134.933768,44.2785425 135.183461,44.942915 135.517204,45.5234818 C135.76751,45.9382592 135.682848,46.5194332 135.350333,46.8516195 C135.267154,46.9472725 135.267154,47.08876 135.350333,47.1844129 L136.017203,47.8481782 C136.100639,47.9313766 136.268124,47.9313766 136.350946,47.8481782 C136.517817,47.5991903 136.768123,47.5159919 137.101252,47.5159919 L137.101866,47.5159919 L137.101866,47.5159919 Z" id="形状"></path>
                    <path d="M140.877938,46.1538472 C139.839715,46.1546088 138.844231,45.7446597 138.112908,45.0151822 C137.378984,44.2829091 136.96802,43.2926452 136.969957,42.2611336 C136.968345,41.2297454 137.379523,40.2397174 138.113522,39.5076923 C138.844695,38.7783644 139.839927,38.3684277 140.877938,38.3690276 C141.915962,38.3683602 142.91122,38.7783072 143.642354,39.5076923 C144.376241,40.2397415 144.787214,41.2298061 144.785305,42.2611336 C144.78708,43.292435 144.376127,44.2824509 143.642354,45.0145749 C142.911282,45.7441257 141.916037,46.1542862 140.877938,46.1538472 L140.877938,46.1538472 Z M140.877938,39.2799595 C139.215362,39.2799595 137.800638,40.6882591 137.800638,42.3437247 C137.800638,44.0004048 139.214748,45.4087044 140.877938,45.4087044 C142.540514,45.4087044 143.954624,43.9997975 143.954624,42.3437247 C143.954624,40.6876519 142.540514,39.2799595 140.877938,39.2799595 Z M127.408004,36.2168064 L126.825183,36.2168064 C126.626214,36.2175159 126.43527,36.1391988 126.295121,35.9993927 C126.154296,35.8589992 126.075711,35.6688956 126.076717,35.4710527 C125.635023,35.3779702 125.213009,35.2096815 124.829478,34.9736842 C124.579785,35.3046558 124.081012,35.3046558 123.74911,34.9736842 L123.333773,34.5601214 C123.166288,34.394332 123.083466,34.2291498 123.083466,33.9795546 C123.083466,33.7323886 123.166288,33.5665992 123.333159,33.4008097 C123.083466,33.0692307 122.917209,32.6550606 122.833773,32.1589069 C122.501258,32.1589069 122.085911,31.827328 122.085911,31.4131579 L122.085911,30.8338056 C122.084915,30.6359628 122.1635,30.4458591 122.304325,30.3054656 C122.444203,30.1657896 122.635613,30.0874494 122.833773,30.0880567 C122.917209,29.674494 123.083466,29.2603239 123.333159,28.8461539 C123.166288,28.7635627 123.083466,28.5977733 123.083466,28.3487855 C123.083466,28.1010122 123.166288,27.9352228 123.333159,27.7694332 L123.748497,27.3552631 C124.081625,27.0242915 124.579785,27.0242915 124.829478,27.3552631 C125.162606,27.1068826 125.577944,26.9417004 126.076717,26.858502 C126.075874,26.6608692 126.154447,26.4710139 126.295121,26.3307693 C126.435612,26.1910932 126.62641,26.1121458 126.824569,26.1133464 L127.407391,26.1133464 C127.606164,26.1127529 127.796961,26.1910931 127.937452,26.3307693 C128.077943,26.4704454 128.15647,26.6611336 128.155857,26.8591093 C128.597302,26.9523659 129.019218,27.1202049 129.403096,27.3552631 C129.652789,27.0242915 130.151562,27.0242915 130.483463,27.3552631 L130.898801,27.7688259 C131.231929,28.1010122 131.231929,28.5977732 130.898801,28.8461539 C131.149107,29.1771255 131.315978,29.5912956 131.3988,30.0880567 C131.597573,30.0874494 131.788371,30.1657896 131.928862,30.3054656 C132.068739,30.4451417 132.147266,30.6358299 132.146656,30.8338056 L132.146656,31.4131579 C132.147266,31.6111336 132.068739,31.8018218 131.928862,31.941498 C131.787757,32.0811741 131.597573,32.1595143 131.3988,32.1589069 C131.315978,32.5724697 131.149107,32.9866397 130.899414,33.4002025 C131.231929,33.648583 131.231929,34.1459515 130.899414,34.4775303 L130.484077,34.8904859 C130.150948,35.2226722 129.652789,35.2226722 129.403096,34.8904859 C129.071194,35.1394737 128.65463,35.304656 128.155857,35.3884616 C128.238679,35.8852228 127.822728,36.2161944 127.407391,36.2161944 L127.407391,36.2168064 L127.408004,36.2168064 Z M124.912913,34.1459514 C125.079171,34.1459514 125.162606,34.1459514 125.328251,34.2291498 C125.661379,34.394332 125.993895,34.5601214 126.327023,34.6427125 C126.659538,34.7253037 126.908618,35.0562753 126.908618,35.3884616 L127.408004,35.3046558 C127.324569,34.9736842 127.573648,34.6427125 127.989599,34.5601214 C128.322728,34.4775303 128.738065,34.3111336 128.987758,34.1459514 C129.320274,33.9795546 129.736224,33.9795546 129.98469,34.2291498 L130.317819,33.8149797 C130.06874,33.648583 129.98469,33.2350203 130.234384,32.9040486 C130.401868,32.5724697 130.567512,32.2421054 130.650334,31.9099191 C130.733156,31.5789475 130.98285,31.3299596 131.3988,31.3299595 L131.3988,30.8338056 C131.066285,30.9170041 130.733156,30.6674089 130.650334,30.2544535 C130.567512,29.9234818 130.401255,29.5087044 130.234997,29.2603239 C130.06874,28.9293523 130.06874,28.5151822 130.317819,28.2661944 L129.901868,27.9358299 C129.736224,28.1836033 129.320274,28.2668016 128.987758,28.0178137 C128.65463,27.8526315 128.322728,27.6862348 127.989599,27.604251 C127.657084,27.5216599 127.408004,27.1906882 127.408004,26.858502 L126.908618,26.9423077 C126.99144,27.2732793 126.742361,27.604251 126.327023,27.6862348 C125.993895,27.7694332 125.577944,27.9358299 125.328251,28.1010122 C124.996349,28.2668016 124.579785,28.2668016 124.330705,28.0178137 L123.99819,28.4319838 C124.247883,28.5983805 124.330705,29.0119433 124.081625,29.342915 C123.915368,29.6738867 123.74911,30.0048583 123.666288,30.3364373 C123.572314,30.671429 123.268892,30.9067859 122.917822,30.9170041 L123.000644,31.4131579 C123.333159,31.3299595 123.666288,31.5789473 123.74911,31.9925101 C123.831319,32.3234817 123.99819,32.7382591 124.164447,32.9866397 C124.330705,33.3176114 124.330705,33.7317814 124.081625,33.980162 L124.496963,34.3111336 C124.496963,34.2291498 124.663834,34.1459514 124.9123,34.1459514 L124.912913,34.1459514 L124.912913,34.1459514 Z" id="形状"></path>
                    <path d="M127.332544,33.3625506 C125.988408,33.3618816 124.898654,32.2839726 124.896962,30.9534413 C124.897977,29.6223372 125.98783,28.5435149 127.332544,28.5425101 C128.677118,28.543849 129.766774,29.6224757 129.768126,30.9534413 C129.766434,32.2839726 128.676681,33.3618817 127.332544,33.3625506 L127.332544,33.3625506 Z M127.332544,29.372672 C126.492667,29.372672 125.736226,30.0382591 125.736226,30.9534413 C125.736226,31.8674089 126.408618,32.5323886 127.332544,32.5323886 C128.257084,32.5323886 128.928863,31.8674089 128.928863,30.9534413 C128.928863,30.0382591 128.172421,29.3732793 127.332544,29.3732793 L127.332544,29.372672 Z M193.445401,58.2995952 L190.588347,58.2995952 C190.336814,58.2995952 190.168716,58.1331984 190.168716,57.8842106 C190.168716,57.6346154 190.336814,57.4688259 190.588347,57.4688259 L193.445401,57.4688259 C193.696935,57.4688259 193.865033,57.6346153 193.865033,57.8842106 C193.865033,58.1331984 193.696322,58.2995952 193.445401,58.2995952 Z M147.746033,58.2995952 L146.654009,58.2995952 C146.401248,58.2995952 146.23315,58.1331984 146.23315,57.8842106 C146.23315,57.6346154 146.401248,57.4688259 146.653395,57.4688259 L147.74542,57.4688259 C147.997567,57.4688259 148.165665,57.6346153 148.165665,57.8842106 C148.165665,58.1331984 147.997567,58.2995952 147.746033,58.2995952 Z M188.741109,58.2995952 L182.943565,58.2995952 C182.767087,58.3028945 182.604176,58.2062312 182.523933,58.0506073 C181.431909,55.3074899 178.742953,53.5627531 175.803691,53.5627531 C174.039274,53.5627531 172.358907,54.2265183 171.014736,55.3074899 C170.9313,55.3900811 170.763202,55.3900811 170.678539,55.3900809 C170.511055,55.3900809 170.427006,55.3074898 170.427006,55.1410931 C169.670564,53.2293521 167.823326,51.9819838 165.722713,51.9819838 C163.285904,51.9819838 161.186519,53.7285425 160.682224,56.1382591 C160.682224,56.3046558 160.51474,56.4716599 160.346642,56.4716599 C160.178543,56.4716599 160.010445,56.4716599 159.926396,56.3040486 C159.404995,55.6306548 158.59942,55.2323919 157.742348,55.2242915 C156.313514,55.2242915 155.054619,56.3878542 155.054619,57.8010122 C155.054619,58.05 154.885294,58.2163967 154.634374,58.2163967 L149.005542,58.2163967 C148.754008,58.2163967 148.58591,58.0506073 148.58591,57.8010122 C148.58591,57.5520243 148.754008,57.3856276 149.005542,57.3856276 L154.214129,57.3856276 C154.465662,55.7234818 155.977932,54.392915 157.741735,54.392915 C158.572446,54.4014384 159.374378,54.6953087 160.010445,55.2242915 C160.766273,52.8139676 163.034371,51.1512145 165.638664,51.1512145 C167.822712,51.1512145 169.839276,52.3979757 170.847251,54.3097166 C172.276085,53.2293523 173.955225,52.6475708 175.719028,52.6475708 C178.911665,52.6475708 181.767492,54.475506 183.111663,57.3850203 L188.656446,57.3850203 C188.90798,57.3850203 189.076692,57.5520243 189.076692,57.8010122 C189.076692,58.05 188.992642,58.2989878 188.741109,58.2989878 L188.741109,58.2995952 Z M83.9847088,47.9927125 L82.1374703,47.9927125 C81.8859366,47.9927125 81.7178384,47.8263158 81.7178384,47.577328 C81.7178384,47.3271255 81.885323,47.1619433 82.1374703,47.1619433 L83.9853223,47.1619433 C84.2368559,47.1619433 84.404954,47.3271255 84.404954,47.577328 C84.404954,47.8263158 84.1534204,47.9927125 83.9853223,47.9927125 L83.9847088,47.9927125 Z M80.877348,47.9927125 L74.6607861,47.9927125 C74.4092525,47.9927125 74.2411543,47.8263158 74.2411543,47.577328 C74.2411543,47.3271255 74.4086388,47.1619433 74.6607861,47.1619433 L80.877348,47.1619433 C81.1288816,47.1619433 81.2969798,47.3271255 81.2969798,47.577328 C81.2969798,47.8263158 81.1294953,47.9927125 80.877348,47.9927125 Z M71.9724436,47.9927125 L69.6202973,47.9927125 C69.5356348,47.9927125 69.3687636,47.9101214 69.2841011,47.8263158 C69.200052,47.7431174 69.200052,47.6599191 69.200052,47.4941295 C69.200052,45.8313765 67.8564943,44.5020243 66.2595624,44.5020243 C65.0847163,44.5020243 63.9920787,45.1670041 63.572447,46.2473684 C63.4917866,46.4031853 63.3284263,46.4998323 63.1515882,46.4963563 C62.9751498,46.4995099 62.8123104,46.4028893 62.7319564,46.2473684 C61.8914659,44.169838 59.8749023,42.8392712 57.6074186,42.8392712 C56.6834926,42.8392712 55.8430021,43.0882591 55.0037386,43.504251 C54.9196895,43.5874494 54.7509779,43.5874494 54.5834934,43.504251 C54.4795944,43.4097491 54.3941257,43.2971501 54.3313464,43.1720648 C53.7430031,39.3473685 50.4669307,36.5222673 46.5190795,36.5222672 C42.1503695,36.5222672 38.5387145,40.0123481 38.5387145,44.4188259 C38.5387145,45.4159919 38.7061991,46.4137651 39.1258309,47.4109311 C39.20988,47.5779352 39.1258309,47.6599189 39.1258309,47.8263158 C39.1258309,47.9927125 38.9577328,47.9927125 38.7902482,47.9927125 L32.3215391,47.9927125 C32.0700055,47.9927125 31.9019074,47.8263158 31.9019074,47.577328 C31.9019074,47.3271255 32.0700055,47.1619434 32.3215391,47.1619433 L38.2019049,47.1619433 C37.9497577,46.2473684 37.7822732,45.4159919 37.7822732,44.4188259 C37.7822732,39.5975708 41.7307378,35.6902834 46.6031286,35.6902834 C50.803127,35.6902834 54.3313464,38.5172065 55.1712233,42.507085 C55.9391958,42.1748861 56.768714,42.0048704 57.6068051,42.0078948 C59.9595648,42.0078948 62.059564,43.2552631 63.1515882,45.1670041 C63.8233671,44.2524292 65.0000538,43.6706477 66.2595624,43.6706477 C68.276126,43.6706477 69.8724444,45.1670041 70.039929,47.0775303 L71.9724436,47.0775303 C72.2239773,47.0775303 72.3920753,47.2457489 72.3920753,47.4941295 C72.3920753,47.7431174 72.2239773,47.9921052 71.9724436,47.9921052 L71.9724436,47.9927125 Z" id="形状"></path>
                </g>
            </g>
        </g>
    </g>
</svg>