<?xml version="1.0" encoding="UTF-8"?>
<svg width="80px" height="24px" viewBox="0 0 80 24" version="1.1" xmlns="http://www.w3.org/2000/svg" xmlns:xlink="http://www.w3.org/1999/xlink">
    <title>LOGO</title>
    <g id="概况（暂缓" stroke="none" stroke-width="1" fill="none" fill-rule="evenodd">
        <g id="首页概况备份-2" transform="translate(-16.000000, -14.000000)" fill="#FFFFFF" fill-rule="nonzero">
            <g id="LOGO" transform="translate(16.000000, 14.000000)">
                <path d="M48.8850772,0.432246998 C49.0381844,0.457982025 49.180895,0.526483114 49.296741,0.629845626 L49.1897084,0.926243568 C48.7740028,1.50275149 48.4439903,2.13643093 48.2099485,2.80754717 L47.1972556,5.5780446 L50.1694683,5.5780446 L50.168,5.582 L54.5001715,5.58216123 L50.5111492,15.9272727 C50.2024014,16.7794168 49.4943396,19.3687822 49.4943396,19.3687822 L66.2861063,19.3811321 L65.809,19.887 L43.379,19.887 L43.2,19.3811321 L46.3286449,19.3811321 L50.3835334,8.46380789 L47.3166381,8.46380789 L47.317,8.459 L46.1557461,8.45969125 L41.7921098,20.4349914 C41.3447684,22.2188679 39.2150943,23.1794168 35.4030875,23.3166381 L36.4116638,20.1344768 C38.4699828,20.1344768 38.8075472,19.8504288 38.9598628,19.2576329 L42.8871355,8.46792453 L36.0699828,8.46792453 L31.7433962,20.3444254 L28.6765009,20.3444254 L29.1787307,18.961235 L26.1118353,18.961235 L25.535506,20.5461407 L25.524,20.546 L24.3005146,23.8847341 C20.9825043,23.2960549 17.4051458,21.6164666 15.8367067,20.4926244 C13.2194426,21.9901357 10.4317046,23.1677028 7.53344768,24 L5.99382504,21.4271012 C8.34030875,20.9660377 11.3454545,19.780446 14.1077187,18.3190395 C13.1642681,16.634358 12.7686078,14.6977807 12.9756432,12.7780446 C11.1766724,16.0713551 7.70634648,19.8092624 2.93516295,23.3084048 L0.53516295,21.5300172 C6.47958834,17.7042882 10.8157804,12.2264151 13.5437393,5.09639794 L0,5.10051458 L0.2,4.548 L13.5725557,4.54888508 L13.5725557,4.27718696 L0.298,4.277 L0.504,3.709 L14.115952,3.70909091 L14.115952,3.4373928 L0.603,3.437 L0.809,2.869 L14.4823328,2.86929674 L14.4823328,2.59759863 L0.908,2.597 L1.04562607,2.21886792 L27.1492281,2.21886792 C25.8044597,4.46106346 24.348542,6.73756432 22.7814751,9.0483705 L25.4572899,9.0483705 C23.71906,12.5036021 21.3975057,15.6328957 18.5948542,18.2984563 C19.5295909,19.083308 21.1372367,19.5686882 22.8660421,19.9612042 L29.2404803,2.4329331 L38.251801,2.4329331 L37.0950257,5.59862779 L43.9286449,5.59862779 L45.8181818,0.432246998 L48.8850772,0.432246998 Z M66.1955403,21.6535163 C65.7348592,21.6535163 65.5131724,21.4353041 65.5304799,20.9988798 L66.0356631,20.9999771 C66.0215915,21.1996039 66.084004,21.2871355 66.2572899,21.2871355 C66.4284031,21.2871355 66.517011,21.18756 66.5869719,21.0002345 L67.1006315,20.9989835 C66.9918463,21.3946656 66.6203034,21.6743813 66.1955403,21.6535163 Z M68.4679245,21.6370497 C67.9110557,21.6370497 67.6153876,21.4131633 67.5833172,20.9989454 L68.1090729,20.998367 C68.1163998,21.0374244 68.12624,21.0761284 68.1385935,21.1142367 C68.2254364,21.2419201 68.3764317,21.3102653 68.5296741,21.2912521 C68.6960705,21.3041592 68.8589621,21.2386981 68.9701544,21.1142367 C68.9967078,21.0770279 69.0208683,21.0383553 69.0425509,20.9984563 L69.5690618,20.9989965 C69.3774951,21.4134044 68.9420966,21.6783027 68.4679245,21.6370497 Z M64.761,20.998 L64.1866209,21.6082333 L64.0202412,21.6087654 C63.9930227,21.6088515 63.9625936,21.6089476 63.9290499,21.6090529 L63.6911791,21.6097939 C62.3682364,21.6138824 58.587169,21.6250613 54.6866733,21.6319072 L53.8787372,21.633258 C53.4746842,21.6338987 53.0710793,21.6344847 52.6705113,21.6350032 L51.874192,21.6359465 C51.7424027,21.6360875 51.6111427,21.63622 51.4805078,21.6363437 L50.7049669,21.6369751 C50.577216,21.6370612 50.450282,21.6371376 50.3242609,21.6372036 L48.1751749,21.6371783 C48.0635594,21.6371039 47.9534321,21.6370163 47.8448888,21.6369151 L47.2134046,21.6361413 C45.2787566,21.6331512 43.9851801,21.6249194 43.9903945,21.6082333 L43.773,20.998 L64.761,20.998 Z M75.173928,21.6370497 C74.645576,21.6489899 74.333674,21.4228352 74.2492084,20.9993929 L74.7921898,20.9997953 C74.8549191,21.1943732 75.002475,21.2912521 75.2356775,21.2912521 C75.4693584,21.2912521 75.6480568,21.1939753 75.7767227,20.9985967 L76.3410054,20.9985338 C76.1157499,21.4272608 75.70783,21.6249842 75.173928,21.6370497 Z M73.272,20.998 L73.1608919,21.6288165 L72.6504288,21.6288165 L72.761,20.998 L73.272,20.998 Z M70.7567753,21.6246998 C70.1584614,21.639473 69.9345717,21.4189885 69.9661966,20.9989191 L70.5074027,20.9988831 C70.5193855,21.1718404 70.629954,21.258319 70.8391081,21.258319 C71.1189052,21.258319 71.2910454,21.1645533 71.3523389,20.9993497 L71.8644341,20.9992221 C71.727611,21.4013773 71.357389,21.6098699 70.7567753,21.6246998 Z M78.473,20.998 L78.1708405,21.6123499 L77.7591767,21.6123499 L77.678,20.998 L78.473,20.998 Z M77.242,20.998 L77.1375643,21.6 L76.6641509,21.6 L76.769,20.998 L77.242,20.998 Z M79.399,20.998 L79.2946827,21.6 L78.8212693,21.6 L78.926,20.998 L79.399,20.998 Z M65.552,20.159 L65.017,20.727 L43.677,20.727 L43.475,20.159 L65.552,20.159 Z M67.248,20.159 L67.148,20.727 L66.648,20.727 L66.757,20.159 L67.248,20.159 Z M68.206,20.159 L68.1385935,20.5379074 C68.1184929,20.599914 68.1050463,20.663498 68.0982537,20.7276151 L67.596,20.727 L67.695,20.159 L68.206,20.159 Z M69.753,20.159 L69.654,20.727 L69.1468448,20.7279256 C69.1619268,20.6657926 69.1717199,20.6022311 69.1759863,20.5379074 L69.242,20.159 L69.753,20.159 Z M71.135506,20.2044597 L71.1972556,20.2044597 C71.668077,20.3009781 71.9076885,20.4752396 71.91609,20.7272441 L71.2803511,20.727151 C71.2096048,20.6800118 71.0997986,20.6473861 70.9543739,20.6202401 C70.9258217,20.6162947 70.8980501,20.6079632 70.8720412,20.5955403 C70.4950603,20.5059301 70.2781182,20.3606542 70.2159921,20.1597126 L70.9389138,20.1594504 C70.9914533,20.1788347 71.0565104,20.1936384 71.135506,20.2044597 Z M73.421,20.159 L73.32,20.727 L72.808,20.727 L72.908,20.159 L73.421,20.159 Z M74.786964,20.4349914 C74.7682837,20.5431812 74.7584333,20.6410695 74.7574405,20.7286842 L74.2258334,20.7283404 C74.2267502,20.636836 74.2353835,20.5389692 74.251801,20.4349914 C74.2718724,20.3370822 74.2959025,20.2449946 74.3239052,20.1587286 L74.8550971,20.1589778 C74.8276991,20.2422831 74.8049442,20.3343023 74.786964,20.4349914 Z M76.5118353,20.4349914 C76.4971461,20.5399144 76.4763062,20.6373494 76.4496137,20.7275353 L75.9036918,20.728292 C75.9329713,20.6407774 75.9572428,20.5430198 75.9766724,20.4349914 C75.9947992,20.3342063 76.0051358,20.2419777 76.0077271,20.158418 L76.5359163,20.1590963 C76.53358,20.2452562 76.5255232,20.3372213 76.5118353,20.4349914 Z M77.389,20.159 L77.29,20.727 L76.816,20.727 L76.915,20.159 L77.389,20.159 Z M78.002,20.159 L78.066,20.727 L77.642,20.727 L77.568,20.159 L78.002,20.159 Z M78.888,20.159 L78.607,20.727 L78.202,20.727 L78.474,20.159 L78.888,20.159 Z M79.545,20.159 L79.446,20.727 L78.974,20.727 L79.073,20.159 L79.545,20.159 Z M67.4099485,19.2493997 L67.296,19.887 L66.809,19.887 L66.9036021,19.3975986 L67.4099485,19.2493997 Z M68.3691252,19.2493997 L68.255,19.887 L67.743,19.887 L67.8545455,19.2493997 L68.3691252,19.2493997 Z M69.9128645,19.2493997 L69.801,19.887 L69.29,19.887 L69.4024014,19.2493997 L69.9128645,19.2493997 Z M71.3248714,19.1629503 C71.8310654,19.1875759 72.0576428,19.429075 72.0046035,19.8874474 L71.521,19.887 L71.5241424,19.8405875 C71.5223413,19.657783 71.4133791,19.5663808 71.1972556,19.5663808 C70.9461407,19.5663808 70.7855918,19.6857633 70.7608919,19.8751286 L70.759,19.887 L70.22,19.887 L70.2384196,19.8251358 C70.3805317,19.4170383 70.7437393,19.1931389 71.3248714,19.1629503 Z M74.2806175,19.2493997 L74.2106346,19.6610635 L73.5108062,19.6610635 L73.47,19.887 L72.956,19.887 L72.9962264,19.6610635 L72.2963979,19.6610635 L72.3663808,19.2493997 L74.2806175,19.2493997 Z M75.606175,19.2 C76.1559293,19.2 76.4536367,19.4291335 76.5215205,19.8874004 L75.9814635,19.8868019 C75.9243892,19.6747037 75.7767313,19.5663808 75.5403087,19.5663808 C75.3034877,19.5663808 75.1149726,19.6735596 74.9802482,19.886089 L74.4351931,19.8863764 C74.6676401,19.4287921 75.0568303,19.2 75.606175,19.2 Z M77.8991424,19.2370497 L77.972,19.887 L77.532,19.887 L77.4915952,19.5787307 L77.437,19.887 L76.962,19.887 L77.0758148,19.2370497 L77.8991424,19.2370497 Z M79.7063465,19.2370497 L79.593,19.887 L79.121,19.887 L79.1753002,19.5787307 L79.022,19.887 L78.604,19.887 L78.915952,19.2370497 L79.7063465,19.2370497 Z M71.8559177,0 C69.9134554,1.79309325 67.8784216,3.4832294 65.7591767,5.06346484 C65.9091203,5.23935078 66.0960831,5.37992428 66.3066895,5.47512864 L69.6946827,5.47512864 L65.7674099,16.264837 C65.5423959,16.953295 65.0145662,17.5008424 64.3348199,17.7509434 C63.6843911,18.0802744 62.5234991,18.2778731 60.8521441,18.3437393 L61.6096055,15.8737564 C63.4456261,15.9725557 63.0051458,14.8734134 63.0051458,14.8734134 L60.6298456,14.8734134 L59.5265866,17.8250429 L56.64494,17.8250429 L57.7234991,14.8569468 L55.4469983,14.8569468 L54.4013722,17.7385935 L51.4332762,17.7385935 L55.8998285,5.46277873 L61.0497427,5.46277873 L59.1972556,4.57358491 L61.4984563,2.87341338 C62.0285043,3.05786078 62.5410063,3.2893133 63.0298456,3.56500858 C63.2986678,3.6409395 63.5603748,3.74011268 63.8120069,3.86140652 L65.4586621,2.57701544 L56.8590051,2.57701544 L57.7975986,0 L71.8559177,0 Z M31.8092624,11.715952 L28.8411664,11.715952 L27.1121784,16.470669 L30.0802744,16.470669 L31.8092624,11.715952 Z M21.9457976,5.10051458 L17.1951973,5.10051458 L16.3307033,7.47581475 C15.8888508,11.7680961 16.0617496,14.7389365 16.8493997,16.3883362 C18.181264,15.0403544 19.3564785,13.5461334 20.3526587,11.9341338 L17.1828473,11.9341338 C17.3475129,11.6953688 17.574422,11.3859623 17.8635746,11.0059142 L18.1734751,10.602319 C18.2836913,10.4599383 18.4008233,10.3097084 18.5248714,10.1516295 C20.1084048,7.97255575 21.2487136,6.28885077 21.9457976,5.10051458 Z M39.5855918,9.61646655 L39.6596913,14.8816467 C39.6596913,14.8816467 36.238765,16.1413379 36.2634648,16.0713551 L36.2305317,10.7197256 L39.5855918,9.61646655 Z M58.9955403,11.3866209 L56.7190395,11.3866209 L56.212693,12.773928 L58.4891938,12.773928 L58.9955403,11.3866209 Z M64.3471698,11.3866209 L61.877187,11.3866209 L61.3749571,12.773928 L63.84494,12.773928 L64.3471698,11.3866209 Z M34.2874786,5.18284734 L31.2205832,5.18284734 L29.7632933,9.24185249 L32.8096055,9.24185249 L34.2874786,5.18284734 Z M60.329331,7.72281304 L58.0487136,7.72281304 L57.509434,9.20891938 L59.7859348,9.20891938 L60.329331,7.72281304 Z M65.6809605,7.72281304 L63.2109777,7.72281304 L62.6716981,9.20891938 L65.141681,9.20891938 L65.6809605,7.72281304 Z M54.3478559,0.177015437 L55.0765009,4.7464837 L51.6391081,4.81646655 L51.025729,1.30909091 L54.3478559,0.177015437 Z" id="形状"></path>
            </g>
        </g>
    </g>
</svg>