<svg width="20" height="20" viewBox="0 0 20 20" fill="none" xmlns="http://www.w3.org/2000/svg">
<g clip-path="url(#clip0_1690_14645)">
<path d="M14.6667 16.0001L15.797 12.8918C15.9127 12.5736 15.7715 12.2192 15.4686 12.0677L10.2982 9.48248C10.1105 9.38865 9.88957 9.38865 9.70191 9.48248L4.53148 12.0677C4.2286 12.2192 4.08737 12.5736 4.20309 12.8918L5.33337 16.0001" stroke="white" stroke-linejoin="round"/>
<path d="M13.6667 6.66675H6.33341C5.96521 6.66675 5.66675 6.96521 5.66675 7.33341V11.3334L9.72071 9.46235C9.89798 9.38055 10.1022 9.38055 10.2794 9.46235L14.3334 11.3334V7.33341C14.3334 6.96521 14.0349 6.66675 13.6667 6.66675Z" stroke="white" stroke-linecap="round" stroke-linejoin="round"/>
<path d="M11.6666 6.66659V3.99992C11.6666 3.63173 11.3681 3.33325 10.9999 3.33325H8.99992C8.63172 3.33325 8.33325 3.63173 8.33325 3.99992V6.66659" stroke="white" stroke-linecap="round" stroke-linejoin="round"/>
<path d="M10 12.6667V15.3334" stroke="white" stroke-linecap="round"/>
<path d="M3.33325 16.6667C4.66659 16.6667 4.66659 16 5.66659 16C6.66659 16 6.66659 16.6667 7.66659 16.6667C8.66658 16.6667 8.83325 16 9.99992 16C11.1666 16 11.3333 16.6667 12.3333 16.6667C13.3333 16.6667 13.3333 16 14.3333 16C15.3333 16 15.3333 16.6667 16.6666 16.6667" stroke="white" stroke-linecap="round" stroke-linejoin="round"/>
</g>
<defs>
<clipPath id="clip0_1690_14645">
<rect width="16" height="16" fill="white" transform="translate(2 2)"/>
</clipPath>
</defs>
</svg>
