<svg width="20" height="20" viewBox="0 0 20 20" fill="none" xmlns="http://www.w3.org/2000/svg">
<path d="M9.00004 14.6666C12.1296 14.6666 14.6667 12.1295 14.6667 8.99992C14.6667 5.87032 12.1296 3.33325 9.00004 3.33325C5.87044 3.33325 3.33337 5.87032 3.33337 8.99992C3.33337 12.1295 5.87044 14.6666 9.00004 14.6666Z" stroke="white" stroke-width="1.33333"/>
<path d="M13.0739 13.074L15.9023 15.9024" stroke="white" stroke-width="1.33333" stroke-linecap="square"/>
<path d="M7.69434 8.06348V10.1719C7.81287 10.3304 7.93091 10.4504 8.0498 10.5322L8.14746 10.5908C8.24895 10.6448 8.36056 10.6848 8.48242 10.7109H8.48145C8.64581 10.7422 8.86135 10.7616 9.12793 10.7695H9.12695C9.29032 10.7735 9.53635 10.7764 9.86426 10.7764C10.4914 10.7764 11.0688 10.7623 11.5957 10.7344L11.6562 10.7305L11.6475 10.791L11.5518 11.4219L11.5449 11.4619L11.5049 11.4639C10.9599 11.4919 10.3766 11.5059 9.75586 11.5059C9.42783 11.5059 9.1831 11.504 9.02246 11.5C8.72141 11.492 8.47839 11.4721 8.29492 11.4395C8.10886 11.4063 7.93878 11.3398 7.78516 11.2402C7.6426 11.1478 7.50247 11.0127 7.36328 10.8389L6.66504 11.5156L6.62598 11.5537L6.59082 11.5117L6.1709 10.9951L6.1416 10.959L6.17578 10.9277L6.98242 10.1729V8.79395H6.30957V8.06348H7.69434ZM11.5459 7.75781V8.45801H9.69629C9.43814 8.97237 9.22111 9.34459 9.0498 9.5752L10.291 9.49707C10.1799 9.29422 10.069 9.11003 9.95508 8.94629L9.92383 8.90137L9.9707 8.875L10.5049 8.56836L10.5459 8.54492L10.5713 8.58398C10.7042 8.78538 10.8636 9.05135 11.0479 9.37988C11.232 9.70824 11.3691 9.97372 11.458 10.1758L11.4736 10.2119L11.4414 10.2363L10.9199 10.626L10.8682 10.665L10.8438 10.6045C10.7921 10.4753 10.7325 10.3447 10.667 10.2119C10.0267 10.2476 9.38442 10.2927 8.74023 10.3477C8.6928 10.3516 8.57118 10.3638 8.375 10.3838L8.37402 10.3828C8.33447 10.391 8.27396 10.3996 8.19434 10.4072L8.15332 10.4121L8.1416 10.3711L7.97363 9.77148L7.96289 9.7334L7.99805 9.71387C8.08992 9.6641 8.15832 9.6102 8.20508 9.55273C8.25126 9.4959 8.28346 9.45694 8.2998 9.43945C8.38203 9.3258 8.47495 9.17577 8.57812 8.98926C8.67322 8.82019 8.76282 8.64286 8.84863 8.45801H7.87598V7.75781H11.5459ZM7.09766 6.17676C7.21984 6.29898 7.36568 6.47075 7.53418 6.69141H7.5332C7.70177 6.90814 7.84503 7.10488 7.96191 7.28223L7.98535 7.31836L7.95312 7.34668L7.44336 7.80859L7.39551 7.85254L7.36523 7.79492C7.29108 7.65051 7.16483 7.45716 6.98535 7.21387V7.21289C6.80999 6.96979 6.65933 6.77956 6.5332 6.6416L6.49707 6.60254L6.53906 6.56934L7.03027 6.17285L7.06543 6.14453L7.09766 6.17676ZM11.2578 6.4082V7.10156H8.14551V6.4082H11.2578Z" fill="white" stroke="white" stroke-width="0.1"/>
</svg>
