<svg width="20" height="20" viewBox="0 0 20 20" fill="none" xmlns="http://www.w3.org/2000/svg">
<path d="M8.99992 14.6666C12.1295 14.6666 14.6666 12.1295 14.6666 8.99992C14.6666 5.87032 12.1295 3.33325 8.99992 3.33325C5.87032 3.33325 3.33325 5.87032 3.33325 8.99992C3.33325 12.1295 5.87032 14.6666 8.99992 14.6666Z" stroke="white" stroke-linejoin="round"/>
<path d="M13.074 13.074L15.9024 15.9024" stroke="white" stroke-linecap="round" stroke-linejoin="round"/>
<path d="M7.24722 7.65831C7.16823 7.50099 7.03519 7.29263 6.84811 7.03326C6.66518 6.77388 6.5072 6.56978 6.37416 6.42096L6.88552 6C7.01025 6.12756 7.15991 6.30828 7.33452 6.54214C7.50913 6.77175 7.65672 6.98011 7.77728 7.1672L7.24722 7.65831ZM8.06414 6.2615H11.1947V6.89294H8.06414V6.2615ZM8.82494 8.3344H7.78352V7.69658H11.494V8.3344H9.59198C9.28018 8.97221 9.03073 9.40592 8.84365 9.63553L10.3278 9.53986C10.199 9.29324 10.068 9.07213 9.93497 8.87654L10.49 8.55125C10.6272 8.76386 10.7914 9.0445 10.9826 9.39317C11.1739 9.74184 11.3152 10.0225 11.4067 10.2351L10.8641 10.6497C10.8059 10.5008 10.7394 10.3499 10.6646 10.1968C9.98693 10.2351 9.3072 10.284 8.62539 10.3435C8.5755 10.3478 8.4487 10.3605 8.24499 10.3818C8.20757 10.3903 8.14521 10.3988 8.05791 10.4073L7.8833 9.76948C7.98307 9.7142 8.05999 9.65254 8.11403 9.58451C8.16808 9.51648 8.20134 9.47608 8.21381 9.46333C8.30111 9.34002 8.39881 9.17844 8.5069 8.97859C8.61915 8.77449 8.72517 8.55976 8.82494 8.3344ZM9.79777 10.9048C10.4505 10.9048 11.0512 10.8899 11.6 10.8601L11.5002 11.5298C10.9348 11.5596 10.3299 11.5745 9.68552 11.5745C9.34462 11.5745 9.09102 11.5724 8.92472 11.5681C8.61292 11.5596 8.36347 11.5383 8.17639 11.5043C7.98931 11.4703 7.81886 11.4023 7.66503 11.3002C7.51121 11.1982 7.35739 11.0451 7.20356 10.841L6.43653 11.6L6 11.0515L6.85434 10.2351V8.69157H6.1559V8.02187H7.49042V10.2287C7.6193 10.4073 7.75026 10.5434 7.8833 10.6369C8.02049 10.7304 8.17639 10.7964 8.351 10.8346C8.52561 10.8686 8.75219 10.8899 9.03074 10.8984C9.20119 10.9027 9.45687 10.9048 9.79777 10.9048Z" fill="white"/>
</svg>
