<svg width="20" height="20" viewBox="0 0 20 20" fill="none" xmlns="http://www.w3.org/2000/svg">
<rect width="20" height="20" rx="10" fill="white"/>
<rect x="0.5" y="0.5" width="19" height="19" rx="9.5" stroke="black" stroke-opacity="0.1"/>
<g clip-path="url(#clip0_1585_4374)">
<path d="M9.25 13.5C11.5972 13.5 13.5 11.5972 13.5 9.25C13.5 6.9028 11.5972 5 9.25 5C6.9028 5 5 6.9028 5 9.25C5 11.5972 6.9028 13.5 9.25 13.5Z" stroke="#999999"/>
<path d="M12.3054 12.3054L14.4267 14.4267" stroke="#999999" stroke-linecap="square"/>
<path d="M8.28345 8.53589V10.1238C8.37096 10.2404 8.45726 10.3285 8.54419 10.3884C8.63753 10.4507 8.74415 10.4955 8.8645 10.5212H8.86353C8.98587 10.5445 9.14644 10.5592 9.34595 10.5652L9.89771 10.5691C10.3679 10.5691 10.8007 10.5588 11.1956 10.5378L11.2571 10.5349L11.2483 10.5955L11.176 11.0681L11.1702 11.1082L11.1292 11.1101C10.7202 11.1312 10.2824 11.1423 9.81665 11.1423C9.57082 11.1423 9.38745 11.1405 9.26685 11.1375C9.04072 11.1314 8.8575 11.1162 8.71899 11.0916C8.57775 11.0664 8.44804 11.0159 8.3313 10.9402C8.22592 10.8717 8.12294 10.7732 8.02075 10.6472L7.50708 11.1462L7.46802 11.1833L7.43384 11.1414L7.11841 10.7546L7.08911 10.7185L7.12329 10.6863L7.72388 10.1238V9.10815H7.21997V8.53589H8.28345ZM11.1721 8.3064V8.8562H9.77954C9.59558 9.22227 9.43935 9.49257 9.31372 9.66675L10.1965 9.61108C10.1166 9.46649 10.038 9.33404 9.9563 9.21655L9.92505 9.17261L9.97192 9.14526L10.3723 8.91577L10.4133 8.89233L10.4387 8.9314C10.5386 9.0827 10.658 9.28177 10.7961 9.52808C10.9344 9.7746 11.0378 9.97456 11.1047 10.1267L11.1204 10.1628L11.0891 10.1873L10.6975 10.4792L10.6448 10.5183L10.6213 10.4578C10.5836 10.3634 10.5391 10.2686 10.4915 10.1716C10.0145 10.1983 9.53576 10.2322 9.05591 10.2732C9.02033 10.2762 8.92936 10.2855 8.78247 10.3005L8.78149 10.2996C8.75107 10.3058 8.70544 10.3125 8.64673 10.3181L8.60571 10.322L8.59399 10.282L8.46802 9.83179L8.45728 9.7937L8.49243 9.77417C8.56044 9.73733 8.61004 9.69756 8.6438 9.65601C8.67664 9.61559 8.70092 9.58738 8.71411 9.573C8.77549 9.48823 8.84564 9.37609 8.9231 9.23608L9.04028 9.01636C9.06667 8.9641 9.09114 8.91028 9.11646 8.8562H8.39478V8.3064H11.1721ZM7.83228 7.12378C7.9243 7.21585 8.03319 7.34524 8.15942 7.5105H8.1604C8.28693 7.67318 8.39382 7.82152 8.48169 7.95483L8.50513 7.99097L8.47388 8.01929L8.09106 8.36597L8.04321 8.40991L8.01294 8.35132C7.95775 8.24395 7.86307 8.0998 7.72876 7.91772V7.91675C7.59757 7.73489 7.48492 7.5929 7.39087 7.48999L7.35474 7.44995L7.39575 7.41675L7.76489 7.11987L7.80005 7.09155L7.83228 7.12378ZM10.9563 7.2937V7.83862H8.59692V7.2937H10.9563Z" fill="#999999" stroke="#999999" stroke-width="0.1"/>
</g>
<defs>
<clipPath id="clip0_1585_4374">
<rect width="12" height="12" fill="white" transform="translate(4 4)"/>
</clipPath>
</defs>
</svg>
