<svg width="20" height="20" viewBox="0 0 20 20" fill="none" xmlns="http://www.w3.org/2000/svg">
<rect width="20" height="20" rx="10" fill="white"/>
<rect x="0.5" y="0.5" width="19" height="19" rx="9.5" stroke="black" stroke-opacity="0.1"/>
<path d="M7.2582 5.81526C7.2582 5.36479 7.62299 5 8.07346 5H9.24815C9.69862 5 10.0641 5.36479 10.0641 5.81526V9.1352H7.2582V5.81526ZM8.18992 5.93173V8.20348H9.13169V5.93173H8.18992Z" fill="#999999"/>
<path d="M10.1585 7.21753V8.19076H11.3298V7.21753H10.1585ZM10.0413 6.28581H11.4463C11.8967 6.28581 12.2615 6.65127 12.2615 7.10174V9.12248H9.22607V7.10107C9.22607 6.65127 9.59153 6.28581 10.0413 6.28581Z" fill="#999999"/>
<path d="M6.27828 9.05153C6.27828 8.60107 6.64307 8.2356 7.09354 8.2356H12.4831C12.9336 8.2356 13.2983 8.60107 13.2983 9.05153V11.0341L6.27828 11.9223V9.05086V9.05153ZM7.21 9.16733V10.8648L12.3666 10.2122V9.168H7.21V9.16733Z" fill="#999999"/>
<path d="M6.30572 14.0669L13.6966 14.0167L14.4965 10.8855L5.48042 12.0254L6.30572 14.0669ZM6.23276 15C5.89809 15.002 5.59689 14.7999 5.47105 14.4899L4.56007 12.2349C4.35927 11.7396 4.68323 11.1874 5.21402 11.1205L14.5494 9.93908C14.6813 9.92235 14.8153 9.93816 14.9398 9.98512C15.0642 10.0321 15.1753 10.1088 15.2633 10.2085C15.3512 10.3083 15.4135 10.428 15.4446 10.5573C15.4757 10.6867 15.4746 10.8216 15.4416 10.9505L14.5775 14.3347C14.5328 14.5093 14.4315 14.6643 14.2895 14.7753C14.1474 14.8864 13.9726 14.9473 13.7923 14.9484L6.23276 15Z" fill="#999999"/>
<path d="M11.0621 12.7068C11.0621 12.7815 11.0474 12.8555 11.0188 12.9246C10.9902 12.9936 10.9483 13.0563 10.8955 13.1092C10.8426 13.162 10.7799 13.2039 10.7109 13.2325C10.6418 13.2611 10.5679 13.2758 10.4931 13.2758C10.4184 13.2758 10.3444 13.2611 10.2754 13.2325C10.2064 13.2039 10.1436 13.162 10.0908 13.1092C10.038 13.0563 9.99606 12.9936 9.96747 12.9246C9.93889 12.8555 9.92418 12.7815 9.92419 12.7068C9.92421 12.5559 9.98416 12.4112 10.0909 12.3046C10.1976 12.1979 10.3423 12.138 10.4931 12.138C10.644 12.138 10.7887 12.1979 10.8954 12.3046C11.0021 12.4112 11.0621 12.5559 11.0621 12.7068ZM12.9162 12.4123C12.9162 12.5477 12.8624 12.6775 12.7667 12.7732C12.671 12.8689 12.5411 12.9227 12.4058 12.9227C12.2704 12.9227 12.1406 12.8689 12.0449 12.7732C11.9492 12.6775 11.8954 12.5477 11.8954 12.4123C11.8954 12.277 11.9491 12.1473 12.0448 12.0517C12.1404 11.956 12.2702 11.9023 12.4054 11.9023C12.5407 11.9023 12.6704 11.956 12.7661 12.0517C12.8617 12.1473 12.9155 12.277 12.9155 12.4123H12.9162Z" fill="#999999"/>
</svg>
