<svg width="20" height="20" viewBox="0 0 20 20" fill="none" xmlns="http://www.w3.org/2000/svg">
<path d="M4.66675 10.3333V14.6666C4.66675 15.2189 5.11446 15.6666 5.66675 15.6666H14.3334C14.8857 15.6666 15.3334 15.2189 15.3334 14.6666V10.3333" stroke="white" stroke-linecap="round" stroke-linejoin="round"/>
<path d="M3.66675 6.99992C3.66675 6.63172 3.96522 6.33325 4.33341 6.33325H15.6667C16.0349 6.33325 16.3334 6.63172 16.3334 6.99992V9.66659C16.3334 10.0348 16.0349 10.3333 15.6667 10.3333H4.33341C3.96522 10.3333 3.66675 10.0348 3.66675 9.66659V6.99992Z" stroke="white" stroke-linejoin="round"/>
<path d="M12.3334 6.33325V4.99992C12.3334 4.63173 12.0349 4.33325 11.6667 4.33325H8.33341C7.96521 4.33325 7.66675 4.63173 7.66675 4.99992V6.33325" stroke="white" stroke-linecap="round" stroke-linejoin="round"/>
<path d="M7 9.66675V11.6667" stroke="white" stroke-linecap="round" stroke-linejoin="round"/>
<path d="M13 9.66675V11.6667" stroke="white" stroke-linecap="round" stroke-linejoin="round"/>
</svg>
