<svg width="20" height="20" viewBox="0 0 20 20" fill="none" xmlns="http://www.w3.org/2000/svg">
<path d="M6.45699 5.05984C6.45699 4.47423 6.93122 4 7.51683 4H9.04394C9.62955 4 10.1046 4.47423 10.1046 5.05984V9.37576H6.45699V5.05984ZM7.66824 5.21124V8.16452H8.89253V5.21124H7.66824Z" fill="white"/>
<path d="M10.2273 6.88279V8.14799H11.7501V6.88279H10.2273ZM10.0751 5.67155H11.9015C12.4871 5.67155 12.9613 6.14665 12.9613 6.73226V9.35923H9.01522V6.73139C9.01522 6.14665 9.49032 5.67155 10.0751 5.67155Z" fill="white"/>
<path d="M5.1831 9.26699C5.1831 8.68139 5.65733 8.20629 6.24294 8.20629H13.2494C13.835 8.20629 14.3092 8.68139 14.3092 9.26699V11.8444L5.1831 12.999V9.26612V9.26699ZM6.39434 9.41753V11.6242L13.0979 10.7758V9.4184H6.39434V9.41753Z" fill="white"/>
<path d="M5.21878 15.787L14.8269 15.7217L15.8668 11.6512L4.14589 13.1331L5.21878 15.787ZM5.12393 17C4.68886 17.0026 4.29729 16.7398 4.1337 16.3369L2.94944 13.4054C2.68839 12.7615 3.10954 12.0436 3.79957 11.9566L15.9355 10.4208C16.107 10.3991 16.2813 10.4196 16.443 10.4807C16.6048 10.5417 16.7492 10.6414 16.8636 10.7711C16.978 10.9007 17.0589 11.0564 17.0993 11.2245C17.1397 11.3927 17.1384 11.5681 17.0954 11.7356L15.972 16.1351C15.914 16.3621 15.7823 16.5636 15.5977 16.708C15.413 16.8523 15.1857 16.9314 14.9514 16.933L5.12393 17Z" fill="white"/>
<path d="M11.402 14.0189C11.402 14.116 11.3829 14.2122 11.3458 14.3019C11.3086 14.3917 11.2541 14.4732 11.1854 14.5419C11.1168 14.6106 11.0352 14.6651 10.9455 14.7023C10.8557 14.7395 10.7595 14.7586 10.6624 14.7586C10.5653 14.7586 10.4691 14.7395 10.3793 14.7023C10.2896 14.6651 10.2081 14.6106 10.1394 14.5419C10.0707 14.4732 10.0162 14.3917 9.97906 14.3019C9.94189 14.2122 9.92277 14.116 9.92279 14.0189C9.92281 13.8227 10.0008 13.6346 10.1395 13.4959C10.2782 13.3573 10.4663 13.2793 10.6624 13.2793C10.8586 13.2793 11.0467 13.3573 11.1854 13.4959C11.3241 13.6346 11.402 13.8227 11.402 14.0189ZM13.8123 13.636C13.8123 13.812 13.7424 13.9807 13.618 14.1052C13.4936 14.2296 13.3248 14.2995 13.1489 14.2995C12.9729 14.2995 12.8041 14.2296 12.6797 14.1052C12.5553 13.9807 12.4854 13.812 12.4854 13.636C12.4854 13.4601 12.5552 13.2915 12.6796 13.1671C12.8039 13.0428 12.9726 12.9729 13.1484 12.9729C13.3243 12.9729 13.4929 13.0428 13.6173 13.1671C13.7416 13.2915 13.8115 13.4601 13.8115 13.636H13.8123Z" fill="white"/>
</svg>
