<svg width="20" height="20" viewBox="0 0 20 20" fill="none" xmlns="http://www.w3.org/2000/svg">
<path d="M9.62559 3.9466C10.1728 3.9466 10.7048 4.01286 11.2132 4.13783L10.4047 4.94631C9.22591 4.7832 8.02565 4.99444 6.97338 5.55022C5.9211 6.106 5.06995 6.97824 4.5401 8.04381C4.01024 9.10938 3.82844 10.3144 4.02035 11.4889C4.21227 12.6634 4.76821 13.7479 5.60969 14.5894C6.45117 15.4308 7.53569 15.9868 8.71015 16.1787C9.8846 16.3706 11.0897 16.1888 12.1552 15.659C13.2208 15.1291 14.093 14.278 14.6488 13.2257C15.2046 12.1734 15.4159 10.9731 15.2527 9.79433L16.0612 8.9868C16.3912 10.3256 16.2953 11.734 15.7869 13.0158C15.2785 14.2975 14.383 15.3888 13.2251 16.1374C12.0671 16.8861 10.7045 17.255 9.32705 17.1926C7.94958 17.1302 6.62588 16.6397 5.54038 15.7894C4.45488 14.9391 3.66165 13.7714 3.27121 12.4489C2.88077 11.1265 2.91258 9.71519 3.36219 8.41168C3.81181 7.10816 4.65684 5.97736 5.77954 5.17683C6.90225 4.3763 8.24671 3.94592 9.62559 3.94565V3.9466ZM9.62559 6.78668V7.73338C9.06387 7.73338 8.51477 7.89995 8.04772 8.21202C7.58067 8.52409 7.21665 8.96765 7.00169 9.48661C6.78673 10.0056 6.73049 10.5766 6.84007 11.1275C6.94966 11.6785 7.22015 12.1845 7.61734 12.5817C8.01454 12.9789 8.52059 13.2494 9.07151 13.359C9.62244 13.4686 10.1935 13.4123 10.7124 13.1974C11.2314 12.9824 11.675 12.6184 11.987 12.1513C12.2991 11.6843 12.4657 11.1352 12.4657 10.5735H13.4124C13.4124 11.3224 13.1903 12.0546 12.7742 12.6773C12.3581 13.3 11.7667 13.7854 11.0747 14.072C10.3828 14.3586 9.62139 14.4336 8.88682 14.2875C8.15226 14.1414 7.47752 13.7807 6.94793 13.2511C6.41834 12.7215 6.05768 12.0468 5.91157 11.3122C5.76545 10.5777 5.84044 9.81627 6.12706 9.12433C6.41367 8.43238 6.89903 7.84097 7.52176 7.42487C8.1445 7.00877 8.87663 6.78668 9.62559 6.78668ZM14.3591 3.47325V5.83999H16.7258C16.8195 5.83982 16.9112 5.86749 16.9892 5.91949C17.0672 5.97149 17.128 6.04548 17.1639 6.13208C17.1998 6.21867 17.2092 6.31398 17.1909 6.40591C17.1725 6.49784 17.1273 6.58226 17.0609 6.64847L14.3591 9.34939C14.1816 9.52694 13.9408 9.62672 13.6898 9.62677H11.2416L10.541 10.3283C10.5951 10.5295 10.5812 10.743 10.5015 10.9355C10.4218 11.1281 10.2809 11.289 10.1005 11.3933C9.92009 11.4975 9.71033 11.5394 9.50372 11.5123C9.29711 11.4853 9.1052 11.3908 8.95776 11.2435C8.81031 11.0963 8.71556 10.9045 8.6882 10.698C8.66084 10.4914 8.70239 10.2816 8.80643 10.101C8.91046 9.92046 9.07115 9.77928 9.26358 9.69936C9.45602 9.61943 9.66945 9.60523 9.87078 9.65896L10.5723 8.95746V6.5093C10.5723 6.25824 10.6721 6.01749 10.8497 5.83999L13.5515 3.13812C13.6178 3.07207 13.7021 3.02714 13.7939 3.00899C13.8857 2.99084 13.9808 3.0003 14.0672 3.03615C14.1536 3.07201 14.2274 3.13267 14.2794 3.21046C14.3313 3.28826 14.359 3.3797 14.3591 3.47325ZM13.4124 4.61591L11.5881 6.44019C11.5661 6.46221 11.5487 6.48834 11.5369 6.5171C11.525 6.54585 11.5189 6.57666 11.519 6.60776V8.67913H13.5922C13.6547 8.67899 13.7146 8.65415 13.7589 8.61002L15.5831 6.78574H13.8857C13.7602 6.78574 13.6398 6.73587 13.551 6.6471C13.4622 6.55833 13.4124 6.43793 13.4124 6.31239V4.61591Z" fill="#333333"/>
</svg>
