<svg width="20" height="20" viewBox="0 0 20 20" fill="none" xmlns="http://www.w3.org/2000/svg">
<path d="M9.56568 4.36664C10.0666 4.36664 10.5537 4.42731 11.0191 4.54172L10.279 5.28191C9.19978 5.13257 8.10095 5.32598 7.1376 5.83481C6.17424 6.34365 5.39503 7.14221 4.90995 8.11777C4.42487 9.09333 4.25843 10.1966 4.43413 11.2719C4.60982 12.3471 5.11878 13.34 5.88915 14.1104C6.65952 14.8808 7.65239 15.3898 8.7276 15.5655C9.80281 15.7412 10.906 15.5748 11.8816 15.0897C12.8571 14.6046 13.6556 13.8253 14.1644 12.8619C14.6732 11.8985 14.8666 10.7997 14.7173 9.72043L15.4575 8.98111C15.7595 10.2068 15.6717 11.4963 15.2063 12.6698C14.7409 13.8432 13.921 14.8423 12.861 15.5278C11.8009 16.2132 10.5534 16.5509 9.29237 16.4938C8.03131 16.4367 6.81947 15.9876 5.8257 15.2091C4.83193 14.4306 4.10573 13.3616 3.74829 12.1508C3.39085 10.9401 3.41997 9.64798 3.83159 8.45456C4.24321 7.26115 5.01683 6.22587 6.04465 5.49296C7.07248 4.76004 8.30332 4.36602 9.56568 4.36577V4.36664ZM9.56568 6.96683V7.83356C9.05143 7.83356 8.54873 7.98606 8.12115 8.27177C7.69357 8.55748 7.36031 8.96358 7.16352 9.4387C6.96672 9.91382 6.91523 10.4366 7.01556 10.941C7.11588 11.4454 7.36352 11.9087 7.72714 12.2724C8.09077 12.636 8.55406 12.8837 9.05843 12.984C9.56279 13.0843 10.0856 13.0328 10.5607 12.836C11.0358 12.6392 11.4419 12.3059 11.7276 11.8783C12.0133 11.4507 12.1658 10.948 12.1658 10.4338H13.0325C13.0325 11.1194 12.8291 11.7897 12.4482 12.3599C12.0673 12.93 11.5258 13.3744 10.8924 13.6368C10.2589 13.8992 9.56183 13.9678 8.88934 13.8341C8.21686 13.7003 7.59914 13.3701 7.1143 12.8852C6.62946 12.4004 6.29928 11.7826 6.16552 11.1101C6.03175 10.4376 6.10041 9.74052 6.3628 9.10702C6.62519 8.47352 7.06953 7.93206 7.63964 7.55111C8.20975 7.17016 8.88002 6.96683 9.56568 6.96683ZM13.8991 3.93327V6.1001H16.0659C16.1517 6.09995 16.2356 6.12528 16.307 6.17289C16.3784 6.2205 16.4341 6.28824 16.467 6.36752C16.4998 6.4468 16.5084 6.53406 16.4916 6.61822C16.4748 6.70239 16.4334 6.77968 16.3727 6.84029L13.8991 9.31307C13.7366 9.47562 13.5162 9.56697 13.2864 9.56702H11.0451L10.4038 10.2093C10.4532 10.3935 10.4405 10.5889 10.3676 10.7652C10.2946 10.9415 10.1656 11.0888 10.0005 11.1843C9.8353 11.2798 9.64326 11.3181 9.45411 11.2933C9.26496 11.2685 9.08927 11.182 8.95428 11.0472C8.8193 10.9124 8.73256 10.7368 8.70751 10.5477C8.68246 10.3586 8.7205 10.1665 8.81574 10.0012C8.91098 9.83591 9.05809 9.70665 9.23427 9.63348C9.41044 9.56031 9.60584 9.5473 9.79015 9.59649L10.4324 8.95424V6.71288C10.4324 6.48303 10.5238 6.26261 10.6863 6.1001L13.1599 3.62645C13.2205 3.56598 13.2977 3.52485 13.3817 3.50823C13.4657 3.49162 13.5528 3.50027 13.6319 3.5331C13.711 3.56593 13.7786 3.62146 13.8262 3.69268C13.8737 3.76391 13.8991 3.84763 13.8991 3.93327ZM13.0325 4.97942L11.3623 6.64961C11.3422 6.66977 11.3263 6.69369 11.3154 6.72002C11.3046 6.74634 11.299 6.77454 11.2991 6.80302V8.69942H13.1971C13.2543 8.6993 13.3092 8.67655 13.3497 8.63615L15.0198 6.96596H13.4658C13.3509 6.96596 13.2406 6.92031 13.1594 6.83903C13.0781 6.75776 13.0325 6.64753 13.0325 6.5326V4.97942Z" fill="#333333"/>
</svg>
