<svg width="15" height="13" viewBox="0 0 15 13" fill="none" xmlns="http://www.w3.org/2000/svg">
<path d="M3.58566 1.05984C3.58566 0.47423 4.05989 0 4.64549 0H6.1726C6.75821 0 7.23331 0.47423 7.23331 1.05984V5.37576H3.58566V1.05984ZM4.7969 1.21124V4.16452H6.02119V1.21124H4.7969Z" fill="black" fill-opacity="0.85"/>
<path d="M7.356 2.88279V4.14799H8.87876V2.88279H7.356ZM7.20372 1.67155H9.03016C9.61577 1.67155 10.09 2.14665 10.09 2.73226V5.35923H6.14389V2.73139C6.14389 2.14665 6.61899 1.67155 7.20372 1.67155Z" fill="black" fill-opacity="0.85"/>
<path d="M2.31176 5.26699C2.31176 4.68139 2.78599 4.20629 3.3716 4.20629H10.378C10.9636 4.20629 11.4379 4.68139 11.4379 5.26699V7.84437L2.31176 8.99905V5.26612V5.26699ZM3.52301 5.41753V7.62422L10.2266 6.77583V5.4184H3.52301V5.41753Z" fill="black" fill-opacity="0.85"/>
<path d="M2.34744 11.787L11.9556 11.7217L12.9954 7.65119L1.27455 9.13305L2.34744 11.787ZM2.25259 13C1.81752 13.0026 1.42595 12.7398 1.26237 12.3369L0.0780971 9.40541C-0.182947 8.7615 0.238204 8.04363 0.92823 7.95661L13.0642 6.42081C13.2357 6.39906 13.4099 6.41961 13.5717 6.48066C13.7335 6.54172 13.8779 6.64142 13.9922 6.77109C14.1066 6.90075 14.1876 7.05643 14.228 7.22455C14.2684 7.39266 14.267 7.56812 14.2241 7.7356L13.1007 12.1351C13.0426 12.3621 12.911 12.5636 12.7263 12.708C12.5417 12.8523 12.3144 12.9314 12.08 12.933L2.25259 13Z" fill="black" fill-opacity="0.85"/>
<path d="M8.5307 10.0189C8.53071 10.116 8.51159 10.2122 8.47443 10.3019C8.43726 10.3917 8.38278 10.4732 8.3141 10.5419C8.24542 10.6106 8.16388 10.6651 8.07414 10.7023C7.9844 10.7395 7.88821 10.7586 7.79107 10.7586C7.69393 10.7586 7.59775 10.7395 7.50801 10.7023C7.41826 10.6651 7.33672 10.6106 7.26804 10.5419C7.19936 10.4732 7.14488 10.3917 7.10772 10.3019C7.07055 10.2122 7.05143 10.116 7.05145 10.0189C7.05148 9.82272 7.12941 9.63462 7.26812 9.49594C7.40682 9.35725 7.59493 9.27934 7.79107 9.27934C7.98722 9.27934 8.17532 9.35725 8.31403 9.49594C8.45273 9.63462 8.53067 9.82272 8.5307 10.0189ZM10.941 9.636C10.941 9.81196 10.8711 9.98072 10.7467 10.1052C10.6222 10.2296 10.4535 10.2995 10.2775 10.2995C10.1015 10.2995 9.93279 10.2296 9.80836 10.1052C9.68393 9.98072 9.61403 9.81196 9.61403 9.636C9.61403 9.46014 9.68389 9.2915 9.80823 9.16715C9.93258 9.0428 10.1012 8.97295 10.2771 8.97295C10.4529 8.97295 10.6216 9.0428 10.7459 9.16715C10.8703 9.2915 10.9401 9.46014 10.9401 9.636H10.941Z" fill="black" fill-opacity="0.85"/>
</svg>
