<svg width="20" height="20" viewBox="0 0 20 20" fill="none" xmlns="http://www.w3.org/2000/svg">
<path d="M14.5039 16.0001L15.6341 12.8918C15.7499 12.5736 15.6086 12.2192 15.3058 12.0677L10.1353 9.48248C9.94766 9.38865 9.72673 9.38865 9.53906 9.48248L4.36864 12.0677C4.06576 12.2192 3.92453 12.5736 4.04025 12.8918L5.17053 16.0001" stroke="#333333" stroke-linejoin="round"/>
<path d="M14 6.66675H6.66667C6.29847 6.66675 6 6.96521 6 7.33341V11.3334L10.054 9.46235C10.2312 9.38055 10.4354 9.38055 10.6127 9.46235L14.6667 11.3334V7.33341C14.6667 6.96521 14.3682 6.66675 14 6.66675Z" stroke="#333333" stroke-linecap="round" stroke-linejoin="round"/>
<path d="M11.3333 6.66659V3.99992C11.3333 3.63173 11.0349 3.33325 10.6667 3.33325H8.66667C8.29847 3.33325 8 3.63173 8 3.99992V6.66659" stroke="#333333" stroke-linecap="round" stroke-linejoin="round"/>
<path d="M10 12.6667V15.3334" stroke="#333333" stroke-linecap="round"/>
<path d="M3 16.6667C4.33333 16.6667 4.33333 16 5.33333 16C6.33333 16 6.33333 16.6667 7.33333 16.6667C8.33333 16.6667 8.5 16 9.66667 16C10.8333 16 11 16.6667 12 16.6667C13 16.6667 13 16 14 16C15 16 15 16.6667 16.3333 16.6667" stroke="#333333" stroke-linecap="round" stroke-linejoin="round"/>
</svg>
