<svg width="16" height="16" viewBox="0 0 16 16" fill="none" xmlns="http://www.w3.org/2000/svg">
<rect width="16" height="16" rx="2" fill="#66B556"/>
<path d="M6.85258 8.27615C7.32692 8.27615 7.62164 8.72553 7.65269 9.24067L7.65574 9.33201V12.9429C7.65453 13.4648 7.38599 13.944 6.93356 13.9951L6.85197 14H2.73506C2.26071 14 1.96599 13.5506 1.93495 13.0349L1.93188 12.9435V9.33263C1.93188 8.81077 2.20042 8.33217 2.65285 8.28042L2.73506 8.27614H6.85197L6.85258 8.27615ZM13.2651 8.26153C13.7395 8.26153 14.0342 8.7109 14.0652 9.22667L14.0683 9.31801V12.9289C14.0671 13.4508 13.7985 13.9294 13.3461 13.9811L13.2645 13.9854H9.14759C8.67324 13.9854 8.37853 13.536 8.34748 13.0209L8.34443 12.9295V9.31861C8.34443 8.79616 8.61296 8.31756 9.0654 8.26641L9.14759 8.26153H13.2651ZM9.22675 2L10.0519 2.00061C10.5256 2.00061 10.8203 2.44999 10.852 2.96576L10.8544 3.05709V6.66799C10.8532 7.18984 10.5846 7.66844 10.1322 7.71959L10.0506 7.72446H5.93249C5.45814 7.72446 5.16343 7.27508 5.13238 6.75933L5.12933 6.66799V3.05709C5.12933 2.53523 5.39786 2.05663 5.8503 2.00548L5.93311 2H6.81543C6.80702 2.04148 6.80294 2.08372 6.80326 2.12605V3.95282C6.80326 4.11431 6.86742 4.26919 6.98161 4.38338C7.0958 4.49758 7.25068 4.56173 7.41218 4.56173H8.63001C8.70997 4.56173 8.78915 4.54598 8.86303 4.51538C8.93691 4.48478 9.00404 4.43993 9.06058 4.38339C9.11713 4.32685 9.16198 4.25972 9.19258 4.18584C9.22318 4.11196 9.23893 4.03278 9.23893 3.95282V2.12605C9.23893 2.08343 9.23407 2.0408 9.22554 2H9.22675ZM8.63001 2.12605V3.95282H7.41218V2.12605H8.63001Z" fill="white"/>
</svg>
