<svg width="16" height="16" viewBox="0 0 16 16" fill="none" xmlns="http://www.w3.org/2000/svg">
<rect width="16" height="16" rx="2" fill="#00C5BB"/>
<path d="M4.12416 5.8735H4.74436C5.09716 5.8735 5.38346 6.1619 5.38346 6.5175V8.2157H13.661C14.0138 8.2157 14.3001 8.5041 14.3001 8.859C14.3001 8.9815 14.2651 9.1012 14.2 9.2041L12.24 12.3044C12.0048 12.6754 11.5981 12.9001 11.1613 12.9001H3.36046C3.05054 12.8994 2.75136 12.7864 2.51839 12.582C2.28542 12.3776 2.13445 12.0957 2.09346 11.7885L1.70636 8.9465C1.68326 8.7809 1.7256 8.61282 1.82441 8.47794C1.92322 8.34306 2.07071 8.252 2.23556 8.2241V6.5168C2.23556 6.1647 2.51696 5.8791 2.86556 5.8735V5.3359C2.86556 4.9859 3.14696 4.7024 3.49486 4.7024C3.84276 4.7024 4.12486 4.9859 4.12486 5.3359V5.8735H4.12416ZM4.46296 7.0446H3.78606C3.74773 7.04469 3.70979 7.05233 3.67441 7.06709C3.63903 7.08184 3.60691 7.10342 3.57986 7.13059C3.55282 7.15776 3.5314 7.18999 3.51682 7.22544C3.50223 7.26089 3.49477 7.29887 3.49486 7.3372C3.49486 7.4989 3.62506 7.6305 3.78606 7.6305H4.46296C4.62396 7.6305 4.75346 7.4989 4.75346 7.3372C4.75365 7.2599 4.72317 7.18569 4.66871 7.13083C4.61425 7.07598 4.54026 7.04497 4.46296 7.0446ZM6.73096 6.3516H7.98046C8.15686 6.3516 8.29966 6.4951 8.29966 6.6729V7.291C8.29966 7.4688 8.15686 7.613 7.98046 7.613H6.73096C6.6888 7.61291 6.64707 7.6045 6.60817 7.58826C6.56926 7.57202 6.53394 7.54826 6.50422 7.51835C6.47451 7.48844 6.45098 7.45297 6.435 7.41395C6.41901 7.37494 6.41088 7.33316 6.41106 7.291V6.6729C6.41106 6.4951 6.55456 6.3509 6.73096 6.3509V6.3516ZM9.24886 6.3516H10.4984C10.6748 6.3516 10.8176 6.4951 10.8176 6.6729V7.291C10.8176 7.4688 10.6748 7.613 10.4984 7.613H9.24886C9.2067 7.61291 9.16497 7.6045 9.12607 7.58826C9.08716 7.57202 9.05184 7.54826 9.02212 7.51835C8.99241 7.48844 8.96888 7.45297 8.9529 7.41395C8.93691 7.37494 8.92878 7.33316 8.92896 7.291V6.6729C8.92896 6.4951 9.07246 6.3509 9.24886 6.3509V6.3516ZM11.7668 6.3516H13.0163C13.1927 6.3516 13.3355 6.4951 13.3355 6.6729V7.291C13.3355 7.4688 13.1927 7.613 13.0163 7.613H11.7661C11.7239 7.61291 11.6822 7.6045 11.6433 7.58826C11.6044 7.57202 11.569 7.54826 11.5393 7.51835C11.5096 7.48844 11.4861 7.45297 11.4701 7.41395C11.4541 7.37494 11.446 7.33316 11.4462 7.291V6.6729C11.4462 6.4951 11.5897 6.3509 11.7661 6.3509L11.7668 6.3516ZM7.96856 4.7416C8.14496 4.7416 8.28776 4.8858 8.28776 5.0636V5.681C8.28776 5.8588 8.14496 6.003 7.96856 6.003H6.71906C6.6769 6.00291 6.63517 5.9945 6.59627 5.97826C6.55736 5.96202 6.52204 5.93826 6.49232 5.90835C6.46261 5.87844 6.43908 5.84297 6.4231 5.80395C6.40711 5.76494 6.39898 5.72316 6.39916 5.681V5.0629C6.39916 4.8858 6.54266 4.7409 6.71906 4.7409H7.96856V4.7416ZM10.4865 4.7416C10.6629 4.7416 10.8057 4.8858 10.8057 5.0636V5.681C10.8057 5.8588 10.6629 6.003 10.4865 6.003H9.23696C9.1948 6.00291 9.15307 5.9945 9.11417 5.97826C9.07526 5.96202 9.03994 5.93826 9.01022 5.90835C8.98051 5.87844 8.95698 5.84297 8.941 5.80395C8.92501 5.76494 8.91688 5.72316 8.91706 5.681V5.0629C8.91706 4.8858 9.06056 4.7409 9.23696 4.7409H10.4865V4.7416ZM13.0044 4.7416C13.1808 4.7416 13.3236 4.8858 13.3236 5.0636V5.681C13.3236 5.8588 13.1808 6.003 13.0044 6.003H11.7549C11.7127 6.00291 11.671 5.9945 11.6321 5.97826C11.5932 5.96202 11.5578 5.93826 11.5281 5.90835C11.4984 5.87844 11.4749 5.84297 11.4589 5.80395C11.4429 5.76494 11.4348 5.72316 11.435 5.681V5.0629C11.435 4.8858 11.5785 4.7409 11.7549 4.7409H13.0044V4.7416ZM6.73236 3.1001H7.98186C8.15826 3.1001 8.30106 3.2443 8.30106 3.4221V4.0395C8.30106 4.2173 8.15826 4.3615 7.98186 4.3615H6.73236C6.69026 4.36131 6.64861 4.35284 6.60978 4.33656C6.57096 4.32028 6.53572 4.29651 6.50607 4.26661C6.47643 4.23671 6.45297 4.20126 6.43703 4.16229C6.42109 4.12333 6.41298 4.0816 6.41316 4.0395V3.4221C6.41316 3.245 6.55596 3.1008 6.73236 3.1008V3.1001ZM9.25026 3.1001H10.4998C10.6762 3.1001 10.819 3.2443 10.819 3.4221V4.0395C10.819 4.2173 10.6762 4.3615 10.4998 4.3615H9.25026C9.20816 4.36131 9.16651 4.35284 9.12768 4.33656C9.08885 4.32028 9.05362 4.29651 9.02398 4.26661C8.99433 4.23671 8.97087 4.20126 8.95493 4.16229C8.93899 4.12333 8.93088 4.0816 8.93106 4.0395V3.4221C8.93106 3.245 9.07386 3.1008 9.25026 3.1008V3.1001ZM11.7682 3.1001H13.0177C13.1941 3.1001 13.3369 3.2443 13.3369 3.4221V4.0395C13.3369 4.2173 13.1941 4.3615 13.0177 4.3615H11.7682C11.7261 4.36131 11.6844 4.35284 11.6456 4.33656C11.6068 4.32028 11.5715 4.29651 11.5419 4.26661C11.5122 4.23671 11.4888 4.20126 11.4728 4.16229C11.4569 4.12333 11.4488 4.0816 11.449 4.0395V3.4221C11.449 3.245 11.5918 3.1008 11.7682 3.1008V3.1001Z" fill="white"/>
</svg>
