<svg width="25.000000" height="26.000000" viewBox="0 0 25 26" fill="none" xmlns="http://www.w3.org/2000/svg" xmlns:xlink="http://www.w3.org/1999/xlink">
	<desc>
			Created with Pixso.
	</desc>
	<path id="形状" d="M18 10.0002C18 8.42114 17.3683 6.84222 16.2105 5.78955C15.158 4.73688 13.6843 4 12 4C10.3159 4 8.84216 4.63165 7.78949 5.78955C6.73682 6.84222 6 8.31592 6 10.0002C6 11.6844 6.63153 13.1581 7.78949 14.2108C8.84198 15.2631 10.3159 16 12 16C13.5789 16 15.1578 15.3685 16.2105 14.2108C17.3683 13.1581 18 11.6844 18 10.0002ZM8.94733 13.2632C9.78937 14.0001 10.842 14.5264 12.1052 14.5264C13.263 14.5264 14.421 14.0001 15.1577 13.1581C15.8945 12.3159 16.4208 11.2634 16.4208 10.0002C16.4208 8.73694 15.9997 7.68427 15.1577 6.84222C14.3157 6.10541 13.263 5.57904 11.9998 5.57904C10.7367 5.57904 9.68402 6.00006 8.84198 6.84222C8.10516 7.68427 7.57886 8.73694 7.57886 10.0002C7.57886 11.2632 8.10516 12.4212 8.94733 13.2632Z" clip-rule="evenodd" fill-rule="evenodd" fill="#000000" fill-opacity="1.000000"/>
	<path id="形状" d="M24.3193 19.7001L20.8174 14.0001C21.4984 12.7001 21.8873 11.2 21.8873 9.60004C21.8873 6.90009 20.8174 4.50006 19.1637 2.69995C17.4126 1.09998 15.0781 0 12.4515 0C9.82507 0 7.49036 1.09998 5.83661 2.8999C4.08563 4.59998 3.01562 7 3.01562 9.69995C3.01562 11.2999 3.40472 12.9 4.08563 14.2L0.583618 20L0 21.0002L1.16736 21.1002L5.25299 21.3001L7.00397 25.0001L7.58752 26L8.26849 24.9002L11.6732 19.2999L12.4515 19.2999C12.7433 19.2999 13.1324 19.2999 13.4241 19.2L16.6343 24.4999L17.3152 25.5L17.899 24.3998L19.7471 20.6999L23.7355 20.5997L25 20.5997L24.3193 19.7001ZM12.4514 17.7873C8.02814 17.7873 4.4425 14.1011 4.4425 9.55396C4.4425 5.00696 8.02826 1.3208 12.4514 1.3208C16.8747 1.3208 20.4603 5.00696 20.4603 9.55396C20.4604 14.1011 16.8747 17.7873 12.4514 17.7873ZM6.323 20.2L7.78223 23.1001L10.1171 19.0999C9.04761 18.9561 7.10144 17.7 7.10144 17.7C6.20966 17.1328 5.05859 15.7 4.96124 15.4998L2.43201 19.7L5.73938 19.8L6.12848 19.8L6.323 20.2ZM18.9692 19.5001L19.3582 19.5001L19.3582 19.5L22.4709 19.5L20.1364 15.6C19.4554 16.4 18.6771 17.2 17.8016 17.7999C16.9262 18.4 15.9535 18.7999 14.8834 19.0999L17.2181 22.9001L18.7746 19.9001L18.9692 19.5001Z" clip-rule="evenodd" fill-rule="evenodd" fill="#000000" fill-opacity="1.000000"/>
	<defs/>
</svg>
