<?xml version="1.0" encoding="UTF-8"?>
<svg width="108px" height="97px" viewBox="0 0 108 97" version="1.1" xmlns="http://www.w3.org/2000/svg" xmlns:xlink="http://www.w3.org/1999/xlink">
    <title>a-zhenrenrenzhengshibai</title>
    <defs>
        <filter x="-2.0%" y="-3.1%" width="104.0%" height="106.2%" filterUnits="objectBoundingBox" id="filter-1">
            <feOffset dx="0" dy="0" in="SourceAlpha" result="shadowOffsetOuter1"></feOffset>
            <feGaussianBlur stdDeviation="4" in="shadowOffsetOuter1" result="shadowBlurOuter1"></feGaussianBlur>
            <feColorMatrix values="0 0 0 0 0   0 0 0 0 0   0 0 0 0 0  0 0 0 0.1 0" type="matrix" in="shadowBlurOuter1" result="shadowMatrixOuter1"></feColorMatrix>
            <feMerge>
                <feMergeNode in="shadowMatrixOuter1"></feMergeNode>
                <feMergeNode in="SourceGraphic"></feMergeNode>
            </feMerge>
        </filter>
    </defs>
    <g id="页面-1" stroke="none" stroke-width="1" fill="none" fill-rule="evenodd">
        <g id="服务商审核反馈-失败" transform="translate(-366.000000, -69.000000)" fill-rule="nonzero">
            <g id="编组-16" filter="url(#filter-1)" transform="translate(17.000000, 18.000000)">
                <g id="a-zhenrenrenzhengshibai" transform="translate(361.000000, 63.000000)">
                    <path d="M36.3106874,5.81260889e-06 C21.6246277,5.81260889e-06 8.38469054,8.84679029 2.76477071,22.4150198 C-2.85514912,35.9832493 0.251724892,51.6008279 10.6366311,61.9851466 C21.0215373,72.3694652 36.6392917,75.4754556 50.2072032,69.8547682 C63.7751147,64.2340807 72.6211442,50.993643 72.6203181,36.3075833 C72.6252215,26.6763568 68.8012646,17.4382204 61.9907655,10.6281066 C55.1802664,3.81799277 45.9419137,-0.0054414656 36.3106874,5.81260889e-06 Z M44.2336466,24.1612369 C44.1097886,22.6815671 44.8920488,21.273661 46.2138729,20.5972405 C47.4633835,19.8044308 49.0583363,19.8044308 50.3078469,20.5972405 C51.5638215,21.339763 52.3210205,22.7025641 52.2880731,24.1612369 L52.2880731,29.4425251 C52.3072086,30.4986523 51.8960955,31.5171652 51.1491781,32.2640825 C50.4022608,33.0109998 49.3837479,33.4221129 48.3276207,33.4029775 C46.1431321,33.3962109 44.3739348,31.6270136 44.3671681,29.4425251 L44.2336466,24.1612369 L44.2336466,24.1612369 Z M20.3353559,24.1612369 C20.2114979,22.6815671 20.9937581,21.273661 22.3155821,20.5972405 C23.5650927,19.8044308 25.1600455,19.8044308 26.4095561,20.5972405 C27.6655307,21.339763 28.4227297,22.7025641 28.3897824,24.1612369 L28.3897824,29.4425251 C28.4089178,30.4986523 27.9978047,31.5171652 27.2508874,32.2640825 C26.5039701,33.0109998 25.4854572,33.4221129 24.4293299,33.4029775 C22.2440392,33.3973384 20.4735955,31.6278126 20.4668232,29.4425251 L20.3353559,24.1612369 Z" id="形状" fill="#DCE0E9"></path>
                    <g id="jinggao" transform="translate(45.000000, 34.000000)">
                        <path d="M17.5001823,-2 C19.1671875,-2 20.9676773,-1.09843498 22.2841867,1.18064676 L22.2841867,1.18064676 L36.0166229,24.9637979 C37.3311445,27.244169 37.2113484,29.2533221 36.3785814,30.6959871 C35.9013393,31.5227496 35.1625486,32.2095925 34.1562538,32.6669777 C33.3629624,33.0275477 32.3847233,33.2475137 31.2332393,33.2475137 L31.2332393,33.2475137 L3.76725244,33.2475137 C2.61570285,33.2475137 1.63730533,33.0275213 0.84386718,32.6668852 C-0.16254646,32.2094468 -0.901453292,31.5225196 -1.37871929,30.6956791 C-2.21149197,29.2529402 -2.33131335,27.2437489 -1.01528028,24.9625579 L-1.01528028,24.9625579 L12.7165801,1.18052245 C14.0326418,-1.09838169 15.8330843,-2 17.5001823,-2 Z" id="形状" stroke="#FFFFFF" stroke-width="4" fill="#E6A23D"></path>
                        <path d="M17.5003306,21.8105094 C18.215191,21.8105094 18.8328168,22.0693498 19.3518529,22.5870307 C19.8690256,23.1045422 20.1268496,23.7219987 20.1268496,24.4356733 C20.1268496,25.1530747 19.8690256,25.7639246 19.3518529,26.268223 C18.8328168,26.7737072 18.215191,27.0256024 17.5003306,27.0256024 C16.7856396,27.0256024 16.1678443,26.7737072 15.6489099,26.268223 C15.1313984,25.7639246 14.8741842,25.1530747 14.8741842,24.4356733 C14.8741842,23.7219987 15.1313984,23.1045422 15.6489099,22.5870307 C16.1678443,22.0693498 16.7856396,21.8105094 17.5003306,21.8105094 Z M17.5001612,8.12828461 C18.2656716,8.12828461 18.892445,8.39227476 19.3864101,8.91791737 C19.8771567,9.44474577 20.1224453,10.1036031 20.1224453,10.8958785 C20.1224453,11.4071223 19.5462479,14.3544604 19.1140046,17.3345865 L19.0296887,17.9303369 C18.9203957,18.7233546 18.8247534,19.5073105 18.7564182,20.2366307 L16.2891334,20.2366307 C15.989468,16.5899957 14.8779787,11.5775369 14.8779787,10.8958785 C14.8780464,10.1156304 15.1237416,9.45948342 15.614251,8.92858946 C16.107708,8.39508677 16.7350573,8.12828461 17.5001612,8.12828461 Z" id="路径-2" fill="#FFFFFF"></path>
                    </g>
                </g>
            </g>
        </g>
    </g>
</svg>