<?xml version="1.0" encoding="UTF-8"?>
<svg width="16px" height="16px" viewBox="0 0 16 16" version="1.1" xmlns="http://www.w3.org/2000/svg" xmlns:xlink="http://www.w3.org/1999/xlink">
    <title>tianjia</title>
    <g id="迭代1" stroke="none" stroke-width="1" fill="none" fill-rule="evenodd">
        <g id="当清空关注时的无数据页面" transform="translate(-738.000000, -374.000000)" fill-rule="nonzero">
            <g id="编组-6" transform="translate(0.000000, 51.000000)">
                <g id="编组-11" transform="translate(139.000000, 62.000000)">
                    <g id="编组备份-11" transform="translate(599.000000, 258.000000)">
                        <g id="tianjia" transform="translate(0.000000, 3.000000)">
                            <path d="M7.99970418,0.249999825 C10.13884,0.252531051 12.0751484,1.12053715 13.4773056,2.5226944 C14.8794628,3.92485164 15.7474689,5.86116003 15.75,8 C15.75,10.1401034 14.8825517,12.0776034 13.4800776,13.4800776 C12.0776034,14.8825517 10.1401034,15.75 8,15.75 C5.85989659,15.75 3.92239659,14.8825517 2.51992245,13.4800776 C1.1174483,12.0776034 0.25,10.1401034 0.25,8 C0.25,5.85989659 1.1174483,3.92239659 2.51992245,2.51992245 C3.92239659,1.1174483 5.85989659,0.25 7.99970418,0.249999825 Z" id="路径" stroke="#FD953E" stroke-width="0.5" fill="#FDF6ED"></path>
                            <path d="M12.0512091,7.36462778 L8.63726884,7.36462778 L8.63726884,3.95068753 C8.63721382,3.59982006 8.35276411,3.31541495 8.00189663,3.31541495 C7.65102916,3.31541495 7.36657944,3.59982006 7.36652442,3.95068753 L7.36652442,7.36462778 L3.95258416,7.36462778 C3.60167777,7.36462778 3.31721194,7.64909361 3.31721194,8 C3.31721194,8.35090639 3.60167777,8.63537222 3.95258416,8.63537222 L7.36652442,8.63537222 L7.36652442,12.0493125 C7.36657944,12.4001799 7.65102916,12.684585 8.00189663,12.684585 C8.35276411,12.684585 8.63721382,12.4001799 8.63726884,12.0493125 L8.63726884,8.63537222 L12.0512091,8.63537222 C12.4021155,8.63537222 12.6865813,8.35090639 12.6865813,8 C12.6865813,7.64909361 12.4021155,7.36462778 12.0512091,7.36462778 Z" id="路径" fill="#FD953E"></path>
                        </g>
                    </g>
                </g>
            </g>
        </g>
    </g>
</svg>