<?xml version="1.0" encoding="UTF-8"?>
<svg width="16px" height="16px" viewBox="0 0 16 16" version="1.1" xmlns="http://www.w3.org/2000/svg" xmlns:xlink="http://www.w3.org/1999/xlink">
    <title>编组 9</title>
    <g id="页面-1" stroke="none" stroke-width="1" fill="none" fill-rule="evenodd">
        <g id="船期查询-运价船期" transform="translate(-377.000000, -344.000000)">
            <g id="船期信息标签备份-3" transform="translate(139.000000, 314.000000)">
                <g id="编组-5" transform="translate(217.000000, 1.000000)">
                    <g id="编组-11" transform="translate(16.000000, 11.000000)">
                        <g id="编组-10" transform="translate(5.000000, 7.000000)">
                            <g id="编组-9" transform="translate(0.000000, 11.000000)">
                                <circle id="椭圆形-2" fill="#3385FF" cx="8" cy="8" r="8"></circle>
                                <path d="M8,11.8888889 C7.44444445,11.8888889 4,9.20911111 4,7 C4,4.79088889 5.79088889,3 8,3 C10.2091111,3 12,4.79088889 12,7 C12,9.20911111 8.55555555,11.8888889 8,11.8888889 Z M8,8.22222223 C8.675,8.22222223 9.22222222,7.67500001 9.22222222,7 C9.22222222,6.32499999 8.675,5.77777778 8,5.77777778 C7.325,5.77777778 6.77777778,6.325 6.77777778,7 C6.77777778,7.675 7.325,8.22222223 8,8.22222223 Z" id="形状" fill="#FFFFFF" fill-rule="nonzero"></path>
                            </g>
                        </g>
                    </g>
                </g>
            </g>
        </g>
    </g>
</svg>