<?xml version="1.0" encoding="UTF-8"?>
<svg width="12px" height="12px" viewBox="0 0 12 12" version="1.1" xmlns="http://www.w3.org/2000/svg" xmlns:xlink="http://www.w3.org/1999/xlink">
    <title>tianjia</title>
    <g id="迭代1" stroke="none" stroke-width="1" fill="none" fill-rule="evenodd">
        <g id="船期查询-按运价查询-增加关注目的港快速查询功能" transform="translate(-537.000000, -163.000000)" fill-rule="nonzero">
            <g id="编组-6" transform="translate(0.000000, 51.000000)">
                <g id="tianjia" transform="translate(537.000000, 112.000000)">
                    <path d="M5.99970418,0.249999825 C7.58682601,0.251877856 9.023461,0.895890938 10.063785,1.93621497 C11.1041091,2.976539 11.7481221,4.41317399 11.75,6 C11.75,7.58781866 11.1064093,9.02531866 10.065864,10.065864 C9.02531866,11.1064093 7.58781866,11.75 6,11.75 C4.41218134,11.75 2.97468134,11.1064093 1.93413601,10.065864 C0.893590672,9.02531866 0.25,7.58781866 0.25,6 C0.25,4.41218134 0.893590672,2.97468134 1.93413601,1.93413601 C2.97468134,0.893590672 4.41218134,0.25 5.99970418,0.249999825 Z" id="路径" stroke="#F56C6C" stroke-width="0.5" fill="#FEF0F0"></path>
                    <g id="changyonggoupiaorenshanchu" transform="translate(2.000000, 2.000000)" fill="#EF4333">
                        <path d="M0.285714286,2.15384615 C0.127918643,2.15384615 0,2.01608762 0,1.84615385 C0,1.67622008 0.127918643,1.53846154 0.285714286,1.53846154 L7.71428571,1.53846154 C7.87208136,1.53846154 8,1.67622008 8,1.84615385 C8,2.01608762 7.87208136,2.15384615 7.71428571,2.15384615 L0.285714286,2.15384615 Z M6.85714286,2.15384615 L7.42857143,2.15384615 L7.42857143,6.46153846 C7.42857143,7.31120731 6.78897821,8 6,8 L2,8 C1.21102179,8 0.571428571,7.31120731 0.571428571,6.46153846 L0.571428571,2.15384615 L1.14285714,2.15384615 L1.14285714,3.07692308 L0.571428571,3.07692308 L0.571428571,2.15384615 L1.14285714,2.15384615 L1.14285714,6.46153846 C1.14285714,6.97133977 1.52661307,7.38461538 2,7.38461538 L6,7.38461538 C6.47338693,7.38461538 6.85714286,6.97133977 6.85714286,6.46153846 L6.85714286,2.15384615 Z M2.28571429,3.23076923 C2.28571429,3.06083546 2.41363293,2.92307692 2.57142857,2.92307692 C2.72922421,2.92307692 2.85714286,3.06083546 2.85714286,3.23076923 L2.85714286,6.30769231 C2.85714286,6.47762608 2.72922421,6.61538462 2.57142857,6.61538462 C2.41363293,6.61538462 2.28571429,6.47762608 2.28571429,6.30769231 L2.28571429,3.23076923 Z M5.14285714,3.23076923 C5.14285714,3.06083546 5.27077579,2.92307692 5.42857143,2.92307692 C5.58636707,2.92307692 5.71428571,3.06083546 5.71428571,3.23076923 L5.71428571,6.30769231 C5.71428571,6.47762608 5.58636707,6.61538462 5.42857143,6.61538462 C5.27077579,6.61538462 5.14285714,6.47762608 5.14285714,6.30769231 L5.14285714,3.23076923 Z M2,1.53846154 L1.42857143,1.53846154 L1.42857143,0.923076923 C1.42857143,0.413275616 1.81232736,0 2.28571429,0 L5.71428571,0 C6.18767264,0 6.57142857,0.413275616 6.57142857,0.923076923 L6.57142857,1.53846154 L6,1.53846154 L6,1.23076923 L6.57142857,1.23076923 L6.57142857,1.53846154 L6,1.53846154 L6,0.923076923 C6,0.753143154 5.87208136,0.615384615 5.71428571,0.615384615 L2.28571429,0.615384615 C2.12791864,0.615384615 2,0.753143154 2,0.923076923 L2,1.53846154 Z" id="形状"></path>
                    </g>
                </g>
            </g>
        </g>
    </g>
</svg>