<?xml version="1.0" encoding="UTF-8"?>
<svg width="74px" height="80px" viewBox="0 0 74 80" version="1.1" xmlns="http://www.w3.org/2000/svg" xmlns:xlink="http://www.w3.org/1999/xlink">
    <title>jiangjia-01</title>
    <g id="页面-1" stroke="none" stroke-width="1" fill="none" fill-rule="evenodd">
        <g id="显示优惠幅度后，弹窗通知" transform="translate(-388.000000, -63.000000)" fill-rule="nonzero">
            <g id="jiangjia-01" transform="translate(388.000000, 63.000000)">
                <path d="M0,69.5577129 C0,73.2883827 6.95778558,76.7356638 18.2524269,78.6009988 C29.5470682,80.4663337 43.4626403,80.4663337 54.7572816,78.6009988 C66.051923,76.7356638 73.0097085,73.2883827 73.0097085,69.5577129 C73.0097085,63.790597 56.6659286,59.1154259 36.5048543,59.1154259 C16.34378,59.1154259 0,63.790597 0,69.5577129 L0,69.5577129 Z" id="路径" fill="#F2F8EA"></path>
                <path d="M53.4196331,76.2028045 L37.3678532,70.7659113 C36.8500538,70.5933116 36.2459546,70.5933116 35.7281552,70.7659113 L19.8489751,76.634304 C18.4681769,77.1521033 16.9147788,76.2891044 16.8284789,74.9083062 L16.5695792,53.505933 C16.5695792,52.4703343 17.5188781,51.6073353 18.7270765,51.6073353 L53.8511325,51.089536 C55.059331,51.089536 56.0086298,51.866235 56.0086298,52.9881336 L56.2675295,74.3905068 C56.3538294,75.7713051 54.8867312,76.7206039 53.4196331,76.2028045 L53.4196331,76.2028045 Z" id="路径" fill="#8AD1AC"></path>
                <path d="M3.36569578,33.1391585 C3.36569578,44.9786396 9.68198349,55.9187714 19.9352749,61.838512 C30.1885663,67.7582526 42.8211423,67.7582526 53.0744337,61.838512 C63.327725,55.9187714 69.6440128,44.9786396 69.6440128,33.1391585 C69.6440128,14.8369066 54.8071061,0 36.5048543,0 C18.2026024,0 3.36569578,14.8369066 3.36569578,33.1391585 Z" id="路径" fill="#05A776"></path>
                <path d="M51.3484357,38.4034519 C52.3840344,37.3678532 52.3840344,35.7281552 51.3484357,34.7788564 C50.8306363,34.2610571 50.1402372,34.0021574 49.5361379,34.0021574 C48.8457388,34.0021574 48.2416396,34.2610571 47.7238402,34.7788564 L39.1801509,43.3225457 L39.1801509,18.4681769 C39.1801509,17.0010787 38.0582523,15.8791801 36.5911542,15.8791801 C35.124056,15.8791801 34.0021574,17.0010787 34.0021574,18.4681769 L34.0021574,43.3225457 L25.4584681,34.7788564 C24.4228694,33.7432577 22.7831715,33.7432577 21.8338726,34.7788564 C20.7982739,35.8144551 20.7982739,37.4541531 21.8338726,38.4034519 L34.7788564,51.3484357 C35.8144551,52.3840344 37.4541531,52.3840344 38.4034519,51.3484357 L51.3484357,38.4034519 L51.3484357,38.4034519 Z" id="路径" fill="#FFFFFF"></path>
            </g>
        </g>
    </g>
</svg>