<?xml version="1.0" encoding="UTF-8"?>
<svg width="48px" height="48px" viewBox="0 0 48 48" version="1.1" xmlns="http://www.w3.org/2000/svg" xmlns:xlink="http://www.w3.org/1999/xlink">
    <title>编组 25</title>
    <g id="页面-1" stroke="none" stroke-width="1" fill="none" fill-rule="evenodd">
        <g id="联系锁价-反馈" transform="translate(-171.000000, -507.000000)" fill-rule="nonzero">
            <g id="编组-16" transform="translate(17.000000, 21.000000)">
                <g id="编组-20" transform="translate(146.000000, 470.000000)">
                    <g id="编组-25" transform="translate(8.000000, 16.000000)">
                        <path d="M37.7207685,43.6905154 C37.6628891,43.7318888 37.6028894,43.7732622 37.5428917,43.812567 C37.1953176,44.0525329 36.8408755,44.2821555 36.4795654,44.5014347 C35.9706805,44.8117354 35.4500447,45.1034182 34.9176583,45.3764828 C34.5950344,45.5419766 34.2701868,45.6991956 33.93928,45.84814 C33.8564524,45.8853761 33.7717051,45.9246809 33.6868586,45.9598483 C33.1096991,46.2163636 32.5200987,46.4501235 31.9202129,46.6569907 C30.3533155,47.2064614 28.7328565,47.5892123 27.0857021,47.7988975 C26.0635386,47.930357 25.0339841,47.9960002 24.0034019,47.9954288 C23.4842128,47.9954288 22.9670449,47.9788719 22.4560354,47.9457732 C22.0091692,47.9168118 21.5665458,47.877507 21.1279647,47.8237215 C20.4225145,47.738906 19.7253473,47.6251291 19.0385855,47.4782534 C19.0158591,47.474116 18.991006,47.46791 18.9682838,47.4637727 C17.5414778,47.1620251 16.1459431,46.7277902 14.7998295,46.1667155 C14.4337697,46.0136337 14.0717522,45.854346 13.7158972,45.6826463 C13.267012,45.4716417 12.8270827,45.2461565 12.3961094,45.0061906 C2.15260496,39.3466916 -2.5149245,27.1238329 1.34900631,16.0771433 C5.21293713,5.03045373 16.4814068,-1.61828272 28.0192069,0.340921888 C39.5570069,2.3001265 47.9991201,12.2958671 48,23.9988288 C48.0059566,31.8502153 44.1658498,39.2066293 37.7207685,43.6905154 Z" id="路径" fill="#F1F1F1"></path>
                        <circle id="椭圆形" fill="#FFB8B8" cx="23.3441989" cy="24.5544037" r="5.35847014"></circle>
                        <path d="M21.1279605,47.8237195 C20.4225104,47.7389039 19.7253432,47.625127 19.0385814,47.4782513 L19.6901923,32.8155058 L19.7833239,32.7182782 L21.1175551,31.3095128 L25.3604547,31.3095128 L26.926402,32.8258492 L27.0588259,32.9561755 L30.4079931,36.1646854 L31.9202046,46.6569886 C30.3533073,47.2064594 28.7328482,47.5892102 27.0856939,47.7988954 C26.0635303,47.9303549 25.0339758,47.9959981 24.0033936,47.995423 C23.4842046,47.995423 22.9670366,47.9788699 22.4560271,47.9457711 C22.0091651,47.9168118 21.5665417,47.877507 21.1279605,47.8237195 Z" id="路径" fill="#CBCBCB"></path>
                        <path d="M13.715893,45.6826483 C13.2670078,45.4716438 12.8270786,45.2461586 12.3961053,45.0061927 C12.3526632,41.0343429 12.3236811,38.3967864 12.3236811,38.3967864 L12.8284246,38.0885543 C12.834445,38.0854196 12.8406516,38.0826562 12.8470095,38.0802796 L18.5751513,34.6007737 L19.7770599,32.6479475 L19.7833239,32.7182824 L20.1370668,36.8349392 C21.2023294,40.4714834 21.97775,44.1867235 22.4560478,47.9457752 C22.0091816,47.9168138 21.5665583,47.8775091 21.1279771,47.8237236 C20.4225269,47.7389081 19.7253597,47.6251311 19.0385979,47.4782554 C19.0158715,47.4741181 18.9910185,47.4679121 18.9682962,47.4637747 C17.5414902,47.1620271 16.1459555,46.7277922 14.7998419,46.1667175 C14.4337656,46.0136317 14.071748,45.8543522 13.715893,45.6826483 Z" id="路径" fill="#2F2E41"></path>
                        <path d="M31.9202046,46.6569969 C30.3533073,47.2064676 28.7328482,47.5892185 27.0856939,47.7989037 C26.8574198,46.4637019 26.7735002,45.1078108 26.8353846,43.7546504 C27.2822508,36.6115268 26.2520564,32.6479517 26.6989205,32.6479517 L26.9263937,32.8258574 L29.7377869,35.0476109 L33.4385683,36.4046596 L33.4406908,36.4046596 L35.9872381,37.3376306 L36.4361233,37.5031346 L36.4361233,37.7162078 C36.4381424,38.452655 36.4422838,41.03022 36.4795654,44.5014512 C35.9706805,44.811752 35.4500447,45.1034347 34.9176583,45.3764994 C34.5950344,45.5419931 34.2701868,45.6992122 33.93928,45.8481566 C33.8564524,45.8853926 33.7717051,45.9246974 33.6868586,45.9598648 C33.1096909,46.2163698 32.5201049,46.4501297 31.9202046,46.6569969 Z" id="路径" fill="#2F2E41"></path>
                        <path d="M18.2747822,26.2308863 C18.2747822,26.2308863 18.7300555,25.4313447 18.624214,22.7603833 C18.5183725,20.0894219 22.5856191,21.6000798 25.9842316,21.3452835 C29.3828442,21.0904873 28.6634181,25.8045351 28.6634181,25.8045351 C28.6634181,25.8045351 28.9086074,25.5243108 29.4335556,23.2491732 C29.9585038,20.9740356 28.766591,18.7067672 28.766591,18.7067672 C28.415556,16.3160239 26.5237164,17.0822578 26.5237164,17.0822578 C27.4348029,17.4369357 27.2598181,18.195315 27.2598181,18.195315 C26.4886173,16.8431876 24.5967756,17.6094237 24.5967756,17.6094237 C22.0736166,16.0260747 19.5164052,18.1111469 19.5164052,18.1111469 C16.4682939,18.8029294 18.2558953,21.2269658 18.2558953,21.2269658 C15.1904961,22.7760824 18.2747822,26.2308863 18.2747822,26.2308863 Z" id="路径" fill="#2F2E41"></path>
                        <path d="M9.79571867,43.3388391 C9.8744068,41.5204766 9.90955767,40.3475397 9.86814286,40.1841146 C9.65511518,39.3318219 12.5636801,38.1899151 12.8284246,38.0885501 C12.834445,38.0854154 12.8406516,38.082652 12.8470095,38.0802754 L13.4387241,38.3967822 L13.715893,45.6826442 C13.2670078,45.4716397 12.8270786,45.2461545 12.3961053,45.0061885 C11.4941575,44.5072367 10.625537,43.9502835 9.79571867,43.3388391 Z" id="路径" fill="#2F2E41"></path>
                        <path d="M36.4795654,44.5014326 C35.9706805,44.8117334 35.4500447,45.1034161 34.9176583,45.3764808 C34.5950344,45.5419745 34.2701868,45.6991936 33.93928,45.8481379 C33.8564524,45.885374 33.7717051,45.9246788 33.6868586,45.9598462 L32.7559563,36.7687375 L33.2999921,36.3715526 C33.2999921,36.3715526 33.3496899,36.3839646 33.4385766,36.4046513 L33.440699,36.4046513 C33.8771598,36.5122222 35.217655,36.8680462 35.9872464,37.3376223 C36.1590041,37.4349576 36.3112089,37.5633194 36.4361316,37.7161892 C36.5121785,37.8074298 36.5499681,37.9245586 36.5415842,38.0430394 C36.5168367,38.2830053 36.9305711,40.5585442 37.5428917,43.8125649 C37.1953204,44.0525322 36.8408783,44.2821548 36.4795654,44.5014326 Z" id="路径" fill="#2F2E41"></path>
                    </g>
                </g>
            </g>
        </g>
    </g>
</svg>