<?xml version="1.0" encoding="UTF-8"?>
<svg width="18px" height="18px" viewBox="0 0 18 18" version="1.1" xmlns="http://www.w3.org/2000/svg" xmlns:xlink="http://www.w3.org/1999/xlink">
    <title>kefu</title>
    <defs>
        <linearGradient x1="0%" y1="0%" x2="100%" y2="100%" id="linearGradient-1">
            <stop stop-color="#FAD961" offset="0%"></stop>
            <stop stop-color="#F76B1C" offset="100%"></stop>
        </linearGradient>
    </defs>
    <g id="页面-1" stroke="none" stroke-width="1" fill="none" fill-rule="evenodd">
        <g id="通知反馈说明" transform="translate(-410.000000, -117.000000)" fill-rule="nonzero">
            <g id="编组-2" transform="translate(39.000000, 39.000000)">
                <g id="编组-20" transform="translate(362.000000, 68.000000)">
                    <g id="kefu" transform="translate(10.000000, 11.000000)">
                        <path d="M8,-0.25 C10.2781746,-0.25 12.3406746,0.673412703 13.8336309,2.16636906 C15.3265873,3.65932541 16.25,5.72182541 16.25,8 C16.25,10.2781746 15.3265873,12.3406746 13.8336309,13.8336309 C12.3406746,15.3265873 10.2781746,16.25 8,16.25 C5.72182541,16.25 3.65932541,15.3265873 2.16636906,13.8336309 C0.673412703,12.3406746 -0.25,10.2781746 -0.25,8 C-0.25,5.72182541 0.673412703,3.65932541 2.16636906,2.16636906 C3.65932541,0.673412703 5.72182541,-0.25 8,-0.25 Z" id="路径" stroke="#FA6400" stroke-width="0.5" fill="url(#linearGradient-1)"></path>
                        <path d="M7.62,11.12 C7.28,10.98 7.08,10.66 7.04,10.32 C6.94,10.16 6.86,9.96 6.86,9.74 L6.86,9.72 C6.78,9.48 6.78,9.22 6.86,8.98 C6.88,8.08 6.96,7.18 7.44,6.36 C7.54,6.18 7.68,6.06 7.82,5.98 C8.04,5.38 8.64,5.04 9.28,5.14 C8.62,4.58 7.78,4.24 6.86,4.24 C4.8,4.24 3.1,5.92 3.1,8 C3.1,8.82 3.38,9.64 3.88,10.28 L3.74,10.98 C3.72,11.12 3.76,11.26 3.88,11.36 C3.98,11.46 4.14,11.48 4.28,11.44 L4.94,11.22 C5.54,11.56 6.2,11.76 6.88,11.76 C7.28,11.76 7.66,11.7 8.02,11.58 C7.82,11.48 7.7,11.3 7.62,11.12 L7.62,11.12 Z" id="路径" fill="#FFFFFF" opacity="0.65"></path>
                        <path d="M8.7,3.8 C6.4,3.8 4.5,5.68 4.5,8 C4.5,8.92 4.8,9.82 5.36,10.54 L5.2,11.32 C5.18,11.48 5.22,11.64 5.36,11.74 C5.48,11.84 5.64,11.88 5.8,11.84 L6.54,11.6 C7.2,11.98 7.94,12.2 8.7,12.2 C11,12.2 12.9,10.32 12.9,8 C12.88,5.68 11,3.8 8.7,3.8 L8.7,3.8 Z M9.98,9.24 C9.72,9.74 9.24,10.06 8.7,10.06 L8.66,10.06 C8.14,10.06 7.66,9.76 7.36,9.26 C7.28,9.1 7.34,8.92 7.48,8.84 C7.64,8.76 7.82,8.82 7.9,8.96 C8.06,9.26 8.36,9.44 8.68,9.44 C9,9.44 9.28,9.26 9.44,8.94 C9.48,8.86 9.54,8.82 9.62,8.78 C9.7,8.76 9.78,8.76 9.86,8.8 C9.94,8.84 9.98,8.9 10,9 C10.04,9.08 10.02,9.16 9.98,9.24 L9.98,9.24 Z" id="形状" fill="#FFFFFF"></path>
                    </g>
                </g>
            </g>
        </g>
    </g>
</svg>