<?xml version="1.0" encoding="UTF-8"?>
<svg width="14px" height="9px" viewBox="0 0 14 9" version="1.1" xmlns="http://www.w3.org/2000/svg" xmlns:xlink="http://www.w3.org/1999/xlink">
    <title>形状</title>
    <g id="页面-1" stroke="none" stroke-width="1" fill="none" fill-rule="evenodd">
        <g id="工作台" transform="translate(-357.000000, -730.000000)" fill="#F56C6C" fill-rule="nonzero">
            <g id="编组-2" transform="translate(139.000000, 376.000000)">
                <g id="编组-15" transform="translate(16.000000, 316.000000)">
                    <g id="new" transform="translate(202.000000, 38.000000)">
                        <path d="M12.7650691,0 C13.4471026,0 14,0.552897398 14,1.2349309 L14,5.35136724 C14,6.03340074 13.4471026,6.58629814 12.7650691,6.58629814 L1.80876213,6.58629814 L0,8.35636578 L0,6.2981476 L0.00411642991,6.2981476 L0.00411642991,1.2349309 C0.00411642991,0.552897398 0.557013828,0 1.23904733,0 L12.7650691,0 Z M10.5010291,1.51073213 L9.51308438,1.51073213 L9.06027639,4.18435753 L8.68979712,1.54983828 L7.7018524,1.54983828 L8.36048221,4.92037635 L9.67774184,4.92037635 L10.0482211,2.67321377 L10.377536,4.92037635 L11.6947956,4.92037635 L12.3534255,1.54983828 L11.3654807,1.54983828 L11.0361658,4.22305205 L10.5010291,1.51114379 L10.5010291,1.51073213 Z M7.57835931,1.51073213 L5.14966186,1.51073213 L5.14966186,4.88168186 L7.57835931,4.88168186 L7.57835931,4.18435753 L6.05527785,4.18435753 L6.05527785,3.44792708 L7.37253749,3.44792708 L7.37253749,2.8284034 L6.05527785,2.8284034 L6.05527785,2.1697736 L7.57835931,2.1697736 L7.57835931,1.51114379 L7.57835931,1.51073213 Z M3.37959424,1.51073213 L2.02117025,1.51073213 L2.02117025,4.88168186 L2.92678624,4.88168186 L2.92678624,2.4019406 L3.54425169,4.88168186 L4.90267568,4.88168186 L4.90267568,1.51073213 L3.99705969,1.51073213 L3.99705969,4.10614525 L3.37959424,1.51073213 L3.37959424,1.51073213 Z" id="形状"></path>
                    </g>
                </g>
            </g>
        </g>
    </g>
</svg>