<?xml version="1.0" encoding="UTF-8"?>
<svg width="54px" height="18px" viewBox="0 0 54 18" version="1.1" xmlns="http://www.w3.org/2000/svg" xmlns:xlink="http://www.w3.org/1999/xlink">
    <title>编组 6</title>
    <defs>
        <linearGradient x1="58.2107132%" y1="2.18829719%" x2="58.2107127%" y2="96.8829537%" id="linearGradient-1">
            <stop stop-color="#FFFFFF" offset="0%"></stop>
            <stop stop-color="#E6E6E6" offset="100%"></stop>
        </linearGradient>
        <linearGradient x1="-7.63278329e-14%" y1="44.4444444%" x2="96.7158684%" y2="55.0624586%" id="linearGradient-2">
            <stop stop-color="#CCD6E7" offset="0%"></stop>
            <stop stop-color="#8799B5" offset="59.6454327%"></stop>
            <stop stop-color="#CCD6E8" offset="100%"></stop>
        </linearGradient>
        <polygon id="path-3" points="16.75 5.25 16.75 5.84375402 16.1737887 5.84375402 8.9326886 13.292668 6.7870775 13.292668 6.7870775 5.83565737 6.25 5.82756072 6.25 5.25 8.39426166 5.25 8.39426166 10.6639571 13.75694 5.25"></polygon>
        <filter x="-9.5%" y="-12.4%" width="119.0%" height="124.9%" filterUnits="objectBoundingBox" id="filter-4">
            <feGaussianBlur stdDeviation="0.5" in="SourceAlpha" result="shadowBlurInner1"></feGaussianBlur>
            <feOffset dx="0" dy="1" in="shadowBlurInner1" result="shadowOffsetInner1"></feOffset>
            <feComposite in="shadowOffsetInner1" in2="SourceAlpha" operator="arithmetic" k2="-1" k3="1" result="shadowInnerInner1"></feComposite>
            <feColorMatrix values="0 0 0 0 0   0 0 0 0 0   0 0 0 0 0  0 0 0 0.1 0" type="matrix" in="shadowInnerInner1"></feColorMatrix>
        </filter>
    </defs>
    <g id="页面-1" stroke="none" stroke-width="1" fill="none" fill-rule="evenodd">
        <g id="开通后说明" transform="translate(-246.000000, -239.000000)">
            <g id="编组-11" transform="translate(30.000000, 68.000000)">
                <g id="编组-6" transform="translate(216.000000, 171.000000)">
                    <path d="M45,0.25 C47.4162458,0.25 49.6037458,1.22937711 51.1871843,2.81281566 C52.7706229,4.39625422 53.75,6.58375422 53.75,9 C53.75,11.4162458 52.7706229,13.6037458 51.1871843,15.1871843 C49.6037458,16.7706229 47.4162458,17.75 45,17.75 L45,17.75 L9,17.75 C6.58375422,17.75 4.39625422,16.7706229 2.81281566,15.1871843 C1.22937711,13.6037458 0.25,11.4162458 0.25,9 C0.25,6.58375422 1.22937711,4.39625422 2.81281566,2.81281566 C4.39625422,1.22937711 6.58375422,0.25 9,0.25 L9,0.25 Z" id="矩形-3" stroke="url(#linearGradient-2)" stroke-width="0.5" fill="url(#linearGradient-1)"></path>
                    <text id="未认证" font-family="PingFangSC-Medium, PingFang SC" font-size="10" font-weight="400" letter-spacing="-0.714285714" fill="#969799">
                        <tspan x="18" y="13">未认证</tspan>
                    </text>
                    <g id="路径">
                        <use fill="#969799" fill-rule="evenodd" xlink:href="#path-3"></use>
                        <use fill="black" fill-opacity="1" filter="url(#filter-4)" xlink:href="#path-3"></use>
                    </g>
                </g>
            </g>
        </g>
    </g>
</svg>