<?xml version="1.0" encoding="UTF-8"?>
<svg width="240px" height="120px" viewBox="0 0 240 120" version="1.1" xmlns="http://www.w3.org/2000/svg" xmlns:xlink="http://www.w3.org/1999/xlink">
    <title>undraw_container_ship_re_alm4-2</title>
    <g id="页面-1" stroke="none" stroke-width="1" fill="none" fill-rule="evenodd">
        <g id="其他情况" transform="translate(-735.000000, -2251.000000)" fill-rule="nonzero">
            <g id="编组-9备份" transform="translate(73.000000, 1874.000000)">
                <g id="undraw_container_ship_re_alm4-2" transform="translate(662.000000, 377.552319)">
                    <path d="M78.864063,90.5086638 C73.0109625,90.3685676 66.7361838,93.6481691 65.0706508,99.2610437 L96.8432917,97.9675996 C96.2424064,97.55225 95.6388151,97.142094 95.0325178,96.7371316 C90.1575828,93.4947108 84.71715,90.6487713 78.864063,90.5086638 Z" id="路径" fill="#F2F2F2"></path>
                    <path d="M96.8432917,97.9675996 C101.068437,100.888171 105.191795,104.005103 109.899573,106.032589 C121.55675,111.05295 134.976141,108.711598 147.241814,105.448571 C159.507485,102.185549 172.028111,98.0395704 184.608464,99.7213621 C191.742155,100.675029 198.477006,103.466013 205.362818,105.559941 C212.24863,107.65387 219.65745,109.056009 226.604725,107.176037 C233.552016,105.296064 239.81836,99.3346549 240,92.1397907 C187.55205,82.4425828 138.926938,82.1546564 96.8432917,97.9675996 Z" id="路径" fill="#F2F2F2"></path>
                    <path d="M13.7934122,100.901893 C7.94031169,100.761797 1.66553301,104.041398 0,109.654273 L31.7726409,108.360829 C31.1717556,107.945479 30.5681643,107.535323 29.961867,107.130361 C25.086932,103.88794 19.6464992,101.042 13.7934122,100.901893 Z" id="路径" fill="#F2F2F2"></path>
                    <path d="M31.7726409,108.360829 C35.9977867,111.2814 40.1211444,114.398332 44.8289224,116.425818 C56.486099,121.446179 69.9054905,119.104827 82.1711636,115.8418 C94.4368344,112.578778 106.95746,108.432799 119.537813,110.114591 C126.671504,111.068258 133.406355,113.859242 140.292167,115.95317 C147.17798,118.047099 154.5868,119.449238 161.534074,117.569266 C168.481365,115.689293 174.747709,109.727884 174.929349,102.53302 C122.481399,92.8358117 73.8562867,92.5478854 31.7726409,108.360829 Z" id="路径" fill="#F2F2F2"></path>
                    <path d="M102.200832,59.9739401 L69.3582283,59.9739401 C68.3826881,59.9745633 67.59201,60.7652353 67.5913794,61.7407755 L67.5913794,73.7065451 C67.5920025,74.6820906 68.3826828,75.4727709 69.3582283,75.4733941 L102.200832,75.4733941 C103.176377,75.4727709 103.967058,74.6820906 103.967681,73.7065451 L103.967681,61.7407755 C103.96705,60.7652353 103.176372,59.9745633 102.200832,59.9739401 Z" id="路径" fill="#E6E6E6"></path>
                    <rect id="矩形" fill="#CCCCCC" x="69.9637491" y="59.9739491" width="1" height="15.499463"></rect>
                    <rect id="矩形" fill="#CCCCCC" x="73.804725" y="59.9739491" width="1" height="15.499463"></rect>
                    <rect id="矩形" fill="#CCCCCC" x="77.6457009" y="59.9739491" width="1" height="15.499463"></rect>
                    <rect id="矩形" fill="#CCCCCC" x="81.4866768" y="59.9739491" width="1" height="15.499463"></rect>
                    <rect id="矩形" fill="#CCCCCC" x="85.3276528" y="59.9739491" width="1" height="15.499463"></rect>
                    <rect id="矩形" fill="#CCCCCC" x="89.1686287" y="59.9739491" width="1" height="15.499463"></rect>
                    <rect id="矩形" fill="#CCCCCC" x="93.0096046" y="59.9739491" width="1" height="15.499463"></rect>
                    <rect id="矩形" fill="#CCCCCC" x="96.8505805" y="59.9739491" width="1" height="15.499463"></rect>
                    <rect id="矩形" fill="#CCCCCC" x="100.691556" y="59.9739491" width="1" height="15.499463"></rect>
                    <path d="M136.102966,31.9861155 L132.070829,23.3108919 C131.466796,22.0113226 130.163817,21.1800917 128.73073,21.1800879 L123.979669,21.1800879 C124.970484,19.471043 124.589854,17.2971587 123.077303,16.0264342 C121.564753,14.7557097 119.357797,14.7557097 117.845247,16.0264342 C116.332697,17.2971587 115.952066,19.471043 116.942881,21.1800879 L112.19184,21.1800879 C110.758754,21.1800917 109.455775,22.0113226 108.851741,23.3108919 L104.819605,31.9861155 C104.289443,33.1267607 104.378019,34.4590863 105.054513,35.51951 C105.731007,36.5799338 106.901871,37.2218174 108.159704,37.2218176 L119.331587,37.2218176 L119.331587,79.2466129 L121.590984,79.2466129 L121.590984,37.2218176 L132.762867,37.2218176 C134.0207,37.2218174 135.191564,36.5799338 135.868057,35.51951 C136.544551,34.4590863 136.633128,33.1267607 136.102966,31.9861155 Z" id="路径" fill="#E6E6E6"></path>
                    <path d="M182.861326,59.9739401 L150.018722,59.9739401 C149.043182,59.9745633 148.252504,60.7652353 148.251874,61.7407755 L148.251874,73.7065451 C148.252497,74.6820906 149.043177,75.4727709 150.018722,75.4733941 L182.861326,75.4733941 C183.836871,75.4727709 184.627552,74.6820906 184.628175,73.7065451 L184.628175,61.7407755 C184.627544,60.7652353 183.836866,59.9745633 182.861326,59.9739401 Z" id="路径" fill="#E6E6E6"></path>
                    <rect id="矩形" fill="#CCCCCC" x="150.624243" y="59.9739491" width="1" height="15.499463"></rect>
                    <rect id="矩形" fill="#CCCCCC" x="154.465219" y="59.9739491" width="1" height="15.499463"></rect>
                    <rect id="矩形" fill="#CCCCCC" x="158.306195" y="59.9739491" width="1" height="15.499463"></rect>
                    <rect id="矩形" fill="#CCCCCC" x="162.147171" y="59.9739491" width="1" height="15.499463"></rect>
                    <rect id="矩形" fill="#CCCCCC" x="165.988147" y="59.9739491" width="1" height="15.499463"></rect>
                    <rect id="矩形" fill="#CCCCCC" x="169.829123" y="59.9739491" width="1" height="15.499463"></rect>
                    <rect id="矩形" fill="#CCCCCC" x="173.670099" y="59.9739491" width="1" height="15.499463"></rect>
                    <rect id="矩形" fill="#CCCCCC" x="177.511075" y="59.9739491" width="1" height="15.499463"></rect>
                    <rect id="矩形" fill="#CCCCCC" x="181.352051" y="59.9739491" width="1" height="15.499463"></rect>
                    <path d="M146.259085,59.9739401 L113.416481,59.9739401 C112.440941,59.9745633 111.650263,60.7652353 111.649633,61.7407755 L111.649633,73.7065451 C111.650256,74.6820906 112.440936,75.4727709 113.416481,75.4733941 L146.259085,75.4733941 C147.23463,75.4727709 148.025311,74.6820906 148.025934,73.7065451 L148.025934,61.7407755 C148.025303,60.7652353 147.234625,59.9745633 146.259085,59.9739401 Z" id="路径" fill="#E6E6E6"></path>
                    <rect id="矩形" fill="#CCCCCC" x="114.022002" y="59.9739491" width="1" height="15.499463"></rect>
                    <rect id="矩形" fill="#CCCCCC" x="117.862978" y="59.9739491" width="1" height="15.499463"></rect>
                    <rect id="矩形" fill="#CCCCCC" x="121.703954" y="59.9739491" width="1" height="15.499463"></rect>
                    <rect id="矩形" fill="#CCCCCC" x="125.54493" y="59.9739491" width="1" height="15.499463"></rect>
                    <rect id="矩形" fill="#CCCCCC" x="129.385906" y="59.9739491" width="1" height="15.499463"></rect>
                    <rect id="矩形" fill="#CCCCCC" x="133.226882" y="59.9739491" width="1" height="15.499463"></rect>
                    <rect id="矩形" fill="#CCCCCC" x="137.067858" y="59.9739491" width="1" height="15.499463"></rect>
                    <rect id="矩形" fill="#CCCCCC" x="140.908834" y="59.9739491" width="1" height="15.499463"></rect>
                    <rect id="矩形" fill="#CCCCCC" x="144.74981" y="59.9739491" width="1" height="15.499463"></rect>
                    <path d="M185.346663,44.3840967 L152.50406,44.3840967 C151.52852,44.3847198 150.737842,45.1753919 150.737211,46.1509321 L150.737211,58.1167017 C150.737834,59.0922472 151.528514,59.8829275 152.50406,59.8835506 L185.346663,59.8835506 C186.322209,59.8829275 187.112889,59.0922472 187.113512,58.1167017 L187.113512,46.1509321 C187.112882,45.1753919 186.322204,44.3847198 185.346663,44.3840967 L185.346663,44.3840967 Z" id="路径" fill="#E6E6E6"></path>
                    <rect id="矩形" fill="#CCCCCC" x="153.109581" y="44.3841057" width="1" height="15.499463"></rect>
                    <rect id="矩形" fill="#CCCCCC" x="156.950557" y="44.3841057" width="1" height="15.499463"></rect>
                    <rect id="矩形" fill="#CCCCCC" x="160.791533" y="44.3841057" width="1" height="15.499463"></rect>
                    <rect id="矩形" fill="#CCCCCC" x="164.632508" y="44.3841057" width="1" height="15.499463"></rect>
                    <rect id="矩形" fill="#CCCCCC" x="168.473484" y="44.3841057" width="1" height="15.499463"></rect>
                    <rect id="矩形" fill="#CCCCCC" x="172.31446" y="44.3841057" width="1" height="15.499463"></rect>
                    <rect id="矩形" fill="#CCCCCC" x="176.155436" y="44.3841057" width="1" height="15.499463"></rect>
                    <rect id="矩形" fill="#CCCCCC" x="179.996412" y="44.3841057" width="1" height="15.499463"></rect>
                    <rect id="矩形" fill="#CCCCCC" x="183.837388" y="44.3841057" width="1" height="15.499463"></rect>
                    <path d="M175.631254,61.1036389 L142.78865,61.1036389 C141.81311,61.1042621 141.022432,61.8949341 141.021801,62.8704743 L141.021801,74.8362439 C141.022424,75.8117894 141.813105,76.6024697 142.78865,76.6030929 L175.631254,76.6030929 C176.606799,76.6024697 177.397479,75.8117894 177.398103,74.8362439 L177.398103,62.8704743 C177.397472,61.8949341 176.606794,61.1042621 175.631254,61.1036389 Z" id="路径" fill="#F8FAFB"></path>
                    <rect id="矩形" fill="#3F3D56" x="143.394171" y="61.1036479" width="1" height="15.499463"></rect>
                    <rect id="矩形" fill="#3F3D56" x="147.235147" y="61.1036479" width="1" height="15.499463"></rect>
                    <rect id="矩形" fill="#3F3D56" x="151.076123" y="61.1036479" width="1" height="15.499463"></rect>
                    <rect id="矩形" fill="#3F3D56" x="154.917099" y="61.1036479" width="1" height="15.499463"></rect>
                    <rect id="矩形" fill="#3F3D56" x="158.758075" y="61.1036479" width="1" height="15.499463"></rect>
                    <rect id="矩形" fill="#3F3D56" x="162.599051" y="61.1036479" width="1" height="15.499463"></rect>
                    <rect id="矩形" fill="#3F3D56" x="166.440026" y="61.1036479" width="1" height="15.499463"></rect>
                    <rect id="矩形" fill="#3F3D56" x="170.281002" y="61.1036479" width="1" height="15.499463"></rect>
                    <rect id="矩形" fill="#3F3D56" x="174.121978" y="61.1036479" width="1" height="15.499463"></rect>
                    <path d="M134.284278,61.1036389 L101.441674,61.1036389 C100.466134,61.1042621 99.6754559,61.8949341 99.6748252,62.8704743 L99.6748252,74.8362439 C99.6754484,75.8117894 100.466129,76.6024697 101.441674,76.6030929 L134.284278,76.6030929 C135.259823,76.6024697 136.050503,75.8117894 136.051127,74.8362439 L136.051127,62.8704743 C136.050496,61.8949341 135.259818,61.1042621 134.284278,61.1036389 Z" id="路径" fill="#F8FAFB"></path>
                    <rect id="矩形" fill="#3F3D56" x="102.047195" y="61.1036479" width="1" height="15.499463"></rect>
                    <rect id="矩形" fill="#3F3D56" x="105.888171" y="61.1036479" width="1" height="15.499463"></rect>
                    <rect id="矩形" fill="#3F3D56" x="109.729147" y="61.1036479" width="1" height="15.499463"></rect>
                    <rect id="矩形" fill="#3F3D56" x="113.570123" y="61.1036479" width="1" height="15.499463"></rect>
                    <rect id="矩形" fill="#3F3D56" x="117.411099" y="61.1036479" width="1" height="15.499463"></rect>
                    <rect id="矩形" fill="#3F3D56" x="121.252075" y="61.1036479" width="1" height="15.499463"></rect>
                    <rect id="矩形" fill="#3F3D56" x="125.09305" y="61.1036479" width="1" height="15.499463"></rect>
                    <rect id="矩形" fill="#3F3D56" x="128.934026" y="61.1036479" width="1" height="15.499463"></rect>
                    <rect id="矩形" fill="#3F3D56" x="132.775002" y="61.1036479" width="1" height="15.499463"></rect>
                    <path d="M146.710964,45.5137955 L113.868361,45.5137955 C112.892821,45.5144186 112.102143,46.3050907 112.101512,47.2806309 L112.101512,59.2464005 C112.102135,60.221946 112.892815,61.0126263 113.868361,61.0132494 L146.710964,61.0132494 C147.68651,61.0126263 148.47719,60.221946 148.477813,59.2464005 L148.477813,47.2806309 C148.477183,46.3050907 147.686505,45.5144186 146.710964,45.5137955 Z" id="路径" fill="#F8FAFB"></path>
                    <rect id="矩形" fill="#3F3D56" x="114.473882" y="45.5138045" width="1" height="15.499463"></rect>
                    <rect id="矩形" fill="#3F3D56" x="118.314858" y="45.5138045" width="1" height="15.499463"></rect>
                    <rect id="矩形" fill="#3F3D56" x="122.155834" y="45.5138045" width="1" height="15.499463"></rect>
                    <rect id="矩形" fill="#3F3D56" x="125.99681" y="45.5138045" width="1" height="15.499463"></rect>
                    <rect id="矩形" fill="#3F3D56" x="129.837785" y="45.5138045" width="1" height="15.499463"></rect>
                    <rect id="矩形" fill="#3F3D56" x="133.678761" y="45.5138045" width="1" height="15.499463"></rect>
                    <rect id="矩形" fill="#3F3D56" x="137.519737" y="45.5138045" width="1" height="15.499463"></rect>
                    <rect id="矩形" fill="#3F3D56" x="141.360713" y="45.5138045" width="1" height="15.499463"></rect>
                    <rect id="矩形" fill="#3F3D56" x="145.201689" y="45.5138045" width="1" height="15.499463"></rect>
                    <path d="M90.2260245,61.1036389 L57.383421,61.1036389 C56.4078808,61.1042621 55.6172027,61.8949341 55.6165721,62.8704743 L55.6165721,74.8362439 C55.6171952,75.8117894 56.4078755,76.6024697 57.383421,76.6030929 L90.2260245,76.6030929 C91.20157,76.6024697 91.9922503,75.8117894 91.9928734,74.8362439 L91.9928734,62.8704743 C91.9922428,61.8949341 91.2015647,61.1042621 90.2260245,61.1036389 Z" id="路径" fill="#F8FAFB"></path>
                    <rect id="矩形" fill="#3F3D56" x="57.9889418" y="61.1036479" width="1" height="15.499463"></rect>
                    <rect id="矩形" fill="#3F3D56" x="61.8299177" y="61.1036479" width="1" height="15.499463"></rect>
                    <rect id="矩形" fill="#3F3D56" x="65.6708937" y="61.1036479" width="1" height="15.499463"></rect>
                    <rect id="矩形" fill="#3F3D56" x="69.5118696" y="61.1036479" width="1" height="15.499463"></rect>
                    <rect id="矩形" fill="#3F3D56" x="73.3528455" y="61.1036479" width="1" height="15.499463"></rect>
                    <rect id="矩形" fill="#3F3D56" x="77.1938214" y="61.1036479" width="1" height="15.499463"></rect>
                    <rect id="矩形" fill="#3F3D56" x="81.0347973" y="61.1036479" width="1" height="15.499463"></rect>
                    <rect id="矩形" fill="#3F3D56" x="84.8757732" y="61.1036479" width="1" height="15.499463"></rect>
                    <rect id="矩形" fill="#3F3D56" x="88.7167492" y="61.1036479" width="1" height="15.499463"></rect>
                    <path d="M98.3598558,45.5137955 L65.5172524,45.5137955 C64.5417122,45.5144186 63.7510341,46.3050907 63.7504034,47.2806309 L63.7504034,59.2464005 C63.7510266,60.221946 64.5417069,61.0126263 65.5172524,61.0132494 L98.3598558,61.0132494 C99.3354013,61.0126263 100.126082,60.221946 100.126705,59.2464005 L100.126705,47.2806309 C100.126074,46.3050907 99.335396,45.5144186 98.3598558,45.5137955 Z" id="路径" fill="#F8FAFB"></path>
                    <rect id="矩形" fill="#3F3D56" x="66.1227732" y="45.5138045" width="1" height="15.499463"></rect>
                    <rect id="矩形" fill="#3F3D56" x="69.9637491" y="45.5138045" width="1" height="15.499463"></rect>
                    <rect id="矩形" fill="#3F3D56" x="73.804725" y="45.5138045" width="1" height="15.499463"></rect>
                    <rect id="矩形" fill="#3F3D56" x="77.6457009" y="45.5138045" width="1" height="15.499463"></rect>
                    <rect id="矩形" fill="#3F3D56" x="81.4866768" y="45.5138045" width="1" height="15.499463"></rect>
                    <rect id="矩形" fill="#3F3D56" x="85.3276528" y="45.5138045" width="1" height="15.499463"></rect>
                    <rect id="矩形" fill="#3F3D56" x="89.1686287" y="45.5138045" width="1" height="15.499463"></rect>
                    <rect id="矩形" fill="#3F3D56" x="93.0096046" y="45.5138045" width="1" height="15.499463"></rect>
                    <rect id="矩形" fill="#3F3D56" x="96.8505805" y="45.5138045" width="1" height="15.499463"></rect>
                    <path d="M204.546233,77.518176 C204.491869,77.322833 204.421822,77.1321983 204.336774,76.94813 L200.304637,68.2729063 C199.700604,66.9733371 198.397624,66.1421061 196.964538,66.1421023 L180.425648,66.1421023 C178.992562,66.1421061 177.689582,66.9733371 177.085549,68.2729063 L173.770335,75.4056325 L79.247964,75.4056325 L76.037769,68.4988461 C75.4337357,67.1992768 74.1307562,66.3680459 72.6976699,66.3680421 L56.1587801,66.3680421 C55.5239872,66.3683386 54.900081,66.532956 54.3477735,66.8458753 L51.5670063,61.8802074 C51.1893609,61.2058444 50.4040454,60.8714736 49.6561819,61.0666188 C48.9083183,61.2617639 48.386502,61.9372134 48.386502,62.710118 L48.386502,101.708927 C48.386502,102.882381 48.8526521,104.007773 49.6824092,104.83753 C50.5121663,105.667287 51.6375589,106.133438 52.8110126,106.133438 L179.377421,106.133438 C180.567981,106.133438 181.708302,105.653631 182.540715,104.802442 L203.936883,82.9236447 C205.367966,81.4806782 205.620157,79.2435282 204.546233,77.518176 Z" id="路径" fill="#969799"></path>
                    <path d="M182.278094,74.8407763 L180.200065,74.8407763 C179.276938,74.8397205 178.528859,74.0916416 178.527804,73.1685148 L178.527804,70.8645506 C178.528859,69.9414234 179.276938,69.1933439 180.200065,69.1922868 L182.278094,69.1922868 C183.201222,69.1933427 183.949302,69.9414225 183.950358,70.8645506 L183.950358,73.1685193 C183.949298,74.0916447 183.20122,74.8397205 182.278094,74.8407763 L182.278094,74.8407763 Z" id="路径" fill="#FFFFFF"></path>
                    <path d="M189.734106,74.8407763 L187.656077,74.8407763 C186.73295,74.8397205 185.984872,74.0916416 185.983816,73.1685148 L185.983816,70.8645506 C185.984872,69.9414234 186.73295,69.1933439 187.656077,69.1922868 L189.734106,69.1922868 C190.657234,69.1933427 191.405314,69.9414225 191.40637,70.8645506 L191.40637,73.1685193 C191.40531,74.0916447 190.657232,74.8397205 189.734106,74.8407763 L189.734106,74.8407763 Z" id="路径" fill="#FFFFFF"></path>
                    <path d="M197.190118,74.8407763 L195.112089,74.8407763 C194.188962,74.8397205 193.440884,74.0916416 193.439828,73.1685148 L193.439828,70.8645506 C193.440884,69.9414234 194.188962,69.1933439 195.112089,69.1922868 L197.190118,69.1922868 C198.113246,69.1933427 198.861326,69.9414225 198.862382,70.8645506 L198.862382,73.1685193 C198.861322,74.0916447 198.113244,74.8397205 197.190118,74.8407763 L197.190118,74.8407763 Z" id="路径" fill="#FFFFFF"></path>
                    <path d="M114.044287,29.8787641 L111.966258,29.8787641 C111.043131,29.8777083 110.295052,29.1296294 110.293996,28.2065026 L110.293996,25.9025384 C110.295052,24.9794112 111.043131,24.2313317 111.966258,24.2302746 L114.044287,24.2302746 C114.967415,24.2313305 115.715495,24.9794103 115.71655,25.9025384 L115.71655,28.2065071 C115.715491,29.1296326 114.967412,29.8777083 114.044287,29.8787641 L114.044287,29.8787641 Z" id="路径" fill="#FFFFFF"></path>
                    <path d="M121.500299,29.8787641 L119.42227,29.8787641 C118.499143,29.8777083 117.751064,29.1296294 117.750008,28.2065026 L117.750008,25.9025384 C117.751064,24.9794112 118.499143,24.2313317 119.42227,24.2302746 L121.500299,24.2302746 C122.423427,24.2313305 123.171507,24.9794103 123.172563,25.9025384 L123.172563,28.2065071 C123.171503,29.1296326 122.423424,29.8777083 121.500299,29.8787641 Z" id="路径" fill="#FFFFFF"></path>
                    <path d="M128.956311,29.8787641 L126.878282,29.8787641 C125.955155,29.8777083 125.207076,29.1296294 125.20602,28.2065026 L125.20602,25.9025384 C125.207076,24.9794112 125.955155,24.2313317 126.878282,24.2302746 L128.956311,24.2302746 C129.879439,24.2313305 130.627519,24.9794103 130.628575,25.9025384 L130.628575,28.2065071 C130.627515,29.1296326 129.879436,29.8777083 128.956311,29.8787641 Z" id="路径" fill="#FFFFFF"></path>
                    <path d="M58.0112263,75.0667161 L55.9331973,75.0667161 C55.0100705,75.0656602 54.2619916,74.3175814 54.2609358,73.3944546 L54.2609358,71.0904903 C54.2619916,70.1673632 55.0100701,69.4192837 55.9331973,69.4182266 L58.0112263,69.4182266 C58.9343543,69.4192824 59.6824342,70.1673623 59.68349,71.0904903 L59.68349,73.3944591 C59.6824304,74.3175845 58.9343517,75.0656602 58.0112263,75.0667161 Z" id="路径" fill="#FFFFFF"></path>
                    <path d="M65.4672383,75.0667161 L63.3892094,75.0667161 C62.4660825,75.0656602 61.7180037,74.3175814 61.7169479,73.3944546 L61.7169479,71.0904903 C61.7180037,70.1673632 62.4660822,69.4192837 63.3892094,69.4182266 L65.4672383,69.4182266 C66.3903664,69.4192824 67.1384463,70.1673623 67.1395021,71.0904903 L67.1395021,73.3944591 C67.1384425,74.3175845 66.3903638,75.0656602 65.4672383,75.0667161 Z" id="路径" fill="#FFFFFF"></path>
                    <path d="M72.9232504,75.0667161 L70.8452214,75.0667161 C69.9220946,75.0656602 69.1740158,74.3175814 69.1729599,73.3944546 L69.1729599,71.0904903 C69.1740158,70.1673632 69.9220942,69.4192837 70.8452214,69.4182266 L72.9232504,69.4182266 C73.8463785,69.4192824 74.5944583,70.1673623 74.5955142,71.0904903 L74.5955142,73.3944591 C74.5944546,74.3175845 73.8463758,75.0656602 72.9232504,75.0667161 L72.9232504,75.0667161 Z" id="路径" fill="#FFFFFF"></path>
                    <path d="M45.1155744,98.8615257 C39.2624739,98.7214431 32.9876952,102.001033 31.3221622,107.613906 L63.0948008,106.320461 C62.4939185,105.905112 61.890328,105.494956 61.2840292,105.089994 C56.409101,101.847582 50.9686591,99.0016445 45.1155744,98.8615257 Z" id="路径" fill="#F8FAFB"></path>
                    <path d="M63.0948008,106.320461 C67.3199466,109.241033 71.4433066,112.357965 76.1510823,114.385451 C87.8082612,119.405812 101.227653,117.06446 113.493319,113.801435 C125.758985,110.538411 138.279618,106.392432 150.859969,108.074226 C157.993662,109.027891 164.72851,111.818877 171.614323,113.912806 C178.500135,116.006734 185.908957,117.408873 192.856232,115.528901 C199.803521,113.648928 206.069867,107.687519 206.251507,100.492653 C153.803561,90.7954469 105.178447,90.5075206 63.0948008,106.320461 Z" id="路径" fill="#F8FAFB"></path>
                    <circle id="椭圆形" fill="#FD6584" cx="173.313028" cy="6.03276104" r="6.03276104"></circle>
                    <path d="M186.814775,3.17614817 C186.467045,2.03602865 185.475424,1.21130577 184.291028,1.0771678 C184.277495,1.07603685 184.263891,1.07603685 184.250358,1.0771678 C184.234116,1.07208793 184.217494,1.06831032 184.200652,1.06587082 C182.18075,0.803780695 179.934909,1.44093082 178.423372,2.82820094 L178.406795,2.84341573 C177.627879,3.56400664 176.531242,3.82961432 175.508932,3.54528403 C175.232501,3.46896752 174.945634,3.43740115 174.659222,3.45178338 C173.406518,3.53459977 172.340219,4.39396448 171.993133,5.6004705 C171.954888,5.74822413 172.018303,5.90354425 172.149032,5.98230869 C172.330742,6.13772665 172.546811,6.24769753 172.779404,6.30314315 C173.27873,6.40933484 173.782576,6.50648893 174.286422,6.59460544 C175.271519,6.76631966 176.261888,6.90564918 177.25753,7.012594 C177.915014,7.08263532 178.574005,7.13836713 179.234503,7.17978942 C180.599179,7.26564653 181.970633,7.2859811 183.337569,7.24305255 C184.015388,7.22045857 184.666094,7.1978646 185.285169,6.89962412 C185.736285,6.67776705 186.121763,6.34212841 186.403571,5.92582375 C186.940611,5.11520882 187.091174,4.10840996 186.814775,3.17614817 Z" id="路径" fill="#E6E6E6"></path>
                    <path d="M174.403904,11.9652093 C174.39247,11.7124267 174.349975,11.4620114 174.277377,11.2196081 C173.928031,10.0796579 172.936015,9.25534421 171.751371,9.12062777 C171.738593,9.11949747 171.725739,9.11949747 171.712961,9.12062777 C171.695891,9.11578432 171.678535,9.11201132 171.660995,9.10933078 C170.543061,8.97238918 169.408639,9.08899758 168.34194,9.45049982 C167.42572,9.74949002 166.582905,10.2384567 165.868577,10.8854432 C165.090045,11.6068489 163.993149,11.8730258 162.970559,11.5886875 C162.693682,11.512389 162.406388,11.4808436 162.119552,11.4952456 C160.866846,11.5780568 159.800545,12.4374236 159.453463,13.6439327 C159.417417,13.7915308 159.480313,13.9455783 159.609361,14.0257709 C159.791359,14.1807584 160.00732,14.2906741 160.239733,14.3466054 C160.74132,14.4527971 161.242906,14.5499512 161.749011,14.6380677 C162.734108,14.8097819 163.723724,14.9491114 164.717859,15.0560562 C166.737564,15.2728775 168.769837,15.3498804 170.800158,15.2865148 C171.475718,15.2639208 172.128684,15.2413268 172.747758,14.9430863 C173.19821,14.7211481 173.582937,14.3854859 173.863901,13.969286 C174.259967,13.3790829 174.449817,12.6745046 174.403904,11.9652093 L174.403904,11.9652093 Z" id="路径" fill="#E6E6E6"></path>
                    <path d="M176.643502,26.7067958 C176.571479,27.0211536 176.621999,27.3511442 176.784771,27.6295564 C176.98078,27.9207176 177.34888,28.0424877 177.679856,27.9256572 C178.31181,27.7294557 178.935277,27.4996704 179.561828,27.2867606 C179.739503,27.2334307 179.843786,27.0497634 179.798536,26.8698611 C179.747297,26.6905312 179.561889,26.5852601 179.381637,26.633153 L177.815919,27.1652073 C177.697814,27.2053409 177.580133,27.2509785 177.459784,27.2839318 C177.447202,27.2873774 177.401221,27.2974882 177.403697,27.2972623 C177.409472,27.2967268 177.445175,27.3005384 177.40555,27.2977932 C177.382956,27.290997 177.383111,27.2924791 177.406017,27.3022397 L177.376071,27.2851948 C177.40341,27.3079492 177.372777,27.2821492 177.363358,27.2725942 C177.355057,27.2641711 177.330651,27.2305829 177.349501,27.2581883 C177.335914,27.2384835 177.32404,27.217651 177.31401,27.1959193 C177.330547,27.2325351 177.299493,27.1419603 177.297302,27.1294229 C177.284611,26.9881297 177.292704,26.8457391 177.321321,26.7067936 C177.320414,26.5199961 177.169209,26.3687913 176.982412,26.3678839 C176.797172,26.3724734 176.648092,26.5215533 176.643502,26.7067936 L176.643502,26.7067958 Z" id="路径" fill="#3F3D56"></path>
                    <path d="M151.4102,27.8968454 L153.080615,30.0030965 C153.293184,30.2711288 153.748882,29.980968 153.647062,29.6733555 C153.43884,29.0442782 154.157564,28.6937507 154.653664,28.5901687 C155.311892,28.452734 155.972364,28.4750275 156.596931,28.1921328 C156.993682,28.0124249 156.649501,27.4280882 156.254823,27.6068562 C155.524217,27.9377789 154.672313,27.7860762 153.932503,28.107968 C153.27125,28.395682 152.748396,29.113174 152.993457,29.853547 L153.559894,29.5238128 L151.889479,27.4175594 C151.756595,27.2864957 151.543072,27.2864957 151.410188,27.4175594 C151.282024,27.55162 151.282024,27.7627915 151.410188,27.8968522 L151.4102,27.8968454 Z" id="路径" fill="#3F3D56"></path>
                    <path d="M148.021103,3.26941159 L149.691519,5.3756627 C149.904087,5.64369503 150.359785,5.35353416 150.257966,5.04592169 C150.049744,4.4168444 150.768467,4.06631693 151.264568,3.96273485 C151.922796,3.82530021 152.583268,3.84759369 153.207835,3.56469904 C153.604585,3.38499107 153.260404,2.80065437 152.865726,2.97942242 C152.135121,3.31034509 151.283217,3.15864236 150.543407,3.48053422 C149.882153,3.76824817 149.359299,4.48574021 149.60436,5.22611317 L150.170798,4.89637894 L148.500382,2.79012557 C148.367499,2.65906187 148.153976,2.65906187 148.021092,2.79012557 C147.892928,2.92418623 147.892928,3.13535771 148.021092,3.26941836 L148.021103,3.26941159 Z" id="路径" fill="#3F3D56"></path>
                </g>
            </g>
        </g>
    </g>
</svg>