<?xml version="1.0" encoding="UTF-8"?>
<svg width="16px" height="29px" viewBox="0 0 16 29" version="1.1" xmlns="http://www.w3.org/2000/svg" xmlns:xlink="http://www.w3.org/1999/xlink">
    <title>路径备份 2</title>
    <g id="页面-1" stroke="none" stroke-width="1" fill="none" fill-rule="evenodd">
        <g id="服务商审核反馈-成功" transform="translate(-390.000000, -171.000000)" fill="#FF9D5B" fill-rule="nonzero" stroke="#FFFFFF">
            <path d="M404.65665,184.938087 C402.209813,183.526798 400.476079,181.144246 399.885869,178.381928 L398.595882,172.344493 L398.595882,172.344493 C398.331827,171.885169 397.669345,171.885169 397.403728,172.344493 L396.114678,178.381794 C395.524875,181.144151 393.791318,183.526822 391.344522,184.938087 L391.344522,184.938087 L391.344522,184.938087 C390.885159,185.20212 390.885159,185.864546 391.344522,186.130142 C393.791231,187.540363 395.524837,189.922336 396.114515,192.684109 L397.403728,198.722174 L397.403728,198.722174 C397.667783,199.181498 398.330264,199.181498 398.595882,198.722174 L399.886032,192.683976 C400.476117,189.922241 402.2099,187.540386 404.65665,186.130142 L404.65665,186.130142 L404.65665,186.130142 C405.11445,185.864546 405.11445,185.20212 404.65665,184.938087 Z" id="路径备份-2"></path>
        </g>
    </g>
</svg>