<?xml version="1.0" encoding="UTF-8"?>
<svg width="10px" height="12px" viewBox="0 0 10 12" version="1.1" xmlns="http://www.w3.org/2000/svg" xmlns:xlink="http://www.w3.org/1999/xlink">
    <title>编组</title>
    <g id="页面-1" stroke="none" stroke-width="1" fill="none" fill-rule="evenodd">
        <g id="通知反馈说明" transform="translate(-503.000000, -218.000000)" fill-rule="nonzero">
            <g id="编组-2" transform="translate(39.000000, 39.000000)">
                <g id="编组-20" transform="translate(362.000000, 68.000000)">
                    <g id="编组-8" transform="translate(8.000000, 54.000000)">
                        <g id="编组-3" transform="translate(94.000000, 54.000000)">
                            <g id="编组" transform="translate(0.000000, 3.000000)">
                                <path d="M5.09446278,11.7548117 C4.04762444,11.7548117 3.08673083,11.4280755 2.46806202,10.9400803 C2.15388907,11.0276052 1.75199529,11.1684783 1.49836629,11.3431494 C1.28135619,11.4925373 1.30840246,11.6449028 1.34752879,11.7064131 C1.51926153,11.9766016 4.29353527,11.8789425 5.09446278,11.7947869 L5.09446278,11.7548117 L5.09446278,11.7548117 Z" id="路径" fill="#FAAD08"></path>
                                <path d="M4.90577878,11.7548117 C5.95260406,11.7548117 6.9135238,11.4280755 7.5321926,10.9400803 C7.84636556,11.0276052 8.24824627,11.1684783 8.50190139,11.3431494 C8.71889844,11.4925373 8.69182604,11.6449028 8.65273889,11.7064131 C8.48100616,11.9766016 5.70671936,11.8789425 4.90577878,11.7947869 L4.90577878,11.7548117 L4.90577878,11.7548117 Z" id="路径" fill="#FAAD08"></path>
                                <path d="M4.9120343,5.45054882 C6.63502946,5.43910867 8.01587817,5.11383512 8.48377478,4.98902526 C8.59531616,4.95924954 8.65498513,4.90591445 8.65498513,4.90591445 C8.65537691,4.89060869 8.66206339,4.63229132 8.66206339,4.499045 C8.66206339,2.25500097 7.5761379,0.000143654758 4.90566125,0 C2.23519766,0.000143654758 1.14921993,2.25498791 1.14921993,4.499045 C1.14921993,4.63229132 1.15595864,4.89060869 1.15636349,4.90591445 C1.15636349,4.90591445 1.20490574,4.95581489 1.29386721,4.97996195 C1.72585013,5.09723647 3.13268729,5.43886054 4.89934044,5.45054882 L4.9120343,5.45054882 Z" id="路径" fill="#000000"></path>
                                <path d="M9.65465247,7.34754907 C9.54860914,7.00687834 9.40385738,6.60960764 9.25729035,6.22808672 C9.25729035,6.22808672 9.17297806,6.2177044 9.1303779,6.23001953 C7.81515329,6.61142291 6.22106869,6.85449982 5.00628488,6.83983398 L4.99372162,6.83983398 C3.78574182,6.85435617 2.2024705,6.61406094 0.891673069,6.23639258 C0.841589797,6.22198792 0.742703086,6.22809978 0.742703086,6.22809978 C0.596136054,6.60960764 0.451397356,7.00687834 0.345367085,7.34754907 C-0.160271543,8.97197095 0.00353405974,9.64422298 0.128278628,9.65929367 C0.39594662,9.69160293 1.17016741,8.43643907 1.17016741,8.43643907 C1.17016741,9.71183213 2.32363675,11.6701991 4.96495149,11.6882082 C4.98831489,11.6881208 5.01167854,11.6881208 5.03504195,11.6882082 C7.6763828,11.6701991 8.82981297,9.71184519 8.82981297,8.43645213 C8.82981297,8.43645213 9.60403375,9.69161599 9.87174093,9.65930673 C9.99645937,9.64423604 10.160265,8.97198401 9.65465247,7.34754907" id="路径" fill="#000000"></path>
                                <path d="M4.09260144,3.39227651 C3.72824074,3.40847032 3.4168364,2.9991065 3.39731241,2.47868449 C3.37748806,1.95790987 3.65664843,1.52263596 4.02108749,1.50635073 C4.38512171,1.49036587 4.69630403,1.89955992 4.71608921,2.42017782 C4.7360311,2.94095244 4.45681849,3.37613494 4.09260144,3.39227651 M6.79161315,2.47868449 C6.77210222,2.9991065 6.46068482,3.4084442 6.09632412,3.39227651 C5.73212013,3.37610882 5.45289446,2.94095244 5.47283635,2.42019088 C5.49259541,1.8995338 5.80377773,1.49033975 6.16781195,1.50636379 C6.53229019,1.52264901 6.81145056,1.95790987 6.79162621,2.47868449" id="形状" fill="#FFFFFF"></path>
                                <path d="M7.35173611,4.06758446 C7.25610122,3.83761932 6.29310502,3.58141759 5.10088806,3.58141759 L5.08808973,3.58141759 C3.89588584,3.58141759 2.93286352,3.83761932 2.83725475,4.06758446 C2.83269006,4.07788915 2.83026791,4.08902821 2.83026791,4.10029857 C2.83026791,4.11687111 2.8354003,4.13182426 2.84340579,4.14451812 C2.92395693,4.27204436 3.99334906,4.90220555 5.08810279,4.90220555 L5.10090112,4.90220555 C6.19564179,4.90220555 7.26499475,4.27208354 7.34558507,4.14454424 C7.35405998,4.13130369 7.35859809,4.11592755 7.35867071,4.10020715 C7.35867071,4.08849276 7.35605881,4.07753582 7.35173611,4.06758446" id="路径" fill="#FAAD08"></path>
                                <path d="M4.52681753,2.71247185 C4.54327253,2.98735448 4.43047743,3.23157539 4.27521276,3.25825731 C4.11971301,3.28497384 3.98047237,3.08378661 3.96392596,2.80874825 C3.94769297,2.5337099 4.0603183,2.28950629 4.21532178,2.26303201 C4.37108272,2.23622896 4.51055843,2.43758923 4.52681753,2.71247185 M5.48142952,2.84977474 C5.51450929,2.77851913 5.74036069,2.4038648 6.20780021,2.54028521 C6.33057279,2.57610335 6.38736866,2.62880967 6.3993573,2.64957381 C6.41705295,2.68020092 6.42189804,2.72380561 6.40395425,2.78253353 C6.36840623,2.89889924 6.29506395,2.8957327 6.25437047,2.87296136 C6.22812083,2.85825343 5.90254691,2.59802683 5.60263496,2.98635088 C5.58201397,3.01308471 5.54510775,3.02223824 5.51010823,2.99053831 C5.47513483,2.95880378 5.46066488,2.89445225 5.48142952,2.84977474" id="形状" fill="#000000"></path>
                                <path d="M5.0061151,6.88671767 L4.99348654,6.88671767 C4.16331876,6.89653843 3.15671681,6.788719 2.18195398,6.60045291 C2.09849057,7.07401735 2.04809387,7.66921819 2.09137313,8.37910777 C2.20068134,10.1732773 3.28788667,11.3009933 4.96600931,11.3174483 L5.0342192,11.3174483 C6.71234184,11.3009933 7.79954716,10.1732773 7.90888149,8.37910777 C7.95216076,7.66916595 7.90173794,7.07396511 7.8182484,6.6003615 C6.84330274,6.788719 5.83653102,6.89660373 5.0061151,6.88671767" id="路径" fill="#FFFFFF"></path>
                                <path d="M2.64158391,6.78904549 L2.64158391,8.58431206 C2.64158391,8.58431206 3.48989137,8.7502333 4.3397268,8.63537479 L4.3397268,6.97937499 C3.80134795,6.94983434 3.22068236,6.88398823 2.64158391,6.78904549" id="路径" fill="#EB1C26"></path>
                                <path d="M8.71195077,4.90220555 C8.71195077,4.90220555 7.1189501,5.42964052 5.00640241,5.44468509 L4.99383915,5.44468509 C2.8847653,5.42970582 1.2937105,4.90400776 1.28827774,4.90220555 L0.754743966,6.2989477 C2.08924443,6.7209009 3.74324613,6.99286547 4.99383915,6.97707651 L5.00637629,6.97705039 C6.25706073,6.99293077 7.9108143,6.72095314 9.2454976,6.2989477 L8.71195077,4.90220555 L8.71195077,4.90220555 Z" id="路径" fill="#EB1C26"></path>
                            </g>
                        </g>
                    </g>
                </g>
            </g>
        </g>
    </g>
</svg>