<?xml version="1.0" encoding="UTF-8"?>
<svg width="22px" height="41px" viewBox="0 0 22 41" version="1.1" xmlns="http://www.w3.org/2000/svg" xmlns:xlink="http://www.w3.org/1999/xlink">
    <title>路径</title>
    <g id="页面-1" stroke="none" stroke-width="1" fill="none" fill-rule="evenodd">
        <g id="服务商审核反馈-成功" transform="translate(-468.000000, -104.000000)" fill="#FF2760" fill-rule="nonzero" stroke="#FFFFFF">
            <path d="M488.5095,123.482982 L487.642733,122.983047 C484.699029,121.285175 482.613236,118.41881 481.903175,115.095563 L479.85126,105.492133 L479.85126,105.492133 C479.474038,104.835956 478.527636,104.835956 478.148182,105.492133 L476.097964,115.09439 C475.388256,118.418328 473.30227,121.285391 470.358044,122.983564 L469.492174,123.482982 L469.492174,123.482982 C468.835942,123.860172 468.835942,124.806495 469.492174,125.185917 L470.355331,125.683419 C473.301179,127.38133 475.388447,130.249236 476.098422,133.574421 L478.148182,143.174534 L478.148182,143.174534 C478.525404,143.830711 479.471806,143.830711 479.85126,143.174534 L481.902716,133.573248 C482.613044,130.248754 484.70012,127.381547 487.645446,125.683936 L488.5095,125.185917 L488.5095,125.185917 C489.1635,124.806495 489.1635,123.860172 488.5095,123.482982 Z" id="路径"></path>
        </g>
    </g>
</svg>