<?xml version="1.0" encoding="UTF-8"?>
<svg width="160px" height="118px" viewBox="0 0 160 118" version="1.1" xmlns="http://www.w3.org/2000/svg" xmlns:xlink="http://www.w3.org/1999/xlink">
    <title>undraw_add_to_cart_re_wrdo</title>
    <g id="迭代1" stroke="none" stroke-width="1" fill="none" fill-rule="evenodd">
        <g id="当清空关注时的无数据页面" transform="translate(-702.000000, -193.000000)" fill-rule="nonzero">
            <g id="编组-6" transform="translate(0.000000, 51.000000)">
                <g id="编组-11" transform="translate(139.000000, 62.000000)">
                    <g id="undraw_add_to_cart_re_wrdo" transform="translate(563.000000, 80.000000)">
                        <path d="M159.113722,6.98590944 L0.886282412,6.98590944 C0.39702415,6.98537577 0,6.58888728 0,6.09962902 L0,0.886280419 C0,0.397022159 0.39702415,0.00053366249 0.886282412,0 L159.113722,0 C159.602979,0.000534762361 160,0.397023258 160,0.886280419 L160,6.09963699 C160,6.58889058 159.602975,6.98537359 159.113722,6.98590944 Z" id="路径" fill="#E4E4E4"></path>
                        <circle id="a35e044f-57c7-4e60-ba2c-0b63f07d3a91" fill="#FFFFFF" cx="5.14347321" cy="3.23866695" r="1.25829899"></circle>
                        <circle id="b8ca9947-3ca9-4995-aa34-7c8526cbf832" fill="#FFFFFF" cx="9.91956216" cy="3.23866695" r="1.25829899"></circle>
                        <circle id="a31b64b8-966e-40be-99c3-e775622dac5b" fill="#FFFFFF" cx="14.6958723" cy="3.23866695" r="1.25829899"></circle>
                        <path d="M154.434164,2.37259741 L148.934323,2.37259741 C148.709677,2.37210062 148.527828,2.18984943 148.527828,1.96520282 C148.527828,1.7405562 148.709677,1.55830502 148.934323,1.55780811 L154.434164,1.55780811 C154.658977,1.55764713 154.841428,1.7396248 154.841852,1.96443763 C154.842274,2.18925046 154.660509,2.37191302 154.435696,2.37259741 L154.434164,2.37259741 Z" id="路径" fill="#FFFFFF"></path>
                        <path d="M154.434164,3.90033238 L148.934323,3.90033238 C148.709677,3.89983558 148.527828,3.7175844 148.527828,3.49293778 C148.527828,3.26829117 148.709677,3.08603998 148.934323,3.08554308 L154.434164,3.08554308 C154.658977,3.08538209 154.841428,3.26735977 154.841852,3.4921726 C154.842274,3.71698543 154.660509,3.89964798 154.435696,3.90033238 L154.434164,3.90033238 Z" id="路径" fill="#FFFFFF"></path>
                        <path d="M154.434164,5.42806734 L148.934323,5.42806734 C148.709324,5.42806734 148.526927,5.24567011 148.526927,5.02067175 C148.526927,4.7956734 148.709324,4.61327542 148.934323,4.61327542 L154.434164,4.61327542 C154.659163,4.61285309 154.841903,4.79490732 154.842327,5.01990568 C154.842749,5.24490404 154.660695,5.42764423 154.435696,5.42806734 L154.434164,5.42806734 Z" id="路径" fill="#FFFFFF"></path>
                        <path d="M45.1164732,103.597518 C45.6986998,98.9157614 48.6002031,94.3028558 53.0651911,92.779287 C51.3043084,97.5981277 51.3046895,102.884507 53.066267,107.703094 C53.7523652,109.558965 54.7087063,111.551691 54.0633427,113.422131 C53.6618047,114.585964 52.6794927,115.476403 51.5814722,116.033168 C50.4833799,116.58993 49.2647316,116.8553 48.0613272,117.115355 L47.8244928,117.311238 C45.9141138,112.997493 44.5342467,108.279287 45.1164732,103.597518 Z" id="路径" fill="#F0F0F0"></path>
                        <path d="M53.109498,92.8678152 C50.5092995,95.7812598 48.8932012,99.4399315 48.4907508,103.324159 C48.3892655,104.158808 48.4199794,105.004238 48.5817615,105.829323 C48.7653269,106.627966 49.1594088,107.362883 49.7230609,107.957714 C50.2374682,108.522892 50.8291008,109.041445 51.1971665,109.721833 C51.5677762,110.431907 51.6177183,111.2664 51.3344427,112.015607 C51.0094826,112.947651 50.3689983,113.707352 49.7168426,114.428509 C48.9927494,115.229212 48.2279554,116.049422 47.9201578,117.110948 C47.8828601,117.239571 47.6854753,117.174185 47.7227112,117.045755 C48.258222,115.198884 50.0510415,114.149834 50.9060373,112.486381 C51.3049911,111.710181 51.4724482,110.809053 51.0984352,109.989707 C50.7713751,109.273215 50.1617391,108.737965 49.6359373,108.170209 C49.0775717,107.597992 48.6678116,106.897758 48.442451,106.130675 C48.2391831,105.316492 48.1759509,104.473655 48.2554625,103.638257 C48.4044658,101.754653 48.8487068,99.9061907 49.5719116,98.1605847 C50.3862508,96.1637596 51.5361726,94.3209521 52.9719249,92.7118921 C53.0608317,92.612332 53.197833,92.7689384 53.10951,92.8678391 L53.109498,92.8678152 Z" id="路径" fill="#FFFFFF"></path>
                        <path d="M48.5467192,102.065826 C47.2196782,101.743646 46.3214388,100.507517 46.4249049,99.1458515 C46.4296595,99.0900031 46.4777956,99.0479555 46.5337763,99.0507507 C46.5897569,99.053546 46.6334649,99.1001797 46.6326324,99.1562239 C46.5339098,100.424494 47.3739548,101.575585 48.6119085,101.868374 C48.7420798,101.899316 48.6761454,102.096593 48.5467192,102.065826 Z" id="路径" fill="#FFFFFF"></path>
                        <path d="M49.4244921,107.70549 C50.584964,107.012586 51.4416366,105.907742 51.823688,104.611266 C51.861434,104.482789 52.0588388,104.548127 52.0211347,104.67646 C51.6210435,106.024861 50.7272065,107.172809 49.5180073,107.891208 C49.4027072,107.959593 49.3098176,107.773517 49.4244921,107.70549 Z" id="路径" fill="#FFFFFF"></path>
                        <path d="M50.5791505,96.3607141 C51.0586054,96.5885531 51.6204937,96.5600275 52.0744094,96.2848037 C52.188787,96.2149782 52.281561,96.4011598 52.1679246,96.4705211 C51.6652243,96.7721263 51.0457163,96.8049532 50.5139573,96.5581627 C50.460729,96.5386803 50.4317859,96.4812041 50.4478276,96.4268398 C50.4660653,96.3725182 50.5246498,96.3430189 50.5791505,96.3607141 Z" id="路径" fill="#FFFFFF"></path>
                        <path d="M66.6750968,101.141485 C66.6049186,101.187111 66.5347404,101.232737 66.4644765,101.280128 C65.524144,101.898467 64.6356005,102.592177 63.8076136,103.354414 C63.7426615,103.412335 63.6777093,103.471995 63.6145503,103.531668 C61.6393135,105.389334 60.0261343,107.597576 58.8570185,110.044135 C58.3926952,111.018104 58.0031444,112.025988 57.6917386,113.05906 C57.2617512,114.485806 56.9090549,116.066957 56.0579085,117.233977 C55.970474,117.356727 55.8755205,117.473945 55.7735932,117.584956 L48.081825,117.584956 C48.0643437,117.576189 48.0467787,117.56916 48.0292117,117.560379 L47.7221015,117.574426 C47.7344384,117.520033 47.7484012,117.463862 47.760754,117.409467 C47.7677832,117.377874 47.7765199,117.346292 47.7835491,117.314699 C47.7887771,117.293637 47.7940869,117.272573 47.7975995,117.253275 C47.7993149,117.246258 47.801114,117.239243 47.8028295,117.233977 C47.8063441,117.214676 47.8116578,117.197117 47.8151664,117.17957 C47.8923679,116.865436 47.9719164,116.551306 48.0538119,116.237182 C48.0538119,116.235419 48.0538119,116.235419 48.0555273,116.233667 C48.6566218,113.834071 49.5402478,111.514252 50.6878836,109.322835 C50.7230156,109.257911 50.7580619,109.191222 50.7967084,109.126283 C51.3281343,108.156234 51.9379547,107.231241 52.6200794,106.360542 C52.9951233,105.884976 53.3940018,105.4287 53.8151835,104.993468 C54.9056154,103.870989 56.1658185,102.927011 57.549593,102.196141 C60.308341,100.739565 63.5022229,100.181514 66.4505197,101.071247 C66.525918,101.094118 66.5996965,101.116921 66.6750968,101.141485 Z" id="路径" fill="#F0F0F0"></path>
                        <path d="M66.6578108,101.239111 C62.8276017,101.999831 59.3344636,103.948072 56.6745576,106.80711 C56.0910139,107.412431 55.6065318,108.105951 55.2389472,108.862137 C54.9046699,109.610329 54.776847,110.434386 54.8687596,111.248685 C54.9392048,112.00966 55.0993916,112.779891 54.9836353,113.544747 C54.8520261,114.334832 54.3894798,115.031193 53.7122283,115.458844 C52.8916034,116.007385 51.9228277,116.228344 50.9679311,116.411509 C49.9077004,116.614871 48.8032365,116.809307 47.9183667,117.471562 C47.8111517,117.551798 47.6929129,117.380747 47.7999644,117.300632 C49.3394904,116.148429 51.4025509,116.390214 53.0867249,115.57681 C53.8725945,115.197258 54.5488403,114.57858 54.7435215,113.699174 C54.9137579,112.930184 54.7492536,112.135767 54.6712632,111.365876 C54.5699538,110.572819 54.6643719,109.767019 54.9462699,109.018863 C55.2741699,108.246405 55.7311277,107.535378 56.297576,106.916228 C57.550609,105.501986 59.0182131,104.293555 60.6466263,103.335201 C62.4990565,102.231133 64.5267021,101.452084 66.6418357,101.03176 C66.7727642,101.005797 66.7878666,101.213317 66.6577968,101.239111 L66.6578108,101.239111 Z" id="路径" fill="#FFFFFF"></path>
                        <path d="M57.4768505,105.836095 C56.6112573,104.779883 56.6382993,103.252102 57.5407288,102.227185 C57.6294841,102.127077 57.7892147,102.260296 57.7003378,102.360538 C56.8579239,103.313742 56.8356174,104.738592 57.6477803,105.717699 C57.7330809,105.820787 57.5616649,105.938598 57.4768505,105.836095 Z" id="路径" fill="#FFFFFF"></path>
                        <path d="M54.7822298,110.867534 C56.1259776,111.012967 57.4751728,110.646587 58.5607888,109.841449 C58.6682826,109.761589 58.7865494,109.932617 58.679189,110.012379 C57.5479101,110.848121 56.1430894,111.226548 54.7450855,111.072135 C54.6118479,111.057314 54.6497233,110.852808 54.7822298,110.867534 Z" id="路径" fill="#FFFFFF"></path>
                        <path d="M62.5344992,102.504546 C62.7801445,102.975126 63.2459529,103.290646 63.7740816,103.344189 C63.9074408,103.357297 63.8694278,103.561803 63.7369373,103.548778 C63.1539744,103.486931 62.6395705,103.140155 62.3635773,102.622953 C62.3328098,102.575352 62.3443036,102.512039 62.3898391,102.478291 C62.4371066,102.445897 62.501645,102.457615 62.5345072,102.504558 L62.5344992,102.504546 Z" id="路径" fill="#FFFFFF"></path>
                        <path d="M51.8607406,36.3501927 L26.4127209,36.3501927 C24.7753164,36.3483151 23.4484209,35.0213768 23.4465961,33.3839723 L23.4465961,19.5237656 C23.4484321,17.8863963 24.7753516,16.5595187 26.4127209,16.5577344 L51.8607406,16.5577344 C53.4981079,16.5595197 54.8250262,17.8863943 54.8268655,19.5237616 L54.8268655,33.3839643 C54.825045,35.021372 53.4981482,36.3483151 51.8607406,36.3501927 L51.8607406,36.3501927 Z" id="路径" fill="#E6E6E6"></path>
                        <path d="M90.7125027,36.3501927 L65.264483,36.3501927 C63.6270785,36.3483151 62.300183,35.0213768 62.2983582,33.3839723 L62.2983582,19.5237656 C62.3001941,17.8863963 63.6271137,16.5595187 65.264483,16.5577344 L90.7125027,16.5577344 C92.3498709,16.5595176 93.6767905,17.8863934 93.6786275,19.5237616 L93.6786275,33.3839643 C93.6768049,35.0213711 92.3499094,36.3483129 90.7125027,36.3501927 Z" id="路径" fill="#FD953E" opacity="0.65"></path>
                        <path d="M129.564265,36.3501927 L104.116245,36.3501927 C102.478841,36.3483151 101.151945,35.0213768 101.15012,33.3839723 L101.15012,19.5237656 C101.151956,17.8863963 102.478876,16.5595187 104.116245,16.5577344 L129.564265,16.5577344 C131.201633,16.5595176 132.528553,17.8863934 132.53039,19.5237616 L132.53039,33.3839643 C132.528567,35.0213711 131.201671,36.3483129 129.564265,36.3501927 Z" id="路径" fill="#E6E6E6"></path>
                        <path d="M51.8607406,67.2323626 L26.4127209,67.2323626 C24.7753164,67.230485 23.4484209,65.9035467 23.4465961,64.2661421 L23.4465961,50.4059394 C23.4484332,48.76857 24.7753514,47.4416918 26.4127209,47.4399042 L51.8607406,47.4399042 C53.4981075,47.4416907 54.8250251,48.7685646 54.8268655,50.4059314 L54.8268655,64.2661342 C54.825045,65.9035418 53.4981482,67.230485 51.8607406,67.2323626 L51.8607406,67.2323626 Z" id="路径" fill="#F2F2F2"></path>
                        <path d="M90.7125027,67.2323626 L65.264483,67.2323626 C63.6270785,67.230485 62.300183,65.9035467 62.2983582,64.2661421 L62.2983582,50.4059394 C62.3001952,48.76857 63.6271135,47.4416918 65.264483,47.4399042 L90.7125027,47.4399042 C92.3498705,47.4416885 93.6767894,48.7685637 93.6786275,50.4059314 L93.6786275,64.2661342 C93.6768049,65.9035409 92.3499094,67.2304828 90.7125027,67.2323626 L90.7125027,67.2323626 Z" id="路径" fill="#E6E6E6"></path>
                        <g id="e3e4f7c8-e232-44d3-85d4-7e764218aef0" transform="translate(87.964239, 60.692595)">
                            <circle id="fcc64bf3-a6e1-406f-af2a-c5c9529d985b" fill="#FD953E" opacity="0.65" cx="4.54510427" cy="4.54510427" r="4.54510427"></circle>
                            <path d="M6.43248701,4.16342854 L4.88716116,4.16342854 L4.88716116,2.61809871 C4.88716327,2.52165756 4.84885366,2.42916567 4.78066021,2.36097073 C4.71246677,2.29277579 4.61997572,2.25446415 4.52353457,2.25446415 L4.52353457,2.25446415 C4.42709358,2.25446415 4.33460283,2.29277649 4.2664095,2.36097131 C4.19821618,2.42916614 4.15990639,2.52165772 4.15990798,2.61809871 L4.15990798,4.16342854 L2.61458213,4.16342854 C2.51814132,4.16342854 2.42565057,4.20173991 2.35745719,4.26993442 C2.2892638,4.33812893 2.25095554,4.43062031 2.25095554,4.52706111 L2.25095554,4.52706111 C2.25095554,4.6235021 2.28926374,4.71599369 2.35745706,4.78418851 C2.42565039,4.85238333 2.51814114,4.89069514 2.61458213,4.89069567 L4.15991993,4.89069567 L4.15991993,6.43602551 C4.15991834,6.53246631 4.19822819,6.62495769 4.26642158,6.6931522 C4.33461497,6.76134671 4.42710572,6.79965807 4.52354652,6.79965807 L4.52354652,6.79965807 C4.72437226,6.79965807 4.88717401,6.63685723 4.88717511,6.43603148 L4.88717511,4.89068372 L6.43247904,4.89068372 C6.52892002,4.89068319 6.62141077,4.85237138 6.6896041,4.78417655 C6.75779743,4.71598173 6.79610563,4.62349014 6.79610563,4.52704916 L6.79610563,4.52704916 C6.79610563,4.43060835 6.75779737,4.33811697 6.68960398,4.26992246 C6.62141059,4.20172796 6.52891984,4.16341659 6.43247904,4.16341659 L6.43247904,4.16341659 L6.43248701,4.16342854 Z" id="a515bf60-7ad9-4961-925b-281b4504c434-213" fill="#FFFFFF"></path>
                        </g>
                        <g id="e103fff6-fe82-4519-942e-bf1bf1b0aca3" transform="translate(127.413718, 30.607382)">
                            <circle id="add300b1-303e-47da-8a54-54886e1d1e76" fill="#FD953E" opacity="0.65" cx="4.54510626" cy="4.54510626" r="4.54510626"></circle>
                            <path d="M6.432489,4.16343053 L4.88716315,4.16343053 L4.88716315,2.6181007 C4.88716526,2.52165955 4.84885565,2.42916766 4.78066221,2.36097272 C4.71246876,2.29277778 4.61997771,2.25446614 4.52353656,2.25446614 L4.52353656,2.25446614 C4.42709557,2.25446614 4.33460482,2.29277848 4.2664115,2.3609733 C4.19821817,2.42916813 4.15990838,2.52165972 4.15990997,2.6181007 L4.15990997,4.16343053 L2.61458412,4.16343053 C2.51814332,4.16343053 2.42565256,4.2017419 2.35745918,4.26993641 C2.28926579,4.33813092 2.25095753,4.4306223 2.25095753,4.5270631 L2.25095753,4.5270631 C2.25095753,4.62350409 2.28926573,4.71599568 2.35745906,4.7841905 C2.42565239,4.85238532 2.51814313,4.89069714 2.61458412,4.89069767 L4.15992192,4.89069767 L4.15992192,6.4360275 C4.15992034,6.5324683 4.19823019,6.62495968 4.26642357,6.69315419 C4.33461696,6.7613487 4.42710771,6.79966007 4.52354851,6.79966007 L4.52354851,6.79966007 C4.72437426,6.79966007 4.887176,6.63685922 4.8871771,6.43603348 L4.8871771,4.89068571 L6.43248103,4.89068571 C6.52892202,4.89068518 6.62141276,4.85237337 6.68960609,4.78417855 C6.75779942,4.71598372 6.79610762,4.62349214 6.79610762,4.52705115 L6.79610762,4.52705115 C6.79610762,4.43061035 6.75779936,4.33811896 6.68960597,4.26992446 C6.62141259,4.20172995 6.52892183,4.16341858 6.43248103,4.16341858 L6.43248103,4.16341858 L6.432489,4.16343053 Z" id="ac71a829-1528-4702-ba68-9cb7b8b12af7-214" fill="#FFFFFF"></path>
                        </g>
                        <g id="eec1f109-4866-4d4c-80db-d160015753dd" transform="translate(49.112477, 30.208905)">
                            <circle id="ad2802dd-75a3-400f-a980-dd7e255328e3" fill="#FD953E" opacity="0.65" cx="4.54510427" cy="4.54510427" r="4.54510427"></circle>
                            <path d="M6.43248701,4.16342854 L4.88715518,4.16342854 L4.88715518,2.61809871 C4.88715624,2.52165788 4.84884628,2.4291666 4.78065307,2.3609719 C4.71245986,2.29277719 4.61996941,2.25446415 4.52352859,2.25446415 L4.52352859,2.25446415 C4.42708689,2.25446415 4.33459522,2.2927756 4.26640083,2.36097037 C4.19820644,2.42916513 4.15989549,2.52165701 4.15989602,2.61809871 L4.15989602,2.61809871 L4.15989602,4.16342854 L2.6145642,4.16342854 C2.41373547,4.16342854 2.25093163,4.32623239 2.25093163,4.52706111 L2.25093163,4.52706111 C2.25093163,4.72788828 2.41373105,4.89069237 2.61455822,4.89069567 L4.15989004,4.89069567 L4.15989004,6.43602551 C4.15988952,6.53246702 4.19820052,6.62495869 4.26639497,6.69315314 C4.33458942,6.76134759 4.4270811,6.79965807 4.52352261,6.79965807 L4.52352261,6.79965807 C4.61996325,6.79965807 4.71245433,6.76134911 4.78064872,6.69315584 C4.84884311,6.62496257 4.88715465,6.53247212 4.88715518,6.43603148 L4.88715518,4.89068372 L6.43248701,4.89068372 C6.52892871,4.89068372 6.62142037,4.85237227 6.68961477,4.7841775 C6.75780916,4.71598273 6.79611958,4.62349086 6.79611958,4.52704916 L6.79611958,4.52704916 C6.79611958,4.32622043 6.63331573,4.16341659 6.43248701,4.16341659 L6.43248701,4.16341659 L6.43248701,4.16342854 Z" id="a152d324-d2c4-475a-92fe-001d0469b5e0-215" fill="#FFFFFF"></path>
                        </g>
                        <path d="M87.685807,28.4753132 C87.8536734,28.9830652 87.788019,29.5390925 87.5065095,29.9937833 C87.2250001,30.448474 86.7565521,30.7551226 86.2272122,30.8312183 L84.125575,45.1766417 L80.6781286,43.4928661 L84.1456424,29.1734415 C84.0752251,28.2555625 84.7024516,27.4300771 85.6056329,27.2519652 C86.5088142,27.0738533 87.4024736,27.5994124 87.685797,28.4753052 L87.685807,28.4753132 Z" id="路径" fill="#F9CBCB"></path>
                        <path d="M62.5843091,74.4199904 C62.8949825,73.9846999 62.99689,73.4341565 62.8626098,72.9165035 C62.7283295,72.3988506 62.3716556,71.9672641 61.8885637,71.7378779 L63.306396,56.4788304 L60.3367805,58.0009947 L59.4095185,72.7050736 C59.0705093,73.5609599 59.4252291,74.5351394 60.2351952,74.972659 C61.0451613,75.4101786 62.0543578,75.1727461 62.5842892,74.4199904 L62.5843091,74.4199904 Z" id="路径" fill="#F9CBCB"></path>
                        <polygon id="路径" fill="#F9CBCB" points="64.6130704 66.702299 77.3566476 66.2121691 78.0918425 52.978462 63.3877456 52.978462"></polygon>
                        <polygon id="路径" fill="#9E616A" points="62.2478947 113.438179 64.4255858 113.43798 65.4614335 105.038628 62.2474962 105.038628"></polygon>
                        <path d="M61.7077158,112.363912 L65.1501293,112.158446 L65.1501293,113.633325 L68.422928,115.893633 C68.7547436,116.122724 68.8990247,116.540976 68.779029,116.925925 C68.6590333,117.310873 68.3026467,117.573025 67.8994294,117.573025 L63.8011085,117.573025 L63.0947037,116.114149 L62.8188881,117.573025 L61.2736619,117.573025 L61.7077158,112.363912 Z" id="路径" fill="#2F2E41"></path>
                        <polygon id="路径" fill="#9E616A" points="71.9337386 113.438179 74.1114297 113.43798 75.1472774 105.038628 71.9333401 105.038628"></polygon>
                        <path d="M64.4362531,63.5956823 C64.4362531,63.5956823 60.6232913,66.674013 62.6903007,77.6676809 C62.3755417,77.7051978 62.7319578,78.3256325 62.7319578,78.3256325 L63.0302198,87.2833605 L63.2607064,88.3100233 L62.4944161,89.9666286 L62.8103128,91.766561 L61.8364287,108.102571 L65.4341397,108.567812 L68.8770394,91.6038279 L69.5327177,89.6965909 L70.1903883,88.0248195 L69.8356319,86.2420835 L70.1265878,83.475065 L72.1113908,74.1448641 L72.5972749,90.3267386 L71.9192619,91.8716002 L72.2965742,93.5674497 L71.4559815,94.467653 L71.1237531,109.607872 L74.959994,109.787313 L78.1341033,94.5249165 L77.8879843,92.5772578 L78.3102731,91.1371704 L78.3102731,87.7733868 L79.0335634,86.1858281 L80.6103472,77.5293547 C80.6103472,77.5293547 81.0860163,70.7635076 77.6154083,62.8017575 L64.4362531,63.5956823 Z" id="路径" fill="#2F2E41"></path>
                        <path d="M65.990224,41.9799884 C65.990224,41.9799884 61.174285,42.9324463 60.3444552,47.0396195 C59.5146254,51.1467927 58.9807484,60.4410626 58.9807484,60.4410626 L59.162483,61.7353682 L63.8210464,62.8156026 L66.7944176,49.792745 L65.990224,41.9799884 Z" id="路径" fill="#3F3D56"></path>
                        <path d="M76.9809411,43.3663368 C76.9809411,43.3663368 77.4691066,42.6822529 80.2028719,42.5767495 C80.3154245,42.572408 80.1760622,42.349114 80.1760622,42.349114 L81.4908039,35.9230884 L85.8722067,38.3488868 L85.1326087,45.0857823 L77.9329667,53.2746678 L76.9809411,43.3663368 Z" id="路径" fill="#3F3D56"></path>
                        <path d="M74.2499014,62.5234195 C72.1872513,62.5234195 69.0824178,62.2959434 64.4083436,61.602033 C63.7903881,61.5088369 63.3048877,61.0245313 63.2101692,60.4068073 C62.8974469,60.0766469 62.8248646,59.5860426 63.028592,59.1794762 L63.0329334,59.1709527 L62.9270275,59.046129 C62.5903951,58.6506766 62.5588704,58.0792477 62.8499596,57.6491651 L61.4024425,47.293722 C61.0989372,45.1692974 62.3855751,43.1396497 64.4364105,42.507693 L64.9707716,42.3413118 L66.9915574,39.6981009 L67.0314053,39.6985631 L73.5187929,39.7849336 L75.6240842,42.4583811 L79.0272615,43.2608314 L79.0361037,43.3126337 L79.8263067,47.8780146 C80.2372209,50.2525008 79.2947469,51.1865908 78.0917688,53.2746838 L78.4448476,59.1391799 L78.6050364,59.4302334 C78.7884559,59.7626204 78.7090965,60.1785128 78.4161711,60.420005 C78.5235378,60.7267647 78.5308671,61.0596692 78.4371052,61.370857 L78.3538349,61.6459375 C78.3539923,61.6538473 78.3318109,61.7656467 78.1520966,61.9021001 C77.8281427,62.1481672 76.8979159,62.5234195 74.2499014,62.5234195 Z" id="路径" fill="#3F3D56"></path>
                        <path d="M71.3935935,112.363912 L74.8360071,112.158446 L74.8360071,113.633325 L78.1088038,115.893633 C78.4406191,116.122723 78.5849003,116.540976 78.4649051,116.925924 C78.3449099,117.310872 77.9885241,117.573025 77.5853072,117.573025 L73.4869862,117.573025 L72.7805795,116.114149 L72.5047659,117.573025 L70.9595317,117.573025 L71.3935935,112.363912 Z" id="路径" fill="#2F2E41"></path>
                        <circle id="椭圆形" fill="#F9CBCB" transform="translate(69.988853, 33.123350) rotate(-80.782676) translate(-69.988853, -33.123350) " cx="69.9888529" cy="33.1233504" r="5.0859138"></circle>
                        <path d="M72.9628262,28.153762 C71.0987525,26.8717515 69.4572257,26.6764706 68.1088125,27.0400793 C67.9340208,26.7697063 67.6888929,26.5520435 67.399744,26.4104576 C66.3480806,23.7605522 63.1476318,22.1691502 60.4010473,22.9427545 C57.6366986,23.7213637 55.729358,26.7834484 56.2495054,29.6078699 C56.5718535,31.3585901 57.6736556,32.8745878 58.1168247,34.5986916 C58.9746975,37.9362432 56.8819742,41.759406 53.6081734,42.8352651 C56.7078586,43.4576584 60.1198642,41.5642905 61.2318853,38.6047147 C61.7719925,37.1671995 61.8045662,35.5977138 61.8732382,34.0636191 C61.8912926,33.0047231 62.0210252,31.9506874 62.2602815,30.9190173 C62.3790063,30.4561723 62.546767,30.007313 62.7607161,29.580058 C63.2267307,28.6409175 64.0007214,27.8899969 64.9535294,27.4526053 C64.7804393,27.9879643 64.8754819,28.5739045 65.208921,29.0271018 C64.4819946,29.9377333 64.0862943,30.9225259 64.0862943,31.5122857 C62.5761861,34.272275 64.7356647,36.6429976 67.4957218,38.1530679 C68.5965665,38.7585349 69.8677019,38.9801416 71.1084873,38.7829088 L71.2239588,38.2899895 L71.3804058,38.7340054 L71.9026552,40.2225698 C72.5051298,40.5140244 73.1023843,40.8335088 73.6944188,41.1810228 C73.469491,40.124763 73.2875432,39.0704537 73.162331,38.0396088 C72.9889804,36.6365761 73.5932727,34.5478177 74.0291835,33.2775902 C74.2994662,32.4947366 74.4381777,31.6725113 74.4396832,30.8443143 L74.4396832,30.8081064 L74.8641318,32.1714646 L76.4093899,31.5122797 C76.1219147,29.8633471 76.4093899,27.9914055 72.9628262,28.153762 Z" id="路径" fill="#2F2E41"></path>
                        <path d="M136.513773,117.82546 L23.4862269,117.82546 C23.3556732,117.824805 23.2501848,117.718785 23.2501848,117.58823 C23.2501848,117.457675 23.3556732,117.351656 23.4862269,117.351 L136.513773,117.351 C136.644327,117.351656 136.749815,117.457675 136.749815,117.58823 C136.749815,117.718785 136.644327,117.824805 136.513773,117.82546 L136.513773,117.82546 Z" id="路径" fill="#CCCCCC"></path>
                        <circle id="aeef577c-289f-4c95-850d-f6939249b5af" fill="#E6E6E6" cx="53.1380192" cy="65.8349763" r="4.54510626"></circle>
                        <path d="M121.524094,63.2228149 L105.582355,63.2228149 C104.556613,63.221639 103.725388,62.3903867 103.724245,61.3646447 L103.724245,52.6820151 C103.725396,51.6562958 104.556636,50.8250822 105.582355,50.8239644 L121.524094,50.8239644 C122.549812,50.8250822 123.381051,51.6562933 123.382204,52.6820111 L123.382204,61.3646407 C123.381063,62.3903842 122.549837,63.2216389 121.524094,63.2228149 L121.524094,63.2228149 Z" id="路径" fill="#F2F2F2"></path>
                    </g>
                </g>
            </g>
        </g>
    </g>
</svg>