<?xml version="1.0" encoding="UTF-8"?>
<svg width="240px" height="154px" viewBox="0 0 240 154" version="1.1" xmlns="http://www.w3.org/2000/svg" xmlns:xlink="http://www.w3.org/1999/xlink">
    <title>undraw_domain_names_re_0uun</title>
    <g id="页面-1" stroke="none" stroke-width="1" fill="none" fill-rule="evenodd">
        <g id="其他情况" transform="translate(-735.000000, -698.000000)" fill-rule="nonzero">
            <g id="编组-9" transform="translate(73.000000, 338.000000)">
                <g id="undraw_domain_names_re_0uun" transform="translate(662.000000, 360.000000)">
                    <path d="M224.183962,153.269203 C221.074645,151.189038 219.508917,147.231818 219.447128,143.491336 C219.426409,142.236967 219.742984,140.782741 220.866666,140.224875 C221.522444,139.899308 222.305312,139.968388 222.893945,140.403762 C223.482578,140.839136 223.777835,141.567474 223.658529,142.289836 C224.07517,141.069547 224.615713,139.895146 225.271693,138.785018 C225.827155,137.845181 226.607112,136.867014 227.695153,136.777677 C228.957422,136.674036 230.01191,137.900123 230.190835,139.153938 C230.369759,140.407753 229.913553,141.655594 229.465125,142.840069 C229.722484,141.749997 230.515793,140.865212 231.571431,140.490887 C232.62707,140.116563 233.800559,140.303929 234.68715,140.988362 C235.921573,141.941315 236.32837,143.695151 236.017806,145.223372 C235.707242,146.751594 234.79524,148.088711 233.786658,149.278114 C232.604014,150.672787 231.234625,151.947296 229.595061,152.756975 C227.955496,153.566653 226.016776,153.876335 224.272523,153.327386 L224.183962,153.269203 Z" id="路径" fill="#F2F2F2"></path>
                    <path d="M181.655626,103.176363 C182.521852,102.745304 183.152654,101.9527 183.378295,101.011826 C183.603936,100.070951 183.401237,99.0784568 182.824742,98.3014039 L190.443144,61.3126048 L183.333872,61.2189185 L178.043323,97.7384827 C176.774256,98.8171613 176.512543,100.674552 177.434139,102.061902 C178.355734,103.449253 180.169336,103.928044 181.655632,103.176378 L181.655626,103.176363 Z" id="路径" fill="#FFB8B8"></path>
                    <path d="M216.28409,101.255623 C216.990962,100.59495 217.36889,99.6551078 217.31618,98.6889919 C217.26347,97.722876 216.785537,96.8297288 216.010983,96.2498798 L212.738729,58.6266866 L205.899288,60.5690155 L211.268136,97.0771519 C210.360359,98.4735736 210.640485,100.328266 211.920182,101.3943 C213.199879,102.460334 215.07466,102.400757 216.28409,101.255623 Z" id="路径" fill="#FFB8B8"></path>
                    <polygon id="路径" fill="#FFB8B8" points="194.345188 149.78029 190.614049 149.779985 188.839171 135.388622 194.345797 135.388926"></polygon>
                    <path d="M187.949078,148.714005 L195.144711,148.714005 L195.144711,153.244592 L183.418489,153.244592 L183.418489,153.244592 C183.418489,150.742417 185.446904,148.714005 187.949078,148.714005 Z" id="路径" fill="#2F2E41"></path>
                    <polygon id="路径" fill="#FFB8B8" points="211.083579 149.78029 207.352439 149.779985 205.577561 135.388622 211.084187 135.388926"></polygon>
                    <path d="M204.687469,148.714005 L211.883102,148.714005 L211.883102,153.244592 L200.156879,153.244592 L200.156879,153.244592 C200.156879,150.742417 202.185294,148.714005 204.687469,148.714005 Z" id="路径" fill="#2F2E41"></path>
                    <circle id="椭圆形" fill="#FFB8B8" cx="195.311974" cy="39.4819915" r="7.47476555"></circle>
                    <path d="M205.820104,140.699579 C205.192985,140.696692 204.654607,140.252648 204.532441,139.637537 L199.479273,113.493234 C199.383671,112.998505 198.940936,112.647861 198.437462,112.668125 C197.933989,112.68839 197.520866,113.073481 197.465334,113.574293 L194.635736,139.040245 C194.566903,139.682617 194.03816,140.177787 193.392658,140.204393 L189.148688,140.397235 C188.800144,140.415623 188.459047,140.291849 188.203404,140.05422 C187.94574,139.819279 187.7931,139.490791 187.779683,139.142355 L186.152407,99.8044505 C186.134568,99.4019225 186.304005,99.0137951 186.611325,98.7532156 L187.552327,97.9502872 C187.789612,97.7480798 188.091142,97.6368502 188.402899,97.6368502 L210.399794,97.6368502 C211.123297,97.6376637 211.709609,98.2239756 211.710425,98.9474784 L211.710425,139.189569 C211.711733,139.891801 211.158373,140.469798 210.45675,140.499059 L205.876165,140.698441 C205.857433,140.69901 205.838726,140.699579 205.820104,140.699579 Z" id="路径" fill="#2F2E41"></path>
                    <path d="M194.554543,103.360324 C190.998171,103.360324 187.863314,102.412906 186.280778,99.6491547 C186.148428,99.4214633 186.086379,99.1597129 186.102438,98.8968402 L188.090922,68.5009613 C188.107049,68.2551949 188.033644,68.0119013 187.884279,67.8160659 L182.304653,60.500382 C182.093412,60.2234863 182.001111,59.8738788 182.048142,59.5287962 C182.095173,59.1837136 182.277664,58.871557 182.555299,58.6612894 L190.925061,52.3203307 C191.100786,52.1867619 191.228677,52.0000138 191.289693,51.7878886 L191.533516,50.9346141 C191.688393,50.3893448 192.176865,50.0058932 192.743315,49.9849205 L198.884966,49.7485622 C199.300179,49.7346262 199.697829,49.916518 199.958812,50.2397579 L200.612419,51.0566248 C200.695698,51.160925 200.798695,51.247816 200.915536,51.3123235 L211.186675,56.9882995 C211.59943,57.2170108 211.857742,57.6495934 211.86332,58.1214459 L211.863533,58.1396512 L211.859339,58.1569982 C209.465052,68.1400146 209.599727,80.7582227 212.283061,97.8680683 C212.297725,98.4018361 211.986986,98.8910964 211.497623,99.1047462 C209.274582,100.067541 201.183128,103.360324 194.554543,103.360324 Z" id="路径" fill="#3B78FF"></path>
                    <path d="M188.299979,72.0067881 L181.343461,72.0067881 C180.982801,72.0073165 180.637906,71.8590009 180.390204,71.5968565 C180.142502,71.3347122 180.013948,70.981974 180.034893,70.6219222 C180.138425,68.8496737 180.342642,65.4792436 180.547088,62.8212968 C180.841325,58.9963555 184.589114,57.1137492 184.626873,57.0949778 L184.700184,57.0591394 L187.23042,58.6652853 L189.585171,70.4393216 C189.662071,70.8243158 189.562347,71.2235084 189.313425,71.5271071 C189.064503,71.8307059 188.692599,72.0067881 188.3,72.0067881 L188.299979,72.0067881 Z" id="路径" fill="#3B78FF"></path>
                    <path d="M207.362251,71.3574467 C206.991078,71.3551049 206.638253,71.1957017 206.391162,70.9187164 C206.14407,70.641731 206.025821,70.2730691 206.065701,69.904037 L207.349524,58.092738 L209.829849,56.2761175 L209.886306,56.2823746 C209.912829,56.2855062 212.555133,56.6154381 213.738838,59.5745908 C214.581729,61.6818902 215.869179,65.576518 216.56161,67.7105532 C216.673913,68.0572675 216.636603,68.4351028 216.458656,68.753156 C216.280709,69.0712091 215.978235,69.300688 215.624004,69.3863825 L207.678391,71.3190488 C207.574936,71.3445039 207.468791,71.3574467 207.362251,71.3574467 L207.362251,71.3574467 Z" id="路径" fill="#3B78FF"></path>
                    <path d="M195.482112,47.0088743 C197.080759,44.4795696 195.084904,37.5169897 190.735804,37.3353264 C189.731708,37.2933861 189.346098,35.8322981 189.00489,34.8871207 C188.652679,33.7766248 188.833594,32.565678 189.494996,31.6066154 C190.159141,30.6635148 191.073624,29.924778 192.135274,29.4737488 C195.396883,27.9753133 199.233066,28.5193347 201.949456,30.8655294 C204.665846,33.2117241 205.762129,36.9279621 204.754098,40.3728537 C203.746067,43.8177453 200.819385,46.3567988 197.26671,46.8685639 L195.482112,47.0088743 Z" id="路径" fill="#2F2E41"></path>
                    <path d="M150.341178,7.10542736e-15 L2.13034058,7.10542736e-15 C0.954326888,0.001304881 8.64970298e-15,0.954326888 8.64970298e-15,2.13034058 L8.64970298e-15,102.560682 C8.64970298e-15,103.736695 0.954327582,104.689716 2.13034058,104.691023 L150.341178,104.691023 C151.517191,104.689716 152.471518,103.736695 152.471518,102.560682 L152.471518,2.13034058 C152.471518,0.954326888 151.517192,0.001304881 150.341178,7.10542736e-15 Z M151.86285,102.560682 C151.86285,103.400939 151.181435,104.082354 150.341178,104.082354 L2.13034058,104.082354 C1.2900836,104.082354 0.608668736,103.400939 0.608668736,102.560682 L0.608668736,2.13034058 C0.608668736,1.2900836 1.2900836,0.608668736 2.13034058,0.608668736 L150.341178,0.608668736 C151.181435,0.608668736 151.86285,1.2900836 151.86285,2.13034058 L151.86285,102.560682 Z" id="形状" fill="#3F3D56"></path>
                    <rect id="矩形" fill="#3F3D56" x="0.304334368" y="8.5335296" width="151.86285" height="1"></rect>
                    <circle id="椭圆形" fill="#3F3D56" cx="5.47801863" cy="4.56501552" r="1.82600621"></circle>
                    <circle id="椭圆形" fill="#3F3D56" cx="10.7277865" cy="4.56501552" r="1.82600621"></circle>
                    <circle id="椭圆形" fill="#3F3D56" cx="15.9775543" cy="4.56501552" r="1.82600621"></circle>
                    <path d="M122.898365,29.3574809 L28.5547108,29.3574809 C25.9494827,29.3574809 23.8375281,27.2455263 23.8375281,24.6402982 C23.8375281,22.0350701 25.9494827,19.9231155 28.5547108,19.9231155 L122.898365,19.9231155 C125.503593,19.9231155 127.615548,22.0350701 127.615548,24.6402982 C127.615548,27.2455263 125.503593,29.3574809 122.898365,29.3574809 Z M28.5547108,20.5317842 C26.2856412,20.5317842 24.4461968,22.3712286 24.4461968,24.6402982 C24.4461968,26.9093678 26.2856412,28.7488122 28.5547108,28.7488122 L122.898365,28.7488122 C125.167434,28.7488122 127.006879,26.9093678 127.006879,24.6402982 C127.006879,22.3712286 125.167434,20.5317842 122.898365,20.5317842 L28.5547108,20.5317842 Z" id="形状" fill="#3F3D56"></path>
                    <path d="M52.9014602,53.399896 L34.6413981,53.399896 C32.0361701,53.399896 29.9242154,51.2879414 29.9242154,48.6827133 C29.9242154,46.0774852 32.0361701,43.9655306 34.6413981,43.9655306 L52.9014602,43.9655306 C55.5066883,43.9655306 57.6186429,46.0774852 57.6186429,48.6827133 C57.6186429,51.2879414 55.5066883,53.399896 52.9014602,53.399896 Z M34.6413981,44.5741993 C32.3723285,44.5741993 30.5328842,46.4136437 30.5328842,48.6827133 C30.5328842,50.9517829 32.3723285,52.7912273 34.6413981,52.7912273 L52.9014602,52.7912273 C55.1705298,52.7912273 57.0099742,50.9517829 57.0099742,48.6827133 C57.0099742,46.4136437 55.1705298,44.5741993 52.9014602,44.5741993 L34.6413981,44.5741993 Z" id="形状" fill="#3F3D56"></path>
                    <path d="M52.9014602,69.2252831 L34.6413981,69.2252831 C32.0361701,69.2252831 29.9242154,67.1133285 29.9242154,64.5081004 C29.9242154,61.9028724 32.0361701,59.7909177 34.6413981,59.7909177 L52.9014602,59.7909177 C55.5066883,59.7909177 57.6186429,61.9028724 57.6186429,64.5081004 C57.6186429,67.1133285 55.5066883,69.2252831 52.9014602,69.2252831 Z M34.6413981,60.3995865 C32.3723286,60.3995865 30.5328844,62.2390309 30.5328844,64.5081004 C30.5328844,66.7771699 32.3723286,68.6166144 34.6413981,68.6166144 L52.9014602,68.6166144 C55.1705298,68.6166144 57.0099742,66.77717 57.0099742,64.5081004 C57.0099742,62.2390308 55.1705298,60.3995865 52.9014602,60.3995865 L34.6413981,60.3995865 Z" id="形状" fill="#3F3D56"></path>
                    <path d="M52.9014602,85.0506703 L34.6413981,85.0506703 C32.0361701,85.0506703 29.9242154,82.9387156 29.9242154,80.3334876 C29.9242154,77.7282595 32.0361701,75.6163049 34.6413981,75.6163049 L52.9014602,75.6163049 C55.5066883,75.6163049 57.6186429,77.7282595 57.6186429,80.3334876 C57.6186429,82.9387156 55.5066883,85.0506703 52.9014602,85.0506703 Z M34.6413981,76.2249736 C32.3723285,76.2249736 30.5328842,78.064418 30.5328842,80.3334876 C30.5328842,82.6025572 32.3723285,84.4420015 34.6413981,84.4420015 L52.9014602,84.4420015 C55.1705298,84.4420015 57.0099742,82.6025572 57.0099742,80.3334876 C57.0099742,78.064418 55.1705298,76.2249736 52.9014602,76.2249736 L34.6413981,76.2249736 Z" id="形状" fill="#3F3D56"></path>
                    <path d="M55.6404695,26.7706388 L30.0763826,26.7706388 C28.899828,26.7706388 27.946042,25.8168528 27.946042,24.6402982 C27.946042,23.4637436 28.899828,22.5099576 30.0763826,22.5099576 L55.6404695,22.5099576 C56.8170241,22.5099576 57.7708101,23.4637436 57.7708101,24.6402982 C57.7708101,25.8168528 56.8170241,26.7706388 55.6404695,26.7706388 L55.6404695,26.7706388 Z" id="路径" fill="#3B78FF"></path>
                    <path d="M119.702854,25.7054685 C118.526299,25.7054685 117.572513,24.7516825 117.572513,23.5751279 C117.572513,22.3985733 118.526299,21.4447873 119.702854,21.4447873 C120.879409,21.4447873 121.833195,22.3985733 121.833195,23.5751279 C121.831876,24.7511361 120.878862,25.7041502 119.702854,25.7054685 Z M119.702854,22.0534561 C118.862458,22.0534561 118.181182,22.7347318 118.181182,23.5751279 C118.181182,24.4155241 118.862458,25.0967998 119.702854,25.0967998 C120.54325,25.0967998 121.224526,24.4155241 121.224526,23.5751279 C121.223565,22.7351301 120.542852,22.0544171 119.702854,22.0534561 L119.702854,22.0534561 Z" id="形状" fill="#3F3D56"></path>
                    <path d="M122.998375,27.6326722 C122.917646,27.6327634 122.84021,27.6006718 122.783211,27.543502 L120.644921,25.4051392 C120.568046,25.3282651 120.538023,25.2162183 120.566161,25.1112059 C120.594298,25.0061934 120.676322,24.9241692 120.781334,24.8960308 C120.886347,24.8678925 120.998393,24.897915 121.075268,24.9747891 L123.213561,27.1131549 C123.300573,27.2001928 123.326597,27.3310695 123.279503,27.4447743 C123.23241,27.5584791 123.121468,27.6326274 122.998397,27.6326722 L122.998375,27.6326722 Z" id="路径" fill="#3F3D56"></path>
                    <path d="M118.485517,51.5738898 L108.138148,51.5738898 C106.541395,51.5738898 105.246972,50.2794659 105.246972,48.6827133 C105.246972,47.0859607 106.541395,45.7915368 108.138148,45.7915368 L118.485517,45.7915368 C120.082269,45.7915368 121.376693,47.0859607 121.376693,48.6827133 C121.376693,50.2794659 120.082269,51.5738898 118.485517,51.5738898 L118.485517,51.5738898 Z" id="路径" fill="#3B78FF"></path>
                    <path d="M118.485517,67.3992769 L108.138148,67.3992769 C106.541395,67.3992769 105.246972,66.1048531 105.246972,64.5081004 C105.246972,62.9113477 106.541395,61.6169239 108.138148,61.6169239 L118.485517,61.6169239 C120.082269,61.6169239 121.376693,62.9113477 121.376693,64.5081004 C121.376693,66.1048531 120.082269,67.3992769 118.485517,67.3992769 L118.485517,67.3992769 Z" id="路径" fill="#3B78FF"></path>
                    <path d="M118.485517,83.2246641 L108.138148,83.2246641 C106.541395,83.2246641 105.246972,81.9302403 105.246972,80.3334876 C105.246972,78.7367349 106.541395,77.4423111 108.138148,77.4423111 L118.485517,77.4423111 C120.082269,77.4423111 121.376693,78.7367349 121.376693,80.3334876 C121.376693,81.9302403 120.082269,83.2246641 118.485517,83.2246641 L118.485517,83.2246641 Z" id="路径" fill="#3B78FF"></path>
                    <path d="M239.695666,153.830237 L164.220742,153.830237 C164.052663,153.830237 163.916408,153.693982 163.916408,153.525903 C163.916408,153.357824 164.052663,153.221569 164.220742,153.221569 L239.695666,153.221569 C239.863745,153.221569 240,153.357824 240,153.525903 C240,153.693982 239.863745,153.830237 239.695666,153.830237 Z" id="路径" fill="#3F3D56"></path>
                </g>
            </g>
        </g>
    </g>
</svg>