<?xml version="1.0" encoding="UTF-8"?>
<svg width="75px" height="68px" viewBox="0 0 75 68" version="1.1" xmlns="http://www.w3.org/2000/svg" xmlns:xlink="http://www.w3.org/1999/xlink">
    <title>undraw_mail_sent_re_0ofv</title>
    <g id="页面-1" stroke="none" stroke-width="1" fill="none" fill-rule="evenodd">
        <g id="升级方案/联系我们后，反馈页面，已通知平台反馈" transform="translate(-388.000000, -75.000000)" fill-rule="nonzero">
            <g id="undraw_mail_sent_re_0ofv" transform="translate(389.189009, 76.000000)">
                <path d="M71.1793196,24.716853 C71.1535351,24.716853 71.1283675,24.7089323 71.1072185,24.6941823 L36.1734703,0.365316634 C35.9557368,0.214392249 35.6670853,0.214884544 35.4498678,0.366550739 L0.767749479,24.693936 C0.710624633,24.7340033 0.631834855,24.7201754 0.591767585,24.6630505 C0.551700314,24.6059257 0.565528212,24.5271359 0.622653058,24.4870686 L35.3048004,0.159683371 C35.6089257,-0.0526166639 36.0130316,-0.0532807681 36.3178531,0.158018529 L71.2516,24.4868185 C71.296892,24.5183791 71.3164489,24.5756913 71.2998972,24.6283551 C71.2833455,24.6810189 71.2345181,24.716853 71.1793145,24.716853 L71.1793196,24.716853 Z" id="路径" stroke="#3F3D56" stroke-width="2" fill="#3F3D56"></path>
                <polygon id="路径" fill="#91C9AC" points="6.46162217 26.3543232 35.859883 4.56660927 65.4812014 27.9046177 37.3746096 44.5666093 22.1151425 41.0883484"></polygon>
                <path d="M36.5848804,39.9349277 C36.4606073,39.9349277 36.337502,39.9109461 36.2224627,39.8639377 L15.8109907,31.3946105 L15.8109907,4.88421053 C15.8115594,4.39611029 16.207101,4.00056869 16.6952013,4 L55.853096,4 C56.341196,4.00056938 56.7367371,4.39611058 56.7373065,4.88421053 L56.7373065,31.4131158 L56.6989432,31.4295229 L36.9582775,39.8598034 C36.8400621,39.9094788 36.7131088,39.9349277 36.5848804,39.9349277 L36.5848804,39.9349277 Z" id="路径" fill="#E7FEEA"></path>
                <path d="M36.3112215,40.3042929 C36.1787077,40.3042929 36.0474356,40.2787562 35.9247495,40.2286758 L15.4741739,31.7430665 L15.4741739,5.19047706 C15.4747663,4.6675055 15.8985708,4.24370102 16.4215423,4.24310863 L55.5794371,4.24310863 C56.1024086,4.24370102 56.5262131,4.6675055 56.5268055,5.19047706 L56.5268055,31.7610766 L36.7094118,40.2241082 C36.5833645,40.2771472 36.4479732,40.3042929 36.3112215,40.3042929 Z M15.7268004,31.5743175 L36.0210855,39.9951027 C36.2103733,40.0719045 36.4223693,40.0706402 36.6107276,39.9915861 L56.2741802,31.5943006 L56.2741802,5.19047706 C56.2737257,4.80697292 55.9629475,4.49619473 55.5794434,4.49574021 L16.4215486,4.49574021 C16.0380445,4.49619473 15.7272663,4.80697292 15.7268004,5.19047706 L15.7268004,31.5743175 Z" id="形状" fill="#3F3D56"></path>
                <path d="M0.909498947,25 L0.932195368,25.0101053 L15.7894737,31.1743158 L36.2589221,39.6665288 C36.4161666,39.7307725 36.5925015,39.7298636 36.7490754,39.6640025 L36.7490754,39.6640025 L56.5894737,31.1920025 L71.0905011,25 L71.1157895,25 C71.6039009,25.0005416 72,25.3960991 72,25.8842105 L72,25.8842105 L72,64.2842105 C72,64.7723217 71.6039007,65.1678788 71.1157895,65.1684211 L71.1157895,65.1684211 L0.884210526,65.1684211 C0.396099339,65.1678788 0,64.7723217 0,64.2842105 L0,64.2842105 L0,25.8842105 C0,25.3960991 0.39609905,25.0005416 0.884210526,25 L0.884210526,25 L0.909498947,25 Z" id="形状" stroke="#3F3D56" stroke-width="2" fill="#FFFFFF"></path>
                <path d="M21.8222156,58.6683463 L5.47186064,58.6683463 C5.19871945,58.6686969 4.94617618,58.5231795 4.80950409,58.2866907 C4.67283201,58.0502019 4.67283201,57.7587342 4.80950409,57.5222453 C4.94617618,57.2857565 5.19871945,57.1402391 5.47186064,57.1405897 L21.8222156,57.1405897 C22.0953568,57.1402391 22.3479,57.2857565 22.4845721,57.5222453 C22.6212442,57.7587342 22.6212442,58.0502019 22.4845721,58.2866907 C22.3479,58.5231795 22.0953568,58.6686969 21.8222156,58.6683463 Z" id="路径" fill="#05A776"></path>
                <path d="M11.3380051,55.3841358 L5.47186064,55.3841358 C5.19871945,55.3844864 4.94617618,55.238969 4.80950409,55.0024802 C4.67283201,54.7659913 4.67283201,54.4745236 4.80950409,54.2380348 C4.94617618,54.001546 5.19871945,53.8560286 5.47186064,53.8563792 L11.3380051,53.8563792 C11.6111462,53.8560286 11.8636895,54.001546 12.0003616,54.2380348 C12.1370337,54.4745236 12.1370337,54.7659913 12.0003616,55.0024802 C11.8636895,55.238969 11.6111462,55.3844864 11.3380051,55.3841358 L11.3380051,55.3841358 Z" id="路径" fill="#05A776"></path>
                <path d="M33.2057223,32.0498082 C32.5830106,32.0509632 31.9768073,31.8495989 31.478556,31.4760792 L31.4476681,31.4528876 L24.9432494,26.4728731 C24.123736,25.8449585 23.7014629,24.8275364 23.8354962,23.8038597 C23.9695295,22.780183 24.6395064,21.9057726 25.5930531,21.5100105 C26.5465997,21.1142485 27.6388498,21.2572603 28.4583631,21.8851749 L32.6714333,25.115698 L42.6275885,12.1314206 C43.0939239,11.5232067 43.7827794,11.1251639 44.5426035,11.0248635 C45.3024277,10.9245631 46.0709746,11.1302219 46.6791604,11.596594 L46.6172593,11.6806427 L46.680768,11.5978163 C47.9455964,12.5699147 48.1848526,14.3824079 47.2155947,15.6494144 L35.5047673,30.922036 C34.9557832,31.6353772 34.1058518,32.052298 33.2057223,32.0498082 L33.2057223,32.0498082 Z" id="路径" fill="#05A776"></path>
            </g>
        </g>
    </g>
</svg>