<?xml version="1.0" encoding="UTF-8"?>
<svg width="80px" height="79px" viewBox="0 0 80 79" version="1.1" xmlns="http://www.w3.org/2000/svg" xmlns:xlink="http://www.w3.org/1999/xlink">
    <title>undraw_no_data_re_kwbl</title>
    <g id="页面-1" stroke="none" stroke-width="1" fill="none" fill-rule="evenodd">
        <g id="开通后说明" transform="translate(-1496.000000, -508.000000)" fill-rule="nonzero">
            <g id="消息通知卡" transform="translate(1329.000000, 428.000000)">
                <g id="undraw_no_data_re_kwbl" transform="translate(167.000000, 80.000000)">
                    <path d="M50.7872173,17.5612154 L29.2306566,17.5612154 C28.2078464,17.5624596 27.3790051,18.3913009 27.3777609,19.4141111 L27.3777609,67.3238187 L27.1307081,67.399176 L21.8425362,69.0186069 C21.3206986,69.1777202 20.7685702,68.8842389 20.6085398,68.3626818 L4.87864942,16.9818766 C4.71924976,16.4600011 5.01283518,15.9076687 5.53458192,15.7478481 L13.6836446,13.2526151 L37.3080653,6.02138068 L45.4570662,3.52614774 C45.7075297,3.44906321 45.9783678,3.47476052 46.2098648,3.5975738 C46.4413618,3.72038707 46.614507,3.93023083 46.6911244,4.18083757 L50.7118835,17.3141626 L50.7872173,17.5612154 Z" id="路径" fill="#F2F2F2"></path>
                    <path d="M55.4911143,17.3141626 L50.6451743,1.4854919 C50.4823463,0.952850452 50.1145117,0.506754858 49.6226543,0.245419441 C49.130797,-0.0159159759 48.5552431,-0.071064971 48.0227092,0.0921142959 L36.5656372,3.59902831 L12.9424851,10.8315005 L1.48541303,14.3396498 C0.377201574,14.6799431 -0.246231643,15.8532727 0.0920008453,16.9621149 L16.6544282,71.0580238 C16.9253133,71.9404609 17.7399212,72.5431408 18.6629993,72.5440464 C18.8711191,72.5440464 19.0780679,72.5129104 19.2768908,72.4514014 L27.1307081,70.047578 L27.3777609,69.9709916 L27.3777609,69.7128215 L27.1307081,69.7881725 L19.20403,72.215466 C18.2258571,72.5136416 17.1908952,71.9638354 16.8903808,70.9863785 L0.329219676,16.8892343 C0.184793049,16.419443 0.233207329,15.9114933 0.463781802,15.4774445 C0.694356275,15.0433956 1.08814408,14.7189145 1.55827136,14.5755852 L13.0153434,11.0674359 L36.6385585,3.83620143 L48.0956305,0.328052158 C48.2721878,0.27416983 48.4557436,0.246696776 48.6403399,0.246524745 C49.4535476,0.248350672 50.1707201,0.77970756 50.4092772,1.55713967 L55.2329577,17.3141651 L55.3095589,17.5612178 L55.5665037,17.5612178 L55.4911143,17.3141626 Z" id="路径" fill="#3F3D56"></path>
                    <path d="M15.1541656,15.7882387 C14.6654351,15.7878906 14.2340383,15.4689417 14.0904392,15.0017833 L12.4993737,9.8048085 C12.4130259,9.52287464 12.4422314,9.21818488 12.5805636,8.95778739 C12.7188958,8.6973899 12.9550194,8.50262214 13.2369744,8.41634354 L34.9700827,1.76274686 C35.5571187,1.58361188 36.1783552,1.91359223 36.3586082,2.50028584 L37.9496737,7.69732117 C38.1286901,8.28434568 37.7987524,8.90550173 37.2121347,9.08584666 L15.4789659,15.7394433 C15.3737219,15.7717428 15.2642545,15.7882387 15.1541656,15.7882387 L15.1541656,15.7882387 Z" id="路径" fill="#457FFF"></path>
                    <circle id="椭圆形" fill="#457FFF" cx="23.4888106" cy="3.08155529" r="2.47052766"></circle>
                    <circle id="椭圆形" fill="#FFFFFF" cx="23.4888106" cy="3.08155529" r="1.5644147"></circle>
                    <path d="M74.4413412,71.9128239 L32.6894237,71.9128239 C32.1098158,71.9121561 31.6401173,71.4424576 31.6394495,70.8628496 L31.6394495,20.8346645 C31.6400969,20.2550481 32.1098074,19.7853377 32.6894237,19.7846903 L74.4413412,19.7846903 C75.0209488,19.7853587 75.490647,20.2550569 75.4913154,20.8346645 L75.4913154,70.8628496 C75.4906259,71.4424485 75.0209401,71.9121344 74.4413412,71.9128239 Z" id="路径" fill="#E6E6E6"></path>
                    <path d="M55.2329602,17.3141626 L29.2306566,17.3141626 C28.0715672,17.315803 27.1323485,18.2550217 27.1307081,19.4141111 L27.1307081,69.7881701 L27.3777609,69.712819 L27.3777609,19.4141111 C27.3790051,18.3913009 28.2078464,17.5624596 29.2306566,17.5612154 L55.3095614,17.5612154 L55.2329602,17.3141626 Z M77.9000515,17.3141626 L29.2306566,17.3141626 C28.0715672,17.315803 27.1323485,18.2550217 27.1307081,19.4141111 L27.1307081,75.9891945 C27.1323478,77.1482842 28.0715669,78.0875033 29.2306566,78.089143 L77.9000515,78.089143 C79.0591412,78.0875033 79.9983603,77.1482842 80,75.9891945 L80,19.4141111 C79.9983596,18.2550217 79.0591409,17.315803 77.9000515,17.3141626 L77.9000515,17.3141626 Z M79.7529472,75.9891945 C79.751703,77.0120048 78.9228617,77.8408461 77.9000515,77.8420902 L29.2306566,77.8420902 C28.2078464,77.8408461 27.3790051,77.0120048 27.3777609,75.9891945 L27.3777609,19.4141111 C27.3790051,18.3913009 28.2078464,17.5624596 29.2306566,17.5612154 L77.9000515,17.5612154 C78.9228617,17.5624596 79.751703,18.3913009 79.7529472,19.4141111 L79.7529472,75.9891945 Z" id="形状" fill="#3F3D56"></path>
                    <path d="M64.9298097,22.7493235 L42.2009552,22.7493235 C41.587246,22.7486325 41.0899087,22.2512952 41.0892178,21.637586 L41.0892178,16.2024252 C41.0899094,15.5887162 41.5872463,15.0913794 42.2009552,15.0906877 L64.9298097,15.0906877 C65.5435186,15.0913794 66.0408555,15.5887162 66.0415471,16.2024252 L66.0415471,21.637586 C66.0408562,22.2512952 65.5435189,22.7486325 64.9298097,22.7493235 Z" id="路径" fill="#457FFF"></path>
                    <circle id="椭圆形" fill="#457FFF" cx="53.5653541" cy="12.9907404" r="2.47052766"></circle>
                    <circle id="椭圆形" fill="#FFFFFF" cx="53.5653541" cy="12.9907404" r="1.50478234"></circle>
                </g>
            </g>
        </g>
    </g>
</svg>