<?xml version="1.0" encoding="UTF-8"?>
<svg width="120px" height="75px" viewBox="0 0 120 75" version="1.1" xmlns="http://www.w3.org/2000/svg" xmlns:xlink="http://www.w3.org/1999/xlink">
    <title>undraw_safe_re_kiil</title>
    <g id="页面-1" stroke="none" stroke-width="1" fill="none" fill-rule="evenodd">
        <g id="开通后说明" transform="translate(-675.000000, -111.000000)" fill-rule="nonzero">
            <g id="查询条件-至顶悬浮备份" transform="translate(463.000000, 71.000000)">
                <g id="编组" transform="translate(160.000000, 40.000000)">
                    <g id="undraw_safe_re_kiil" transform="translate(52.000000, 0.000000)">
                        <path d="M8.32765052,68.8324144 C9.44060527,69.223625 10.6770271,69.0058273 11.589315,68.2578669 C12.7317224,67.2989996 13.0903316,65.7193654 13.3813208,64.256543 L14.2432907,59.9300484 L12.4386526,61.1727713 C11.1407934,62.0663963 9.81380558,62.9887041 8.91512762,64.2831452 C8.01644966,65.5775862 7.62425334,67.3446246 8.34622746,68.7451771" id="ad903c08-5677-4dbe-a9c7-05a0eb46801f-299" fill="#E6E6E6"></path>
                        <path d="M8.48191639,74.0705135 C8.29926793,72.7399589 8.11141794,71.3924621 8.2395245,70.0476404 C8.35336398,68.8533662 8.71762058,67.6868831 9.45950919,66.7303937 C9.8532701,66.2236537 10.332404,65.789481 10.8753691,65.4473961 C11.0169997,65.3582268 11.1471869,65.5824876 11.0062994,65.6713596 C10.066862,66.2650742 9.34023538,67.1417825 8.93118106,68.1750851 C8.47938993,69.3241801 8.40686556,70.5768602 8.48533455,71.7974394 C8.53244566,72.5356126 8.63216667,73.2687329 8.73277936,74.0014073 C8.74959829,74.0702239 8.70984319,74.140219 8.64212391,74.1610204 C8.57306494,74.1796589 8.50187361,74.1392243 8.48251085,74.0703649 L8.48191639,74.0705135 Z" id="a94887ac-0642-4b28-b311-c351a0f7f12b-300" fill="#F2F2F2"></path>
                        <path d="M44.6739235,45.4046706 C44.5414009,45.4676532 44.3969664,45.5016385 44.2502638,45.5043574 L30.6360313,45.878014 C29.45606,45.9036658 28.4787095,44.967905 28.4530576,43.7879338 C28.4274057,42.6079626 29.3631664,41.6306119 30.5431377,41.60496 L44.1574014,41.2313689 C44.7315473,41.2194831 45.2069573,41.6746126 45.2200973,42.2487312 L45.2677568,44.4416808 C45.2762859,44.8514916 45.0439325,45.2282875 44.6739235,45.4046706 L44.6739235,45.4046706 Z" id="路径" fill="#3B78FF"></path>
                        <path d="M27.2053137,74.0982407 L25.0118157,74.0982407 C24.437536,74.097597 23.9721509,73.6322119 23.9715071,73.0579322 L23.9715071,54.7761206 C23.9721501,54.2018406 24.4375357,53.736455 25.0118157,53.7358121 L27.2053137,53.7358121 C27.7795933,53.7364559 28.2449784,54.201841 28.2456222,54.7761206 L28.2456222,73.0579322 C28.2449776,73.6322115 27.779593,74.0975962 27.2053137,74.0982407 Z" id="路径" fill="#3B78FF"></path>
                        <path d="M33.0299046,74.0982407 L30.8363754,74.0982407 C30.2620957,74.097597 29.7967106,73.6322119 29.7960668,73.0579322 L29.7960668,54.7761206 C29.7967098,54.2018406 30.2620954,53.736455 30.8363754,53.7358121 L33.0299046,53.7358121 C33.6041842,53.7364559 34.0695693,54.201841 34.0702131,54.7761206 L34.0702131,73.0579322 C34.0695685,73.6322115 33.6041839,74.0975962 33.0299046,74.0982407 Z" id="路径" fill="#3B78FF"></path>
                        <circle id="椭圆形" fill="#3B78FF" cx="29.2350047" cy="27.1516384" r="7.57939077"></circle>
                        <path d="M31.8077456,60.218627 L26.3551245,60.218627 C24.0486601,60.2272858 21.914121,59.0002732 20.7608814,57.0028017 C19.6076419,55.0053302 19.6122896,52.5432588 20.7730622,50.5501555 L28.3984242,37.3426777 C28.5709842,37.0437982 28.8898859,36.8596812 29.2350032,36.8596812 C29.5801204,36.8596812 29.8990221,37.0437982 30.0715821,37.3426777 L37.5433931,50.2842006 C38.7264375,52.3333476 38.7264202,54.8579814 37.5433478,56.9071122 C36.3602753,58.956243 34.1738811,60.218627 31.8077456,60.218627 Z" id="路径" fill="#2F2E41"></path>
                        <path d="M31.0239683,30.3333404 C31.5152777,30.3196975 32.1267384,30.3026438 32.5978065,29.9585321 C32.8817439,29.7426151 33.0558044,29.4123017 33.0733865,29.0560272 C33.090658,28.8024655 32.9883685,28.5554142 32.7969096,28.3882755 C32.5508737,28.1803713 32.1915987,28.1316076 31.8044211,28.2453906 L32.205567,25.3138636 L31.9110943,25.2735159 L31.4395046,28.7199006 L31.6854128,28.6070598 C31.9705078,28.476296 32.3618571,28.4097534 32.6050455,28.6152604 C32.7260899,28.7241642 32.7894343,28.8832798 32.7763561,29.0455781 C32.7617703,29.3106447 32.6326014,29.5562562 32.4224699,29.7184838 C32.055883,29.9862533 31.5684925,30.0207945 31.0157023,30.0362505 L31.0239683,30.3333404 Z" id="路径" fill="#2F2E41"></path>
                        <rect id="矩形" fill="#2F2E41" x="33.6618756" y="25.5666853" width="1.60082826" height="1"></rect>
                        <rect id="矩形" fill="#2F2E41" x="28.6089485" y="25.5666853" width="1.60082826" height="1"></rect>
                        <path d="M27.4522517,58.5233818 C27.3892692,58.3908587 27.3552839,58.2464237 27.3525649,58.0997207 L26.9789083,44.4854882 C26.9532565,43.3055169 27.8890173,42.3281664 29.0689885,42.3025145 C30.2489597,42.2768626 31.2263104,43.2126233 31.2519623,44.3925946 L31.6255534,58.0068583 C31.6374392,58.5810042 31.1823097,59.0564142 30.6081911,59.0695542 L28.4152415,59.1172137 C28.0054307,59.1257442 27.6286343,58.8933911 27.4522517,58.5233818 L27.4522517,58.5233818 Z" id="路径" fill="#3B78FF"></path>
                        <path d="M28.5317769,21.5488993 C29.4526536,22.7531842 30.9145293,23.5610507 32.4595926,23.3697706 C33.9309321,23.1876171 35.1447552,22.1620928 35.4492907,20.6938741 C35.7190836,19.2852038 35.2868755,17.8333305 34.2905876,16.8015598 C33.2491674,15.7062159 31.7587233,15.117003 30.2834514,14.9149513 C27.4888171,14.5322114 24.6186444,15.5166241 22.5056322,17.3525874 C21.4444955,18.2653418 20.5974966,19.400684 20.0248663,20.6778787 C19.473251,21.9456335 19.2105449,23.320217 19.2557811,24.7020403 C19.3369742,27.4328502 20.5331314,30.1584273 22.5970604,31.9694618 C22.8533912,32.1936718 23.1216934,32.4038146 23.400785,32.5989644 C23.6361726,32.7640941 23.8592103,32.3777235 23.6258111,32.2139878 C21.5122014,30.7312509 20.164018,28.3186372 19.7940011,25.7836268 C19.4017635,23.1984757 20.1654299,20.5715641 21.8824621,18.5995963 C23.5891789,16.6589751 26.0916559,15.3976322 28.6835237,15.284616 C31.2915683,15.170894 34.5507376,16.3352429 35.0387834,19.2384349 C35.2575321,20.5396826 34.7711269,21.9074594 33.5787045,22.5589215 C32.3020185,23.2564127 30.7365578,22.9693692 29.6394112,22.068572 C29.3707664,21.8488714 29.1282875,21.5989953 28.9167564,21.3238716 C28.7448083,21.098997 28.357387,21.3208339 28.5317814,21.5488993 L28.5317769,21.5488993 Z" id="路径" fill="#2F2E41"></path>
                        <polygon id="fc777aff-63b1-4720-84dc-e3a9c20790b9" fill="#F1F1F1" transform="translate(75.278654, 21.661074) rotate(-8.219950) translate(-75.278654, -21.661074) " points="42.7916911 6.24544577 107.765617 6.24544577 107.765617 37.0767013 42.7916911 37.0767013"></polygon>
                        <polygon id="ecffa418-b240-4504-be04-512edea7ccda" fill="#FFFFFF" transform="translate(75.291561, 21.750090) rotate(-8.219950) translate(-75.291561, -21.750090) " points="44.6625024 8.8883496 105.92062 8.8883496 105.92062 34.6118299 44.6625024 34.6118299"></polygon>
                        <polygon id="b49ce3f1-9d75-4481-986b-3b6beb000c79" fill="#E5E5E5" transform="translate(72.989854, 6.010741) rotate(-8.219950) translate(-72.989854, -6.010741) " points="40.5028899 4.63059793 105.476818 4.63059793 105.476818 7.39088424 40.5028899 7.39088424"></polygon>
                        <circle id="a4219562-805a-49cd-8b89-b1f92f7a9e75" fill="#FFFFFF" cx="42.9015424" cy="10.6027179" r="1"></circle>
                        <circle id="b0f6399c-6944-4f74-a888-473f61f9730c" fill="#FFFFFF" cx="44.8234916" cy="10.3250788" r="1"></circle>
                        <circle id="b03f93dc-2c99-4323-9b17-02f51b8830c0" fill="#FFFFFF" cx="46.7455285" cy="10.0474249" r="1"></circle>
                        <rect id="a6067cfc-0392-4d68-afe4-e34d11a8f0ac" fill="#E6E6E6" x="55.0260738" y="14.8887667" width="64.9739262" height="30.8312556"></rect>
                        <rect id="ecd65817-7467-4dbd-a435-c0f1d9841c98" fill="#FFFFFF" x="56.8840248" y="17.5326024" width="61.2581179" height="25.7234803"></rect>
                        <rect id="eea6c39d-8a45-4eb1-bab9-6120f465de14" fill="#CBCBCB" x="54.9983689" y="13.1074643" width="64.9739276" height="2.76028631"></rect>
                        <circle id="ab9e51f9-7431-4d30-8193-f9435a6bd5c3" fill="#FFFFFF" cx="57.0496032" cy="14.730573" r="1"></circle>
                        <circle id="a54ed687-3b0d-413b-b405-af8897a5c032" fill="#FFFFFF" cx="58.9915026" cy="14.730573" r="1"></circle>
                        <circle id="fd1d2195-7e97-488f-8f4b-7061a06deb9a" fill="#FFFFFF" cx="60.9334897" cy="14.730573" r="1"></circle>
                        <rect id="矩形" fill="#E6E6E6" x="92.1827665" y="21.443522" width="8.62744515" height="1"></rect>
                        <rect id="矩形" fill="#E6E6E6" x="92.1827665" y="23.3471811" width="13.3226578" height="1"></rect>
                        <rect id="矩形" fill="#E6E6E6" x="92.321288" y="25.1601609" width="10.857672" height="1"></rect>
                        <rect id="矩形" fill="#E6E6E6" x="92.1827665" y="27.1494166" width="6.33853156" height="1"></rect>
                        <rect id="矩形" fill="#E6E6E6" x="92.1827665" y="29.0924975" width="9.56648857" height="1"></rect>
                        <rect id="矩形" fill="#E6E6E6" x="88.2505265" y="21.2395398" width="1.05642292" height="1.05642143"></rect>
                        <rect id="矩形" fill="#E6E6E6" x="88.2505265" y="23.1431959" width="1.05642292" height="1.05641994"></rect>
                        <rect id="矩形" fill="#E6E6E6" x="88.2505265" y="24.9561787" width="1.05642292" height="1.05642292"></rect>
                        <rect id="矩形" fill="#E6E6E6" x="88.2505265" y="26.9454344" width="1.05642292" height="1.05642292"></rect>
                        <rect id="矩形" fill="#E6E6E6" x="88.2505265" y="28.8885168" width="1.05642292" height="1.05642292"></rect>
                        <rect id="矩形" fill="#E6E6E6" x="92.1827665" y="31.0477262" width="8.62744515" height="1"></rect>
                        <rect id="矩形" fill="#E6E6E6" x="92.1827665" y="32.9513868" width="13.3226578" height="1"></rect>
                        <rect id="矩形" fill="#E6E6E6" x="92.321288" y="34.7643666" width="10.857672" height="1"></rect>
                        <rect id="矩形" fill="#E6E6E6" x="92.1827665" y="36.7536223" width="6.33853156" height="1"></rect>
                        <rect id="矩形" fill="#E6E6E6" x="92.1827665" y="38.6967032" width="9.56648857" height="1"></rect>
                        <rect id="矩形" fill="#E6E6E6" x="88.2505265" y="30.843744" width="1.05642292" height="1.05642292"></rect>
                        <rect id="矩形" fill="#E6E6E6" x="88.2505265" y="32.7474016" width="1.05642292" height="1.05641994"></rect>
                        <rect id="矩形" fill="#E6E6E6" x="88.2505265" y="34.5603844" width="1.05642292" height="1.05642292"></rect>
                        <rect id="矩形" fill="#E6E6E6" x="88.2505265" y="36.5496401" width="1.05642292" height="1.05642292"></rect>
                        <rect id="矩形" fill="#E6E6E6" x="88.2505265" y="38.4927225" width="1.05642292" height="1.05642292"></rect>
                        <rect id="矩形" fill="#E6E6E6" x="64.8899926" y="36.134239" width="8.62744664" height="1"></rect>
                        <rect id="矩形" fill="#E6E6E6" x="63.735641" y="37.8192193" width="10.857672" height="1"></rect>
                        <path d="M74.8111327,27.9542439 C74.8104055,29.9368172 73.7679228,31.7731632 72.0659359,32.7899415 C70.3639489,33.8067197 68.2528663,33.8543345 66.5067673,32.9153267 L66.5056735,32.9142314 C64.0804297,31.6076889 62.9557618,28.7388789 63.8468966,26.1322069 C64.7380315,23.5255348 67.3835668,21.9456325 70.1010877,22.3972309 C72.8186085,22.8488293 74.810967,25.1994582 74.8111327,27.9542469 L74.8111327,27.9542439 Z" id="路径" fill="#E6E6E6"></path>
                        <circle id="椭圆形" fill="#FFFFFF" cx="69.2066057" cy="26.1494201" r="1.53136538"></circle>
                        <path d="M71.8214153,30.8449596 C70.1094528,31.4458735 68.2427335,31.4386439 66.5354768,30.8244879 L66.53438,30.8237299 L67.6752418,28.5717161 L70.7379711,28.5717161 L71.8214153,30.8449596 Z" id="路径" fill="#FFFFFF"></path>
                        <g id="编组-3" transform="translate(44.618390, 31.652767)">
                            <path d="M7.63331888,10.2843134 C4.9641636,10.2843134 2.7926295,7.97757035 2.7926295,5.14211729 C2.7926295,2.30674448 4.9641636,0 7.63331888,0 C10.3024742,0 12.4740083,2.30674448 12.4740083,5.14211729 C12.4740083,7.97757035 10.3024742,10.2843134 7.63331888,10.2843134 Z M7.63331888,1.2992874 C5.68057951,1.2992874 4.09191691,3.02316039 4.09191691,5.14211729 C4.09191691,7.2610742 5.68057951,8.98502595 7.63331888,8.98502595 C9.58605826,8.98502595 11.1747194,7.2610742 11.1747194,5.14211729 C11.1747194,3.02316039 9.58605826,1.2992874 7.63331888,1.2992874 Z" id="形状" fill="#3B78FF"></path>
                            <path d="M12.2172675,19.2457079 L3.04937022,19.2457079 C1.36604076,19.2438357 0.00189360273,17.8797058 0,16.1963764 L0,7.20365957 C0.00129564014,6.05120084 0.935213151,5.11726538 2.08767185,5.11594759 L13.1789659,5.11594759 C14.3314246,5.11726538 15.2653421,6.05120084 15.2666378,7.20365957 L15.2666378,16.1963764 C15.2647442,17.8797058 13.900597,19.2438357 12.2172675,19.2457079 Z" id="路径" fill="#3F3D56"></path>
                            <path d="M9.41984126,10.2318952 C9.42051207,9.35308685 8.78194853,8.60430289 7.91405835,8.46620449 C7.04616817,8.3281061 6.20673366,8.84171151 5.93460663,9.6773259 C5.6624796,10.5129403 6.03848772,11.422368 6.82126296,11.821827 L6.82126296,14.6169874 L8.44537332,14.6169874 L8.44537332,11.821827 C9.04321566,11.5171348 9.41967705,10.9029039 9.41984126,10.2318952 Z" id="路径" fill="#FFFFFF"></path>
                        </g>
                        <path d="M56.7711231,74.3054167 L0.148615505,74.3054167 C0.0665374282,74.3054167 0,74.2388793 0,74.1568012 C0,74.0747231 0.0665374282,74.0081857 0.148615505,74.0081857 L56.7711231,74.0081857 C56.8532011,74.0081857 56.9197386,74.0747231 56.9197386,74.1568012 C56.9197386,74.2388793 56.8532011,74.3054167 56.7711231,74.3054167 Z" id="路径" fill="#3F3D56"></path>
                    </g>
                </g>
            </g>
        </g>
    </g>
</svg>