<?xml version="1.0" encoding="UTF-8"?>
<svg width="20px" height="20px" viewBox="0 0 20 20" version="1.1" xmlns="http://www.w3.org/2000/svg" xmlns:xlink="http://www.w3.org/1999/xlink">
    <title>编组 18</title>
    <g id="页面-1" stroke="none" stroke-width="1" fill="none" fill-rule="evenodd">
        <g id="船期查询-运价船期" transform="translate(-14.000000, -88.000000)">
            <g id="编组-7" transform="translate(8.000000, 78.000000)">
                <g id="编组-18" transform="translate(6.000000, 10.000000)">
                    <rect id="矩形" x="0" y="0" width="20" height="20"></rect>
                    <path d="M10,13.2 C10.2858125,13.2 10.5499141,13.3524791 10.6928204,13.6 C10.8357266,13.8475209 10.8357266,14.1524791 10.6928204,14.4 C10.5499141,14.6475209 10.2858125,14.8 10,14.8 L6,14.8 C3.790861,14.8 2,13.009139 2,10.8 L2,6 C2,3.790861 3.790861,2 6,2 L14,2 C16.209139,2 18,3.790861 18,6 L18,10.8 C18,13.009139 16.209139,14.8 14,14.8 C13.7141875,14.8 13.4500859,14.6475209 13.3071796,14.4 C13.1642734,14.1524791 13.1642734,13.8475209 13.3071796,13.6 C13.4500859,13.3524791 13.7141875,13.2 14,13.2 C15.3254834,13.2 16.4,12.1254834 16.4,10.8 L16.4,6 C16.4,5.36348042 16.1471436,4.75303103 15.6970563,4.30294373 C15.246969,3.85285642 14.6365196,3.6 14,3.6 L6,3.6 C4.6745166,3.6 3.6,4.6745166 3.6,6 L3.6,10.8 C3.6,12.1254834 4.6745166,13.2 6,13.2 L10,13.2 Z M5.7952,16.0104 L14.2048,16.0104 C14.7432298,16.0256704 15.1717865,16.4665537 15.1717865,17.0052 C15.1717865,17.5438463 14.7432298,17.9847296 14.2048,18 L5.7952,18 C5.25677016,17.9847296 4.82821347,17.5438463 4.82821347,17.0052 C4.82821347,16.4665537 5.25677016,16.0256704 5.7952,16.0104 L5.7952,16.0104 Z M6.8,6.8 C7.2418278,6.8 7.6,7.1581722 7.6,7.6 L7.6,10.8 C7.6,11.2418278 7.2418278,11.6 6.8,11.6 C6.3581722,11.6 6,11.2418278 6,10.8 L6,7.6 C6,7.1581722 6.3581722,6.8 6.8,6.8 L6.8,6.8 Z M10,8.4 C10.4418278,8.4 10.8,8.7581722 10.8,9.2 L10.8,10.8 C10.8,11.2418278 10.4418278,11.6 10,11.6 C9.55817221,11.6 9.2,11.2418278 9.2,10.8 L9.2,9.2 C9.2,8.7581722 9.5581722,8.4 10,8.4 Z M13.2,5.2 C13.6418278,5.2 14,5.5581722 14,6 L14,10.8 C14,11.2418278 13.6418278,11.6 13.2,11.6 C12.7581722,11.6 12.4,11.2418278 12.4,10.8 L12.4,6 C12.4,5.78782681 12.4842855,5.58434368 12.6343146,5.43431458 C12.7843437,5.28428547 12.9878268,5.2 13.2,5.2 L13.2,5.2 Z" id="形状" fill="#FFFFFF" fill-rule="nonzero" opacity="0.65"></path>
                </g>
            </g>
        </g>
    </g>
</svg>