<?xml version="1.0" encoding="UTF-8"?>
<svg width="16px" height="29px" viewBox="0 0 16 29" version="1.1" xmlns="http://www.w3.org/2000/svg" xmlns:xlink="http://www.w3.org/1999/xlink">
    <title>路径备份</title>
    <g id="页面-1" stroke="none" stroke-width="1" fill="none" fill-rule="evenodd">
        <g id="服务商审核反馈-成功" transform="translate(-456.000000, -96.000000)" fill="#F7DD00" fill-rule="nonzero" stroke="#FFFFFF">
            <path d="M470.65665,109.938087 C468.209813,108.526798 466.476079,106.144246 465.885869,103.381928 L464.595882,97.3444928 L464.595882,97.3444928 C464.331827,96.8851691 463.669345,96.8851691 463.403728,97.3444928 L462.114678,103.381794 C461.524875,106.144151 459.791318,108.526822 457.344522,109.938087 L457.344522,109.938087 L457.344522,109.938087 C456.885159,110.20212 456.885159,110.864546 457.344522,111.130142 C459.791231,112.540363 461.524837,114.922336 462.114515,117.684109 L463.403728,123.722174 L463.403728,123.722174 C463.667783,124.181498 464.330264,124.181498 464.595882,123.722174 L465.886032,117.683976 C466.476117,114.922241 468.2099,112.540386 470.65665,111.130142 L470.65665,111.130142 L470.65665,111.130142 C471.11445,110.864546 471.11445,110.20212 470.65665,109.938087 Z" id="路径备份"></path>
        </g>
    </g>
</svg>