<?xml version="1.0" encoding="UTF-8"?>
<svg width="19px" height="18px" viewBox="0 0 19 18" version="1.1" xmlns="http://www.w3.org/2000/svg" xmlns:xlink="http://www.w3.org/1999/xlink">
    <title>编组 23备份</title>
    <g id="货物跟踪界面" stroke="none" stroke-width="1" fill="none" fill-rule="evenodd">
        <g id="左导航备份-2" transform="translate(0.000000, -11.000000)">
            <g id="编组-23备份" transform="translate(0.000000, 11.000000)">
                <path d="M13.80244,14.6306985 L18.7918054,14.6224673 C19.1480286,14.6218797 19.4372809,14.9101792 19.4378686,15.2664024 C19.4378698,15.2671118 19.4378698,15.2678211 19.4378686,15.2685305 L19.4377695,15.32859 C19.4371832,15.6839823 19.1492268,15.9719387 18.7938345,15.972525 L13.8044691,15.9807562 C13.4482459,15.9813438 13.1589936,15.6930443 13.1584059,15.3368211 C13.1584047,15.3361117 13.1584047,15.3354024 13.1584059,15.334693 L13.158505,15.2746335 C13.1590913,14.9192412 13.4470476,14.6312848 13.80244,14.6306985 Z" id="矩形" fill="#3C4144" transform="translate(16.298137, 15.301612) rotate(45.000000) translate(-16.298137, -15.301612) "></path>
                <g id="编组-22">
                    <ellipse id="椭圆形" stroke="#3C4144" stroke-width="1.29" fill="#FFFFFF" cx="8.50837947" cy="8.49743793" rx="7.86337947" ry="7.85243793"></ellipse>
                    <rect id="矩形" fill="#B2D7FF" x="3.1906423" y="3.18653922" width="10.6354743" height="10.6217974" rx="5.31089871"></rect>
                    <g id="编组-20" transform="translate(5.953079, 5.841989)" fill="#3C4144">
                        <path d="M4.20414691,0.367973333 C4.40004183,0.367973333 4.55884603,0.526777538 4.55884603,0.722672451 L4.55884603,2.21012994 C4.55884603,2.40602485 4.40004183,2.56482905 4.20414691,2.56482905 L4.16504681,2.5625752 C4.15185848,2.5640642 4.1384508,2.56482905 4.12486448,2.56482905 L0.98390266,2.56482905 L0.944854297,2.5625723 C0.931648987,2.56406322 0.918224045,2.56482905 0.904620231,2.56482905 C0.708725318,2.56482905 0.549921113,2.40602485 0.549921113,2.21012994 L0.549921113,0.722672451 C0.549921113,0.526777538 0.708725318,0.367973333 0.904620231,0.367973333 C1.10051515,0.367973333 1.25931935,0.526777538 1.25931935,0.722672451 L1.25892111,1.85597333 L3.84892111,1.85597333 L3.84944779,0.722672451 C3.84944779,0.526777538 4.008252,0.367973333 4.20414691,0.367973333 Z" id="形状结合"></path>
                        <path d="M4.75406802,3.11404299 C4.94996294,3.11404299 5.10876714,3.27284719 5.10876714,3.4687421 L5.10876714,4.95619959 C5.10876714,5.1520945 4.94996294,5.31089871 4.75406802,5.31089871 L4.71496792,5.30864486 C4.70177959,5.31013385 4.68837192,5.31089871 4.6747856,5.31089871 L0.433981547,5.31089871 L0.394933184,5.30864195 C0.381727874,5.31013287 0.368302932,5.31089871 0.354699118,5.31089871 C0.158804204,5.31089871 -5.46229728e-14,5.1520945 -5.45119505e-14,4.95619959 L-5.46229728e-14,3.4687421 C-5.46229728e-14,3.27284719 0.158804204,3.11404299 0.354699118,3.11404299 C0.550594032,3.11404299 0.709398236,3.27284719 0.709398236,3.4687421 L0.709,4.60204299 L4.399,4.60204299 L4.39936891,3.4687421 C4.39936891,3.27284719 4.55817311,3.11404299 4.75406802,3.11404299 Z" id="形状结合备份"></path>
                        <rect id="矩形" x="2.20243406" y="0" width="1" height="4.94292537" rx="0.5"></rect>
                    </g>
                </g>
            </g>
        </g>
    </g>
</svg>