<?xml version="1.0" encoding="UTF-8"?>
<svg width="48px" height="49px" viewBox="0 0 48 49" version="1.1" xmlns="http://www.w3.org/2000/svg" xmlns:xlink="http://www.w3.org/1999/xlink">
    <title>Excelxieru-xuanzhong</title>
    <g id="货物跟踪界面补充" stroke="none" stroke-width="1" fill="none" fill-rule="evenodd">
        <g id="表格导入/下载" transform="translate(-275.000000, -153.000000)" fill-rule="nonzero">
            <g id="编组" transform="translate(216.000000, 153.000000)">
                <g id="Excelxieru-xuanzhong" transform="translate(59.000000, 0.000000)">
                    <path d="M0,44.0053362 L28.3287086,49 L28.3287086,1 L0,6.12273212 L0,44.0053362 Z M6.91568837,15.5485592 L11.0651014,15.3180363 L13.8569904,20.5432231 L16.9306297,15.0106724 L21.208111,14.7545358 L16.1109925,24.4877268 L21.361793,34.4258271 L16.7769477,34.1696905 L13.6264674,27.5613661 L10.5784418,33.8367129 L6.5058698,33.5549626 L11.321238,24.5645678 L6.91568837,15.5485592 L6.91568837,15.5485592 Z M47.1035219,6.73745998 L45.0288154,6.73745998 L45.0288154,14.3959445 L42.4674493,14.3959445 L41.7758805,15.9583778 L45.0288154,15.9583778 L45.0288154,20.6456777 L39.6755603,20.6456777 L39.4450374,21.2091782 C39.2657417,21.5933831 39.0352188,21.9263607 38.7278549,22.208111 L45.0288154,22.208111 L45.0288154,26.6392743 L37.3191035,26.6392743 L37.3191035,22.8996798 C37.1398079,22.9252935 36.9605123,22.9509072 36.755603,22.9509072 C36.4226254,22.9509072 36.0896478,22.8996798 35.7566702,22.7716115 L35.7566702,26.6392743 L31.018143,26.6392743 L31.018143,28.4322305 L35.7566702,28.4322305 L35.7566702,32.9146211 L31.018143,32.9146211 L31.018143,34.6819637 L35.7566702,34.6819637 L35.7566702,39.189968 L31.018143,39.189968 L31.018143,42.4685165 L47.0522946,42.4685165 C47.5901814,42.4685165 48,42.058698 48,41.5208111 L48,7.73639274 C48,7.22411953 47.6157951,6.7886873 47.1035219,6.73745998 Z M45.0288154,39.189968 L37.3191035,39.189968 L37.3191035,34.6819637 L45.0288154,34.6819637 L45.0288154,39.189968 Z M45.0288154,32.9146211 L37.3191035,32.9146211 L37.3191035,28.4322305 L45.0288154,28.4322305 L45.0288154,32.9146211 Z M34.040555,21.2091782 L33.810032,20.6456777 L31.018143,20.6456777 L31.018143,22.208111 L34.7577375,22.208111 C34.4503735,21.9263607 34.1942369,21.5933831 34.040555,21.2091782 L34.040555,21.2091782 Z" id="形状" fill="#00C296"></path>
                    <path d="M37.2678762,27.1007201 L42.416222,15.5233455 C42.5442903,15.2415952 42.416222,14.9086177 42.1344717,14.7805494 C42.0576307,14.7549357 41.9807898,14.729322 41.9039488,14.729322 L39.701174,14.729322 C39.39381,14.729322 39.1376734,14.4731854 39.1376734,14.1658215 L39.1376734,7.9160883 L39.127763,7.88377969 C38.7280473,6.58067834 37.3476413,5.8483396 36.0445399,6.24805534 C35.2502846,6.4916867 34.6319017,7.11857804 34.3991462,7.9160883 L34.3991462,7.9160883 L34.3991462,7.9160883 L34.3991462,14.1658215 C34.3991462,14.4731854 34.1430096,14.729322 33.8356457,14.729322 L31.6072572,14.729322 C31.2998933,14.729322 31.0437567,14.9854586 31.0437567,15.2928226 C31.0437567,15.3696635 31.0693703,15.4465045 31.094984,15.5233455 L36.2433298,27.1007201 C36.3713981,27.3824704 36.7043757,27.5105387 36.9861259,27.3824704 C37.0885806,27.3312431 37.1910352,27.2287884 37.2678762,27.1007201 Z" id="路径" fill="#F59D0D" transform="translate(36.754869, 13.716115) scale(1, -1) translate(-36.754869, -13.716115) "></path>
                </g>
            </g>
        </g>
    </g>
</svg>