<?xml version="1.0" encoding="UTF-8"?>
<svg width="20px" height="15px" viewBox="0 0 20 15" version="1.1" xmlns="http://www.w3.org/2000/svg" xmlns:xlink="http://www.w3.org/1999/xlink">
    <title>haiyun</title>
    <g id="货物跟踪界面" stroke="none" stroke-width="1" fill="none" fill-rule="evenodd">
        <g id="宁波港货物跟踪备份" transform="translate(-1026.000000, -269.000000)" fill="#409EFF" fill-rule="nonzero">
            <g id="编组-9" transform="translate(160.000000, 88.000000)">
                <g id="编组-12" transform="translate(0.000000, 157.000000)">
                    <g id="编组-11" transform="translate(166.000000, 24.000000)">
                        <g id="编组-32" transform="translate(676.000000, 0.000000)">
                            <g id="haiyun" transform="translate(24.000000, 0.000000)">
                                <path d="M20,8.26367188 L17.6484375,13.1621094 C17.3535156,13.7324219 16.7675781,14.0898438 16.125,14.0898438 L2.265625,14.0898438 C2.00976562,14.0898438 1.84375,13.8203125 1.95898438,13.5917969 L1.96484375,13.5800781 C2.15234375,13.2070312 2.04101562,12.7539063 1.70117188,12.5117188 L1.68164062,12.4980469 C0.896484375,11.9355469 0.4296875,11.0273438 0.4296875,10.0605469 L0.4296875,8.94921875 L12.7695312,8.94921875 L12.7695312,8.94140625 C12.7695312,8.56640625 13.0742188,8.26367188 13.4472656,8.26367188 L20,8.26367188 Z" id="路径"></path>
                                <path d="M12.0820312,4.15039062 L9.68359375,4.15039062 C9.49414062,4.15039062 9.33984375,4.3046875 9.33984375,4.4921875 L9.33984375,8.26171875 C9.33984375,8.45117188 9.49414062,8.60351562 9.68359375,8.60351562 L12.0820312,8.60351562 C12.2714844,8.60351562 12.4238465,8.44921875 12.4238465,8.26171875 L12.4238465,4.4921875 C12.4257812,4.30273437 12.2714844,4.15039062 12.0820312,4.15039062 L12.0820312,4.15039062 Z M16.1953125,5.52148438 L13.4550781,5.52148438 C13.265625,5.52148438 13.1113281,5.67578125 13.1113281,5.86328125 L13.1113281,7.234375 C13.1113281,7.42382813 13.265625,7.57617188 13.4550781,7.57617188 L16.1972656,7.57617188 C16.3867188,7.57617188 16.5410156,7.421875 16.5410156,7.234375 L16.5410156,5.86328125 C16.5390625,5.67382813 16.3847656,5.52148438 16.1953125,5.52148438 L16.1953125,5.52148438 Z" id="形状"></path>
                                <path d="M5.5703125,8.60546875 L8.3125,8.60546875 C8.50195312,8.60546875 8.65429688,8.45117188 8.65429688,8.26367188 L8.65429688,5.52148438 C8.65429688,5.33203125 8.5,5.17773438 8.3125,5.17773438 L5.5703125,5.17773438 C5.38085938,5.17773438 5.2265625,5.33203125 5.2265625,5.52148438 L5.2265625,8.26367188 C5.22851562,8.453125 5.38085937,8.60546875 5.5703125,8.60546875 Z" id="路径"></path>
                                <path d="M2.91601562,3.5625 L2.91601562,2.59179688 L3.56445312,2.59179688 L3.56445312,1.94335938 L2.91601562,1.94335938 L2.91601562,0 L2.59179688,0 L2.59179688,1.94335938 L1.61914063,1.94335938 L1.61914063,2.59179688 L2.59179687,2.59179688 L2.59179687,3.56445313 L0,3.56445313 L0,4.21289062 L0.97265625,4.21289062 L0.97265625,8.74804688 L4.53710938,8.74804688 L4.53710938,4.15039062 L5.39648438,3.5625 L2.91601562,3.5625 Z M3.88671875,7.45117188 L2.9140625,7.45117188 L2.9140625,6.15625 L3.88671875,6.15625 L3.88671875,7.45117188 Z M3.88671875,5.50585938 L2.9140625,5.50585938 L2.9140625,4.53320312 L3.88671875,4.53320312 L3.88671875,5.50585938 Z" id="形状"></path>
                            </g>
                        </g>
                    </g>
                </g>
            </g>
        </g>
    </g>
</svg>