<?xml version="1.0" encoding="UTF-8"?>
<svg width="16px" height="18px" viewBox="0 0 16 18" version="1.1" xmlns="http://www.w3.org/2000/svg" xmlns:xlink="http://www.w3.org/1999/xlink">
    <title>编组 10备份</title>
    <g id="货物跟踪界面" stroke="none" stroke-width="1" fill="none" fill-rule="evenodd">
        <g id="编组-10备份">
            <g id="回收站-customer/archives/recycleBin" fill="#3C4144" fill-rule="nonzero">
                <path d="M14.8439051,4.40066225 L14.8439051,14.9006623 C14.8439051,16.6092715 13.6083839,18 12.0904578,18 L3.90071704,18 C2.38279095,18 1.14726972,16.6092715 1.14726972,14.9006623 L1.14726972,4.40066225 C1.14726972,4.10264901 0.935466078,3.86423841 0.670711528,3.86423841 L0.476558191,3.86423841 C0.21180364,3.86423841 0,3.62582781 0,3.32781457 L0,3.10927152 C0,2.81125828 0.21180364,2.57284768 0.476558191,2.57284768 L2.95642581,2.57284768 C3.22118036,2.57284768 3.432984,2.33443709 3.432984,2.03642384 L3.432984,1.81788079 C3.432984,0.814569536 4.15664644,0 5.04798676,0 L10.9520132,0 C11.8433536,0 12.567016,0.814569536 12.567016,1.81788079 L12.567016,2.03642384 C12.567016,2.33443709 12.7788196,2.57284768 13.0435742,2.57284768 L15.5234418,2.57284768 C15.7881964,2.57284768 16,2.81125828 16,3.10927152 L16,3.33774834 C16,3.63576159 15.7881964,3.87417219 15.5234418,3.87417219 L15.3292885,3.87417219 C15.0557088,3.87417219 14.8439051,4.11258278 14.8439051,4.40066225 Z M10.9431881,1.3013245 L5.04798676,1.3013245 C4.78323221,1.3013245 4.57142857,1.5397351 4.57142857,1.83774834 L4.57142857,2.05629139 C4.57142857,2.35430464 4.78323221,2.59271523 5.04798676,2.59271523 L10.9520132,2.59271523 C11.2167678,2.59271523 11.4285714,2.35430464 11.4285714,2.05629139 L11.4285714,1.83774834 C11.4197463,1.5397351 11.2079426,1.3013245 10.9431881,1.3013245 L10.9431881,1.3013245 Z M13.2289024,3.87417219 L2.76227248,3.87417219 C2.49751793,3.87417219 2.28571429,4.11258278 2.28571429,4.41059603 L2.28571429,14.910596 C2.28571429,15.9139073 3.00937672,16.7284768 3.90071704,16.7284768 L12.0816327,16.7284768 C12.972973,16.7284768 13.6966354,15.9139073 13.6966354,14.910596 L13.6966354,4.40066225 C13.6966354,4.11258278 13.4848318,3.87417219 13.2289024,3.87417219 Z" id="形状"></path>
            </g>
            <path d="M11.5,6.5 L12,13 C12,13.4142136 11.8321068,13.7892136 11.5606602,14.0606602 C11.2892136,14.3321068 10.9142136,14.5 10.5,14.5 L10.5,14.5 L5.5,14.5 C5.08578644,14.5 4.71078644,14.3321068 4.43933983,14.0606602 C4.16789322,13.7892136 4,13.4142136 4,13 L4,13 L4,7 L11.5,6.5 Z" id="矩形" stroke="#B3D8FD" fill="#B3D8FD"></path>
            <path d="M9.61059018,7.15562914 L9.80474352,7.15562914 C10.0694981,7.15562914 10.2813017,7.34095732 10.2813017,7.57261756 L10.2813017,12.7386407 C10.2813017,12.970301 10.0694981,13.1556291 9.80474352,13.1556291 L9.61059018,13.1556291 C9.34583563,13.1556291 9.13403199,12.970301 9.13403199,12.7386407 L9.13403199,7.57261756 C9.13403199,7.34095732 9.34583563,7.15562914 9.61059018,7.15562914 Z" id="路径" fill="#3C4144" fill-rule="nonzero"></path>
            <path d="M6.18643133,7.15562914 L6.38058467,7.15562914 C6.64533922,7.15562914 6.85714286,7.34095732 6.85714286,7.57261756 L6.85714286,12.7386407 C6.85714286,12.970301 6.64533922,13.1556291 6.38058467,13.1556291 L6.18643133,13.1556291 C5.92167678,13.1556291 5.70987314,12.970301 5.70987314,12.7386407 L5.70987314,7.57261756 C5.70987314,7.34095732 5.92167678,7.15562914 6.18643133,7.15562914 Z" id="路径" fill="#3C4144" fill-rule="nonzero"></path>
        </g>
    </g>
</svg>