<?xml version="1.0" encoding="UTF-8"?>
<svg width="20px" height="20px" viewBox="0 0 20 20" version="1.1" xmlns="http://www.w3.org/2000/svg" xmlns:xlink="http://www.w3.org/1999/xlink">
    <title>-jinbi</title>
    <defs>
        <linearGradient x1="6.11261636%" y1="16.5369599%" x2="87.9862165%" y2="82.1863169%" id="linearGradient-1">
            <stop stop-color="#D3830D" offset="0%"></stop>
            <stop stop-color="#D3830D" offset="54.8908688%"></stop>
            <stop stop-color="#BF790A" offset="56.9262549%"></stop>
            <stop stop-color="#BF790A" offset="100%"></stop>
        </linearGradient>
    </defs>
    <g id="用户中心-网页" stroke="none" stroke-width="1" fill="none" fill-rule="evenodd">
        <g id="页面-用户中心-未认证" transform="translate(-288.000000, -355.000000)" fill-rule="nonzero">
            <g id="编组-6" transform="translate(16.000000, 67.000000)">
                <g id="编组-22备份-2" transform="translate(224.000000, 176.000000)">
                    <g id="-jinbi" transform="translate(48.000000, 112.000000)">
                        <path d="M0,9.99972087 C0,13.5722771 1.90593594,16.8734552 4.99986037,18.6597334 C8.09378481,20.4460115 11.9056569,20.4460115 14.9995814,18.6597334 C18.0935058,16.8734552 19.9994417,13.5722771 19.9994417,9.99972087 C19.9994417,4.47702753 15.5224142,0 9.99972087,0 C4.47702753,0 0,4.47702753 0,9.99972087 L0,9.99972087 Z" id="路径" fill="#FFD96B"></path>
                        <path d="M17.0731841,2.93295384 L2.93295384,17.0754162 C6.83909481,20.977093 13.1670432,20.977093 17.0709521,17.0731841 C20.9748609,13.1670432 20.977093,6.83909481 17.0731841,2.93295384 Z" id="路径" fill="#FDC223"></path>
                        <path d="M2.72983451,9.99972087 C2.72983451,14.0147682 5.9846735,17.2696072 9.99972087,17.2696072 C14.0147682,17.2696072 17.2696072,14.0147682 17.2696072,9.99972087 C17.2696072,5.9846735 14.0147682,2.72983451 9.99972087,2.72983451 C5.9846735,2.72983451 2.72983451,5.9846735 2.72983451,9.99972087 Z" id="路径" fill="#F9AB10"></path>
                        <path d="M14.9839567,4.71861829 C12.135822,2.02896122 7.64934005,2.07137075 4.85923936,4.85923936 C2.07137075,7.64934005 2.02896122,12.135822 4.71861829,14.9839567 L14.9839567,4.71861829 Z" id="路径" fill="#F9B721"></path>
                        <path d="M14.5138806,6.17125631 C14.0270607,6.98300566 13.5000037,7.80717468 12.9327095,8.64376336 L13.9013817,8.64376336 C13.2721248,9.8946721 12.4316985,11.0275805 11.4171101,11.992602 C11.928271,12.4218257 12.9953006,12.6036496 13.9296967,12.795906 L13.4826173,14.0150204 C12.2814637,13.8018989 10.9864235,13.1938321 10.4186326,12.7869639 C9.47115636,13.3291128 8.46196678,13.7554312 7.41276828,14.0567505 L6.8554092,13.1252755 C7.7048602,12.9583552 8.79275359,12.5291316 9.79272134,12.0000538 C9.4511826,11.3901431 9.30794955,10.6890378 9.38289849,9.99402942 C8.73165273,11.1863173 7.47535941,12.5395641 5.74814237,13.80637 L4.87931793,13.1625345 C6.90812792,11.8567444 8.41946068,10.0193142 9.41331621,7.65024368 L9.61215523,7.64982136 L9.61215523,7.47577072 L9.48477599,7.47678356 C9.52005532,7.38956676 9.55464834,7.30164486 9.58855505,7.21301787 L4.68558349,7.21450823 L4.72258349,7.11125631 L9.80951278,7.11184667 L9.80951278,6.93779604 L4.78558349,6.93725631 L4.91758349,6.57325631 L9.94257961,6.57387199 L9.94257961,6.39982136 L4.98058349,6.39925631 L5.06411078,6.17125631 L14.5138806,6.17125631 Z M12.6853602,7.19979903 L10.923049,7.19979903 L10.6023512,8.06554541 C10.4384389,9.62999065 10.5025785,10.7127988 10.7947699,11.3139699 C11.2888463,10.8226592 11.7248109,10.2780474 12.0943598,9.69050787 L10.9184676,9.69050787 C11.0202765,9.54546659 11.1862249,9.32890496 11.4163129,9.04082297 C12.00375,8.24659694 12.4267657,7.63292229 12.6853602,7.19979903 Z" id="形状" fill="url(#linearGradient-1)"></path>
                    </g>
                </g>
            </g>
        </g>
    </g>
</svg>