<?xml version="1.0" encoding="UTF-8"?>
<svg width="16px" height="18px" viewBox="0 0 16 18" version="1.1" xmlns="http://www.w3.org/2000/svg" xmlns:xlink="http://www.w3.org/1999/xlink">
    <title>编组 12备份 4</title>
    <g id="货物跟踪界面" stroke="none" stroke-width="1" fill="none" fill-rule="evenodd">
        <g id="编组-7备份" fill-rule="nonzero">
            <g id="编组-12备份-4">
                <g id="renwuchi备份">
                    <path d="M3.67447046,2.84949833 L12.245262,2.84949833 C12.9230769,2.84949833 13.4671126,3.46153846 13.4671126,4.22408027 L13.4671126,13.8662207 C13.4671126,14.6287625 12.9230769,15.2408027 12.245262,15.2408027 L3.67447046,15.2408027 C2.99665552,15.2408027 2.45261984,14.6287625 2.45261984,13.8662207 L2.45261984,4.22408027 C2.45261984,3.46153846 2.99665552,2.84949833 3.67447046,2.84949833 Z" id="路径" fill="#5AACFF" opacity="0.399310157"></path>
                    <path d="M1.71237458,1.28428094 C1.4180602,1.26421405 1.15942029,1.51505017 1.14158305,1.85618729 L1.14158305,16.0735786 C1.12374582,16.4046823 1.34671126,16.6956522 1.64994426,16.7157191 L14.2876254,16.7157191 C14.5819398,16.735786 14.8405797,16.4849498 14.8584169,16.1438127 L14.8584169,1.9264214 C14.8762542,1.59531773 14.6532887,1.30434783 14.3500557,1.28428094 L14.2876254,1.28428094 L1.71237458,1.28428094 Z M1.71237458,0 L14.2876254,0 C15.2240803,0.0301003344 15.9821628,0.872909699 16,1.9264214 L16,16.0735786 C15.9732441,17.1270903 15.2240803,17.9799331 14.2876254,18 L1.71237458,18 C0.775919732,17.9698997 0.0178372352,17.1270903 0,16.0735786 L0,1.9264214 C0.0178372352,0.872909699 0.775919732,0.0301003344 1.71237458,0 Z M5.74998505,4.14715719 L10.2480164,4.14715719 C10.634566,4.1270903 10.9742611,4.37792642 10.9976883,4.71906355 L10.9976883,4.78929766 C11.0211155,5.12040134 10.728275,5.41137124 10.3300118,5.43143813 L5.74998505,5.43143813 C5.36343548,5.45150502 5.02374041,5.2006689 5.00031316,4.85953177 L5.00031316,4.78929766 C4.97688591,4.45819398 5.2697265,4.16722408 5.66798969,4.14715719 L5.74998505,4.14715719 L5.74998505,4.14715719 Z M10.25,6.56856187 C10.6601562,6.56856187 11,6.85953177 11,7.21070234 C11,7.56187291 10.6601563,7.85284281 10.25,7.85284281 L5.75,7.85284281 C5.33984375,7.85284281 5,7.56187291 5,7.21070234 C5,6.85953177 5.33984375,6.56856187 5.75,6.56856187 L10.25,6.56856187 Z" id="形状" fill="#3C4144"></path>
                </g>
                <path d="M8.44482855,11.7469789 L8.44482855,11.366631 L9.57239335,11.366631 C9.79928228,11.366631 9.98321209,11.1827012 9.98321209,10.9558123 C9.98321209,10.7289234 9.79928228,10.5449936 9.57239335,10.5449936 L8.9310716,10.5449936 L9.83100124,9.65409763 C9.9086966,9.57745211 9.95243475,9.47286638 9.95243475,9.36372837 C9.95243475,9.25459036 9.9086966,9.15000462 9.83100124,9.0733591 C9.66827687,8.91287949 9.40682121,8.91287949 9.24409684,9.0733591 L8.00941805,10.2957062 L6.77481095,9.07314401 C6.61211103,8.91267287 6.35067817,8.91267287 6.18797825,9.07314401 C6.11028288,9.14978953 6.06654474,9.25437527 6.06654474,9.36351328 C6.06654474,9.47265129 6.11028288,9.57723703 6.18797825,9.65388254 L7.08790788,10.5447785 L6.48752462,10.5447785 C6.26063569,10.5447785 6.07670588,10.7287083 6.07670588,10.9555972 C6.07670588,11.1824861 6.26063569,11.3664159 6.48752462,11.3664159 L7.61516111,11.3664159 L7.61516111,11.7467638 L6.48752462,11.7467638 C6.26063569,11.7467638 6.07670588,11.9306936 6.07670588,12.1575826 C6.07670588,12.3844715 6.26063569,12.5684013 6.48752462,12.5684013 L7.61516111,12.5684013 L7.61516111,13.7437874 C7.61516111,13.9729729 7.80095269,14.1587645 8.03013822,14.1587645 C8.25932376,14.1587645 8.44511534,13.9729729 8.44511534,13.7437874 L8.44511534,12.5688315 L9.57268014,12.5688315 C9.79962846,12.5687919 9.98357432,12.3847818 9.98353474,12.1578335 C9.98349513,11.9308852 9.79948506,11.7469393 9.57253674,11.7469789 L8.44482855,11.7469789 Z" id="路径" fill="#3C4144"></path>
            </g>
        </g>
    </g>
</svg>