<?xml version="1.0" encoding="UTF-8"?>
<svg width="54px" height="54px" viewBox="0 0 54 54" version="1.1" xmlns="http://www.w3.org/2000/svg" xmlns:xlink="http://www.w3.org/1999/xlink">
    <title>商品-产品原产地-1</title>
    <defs>
        <linearGradient x1="50%" y1="0%" x2="50%" y2="100%" id="linearGradient-1">
            <stop stop-color="#F4C804" offset="0%"></stop>
            <stop stop-color="#F5B43E" offset="100%"></stop>
        </linearGradient>
    </defs>
    <g id="页面-1" stroke="none" stroke-width="1" fill="none" fill-rule="evenodd">
        <g id="商品贸易" transform="translate(-179.000000, -140.000000)">
            <g id="商品-产品原产地-1" transform="translate(179.000000, 140.000000)">
                <circle id="椭圆形" fill="url(#linearGradient-1)" cx="27" cy="27" r="27"></circle>
                <g id="05-产地直供" transform="translate(13.000000, 14.000000)" fill="#FFFFFF" fill-rule="nonzero">
                    <polygon id="路径" opacity="0.4" points="20.7366569 5 16 16.7349823 18.568915 23 28 23"></polygon>
                    <path d="M27.9075002,20.2802701 L20.9563813,3.48237059 C20.7643242,3.01365341 20.2993439,2.70997749 19.7939305,2.70997749 C19.2548229,2.70997749 18.8066897,3.01695424 18.6146326,3.48237059 L15.2317322,11.6354089 L10.6526869,0.765791448 C10.4572603,0.303675919 9.99564944,0 9.4834972,0 C8.97134496,0 8.50973405,0.303675919 8.31430754,0.765791448 L0.0962857106,20.2769692 C-0.0654465764,20.659865 -0.021644082,21.0988747 0.214215503,21.4421605 C0.450075088,21.7854464 0.844297538,22 1.26547537,22 L26.7315717,22 C27.1527495,22 27.546972,21.7854464 27.7828316,21.4454614 C28.0186912,21.1021755 28.0658631,20.659865 27.9075002,20.2802701 L27.9075002,20.2802701 Z M9,5 L11,9 L7,9 L9,5 Z M3,20 L7.09797657,10 L11.9020234,10 L16,20 L3,20 Z M18.8863915,20 L17,15.4846692 L20.0731508,8 L25,20 L18.8863915,20 Z M26.7251093,23 L1.27489072,23 C0.571151044,23 0,23.672 0,24.5 C0,25.328 0.571151044,26 1.27489072,26 L26.7251093,26 C27.428849,26 28,25.328 28,24.5 C28,23.672 27.428849,23 26.7251093,23 Z" id="形状"></path>
                </g>
            </g>
        </g>
    </g>
</svg>