<?xml version="1.0" encoding="UTF-8"?>
<svg width="54px" height="54px" viewBox="0 0 54 54" version="1.1" xmlns="http://www.w3.org/2000/svg" xmlns:xlink="http://www.w3.org/1999/xlink">
    <title>商品-归类查询</title>
    <defs>
        <linearGradient x1="50%" y1="0%" x2="50%" y2="100%" id="linearGradient-1">
            <stop stop-color="#BFAFF3" offset="0%"></stop>
            <stop stop-color="#9F8AD9" offset="100%"></stop>
        </linearGradient>
        <linearGradient x1="50%" y1="0%" x2="50%" y2="100%" id="linearGradient-2">
            <stop stop-color="#BFAFF3" offset="0%"></stop>
            <stop stop-color="#9F8AD9" offset="100%"></stop>
        </linearGradient>
    </defs>
    <g id="页面-1" stroke="none" stroke-width="1" fill="none" fill-rule="evenodd">
        <g id="商品贸易" transform="translate(-275.000000, -140.000000)">
            <g id="商品-归类查询" transform="translate(275.000000, 140.000000)">
                <circle id="椭圆形" fill="url(#linearGradient-1)" cx="27" cy="27" r="27"></circle>
                <g id="检查查询" transform="translate(14.000000, 13.000000)">
                    <path d="M27,14.34375 C27,21.3342188 21.3325313,27 14.34375,27 L12.65625,27 C5.666625,27 0,21.3342188 0,14.34375 L0,12.65625 C0,5.666625 5.666625,0 12.65625,0 L14.34375,0 C21.3325313,0 27,5.666625 27,12.65625 L27,14.34375 Z" id="路径" fill="#FFFFFF" fill-rule="nonzero"></path>
                    <path d="M13.9970464,24 C13.9079089,24 13.8137729,23.9808329 13.7279676,23.9524988 C9.0128393,22.1599537 5.90635285,17.5748383 6.00215493,12.5347115 L6.00215493,8.25543722 C6.00210818,7.91928323 6.22096517,7.62230344 6.5419788,7.52291879 C9.04311069,6.76069447 11.4120357,5.61783667 13.5655206,4.1345002 C13.8267989,3.9551666 14.1714593,3.9551666 14.4327376,4.1345002 C16.58657,5.61735135 18.9557798,6.75964886 21.4571124,7.52125208 C21.7796164,7.61869638 21.9996135,7.91676321 21.9977694,8.25377051 L21.9977694,12.5422117 C22.0952376,17.5690049 18.9904172,22.1599537 14.276122,23.945832 C14.1870277,23.9802437 14.0925406,23.9985834 13.9970464,24 L13.9970464,24 Z" id="路径" fill="url(#linearGradient-2)"></path>
                    <path d="M18.8027731,19.8641589 L16.8156686,17.8874941 C18.0811568,16.1615332 17.8933951,13.7791376 16.3728761,12.2691662 C15.5544293,11.4561453 14.4434611,10.9995064 13.2850921,11.0000004 C10.9050308,11.0462932 9,12.9731393 9,15.3341633 C9,17.6951873 10.9050308,19.6220334 13.2850921,19.6683258 C14.2145391,19.6700385 15.1199573,19.3755729 15.8679079,18.8283266 L17.8499712,20.8049913 C17.9827249,20.9383245 18.1532882,21.0000004 18.3288928,21.0000004 C18.5053574,21.0006262 18.675206,20.9334223 18.8027731,20.8124913 C19.0657423,20.5501788 19.0657423,20.1264715 18.8027731,19.8641589 L18.8027731,19.8641589 Z M13.2842519,18.3325135 C12.480189,18.3353932 11.7082757,18.0195933 11.1401082,17.4552963 C10.5719407,16.8909993 10.2546046,16.1249699 10.2586056,15.3274966 C10.2595343,14.5326637 10.5788571,13.7707605 11.1463172,13.2095104 C11.7137774,12.6482602 12.4828567,12.3336725 13.2842519,12.3349953 C14.0908567,12.3349953 14.8478889,12.6474992 15.4234351,13.2099987 C15.9947801,13.7766648 16.3056591,14.5308307 16.3056591,15.3274966 C16.310841,16.1259841 15.9930656,16.8932052 15.4234351,17.4574946 C14.8552804,18.0185288 14.0859863,18.3331965 13.2842519,18.3325135 L13.2842519,18.3325135 Z" id="形状" fill="#FFFFFF" fill-rule="nonzero"></path>
                </g>
            </g>
        </g>
    </g>
</svg>