<?xml version="1.0" encoding="UTF-8"?>
<svg width="54px" height="54px" viewBox="0 0 54 54" version="1.1" xmlns="http://www.w3.org/2000/svg" xmlns:xlink="http://www.w3.org/1999/xlink">
    <title>商品-证书认证</title>
    <defs>
        <linearGradient x1="50%" y1="0%" x2="50%" y2="100%" id="linearGradient-1">
            <stop stop-color="#64E7CB" offset="0.0676081731%"></stop>
            <stop stop-color="#1FC8B9" offset="100%"></stop>
        </linearGradient>
        <linearGradient x1="50%" y1="0%" x2="50%" y2="100%" id="linearGradient-2">
            <stop stop-color="#64E7CB" offset="0.0676081731%"></stop>
            <stop stop-color="#1FC8B9" offset="100%"></stop>
        </linearGradient>
        <linearGradient x1="50%" y1="0%" x2="50%" y2="100%" id="linearGradient-3">
            <stop stop-color="#64E7CB" offset="0.0676081731%"></stop>
            <stop stop-color="#1FC8B9" offset="100%"></stop>
        </linearGradient>
    </defs>
    <g id="页面-1" stroke="none" stroke-width="1" fill="none" fill-rule="evenodd">
        <g id="商品贸易" transform="translate(-83.000000, -331.000000)">
            <g id="商品-证书认证" transform="translate(83.000000, 331.000000)">
                <circle id="椭圆形" fill="url(#linearGradient-1)" cx="27" cy="27" r="27"></circle>
                <g id="认证书" transform="translate(16.000000, 14.000000)">
                    <path d="M3.31578947,0 L17.6842105,0 C19.5154705,0 21,1.52630199 21,3.40909091 L21,21.5909091 C21,23.473698 19.5154705,25 17.6842105,25 L3.31578947,25 C1.48452951,25 0,23.473698 0,21.5909091 L0,3.40909091 C0,1.52630199 1.48452951,0 3.31578947,0 Z" id="路径" fill="#FFFFFF" fill-rule="nonzero"></path>
                    <path d="M6.84375,19 L14.15625,19 C14.71875,19 15,19.3333333 15,20 L15,20 C15,20.6666667 14.71875,21 14.15625,21 L6.84375,21 C6.28125,21 6,20.6666667 6,20 L6,20 C6,19.3333333 6.28125,19 6.84375,19 Z" id="路径" fill="url(#linearGradient-2)"></path>
                    <path d="M4.875,15.3455001 L17.125,15.3455001 C17.6082492,15.3455001 18,15.7158725 18,16.1727501 C18,16.6296276 17.6082492,17 17.125,17 L4.875,17 C4.39175084,17 4,16.6296276 4,16.1727501 C4,15.7158725 4.39175084,15.3455001 4.875,15.3455001 L4.875,15.3455001 Z M10.6348333,12.7733043 L8.92975,13.3043987 C8.57389896,13.4152735 8.18337606,13.3578205 7.8799865,13.1499593 C7.57659694,12.9420981 7.39726196,12.6091246 7.39791667,12.2548943 L7.40141667,10.5281479 C7.40192629,10.2950683 7.32432555,10.0678269 7.17975,9.87903244 L6.10641667,8.47711953 C5.88758938,8.19146364 5.82645432,7.82409435 5.94193268,7.48871187 C6.05741105,7.15332939 6.33557503,6.8903841 6.69033333,6.78125713 L8.41291667,6.25181717 C8.64918863,6.17921836 8.85477871,6.03720794 8.99975,5.84646469 L10.0520833,4.45999378 C10.2712208,4.17123911 10.624096,4 11,4 C11.375904,4 11.7287792,4.17123911 11.9479167,4.45999378 L13.00025,5.84646469 C13.1452213,6.03720794 13.3508114,6.17921836 13.5870833,6.25181717 L15.3096667,6.78125713 C15.664425,6.8903841 15.942589,7.15332939 16.0580673,7.48871187 C16.1735457,7.82409435 16.1124106,8.19146364 15.8935833,8.47711953 L14.82025,9.87903244 C14.6756745,10.0678269 14.5980737,10.2950683 14.5985833,10.5281479 L14.6020833,12.2548943 C14.602738,12.6091246 14.4234031,12.9420981 14.1200135,13.1499593 C13.8166239,13.3578205 13.426101,13.4152735 13.07025,13.3043987 L11.3651667,12.7733043 C11.127996,12.6994079 10.872004,12.6994079 10.6348333,12.7733043 L10.6348333,12.7733043 Z" id="形状" fill="url(#linearGradient-3)"></path>
                </g>
            </g>
        </g>
    </g>
</svg>