<svg width="240" height="53" viewBox="0 0 240 53" fill="none" xmlns="http://www.w3.org/2000/svg">
<path d="M120 0V12" stroke="#3385FF"/>
<path d="M124.25 22.0833H115.083C114.623 22.0833 114.25 22.4563 114.25 22.9166V26.9166L119.317 24.5778C119.539 24.4755 119.794 24.4755 120.016 24.5778L125.083 26.9166V22.9166C125.083 22.4563 124.71 22.0833 124.25 22.0833Z" fill="#3385FF"/>
<path d="M121.75 22.0834V18.7501C121.75 18.2898 121.377 17.9167 120.917 17.9167H118.417C117.956 17.9167 117.583 18.2898 117.583 18.7501V22.0834" fill="#3385FF"/>
<path d="M111.667 34.0833C113.333 34.0833 113.333 33.25 114.583 33.25C115.833 33.25 115.833 34.0833 117.083 34.0833C118.333 34.0833 118.542 33.25 120 33.25C121.458 33.25 121.667 34.0833 122.917 34.0833C124.167 34.0833 124.167 33.25 125.417 33.25C126.667 33.25 126.667 34.0833 128.333 34.0833" stroke="#3385FF" stroke-width="0.833333" stroke-linecap="round" stroke-linejoin="round"/>
<path d="M126.913 29.5996L125.598 32.2853C125.545 32.392 125.413 32.4277 125.304 32.3801C124.425 31.9962 123.963 32.985 122.9 32.985C121.76 32.985 120.962 31.985 119.967 31.985C118.972 31.985 118.295 32.985 117.067 32.985C115.886 32.985 115.454 31.8279 114.015 32.4052C113.913 32.446 113.795 32.4058 113.746 32.3075L112.42 29.5996C112.276 29.2018 112.452 28.7588 112.831 28.5695L119.294 25.338C119.529 25.2207 119.805 25.2207 120.039 25.338L126.502 28.5695C126.881 28.7588 127.057 29.2018 126.913 29.5996Z" fill="#3385FF"/>
<path d="M119.646 52.3536C119.842 52.5488 120.158 52.5488 120.354 52.3536L123.536 49.1716C123.731 48.9763 123.731 48.6597 123.536 48.4645C123.34 48.2692 123.024 48.2692 122.828 48.4645L120 51.2929L117.172 48.4645C116.976 48.2692 116.66 48.2692 116.464 48.4645C116.269 48.6597 116.269 48.9763 116.464 49.1716L119.646 52.3536ZM120 40H119.5V52H120H120.5V40H120Z" fill="#3385FF"/>
</svg>
