<svg width="160" height="120" viewBox="0 0 160 120" fill="none" xmlns="http://www.w3.org/2000/svg">
<path d="M155.081 0H4.07016C2.3066 0 0.876953 1.42965 0.876953 3.1932V116.807C0.876953 118.57 2.3066 120 4.07016 120H155.081C156.844 120 158.274 118.57 158.274 116.807V3.1932C158.274 1.42965 156.844 0 155.081 0Z" fill="#E0E0E0"/>
<path d="M155.93 0H4.91928C3.15572 0 1.72607 1.42965 1.72607 3.1932V116.807C1.72607 118.57 3.15572 120 4.91928 120H155.93C157.693 120 159.123 118.57 159.123 116.807V3.1932C159.123 1.42965 157.693 0 155.93 0Z" fill="#EBEBEB"/>
<path d="M1.72607 8.25854V116.806C1.72944 117.652 2.06708 118.462 2.66531 119.059C3.26355 119.656 4.07381 119.993 4.91928 119.995H155.926C156.772 119.993 157.583 119.656 158.181 119.058C158.779 118.459 159.117 117.648 159.119 116.802V8.25854H1.72607Z" fill="#EBEBEB"/>
<path d="M158.533 12.5051H2.31641V115.754H158.533V12.5051Z" fill="white"/>
<path d="M152.894 106.114H7.95104C7.94397 106.114 7.93698 106.113 7.9305 106.11C7.92403 106.107 7.91821 106.103 7.91342 106.098C7.90863 106.093 7.90496 106.087 7.90267 106.08C7.90037 106.073 7.89949 106.066 7.90008 106.059V22.195C7.90008 22.1815 7.90545 22.1685 7.915 22.159C7.92456 22.1494 7.93752 22.144 7.95104 22.144H100.575C100.589 22.144 100.602 22.1494 100.611 22.159C100.621 22.1685 100.626 22.1815 100.626 22.195C100.627 22.202 100.626 22.2091 100.624 22.2158C100.621 22.2225 100.618 22.2286 100.613 22.2338C100.608 22.239 100.602 22.2431 100.596 22.246C100.589 22.2488 100.582 22.2502 100.575 22.2502H8.00624V106.008H152.839V22.2502H134.928C134.921 22.2502 134.914 22.2488 134.907 22.246C134.901 22.2431 134.895 22.239 134.89 22.2338C134.885 22.2286 134.882 22.2225 134.879 22.2158C134.877 22.2091 134.876 22.202 134.877 22.195C134.877 22.1815 134.882 22.1685 134.892 22.159C134.901 22.1494 134.914 22.144 134.928 22.144H152.894C152.907 22.144 152.92 22.1494 152.93 22.159C152.939 22.1685 152.945 22.1815 152.945 22.195V106.059C152.945 106.066 152.944 106.073 152.942 106.08C152.94 106.087 152.936 106.093 152.931 106.098C152.927 106.103 152.921 106.107 152.914 106.11C152.908 106.113 152.901 106.114 152.894 106.114Z" fill="#E0E0E0"/>
<path d="M8.73245 5.85113C9.67051 5.85113 10.431 5.09068 10.431 4.15262C10.431 3.21455 9.67051 2.4541 8.73245 2.4541C7.79439 2.4541 7.03394 3.21455 7.03394 4.15262C7.03394 5.09068 7.79439 5.85113 8.73245 5.85113Z" fill="#FAFAFA"/>
<path d="M14.7498 5.85113C15.6878 5.85113 16.4483 5.09068 16.4483 4.15262C16.4483 3.21455 15.6878 2.4541 14.7498 2.4541C13.8117 2.4541 13.0513 3.21455 13.0513 4.15262C13.0513 5.09068 13.8117 5.85113 14.7498 5.85113Z" fill="#FAFAFA"/>
<path d="M20.7664 5.85113C21.7044 5.85113 22.4649 5.09068 22.4649 4.15262C22.4649 3.21455 21.7044 2.4541 20.7664 2.4541C19.8283 2.4541 19.0679 3.21455 19.0679 4.15262C19.0679 5.09068 19.8283 5.85113 20.7664 5.85113Z" fill="#FAFAFA"/>
<path d="M159.123 8.04639H1.72607V8.47102H159.123V8.04639Z" fill="#E0E0E0"/>
<path d="M147.858 26.2537H13.0483V34.3116H147.858V26.2537Z" fill="#E0E0E0"/>
<path d="M147.858 38.4434H13.0483V104.504H147.858V38.4434Z" fill="#E0E0E0"/>
<path d="M147.858 26.2537H13.0483V34.3116H147.858V26.2537Z" fill="#EBEBEB"/>
<path d="M147.858 38.4434H13.0483V104.504H147.858V38.4434Z" fill="#EBEBEB"/>
<rect x="15.3828" y="47.4719" width="130.553" height="55.3862" fill="white"/>
<rect x="15.3828" y="40.8782" width="130.553" height="4.61552" fill="white"/>
<rect x="36.4822" y="42.197" width="15.8246" height="1.97808" fill="#EBEBEB"/>
<rect x="54.9443" y="42.197" width="5.27488" height="1.97808" fill="#EBEBEB"/>
<rect x="18.0203" y="42.197" width="15.8246" height="1.97808" fill="#EBEBEB"/>
<rect x="15.1401" y="28.0671" width="31.9739" height="4.44111" fill="#FAFAFA"/>
<rect x="50.0713" y="28.0671" width="31.9739" height="4.44111" fill="#FAFAFA"/>
<rect x="85.0024" y="28.0671" width="31.9739" height="4.44111" fill="#FAFAFA"/>
<rect x="129.712" y="28.0569" width="14.9926" height="4.44111" fill="#FAFAFA"/>
<rect x="17.8398" y="49.2617" width="126.865" height="4.44111" fill="#EBEBEB"/>
<path d="M120.006 50.1992C120.006 50.1764 120.024 50.158 120.047 50.158H126.93C126.953 50.158 126.972 50.1764 126.972 50.1992V52.7649C126.972 52.7877 126.953 52.8061 126.93 52.8061H120.047C120.024 52.8061 120.006 52.7877 120.006 52.7649V50.1992Z" fill="url(#paint0_linear_112_12744)"/>
<rect x="121.242" y="50.8533" width="0.875857" height="1.25711" fill="white"/>
<rect x="122.448" y="50.8533" width="0.875857" height="1.25711" fill="white"/>
<rect x="123.654" y="50.8533" width="0.875857" height="1.25711" fill="white"/>
<rect x="124.859" y="50.8533" width="0.875857" height="1.25711" fill="white"/>
<g filter="url(#filter0_d_112_12744)">
<path fill-rule="evenodd" clip-rule="evenodd" d="M126.542 51.835V54.3939L127.182 53.7542L127.658 54.7065C127.693 54.7763 127.764 54.8204 127.843 54.8204C127.897 54.8204 127.951 54.7992 127.984 54.755C128.018 54.7089 128.052 54.6483 128.035 54.6072C127.888 54.2552 127.502 53.5409 127.502 53.5409H128.248L126.542 51.835Z" fill="black" fill-opacity="0.85"/>
<path d="M126.589 51.7881L128.407 53.6064H127.612C127.615 53.613 127.619 53.6199 127.622 53.627C127.661 53.6996 127.714 53.8005 127.772 53.9121C127.887 54.1345 128.021 54.4033 128.096 54.582C128.115 54.627 128.103 54.6731 128.09 54.7041C128.076 54.7374 128.055 54.7689 128.036 54.7939C127.989 54.8586 127.913 54.8867 127.842 54.8867C127.739 54.8865 127.645 54.8283 127.599 54.7363L127.163 53.8652L126.589 54.4404L126.476 54.5527V51.6758L126.589 51.7881Z" stroke="white" stroke-width="0.131872"/>
</g>
<rect x="17.8398" y="55.0837" width="126.865" height="4.44111" fill="#EBEBEB"/>
<path d="M120.006 56.0217C120.006 55.9989 120.024 55.9805 120.047 55.9805H126.93C126.953 55.9805 126.972 55.9989 126.972 56.0217V58.5874C126.972 58.6102 126.953 58.6286 126.93 58.6286H120.047C120.024 58.6286 120.006 58.6102 120.006 58.5874V56.0217Z" fill="url(#paint1_linear_112_12744)"/>
<rect x="121.242" y="56.6758" width="0.875857" height="1.25711" fill="white"/>
<rect x="122.448" y="56.6758" width="0.875857" height="1.25711" fill="white"/>
<rect x="123.654" y="56.6758" width="0.875857" height="1.25711" fill="white"/>
<rect x="124.859" y="56.6758" width="0.875857" height="1.25711" fill="white"/>
<rect x="17.8398" y="60.9053" width="126.865" height="4.44111" fill="#EBEBEB"/>
<path d="M120.006 61.843C120.006 61.8202 120.024 61.8018 120.047 61.8018H126.93C126.953 61.8018 126.972 61.8202 126.972 61.843V64.4087C126.972 64.4315 126.953 64.4499 126.93 64.4499H120.047C120.024 64.4499 120.006 64.4315 120.006 64.4087V61.843Z" fill="url(#paint2_linear_112_12744)"/>
<rect x="121.242" y="62.4971" width="0.875857" height="1.25711" fill="white"/>
<rect x="122.448" y="62.4971" width="0.875857" height="1.25711" fill="white"/>
<rect x="123.654" y="62.4971" width="0.875857" height="1.25711" fill="white"/>
<rect x="124.859" y="62.4971" width="0.875857" height="1.25711" fill="white"/>
<rect x="17.8398" y="66.7275" width="126.865" height="4.44111" fill="#EBEBEB"/>
<path d="M120.006 67.6655C120.006 67.6427 120.024 67.6243 120.047 67.6243H126.93C126.953 67.6243 126.972 67.6427 126.972 67.6655V70.2312C126.972 70.254 126.953 70.2724 126.93 70.2724H120.047C120.024 70.2724 120.006 70.254 120.006 70.2312V67.6655Z" fill="url(#paint3_linear_112_12744)"/>
<rect x="121.242" y="68.3196" width="0.875857" height="1.25711" fill="white"/>
<rect x="122.448" y="68.3196" width="0.875857" height="1.25711" fill="white"/>
<rect x="123.654" y="68.3196" width="0.875857" height="1.25711" fill="white"/>
<rect x="124.859" y="68.3196" width="0.875857" height="1.25711" fill="white"/>
<rect x="17.8398" y="72.5491" width="126.865" height="4.44111" fill="#EBEBEB"/>
<path d="M120.006 73.487C120.006 73.4643 120.024 73.4458 120.047 73.4458H126.93C126.953 73.4458 126.972 73.4643 126.972 73.487V76.0528C126.972 76.0755 126.953 76.094 126.93 76.094H120.047C120.024 76.094 120.006 76.0755 120.006 76.0528V73.487Z" fill="url(#paint4_linear_112_12744)"/>
<rect x="121.242" y="74.1411" width="0.875857" height="1.25711" fill="white"/>
<rect x="122.448" y="74.1411" width="0.875857" height="1.25711" fill="white"/>
<rect x="123.654" y="74.1411" width="0.875857" height="1.25711" fill="white"/>
<rect x="124.859" y="74.1411" width="0.875857" height="1.25711" fill="white"/>
<rect x="17.8398" y="78.3713" width="126.865" height="4.44111" fill="#EBEBEB"/>
<path d="M120.006 79.309C120.006 79.2863 120.024 79.2678 120.047 79.2678H126.93C126.953 79.2678 126.972 79.2863 126.972 79.309V81.8748C126.972 81.8975 126.953 81.916 126.93 81.916H120.047C120.024 81.916 120.006 81.8975 120.006 81.8748V79.309Z" fill="url(#paint5_linear_112_12744)"/>
<rect x="121.242" y="79.9634" width="0.875857" height="1.25711" fill="white"/>
<rect x="122.448" y="79.9634" width="0.875857" height="1.25711" fill="white"/>
<rect x="123.654" y="79.9634" width="0.875857" height="1.25711" fill="white"/>
<rect x="124.859" y="79.9634" width="0.875857" height="1.25711" fill="white"/>
<defs>
<filter id="filter0_d_112_12744" x="126.338" y="51.4681" width="2.30178" height="3.58132" filterUnits="userSpaceOnUse" color-interpolation-filters="sRGB">
<feFlood flood-opacity="0" result="BackgroundImageFix"/>
<feColorMatrix in="SourceAlpha" type="matrix" values="0 0 0 0 0 0 0 0 0 0 0 0 0 0 0 0 0 0 127 0" result="hardAlpha"/>
<feOffset dy="0.0242556"/>
<feGaussianBlur stdDeviation="0.0363833"/>
<feColorMatrix type="matrix" values="0 0 0 0 0 0 0 0 0 0 0 0 0 0 0 0 0 0 1 0"/>
<feBlend mode="normal" in2="BackgroundImageFix" result="effect1_dropShadow_112_12744"/>
<feBlend mode="normal" in="SourceGraphic" in2="effect1_dropShadow_112_12744" result="shape"/>
</filter>
<linearGradient id="paint0_linear_112_12744" x1="120.006" y1="51.482" x2="123.139" y2="54.9473" gradientUnits="userSpaceOnUse">
<stop stop-color="#E6A23C"/>
<stop offset="0.8" stop-color="#F56C6C"/>
</linearGradient>
<linearGradient id="paint1_linear_112_12744" x1="120.006" y1="57.3046" x2="123.139" y2="60.7698" gradientUnits="userSpaceOnUse">
<stop stop-color="#E6A23C"/>
<stop offset="0.8" stop-color="#F56C6C"/>
</linearGradient>
<linearGradient id="paint2_linear_112_12744" x1="120.006" y1="63.1258" x2="123.139" y2="66.5911" gradientUnits="userSpaceOnUse">
<stop stop-color="#E6A23C"/>
<stop offset="0.8" stop-color="#F56C6C"/>
</linearGradient>
<linearGradient id="paint3_linear_112_12744" x1="120.006" y1="68.9484" x2="123.139" y2="72.4136" gradientUnits="userSpaceOnUse">
<stop stop-color="#E6A23C"/>
<stop offset="0.8" stop-color="#F56C6C"/>
</linearGradient>
<linearGradient id="paint4_linear_112_12744" x1="120.006" y1="74.7699" x2="123.139" y2="78.2351" gradientUnits="userSpaceOnUse">
<stop stop-color="#E6A23C"/>
<stop offset="0.8" stop-color="#F56C6C"/>
</linearGradient>
<linearGradient id="paint5_linear_112_12744" x1="120.006" y1="80.5919" x2="123.139" y2="84.0571" gradientUnits="userSpaceOnUse">
<stop stop-color="#E6A23C"/>
<stop offset="0.8" stop-color="#F56C6C"/>
</linearGradient>
</defs>
</svg>
