<svg width="22" height="18" viewBox="0 0 22 18" fill="none" xmlns="http://www.w3.org/2000/svg">
<path d="M14.5686 5.63771C14.8033 5.63771 15.0348 5.65488 15.264 5.6798C14.6395 2.80144 11.5291 0.662354 7.97906 0.662354C4.00985 0.662354 0.758301 3.33968 0.758301 6.73909C0.758301 8.70101 1.8403 10.3124 3.64772 11.5622L2.92564 13.7121L5.44959 12.4592C6.3533 12.6359 7.07756 12.818 7.97906 12.818C8.20554 12.818 8.42979 12.807 8.65296 12.7893C8.51174 12.312 8.42979 11.8114 8.42979 11.2925C8.42981 8.17108 11.1387 5.63771 14.5686 5.63771ZM10.6868 3.70018C11.2306 3.70018 11.5905 4.05457 11.5905 4.59226C11.5905 5.12772 11.2306 5.48654 10.6868 5.48654C10.1453 5.48654 9.60262 5.12772 9.60262 4.59226C9.60262 4.05457 10.1453 3.70018 10.6868 3.70018ZM5.63343 5.48651C5.09185 5.48651 4.54586 5.12769 4.54586 4.59223C4.54586 4.05454 5.09185 3.70016 5.63343 3.70016C6.1744 3.70016 6.5349 4.05454 6.5349 4.59223C6.5349 5.12772 6.1744 5.48651 5.63343 5.48651ZM21.1592 11.2067C21.1592 8.34993 18.2703 6.02145 15.026 6.02145C11.5905 6.02145 8.88498 8.34993 8.88498 11.2067C8.88498 14.0676 11.5905 16.3911 15.026 16.3911C15.7447 16.3911 16.4701 16.2127 17.1922 16.0334L19.1729 17.1065L18.6297 15.3212C20.0794 14.2448 21.1592 12.818 21.1592 11.2067ZM13.0347 10.3124C12.6753 10.3124 12.3126 9.95855 12.3126 9.5975C12.3126 9.24146 12.6753 8.88319 13.0347 8.88319C13.5807 8.88319 13.9384 9.24146 13.9384 9.5975C13.9384 9.95855 13.5807 10.3124 13.0347 10.3124ZM17.0061 10.3124C16.6495 10.3124 16.289 9.95855 16.289 9.5975C16.289 9.24146 16.6495 8.88319 17.0061 8.88319C17.5477 8.88319 17.9098 9.24146 17.9098 9.5975C17.9098 9.95855 17.5477 10.3124 17.0061 10.3124Z" fill="white"/>
</svg>
