<?xml version="1.0" encoding="UTF-8"?>
<svg width="54px" height="54px" viewBox="0 0 54 54" version="1.1" xmlns="http://www.w3.org/2000/svg" xmlns:xlink="http://www.w3.org/1999/xlink">
    <title>通关-成交方式代码表</title>
    <defs>
        <linearGradient x1="50%" y1="0%" x2="50%" y2="100%" id="linearGradient-1">
            <stop stop-color="#BFAFF3" offset="0%"></stop>
            <stop stop-color="#9F8AD9" offset="100%"></stop>
        </linearGradient>
    </defs>
    <g id="页面-1" stroke="none" stroke-width="1" fill="none" fill-rule="evenodd">
        <g id="通关参数查询" transform="translate(-371.000000, -46.000000)">
            <g id="通关-成交方式代码表" transform="translate(371.000000, 46.000000)">
                <circle id="椭圆形" fill="url(#linearGradient-1)" cx="27" cy="27" r="27"></circle>
                <path d="M39.4311933,27.8939554 C39.4311933,27.8939554 38.8217575,26.2283058 38.8217575,23.9532722 C38.8217575,23.9532722 38.6998704,23.5470162 38.5779832,23.9126466 C38.5779832,23.9126466 38.4967251,26.0251778 38.5779832,26.1876802 C38.5779832,26.1876802 38.0091765,26.1876802 37.8466603,23.7095186 C37.8466603,23.7095186 37.8060312,23.3032626 37.7247731,23.7095186 C37.7247731,23.7095186 37.7247731,25.8626754 37.3591117,24.5626562 C37.3591117,24.5626562 37.0340793,23.3845138 36.9934502,22.6532529 C36.9934502,22.6532529 36.7903049,22.7751297 36.6684178,23.3438882 C36.6684178,23.3438882 36.3027563,23.3845138 36.1808692,21.8407409 C36.1808692,21.8407409 36.058982,21.4751105 35.9370949,21.8407409 C35.9370949,21.8407409 35.7745787,22.4094993 35.8558368,22.6938785 C35.8558368,22.6938785 35.3276591,22.6126273 35.3682881,21.0282289 C35.3682881,21.0282289 35.0432557,21.1907313 35.1245138,21.7594897 C35.1245138,21.7594897 35.1245138,22.1251201 34.8807395,21.7594897 C34.8807395,21.7594897 34.1900457,21.1501057 33.4587227,21.3938593 C33.4587227,21.3938593 33.2555775,21.3532337 32.7273998,21.9219921 L30.9397215,23.7907698 C30.9397215,23.7907698 31.5085283,24.9282866 32.7273998,24.4407794 C32.7273998,24.4407794 33.0118032,24.4001538 33.3368356,24.1157746 C33.3368356,24.1157746 33.3774646,23.3032626 33.8650132,23.1813857 C33.8650132,23.1813857 34.5150781,23.0595089 35.0432557,23.668893 C35.0432557,23.668893 35.6120625,24.4001538 35.0026267,25.0501634 C35.0026267,25.0501634 34.3119328,26.9595666 30.7772053,25.7407986 C30.7772053,25.7407986 31.2241249,27.4470738 29.0301561,28.0564578 L28.8676399,28.2189602 L31.9960769,30.8596243 C31.9960769,30.8596243 32.6055127,31.4283827 33.3368356,30.9002499 C33.3368356,30.9002499 35.4495462,29.5596051 37.2778536,30.7377475 C37.2778536,30.7377475 40,32.5252739 38.8623866,36.181578 C38.8623866,36.181578 37.4809988,40.650394 33.1743194,39.9191332 C33.1743194,39.9191332 29.4364466,38.3347348 30.3302858,35.0034355 L30.6553182,33.9877955 C30.6553182,33.9877955 31.0616087,33.3784115 30.2490277,32.8502787 L27.1205907,30.0471123 C27.1205907,30.0471123 26.5111549,31.7127619 23.9515247,31.7533875 C23.9515247,31.7533875 24.15467,34.8815587 20.7012006,34.3534259 L15.7850854,39.9597588 L15.5819401,39.7972564 L20.0105067,33.7034163 C20.0105067,33.7034163 19.1979257,30.4127427 22.3669917,30.4533683 L22.570137,30.2502403 C22.570137,30.2502403 21.798185,28.0970834 23.9921538,27.2033202 L14.2411814,18.7531953 C14.2411814,18.7531953 13.6723747,18.3063137 14.2818105,17.3719249 C14.2818105,17.3719249 15.0943915,16.9250432 15.7850854,17.5750529 L25.5360577,25.3751682 L25.779832,25.1314146 C25.779832,25.1314146 25.9423482,23.1813857 28.0956879,22.9782577 C28.0956879,22.9782577 28.2582042,22.3282481 27.7706555,21.5157361 C27.7706555,21.5157361 27.1205907,20.3782193 27.7706555,19.4438305 C27.7706555,19.4438305 28.2988332,18.5906929 29.4364466,19.0375745 C29.4364466,19.0375745 30.533431,19.5250817 29.9646243,20.2157169 C29.9646243,20.2157169 29.5177047,20.6219729 29.2739304,20.6625985 C29.2739304,20.6625985 29.1114142,22.4094993 30.2083986,22.2876225 L32.077335,20.2157169 C32.077335,20.2157169 32.6055127,19.6063329 31.8335607,18.9969489 C31.8335607,18.9969489 31.1428668,18.6313185 31.9960769,18.3875649 C31.9960769,18.3875649 32.3211093,18.4281905 32.3617383,18.1438113 C32.3617383,18.1438113 32.4429964,17.9813089 31.7523026,17.9813089 C31.7523026,17.9813089 30.6553182,18.1031857 30.7365763,17.6969297 L31.7116735,17.5344273 C31.7116735,17.5344273 32.077335,17.3719249 31.5897864,17.3719249 L30.492802,17.3312993 C30.492802,17.3312993 29.9239953,17.3719249 29.680221,17.0062944 L30.8990925,16.9656688 C30.8990925,16.9656688 31.2241249,16.9656688 31.1428668,16.6812896 C31.1428668,16.6812896 31.1428668,16.5594128 30.7365763,16.5594128 L28.2175751,16.4781616 C28.2175751,16.4781616 28.0550589,16.234408 28.7457528,16.1937824 L30.0052534,16.1531568 C30.0052534,16.1531568 30.3302858,16.1125312 29.9646243,15.9094032 C29.9646243,15.9094032 30.0458824,15.8687776 29.4770757,15.7875264 L27.1205907,15.625024 C27.1205907,15.625024 26.551784,15.3000192 27.0799617,15.218768 L29.6395919,15.1375168 C29.6395919,15.1375168 29.9646243,14.9343888 29.6395919,14.7718864 L25.2922834,14.7718864 C25.2922834,14.7718864 25.0485091,14.8531376 24.8047348,14.4468816 C24.8047348,14.4468816 24.7234767,14.203128 25.1703963,14.1218768 L30.9803506,14 C30.9803506,14 32.889916,14.0406256 33.2149484,15.8687776 C33.2149484,15.8687776 33.3368356,16.437536 33.2962065,17.2500481 C33.2962065,17.2500481 33.4993518,17.8188065 33.9056423,17.6969297 C33.9056423,17.6969297 34.3119328,17.8594321 34.7994814,17.2094225 C34.7994814,17.2094225 34.9213686,16.8031664 34.9619976,16.5187872 C34.9619976,16.5187872 35.0026267,15.6656496 36.2621273,15.7469008 C36.2621273,15.7469008 37.1559664,16.1125312 37.5622569,16.9250432 C37.5622569,16.9250432 38.0091765,17.4125505 37.3997407,17.9406833 C37.3997407,17.9406833 37.0340793,18.4688161 36.3027563,18.4688161 C36.3027563,18.4688161 35.5308043,18.6719441 35.5714334,19.4032049 C35.5714334,19.4032049 35.6120625,20.5000961 36.830934,20.3375937 C36.830934,20.3375937 37.7247731,19.7282097 38.415467,20.0938401 C38.415467,20.0938401 39.5124514,20.5407217 39.5124514,22.4501249 L40,28.4220882 C40,28.4220882 39.7155966,28.747093 39.4311933,27.8939554 Z" id="形状" fill="#FFFFFF" fill-rule="nonzero"></path>
            </g>
        </g>
    </g>
</svg>