<?xml version="1.0" encoding="UTF-8"?>
<svg width="19px" height="18px" viewBox="0 0 19 18" version="1.1" xmlns="http://www.w3.org/2000/svg" xmlns:xlink="http://www.w3.org/1999/xlink">
    <title>编组 23</title>
    <g id="船期查询界面" stroke="none" stroke-width="1" fill="none" fill-rule="evenodd">
        <g id="船期查询备份-2" transform="translate(-34.000000, -81.000000)">
            <g id="左导航" transform="translate(1.000000, 66.000000)">
                <g id="编组-36" transform="translate(33.000000, 14.000000)">
                    <g id="编组-23" transform="translate(0.000000, 1.000000)">
                        <path d="M13.80244,14.6306985 L18.7918054,14.6224673 C19.1480286,14.6218797 19.4372809,14.9101792 19.4378686,15.2664024 C19.4378698,15.2671118 19.4378698,15.2678211 19.4378686,15.2685305 L19.4377695,15.32859 C19.4371832,15.6839823 19.1492268,15.9719387 18.7938345,15.972525 L13.8044691,15.9807562 C13.4482459,15.9813438 13.1589936,15.6930443 13.1584059,15.3368211 C13.1584047,15.3361117 13.1584047,15.3354024 13.1584059,15.334693 L13.158505,15.2746335 C13.1590913,14.9192412 13.4470476,14.6312848 13.80244,14.6306985 Z" id="矩形" fill="#3C4144" transform="translate(16.298137, 15.301612) rotate(45.000000) translate(-16.298137, -15.301612) "></path>
                        <g id="编组-22">
                            <ellipse id="椭圆形" stroke="#3C4144" stroke-width="1.29" fill="#FFFFFF" cx="8.50837947" cy="8.49743793" rx="7.86337947" ry="7.85243793"></ellipse>
                            <rect id="矩形" fill="#87E4DA" x="3.1906423" y="3.18653922" width="10.6354743" height="10.6217974" rx="5.31089871"></rect>
                        </g>
                    </g>
                </g>
            </g>
        </g>
    </g>
</svg>