<?xml version="1.0" encoding="UTF-8"?>
<svg width="16px" height="16px" viewBox="0 0 16 16" version="1.1" xmlns="http://www.w3.org/2000/svg" xmlns:xlink="http://www.w3.org/1999/xlink">
    <title>app-fill</title>
    <g id="页面-1" stroke="none" stroke-width="1" fill="none" fill-rule="evenodd">
        <g id="船期查询-运价船期" transform="translate(-16.000000, -521.000000)" fill-rule="nonzero">
            <g id="编组-7备份-7" transform="translate(8.000000, 509.000000)">
                <g id="app-fill" transform="translate(8.000000, 12.000000)">
                    <path d="M4.7816092,0 L2.3908046,0 C1.07586207,0 0,1.07586207 0,2.3908046 L0,4.7816092 C0,6.09655172 1.07586207,7.17241379 2.3908046,7.17241379 L5.97701149,7.17241379 C6.63448276,7.17241379 7.17241379,6.63448276 7.17241379,5.97701149 L7.17241379,2.3908046 C7.17241379,1.07586207 6.09655172,0 4.7816092,0 Z" id="路径" fill="#3775FF"></path>
                    <path d="M13.6091954,0 L11.2183908,0 C9.90344828,0 8.82758621,1.07586207 8.82758621,2.3908046 L8.82758621,5.97701149 C8.82758621,6.63448276 9.36551724,7.17241379 10.0229885,7.17241379 L13.6091954,7.17241379 C14.9241379,7.17241379 16,6.09655172 16,4.7816092 L16,2.3908046 C16,1.07586207 14.9241379,0 13.6091954,0 Z" id="路径" fill="#3775FF"></path>
                    <path d="M5.97701149,8.82758621 L2.3908046,8.82758621 C1.07586207,8.82758621 0,9.90344828 0,11.2183908 L0,13.6091954 C0,14.9241379 1.07586207,16 2.3908046,16 L4.7816092,16 C6.09655172,16 7.17241379,14.9241379 7.17241379,13.6091954 L7.17241379,10.0229885 C7.17241379,9.36551724 6.63448276,8.82758621 5.97701149,8.82758621 Z" id="路径" fill="#3775FF"></path>
                    <path d="M13.6091954,8.82758621 L10.0229885,8.82758621 C9.36551724,8.82758621 8.82758621,9.36551724 8.82758621,10.0229885 L8.82758621,13.6091954 C8.82758621,14.9241379 9.90344828,16 11.2183908,16 L13.6091954,16 C14.9241379,16 16,14.9241379 16,13.6091954 L16,11.2183908 C16,9.90344828 14.9241379,8.82758621 13.6091954,8.82758621 Z" id="路径" fill="#00D5B8"></path>
                </g>
            </g>
        </g>
    </g>
</svg>