<?xml version="1.0" encoding="UTF-8"?>
<svg width="16px" height="16px" viewBox="0 0 16 16" version="1.1" xmlns="http://www.w3.org/2000/svg" xmlns:xlink="http://www.w3.org/1999/xlink">
    <title>app-fill</title>
    <g id="迭代1" stroke="none" stroke-width="1" fill="none" fill-rule="evenodd">
        <g id="左菜单栏备份" transform="translate(-16.000000, -238.000000)" fill-rule="nonzero">
            <g id="编组-2备份-3" transform="translate(3.000000, 173.000000)">
                <g id="编组备份-5" transform="translate(0.000000, 49.000000)">
                    <g id="app-fill" transform="translate(13.000000, 16.000000)">
                        <path d="M5.97701149,8.82758621 C6.63448276,8.82758621 7.17241379,9.36551724 7.17241379,10.0229885 L7.17241379,10.0229885 L7.17241379,13.6091954 C7.17241379,14.9241379 6.09655172,16 4.7816092,16 L4.7816092,16 L2.3908046,16 C1.07586207,16 0,14.9241379 0,13.6091954 L0,13.6091954 L0,11.2183908 C0,9.90344828 1.07586207,8.82758621 2.3908046,8.82758621 L2.3908046,8.82758621 Z M13.6091954,0 C14.9241379,0 16,1.07586207 16,2.3908046 L16,2.3908046 L16,4.7816092 C16,6.09655172 14.9241379,7.17241379 13.6091954,7.17241379 L13.6091954,7.17241379 L10.0229885,7.17241379 C9.36551724,7.17241379 8.82758621,6.63448276 8.82758621,5.97701149 L8.82758621,5.97701149 L8.82758621,2.3908046 C8.82758621,1.07586207 9.90344828,0 11.2183908,0 L11.2183908,0 Z" id="路径-4" fill="#F7B500" opacity="0.65"></path>
                        <path d="M4.7816092,0 L2.3908046,0 C1.07586207,0 0,1.07586207 0,2.3908046 L0,4.7816092 C0,6.09655172 1.07586207,7.17241379 2.3908046,7.17241379 L5.97701149,7.17241379 C6.63448276,7.17241379 7.17241379,6.63448276 7.17241379,5.97701149 L7.17241379,2.3908046 C7.17241379,1.07586207 6.09655172,0 4.7816092,0 Z" id="路径" fill="#F7B500"></path>
                        <path d="M13.6091954,8.82758621 L10.0229885,8.82758621 C9.36551724,8.82758621 8.82758621,9.36551724 8.82758621,10.0229885 L8.82758621,13.6091954 C8.82758621,14.9241379 9.90344828,16 11.2183908,16 L13.6091954,16 C14.9241379,16 16,14.9241379 16,13.6091954 L16,11.2183908 C16,9.90344828 14.9241379,8.82758621 13.6091954,8.82758621 Z" id="路径" fill="#FDF6ED"></path>
                    </g>
                </g>
            </g>
        </g>
    </g>
</svg>