<?xml version="1.0" encoding="UTF-8"?>
<svg width="8px" height="8px" viewBox="0 0 8 8" version="1.1" xmlns="http://www.w3.org/2000/svg" xmlns:xlink="http://www.w3.org/1999/xlink">
    <title>caozuo-wailian</title>
    <g id="页面-1" stroke="none" stroke-width="1" fill="none" fill-rule="evenodd" fill-opacity="0.65">
        <g id="工作台" transform="translate(-85.000000, -567.000000)" fill="#FFFFFF" fill-rule="nonzero">
            <g id="编组-7备份-8" transform="translate(8.000000, 550.000000)">
                <g id="caozuo-wailian" transform="translate(77.000000, 17.000000)">
                    <path d="M7.38461538,5.23076923 C7.38461538,5.06083546 7.52237392,4.92307692 7.69230769,4.92307692 C7.86224146,4.92307692 8,5.06083546 8,5.23076923 L8,7.38553846 C7.99983023,7.72482585 7.72482585,7.99983023 7.38553846,8 L0.614461538,8 C0.275174148,7.99983023 0.000169771055,7.72482585 0,7.38553846 L0,0.614461538 C0,0.275076923 0.275384615,0 0.614461538,0 L2.76923077,0 C2.93916454,0 3.07692308,0.137758539 3.07692308,0.307692308 C3.07692308,0.477626077 2.93916454,0.615384615 2.76923077,0.615384615 L0.923692308,0.615384615 C0.841798494,0.614972874 0.763139769,0.647322962 0.705231366,0.705231366 C0.647322962,0.763139769 0.614972874,0.841798494 0.615384615,0.923692308 L0.615384615,7.07630769 C0.614972874,7.15820151 0.647322962,7.23686023 0.705231366,7.29476863 C0.763139769,7.35267704 0.841798494,7.38502713 0.923692308,7.38461538 L7.07630769,7.38461538 C7.15820151,7.38502713 7.23686023,7.35267704 7.29476863,7.29476863 C7.35267704,7.23686023 7.38502713,7.15820151 7.38461538,7.07630769 L7.38461538,5.23076923 Z M2.71938462,5.73538462 C2.66177078,5.79290633 2.58361873,5.8251116 2.5022059,5.82488187 C2.42079308,5.82464968 2.34282501,5.79200152 2.28553846,5.73415385 C2.22761491,5.676908 2.19491414,5.59892491 2.19468187,5.51748677 C2.19445208,5.43604863 2.22670987,5.35788126 2.28430769,5.30030769 L6.91384615,0.673538462 L5.22030769,0.680615385 C5.13934366,0.681115694 5.06157294,0.649068291 5.00446646,0.591672521 C4.94735999,0.534276751 4.91570597,0.456345082 4.91661538,0.375384615 C4.91826676,0.206737048 5.05413206,0.0701890098 5.22276923,0.0676923077 L7.67692308,0.0575307026 C7.75764329,0.0569597997 7.83522529,0.088770008 7.89230456,0.145849284 C7.94938384,0.202928561 7.98119405,0.280510557 7.98062314,0.361230769 L7.97046154,2.81538462 C7.96796484,2.98402179 7.8314168,3.11988708 7.66276923,3.12153846 C7.58186181,3.12236479 7.50400991,3.09067405 7.44668116,3.0335767 C7.38935241,2.97647934 7.35734706,2.89875625 7.35784615,2.81784615 L7.36492308,1.09292308 L2.71938462,5.73538462 Z" id="形状"></path>
                </g>
            </g>
        </g>
    </g>
</svg>