<?xml version="1.0" encoding="UTF-8"?>
<svg width="20px" height="14px" viewBox="0 0 20 14" version="1.1" xmlns="http://www.w3.org/2000/svg" xmlns:xlink="http://www.w3.org/1999/xlink">
    <title>编组 5</title>
    <g id="页面-1" stroke="none" stroke-width="1" fill="none" fill-rule="evenodd" opacity="0.65">
        <g id="编组-5" transform="translate(0.000000, -0.000000)" fill-rule="nonzero">
            <polygon id="路径-7" fill="#969799" points="0 3.31766194 5.81772351 0 9.24263938 1.98395472 8.14180269 2.53202997 5.81020908 1.13405732 0.981248494 3.88729146 0.981248494 9.52533369 5.81217287 12.3669384 10.5763284 9.52631559 10.576968 4.63319452 14.1746658 2.53202997 17.7620696 4.81214684 17.7620696 8.77529214 14.1844976 10.8738397 12.3505705 9.97333038 12.3505705 8.89739699 14.1425717 9.75902475 16.7799423 8.21253981 16.7799423 5.3512972 14.1514088 3.68109346 11.5582236 5.19615776 11.5588632 10.0850192 5.81620563 13.5084156 0 10.0869127"></polygon>
            <polygon id="路径-13" fill="#F8F8F8" points="8.43958296 3.29366668 14.3993574 0 20 3.3028419 20 10.0590502 14.3880562 13.514819 11.2046692 11.4988706 12.1777634 10.9560579 14.3943233 12.356421 19.0180677 9.50990686 19.0180677 3.86302757 14.3835224 1.13041323 9.42102407 3.87186463 9.42147816 8.67731943 6.03501515 10.668373 2.65111704 8.67720325 2.65111704 4.71529073 6.03593836 2.84356046 8.06392963 3.97275726 8.06392963 5.16207492 6.03446752 3.96612657 3.63275187 5.29364888 3.63275187 8.11561568 6.03544942 9.52856287 8.43912887 8.11463379"></polygon>
        </g>
    </g>
</svg>