<?xml version="1.0" encoding="UTF-8"?>
<svg width="16px" height="20px" viewBox="0 0 16 20" version="1.1" xmlns="http://www.w3.org/2000/svg" xmlns:xlink="http://www.w3.org/1999/xlink">
    <title>编组 3</title>
    <g id="页面-1" stroke="none" stroke-width="1" fill="none" fill-rule="evenodd">
        <g id="工作台" transform="translate(-402.000000, -700.000000)" fill-rule="nonzero">
            <g id="编组-2" transform="translate(139.000000, 376.000000)">
                <g id="编组-15" transform="translate(16.000000, 316.000000)">
                    <g id="编组-3" transform="translate(247.000000, 8.000000)">
                        <path d="M7.63331888,10.2843134 C4.9641636,10.2843134 2.7926295,7.97757035 2.7926295,5.14211729 C2.7926295,2.30674448 4.9641636,0 7.63331888,0 C10.3024742,0 12.4740083,2.30674448 12.4740083,5.14211729 C12.4740083,7.97757035 10.3024742,10.2843134 7.63331888,10.2843134 Z M7.63331888,1.2992874 C5.68057951,1.2992874 4.09191691,3.02316039 4.09191691,5.14211729 C4.09191691,7.2610742 5.68057951,8.98502595 7.63331888,8.98502595 C9.58605826,8.98502595 11.1747194,7.2610742 11.1747194,5.14211729 C11.1747194,3.02316039 9.58605826,1.2992874 7.63331888,1.2992874 Z" id="形状" fill="#3B78FF"></path>
                        <path d="M12.2172675,19.2457079 L3.04937022,19.2457079 C1.36604076,19.2438357 0.00189360273,17.8797058 0,16.1963764 L0,7.20365957 C0.00129564014,6.05120084 0.935213151,5.11726538 2.08767185,5.11594759 L13.1789659,5.11594759 C14.3314246,5.11726538 15.2653421,6.05120084 15.2666378,7.20365957 L15.2666378,16.1963764 C15.2647442,17.8797058 13.900597,19.2438357 12.2172675,19.2457079 Z" id="路径" fill="#3B78FF"></path>
                        <path d="M9.41984126,10.2318952 C9.42051207,9.35308685 8.78194853,8.60430289 7.91405835,8.46620449 C7.04616817,8.3281061 6.20673366,8.84171151 5.93460663,9.6773259 C5.6624796,10.5129403 6.03848772,11.422368 6.82126296,11.821827 L6.82126296,14.6169874 L8.44537332,14.6169874 L8.44537332,11.821827 C9.04321566,11.5171348 9.41967705,10.9029039 9.41984126,10.2318952 Z" id="路径" fill="#FFFFFF"></path>
                    </g>
                </g>
            </g>
        </g>
    </g>
</svg>