<?xml version="1.0" encoding="UTF-8"?>
<svg width="20px" height="20px" viewBox="0 0 20 20" version="1.1" xmlns="http://www.w3.org/2000/svg" xmlns:xlink="http://www.w3.org/1999/xlink">
    <title>舱单</title>
    <g id="页面-1" stroke="none" stroke-width="1" fill="none" fill-rule="evenodd">
        <g id="舱单">
            <rect id="矩形" x="0" y="0" width="20" height="20"></rect>
            <g id="船运-(3)" transform="translate(2.000000, 5.000000)" fill="#FFFFFF" fill-rule="nonzero">
                <path d="M0.198225667,6.7417393 C0.0389207853,6.7417393 -0.0407475668,6.86161926 0.0208136184,7.00871564 L1.16495426,9.73302366 C1.22651545,9.880136 1.40755529,10 1.56686017,10 L13.3143064,10 C13.4736112,10 13.6836098,9.89648182 13.7813853,9.77115857 L15.950188,6.97059669 C16.0479476,6.84345369 15.9972698,6.7417393 15.837949,6.7417393 L0.198225667,6.7417393 L0.198225667,6.7417393 Z M13.3179341,8.89030425 C13.0391347,8.89030425 12.8128428,8.65782332 12.8128428,8.37087763 C12.8128428,8.08393193 13.0391347,7.8532548 13.3179341,7.8532548 C13.5967177,7.8532548 13.8230255,8.08571976 13.8230255,8.37087763 C13.8230255,8.65782332 13.5967177,8.89030425 13.3179341,8.89030425 Z M12.8128428,0.290585193 C12.8128428,0.130766529 12.6824967,0 12.5231759,0 L11.7103264,0 C11.5510056,0 11.4206595,0.130766529 11.4206595,0.290585193 L11.4206595,4.00654471 C11.4206595,4.16636338 11.5510056,4.2971299 11.7103264,4.2971299 L12.5231759,4.2971299 C12.6824967,4.2971299 12.8128428,4.16636338 12.8128428,4.00654471 L12.8128428,0.290585193 Z M10.4340257,0.290585193 C10.4340257,0.130766529 10.3036796,0 10.1443588,0 L9.3315252,0 C9.17220441,0 9.04185827,0.130766529 9.04185827,0.290585193 L9.04185827,4.00654471 C9.04185827,4.16636338 9.17220441,4.2971299 9.3315252,4.2971299 L10.1443747,4.2971299 C10.3036955,4.2971299 10.4340416,4.16636338 10.4340416,4.00654471 L10.4340416,0.290585193 L10.4340257,0.290585193 Z M13.8230255,4.66580468 L8.3086453,4.66580468 C8.14934042,4.66580468 8.01899427,4.53505411 8.01899427,4.37521949 L8.01899427,4.06828848 C8.01899427,3.90846981 7.88864813,3.77770329 7.72934325,3.77770329 L1.92893987,3.77770329 C1.76961907,3.77770329 1.63927293,3.90846981 1.63927293,4.06828848 L1.63927293,5.90628292 C1.63927293,6.06611755 1.76961907,6.19688408 1.92893987,6.19688408 L13.5333585,6.19688408 C13.6926793,6.19688408 13.8230255,6.06611755 13.8230255,5.90628292 L13.8230255,4.66582064 L13.8230255,4.66580468 Z M2.96989511,5.4812917 C2.69109566,5.4812917 2.46480381,5.24882674 2.46480381,4.96186508 C2.46480381,4.67490343 2.69109566,4.44424225 2.96989511,4.44424225 C3.24869457,4.44424225 3.47498642,4.67672317 3.47498642,4.96186508 C3.47317252,5.24882674 3.24869457,5.4812917 2.96989511,5.4812917 Z M4.84362093,5.50491652 C4.56482147,5.50491652 4.33852962,5.27243559 4.33852962,4.98729368 C4.33852962,4.70033202 4.56482147,4.46786706 4.84362093,4.46786706 C5.12242038,4.46786706 5.34871223,4.70033202 5.34871223,4.98729368 C5.34871223,5.27425534 5.12242038,5.50490055 4.84362093,5.50490055 L4.84362093,5.50491652 Z M6.61777323,5.51398333 C6.33897378,5.51398333 6.11268193,5.28151837 6.11268193,4.9963605 C6.11268193,4.71120263 6.33897378,4.47875363 6.61777323,4.47875363 C6.89657269,4.47875363 7.12286454,4.71121859 7.12286454,4.9963605 C7.12286454,5.28150241 6.89657269,5.51398333 6.61777323,5.51398333 L6.61777323,5.51398333 Z" id="形状"></path>
            </g>
        </g>
    </g>
</svg>