<?xml version="1.0" encoding="UTF-8"?>
<svg width="20px" height="20px" viewBox="0 0 20 20" version="1.1" xmlns="http://www.w3.org/2000/svg" xmlns:xlink="http://www.w3.org/1999/xlink">
    <title>编组 3</title>
    <g id="页面-1" stroke="none" stroke-width="1" fill="none" fill-rule="evenodd" opacity="0.65">
        <g id="编组-3">
            <rect id="矩形" x="0" y="0" width="20" height="20"></rect>
            <path d="M18,10.5687829 L16.11875,14.4625451 C15.8828125,14.9158858 15.4140625,15.2 14.9,15.2 L3.8125,15.2 C3.6078125,15.2 3.475,14.9857499 3.5671875,14.8041031 L3.571875,14.7947879 C3.721875,14.4982534 3.6328125,14.1380649 3.3609375,13.9455503 L3.3453125,13.9346826 C2.7171875,13.487552 2.34375,12.7656224 2.34375,11.9971167 L2.34375,11.1137233 L12.215625,11.1137233 L12.215625,11.1075132 C12.215625,10.8094261 12.459375,10.5687829 12.7578125,10.5687829 L18,10.5687829 Z M4.3328125,4 L4.3328125,5.54477405 L4.8515625,5.54477405 L4.8515625,6.06021625 L4.3328125,6.06021625 L4.3328125,6.831827 L6.3171875,6.831827 L5.6296875,7.29914056 L5.6296875,10.953812 L2.778125,10.953812 L2.778125,7.34882174 L2,7.34882174 L2,6.83337954 L4.0734375,6.83337954 L4.0734375,6.06021625 L3.2953125,6.06021625 L3.2953125,5.54477405 L4.0734375,5.54477405 L4.0734375,4 L4.3328125,4 Z M8.65,8.11577488 C8.8,8.11577488 8.9234375,8.23842528 8.9234375,8.38902135 L8.9234375,8.38902135 L8.9234375,10.5687829 C8.9234375,10.7178264 8.8015625,10.8404769 8.65,10.8404769 L8.65,10.8404769 L6.45625,10.8404769 C6.3046875,10.8404769 6.1828125,10.719379 6.18125,10.5687829 L6.18125,10.5687829 L6.18125,8.38902135 C6.18125,8.23842528 6.3046875,8.11577488 6.45625,8.11577488 L6.45625,8.11577488 Z M11.665625,7.29914056 C11.8171875,7.29914056 11.940625,7.42023843 11.9390772,7.57083449 L11.9390772,7.57083449 L11.9390772,10.5672304 C11.9390772,10.7162739 11.8171875,10.8389243 11.665625,10.8389243 L11.665625,10.8389243 L9.746875,10.8389243 C9.5953125,10.8389243 9.471875,10.7178264 9.471875,10.5672304 L9.471875,10.5672304 L9.471875,7.57083449 C9.471875,7.42179096 9.5953125,7.29914056 9.746875,7.29914056 L9.746875,7.29914056 Z M14.95625,8.38902135 C15.1078125,8.38902135 15.23125,8.51011921 15.2328125,8.66071528 L15.2328125,8.66071528 L15.2328125,9.75059606 C15.2328125,9.89963959 15.109375,10.02229 14.9578125,10.02229 L14.9578125,10.02229 L12.7640625,10.02229 C12.6125,10.02229 12.4890625,9.90119213 12.4890625,9.75059606 L12.4890625,9.75059606 L12.4890625,8.66071528 C12.4890625,8.51167175 12.6125,8.38902135 12.7640625,8.38902135 L12.7640625,8.38902135 Z M5.109375,8.89359579 L4.33125,8.89359579 L4.33125,9.92292764 L5.109375,9.92292764 L5.109375,8.89359579 Z M5.109375,7.60343776 L4.33125,7.60343776 L4.33125,8.37660105 L5.109375,8.37660105 L5.109375,7.60343776 Z M16.1176471,4 C17.1572437,4 18,4.8427563 18,5.88235294 C18,6.92168067 17.1572437,7.76470588 16.1176471,7.76470588 C15.0780504,7.76470588 14.2352941,6.92168067 14.2352941,5.88235294 C14.2352941,4.8427563 15.0780504,4 16.1176471,4 Z M15.6849748,4.81801681 L15.2324034,4.81801681 L15.7333782,5.74144538 L15.4346218,5.74144538 L15.4346218,6.13915966 L15.946084,6.13915966 L15.946084,6.27710924 L15.4346218,6.27710924 L15.4346218,6.67536134 L15.946084,6.67536134 L15.946084,7.0577479 L16.3381513,7.0577479 L16.3381513,6.67536134 L16.8644034,6.67536134 L16.8644034,6.27710924 L16.3381513,6.27710924 L16.3381513,6.13915966 L16.8644034,6.13915966 L16.8644034,5.74144538 L16.501916,5.74144538 L17.0028908,4.81801681 L16.5500504,4.81801681 L16.1176471,5.61452101 L15.6849748,4.81801681 Z" id="路径-3" fill="#FFFFFF" fill-rule="nonzero"></path>
        </g>
    </g>
</svg>