<?xml version="1.0" encoding="UTF-8"?>
<svg width="20px" height="20px" viewBox="0 0 20 20" version="1.1" xmlns="http://www.w3.org/2000/svg" xmlns:xlink="http://www.w3.org/1999/xlink">
    <title>编组 3</title>
    <defs>
        <linearGradient x1="0%" y1="25.5%" x2="100%" y2="74.5%" id="linearGradient-1">
            <stop stop-color="#FAD961" offset="0%"></stop>
            <stop stop-color="#F76B1C" offset="100%"></stop>
        </linearGradient>
    </defs>
    <g id="迭代1" stroke="none" stroke-width="1" fill="none" fill-rule="evenodd">
        <g id="左菜单栏备份" transform="translate(-14.000000, -89.000000)">
            <g id="编组-2备份" transform="translate(3.000000, 75.000000)">
                <g id="编组-3" transform="translate(11.000000, 14.000000)">
                    <rect id="矩形" x="0" y="0" width="20" height="20"></rect>
                    <path d="M19,11.3898808 L16.8835938,15.7703632 C16.6181641,16.2803715 16.0908203,16.6 15.5125,16.6 L3.0390625,16.6 C2.80878906,16.6 2.659375,16.3589687 2.76308594,16.154616 L2.76835937,16.1441364 C2.93710937,15.8105351 2.83691406,15.405323 2.53105469,15.1887441 L2.51347656,15.1765179 C1.80683594,14.673496 1.38671875,13.8613252 1.38671875,12.9967563 L1.38671875,12.0029387 L12.4925781,12.0029387 L12.4925781,11.9959523 C12.4925781,11.6606044 12.7667969,11.3898808 13.1025391,11.3898808 L19,11.3898808 Z M3.62441406,4 L3.62441406,5.73787081 L4.20800781,5.73787081 L4.20800781,6.31774328 L3.62441406,6.31774328 L3.62441406,7.18580538 L5.85683594,7.18580538 L5.08339844,7.71153313 L5.08339844,11.8230385 L1.87539063,11.8230385 L1.87539063,7.76742445 L1,7.76742445 L1,7.18755198 L3.33261719,7.18755198 L3.33261719,6.31774328 L2.45722656,6.31774328 L2.45722656,5.73787081 L3.33261719,5.73787081 L3.33261719,4 L3.62441406,4 Z M8.48125,8.63024674 C8.65,8.63024674 8.78886719,8.76822844 8.78886719,8.93764902 L8.78886719,8.93764902 L8.78886719,11.3898808 C8.78886719,11.5575548 8.65175781,11.6955365 8.48125,11.6955365 L8.48125,11.6955365 L6.01328125,11.6955365 C5.84277344,11.6955365 5.70566406,11.5593014 5.70390625,11.3898808 L5.70390625,11.3898808 L5.70390625,8.93764902 C5.70390625,8.76822844 5.84277344,8.63024674 6.01328125,8.63024674 L6.01328125,8.63024674 Z M11.8738281,7.71153313 C12.0443359,7.71153313 12.1832031,7.84776823 12.1814618,8.0171888 L12.1814618,8.0171888 L12.1814618,11.3881342 C12.1814618,11.5558082 12.0443359,11.6937899 11.8738281,11.6937899 L11.8738281,11.6937899 L9.71523437,11.6937899 C9.54472656,11.6937899 9.40585937,11.5575548 9.40585937,11.3881342 L9.40585937,11.3881342 L9.40585937,8.0171888 C9.40585937,7.84951483 9.54472656,7.71153313 9.71523437,7.71153313 L9.71523437,7.71153313 Z M15.5757812,8.93764902 C15.7462891,8.93764902 15.8851562,9.07388411 15.8869141,9.24330469 L15.8869141,9.24330469 L15.8869141,10.4694206 C15.8869141,10.6370945 15.7480469,10.7750762 15.5775391,10.7750762 L15.5775391,10.7750762 L13.1095703,10.7750762 C12.9390625,10.7750762 12.8001953,10.6388411 12.8001953,10.4694206 L12.8001953,10.4694206 L12.8001953,9.24330469 C12.8001953,9.07563072 12.9390625,8.93764902 13.1095703,8.93764902 L13.1095703,8.93764902 Z M4.49804688,9.50529526 L3.62265625,9.50529526 L3.62265625,10.6632936 L4.49804688,10.6632936 L4.49804688,9.50529526 Z M4.49804688,8.05386748 L3.62265625,8.05386748 L3.62265625,8.92367619 L4.49804688,8.92367619 L4.49804688,8.05386748 Z M16.8823529,4 C18.0518992,4 19,4.94810084 19,6.11764706 C19,7.28689076 18.0518992,8.23529412 16.8823529,8.23529412 C15.7128067,8.23529412 14.7647059,7.28689076 14.7647059,6.11764706 C14.7647059,4.94810084 15.7128067,4 16.8823529,4 Z M16.3955966,4.92026891 L15.8864538,4.92026891 L16.4500504,5.95912605 L16.1139496,5.95912605 L16.1139496,6.40655462 L16.6893445,6.40655462 L16.6893445,6.5617479 L16.1139496,6.5617479 L16.1139496,7.00978151 L16.6893445,7.00978151 L16.6893445,7.43996639 L17.1304202,7.43996639 L17.1304202,7.00978151 L17.7224538,7.00978151 L17.7224538,6.5617479 L17.1304202,6.5617479 L17.1304202,6.40655462 L17.7224538,6.40655462 L17.7224538,5.95912605 L17.3146555,5.95912605 L17.8782521,4.92026891 L17.3688067,4.92026891 L16.8823529,5.81633613 L16.3955966,4.92026891 Z" id="路径-3" fill="url(#linearGradient-1)" fill-rule="nonzero"></path>
                </g>
            </g>
        </g>
    </g>
</svg>