<svg width="20" height="20" viewBox="0 0 20 20" fill="none" xmlns="http://www.w3.org/2000/svg">
<path d="M9.90037 10.2394C8.11346 10.2394 6.65921 8.83966 6.65921 7.11971C6.65921 5.39976 8.11346 4 9.90037 4C11.6873 4 13.1415 5.39976 13.1415 7.11971C13.1415 8.83966 11.6873 10.2394 9.90037 10.2394ZM9.90037 4.73439C8.53463 4.73439 7.4222 5.80514 7.4222 7.11971C7.4222 8.43427 8.53463 9.50502 9.90037 9.50502C11.2661 9.50502 12.3785 8.43427 12.3785 7.11971C12.3785 5.80514 11.2661 4.73439 9.90037 4.73439Z" fill="white"/>
<path d="M14.5271 16H5.47201C5.0249 16 4.60679 15.8076 4.32601 15.4727C4.04523 15.1378 3.93841 14.7031 4.03455 14.2815C4.33364 12.9523 5.08594 11.7464 6.15107 10.8827C6.68363 10.4509 7.28028 10.1146 7.92271 9.8825C8.58804 9.64162 9.28693 9.52117 10.0011 9.52117C10.7152 9.52117 11.4141 9.64308 12.0794 9.8825C12.7219 10.1146 13.317 10.4509 13.8496 10.8827C14.9147 11.7449 15.6655 12.9523 15.9661 14.2815C16.0607 14.7031 15.9554 15.1378 15.6746 15.4727C15.3923 15.8076 14.9742 16 14.5271 16ZM9.99955 10.2556C9.37696 10.2556 8.7681 10.3613 8.18976 10.5714C7.6282 10.7741 7.10785 11.0678 6.64243 11.4453C5.70548 12.2047 5.04474 13.2666 4.78075 14.4372C4.73497 14.6414 4.78532 14.8499 4.92114 15.0115C5.05695 15.1731 5.25685 15.2656 5.47354 15.2656H14.5286C14.7438 15.2656 14.9452 15.1731 15.081 15.0115C15.2168 14.8499 15.2672 14.6399 15.2214 14.4372C14.9574 13.2666 14.2952 12.2032 13.3597 11.4453C12.8943 11.0678 12.3724 10.7741 11.8124 10.5714C11.231 10.3613 10.6206 10.2556 9.99955 10.2556Z" fill="white"/>
<path d="M9.90037 10.2394C8.11346 10.2394 6.65921 8.83966 6.65921 7.11971C6.65921 5.39976 8.11346 4 9.90037 4C11.6873 4 13.1415 5.39976 13.1415 7.11971C13.1415 8.83966 11.6873 10.2394 9.90037 10.2394ZM9.90037 4.73439C8.53463 4.73439 7.4222 5.80514 7.4222 7.11971C7.4222 8.43427 8.53463 9.50502 9.90037 9.50502C11.2661 9.50502 12.3785 8.43427 12.3785 7.11971C12.3785 5.80514 11.2661 4.73439 9.90037 4.73439Z" stroke="white" stroke-width="0.25"/>
<path d="M14.5271 16H5.47201C5.0249 16 4.60679 15.8076 4.32601 15.4727C4.04523 15.1378 3.93841 14.7031 4.03455 14.2815C4.33364 12.9523 5.08594 11.7464 6.15107 10.8827C6.68363 10.4509 7.28028 10.1146 7.92271 9.8825C8.58804 9.64162 9.28693 9.52117 10.0011 9.52117C10.7152 9.52117 11.4141 9.64308 12.0794 9.8825C12.7219 10.1146 13.317 10.4509 13.8496 10.8827C14.9147 11.7449 15.6655 12.9523 15.9661 14.2815C16.0607 14.7031 15.9554 15.1378 15.6746 15.4727C15.3923 15.8076 14.9742 16 14.5271 16ZM9.99955 10.2556C9.37696 10.2556 8.7681 10.3613 8.18976 10.5714C7.6282 10.7741 7.10785 11.0678 6.64243 11.4453C5.70548 12.2047 5.04474 13.2666 4.78075 14.4372C4.73497 14.6414 4.78532 14.8499 4.92114 15.0115C5.05695 15.1731 5.25685 15.2656 5.47354 15.2656H14.5286C14.7438 15.2656 14.9452 15.1731 15.081 15.0115C15.2168 14.8499 15.2672 14.6399 15.2214 14.4372C14.9574 13.2666 14.2952 12.2032 13.3597 11.4453C12.8943 11.0678 12.3724 10.7741 11.8124 10.5714C11.231 10.3613 10.6206 10.2556 9.99955 10.2556Z" stroke="white" stroke-width="0.25"/>
</svg>
