<svg width="20" height="20" viewBox="0 0 20 20" fill="none" xmlns="http://www.w3.org/2000/svg">
<path d="M14.6938 17H5.30941C5.26121 17 5.21462 16.9984 5.16803 16.9918C5.13108 16.9885 5.0893 16.9802 5.04592 16.972C4.99451 16.9604 4.95113 16.9489 4.91097 16.934C4.87723 16.9241 4.83385 16.906 4.79207 16.8862C4.75351 16.8681 4.71496 16.8483 4.6764 16.8252C4.64266 16.8054 4.6057 16.7823 4.57036 16.7559C4.53662 16.7328 4.50127 16.7031 4.46914 16.6734C4.44022 16.647 4.40969 16.6174 4.37917 16.586C4.35025 16.5547 4.32293 16.52 4.29562 16.4854C4.26992 16.4524 4.24582 16.4178 4.22172 16.3799C4.19922 16.3436 4.17834 16.304 4.15745 16.2644C4.13817 16.2248 4.1205 16.1869 4.10443 16.1473C4.08515 16.0962 4.07069 16.0533 4.05784 16.0104C4.04659 15.9725 4.03535 15.9246 4.02571 15.8768C4.01767 15.8356 4.01125 15.7894 4.00643 15.7416C4.00161 15.6987 4 15.6509 4 15.603V5.39863C4 5.3508 4.00321 5.30297 4.00803 5.25679C4.01125 5.21391 4.01767 5.16772 4.02731 5.12154C4.03535 5.07701 4.04659 5.02918 4.06105 4.983C4.07069 4.94671 4.08515 4.90548 4.10122 4.86425C4.1205 4.81642 4.13817 4.77848 4.15584 4.7422C4.17834 4.69767 4.19922 4.65808 4.22493 4.62015C4.24582 4.58551 4.27152 4.54923 4.29884 4.51459C4.32454 4.4816 4.35185 4.44862 4.37917 4.41893C4.41291 4.38264 4.44343 4.35296 4.47557 4.32327C4.50288 4.29853 4.53822 4.27049 4.57518 4.2441C4.6057 4.22266 4.64105 4.19792 4.678 4.17648C4.71656 4.15339 4.75512 4.1336 4.79529 4.11545C4.83545 4.09731 4.87562 4.08082 4.91579 4.06762C4.95916 4.05278 5.00094 4.04123 5.04432 4.03134C5.0877 4.02144 5.13108 4.01484 5.17606 4.0099C5.21944 4.00495 5.26443 4.0033 5.31102 4.0033H6.18664C6.37783 4.0033 6.53207 4.16163 6.53207 4.3579C6.53207 4.55417 6.37783 4.71251 6.18664 4.71251H5.30941C5.28853 4.71251 5.26764 4.71416 5.24675 4.71581C5.22747 4.71746 5.20819 4.72076 5.18891 4.7257C5.16963 4.73065 5.14875 4.7356 5.12947 4.7422C5.1134 4.74715 5.09412 4.75539 5.07484 4.76364C5.05878 4.77024 5.0411 4.78013 5.02343 4.79003C5.00736 4.79992 4.98969 4.81147 4.97362 4.82301C4.95434 4.83621 4.93989 4.84775 4.92703 4.86095C4.90615 4.87909 4.89169 4.89394 4.87723 4.91043C4.86598 4.92362 4.85152 4.94012 4.83706 4.95826C4.82421 4.97475 4.81296 4.99125 4.80171 5.00939C4.78725 5.03083 4.77922 5.04897 4.76797 5.06876C4.75994 5.08691 4.74869 5.11 4.73905 5.13309C4.73423 5.14463 4.72781 5.16607 4.72138 5.18752C4.71335 5.21391 4.70853 5.2337 4.70532 5.25514C4.7005 5.27988 4.69728 5.30297 4.69568 5.32606C4.69246 5.35245 4.69086 5.37719 4.69086 5.40193V15.6063C4.69086 15.6311 4.69246 15.6541 4.69407 15.6772C4.69728 15.7036 4.7005 15.7267 4.70371 15.7482C4.70853 15.7729 4.71335 15.7927 4.71817 15.8108C4.7262 15.8405 4.73424 15.862 4.74227 15.8834C4.74869 15.8966 4.75833 15.9197 4.76958 15.9411C4.77761 15.9576 4.78725 15.9758 4.7985 15.9939C4.81135 16.0137 4.8226 16.0318 4.83545 16.0483C4.84991 16.0665 4.86277 16.083 4.87723 16.0995C4.89169 16.1143 4.90615 16.1292 4.92221 16.144C4.93989 16.1588 4.95434 16.172 4.9688 16.1819C4.98648 16.1951 5.00254 16.205 5.01861 16.2149C5.0395 16.2281 5.05717 16.2364 5.07484 16.2446C5.09252 16.2529 5.10858 16.2595 5.12465 16.2644C5.15196 16.2743 5.17124 16.2792 5.19052 16.2825C5.20337 16.2858 5.22426 16.2891 5.24515 16.2908C5.27085 16.2941 5.28853 16.2941 5.30781 16.2941H14.6922C14.7115 16.2941 14.7291 16.2941 14.7484 16.2908C14.7741 16.2875 14.795 16.2842 14.8143 16.2809C14.8288 16.2776 14.848 16.2726 14.8673 16.266C14.8898 16.2578 14.9059 16.2529 14.9219 16.2446C14.9444 16.2347 14.9605 16.2265 14.9766 16.2166C14.9958 16.205 15.0135 16.1935 15.0296 16.1819C15.0473 16.1687 15.0633 16.1555 15.0794 16.1424C15.0906 16.1325 15.1051 16.1176 15.1196 16.1028C15.1388 16.0813 15.1517 16.0648 15.1662 16.0483C15.1758 16.0351 15.187 16.0203 15.1967 16.0038C15.2144 15.9758 15.224 15.9593 15.232 15.9411C15.2417 15.923 15.2497 15.9032 15.2577 15.8834C15.2674 15.857 15.2754 15.8372 15.2802 15.8158C15.285 15.796 15.2915 15.7746 15.2947 15.7531C15.2995 15.7267 15.3027 15.702 15.3059 15.6789C15.3075 15.6558 15.3091 15.6311 15.3091 15.6063V5.39863C15.3091 5.37389 15.3091 5.3508 15.3059 5.32606C15.3043 5.30132 15.2995 5.27823 15.2963 5.25349C15.2915 5.22875 15.2867 5.20566 15.2802 5.18422C15.2754 5.16607 15.2674 5.14628 15.2593 5.12649C15.2497 5.1001 15.2401 5.08031 15.2304 5.06052C15.2224 5.04402 15.2127 5.02753 15.2015 5.00939C15.1838 4.98135 15.1742 4.96651 15.1629 4.95166C15.1517 4.93847 15.1388 4.92032 15.1228 4.90383C15.1067 4.88734 15.0922 4.87249 15.0778 4.8593C15.0633 4.84775 15.0473 4.83291 15.0312 4.82137C15.0135 4.80817 14.9942 4.79663 14.975 4.78508C14.9637 4.77848 14.946 4.76859 14.9268 4.76034C14.9075 4.75044 14.8882 4.74385 14.8673 4.73725C14.8545 4.7323 14.8336 4.72735 14.8127 4.72241C14.7918 4.71746 14.7725 4.71416 14.7532 4.71251C14.7324 4.71086 14.7115 4.70921 14.6906 4.70921H13.8134C13.6222 4.70921 13.4679 4.55088 13.4679 4.35461C13.4679 4.15834 13.6222 4 13.8134 4H14.6906C14.7356 4 14.779 4.00165 14.8239 4.0066C14.8705 4.01155 14.9155 4.01979 14.9589 4.02969C14.9991 4.03793 15.0408 4.04948 15.081 4.06267C15.1276 4.07917 15.1678 4.09566 15.2063 4.11215C15.2449 4.1303 15.2834 4.15009 15.3204 4.17153C15.3606 4.19627 15.3959 4.21936 15.4296 4.2441C15.4634 4.26884 15.4971 4.29523 15.5293 4.32492C15.563 4.35461 15.5951 4.38594 15.624 4.41728C15.6498 4.44532 15.6771 4.47831 15.7028 4.51129C15.7349 4.55252 15.7606 4.59046 15.7847 4.63169C15.8024 4.65808 15.8249 4.69767 15.8458 4.74055C15.8666 4.78178 15.8843 4.82301 15.9004 4.86425C15.9148 4.90053 15.9293 4.94342 15.9422 4.9863C15.955 5.03248 15.9663 5.07866 15.9743 5.12319C15.9823 5.16607 15.9888 5.21061 15.9936 5.25679C15.9984 5.30297 16 5.3508 16 5.39863V15.603C16 15.6509 15.9984 15.6987 15.9936 15.7449C15.9888 15.791 15.9823 15.8356 15.9743 15.8801C15.9663 15.9213 15.955 15.9675 15.9438 16.0104C15.9309 16.0582 15.9148 16.1011 15.8988 16.144C15.8859 16.1803 15.8666 16.2215 15.8474 16.2611C15.8265 16.3023 15.804 16.3436 15.7783 16.3815C15.7606 16.4095 15.7349 16.4475 15.7076 16.4838C15.6787 16.5217 15.6514 16.5547 15.6208 16.586C15.5967 16.6124 15.5662 16.6437 15.5341 16.6718C15.4987 16.7031 15.465 16.7312 15.4312 16.7559C15.3959 16.7823 15.3606 16.8054 15.322 16.8268C15.2867 16.8483 15.2465 16.8681 15.2063 16.8862C15.1694 16.9043 15.126 16.9208 15.0826 16.9357C15.0473 16.9472 15.0055 16.9588 14.9621 16.9687C14.9155 16.9786 14.8721 16.9868 14.8272 16.9901C14.787 16.9967 14.7404 17 14.6938 17Z" fill="black" fill-opacity="0.85" stroke="black" stroke-width="0.25"/>
<path d="M8.46546 4.05792H8.06767C8.01876 4.05963 7.90464 4.15162 7.87855 4.21124C7.85247 4.32879 7.79867 4.55707 7.73672 4.81601L7.70411 4.9523C7.69759 4.97615 7.70248 4.98637 7.71063 4.9983C7.72857 5.02215 7.75954 5.03578 7.77258 5.03578C7.96496 5.03066 10.8359 5.03407 11.8776 5.03578H12.2428C12.251 5.03407 12.2787 5.02044 12.2934 5C12.2966 4.99489 12.3032 4.98467 12.2966 4.94889L12.1206 4.19421C12.1206 4.19421 12.0668 4.05792 11.8418 4.05792H11.2891C11.0185 4.05792 10.7821 3.86201 10.712 3.58433C10.6778 3.44293 10.5718 3.03066 10.5294 2.86031C10.5164 2.83135 10.4153 2.73424 10.2897 2.73424H9.70121C9.58057 2.73424 9.48275 2.83475 9.46645 2.87223C9.43385 2.9983 9.35559 3.32709 9.31484 3.49744L9.29527 3.57751C9.2268 3.86712 8.99041 4.05622 8.6937 4.05622L8.46546 4.05792ZM7.77258 5.76661C7.54108 5.76661 7.30469 5.64566 7.15796 5.44804C7.0145 5.25554 6.96559 5.01533 7.02428 4.77342L7.05689 4.63714C7.11884 4.37819 7.17264 4.15503 7.20361 4.01874C7.27698 3.69676 7.67151 3.32368 8.06767 3.32368H8.63664V3.32027C8.67902 3.1431 8.75891 2.80409 8.79477 2.6644C8.88118 2.34412 9.25125 2 9.70121 2H10.293C10.7527 2.0017 11.1261 2.34923 11.206 2.66951C11.2435 2.81601 11.3282 3.1448 11.3723 3.32368H11.8353C12.4271 3.32368 12.7352 3.73935 12.8004 4.01874L12.9765 4.77513C13.0335 5.02044 12.9862 5.26235 12.8411 5.45315C12.6961 5.64566 12.4662 5.76491 12.2428 5.76491H11.8776C10.8424 5.7632 7.98289 5.7598 7.79052 5.76491L7.77258 5.76661ZM12.3684 12.4157H10.3468V11.276H12.3684C12.4662 11.276 12.5575 11.2368 12.626 11.1652C12.6912 11.0971 12.7254 11.0085 12.7254 10.9131C12.7254 10.8194 12.6912 10.7291 12.626 10.6627C12.5575 10.5911 12.4662 10.552 12.3684 10.552H10.3419L10.3321 10.4566L12.6178 8.06814C12.758 7.92334 12.7613 7.68995 12.626 7.54855C12.5624 7.48211 12.4776 7.44463 12.3847 7.44463C12.2885 7.44463 12.1972 7.48382 12.1271 7.55707L10.0012 9.78024L7.87366 7.55877C7.80519 7.48552 7.71389 7.44634 7.61771 7.44634C7.52641 7.44634 7.44 7.48211 7.37642 7.55026C7.31284 7.6167 7.27698 7.70698 7.27698 7.80239C7.27698 7.9029 7.31447 7.9983 7.38457 8.06985L9.65557 10.4208V10.552H7.63401C7.53619 10.552 7.4449 10.5911 7.37642 10.6627C7.31121 10.7308 7.27698 10.8194 7.27698 10.9131C7.27698 11.1124 7.43674 11.2743 7.63401 11.2743H9.65394V12.414H7.63238C7.53456 12.414 7.44326 12.4532 7.37479 12.5247C7.30958 12.5928 7.27535 12.6814 7.27535 12.7751C7.27535 12.9744 7.43511 13.1363 7.63238 13.1363H9.6523V14.6269C9.6523 14.833 9.80718 15 9.99793 15C10.1887 15 10.3435 14.833 10.3435 14.6269V13.1363H12.3651C12.4629 13.1363 12.5542 13.0971 12.6227 13.0256C12.6879 12.9574 12.7221 12.8688 12.7221 12.7751C12.7221 12.6814 12.6863 12.5928 12.6227 12.5247C12.5575 12.4549 12.4662 12.4157 12.3684 12.4157Z" fill="black" fill-opacity="0.85"/>
<path d="M7.77258 5.03578C7.75954 5.03578 7.72857 5.02215 7.71063 4.9983C7.70248 4.98637 7.69759 4.97615 7.70411 4.9523L7.73672 4.81601C7.79867 4.55707 7.85247 4.32879 7.87855 4.21124C7.90464 4.15162 8.01876 4.05963 8.06767 4.05792H8.46546L8.6937 4.05622C8.99041 4.05622 9.2268 3.86712 9.29527 3.57751L9.31484 3.49744C9.35559 3.32709 9.43385 2.9983 9.46645 2.87223C9.48275 2.83475 9.58057 2.73424 9.70121 2.73424H10.2897C10.4153 2.73424 10.5164 2.83135 10.5294 2.86031C10.5718 3.03066 10.6778 3.44293 10.712 3.58433C10.7821 3.86201 11.0185 4.05792 11.2891 4.05792H11.8418C12.0668 4.05792 12.1206 4.19421 12.1206 4.19421L12.2966 4.94889C12.3032 4.98467 12.2966 4.99489 12.2934 5C12.2787 5.02044 12.251 5.03407 12.2428 5.03578H11.8776C10.8359 5.03407 7.96496 5.03066 7.77258 5.03578ZM7.77258 5.03578V5.40204M7.77258 5.76661C7.54108 5.76661 7.30469 5.64566 7.15796 5.44804C7.0145 5.25554 6.96559 5.01533 7.02428 4.77342L7.05689 4.63714C7.11884 4.37819 7.17264 4.15503 7.20361 4.01874C7.27698 3.69676 7.67151 3.32368 8.06767 3.32368H8.63664V3.32027C8.67902 3.1431 8.75891 2.80409 8.79477 2.6644C8.88118 2.34412 9.25125 2 9.70121 2H10.293C10.7527 2.0017 11.1261 2.34923 11.206 2.66951C11.2435 2.81601 11.3282 3.1448 11.3723 3.32368H11.8353C12.4271 3.32368 12.7352 3.73935 12.8004 4.01874L12.9765 4.77513C13.0335 5.02044 12.9862 5.26235 12.8411 5.45315C12.6961 5.64566 12.4662 5.76491 12.2428 5.76491H11.8776C10.8424 5.7632 7.98289 5.7598 7.79052 5.76491L7.77258 5.76661ZM12.3684 12.4157H10.3468V11.276H12.3684C12.4662 11.276 12.5575 11.2368 12.626 11.1652C12.6912 11.0971 12.7254 11.0085 12.7254 10.9131C12.7254 10.8194 12.6912 10.7291 12.626 10.6627C12.5575 10.5911 12.4662 10.552 12.3684 10.552H10.3419L10.3321 10.4566L12.6178 8.06814C12.758 7.92334 12.7613 7.68995 12.626 7.54855C12.5624 7.48211 12.4776 7.44463 12.3847 7.44463C12.2885 7.44463 12.1972 7.48382 12.1271 7.55707L10.0012 9.78024L7.87366 7.55877C7.80519 7.48552 7.71389 7.44634 7.61771 7.44634C7.52641 7.44634 7.44 7.48211 7.37642 7.55026C7.31284 7.6167 7.27698 7.70698 7.27698 7.80239C7.27698 7.9029 7.31447 7.9983 7.38457 8.06985L9.65557 10.4208V10.552H7.63401C7.53619 10.552 7.4449 10.5911 7.37642 10.6627C7.31121 10.7308 7.27698 10.8194 7.27698 10.9131C7.27698 11.1124 7.43674 11.2743 7.63401 11.2743H9.65394V12.414H7.63238C7.53456 12.414 7.44326 12.4532 7.37479 12.5247C7.30958 12.5928 7.27535 12.6814 7.27535 12.7751C7.27535 12.9744 7.43511 13.1363 7.63238 13.1363H9.6523V14.6269C9.6523 14.833 9.80718 15 9.99793 15C10.1887 15 10.3435 14.833 10.3435 14.6269V13.1363H12.3651C12.4629 13.1363 12.5542 13.0971 12.6227 13.0256C12.6879 12.9574 12.7221 12.8688 12.7221 12.7751C12.7221 12.6814 12.6863 12.5928 12.6227 12.5247C12.5575 12.4549 12.4662 12.4157 12.3684 12.4157Z" stroke="black" stroke-width="0.25"/>
</svg>
