<svg width="20" height="20" viewBox="0 0 20 20" fill="none" xmlns="http://www.w3.org/2000/svg">
<path d="M16.7699 15.5138C16.6723 15.2702 16.3796 15.1477 16.136 15.2702L15.3063 15.6363C15.0627 15.7339 14.7942 15.8315 14.5257 15.9048L16.1111 11.6358C16.282 11.1237 16.0135 10.5624 15.5014 10.3915L14.3797 10.0012V7.4151C14.3797 6.87805 13.941 6.43935 13.404 6.43935H12.1839V5.46361C12.1839 4.65882 11.5251 4 10.7203 4H9.25667C8.45188 4 7.79306 4.65882 7.79306 5.46361V6.43935H6.57299C6.03594 6.43935 5.59725 6.87805 5.59725 7.4151V10.0738L4.6699 10.3907C4.42636 10.4883 4.23121 10.6592 4.13286 10.9028C4.0345 11.1463 4.01108 11.4149 4.10866 11.6592L5.71824 15.9766C5.40132 15.9033 5.0844 15.8307 4.7909 15.6839L3.86355 15.2694C3.62001 15.1477 3.3265 15.2694 3.22971 15.513C3.10794 15.7565 3.22971 16.05 3.47326 16.1468L4.37562 16.5613C4.93687 16.8049 5.49811 16.9516 6.10776 17H6.52225C7.0835 17 7.64475 16.9024 8.18101 16.7315C8.71806 16.5605 9.25433 16.463 9.7906 16.463H10.2051C10.6196 16.4872 11.0099 16.5605 11.4244 16.6823L11.5953 16.7315C12.0098 16.8532 12.4001 16.9266 12.8146 16.975H12.9614C13.0589 16.975 13.1565 16.975 13.2541 16.9992H13.4976C13.6194 16.9992 13.717 16.9992 13.8395 16.975H13.8637L14.0105 16.9508C14.5959 16.8774 15.1814 16.7315 15.7184 16.4872L16.5474 16.1211C16.7699 16.05 16.8917 15.7573 16.7699 15.5138ZM8.7688 5.46361C8.7688 5.19509 8.98815 4.97574 9.25667 4.97574H10.7203C10.9888 4.97574 11.2082 5.19509 11.2082 5.46361V6.43935H8.7688V5.46361ZM13.4282 16.05H13.1112C13.0628 16.05 12.9895 16.05 12.9403 16.0258C12.6718 16.0016 12.379 15.9524 12.1113 15.8798L11.9403 15.8307C11.4525 15.6847 10.9646 15.5871 10.4525 15.5379V9.6835L15.1845 11.3181L13.4282 16.05ZM6.57299 7.4151H13.4032V9.61012L11.0856 8.80533C10.7687 8.70776 10.4518 8.63438 10.1341 8.63438C9.81714 8.63438 9.50022 8.68356 9.18251 8.80533L6.57299 9.6835V7.4151ZM9.50022 9.78107V15.5379C8.84139 15.5621 8.18257 15.6847 7.54873 15.904C7.30519 15.9774 7.03666 16.0508 6.79234 16.0508L5.0118 11.3181L9.50022 9.78107Z" fill="black" fill-opacity="0.85"/>
</svg>
