<svg width="20" height="20" viewBox="0 0 20 20" fill="none" xmlns="http://www.w3.org/2000/svg">
<path d="M3.00058 7.96284C3.00058 7.58171 3.15005 7.21618 3.41611 6.94662C3.68217 6.67706 4.04306 6.52555 4.41941 6.52539H15.5806C15.957 6.52555 16.3179 6.67704 16.5841 6.94658C16.8503 7.21612 16.9998 7.58165 17 7.96284V15.5626C17 15.9438 16.8505 16.3094 16.5843 16.579C16.3181 16.8486 15.957 17 15.5806 17H4.41941C4.04296 17 3.68192 16.8486 3.41573 16.579C3.14954 16.3094 3 15.9438 3 15.5626L3.00058 7.96284ZM4.41999 7.7569C4.36615 7.75706 4.31458 7.77882 4.27657 7.81743C4.23856 7.85603 4.21721 7.90832 4.21721 7.96284V15.5626C4.21721 15.6755 4.30785 15.7679 4.42057 15.7679H15.58C15.6067 15.7679 15.6331 15.7626 15.6577 15.7522C15.6824 15.7419 15.7048 15.7267 15.7236 15.7075C15.7424 15.6884 15.7574 15.6657 15.7675 15.6407C15.7777 15.6157 15.7829 15.589 15.7828 15.562V7.96343C15.7829 7.93636 15.7777 7.90955 15.7675 7.88453C15.7573 7.85951 15.7423 7.83677 15.7234 7.81764C15.7045 7.7985 15.682 7.78333 15.6573 7.77301C15.6326 7.76269 15.6062 7.75741 15.5794 7.75749L4.41999 7.7569Z" fill="black" fill-opacity="0.85"/>
<path d="M5.37923 4.25772C5.49311 4.09591 5.67787 4 5.87425 4H14.2268C14.4244 4 14.6097 4.09709 14.7236 4.26007L16.487 6.78546C16.5514 6.87768 16.5896 6.98609 16.5973 7.09882C16.6051 7.21154 16.582 7.32425 16.5307 7.4246C16.4795 7.52496 16.4019 7.60909 16.3066 7.6678C16.2112 7.72652 16.1018 7.75754 15.9902 7.75749H4.0923C3.98048 7.75753 3.87082 7.72635 3.77536 7.66739C3.6799 7.60843 3.60233 7.52397 3.55118 7.42328C3.50002 7.32259 3.47726 7.20957 3.4854 7.09663C3.49353 6.9837 3.53224 6.87522 3.59728 6.78311L5.37923 4.25772ZM6.18684 5.2321L5.27465 6.52539H14.8148L13.9119 5.2321H6.18684ZM6.43376 9.50326C6.77017 9.50326 7.04208 9.77922 7.04208 10.1193V13.4802C7.04208 13.6436 6.97799 13.8003 6.86391 13.9158C6.74983 14.0314 6.5951 14.0963 6.43376 14.0963C6.27243 14.0963 6.1177 14.0314 6.00362 13.9158C5.88954 13.8003 5.82545 13.6436 5.82545 13.4802V10.1193C5.82545 9.77922 6.09794 9.50326 6.43376 9.50326ZM10.0459 9.50326C10.3823 9.50326 10.6548 9.77922 10.6548 10.1193V13.4802C10.6548 13.6437 10.5907 13.8005 10.4765 13.916C10.3624 14.0316 10.2076 14.0966 10.0462 14.0966C9.88478 14.0966 9.72998 14.0316 9.61584 13.916C9.5017 13.8005 9.43758 13.6437 9.43758 13.4802V10.1193C9.43758 9.77922 9.71066 9.50326 10.0459 9.50326ZM13.6586 9.50326C13.9944 9.50326 14.2669 9.77922 14.2669 10.1193V13.4802C14.2669 13.6437 14.2028 13.8005 14.0887 13.916C13.9745 14.0316 13.8197 14.0966 13.6583 14.0966C13.4969 14.0966 13.3421 14.0316 13.228 13.916C13.1138 13.8005 13.0497 13.6437 13.0497 13.4802V10.1193C13.0497 9.77922 13.3228 9.50326 13.6586 9.50326Z" fill="black" fill-opacity="0.85"/>
</svg>
