<?xml version="1.0" encoding="UTF-8"?>
<svg width="18px" height="19px" viewBox="0 0 18 19" version="1.1" xmlns="http://www.w3.org/2000/svg" xmlns:xlink="http://www.w3.org/1999/xlink">
    <title>caogao-tianchong备份</title>
    <g id="客户端-舱单功能" stroke="none" stroke-width="1" fill="none" fill-rule="evenodd">
        <g id="画板" transform="translate(-41.000000, -13.000000)" fill-rule="nonzero">
            <g id="caogao-tianchong备份" transform="translate(41.000000, 13.000000)">
                <path d="M15.9531272,17.7428108 C16.6575251,17.7428108 17.2285525,17.1717835 17.2285525,16.4673856 L17.2285525,10.6714007 C15.2085364,13.1382193 12.1883656,14.5686477 9.00000252,14.5686477 C5.81163943,14.5686477 2.79146867,13.1382193 0.771452582,10.6714007 L0.771452582,16.4750998 C0.775694898,17.1764833 1.34548156,17.7428108 2.04687782,17.7428108 L15.9531272,17.7428108 Z" id="路径" fill="#8DCE6C"></path>
                <path d="M15.9531272,18.5142374 L2.04687782,18.5142374 C0.91902196,18.5128302 0.0042705297,17.6003772 1.29509718e-05,16.4725284 L1.29509718e-05,7.59469445 C-0.00274786808,6.81860834 0.436086757,6.10849413 1.13145164,5.76384209 L1.19188006,5.73298503 L8.13471907,3.66170472 C8.68175663,3.41408452 9.30967937,3.41784173 9.85371458,3.67199041 L16.8274107,5.7291279 L16.8942676,5.76384209 C17.575475,6.11556026 18.0024345,6.81905037 17.9999896,7.58569448 L17.9999896,16.478957 C17.9922139,17.6042931 17.0784893,18.5128522 15.9531272,18.5142374 Z M1.77559282,7.16912414 C1.63037317,7.26187296 1.54260146,7.42238365 1.54287848,7.59469445 L1.54287848,16.4725284 C1.54639063,16.7485755 1.77080922,16.9707041 2.04687782,16.9713843 L15.9531272,16.9713843 C16.2311848,16.9706776 16.4564193,16.7454431 16.4571265,16.4673856 L16.4571265,7.58569448 C16.4573904,7.41867333 16.3744754,7.26248458 16.2359836,7.16912414 L9.29314461,5.11841521 L9.22628765,5.08370101 C9.08206548,5.01040862 8.91151101,5.01040862 8.76728884,5.08370101 L8.70686043,5.11455807 L8.64257488,5.13384374 L1.77559282,7.16912414 Z" id="形状" fill="#3C4144"></path>
                <path d="M3.83530172,9.082262 L3.83530172,1.69970985 C3.83813101,1.18620237 4.25521258,0.771426557 4.76872786,0.771426557 L13.5334193,0.771426557 C14.0279745,0.771426557 14.4298844,1.17045301 14.4334169,1.66499565 L14.4334169,9.082262" id="路径" fill="#FFFFFF"></path>
                <path d="M15.1984149,9.082262 L13.6555618,9.082262 L13.6555618,1.65985281 C13.6521333,1.59136725 13.595562,1.53762451 13.5269907,1.53771027 L4.76872786,1.53771027 C4.67925796,1.53771027 4.60672828,1.61023995 4.60672828,1.69970985 L4.60672828,9.082262 L3.06387517,9.082262 L3.06387517,1.69970985 C3.06811648,0.760741909 3.82975139,0.0014045438 4.76872786,0 L13.5334193,0 C14.4540167,0 15.2013027,0.744405052 15.2048435,1.66499565 L15.1984149,9.082262 Z" id="路径" fill="#3C4144"></path>
                <path d="M8.7505746,12.1962542 C8.47844912,12.1964193 8.20999133,12.1334857 7.96629094,12.0123972 L0.429453475,8.28383551 L1.11345169,6.90169626 L8.65028915,10.630258 C8.7123872,10.6604403 8.78490487,10.6604403 8.84700292,10.630258 L16.9032676,6.89269629 L17.5538373,8.29283549 L9.49628694,12.0303972 C9.26282875,12.1395292 9.00828087,12.1961442 8.7505746,12.1962542 L8.7505746,12.1962542 Z" id="路径" fill="#3C4144"></path>
                <path d="M6.22672405,2.71413577 L11.9134235,2.71413577 C12.4277079,2.71413577 12.68485,2.97127796 12.68485,3.48556233 L12.68485,3.48556233 C12.68485,3.9998467 12.4277079,4.25698888 11.9134235,4.25698888 L6.22672405,4.25698888 C5.71243968,4.25698888 5.45529749,3.9998467 5.45529749,3.48556233 L5.45529749,3.48556233 C5.45529749,2.97127796 5.71243968,2.71413577 6.22672405,2.71413577 L6.22672405,2.71413577 Z" id="路径" fill="#3C4144"></path>
                <path d="M6.22672405,5.37555739 L9.15685926,5.37555739 C9.67114363,5.37555739 9.92828581,5.63269958 9.92828581,6.14698395 L9.92828581,6.14698395 C9.92828581,6.66126832 9.67114363,6.91841051 9.15685926,6.91841051 L6.22672405,6.91841051 C5.71243968,6.91841051 5.45529749,6.66126832 5.45529749,6.14698395 L5.45529749,6.14698395 C5.45529749,5.63269958 5.71243968,5.37555739 6.22672405,5.37555739 L6.22672405,5.37555739 Z" id="路径" fill="#3C4144"></path>
            </g>
        </g>
    </g>
</svg>