<?xml version="1.0" encoding="UTF-8"?>
<svg width="18px" height="20px" viewBox="0 0 18 20" version="1.1" xmlns="http://www.w3.org/2000/svg" xmlns:xlink="http://www.w3.org/1999/xlink">
    <title>baojiadan-2</title>
    <g id="及时通-承运人端运价" stroke="none" stroke-width="1" fill="none" fill-rule="evenodd">
        <g id="及时通-批量修改" transform="translate(-16.000000, -236.000000)" fill-rule="nonzero">
            <g id="编组-2备份-3" transform="translate(3.000000, 222.000000)">
                <g id="baojiadan-2" transform="translate(13.000000, 14.000000)">
                    <path d="M18,13.3425 C18,16.32375 15.58125,18.7425 12.6,18.7425 C9.61875,18.7425 7.2,16.32375 7.2,13.3425 C7.2,10.36125 9.61875,7.9425 12.6,7.9425 C15.58125,7.9425 18,10.36125 18,13.3425" id="路径" fill="#D3D3D5" opacity="0.25"></path>
                    <path d="M16.515,0 L1.44,0 C0.648,0 0,0.648 0,1.44 L0,18 C0,18.792 0.648,19.44 1.44,19.44 L13.545,19.44 C15.9705,19.44 17.955,17.4555 17.955,15.03 L17.955,1.44 C17.955,0.648 17.307,0 16.515,0 Z M16.155,15.03 C16.155,15.723 15.88275,16.3755 15.38775,16.87275 C14.89275,17.37 14.238,17.64 13.545,17.64 L2.52,17.64 C2.12175,17.64 1.8,17.31825 1.8,16.92 L1.8,2.52 C1.8,2.12175 2.12175,1.8 2.52,1.8 L15.435,1.8 C15.83325,1.8 16.155,2.12175 16.155,2.52 L16.155,15.03 Z M6.705,11.6775 L4.455,11.6775 C3.96,11.6775 3.555,12.0825 3.555,12.5775 C3.555,13.0725 3.96,13.4775 4.455,13.4775 L6.705,13.4775 C7.2,13.4775 7.605,13.0725 7.605,12.5775 C7.605,12.0825 7.2,11.6775 6.705,11.6775 Z M11.655,7.92 L4.455,7.92 C3.96,7.92 3.555,8.325 3.555,8.82 C3.555,9.315 3.96,9.72 4.455,9.72 L11.655,9.72 C12.15,9.72 12.555,9.315 12.555,8.82 C12.555,8.325 12.15,7.92 11.655,7.92 Z M9.18,4.14 L4.455,4.14 C3.96,4.14 3.555,4.545 3.555,5.04 C3.555,5.535 3.96,5.94 4.455,5.94 L9.18,5.94 C9.675,5.94 10.08,5.535 10.08,5.04 C10.08,4.545 9.675,4.14 9.18,4.14 Z M15.0975,10.611 L13.887,12.744 L14.78475,12.744 C14.84325,12.744 14.8905,12.79125 14.8905,12.84975 L14.8905,13.59675 C14.8905,13.65525 14.84325,13.7025 14.78475,13.7025 L13.38525,13.7025 L13.38525,14.2515 L14.7825,14.2515 C14.841,14.2515 14.88825,14.29875 14.88825,14.35725 L14.88825,15.10425 C14.88825,15.16275 14.841,15.21 14.7825,15.21 L13.38525,15.21 L13.38525,16.65 C13.38525,16.7085 13.338,16.75575 13.2795,16.75575 L12.1185,16.75575 C12.06,16.75575 12.01275,16.7085 12.01275,16.65 L12.01275,15.2145 L10.6605,15.2145 C10.602,15.2145 10.55475,15.16725 10.55475,15.10875 L10.55475,14.36175 C10.55475,14.30325 10.602,14.256 10.6605,14.256 L12.01275,14.256 L12.01275,13.707 L10.6605,13.707 C10.602,13.707 10.55475,13.65975 10.55475,13.60125 L10.55475,12.85425 C10.55475,12.7935 10.602,12.74625 10.6605,12.74625 L11.48175,12.74625 L10.269,10.611 C10.23075,10.54125 10.278,10.4535 10.36125,10.4535 L11.7225,10.4535 L12.7215,12.375 L13.71375,10.4535 L15.00525,10.4535 C15.08625,10.4535 15.138,10.539 15.0975,10.611 L15.0975,10.611 Z" id="形状" fill="#FFFFFF" opacity="0.65"></path>
                </g>
            </g>
        </g>
    </g>
</svg>