<?xml version="1.0" encoding="UTF-8"?>
<svg width="18px" height="18px" viewBox="0 0 18 18" version="1.1" xmlns="http://www.w3.org/2000/svg" xmlns:xlink="http://www.w3.org/1999/xlink">
    <title>shuju</title>
    <g id="及时通-承运人端运价" stroke="none" stroke-width="1" fill="none" fill-rule="evenodd" opacity="0.65">
        <g id="及时通-批量修改" transform="translate(-16.000000, -286.000000)" fill="#FFFFFF" fill-rule="nonzero">
            <g id="编组-2备份-11" transform="translate(3.000000, 271.000000)">
                <g id="shuju" transform="translate(13.000000, 15.000000)">
                    <path d="M9,18 C4.02952501,18 2.99760216e-16,13.970475 2.99760216e-16,9 C2.99760216e-16,4.02952501 4.02952501,2.99760216e-16 9,2.99760216e-16 C13.970475,2.99760216e-16 18,4.02952499 18,9 C18,13.970475 13.970475,18 9,18 Z M9,16.65 C13.22505,16.65 16.65,13.22505 16.65,9 C16.65,4.77495 13.22505,1.35 9,1.35 C4.77495,1.35 1.35,4.77495 1.35,9 C1.35,13.22505 4.77495,16.65 9,16.65 Z M9.17324999,11.045925 L7.4556,9.174825 L5.435775,11.268675 C5.17693294,11.5369611 4.74961113,11.544617 4.48132501,11.285775 C4.21303889,11.0269329 4.20538296,10.5996111 4.46422501,10.331325 L6.98197501,7.72132499 C7.11120639,7.58729833 7.29005762,7.51260137 7.47622584,7.51490185 C7.66239406,7.51720232 7.8393449,7.59629592 7.965225,7.73347499 L9.690525,9.61312501 L12.5721,6.72345001 C12.7413306,6.54775622 12.9921901,6.47704116 13.228267,6.53848242 C13.4643438,6.59992367 13.6489018,6.78396031 13.7110107,7.0198624 C13.7731195,7.25576448 13.7031144,7.50682308 13.5279,7.67655001 L10.1484,11.06595 C10.0183237,11.196412 9.84057499,11.2680386 9.65638608,11.2642146 C9.47219717,11.2603906 9.29757446,11.1814483 9.17302501,11.0457 L9.17324999,11.045925 Z" id="形状"></path>
                </g>
            </g>
        </g>
    </g>
</svg>