<?xml version="1.0" encoding="UTF-8"?>
<svg width="18px" height="20px" viewBox="0 0 18 20" version="1.1" xmlns="http://www.w3.org/2000/svg" xmlns:xlink="http://www.w3.org/1999/xlink">
    <title>形状 2</title>
    <defs>
        <linearGradient x1="7.34712577%" y1="0%" x2="92.6528742%" y2="100%" id="linearGradient-1">
            <stop stop-color="#FAD961" offset="0%"></stop>
            <stop stop-color="#F76B1C" offset="100%"></stop>
        </linearGradient>
    </defs>
    <g id="及时通-承运人端运价" stroke="none" stroke-width="1" fill="none" fill-rule="evenodd">
        <g id="及时通-供应商询价沟通-无浮窗页" transform="translate(-16.000000, -236.000000)" fill="url(#linearGradient-1)" fill-rule="nonzero">
            <g id="编组-2备份-3" transform="translate(3.000000, 222.000000)">
                <g id="形状-2" transform="translate(13.000000, 14.000000)">
                    <path d="M16.556391,0 L1.44360902,0 C0.64962406,0 0,0.64962406 0,1.44360902 L0,18.0451128 C0,18.8390977 0.64962406,19.4887218 1.44360902,19.4887218 L13.5789474,19.4887218 C16.0105263,19.4887218 18,17.4992481 18,15.0676692 L18,1.44360902 C18,0.64962406 17.3503759,0 16.556391,0 Z M4.46616541,4.15037594 L9.20300752,4.15037594 C9.69924812,4.15037594 10.1052632,4.55639098 10.1052632,5.05263158 C10.1052632,5.54887218 9.69924812,5.95488722 9.20300752,5.95488722 L4.46616541,5.95488722 C3.96992481,5.95488722 3.56390977,5.54887218 3.56390977,5.05263158 C3.56390977,4.55639098 3.96992481,4.15037594 4.46616541,4.15037594 Z M4.46616541,7.93984962 L11.6842105,7.93984962 C12.1804511,7.93984962 12.5864662,8.34586466 12.5864662,8.84210526 C12.5864662,9.33834586 12.1804511,9.7443609 11.6842105,9.7443609 L4.46616541,9.7443609 C3.96992481,9.7443609 3.56390977,9.33834586 3.56390977,8.84210526 C3.56390977,8.34586466 3.96992481,7.93984962 4.46616541,7.93984962 Z M6.72180451,13.5112782 L4.46616541,13.5112782 C3.96992481,13.5112782 3.56390977,13.1052632 3.56390977,12.6090226 C3.56390977,12.112782 3.96992481,11.7067669 4.46616541,11.7067669 L6.72180451,11.7067669 C7.21804511,11.7067669 7.62406015,12.112782 7.62406015,12.6090226 C7.62406015,13.1052632 7.21804511,13.5112782 6.72180451,13.5112782 Z M15.3383459,11.3142857 L14.124812,13.4526316 L15.024812,13.4526316 C15.0834586,13.4526316 15.1308271,13.5 15.1308271,13.5586466 L15.1308271,14.3075188 C15.1308271,14.3661654 15.0834586,14.4135338 15.024812,14.4135338 L13.6218045,14.4135338 L13.6218045,14.9639098 L15.0225564,14.9639098 C15.081203,14.9639098 15.1285714,15.0112782 15.1285714,15.0699248 L15.1285714,15.818797 C15.1285714,15.8774436 15.081203,15.924812 15.0225564,15.924812 L13.6218045,15.924812 L13.6218045,17.3684211 C13.6218045,17.4270677 13.5744361,17.4744361 13.5157895,17.4744361 L12.3518797,17.4744361 C12.2932331,17.4744361 12.2458647,17.4270677 12.2458647,17.3684211 L12.2458647,15.9293233 L10.8902256,15.9293233 C10.8315789,15.9293233 10.7842105,15.8819549 10.7842105,15.8233083 L10.7842105,15.0744361 C10.7842105,15.0157895 10.8315789,14.9684211 10.8902256,14.9684211 L12.2458647,14.9684211 L12.2458647,14.4180451 L10.8902256,14.4180451 C10.8315789,14.4180451 10.7842105,14.3706767 10.7842105,14.3120301 L10.7842105,13.5631579 C10.7842105,13.5022556 10.8315789,13.4548872 10.8902256,13.4548872 L11.7135338,13.4548872 L10.4977444,11.3142857 C10.4593985,11.2443609 10.5067669,11.156391 10.5902256,11.156391 L11.9548872,11.156391 L12.956391,13.0827068 L13.9511278,11.156391 L15.2458647,11.156391 C15.3270677,11.156391 15.3789474,11.2421053 15.3383459,11.3142857 L15.3383459,11.3142857 Z" id="形状"></path>
                </g>
            </g>
        </g>
    </g>
</svg>