<?xml version="1.0" encoding="UTF-8"?>
<svg width="18px" height="18px" viewBox="0 0 18 18" version="1.1" xmlns="http://www.w3.org/2000/svg" xmlns:xlink="http://www.w3.org/1999/xlink">
    <title>shuju-2</title>
    <defs>
        <linearGradient x1="0%" y1="0%" x2="100%" y2="100%" id="linearGradient-1">
            <stop stop-color="#FAD961" offset="0%"></stop>
            <stop stop-color="#F76B1C" offset="100%"></stop>
        </linearGradient>
    </defs>
    <g id="及时通-承运人端运价" stroke="none" stroke-width="1" fill="none" fill-rule="evenodd">
        <g id="编组-3" transform="translate(-72.000000, -245.000000)" fill="url(#linearGradient-1)" fill-rule="nonzero">
            <g id="shuju-2" transform="translate(72.000000, 245.000000)">
                <path d="M9,2.99760216e-16 C13.970475,2.99760216e-16 18,4.02952499 18,9 C18,13.970475 13.970475,18 9,18 C4.02952501,18 2.99760216e-16,13.970475 2.99760216e-16,9 C2.99760216e-16,4.02952501 4.02952501,2.99760216e-16 9,2.99760216e-16 Z M13.52655,6.72210001 C13.26259,6.45896465 12.8353145,6.459569 12.5721,6.72345001 L9.690525,9.61312501 L7.965225,7.73347499 C7.8393449,7.59629592 7.66239406,7.51720232 7.47622584,7.51490185 C7.29005762,7.51260137 7.11120639,7.58729833 6.98197501,7.72132499 L4.46422501,10.331325 C4.20538296,10.5996111 4.21303889,11.0269329 4.48132501,11.285775 C4.74961113,11.544617 5.17693294,11.5369611 5.435775,11.268675 L7.4556,9.174825 L9.17302501,11.045925 C9.29757446,11.1816733 9.47219717,11.2606156 9.65638608,11.2644396 C9.84057499,11.2682636 10.0183237,11.196637 10.1484,11.066175 L13.5279,7.67655001 C13.7910354,7.41259005 13.790431,6.98531454 13.52655,6.72210001 L13.52655,6.72210001 Z" id="形状"></path>
            </g>
        </g>
    </g>
</svg>