<?xml version="1.0" encoding="UTF-8"?>
<svg width="18px" height="18px" viewBox="0 0 18 18" version="1.1" xmlns="http://www.w3.org/2000/svg" xmlns:xlink="http://www.w3.org/1999/xlink">
    <title>dengdai1备份</title>
    <g id="客户端-舱单功能" stroke="none" stroke-width="1" fill="none" fill-rule="evenodd">
        <g id="画板" transform="translate(-100.000000, -13.000000)">
            <g id="dengdai1备份" transform="translate(100.000000, 13.000000)">
                <path d="M9,5 C5.68615385,5 3,7.68615385 3,11 C3,14.3138462 5.68615385,17 9,17 C12.3138462,17 15,14.3138462 15,11 C15,7.68615385 12.3138462,5 9,5 Z" id="路径" fill="#8DCE6C"></path>
                <path d="M9,0 C13.9708125,0 18,4.0291875 18,9 C18,13.9708125 13.9708125,18 9,18 C4.0291875,18 0,13.9708125 0,9 C0,4.0291875 4.0291875,0 9,0 Z M9,1.6875 C4.96125,1.6875 1.6875,4.96125 1.6875,9 C1.6875,13.03875 4.96125,16.3125 9,16.3125 C13.03875,16.3125 16.3125,13.03875 16.3125,9 C16.3125,4.96125 13.03875,1.6875 9,1.6875 Z M9,3.9375 C9.43459983,3.9375 9.79809092,4.26765745 9.8398125,4.70025 L9.84375,4.78125 L9.84375,8.6506875 L12.1275,10.9344375 C12.4338035,11.2402099 12.4590757,11.7281575 12.186,12.0639375 L12.1280625,12.1280625 C11.8221415,12.4341964 11.3342016,12.4592252 10.9985625,12.186 L10.9344375,12.1280625 L8.15625,9.3493125 L8.15625,4.78125 C8.15625,4.55747359 8.24514483,4.34286247 8.40337865,4.18462865 C8.56161247,4.02639483 8.77622359,3.9375 9,3.9375 Z" id="形状" fill="#3C4144" fill-rule="nonzero"></path>
            </g>
        </g>
    </g>
</svg>