<?xml version="1.0" encoding="UTF-8"?>
<svg width="18px" height="15px" viewBox="0 0 18 15" version="1.1" xmlns="http://www.w3.org/2000/svg" xmlns:xlink="http://www.w3.org/1999/xlink">
    <title>gongzuotai-08备份</title>
    <g id="及时通抢舱任务" stroke="none" stroke-width="1" fill="none" fill-rule="evenodd">
        <g id="gongzuotai-08备份" fill-rule="nonzero">
            <path d="M9.96428571,11.925 L1.60714287,11.925 C0.900000006,11.925 0.321428577,11.3464286 0.321428577,10.6392857 L0.321428577,4.69285715 C0.321428577,3.98571429 0.900000006,3.40714286 1.60714287,3.40714286 L9.96428571,3.40714286 C10.6714286,3.40714286 11.25,3.98571429 11.25,4.69285715 L11.25,10.6071428 C11.25,11.3464286 10.6714286,11.925 9.96428571,11.925 Z" id="路径" fill="#FFDB8F"></path>
            <path d="M16.2321429,12.3428571 L1.76785715,12.3428571 C0.803571434,12.3428571 0,11.5392857 0,10.575 L0,1.76785715 C0,0.803571434 0.803571434,0 1.76785715,0 L16.2321429,0 C17.1964286,0 18,0.803571434 18,1.76785715 L18,10.5428571 C18,11.5392857 17.1964286,12.3428571 16.2321429,12.3428571 L16.2321429,12.3428571 Z M1.76785715,0.964285714 C1.31785715,0.964285714 0.964285714,1.31785715 0.964285714,1.76785715 L0.964285714,10.5428571 C0.964285714,10.9928571 1.31785714,11.3464286 1.76785715,11.3464286 L16.2321429,11.3464286 C16.6821428,11.3464286 17.0357143,10.9928572 17.0357143,10.5428571 L17.0357143,1.76785715 C17.0357143,1.31785715 16.6821429,0.964285714 16.2321429,0.964285714 L1.76785715,0.964285714 Z" id="形状" fill="#333333"></path>
            <path d="M9,14.9142857 C8.74285715,14.9142857 8.51785714,14.6892857 8.51785714,14.4321429 L8.51785714,11.8607143 C8.51785714,11.6035714 8.74285715,11.3785714 9,11.3785714 C9.25714285,11.3785714 9.48214286,11.6035714 9.48214286,11.8607143 L9.48214286,14.4321429 C9.48214286,14.6892857 9.25714285,14.9142857 9,14.9142857 Z" id="路径" fill="#333333"></path>
            <path d="M12.1821429,14.9142857 L5.81785715,14.9142857 C5.56071429,14.9142857 5.33571429,14.6892857 5.33571429,14.4321429 C5.33571429,14.175 5.56071429,13.95 5.81785715,13.95 L12.1821429,13.95 C12.4392857,13.95 12.6642857,14.175 12.6642857,14.4321429 C12.6642857,14.6892857 12.4392857,14.9142857 12.1821429,14.9142857 Z M13.9821428,10.0285714 L4.01785715,10.0285714 C3.7607143,10.0285714 3.5357143,9.80357142 3.5357143,9.54642856 C3.5357143,9.28928571 3.7607143,9.06428571 4.01785715,9.06428571 L14.0142857,9.06428571 C14.2714286,9.06428571 14.4964286,9.28928571 14.4964286,9.54642856 C14.4964286,9.80357142 14.2714286,10.0285714 13.9821428,10.0285714 Z" id="形状" fill="#333333"></path>
        </g>
    </g>
</svg>