<?xml version="1.0" encoding="UTF-8"?>
<svg width="18px" height="19px" viewBox="0 0 18 19" version="1.1" xmlns="http://www.w3.org/2000/svg" xmlns:xlink="http://www.w3.org/1999/xlink">
    <title>chajiage</title>
    <g id="及时通-客户端运价" stroke="none" stroke-width="1" fill="none" fill-rule="evenodd">
        <g id="及时通-询价沟通-无浮窗页" transform="translate(-16.000000, -188.000000)" fill-rule="nonzero">
            <g id="编组-2备份-3" transform="translate(3.000000, 173.000000)">
                <g id="编组" transform="translate(13.000000, 14.000000)">
                    <g id="chajiage" transform="translate(0.000000, 1.000000)">
                        <path d="M17.5377262,15.9458168 L16.3218433,14.5772328 C16.2588541,14.5066085 16.1882298,14.4493456 16.1176056,14.3901739 C17.2609554,12.8841589 17.9404754,11.0078436 17.9404754,8.9711921 C17.9404754,4.01604004 13.9244354,0 8.96928334,0 C4.01413127,0 0,4.01604004 0,8.96928334 C0,13.9244354 4.01604004,17.9404754 8.9711921,17.9404754 C10.5860067,17.9404754 12.0996567,17.5110035 13.409069,16.7646766 C13.4625144,16.8486623 13.5159598,16.9307391 13.5846754,17.0070897 L14.8005582,18.3756737 C15.4724432,19.1315443 16.6291544,19.2002599 17.385025,18.5283748 C18.1408957,17.8583986 18.2096112,16.7016874 17.5377262,15.9458168 Z M8.9711921,16.6234281 C4.75091428,16.6234281 1.31704735,13.1895612 1.31704735,8.96928334 C1.31704735,4.74900552 4.75091428,1.31704735 8.9711921,1.31704735 C13.1914699,1.31704735 16.6234281,4.75091428 16.6234281,8.96928334 C16.6234281,13.1876524 13.1895612,16.6234281 8.9711921,16.6234281 Z M15.247209,15.377005 C15.2777493,15.3980014 15.3063807,15.4209066 15.3350122,15.4533556 L16.550895,16.8219396 C16.7398627,17.0319036 16.7207751,17.3563936 16.5089022,17.5434525 C16.3886501,17.6503433 16.2569453,17.6732484 16.1691422,17.6732484 C16.0832478,17.6732484 15.9171853,17.6503433 15.7854806,17.5014597 L14.5695977,16.1328757 C14.5409663,16.1004267 14.5256961,16.0622514 14.5066085,16.0259849 C14.7662004,15.8217471 15.012431,15.6060567 15.247209,15.377005 Z M9.01651261,5.32809123 C9.3138712,5.32809123 9.55492798,5.569148 9.55492798,5.8665066 L9.55492798,5.8665066 L9.55492798,6.23205283 C9.58824131,6.23475391 9.61975391,6.23385354 9.65216687,6.23745499 C9.80882954,6.25726292 9.88806124,6.27707085 10.024916,6.31128453 C10.1485172,6.3399762 10.2700417,6.376975 10.3886615,6.42202883 C10.4623751,6.4476005 10.5325596,6.48239021 10.597545,6.52557023 C10.6237297,6.54573001 10.6470525,6.56935567 10.6668727,6.59579832 C10.6807282,6.62033047 10.6910349,6.64670345 10.697485,6.67412965 C10.70713,6.71402199 10.7131568,6.75470304 10.7154922,6.79567827 C10.7233837,6.92464152 10.7224812,7.05399255 10.7127911,7.18283314 C10.7097481,7.22957252 10.7012881,7.27580046 10.687581,7.32058824 C10.6791927,7.35172111 10.6612418,7.37943478 10.6362605,7.39981994 C10.6100401,7.41832603 10.5782425,7.42722935 10.5462245,7.42503001 C10.5084094,7.42503001 10.4489856,7.40612245 10.3679532,7.36830732 C10.1392326,7.2577472 9.89883483,7.17318518 9.65126651,7.1162065 C9.49460384,7.08019208 9.32353541,7.06038415 9.13445978,7.06038415 C8.98770107,7.06038415 8.86075029,7.07478992 8.75090636,7.10450181 C8.65326723,7.12825706 8.56060208,7.16910288 8.47719689,7.22515006 C8.33913328,7.31731379 8.25738881,7.47334058 8.26021008,7.63931573 C8.25869185,7.75440438 8.30157876,7.86565239 8.37995799,7.94993998 C8.47272751,8.04679629 8.58222828,8.12610046 8.70318727,8.18403361 C8.85097682,8.25790286 9.00346713,8.32196683 9.15966987,8.37581032 C9.33451304,8.43698879 9.50859588,8.50031893 9.68187876,8.56578632 C9.85969165,8.63249154 10.0339876,8.70822011 10.2040876,8.79267708 C10.3683859,8.87402359 10.52126,8.97664599 10.6587695,9.09789917 C10.7912162,9.21593674 10.9005226,9.35760759 10.9810984,9.51566627 C11.0630312,9.67593038 11.1035474,9.86500601 11.1035474,10.0810924 C11.1035474,10.3656062 11.0387215,10.615006 10.90997,10.8283914 C10.7803181,11.0426771 10.6038475,11.2218488 10.3823589,11.365006 C10.1608703,11.5090636 9.969994,11.6162065 9.67287515,11.6891357 C9.63506002,11.6981393 9.59364345,11.7008403 9.55582832,11.7098439 L9.55582832,11.7098439 L9.56483193,11.992557 C9.56971237,12.1335145 9.51717016,12.2704163 9.41923649,12.3719143 C9.32130283,12.4734122 9.18636602,12.5308128 9.04532412,12.5309726 C8.74427729,12.5311966 8.496916,12.2933798 8.48530013,11.992557 L8.48530013,11.992557 L8.47809723,11.7962785 L8.447485,11.7971789 C8.21879351,11.7971789 8.21339135,11.7818727 8.01711285,11.7521609 C7.82173469,11.7215486 7.64796517,11.6855342 7.49760503,11.6423169 C7.3472449,11.6 7.2229952,11.554982 7.12215485,11.5081633 C7.02131453,11.4604442 6.94928571,11.419928 6.90426771,11.3839136 C6.8568672,11.3431 6.82374459,11.2882111 6.80972989,11.2272509 C6.79082233,11.1588235 6.78179927,11.0615846 6.78179927,10.9319328 C6.78149969,10.8594618 6.78510642,10.7870268 6.79262304,10.714946 C6.79644347,10.6661111 6.80767662,10.6181426 6.82593637,10.5726891 C6.83694565,10.5406888 6.85813394,10.5131757 6.88626051,10.4943578 C6.91345936,10.478208 6.94467597,10.4700916 6.97629651,10.4709484 C7.04812315,10.4787758 7.11731547,10.5024549 7.17887754,10.5402761 C7.43881652,10.6770034 7.7154515,10.7793039 8.00180673,10.8445978 C8.19088234,10.8905162 8.41057022,10.9139256 8.65906962,10.9139256 C8.80696829,10.9158076 8.95453632,10.8994783 9.09844539,10.8653061 C9.2154435,10.8388682 9.32715105,10.7929068 9.42887754,10.7293517 C9.60429727,10.6214903 9.70999163,10.4292565 9.70708883,10.2233493 C9.70929655,10.1061226 9.6649396,9.99280187 9.5837395,9.9082233 C9.50270708,9.81998801 9.39646458,9.74255704 9.265012,9.67412967 C9.13355941,9.60570229 8.98409964,9.54177672 8.81843337,9.48235296 C8.65006603,9.42202882 8.47809725,9.35810326 8.30162666,9.29237696 C8.12425572,9.22484995 7.95138657,9.15012004 7.7857203,9.06458583 C7.61735294,8.97995197 7.46879352,8.87821128 7.33734094,8.75936375 C7.20678872,8.64141657 7.0987455,8.50186074 7.01771309,8.34069628 C6.93668067,8.17863145 6.8952641,7.98505403 6.8952641,7.75996399 C6.8952641,7.50066026 6.95468787,7.27286916 7.07173469,7.077491 C7.19015191,6.88011594 7.35291559,6.71303656 7.54712485,6.58949581 C7.7470048,6.45984393 7.9819988,6.36170469 8.25300721,6.29867947 C8.39256303,6.26626651 8.37995797,6.26086435 8.47809723,6.23205283 L8.47809723,6.23205283 L8.47809723,5.8665066 C8.47809723,5.569148 8.71915401,5.32809123 9.01651261,5.32809123 Z" id="形状" fill="#FFFFFF" opacity="0.65"></path>
                        <path d="M13.8865606,8.98805524 C13.8865606,10.2845213 13.3714183,11.5278613 12.4545095,12.4444324 C11.5376007,13.3610035 10.2940711,13.8756878 8.99760504,13.8752104 C6.29825531,13.8752104 4.11,11.6869548 4.11,8.98760504 C4.11,6.28825531 6.29825531,4.1 8.99760504,4.1 C11.6986855,4.1 13.8865606,6.28787515 13.8865606,8.98805524 L13.8865606,8.98805524 Z" id="路径" fill="#D3D3D5" opacity="0.25"></path>
                    </g>
                </g>
            </g>
        </g>
    </g>
</svg>