<?xml version="1.0" encoding="UTF-8"?>
<svg width="18px" height="19px" viewBox="0 0 18 19" version="1.1" xmlns="http://www.w3.org/2000/svg" xmlns:xlink="http://www.w3.org/1999/xlink">
    <title>chajiage备份</title>
    <defs>
        <linearGradient x1="5.08044799%" y1="0%" x2="94.919552%" y2="100%" id="linearGradient-1">
            <stop stop-color="#FAD961" offset="0%"></stop>
            <stop stop-color="#F76B1C" offset="100%"></stop>
        </linearGradient>
        <linearGradient x1="50%" y1="-11.9980945%" x2="50%" y2="100%" id="linearGradient-2">
            <stop stop-color="#FEFEFE" offset="0%"></stop>
            <stop stop-color="#B6B7BA" offset="62.8651253%"></stop>
            <stop stop-color="#C3C4C6" offset="86.0015398%"></stop>
            <stop stop-color="#DFDFDF" offset="100%"></stop>
        </linearGradient>
    </defs>
    <g id="及时通-客户端运价" stroke="none" stroke-width="1" fill="none" fill-rule="evenodd">
        <g id="画板" transform="translate(-1.000000, -9.000000)" fill-rule="nonzero">
            <g id="chajiage备份" transform="translate(1.000000, 9.000000)">
                <path d="M8.96928334,0 C13.9244354,0 17.9404754,4.01604004 17.9404754,8.9711921 C17.9404754,11.0078436 17.2609554,12.8841589 16.1176056,14.3901739 C16.1882298,14.4493456 16.2588541,14.5066085 16.3218433,14.5772328 L16.3218433,14.5772328 L17.5377262,15.9458168 C18.2096112,16.7016874 18.1408957,17.8583986 17.385025,18.5283748 C16.6291544,19.2002599 15.4724432,19.1315443 14.8005582,18.3756737 L14.8005582,18.3756737 L13.5846754,17.0070897 C13.5159598,16.9307391 13.4625144,16.8486623 13.409069,16.7646766 C12.0996567,17.5110035 10.5860067,17.9404754 8.9711921,17.9404754 C4.01604004,17.9404754 0,13.9244354 0,8.96928334 C0,4.01604004 4.01413127,0 8.96928334,0 Z M15.247209,15.377005 C15.012431,15.6060567 14.7662004,15.8217471 14.5066085,16.0259849 C14.5256961,16.0622514 14.5409663,16.1004267 14.5695977,16.1328757 L14.5695977,16.1328757 L15.7854806,17.5014597 C15.9171853,17.6503433 16.0832478,17.6732484 16.1691422,17.6732484 C16.2569453,17.6732484 16.3886501,17.6503433 16.5089022,17.5434525 C16.7207751,17.3563936 16.7398627,17.0319036 16.550895,16.8219396 L16.550895,16.8219396 L15.3350122,15.4533556 C15.3063807,15.4209066 15.2777493,15.3980014 15.247209,15.377005 Z M9,2 C5.13400675,2 2,5.13400675 2,9 C2,12.8659932 5.13400675,16 9,16 C12.8659932,16 16,12.8659932 16,9 C16,5.13400675 12.8659932,2 9,2 Z" id="形状" fill="url(#linearGradient-1)"></path>
                <path d="M8.93431828,4 C11.6612143,4 13.87,6.20909076 13.87,8.93545422 C13.87,10.244492 13.3499342,11.4998885 12.4242621,12.4253475 C11.4985899,13.3508065 10.2431753,13.8704817 8.93431828,13.87 C6.20916954,13.87 4,11.6605247 4,8.93499966 C4,6.20947461 6.20916954,4 8.93431828,4 Z M9.11438086,5 C8.83303628,5 8.60496143,5.23947965 8.60496143,5.53489278 L8.60496143,5.89804741 C8.51210738,5.92667043 8.5240336,5.93203724 8.39199346,5.96423815 C8.13558,6.02685102 7.91324143,6.12434818 7.72412585,6.25315182 C7.54037558,6.3758843 7.38637742,6.54187055 7.27433747,6.73795429 C7.16359411,6.93205418 7.10737057,7.15835495 7.10737057,7.41596217 C7.10737057,7.63957956 7.14655668,7.8318905 7.22322516,7.99289501 C7.29989363,8.15300505 7.40211826,8.29164784 7.5256397,8.40882334 C7.650013,8.52689331 7.79057187,8.62796836 7.94987192,8.7120485 C8.10661637,8.7970231 8.27017578,8.87126409 8.43799454,8.9383493 C8.60496145,9.00364558 8.76766898,9.06715291 8.92696902,9.12708238 C9.08371347,9.18611736 9.22512419,9.24962469 9.34949751,9.31760438 C9.47387081,9.38558407 9.5743917,9.46250844 9.65106018,9.55016645 C9.72788731,9.63419167 9.76985545,9.74677095 9.76776663,9.86323077 C9.7705131,10.0677908 9.67051083,10.2587668 9.5045382,10.3659226 C9.40829011,10.4290619 9.30259848,10.4747226 9.19190121,10.5009876 C9.05574225,10.5349362 8.91612139,10.5511586 8.77618769,10.5492889 C8.54107104,10.5492889 8.33321428,10.5260327 8.15432119,10.4804147 C7.8833874,10.415548 7.62165039,10.3139168 7.37571023,10.1780841 C7.31746353,10.1405103 7.25199751,10.1169861 7.18403904,10.1092099 C7.1541214,10.1083588 7.12458593,10.116422 7.09885186,10.1324661 C7.07224002,10.1511609 7.05219281,10.1784941 7.04177643,10.210285 C7.02450004,10.2554411 7.01387185,10.3030958 7.01025716,10.3516111 C7.00314534,10.4232203 6.99973286,10.4951815 7,10.5671783 C7,10.6959819 7.00855343,10.7925846 7.02644274,10.8605643 C7.03970268,10.9211256 7.07104151,10.9756554 7.11588929,11.016202 C7.15848288,11.0519808 7.22663265,11.0922319 7.32204229,11.1396388 C7.41745196,11.1861512 7.53501028,11.2308747 7.67727289,11.2729147 C7.8195355,11.3158493 7.98394679,11.3516281 8.16880301,11.38204 C8.35451108,11.4115575 8.35962231,11.4267635 8.5759978,11.4267635 L8.60496143,11.425869 L8.61177642,11.6208634 C8.62276673,11.919718 8.85680657,12.1559789 9.14164075,12.1557565 C9.27508695,12.1555976 9.40275683,12.0985726 9.49541636,11.9977387 C9.58807588,11.8969047 9.63778847,11.7608987 9.63317087,11.6208634 L9.62465214,11.34 C9.66043076,11.3310553 9.69961688,11.3283718 9.7353955,11.3194272 C10.0165132,11.2469751 10.1971101,11.1405333 10.4066706,10.9974181 C10.6162311,10.8551975 10.783198,10.677198 10.9058675,10.4643143 C11.0276852,10.252325 11.08902,10.004557 11.08902,9.7219046 C11.08902,9.50723191 11.0506858,9.31939331 10.9731654,9.16017773 C10.896929,9.00315316 10.7935092,8.86240919 10.6681953,8.74514388 C10.5380913,8.62468401 10.3934501,8.52273302 10.2379999,8.44191872 C10.0770605,8.35801431 9.91215114,8.28278119 9.74391422,8.2165124 C9.57996336,8.15147333 9.41525562,8.08855753 9.24982849,8.02777932 C9.10203794,7.9742881 8.95775988,7.91064327 8.81792942,7.83725732 C8.70348458,7.7797032 8.5998809,7.70091787 8.5121074,7.60469525 C8.43794923,7.5209591 8.39737196,7.41043895 8.39880843,7.29610327 C8.39613909,7.13121401 8.47348128,6.97620803 8.60410957,6.88464728 C8.68302304,6.82896679 8.77069778,6.78838821 8.86307863,6.76478837 C8.967007,6.73527088 9.08712094,6.72095936 9.22597607,6.72095936 C9.40486918,6.72095936 9.56672485,6.7406377 9.71495057,6.77641648 C9.9491863,6.83302238 10.1766376,6.91703116 10.3930406,7.02686793 C10.4697091,7.06443565 10.5259327,7.08321951 10.5617113,7.08321951 C10.5920049,7.08540446 10.6220901,7.07655939 10.6468985,7.05817438 C10.6705344,7.03792259 10.6875186,7.01039024 10.6954552,6.97946106 C10.7084241,6.9349663 10.7164285,6.8890408 10.7193076,6.84260722 C10.7284759,6.71460958 10.7293297,6.58610483 10.7218632,6.45798532 C10.7196536,6.41727817 10.7139513,6.37686328 10.7048258,6.33723194 C10.698723,6.30998517 10.6889714,6.28378473 10.6758621,6.25941309 C10.6571093,6.23314344 10.6350425,6.20967235 10.610268,6.18964447 C10.5487823,6.14674696 10.4823776,6.11218485 10.4126337,6.08678048 C10.3004021,6.04202142 10.1854222,6.00526469 10.0684774,5.97676073 C9.9389929,5.9427709 9.86402817,5.92309256 9.71580245,5.90341423 C9.68513506,5.89983634 9.65531955,5.90073082 9.62380028,5.89804741 L9.62380028,5.53489278 C9.62380028,5.23947965 9.39572544,5 9.11438086,5 Z" id="形状结合" fill="url(#linearGradient-2)"></path>
            </g>
        </g>
    </g>
</svg>