<?xml version="1.0" encoding="UTF-8"?>
<svg width="18px" height="15px" viewBox="0 0 18 15" version="1.1" xmlns="http://www.w3.org/2000/svg" xmlns:xlink="http://www.w3.org/1999/xlink">
    <title>编组 4备份</title>
    <g id="客户端-舱单功能" stroke="none" stroke-width="1" fill="none" fill-rule="evenodd">
        <g id="画板" transform="translate(-15.000000, -46.000000)">
            <g id="编组-4备份" transform="translate(15.000000, 46.000000)">
                <path d="M13.7045455,13.5 C12.0272727,13.5 10.6363636,12.1090909 10.6363636,10.4318182 C10.6363636,8.75454545 12.0272727,7.36363637 13.7045455,7.36363637 C15.3818182,7.36363637 16.7727273,8.75454545 16.7727273,10.4318182 C16.7727273,12.1090909 15.3818182,13.5 13.7045455,13.5 Z" id="路径" fill="#B5E0A0"></path>
                <path d="M9.28636363,13.7454546 C9.16363636,13.5818182 9,13.5 8.79545454,13.5 L1.22727273,13.5 L1.22727273,1.22727273 L11.8636364,1.22727273 L11.8636364,4.41818182 C11.8636364,4.78636364 12.2318182,5.07272727 12.6,4.99090908 C12.8863636,4.95 13.0909091,4.70454545 13.0909091,4.41818182 L13.0909091,0.818181806 C13.0909091,0.368181799 12.7227273,0 12.2727273,0 L0.818181806,0 C0.368181799,0 0,0.368181818 0,0.818181806 L0,13.9090909 C0,14.3590909 0.368181818,14.7272727 0.818181806,14.7272727 L8.79545454,14.7272727 C9.32727271,14.7272727 9.61363636,14.1545455 9.28636363,13.7454546 Z" id="路径" fill="#7B7B7B" fill-rule="nonzero"></path>
                <path d="M3.77142656,3 L9.45812599,3 C9.97241036,3 10.2295525,3.25714219 10.2295525,3.77142656 L10.2295525,3.77142656 C10.2295525,4.28571093 9.97241036,4.54285311 9.45812599,4.54285311 L3.77142656,4.54285311 C3.25714219,4.54285311 3,4.28571093 3,3.77142656 L3,3.77142656 C3,3.25714219 3.25714219,3 3.77142656,3 L3.77142656,3 Z" id="路径" fill="#7B7B7B" fill-rule="nonzero"></path>
                <path d="M3.77142656,5.66142162 L6.70156176,5.66142162 C7.21584613,5.66142162 7.47298832,5.91856381 7.47298832,6.43284818 L7.47298832,6.43284818 C7.47298832,6.94713255 7.21584613,7.20427474 6.70156176,7.20427474 L3.77142656,7.20427474 C3.25714219,7.20427474 3,6.94713255 3,6.43284818 L3,6.43284818 C3,5.91856381 3.25714219,5.66142162 3.77142656,5.66142162 L3.77142656,5.66142162 Z" id="路径" fill="#7B7B7B" fill-rule="nonzero"></path>
                <path d="M14.9318182,9.81818183 L14.3181818,9.81818183 L14.3181818,9.20454546 C14.3181818,8.87727273 14.0318182,8.5909091 13.7045455,8.5909091 C13.3772727,8.5909091 13.0909091,8.87727273 13.0909091,9.20454546 L13.0909091,9.81818183 L12.4772727,9.81818183 C12.15,9.81818183 11.8636364,10.1045455 11.8636364,10.4318182 C11.8636364,10.7590909 12.15,11.0454546 12.4772727,11.0454546 L13.0909091,11.0454546 L13.0909091,11.6590909 C13.0909091,11.9863637 13.3772727,12.2727273 13.7045455,12.2727273 C14.0318182,12.2727273 14.3181818,11.9863637 14.3181818,11.6590909 L14.3181818,11.0454546 L14.9318182,11.0454546 C15.2590909,11.0454546 15.5454545,10.7590909 15.5454545,10.4318182 C15.5454545,10.1045455 15.2590909,9.81818183 14.9318182,9.81818183 Z" id="路径" fill="#7B7B7B" fill-rule="nonzero"></path>
                <path d="M13.7045455,6.13636364 C11.3318182,6.13636364 9.4090909,8.0590909 9.4090909,10.4318182 C9.4090909,12.8045455 11.3318182,14.7272727 13.7045455,14.7272727 C16.0772727,14.7272727 18,12.8045455 18,10.4318182 C18,8.05909092 16.0772727,6.13636364 13.7045455,6.13636364 Z M13.7045455,13.5 C12.0272727,13.5 10.6363636,12.1090909 10.6363636,10.4318182 C10.6363636,8.75454545 12.0272727,7.36363637 13.7045455,7.36363637 C15.3818182,7.36363637 16.7727273,8.75454545 16.7727273,10.4318182 C16.7727273,12.1090909 15.3818182,13.5 13.7045455,13.5 Z" id="形状" fill="#7B7B7B" fill-rule="nonzero"></path>
            </g>
        </g>
    </g>
</svg>