<?xml version="1.0" encoding="UTF-8"?>
<svg width="18px" height="18px" viewBox="0 0 18 18" version="1.1" xmlns="http://www.w3.org/2000/svg" xmlns:xlink="http://www.w3.org/1999/xlink">
    <title>caiwufeiyong</title>
    <g id="及时通-客户端运价" stroke="none" stroke-width="1" fill="none" fill-rule="evenodd" opacity="0.65">
        <g id="及时通-询价沟通-无浮窗页" transform="translate(-16.000000, -139.000000)" fill="#FFFFFF" fill-rule="nonzero">
            <g id="caiwufeiyong" transform="translate(16.000000, 139.000000)">
                <path d="M8.1032413,16.2064826 C8.1032413,16.7037378 7.70013633,17.1068427 7.20288115,17.1068427 L0.900360151,17.1068427 C0.40310497,17.1068427 0,16.7037378 0,16.2064826 L0,0.900360151 C0,0.40310497 0.40310497,0 0.900360151,0 L15.3061224,0 C15.8033776,0 16.2064826,0.40310497 16.2064826,0.900360151 L16.2064826,5.40216086 C16.2064826,5.89936221 15.8033238,6.30238318 15.3061225,6.30238318 C14.8089211,6.30238318 14.4058384,5.89936221 14.4057623,5.40216086 L14.4057623,1.80072028 L1.80072028,1.80072028 L1.80072028,15.3061224 L7.20288115,15.3061224 C7.70013633,15.3061224 8.1032413,15.7092274 8.1032413,16.2064826 Z M4.50180071,4.50180071 L8.1032413,4.50180071 C8.60049648,4.50180071 9.00360145,4.90490568 9.00360145,5.40216086 C9.00360145,5.89941605 8.60049648,6.30252102 8.1032413,6.30252102 L4.50180071,6.30252102 C4.00454553,6.30252102 3.60144056,5.89941605 3.60144056,5.40216086 C3.60144056,4.90490568 4.00454553,4.50180071 4.50180071,4.50180071 L4.50180071,4.50180071 Z M4.50180071,7.50180071 L8.1032413,7.50180071 C8.60049648,7.50180071 9.00360145,7.90490568 9.00360145,8.40216086 C9.00360145,8.89941605 8.60049648,9.30252102 8.1032413,9.30252102 L4.50180071,9.30252102 C4.00454553,9.30252102 3.60144056,8.89941605 3.60144056,8.40216086 C3.60144056,7.90490568 4.00454553,7.50180071 4.50180071,7.50180071 L4.50180071,7.50180071 Z M18,12.0909364 C18,13.3874025 17.4848577,14.6307424 16.5679489,15.5473135 C15.6510401,16.4638846 14.4075104,16.9785689 13.1110444,16.9780916 C10.4116947,16.9780916 8.22343938,14.7898359 8.22343938,12.0904862 C8.22343938,9.39113646 10.4116947,7.20288115 13.1110444,7.20288115 C15.8121248,7.20288115 18,9.3907563 18,12.0909364 L18,12.0909364 Z M15.0945378,12.6185474 C15.013962,12.4604887 14.9046556,12.3188179 14.7722089,12.2007803 C14.6346994,12.0795271 14.4818253,11.9769047 14.317527,11.8955582 C14.1474269,11.8111013 13.973131,11.7353727 13.7953181,11.6686675 C13.6220353,11.6032001 13.4479524,11.5398699 13.2731092,11.4786915 C13.1169065,11.424848 12.9644162,11.360784 12.8166267,11.2869148 C12.6956677,11.2289816 12.5861669,11.1496774 12.4933974,11.0528211 C12.4150181,10.9685335 12.3721312,10.8572855 12.3736495,10.7421969 C12.3708282,10.5762217 12.4525727,10.4201949 12.5906363,10.3280312 C12.6740415,10.271984 12.7667066,10.2311382 12.8643457,10.207383 C12.9741897,10.1776711 13.1011404,10.1632653 13.2478992,10.1632653 C13.4369748,10.1632653 13.6080432,10.1830732 13.7647059,10.2190876 C14.0122742,10.2760663 14.252672,10.3606283 14.4813926,10.4711885 C14.562425,10.5090036 14.6218487,10.5279112 14.6596639,10.5279112 C14.6916818,10.5301105 14.7234794,10.5212072 14.7496999,10.5027011 C14.7746812,10.4823159 14.7926321,10.4546023 14.8010204,10.4234694 C14.8147275,10.3786816 14.8231875,10.3324537 14.8262305,10.2857143 C14.8359206,10.1568737 14.8368231,10.0275227 14.8289316,9.89855942 C14.8265962,9.85758418 14.8205693,9.81690314 14.8109244,9.7770108 C14.8044743,9.74958459 14.7941676,9.72321161 14.7803121,9.69867946 C14.7604919,9.67223681 14.7371691,9.64861115 14.7109844,9.62845137 C14.645999,9.58527136 14.5758145,9.55048164 14.5021008,9.52490997 C14.3834811,9.47985614 14.2619566,9.44285735 14.1383553,9.41416567 C14.0015006,9.37995199 13.9222689,9.36014406 13.7656062,9.34033613 C13.7331933,9.33673469 13.7016807,9.33763505 13.6683674,9.33493397 L13.6683674,8.96938775 C13.6683674,8.67202915 13.4273106,8.43097237 13.129952,8.43097237 C12.8325934,8.43097237 12.5915366,8.67202915 12.5915366,8.96938775 L12.5915366,9.33493397 C12.4933973,9.36374549 12.5060024,9.36914765 12.3664466,9.40156062 C12.0954382,9.46458583 11.8604442,9.56272508 11.6605642,9.69237696 C11.466355,9.81591771 11.3035913,9.98299708 11.1851741,10.1803721 C11.0681272,10.3757503 11.0087035,10.6035414 11.0087035,10.8628451 C11.0087035,11.0879352 11.05012,11.2815126 11.1311525,11.4435774 C11.2121849,11.6047419 11.3202281,11.7442977 11.4507803,11.8622449 C11.5822329,11.9810924 11.7307923,12.0828331 11.8991597,12.167467 C12.0648259,12.2530012 12.2376951,12.3277311 12.415066,12.3952581 C12.5915366,12.4609844 12.7635054,12.52491 12.9318727,12.5852341 C13.097539,12.6446579 13.2469988,12.7085834 13.3784514,12.7770108 C13.509904,12.8454382 13.6161465,12.9228692 13.6971789,13.0111044 C13.778379,13.095683 13.8227359,13.2090037 13.8205282,13.3262305 C13.823431,13.5321376 13.7177366,13.7243714 13.5423169,13.8322329 C13.4405904,13.8957879 13.3288829,13.9417494 13.2118848,13.9681873 C13.0679757,14.0023595 12.9204077,14.0186887 12.772509,14.0168067 C12.5240096,14.0168067 12.3043217,13.9933974 12.1152461,13.947479 C11.8288909,13.882185 11.5522559,13.7798845 11.2923169,13.6431573 C11.2307548,13.605336 11.1615625,13.5816569 11.0897359,13.5738295 C11.0581153,13.5729728 11.0268987,13.5810891 10.9996999,13.5972389 C10.9715733,13.6160568 10.950385,13.64357 10.9393758,13.6755702 C10.921116,13.7210237 10.9098828,13.7689923 10.9060624,13.8178271 C10.8985458,13.8899079 10.8949391,13.962343 10.8952387,14.0348139 C10.8952387,14.1644658 10.9042617,14.2617047 10.9231693,14.3301321 C10.937184,14.3910922 10.9703066,14.4459812 11.0177071,14.4867947 C11.0627251,14.5228091 11.1347539,14.5633253 11.2355942,14.6110444 C11.3364346,14.6578632 11.4606843,14.7028812 11.6110444,14.7451981 C11.7614045,14.7884154 11.9351741,14.8244298 12.1305522,14.855042 C12.3268307,14.8847539 12.3322329,14.90006 12.5609244,14.90006 L12.5915366,14.8991597 L12.5987395,15.0954382 C12.6103554,15.3962609 12.8577167,15.6340777 13.1587635,15.6338537 C13.2998054,15.633694 13.4347422,15.5762934 13.5326759,15.4747954 C13.6306095,15.3732974 13.6831517,15.2363957 13.6782713,15.0954382 L13.6692677,14.8127251 C13.7070828,14.8037215 13.7484994,14.8010204 13.7863145,14.7920168 C14.0834334,14.7190876 14.2743097,14.6119448 14.4957983,14.4678872 C14.7172869,14.3247299 14.8937575,14.1455582 15.0234094,13.9312725 C15.1521609,13.7178871 15.2169868,13.4684874 15.2169868,13.1839736 C15.2169868,12.9678872 15.1764706,12.7788115 15.0945378,12.6185474 L15.0945378,12.6185474 Z" id="形状"></path>
            </g>
        </g>
    </g>
</svg>