<?xml version="1.0" encoding="UTF-8"?>
<svg width="19px" height="18px" viewBox="0 0 19 18" version="1.1" xmlns="http://www.w3.org/2000/svg" xmlns:xlink="http://www.w3.org/1999/xlink">
    <title>caiwufeiyong备份</title>
    <defs>
        <linearGradient x1="4.59515571%" y1="0%" x2="95.4048443%" y2="100%" id="linearGradient-1">
            <stop stop-color="#FAD961" offset="0%"></stop>
            <stop stop-color="#F76B1C" offset="100%"></stop>
        </linearGradient>
        <linearGradient x1="50%" y1="1.41179011%" x2="50%" y2="100%" id="linearGradient-2">
            <stop stop-color="#FEFEFE" offset="0%"></stop>
            <stop stop-color="#B6B7BA" offset="62.8651253%"></stop>
            <stop stop-color="#C3C4C6" offset="86.0015398%"></stop>
            <stop stop-color="#DFDFDF" offset="100%"></stop>
        </linearGradient>
    </defs>
    <g id="及时通-承运人端运价" stroke="none" stroke-width="1" fill="none" fill-rule="evenodd">
        <g id="编组-3" transform="translate(0.000000, -95.000000)">
            <g id="caiwufeiyong备份" transform="translate(0.000000, 95.000000)">
                <rect id="矩形" fill="url(#linearGradient-1)" x="0" y="0" width="16.2" height="17" rx="1"></rect>
                <path d="M13.1110444,6.70288115 C14.5996414,6.70288115 15.9467998,7.30578643 16.9218492,8.28065631 C17.8970035,9.25563101 18.5,10.6026807 18.5,12.0909364 C18.5,13.5200427 17.932154,14.8905874 16.9214371,15.900932 C15.9107203,16.9112766 14.5399665,17.4786177 13.1110444,17.4780916 C11.6232984,17.4780916 10.2763971,16.8750633 9.30143239,15.9000984 C8.32646762,14.9251336 7.72343938,13.5782322 7.72343938,12.0904862 C7.72343938,10.6027401 8.32646761,9.25583888 9.30143236,8.28087413 C10.2763971,7.30590938 11.6232984,6.70288115 13.1110444,6.70288115 Z" id="路径" stroke="#44413B" fill="url(#linearGradient-2)" fill-rule="nonzero"></path>
                <path d="M13.129952,8.43097237 C13.4273106,8.43097237 13.6683674,8.67202915 13.6683674,8.96938775 L13.6683674,8.96938775 L13.6683674,9.33493397 C13.7016807,9.33763505 13.7331933,9.33673469 13.7656062,9.34033613 C13.9222689,9.36014406 14.0015006,9.37995199 14.1383553,9.41416567 C14.2619566,9.44285735 14.3834811,9.47985614 14.5021008,9.52490997 C14.5758145,9.55048164 14.645999,9.58527136 14.7109844,9.62845137 C14.7371691,9.64861115 14.7604919,9.67223681 14.7803121,9.69867946 C14.7941676,9.72321161 14.8044743,9.74958459 14.8109244,9.7770108 C14.8205693,9.81690314 14.8265962,9.85758418 14.8289316,9.89855942 C14.8368231,10.0275227 14.8359206,10.1568737 14.8262305,10.2857143 C14.8231875,10.3324537 14.8147275,10.3786816 14.8010204,10.4234694 C14.7926321,10.4546023 14.7746812,10.4823159 14.7496999,10.5027011 C14.7234794,10.5212072 14.6916818,10.5301105 14.6596639,10.5279112 C14.6218487,10.5279112 14.562425,10.5090036 14.4813926,10.4711885 C14.252672,10.3606283 14.0122742,10.2760663 13.7647059,10.2190876 C13.6080432,10.1830732 13.4369748,10.1632653 13.2478992,10.1632653 C13.1011404,10.1632653 12.9741897,10.1776711 12.8643457,10.207383 C12.7667066,10.2311382 12.6740415,10.271984 12.5906363,10.3280312 C12.4525727,10.4201949 12.3708282,10.5762217 12.3736495,10.7421969 C12.3721312,10.8572855 12.4150181,10.9685335 12.4933974,11.0528211 C12.5861669,11.1496774 12.6956677,11.2289816 12.8166267,11.2869148 C12.9644162,11.360784 13.1169065,11.424848 13.2731092,11.4786915 C13.4479524,11.5398699 13.6220353,11.6032001 13.7953181,11.6686675 C13.973131,11.7353727 14.1474269,11.8111013 14.317527,11.8955582 C14.4818253,11.9769047 14.6346994,12.0795271 14.7722089,12.2007803 C14.9046556,12.3188179 15.013962,12.4604887 15.0945378,12.6185474 C15.1764706,12.7788115 15.2169868,12.9678872 15.2169868,13.1839736 C15.2169868,13.4684874 15.1521609,13.7178871 15.0234094,13.9312725 C14.8937575,14.1455582 14.7172869,14.3247299 14.4957983,14.4678872 C14.2743097,14.6119448 14.0834334,14.7190876 13.7863145,14.7920168 C13.7484994,14.8010204 13.7070828,14.8037215 13.6692677,14.8127251 L13.6692677,14.8127251 L13.6782713,15.0954382 C13.6831517,15.2363957 13.6306095,15.3732974 13.5326759,15.4747954 C13.4347422,15.5762934 13.2998054,15.633694 13.1587635,15.6338537 C12.8577167,15.6340777 12.6103554,15.3962609 12.5987395,15.0954382 L12.5987395,15.0954382 L12.5915366,14.8991597 L12.5609244,14.90006 C12.3322329,14.90006 12.3268307,14.8847539 12.1305522,14.855042 C11.9351741,14.8244298 11.7614045,14.7884154 11.6110444,14.7451981 C11.4606843,14.7028812 11.3364346,14.6578632 11.2355942,14.6110444 C11.1347539,14.5633253 11.0627251,14.5228091 11.0177071,14.4867947 C10.9703066,14.4459812 10.937184,14.3910922 10.9231693,14.3301321 C10.9042617,14.2617047 10.8952387,14.1644658 10.8952387,14.0348139 C10.8949391,13.962343 10.8985458,13.8899079 10.9060624,13.8178271 C10.9098828,13.7689923 10.921116,13.7210237 10.9393758,13.6755702 C10.950385,13.64357 10.9715733,13.6160568 10.9996999,13.5972389 C11.0268987,13.5810891 11.0581153,13.5729728 11.0897359,13.5738295 C11.1615625,13.5816569 11.2307548,13.605336 11.2923169,13.6431573 C11.5522559,13.7798845 11.8288909,13.882185 12.1152461,13.947479 C12.3043217,13.9933974 12.5240096,14.0168067 12.772509,14.0168067 C12.9204077,14.0186887 13.0679757,14.0023595 13.2118848,13.9681873 C13.3288829,13.9417494 13.4405904,13.8957879 13.5423169,13.8322329 C13.7177366,13.7243714 13.823431,13.5321376 13.8205282,13.3262305 C13.8227359,13.2090037 13.778379,13.095683 13.6971789,13.0111044 C13.6161465,12.9228692 13.509904,12.8454382 13.3784514,12.7770108 C13.2469988,12.7085834 13.097539,12.6446579 12.9318727,12.5852341 C12.7635054,12.52491 12.5915366,12.4609844 12.415066,12.3952581 C12.2376951,12.3277311 12.0648259,12.2530012 11.8991597,12.167467 C11.7307923,12.0828331 11.5822329,11.9810924 11.4507803,11.8622449 C11.3202281,11.7442977 11.2121849,11.6047419 11.1311525,11.4435774 C11.05012,11.2815126 11.0087035,11.0879352 11.0087035,10.8628451 C11.0087035,10.6035414 11.0681272,10.3757503 11.1851741,10.1803721 C11.3035913,9.98299708 11.466355,9.81591771 11.6605642,9.69237696 C11.8604442,9.56272508 12.0954382,9.46458583 12.3664466,9.40156062 C12.5060024,9.36914765 12.4933973,9.36374549 12.5915366,9.33493397 L12.5915366,9.33493397 L12.5915366,8.96938775 C12.5915366,8.67202915 12.8325934,8.43097237 13.129952,8.43097237 Z M8.00360145,7.50180071 C8.5558862,7.50180071 9.00360145,7.90490568 9.00360145,8.40216086 C9.00360145,8.89941605 8.5558862,9.30252102 8.00360145,9.30252102 L4.00360145,9.30252102 C3.4513167,9.30252102 3.00360145,8.89941605 3.00360145,8.40216086 C3.00360145,7.90490568 3.4513167,7.50180071 4.00360145,7.50180071 L8.00360145,7.50180071 Z M8.00360145,4.50180071 C8.5558862,4.50180071 9.00360145,4.90490568 9.00360145,5.40216086 C9.00360145,5.89941605 8.5558862,6.30252102 8.00360145,6.30252102 L4.00360145,6.30252102 C3.4513167,6.30252102 3.00360145,5.89941605 3.00360145,5.40216086 C3.00360145,4.90490568 3.4513167,4.50180071 4.00360145,4.50180071 L8.00360145,4.50180071 Z" id="路径-7" fill="#44413B" fill-rule="nonzero"></path>
            </g>
        </g>
    </g>
</svg>