<?xml version="1.0" encoding="UTF-8"?>
<svg width="20px" height="20px" viewBox="0 0 20 20" version="1.1" xmlns="http://www.w3.org/2000/svg" xmlns:xlink="http://www.w3.org/1999/xlink">
    <title>lianxirenS备份</title>
    <g id="客户端-舱单功能" stroke="none" stroke-width="1" fill="none" fill-rule="evenodd">
        <g id="画板" transform="translate(-157.000000, -12.000000)" fill-rule="nonzero">
            <g id="lianxirenS备份" transform="translate(158.000000, 13.000000)">
                <path d="M7.1641791,12.7164179 C7.1641791,14.6360539 8.18829269,16.4098708 9.85074625,17.3696888 C11.5131998,18.3295068 13.5614271,18.3295068 15.2238806,17.3696888 C16.8863342,16.4098708 17.9104478,14.6360539 17.9104478,12.7164179 C17.9104478,10.7967819 16.8863342,9.02296504 15.2238806,8.06314702 C13.5614271,7.103329 11.5131998,7.103329 9.85074625,8.06314702 C8.18829269,9.02296504 7.1641791,10.7967819 7.1641791,12.7164179 L7.1641791,12.7164179 Z" id="路径" fill="#8DCE6C"></path>
                <path d="M16.2425373,0 C17.2119403,0 18,0.785820896 18,1.75074627 L18,1.75074627 L18,16.5179104 C18,17.4828358 17.2119403,18.2686567 16.2425373,18.2686567 L16.2425373,18.2686567 L2.65970149,18.2686567 C1.69029851,18.2686567 0.902238806,17.4828358 0.902238806,16.5179104 L0.902238806,16.5179104 L0.902238806,14.5074627 C0.902238806,14.261194 1.10373134,14.0597015 1.35,14.0597015 L1.35,14.0597015 L2.30149254,14.0597015 C2.54776119,14.0597015 2.74925373,14.261194 2.74925373,14.5074627 L2.74925373,14.5074627 L2.74925373,15.8014925 C2.74925373,16.1462687 3.03134328,16.4283582 3.37835821,16.4283582 L3.37835821,16.4283582 L15.5261194,16.4283582 C15.8731343,16.4283582 16.1552239,16.1462687 16.1552239,15.8014925 L16.1552239,15.8014925 L16.1552239,2.46716418 C16.1552239,2.12238806 15.8731343,1.84029851 15.5261194,1.84029851 L15.5261194,1.84029851 L3.37835821,1.84029851 C3.03134328,1.84029851 2.74925373,2.12238806 2.74925373,2.46716418 L2.74925373,2.46716418 L2.74925373,3.77014925 C2.74925373,4.01641791 2.54776119,4.21791045 2.30149254,4.21791045 L2.30149254,4.21791045 L1.35,4.21791045 C1.10373134,4.21791045 0.902238806,4.01641791 0.902238806,3.77014925 L0.902238806,3.77014925 L0.902238806,1.75074627 C0.902238806,0.785820896 1.69029851,0 2.65970149,0 L2.65970149,0 Z M12.7835821,10.361194 C13.6074627,10.361194 14.2835821,11.0373134 14.2835821,11.861194 C14.2835821,12.6873134 13.6097015,13.361194 12.7835821,13.361194 L7.7238806,13.361194 C6.9,13.361194 6.2238806,12.6873134 6.2238806,11.861194 C6.2238806,11.0373134 6.89776119,10.361194 7.7238806,10.361194 L12.7835821,10.361194 Z M3.40298507,10.880597 C3.79701493,10.880597 4.11940299,11.2029851 4.11940299,11.5970149 C4.11940299,11.9910448 3.79701493,12.3134328 3.40298507,12.3134328 L0.71641791,12.3134328 C0.32238806,12.3134328 0,11.9910448 0,11.5970149 C0,11.2029851 0.32238806,10.880597 0.71641791,10.880597 L3.40298507,10.880597 Z M3.40298507,8.41791045 C3.79701493,8.41791045 4.11940299,8.74029851 4.11940299,9.13432836 C4.11940299,9.52835821 3.79701493,9.85074627 3.40298507,9.85074627 L0.71641791,9.85074627 C0.32238806,9.85074627 0,9.52835821 0,9.13432836 C0,8.74029851 0.32238806,8.41791045 0.71641791,8.41791045 L3.40298507,8.41791045 Z M10.2537313,4.90522388 C11.5164179,4.90522388 12.5373134,5.94179104 12.5373134,7.19776119 C12.5373134,8.45373134 11.5141791,9.47238806 10.2537313,9.47238806 C8.99328358,9.47238806 7.97014925,8.45373134 7.97014925,7.19776119 C7.97014925,5.94179104 8.99104478,4.90522388 10.2537313,4.90522388 Z M3.40298507,5.95522388 C3.79701493,5.95522388 4.11940299,6.27761194 4.11940299,6.67164179 C4.11940299,7.06567164 3.79701493,7.3880597 3.40298507,7.3880597 L0.71641791,7.3880597 C0.32238806,7.3880597 0,7.06567164 0,6.67164179 C0,6.27761194 0.32238806,5.95522388 0.71641791,5.95522388 L3.40298507,5.95522388 Z" id="路径-7" stroke="#FFFFFF" stroke-width="0.2" fill="#333333"></path>
            </g>
        </g>
    </g>
</svg>