<?xml version="1.0" encoding="UTF-8"?>
<svg width="18px" height="19px" viewBox="0 0 18 19" version="1.1" xmlns="http://www.w3.org/2000/svg" xmlns:xlink="http://www.w3.org/1999/xlink">
    <title>fasong备份</title>
    <g id="客户端-舱单功能" stroke="none" stroke-width="1" fill="none" fill-rule="evenodd" opacity="0.65">
        <g id="画板" transform="translate(-128.000000, -45.000000)" fill-rule="nonzero">
            <g id="fasong备份" transform="translate(128.000000, 45.000000)">
                <path d="M7.00201098,17.0473848 C6.6866049,17.0473848 6.43091775,16.7916977 6.43091775,16.4762916 L6.43091775,11.2622104 C6.43091775,11.0908824 6.50801534,10.9281208 6.64222224,10.8196131 L11.2680774,7.07038604 C11.4313753,6.94346162 12.5821282,5.98116953 14.720336,4.18350975 C14.7745899,3.99219351 15.9790112,3.93058744 15.8196905,4.48904462 L12.8956931,14.9771718 C12.8490097,15.1439708 12.7290442,15.28051 12.5696399,15.3482707 C12.4102357,15.4160314 12.2286738,15.4076676 12.0761744,15.3255387 L9.58049692,13.9863251 L7.45888557,16.8189475 C7.34752239,16.9645763 7.17619442,17.0473848 7.00201098,17.0473848 Z" id="路径" fill="#8DCE6C"></path>
                <path d="M6.41342694,18.8573061 C6.00161314,18.8573061 5.66777209,18.523465 5.66777209,18.1116512 L5.66777209,11.3038223 C5.66777209,11.0801258 5.76843549,10.8676142 5.94366438,10.7259398 L11.9834688,5.83071558 C12.3032866,5.58213496 12.7631224,5.63467234 13.0186283,5.94898511 C13.2741341,6.26329787 13.2316517,6.7241714 12.9229939,6.98648063 L7.15908182,11.6580083 L7.15908182,15.8709583 L8.97102314,13.4550366 C9.19099132,13.1605029 9.59737323,13.0710243 9.92173309,13.2462532 L12.9267222,14.8568677 L16.4909524,2.06143024 C16.5617897,1.81163585 16.416387,1.65504833 16.349278,1.59912422 C16.2821691,1.5432001 16.1069402,1.42762359 15.8720589,1.53574356 L2.35706449,7.87753818 L4.10935341,8.88417225 C4.46726775,9.08922734 4.5903008,9.5440768 4.38524573,9.90199114 C4.18019065,10.2599055 3.72534117,10.3829385 3.36742684,10.1778834 L0.373622543,8.45914898 C0.131892288,8.32081999 -0.0120653641,8.05881706 0.000795124964,7.78060306 C0.0119799479,7.50098248 0.176024011,7.25491638 0.429546657,7.13561159 L15.2382523,0.186108265 C15.9317113,-0.138251601 16.7258337,-0.0338599124 17.3111728,0.462000558 C17.8932418,0.947939606 18.1343571,1.73119913 17.9263381,2.46035559 L14.1085851,16.1543072 C14.0476323,16.3720903 13.890998,16.5503643 13.6828698,16.6388369 C13.4747416,16.7273095 13.2376832,16.7163892 13.0385704,16.6091566 L9.78005865,14.860596 L7.00995084,18.5590441 C6.86454814,18.7491861 6.64085168,18.8573061 6.41342694,18.8573061 Z" id="路径" fill="#333333"></path>
            </g>
        </g>
    </g>
</svg>