<?xml version="1.0" encoding="UTF-8"?>
<svg width="20px" height="18px" viewBox="0 0 20 18" version="1.1" xmlns="http://www.w3.org/2000/svg" xmlns:xlink="http://www.w3.org/1999/xlink">
    <title>task备份</title>
    <g id="及时通-客户端运价" stroke="none" stroke-width="1" fill="none" fill-rule="evenodd" opacity="0.65">
        <g id="及时通-询价沟通-无浮窗页" transform="translate(-15.000000, -89.000000)" fill-rule="nonzero">
            <g id="编组-2备份" transform="translate(3.000000, 75.000000)">
                <g id="task备份" transform="translate(13.000000, 14.000000)">
                    <path d="M2.57142857,1.92857143 L15.4285714,1.92857143 C16.8428572,1.92857143 18,3.08571428 18,4.5 L18,15.75 C18,16.65 17.2928572,17.3571429 16.3928572,17.3571429 L2.57142857,17.3571429 C1.15714285,17.3571429 0,16.2 0,14.7857143 L0,4.5 C0,3.08571428 1.15714285,1.92857143 2.57142857,1.92857143 Z" id="路径" stroke="#FFFFFF" fill="#292420"></path>
                    <path d="M2.57142857,1.92857143 L15.4285714,1.92857143 C16.8428572,1.92857143 18,3.08571428 18,4.5 L18,12.5357143 L15.4285714,14.85 L15.3642857,14.9142857 L12.7928572,17.3571429 L2.57142857,17.3571429 C1.15714285,17.3571429 0,16.2 0,14.7857143 L0,4.5 C0,3.08571428 1.15714285,1.92857143 2.57142857,1.92857143 Z" id="路径" stroke="#FFFFFF"></path>
                    <path d="M2.57142857,1.92857143 L15.4285714,1.92857143 C16.8428572,1.92857143 18,3.08571428 18,4.5 L18,12.5357143 L14.4642857,12.5357143 C13.5642857,12.5357143 12.8571429,13.2428571 12.8571428,14.1428572 L12.8571428,17.3571429 L2.57142857,17.3571429 C1.15714285,17.3571429 0,16.2 0,14.7857143 L0,4.5 C0,3.08571428 1.15714285,1.92857143 2.57142857,1.92857143 Z" id="路径" stroke="#FFFFFF"></path>
                    <path d="M5.78571428,0 C6.17142857,0 6.42857143,0.25714285 6.42857143,0.64285715 L6.42857143,3.6 C6.42857143,3.98571428 6.17142858,4.24285715 5.78571428,4.24285715 C5.39999998,4.24285715 5.14285715,3.9857143 5.14285715,3.6 L5.14285715,0.64285715 C5.14285715,0.257142867 5.4,0 5.78571428,0 Z M12.2142857,0 C12.6,0 12.8571428,0.25714285 12.8571428,0.64285715 L12.8571428,3.6 C12.8571428,3.98571428 12.6,4.24285715 12.2142857,4.24285715 C11.8285714,4.24285715 11.5714286,3.9857143 11.5714286,3.6 L11.5714286,0.64285715 C11.5714286,0.257142867 11.8285714,0 12.2142857,0 Z" id="形状" fill="#FFFFFF"></path>
                    <path d="M4.5,8.35714287 C4.5,8.88970316 4.93172542,9.32142858 5.46428572,9.32142858 C5.99684601,9.32142858 6.42857143,8.88970316 6.42857143,8.35714287 C6.42857143,7.82458257 5.99684601,7.39285715 5.46428572,7.39285715 C4.93172542,7.39285715 4.5,7.82458257 4.5,8.35714287 Z" id="路径" fill="#FFFFFF"></path>
                    <path d="M9,7.71428572 L12.8571428,7.71428572 C13.2428571,7.71428572 13.5,7.97142857 13.5,8.35714287 C13.5,8.74285717 13.2428572,9 12.8571428,9 L9,9 C8.61428572,9 8.35714285,8.74285715 8.35714285,8.35714287 C8.35714285,7.97142858 8.6142857,7.71428572 9,7.71428572 Z M9,10.9285714 L12.8571428,10.9285714 C13.2428571,10.9285714 13.5,11.1857143 13.5,11.5714286 C13.5,11.9571429 13.2428572,12.2142857 12.8571428,12.2142857 L9,12.2142857 C8.61428572,12.2142857 8.35714285,11.9571429 8.35714285,11.5714286 C8.35714285,11.1857143 8.6142857,10.9285714 9,10.9285714 Z" id="形状" fill="#FFFFFF"></path>
                    <path d="M4.5,11.5714286 C4.5,12.1039889 4.93172542,12.5357143 5.46428572,12.5357143 C5.99684601,12.5357143 6.42857143,12.1039889 6.42857143,11.5714286 C6.42857143,11.0388683 5.99684601,10.6071429 5.46428572,10.6071429 C4.93172542,10.6071429 4.5,11.0388683 4.5,11.5714286 Z" id="路径" fill="#FFFFFF"></path>
                </g>
            </g>
        </g>
    </g>
</svg>