<?xml version="1.0" encoding="UTF-8"?>
<svg width="18px" height="17px" viewBox="0 0 18 17" version="1.1" xmlns="http://www.w3.org/2000/svg" xmlns:xlink="http://www.w3.org/1999/xlink">
    <title>编组 8</title>
    <defs>
        <linearGradient x1="0%" y1="19.7485846%" x2="100%" y2="80.2514154%" id="linearGradient-1">
            <stop stop-color="#FAD961" offset="0%"></stop>
            <stop stop-color="#F76B1C" offset="100%"></stop>
        </linearGradient>
        <linearGradient x1="0%" y1="49.1494539%" x2="100%" y2="50.8505461%" id="linearGradient-2">
            <stop stop-color="#FAD961" offset="0%"></stop>
            <stop stop-color="#F76B1C" offset="100%"></stop>
        </linearGradient>
        <linearGradient x1="50%" y1="1.41179011%" x2="50%" y2="100%" id="linearGradient-3">
            <stop stop-color="#FEFEFE" offset="0%"></stop>
            <stop stop-color="#E8E4E4" offset="41.537787%"></stop>
            <stop stop-color="#B6B7BA" offset="67.1974649%"></stop>
            <stop stop-color="#CCCED1" offset="82.549426%"></stop>
            <stop stop-color="#DFDFDF" offset="100%"></stop>
        </linearGradient>
    </defs>
    <g id="及时通-承运人端运价" stroke="none" stroke-width="1" fill="none" fill-rule="evenodd">
        <g id="及时通-运价管理-已发布" transform="translate(-16.000000, -91.000000)" fill-rule="nonzero">
            <g id="编组-2备份" transform="translate(3.000000, 75.000000)">
                <g id="编组-8" transform="translate(13.000000, 16.000000)">
                    <path d="M1.9994791,0 C0.895429092,0 0,0.895429092 0,1.9994791 L0,12.0015627 C0,13.1056127 0.895429092,14.0010418 1.9994791,14.0010418 L16.0005209,14.0010418 C17.1045709,14.0010418 18,13.1056127 18,12.0015627 L18,2.00182315 C18,0.897773148 17.1045709,0.00234405522 16.0005209,0.00234405522 L1.9994791,0 Z" id="路径" fill="url(#linearGradient-1)"></path>
                    <path d="M3.25120458,16.089595 C3.25120458,15.6746972 3.58640448,15.3394973 4.00130225,15.3394973 L14.0033859,15.3394973 C14.4182836,15.3394973 14.7534835,15.6746972 14.7534835,16.089595 C14.7534835,16.5044928 14.4182836,16.8396927 14.0033859,16.8396927 L4.00130225,16.8396927 C3.58640448,16.8396927 3.25120458,16.5021487 3.25120458,16.089595 Z" id="路径" fill="url(#linearGradient-2)"></path>
                    <path d="M16,9.36110526 C16,10.0431829 15.7424289,10.6973106 15.2839744,11.1795235 C14.82552,11.6617363 14.2037552,11.9325145 13.5555222,11.9322633 C12.2058473,11.9322633 11.1117197,10.7810105 11.1117197,9.36086841 C11.1117197,7.94072632 12.2058473,6.78947368 13.5555222,6.78947368 C14.9060624,6.78947368 16,7.94052631 16,9.36110526 L16,9.36110526 Z" id="路径" stroke="#44413B" stroke-width="0.5" fill="url(#linearGradient-3)"></path>
                    <path d="M13.564976,7.43557894 C13.7136553,7.43557894 13.8341837,7.56240018 13.8341837,7.7188421 L13.8341837,7.7188421 L13.8341837,7.91115789 C13.8508403,7.91257895 13.8665966,7.91210526 13.8828031,7.914 C13.9611345,7.92442105 14.0007503,7.93484211 14.0691777,7.95284211 C14.1309783,7.96793695 14.1917406,7.98740221 14.2510504,8.01110526 C14.2879073,8.02455866 14.3229995,8.04286171 14.3554922,8.06557894 C14.3685846,8.07618511 14.3802459,8.08861469 14.3901561,8.10252631 C14.3970838,8.1154328 14.4022371,8.12930777 14.4054622,8.14373684 C14.4102847,8.16472441 14.4132981,8.18612692 14.4144658,8.2076842 C14.4184115,8.27553245 14.4179603,8.34358471 14.4131152,8.41136842 C14.4115937,8.43595825 14.4073637,8.46027902 14.4005102,8.4838421 C14.396316,8.50022127 14.3873406,8.51480158 14.3748499,8.52552632 C14.3617397,8.53526247 14.3458409,8.53994655 14.3298319,8.53878947 C14.3109244,8.53878947 14.2812125,8.5288421 14.2406963,8.50894736 C14.126336,8.4507811 14.0061371,8.40629258 13.8823529,8.37631579 C13.8040216,8.35736842 13.7184874,8.34694736 13.6239496,8.34694736 C13.5505702,8.34694736 13.4870948,8.35452631 13.4321729,8.37015789 C13.3833533,8.38265566 13.3370207,8.40414486 13.2953181,8.43363157 C13.2262863,8.4821194 13.1854141,8.56420591 13.1868247,8.65152631 C13.1860656,8.71207506 13.2075091,8.77060322 13.2466987,8.81494737 C13.2930834,8.86590398 13.3478338,8.90762632 13.4083133,8.93810526 C13.4822081,8.97696825 13.5584533,9.01067265 13.6365546,9.03899999 C13.7239762,9.07118631 13.8110176,9.10450462 13.8976591,9.13894737 C13.9865655,9.17404133 14.0737135,9.21388253 14.1587635,9.25831579 C14.2409127,9.30111262 14.3173497,9.3551028 14.3861044,9.41889473 C14.4523278,9.48099492 14.506981,9.5555287 14.5472689,9.6386842 C14.5882353,9.723 14.6084934,9.82247368 14.6084934,9.93615789 C14.6084934,10.0858421 14.5760804,10.2170526 14.5117047,10.3293158 C14.4468788,10.4420526 14.3586435,10.5363158 14.2478992,10.6116316 C14.1371549,10.6874211 14.0417167,10.7437895 13.8931573,10.7821579 C13.8742497,10.7868947 13.8535414,10.7883158 13.8346339,10.7930526 L13.8346339,10.7930526 L13.8391357,10.9417895 C13.8415759,11.015948 13.8153048,11.0879727 13.7663379,11.1413713 C13.7173711,11.1947699 13.6499027,11.2249687 13.5793817,11.2250527 C13.4288583,11.2251706 13.3051777,11.1000539 13.2993698,10.9417895 L13.2993698,10.9417895 L13.2957683,10.8385263 L13.2804622,10.839 C13.1661164,10.839 13.1634154,10.8309474 13.0652761,10.8153158 C12.967587,10.7992105 12.8807023,10.7802632 12.8055222,10.7575263 C12.7303421,10.7352632 12.6682173,10.711579 12.6177971,10.6869474 C12.567377,10.6618421 12.5313625,10.6405263 12.5088535,10.6215789 C12.4851533,10.6001067 12.468592,10.5712294 12.4615846,10.5391579 C12.4521309,10.5031579 12.4476193,10.452 12.4476193,10.3837895 C12.4474695,10.3456621 12.4492729,10.3075537 12.4530312,10.2696316 C12.4549414,10.2439393 12.460558,10.2187028 12.4696879,10.1947895 C12.4751925,10.177954 12.4857867,10.1634792 12.4998499,10.1535789 C12.5134494,10.1450825 12.5290577,10.1408124 12.5448679,10.1412632 C12.5807813,10.1453812 12.6153774,10.1578389 12.6461585,10.1777368 C12.7761279,10.2496698 12.9144454,10.3034906 13.0576231,10.3378421 C13.1521609,10.362 13.2620048,10.3743158 13.3862545,10.3743158 C13.4602038,10.3753059 13.5339878,10.366715 13.6059424,10.3487368 C13.6644414,10.3348277 13.7202952,10.3106472 13.7711585,10.2772105 C13.8588683,10.220464 13.9117155,10.1193288 13.9102641,10.011 C13.911368,9.94932637 13.8891895,9.88970776 13.8485894,9.84521052 C13.8080732,9.79878947 13.754952,9.75805264 13.6892257,9.72205263 C13.6234994,9.68605263 13.5487695,9.65242105 13.4659364,9.6211579 C13.3817527,9.58942105 13.2957683,9.55578947 13.207533,9.52121052 C13.1188475,9.48568421 13.032413,9.44636841 12.9495798,9.40136841 C12.8653962,9.3568421 12.7911164,9.30331578 12.7253902,9.24078947 C12.660114,9.17873684 12.6060924,9.10531578 12.5655762,9.02052631 C12.52506,8.93526315 12.5043517,8.83342105 12.5043517,8.71499999 C12.5043517,8.57857894 12.5340636,8.45873684 12.592587,8.35594737 C12.6517956,8.25210731 12.7331775,8.16420597 12.8302821,8.09921053 C12.9302221,8.03099999 13.0477191,7.97936842 13.1832233,7.94621052 C13.2530012,7.92915789 13.2466987,7.92631578 13.2957683,7.91115789 L13.2957683,7.91115789 L13.2957683,7.7188421 C13.2957683,7.56240018 13.4162967,7.43557894 13.564976,7.43557894 Z M6.36358901,3.60463602 L6.37530929,3.6163563 L8.50136737,5.74007032 L10.4727178,3.76871989 C10.7540044,3.46633676 11.2298476,3.44992838 11.5322308,3.731215 C11.8346139,4.01250163 11.8510223,4.48834484 11.5697356,4.79072796 C11.5580154,4.80479229 11.5462951,4.81651257 11.5322308,4.82823284 L9.17411121,7.1910405 C8.80375049,7.56140122 8.2013283,7.56140122 7.83096757,7.1910405 L5.71194166,5.07201459 L3.54134653,7.32230759 C3.25302774,7.6200026 2.77718453,7.62937883 2.47948952,7.34106003 C2.1817945,7.05274124 2.17241828,6.57689803 2.46073708,6.27920302 L5.02044537,3.62807657 C5.38377393,3.25068368 5.98619612,3.23896341 6.36358901,3.60463602 Z" id="路径-8" fill="#44413B"></path>
                </g>
            </g>
        </g>
    </g>
</svg>