<?xml version="1.0" encoding="UTF-8"?>
<svg width="20px" height="19px" viewBox="0 0 20 19" version="1.1" xmlns="http://www.w3.org/2000/svg" xmlns:xlink="http://www.w3.org/1999/xlink">
    <title>mobanwenjian</title>
    <g id="及时通-承运人端运价" stroke="none" stroke-width="1" fill="none" fill-rule="evenodd" opacity="0.65">
        <g id="及时通-批量修改" transform="translate(-15.000000, -187.000000)" fill="#FFFFFF" fill-rule="nonzero" stroke="#FFFFFF" stroke-width="0.2">
            <g id="编组-2备份-10" transform="translate(3.000000, 173.000000)">
                <g id="编组" transform="translate(13.000000, 14.000000)">
                    <g id="mobanwenjian" transform="translate(0.000000, 1.000000)">
                        <path d="M8.667,9.33434383 C8.42232817,9.32429008 8.19181412,9.44909152 8.06648345,9.65946643 C7.94115279,9.86984134 7.94115279,10.1319713 8.06648345,10.3423462 C8.19181412,10.5527211 8.42232817,10.6775226 8.667,10.6674688 C9.02448693,10.6527794 9.30673544,10.3586949 9.30673544,10.0009063 C9.30673544,9.64311773 9.02448693,9.34903324 8.667,9.33434383 L8.667,9.33434383 Z M17.982,3.33471884 C18.0047539,3.1233155 17.9317009,2.91282392 17.782875,2.76096884 L15.22575,0.204968837 C15.0778256,0.0591581978 14.8736132,-0.0148020313 14.666625,0.00246883705 L4.00050001,0.000218845843 C3.263625,0.000218845843 2.66625,0.596468837 2.66625,1.33334385 L2.66625,7.33296883 L0.667125017,7.33296883 C0.49019246,7.33296883 0.320506597,7.40325501 0.195396386,7.52836522 C0.0702861747,7.65347543 0,7.82316129 0,8.00009385 L0,11.9994688 C0,12.3684689 0.298125009,12.6665938 0.667125017,12.6665938 L2.66625,12.6665938 L2.66625,15.9999688 C2.66625,16.7368438 3.263625,17.3330938 4.00050001,17.3330938 L16.666875,17.3330938 C17.402625,17.3330938 18,16.7368438 18,15.9999688 L18,3.33359384 L17.983125,3.33359384 L17.982,3.33471884 Z M14.48325,1.20284385 L16.696125,3.51696884 L15.33375,3.51696884 C14.96475,3.51696884 14.48325,3.03546885 14.48325,2.66759385 L14.48325,1.20396884 L14.48325,1.20284385 Z M1.10137501,11.4639688 L1.10137501,8.54684385 L10.86075,8.54684385 L10.86075,11.4639688 L1.10250002,11.4639688 L1.10137501,11.4639688 Z M16.797375,15.3339688 C16.797375,15.7018438 16.36875,16.1934688 15.99975,16.1934688 L4.66650002,16.1934688 C4.29862502,16.1934688 3.81825001,15.7018438 3.81825001,15.3328438 L3.81825001,12.6665938 L11.33325,12.6665938 C11.5101825,12.6665938 11.6798684,12.5963077 11.8049786,12.4711975 C11.9300888,12.3460873 12.000375,12.1764014 12.000375,11.9994688 L12.000375,8.00009385 C12.000375,7.82316129 11.9300888,7.65347543 11.8049786,7.52836522 C11.6798684,7.40325501 11.5101826,7.33296883 11.33325,7.33296883 L3.81825001,7.33296883 L3.81825001,2.00271885 C3.81825001,1.63371885 4.29862502,1.10271884 4.66650002,1.10271884 L13.3335,1.10271884 L13.3335,3.33584385 C13.3335,4.07159385 13.92975,4.66896885 14.666625,4.66896885 L16.797375,4.66896885 L16.797375,15.3350938 L16.797375,15.3339688 Z M5.99962501,9.33321885 C5.75495319,9.3231651 5.52443914,9.44796654 5.39910847,9.65834145 C5.27377781,9.86871636 5.27377781,10.1308463 5.39910847,10.3412212 C5.52443914,10.5515962 5.75495319,10.6763976 5.99962501,10.6663438 C6.35711194,10.6516544 6.63936045,10.35757 6.63936045,9.99978135 C6.63936045,9.64199275 6.35711194,9.34790825 5.99962501,9.33321885 Z M3.33337502,9.33321885 C3.08870319,9.3231651 2.85818914,9.44796654 2.73285847,9.65834145 C2.60752781,9.86871636 2.60752781,10.1308463 2.73285847,10.3412212 C2.85818914,10.5515962 3.08870319,10.6763976 3.33337502,10.6663438 C3.69086195,10.6516544 3.97311046,10.35757 3.97311046,9.99978135 C3.97311046,9.64199275 3.69086195,9.34790825 3.33337502,9.33321885 Z" id="形状"></path>
                    </g>
                </g>
            </g>
        </g>
    </g>
</svg>