<?xml version="1.0" encoding="UTF-8"?>
<svg width="54px" height="54px" viewBox="0 0 54 54" version="1.1" xmlns="http://www.w3.org/2000/svg" xmlns:xlink="http://www.w3.org/1999/xlink">
    <title>货物跟踪-国际快递</title>
    <defs>
        <linearGradient x1="50%" y1="0%" x2="50%" y2="100%" id="linearGradient-1">
            <stop stop-color="#F4CA06" offset="0.0676081731%"></stop>
            <stop stop-color="#F5A81E" offset="100%"></stop>
        </linearGradient>
        <polygon id="path-2" points="-1.68331803e-16 0 5 0 5 7 -1.68331803e-16 7"></polygon>
        <polygon id="path-4" points="0 0 5 0 5 7 0 7"></polygon>
    </defs>
    <g id="页面-1" stroke="none" stroke-width="1" fill="none" fill-rule="evenodd">
        <g id="货物跟踪" transform="translate(-83.000000, -140.000000)">
            <g id="货物跟踪-国际快递" transform="translate(83.000000, 140.000000)">
                <circle id="椭圆形" fill="url(#linearGradient-1)" cx="27" cy="27" r="27"></circle>
                <g id="logoto" transform="translate(5.000000, 22.000000)">
                    <path d="M12.4459519,2.32094995 L12.4459519,7 L10.5540481,7 L10.5540481,2.32094995 L9,2.32094995 L9,1 L13.8081893,1 C13.9141146,1 14,1.07080381 14,1.15812851 L14,2.32094995 L12.4459519,2.32094995 Z" id="Fill-1" fill="#FFFFFF" fill-rule="nonzero"></path>
                    <path d="M14,2.10498718 L15.2492778,2.10498718 C15.3382551,2.10498718 15.4103807,2.1933085 15.4103807,2.30230493 L15.4103807,2.9065217 C15.5609873,2.61396475 15.7454581,2.38972218 15.9636323,2.233794 C16.1818065,2.07798375 16.4362843,2 16.7272581,2 L16.8480773,2 C16.8921487,2 16.9427682,2.00640692 17,2.01906358 L17,3.66988977 C16.8129935,3.55531185 16.6103871,3.49808185 16.3922129,3.49808185 C16.0649355,3.49808185 15.8194774,3.61737655 15.6558387,3.8559266 C15.4922,4.09447668 15.4103807,4.44277 15.4103807,4.90076725 L15.4103807,7 L14,7 L14,2.10498718 Z" id="Fill-3" fill="#FFFFFF" fill-rule="nonzero"></path>
                    <path d="M18.5719157,4.486225 C18.5719157,4.63920488 18.5970242,4.78137638 18.6471723,4.91281508 C18.6973548,5.04444278 18.7655507,5.15910208 18.8520355,5.2568686 C18.9383826,5.3547485 19.0414686,5.43116285 19.161397,5.486225 C19.2811876,5.54124938 19.4107943,5.56879938 19.5501825,5.56879938 C19.6839568,5.56879938 19.8106703,5.54124938 19.930633,5.486225 C20.0504236,5.43116285 20.1534752,5.3547485 20.2399945,5.2568686 C20.3263415,5.15910208 20.3959496,5.04584105 20.4490253,4.91738785 C20.5019288,4.78897245 20.5284494,4.65137373 20.5284494,4.50455388 C20.5284494,4.3578096 20.5019288,4.218737 20.4490253,4.08714713 C20.3959496,3.9557084 20.3263415,3.8410113 20.2399945,3.7431314 C20.1534752,3.64532707 20.0504236,3.56879938 19.930633,3.513775 C19.8106703,3.45875062 19.6839568,3.43120062 19.5501825,3.43120062 C19.4107943,3.43120062 19.2811876,3.45875062 19.161397,3.513775 C19.0414686,3.56879938 18.9383826,3.64532707 18.8520355,3.7431314 C18.7655507,3.8410113 18.6973548,3.95268507 18.6471723,4.0779638 C18.5970242,4.20343148 18.5719157,4.33944295 18.5719157,4.486225 L18.5719157,4.486225 Z M20.4782669,2.14681985 L21.8295791,2.14681985 C21.9237101,2.14681985 22,2.23052795 22,2.33377422 L22,6.85318015 L20.4782669,6.85318015 L20.4782669,6.33022182 C20.1549218,6.7767658 19.7174003,7 19.1655645,7 C18.8533099,7 18.5663016,6.9371528 18.3043673,6.81191187 C18.0422952,6.68659537 17.8138045,6.51071388 17.6187573,6.28438077 C17.4235724,6.05816108 17.2717504,5.79214692 17.1630502,5.486225 C17.0543501,5.18045425 17,4.8471713 17,4.486225 C17,4.14991875 17.0529035,3.83027852 17.1588827,3.52753107 C17.2646897,3.22474585 17.4124475,2.96028117 17.6020183,2.73394807 C17.7914514,2.50772835 18.0172212,2.32882355 18.2792588,2.19727145 C18.5412275,2.06579495 18.831129,2 19.1488255,2 C19.6839568,2 20.1270924,2.20498093 20.4782669,2.614716 L20.4782669,2.14681985 Z" id="Fill-5" fill="#FFFFFF" fill-rule="nonzero"></path>
                    <path d="M25,3.66974037 C24.7689668,3.47405615 24.5355958,3.37613847 24.2997652,3.37613847 C24.171906,3.37613847 24.0528218,3.40368845 23.9422696,3.45875062 C23.8316566,3.513775 23.7345856,3.59177657 23.651087,3.692642 C23.567467,3.79354522 23.502429,3.91285287 23.455761,4.0504516 C23.409032,4.18808813 23.3857434,4.34261743 23.3857434,4.5137372 C23.3857434,4.6788859 23.409032,4.83027852 23.455761,4.96791505 C23.502429,5.10547598 23.5663434,5.22474585 23.647413,5.32564908 C23.7284826,5.42659008 23.8254626,5.50459168 23.9385652,5.55965382 C24.0515768,5.6146782 24.171906,5.6421526 24.2997652,5.6421526 C24.5503522,5.6421526 24.783693,5.53524055 25,5.3210763 L25,6.73391028 C24.6706814,6.91122785 24.3587,7 24.063874,7 C23.788632,7 23.5269322,6.94176335 23.2788348,6.82566797 C23.0306768,6.70957258 22.8119408,6.54283662 22.6228392,6.32564908 C22.4336464,6.10865048 22.282529,5.84860738 22.1695174,5.54585995 C22.0564451,5.2431125 22,4.905219 22,4.53210385 C22,4.15913988 22.0540464,3.81810967 22.1621695,3.50916442 C22.270232,3.20040815 22.4176146,2.93435623 22.604439,2.71104645 C22.791142,2.48785005 23.0135218,2.313518 23.271487,2.18808813 C23.5294522,2.06280943 23.8058784,2 24.1007348,2 C24.3344702,2 24.5553622,2.04455615 24.7635926,2.13347945 C24.9061172,2.19432372 25,2.36430975 25,2.5518688 L25,3.66974037 Z" id="Fill-7" fill="#FFFFFF" fill-rule="nonzero"></path>
                    <g id="Fill-9-Clipped" transform="translate(26.000000, 0.000000)">
                        <mask id="mask-3" fill="white">
                            <use xlink:href="#path-2"></use>
                        </mask>
                        <g id="path-1"></g>
                        <path d="M1.42743439,0.212991427 L1.42743439,4.23373095 L2.92585228,2.67350307 L4.88168333,2.67350307 L2.8548363,4.67226926 L5,6.99999305 L2.99686828,6.99999305 L1.42743439,5.23736983 L1.42743439,6.99999305 L-1.68331803e-16,6.99999305 L-1.68331803e-16,-6.94824254e-06 L1.22825826,-6.94824254e-06 C1.33825832,-6.94824254e-06 1.42743439,0.0953576806 1.42743439,0.212991427" id="Fill-9" fill="#FFFFFF" fill-rule="nonzero" mask="url(#mask-3)"></path>
                    </g>
                    <path d="M32.8921714,2.79575996 L32.8921714,7 L31.1176826,7 L31.1176826,2.57757925 L32.6440443,2.57757925 C32.7810714,2.57757925 32.8921714,2.67527052 32.8921714,2.79575996 M31,0.816683156 C31,0.704579689 31.0260486,0.599237392 31.0784686,0.50039241 C31.1306869,0.401712337 31.2025323,0.315004475 31.294126,0.24020287 C31.3855583,0.165533186 31.4917311,0.106826459 31.6127657,0.0640497013 C31.7336389,0.0214048683 31.8627506,0 31.9999797,0 C32.1372494,0 32.26624,0.0214048683 32.3872746,0.0640497013 C32.5081074,0.106826459 32.6142803,0.165533186 32.705874,0.24020287 C32.7973466,0.315004475 32.869192,0.401712337 32.9216123,0.50039241 C32.97379,0.599237392 33,0.704579689 33,0.816683156 C33,0.928753644 32.97379,1.03422787 32.9216123,1.13294092 C32.869192,1.23175292 32.7973466,1.31846078 32.705874,1.39313046 C32.6142803,1.46793207 32.5081074,1.5266388 32.3872746,1.56928363 C32.26624,1.61206039 32.1372494,1.63333333 31.9999797,1.63333333 C31.8627506,1.63333333 31.7336389,1.61206039 31.6127657,1.56928363 C31.4917311,1.5266388 31.3855583,1.46793207 31.294126,1.39313046 C31.2025323,1.31846078 31.1306869,1.23175292 31.0784686,1.13294092 C31.0260486,1.03422787 31,0.928753644 31,0.816683156" id="Fill-11" fill="#FFFFFF" fill-rule="nonzero"></path>
                    <path d="M33,2.10498718 L34.4230347,2.10498718 C34.5610057,2.10498718 34.6728215,2.22046915 34.6728215,2.36291528 L34.6728215,2.72520165 C34.9006793,2.4389337 35.1317347,2.24664718 35.3659885,2.1479097 C35.6000898,2.04936875 35.8743185,2 36.1885603,2 C36.5212287,2 36.8061935,2.05577568 37.0434548,2.16701255 C37.2805637,2.27836738 37.4824185,2.4357892 37.6487908,2.63931732 C37.784249,2.80483625 37.8766865,2.9892222 37.9261032,3.19275035 C37.9753298,3.3963964 38,3.62857885 38,3.88933697 L38,7 L36.3271785,7 L36.3271785,4.528615 C36.3271785,4.28695972 36.3101225,4.09133217 36.276353,3.94177163 C36.2423932,3.7924076 36.1823165,3.6731522 36.0961227,3.58396617 C36.022188,3.5076726 35.939002,3.45370502 35.8466025,3.42174897 C35.754165,3.38998948 35.655522,3.3740704 35.5508255,3.3740704 C35.2673452,3.3740704 35.0501478,3.46160558 34.8992705,3.6364794 C34.748203,3.81151048 34.6728215,4.0611056 34.6728215,4.38554 L34.6728215,7 L33,7 L33,2.10498718 Z" id="Fill-13" fill="#FFFFFF" fill-rule="nonzero"></path>
                    <g id="Fill-15-Clipped" transform="translate(38.000000, 2.000000)">
                        <mask id="mask-5" fill="white">
                            <use xlink:href="#path-4"></use>
                        </mask>
                        <g id="path-3"></g>
                        <path d="M1.58254183,2.38979398 C1.58254183,2.53845128 1.60775015,2.67671325 1.65827083,2.80446964 C1.7087915,2.93237296 1.77744691,3.04382003 1.86447977,3.1388843 C1.95144329,3.23398532 2.05518924,3.30825887 2.17592567,3.36177844 C2.29655807,3.41529802 2.42703802,3.44203944 2.56736552,3.44203944 C2.70207575,3.44203944 2.82960836,3.41529802 2.9503448,3.36177844 C3.0709772,3.30825887 3.17472316,3.23398532 3.26182536,3.1388843 C3.34878889,3.04382003 3.41886595,2.93237296 3.47222993,2.80446964 C3.52552455,2.67671325 3.55222389,2.5413899 3.55222389,2.39872003 C3.55222389,2.25017291 3.52552455,2.11338026 3.47222993,1.98852575 C3.41886595,1.86370797 3.34729789,1.75376694 3.25762977,1.65859246 C3.16775359,1.56360165 3.062586,1.48914443 2.94195359,1.43566159 C2.82121716,1.38214202 2.69638914,1.3554006 2.56736552,1.3554006 C2.43268995,1.3554006 2.3064403,1.38368479 2.18861652,1.44010625 C2.07075807,1.49671137 1.96680407,1.5709482 1.87713595,1.66303712 C1.78725978,1.75530971 1.71576106,1.86370797 1.66246643,1.98852575 C1.60910246,2.11338026 1.58254183,2.24712409 1.58254183,2.38979398 L1.58254183,2.38979398 Z M4.84062236,0.124854512 C4.9286608,0.124854512 5.0000208,0.200450448 5.0000208,0.293714822 L5.0000208,4.3872825 C5.0000208,4.64294222 4.98597766,4.87167688 4.9579607,5.07385375 C4.92977036,5.27588371 4.89062291,5.45425778 4.84010225,5.60893928 C4.77279914,5.805092 4.66756218,5.98787401 4.52446075,6.15732203 C4.3813593,6.32677008 4.20878457,6.47388462 4.00677123,6.59870239 C3.80475789,6.72355691 3.57604523,6.82167001 3.32073727,6.89300493 C3.06535995,6.96430315 2.78896991,7 2.49160184,7 C2.15487828,7 1.84620634,6.95541383 1.56569005,6.86622678 C1.28503506,6.77707648 1.03960932,6.65361781 0.829135414,6.49618137 C0.618696186,6.338598 0.44615613,6.15423648 0.31148057,5.94331722 C0.176805013,5.73221427 0.0869288425,5.50190013 0.0420947805,5.25222784 L1.75931217,5.25222784 C1.86583207,5.55541971 2.10720091,5.70701563 2.48321064,5.70701563 C2.80304775,5.70701563 3.0484735,5.6118779 3.21976527,5.42167586 C3.39081432,5.23132692 3.47642555,4.96688808 3.47642555,4.62806547 L3.47642555,4.19105631 C3.36414968,4.30404616 3.25613877,4.3977146 3.15235814,4.47198815 C3.0484735,4.5463719 2.94323655,4.60723802 2.83671664,4.65477017 C2.73005802,4.70230231 2.61788618,4.73642699 2.5,4.75732791 C2.3821693,4.77808191 2.25300697,4.78855074 2.11281817,4.78855074 C1.80414623,4.78855074 1.52071729,4.73198234 1.2626007,4.61906597 C1.00444942,4.50622305 0.781423373,4.34867641 0.593453186,4.14649954 C0.405378977,3.94446957 0.259503573,3.70218056 0.155757623,3.41974269 C0.0518383005,3.13745173 0,2.82382779 0,2.478981 C0,2.12829374 0.0560685832,1.80280512 0.168379122,1.50255187 C0.280550964,1.20244556 0.433499955,0.940761668 0.627087402,0.717794063 C0.820709523,0.494899925 1.05077449,0.319648121 1.31735165,0.191708061 C1.58382479,0.063951664 1.87422329,0 2.18861652,0 C2.69916309,0 3.12846745,0.202176886 3.47642555,0.606383727 L3.47642555,0.124854512 L4.84062236,0.124854512 Z" id="Fill-15" fill="#FFFFFF" fill-rule="nonzero" mask="url(#mask-5)"></path>
                    </g>
                    <path d="M4.14534928,1.49935686 L2.18859489,1.49935686 L2.07296782,2.24903529 C2.17972587,2.23705471 2.27757824,2.2264508 2.36656161,2.21740955 C2.45550832,2.20840552 2.54738695,2.20390351 2.64234405,2.20390351 C2.98042952,2.20390351 3.2947299,2.26414121 3.58542842,2.3845422 C3.8759437,2.50505481 4.1250458,2.67058755 4.33273472,2.88132648 C4.54027707,3.09213981 4.70336437,3.34503398 4.82206993,3.64000893 C4.94066555,3.93509552 5,4.25730581 5,4.60645377 C5,4.97383303 4.93329912,5.30508457 4.79982408,5.60002233 C4.6663857,5.89514612 4.4780107,6.14647759 4.23488235,6.35420276 C3.99160742,6.56196515 3.69508173,6.72158202 3.34519535,6.83294177 C2.99516235,6.94426431 2.60675805,7 2.17972587,7 C1.77629554,7 1.39232574,6.95032901 1.02755992,6.85094984 C0.662794108,6.75164507 0.320274132,6.59965557 0,6.39486972 L0.25800777,4.73295666 C0.55453346,4.9919155 0.856996263,5.18903678 1.16546947,5.32454368 C1.47379609,5.4600134 1.76738987,5.52776686 2.04625082,5.52776686 C2.40214762,5.52776686 2.68379388,5.42995035 2.8914828,5.23420573 C3.09902515,5.03860994 3.20285127,4.79617091 3.20285127,4.5070746 C3.20285127,4.16998161 3.06343912,3.89744231 2.78472477,3.68971711 C2.50582717,3.48195472 2.14106135,3.37811074 1.69039068,3.37811074 C1.48867551,3.37811074 1.28113318,3.40065803 1.06761709,3.445827 C0.854064355,3.49099597 0.643480173,3.56180037 0.435937843,3.6580914 L0.996445062,0 L4.51070145,0 L4.14534928,1.49935686 Z" id="Fill-17" fill="#FFFFFF" fill-rule="nonzero"></path>
                    <polygon id="Fill-19" fill="#FFFFFF" fill-rule="nonzero" points="6.49627078 1.54110828 6 1.54110828 6.33120536 0 8 0 8 7 6.49627078 7"></polygon>
                </g>
            </g>
        </g>
    </g>
</svg>