<?xml version="1.0" encoding="UTF-8"?>
<svg width="54px" height="54px" viewBox="0 0 54 54" version="1.1" xmlns="http://www.w3.org/2000/svg" xmlns:xlink="http://www.w3.org/1999/xlink">
    <title>货物跟踪-空运跟踪</title>
    <defs>
        <linearGradient x1="50%" y1="0%" x2="50%" y2="100%" id="linearGradient-1">
            <stop stop-color="#70D3FB" offset="0%"></stop>
            <stop stop-color="#26A5FE" offset="100%"></stop>
        </linearGradient>
    </defs>
    <g id="页面-1" stroke="none" stroke-width="1" fill="none" fill-rule="evenodd">
        <g id="货物跟踪" transform="translate(-179.000000, -46.000000)">
            <g id="货物跟踪-空运跟踪" transform="translate(179.000000, 46.000000)">
                <circle id="椭圆形" fill="url(#linearGradient-1)" cx="27" cy="27" r="27"></circle>
                <g id="飞机-(1)" transform="translate(10.000000, 16.000000)" fill="#FFFFFF" fill-rule="nonzero">
                    <path d="M12.3374729,21.9918761 C11.8742117,22.0697311 11.5238746,21.572399 11.7646888,21.1676874 L15.5109148,14.8748591 L18.0224576,14.2171189 C18.838777,14.0057024 20.6768563,13.2707785 22.7135732,12.4116893 C23.0183325,12.2821547 23.2781942,12.6687449 23.03738,12.8949269 L21.4482781,14.3996754 C21.906361,14.3871407 22.3263813,14.6499568 22.5101737,15.0641272 C22.6295303,15.3330384 22.6354955,15.6377619 22.5267521,15.9110196 C22.4180087,16.1842773 22.2035002,16.4035954 21.9305869,16.5205518 L17.7061338,18.3481298 C16.6408369,19.6777046 15.4544527,21.1562777 14.8408525,21.4609859 C14.5775895,21.5945474 14.2871158,21.6757582 13.9789553,21.7281089 L12.3374729,21.9918761 L12.3374729,21.9918761 Z M4.18584308,15.1721845 C3.71918047,15.897041 4.35931096,16.8917052 5.48106992,16.4386699 L17.7551129,13.2184277 C19.6673412,12.7170686 28.2475388,8.89076586 30.0169112,8.00684362 C30.7584013,7.70616239 34.5318379,5.81482383 33.936605,4.65975156 C33.4889898,3.77582932 32.2495448,3.90200805 30.7590816,3.77180234 C29.6067106,3.67582597 28.4060408,3.37111776 27.5815582,3.58656122 C25.4842975,4.12886128 23.3387379,4.89734342 21.1958994,5.80408523 L16.1027463,4.29933679 L16.6823331,4.05436215 C17.3656316,3.76626599 17.683866,2.98702895 17.3938916,2.31202186 C17.2549419,1.98731632 16.9905215,1.73066111 16.6591864,1.59889274 C16.3278513,1.46712438 15.9569435,1.47111645 15.6286008,1.60998491 L12.3789692,2.97714482 L5.73685002,0.202555192 C5.16134482,-0.0350366799 4.57359482,-0.0732929899 3.98720536,0.139465818 L1.80287058,0.926740541 C1.66757286,0.969755961 1.5687568,1.08482105 1.54796692,1.22355983 C1.52717705,1.36229862 1.58801854,1.50065225 1.70491226,1.58045372 L13.5190953,9.58139304 C11.947801,10.4435734 10.3926773,11.3341335 8.85451001,12.2526235 L2.30354652,10.8076086 C1.80753123,10.6950198 1.28933252,10.7234104 0.80900168,10.8894906 L0.255264987,11.0747317 C0.1250332,11.1176058 0.0291441907,11.2275207 0.00556070688,11.3609608 C-0.018022777,11.4944008 0.0345021862,11.6298484 0.142340805,11.7136793 L4.18584308,15.1721845 L4.18584308,15.1721845 Z" id="形状"></path>
                </g>
            </g>
        </g>
    </g>
</svg>