<?xml version="1.0" encoding="UTF-8"?>
<svg width="16px" height="24px" viewBox="0 0 16 24" version="1.1" xmlns="http://www.w3.org/2000/svg" xmlns:xlink="http://www.w3.org/1999/xlink">
    <title>tixing</title>
    <g id="及时通-承运人端运价" stroke="none" stroke-width="1" fill="none" fill-rule="evenodd">
        <g id="及时通-供应商询价沟通-无浮窗页" transform="translate(-861.000000, -598.000000)" fill-rule="nonzero">
            <g id="详情页面" transform="translate(160.000000, 59.000000)">
                <g id="编组-25备份" transform="translate(400.000000, 181.000000)">
                    <g id="编组-5" transform="translate(0.000000, 44.000000)">
                        <g id="聊天标签" transform="translate(276.000000, 55.000000)">
                            <g id="编组-6备份" transform="translate(3.000000, 236.000000)">
                                <g id="tixing" transform="translate(22.000000, 23.000000)">
                                    <path d="M8,1.77777779 C11.9275556,1.77777779 15.1111111,4.96133335 15.1111111,8.8888889 L15.1111111,18.6666667 L0.888888881,18.6666667 L0.888888881,8.8888889 C0.888888881,4.96133335 4.07244444,1.77777779 8,1.77777779 Z" id="路径" fill="#FEC18E"></path>
                                    <path d="M2.66666667,16.8888889 L13.3333333,16.8888889 L13.3333333,8.8888889 C13.3333333,5.94355557 10.9453333,3.55555557 8,3.55555557 C5.05466666,3.55555557 2.66666667,5.94355557 2.66666667,8.8888889 L2.66666667,16.8888889 L2.66666667,16.8888889 Z M15.1111111,16.8888889 L16,16.8888889 L16,18.6666667 L0,18.6666667 L0,16.8888889 L0.888888881,16.8888889 L0.888888881,8.8888889 C0.888888881,5.41733335 3.37644444,2.52666666 6.66666667,1.90266666 L6.66666667,0 L9.33333333,0 L9.33333333,1.90266666 C12.6235556,2.52666666 15.1111111,5.41733333 15.1111111,8.8888889 L15.1111111,16.8888889 L15.1111111,16.8888889 Z M6.22222221,19.5555556 C6.22222221,20.5373951 7.01816044,21.3333334 8,21.3333334 C8.98183956,21.3333334 9.77777779,20.5373951 9.77777779,19.5555556 L11.5555556,19.5555556 C11.5555556,21.5192347 9.96367912,23.1111111 8,23.1111111 C6.03632088,23.1111111 4.44444443,21.5192347 4.44444443,19.5555556 L6.22222221,19.5555556 Z M9.77777779,8.44444445 L9.77777779,15.1111111 L11.5555556,15.1111111 L11.5555556,8.44444445 L9.77777779,8.44444445 Z" id="形状" fill="#3C4144"></path>
                                </g>
                            </g>
                        </g>
                    </g>
                </g>
            </g>
        </g>
    </g>
</svg>