<?xml version="1.0" encoding="UTF-8"?>
<svg width="20px" height="22px" viewBox="0 0 20 22" version="1.1" xmlns="http://www.w3.org/2000/svg" xmlns:xlink="http://www.w3.org/1999/xlink">
    <title>编组 3</title>
    <defs>
        <linearGradient x1="8.67768595%" y1="0%" x2="91.322314%" y2="100%" id="linearGradient-1">
            <stop stop-color="#FAD961" offset="0%"></stop>
            <stop stop-color="#F76B1C" offset="100%"></stop>
        </linearGradient>
    </defs>
    <g id="页面1" stroke="none" stroke-width="1" fill="none" fill-rule="evenodd">
        <g id="-" transform="translate(-1851.000000, -2120.000000)">
            <g id="编组-3" transform="translate(1852.000000, 2121.000000)">
                <path d="M17,-0.5 C17.4142136,-0.5 17.7892136,-0.332106781 18.0606602,-0.0606601718 C18.3321068,0.210786438 18.5,0.585786438 18.5,1 L18.5,1 L18.5,15.8 C18.5,17.0426407 17.9963203,18.1676407 17.1819805,18.9819805 C16.3676407,19.7963203 15.2426407,20.3 14,20.3 L14,20.3 L1,20.3 C0.585786438,20.3 0.210786438,20.1321068 -0.0606601718,19.8606602 C-0.332106781,19.5892136 -0.5,19.2142136 -0.5,18.8 L-0.5,18.8 L-0.5,1 C-0.5,0.585786438 -0.332106781,0.210786438 -0.0606601718,-0.0606601718 C0.210786438,-0.332106781 0.585786438,-0.5 1,-0.5 L1,-0.5 Z" id="矩形" stroke="#3C4144" fill="url(#linearGradient-1)" fill-rule="nonzero"></path>
                <rect id="矩形" fill="#3C4144" x="4" y="4" width="7" height="2" rx="1"></rect>
                <rect id="矩形备份-5" fill="#3C4144" x="4" y="8" width="9" height="2" rx="1"></rect>
                <rect id="矩形备份-6" fill="#3C4144" x="4" y="12" width="4.5" height="2" rx="1"></rect>
                <path d="M11.9548872,11.156391 L12.956391,13.0827068 L12.956391,17.4744361 L12.2524779,17.4744361 L12.2524779,15.9293233 L10.9829742,15.9293233 C10.8725173,15.9293233 10.7829742,15.8397803 10.7829742,15.7293233 L10.7829742,15.1624156 C10.7829742,15.0519586 10.8725173,14.9624156 10.9829742,14.9624156 L12.2524779,14.9624156 L12.2524779,14.4180451 L10.9829742,14.4180451 C10.8725173,14.4180451 10.7829742,14.3285021 10.7829742,14.2180451 L10.7829742,13.6548872 C10.7829742,13.5444303 10.8725173,13.4548872 10.9829742,13.4548872 L11.7135338,13.4548872 L10.579067,11.4550751 C10.5245652,11.3590007 10.5582666,11.2369346 10.654341,11.1824328 C10.68443,11.1653638 10.7184318,11.156391 10.7530251,11.156391 L11.9548872,11.156391 Z M15.1633658,11.156391 C15.1979592,11.156391 15.231961,11.1653638 15.26205,11.1824328 C15.3581244,11.2369346 15.3918257,11.3590007 15.337324,11.4550751 L15.337324,11.4550751 L14.2028571,13.4548872 L14.9334167,13.4548872 C15.0438737,13.4548872 15.1334167,13.5444303 15.1334167,13.6548872 L15.1334167,13.6548872 L15.1334167,14.2180451 C15.1334167,14.3285021 15.0438737,14.4180451 14.9334167,14.4180451 L14.9334167,14.4180451 L13.6639131,14.4180451 L13.6639131,14.9624156 L14.9334167,14.9624156 C15.0438737,14.9624156 15.1334167,15.0519586 15.1334167,15.1624156 L15.1334167,15.1624156 L15.1334167,15.7293233 C15.1334167,15.8397803 15.0438737,15.9293233 14.9334167,15.9293233 L14.9334167,15.9293233 L13.6639131,15.9293233 L13.6639131,17.4744361 L12.96,17.4744361 L12.96,13.0827068 L13.9615038,11.156391 Z" id="形状结合" fill="#3C4144"></path>
            </g>
        </g>
    </g>
</svg>