<?xml version="1.0" encoding="UTF-8"?>
<svg width="16px" height="16px" viewBox="0 0 16 16" version="1.1" xmlns="http://www.w3.org/2000/svg" xmlns:xlink="http://www.w3.org/1999/xlink">
    <title>编组 42备份</title>
    <g id="及时通-客户端运价" stroke="none" stroke-width="1" fill="none" fill-rule="evenodd">
        <g id="编组-42备份" fill="#FD953E" fill-rule="nonzero">
            <path d="M0,0.750938673 C-5.07900189e-17,0.336206696 0.336206696,7.61850283e-17 0.750938673,0 L15.2490613,0 C15.6637933,3.67904182e-16 16,0.336206696 16,0.750938673 C16,1.16567065 15.6637933,1.50187735 15.2490613,1.50187735 L0.750938673,1.50187735 C0.336206696,1.50187735 5.07900189e-17,1.16567065 0,0.750938673 Z" id="--------"></path>
            <path d="M6,16 L6,9.48685857 L3.992,9.48685857 C3.59185073,9.48693496 3.23018205,9.24816597 3.07260806,8.87988788 C2.91503408,8.5116098 2.99189699,8.08473771 3.268,7.79474343 L7.275,3.58147685 C7.46379396,3.38249731 7.72588853,3.26983616 8,3.26983616 C8.27411147,3.26983616 8.53620604,3.38249731 8.725,3.58147685 L12.721,7.79674593 C12.9958454,8.08701876 13.0717778,8.51322337 12.9141246,8.88074301 C12.7564713,9.24826265 12.3954843,9.48657441 11.996,9.48685857 L10.116,9.48685857 L10.116,16 L6,16 Z" id="路径"></path>
        </g>
    </g>
</svg>