<?xml version="1.0" encoding="UTF-8"?>
<svg width="16px" height="17px" viewBox="0 0 16 17" version="1.1" xmlns="http://www.w3.org/2000/svg" xmlns:xlink="http://www.w3.org/1999/xlink">
    <title>编组 42</title>
    <g id="及时通-客户端运价" stroke="none" stroke-width="1" fill="none" fill-rule="evenodd">
        <g id="编组-42" fill-rule="nonzero">
            <path d="M0,0.75 C-5.07265313e-17,0.335786438 0.335786438,7.6089797e-17 0.75,0 L15.25,0 C15.6642136,-7.6089797e-17 16,0.335786438 16,0.75 C16,1.16421356 15.6642136,1.5 15.25,1.5 L0.75,1.5 C0.335786438,1.5 5.07265313e-17,1.16421356 0,0.75 Z" id="--------" fill="#938F87"></path>
            <path d="M6,15.98 L6,9.475 L3.992,9.475 C3.59185073,9.47507629 3.23018205,9.23660576 3.07260806,8.86878803 C2.91503408,8.50097029 2.99189699,8.07463179 3.268,7.785 L7.275,3.577 C7.46379396,3.37826918 7.72588853,3.26574887 8,3.26574887 C8.27411147,3.26574887 8.53620604,3.37826918 8.725,3.577 L12.721,7.787 C12.9958454,8.07690998 13.0717778,8.50258184 12.9141246,8.86964208 C12.7564713,9.23670232 12.3954843,9.47471619 11.996,9.475 L10.116,9.475 L10.116,15.98 L6,15.98 Z" id="路径" stroke="#938F87"></path>
        </g>
    </g>
</svg>