<?xml version="1.0" encoding="UTF-8"?>
<svg width="18px" height="20px" viewBox="0 0 18 20" version="1.1" xmlns="http://www.w3.org/2000/svg" xmlns:xlink="http://www.w3.org/1999/xlink">
    <title>形状</title>
    <g id="及时通-承运人端运价" stroke="none" stroke-width="1" fill="none" fill-rule="evenodd">
        <g id="及时通-供应商询价沟通-无浮窗页" transform="translate(-860.000000, -396.000000)" fill="#DAE6EB" fill-rule="nonzero">
            <g id="详情页面" transform="translate(160.000000, 59.000000)">
                <g id="编组-25备份" transform="translate(400.000000, 181.000000)">
                    <g id="编组-5" transform="translate(0.000000, 44.000000)">
                        <g id="聊天标签" transform="translate(276.000000, 55.000000)">
                            <g id="编组-6" transform="translate(2.000000, 33.000000)">
                                <path d="M38.556391,24 L23.443609,24 C22.6496241,24 22,24.6496241 22,25.443609 L22,42.0451128 C22,42.8390977 22.6496241,43.4887218 23.443609,43.4887218 L35.5789474,43.4887218 C38.0105263,43.4887218 40,41.4992481 40,39.0676692 L40,25.443609 C40,24.6496241 39.3503759,24 38.556391,24 Z M26.4661654,28.1503759 L31.2030075,28.1503759 C31.6992481,28.1503759 32.1052632,28.556391 32.1052632,29.0526316 C32.1052632,29.5488722 31.6992481,29.9548872 31.2030075,29.9548872 L26.4661654,29.9548872 C25.9699248,29.9548872 25.5639098,29.5488722 25.5639098,29.0526316 C25.5639098,28.556391 25.9699248,28.1503759 26.4661654,28.1503759 Z M26.4661654,31.9398496 L33.6842105,31.9398496 C34.1804511,31.9398496 34.5864662,32.3458647 34.5864662,32.8421053 C34.5864662,33.3383459 34.1804511,33.7443609 33.6842105,33.7443609 L26.4661654,33.7443609 C25.9699248,33.7443609 25.5639098,33.3383459 25.5639098,32.8421053 C25.5639098,32.3458647 25.9699248,31.9398496 26.4661654,31.9398496 Z M28.7218045,37.5112782 L26.4661654,37.5112782 C25.9699248,37.5112782 25.5639098,37.1052632 25.5639098,36.6090226 C25.5639098,36.112782 25.9699248,35.7067669 26.4661654,35.7067669 L28.7218045,35.7067669 C29.2180451,35.7067669 29.6240602,36.112782 29.6240602,36.6090226 C29.6240602,37.1052632 29.2180451,37.5112782 28.7218045,37.5112782 Z M37.3383459,35.3142857 L36.124812,37.4526316 L37.024812,37.4526316 C37.0834586,37.4526316 37.1308271,37.5 37.1308271,37.5586466 L37.1308271,38.3075188 C37.1308271,38.3661654 37.0834586,38.4135338 37.024812,38.4135338 L35.6218045,38.4135338 L35.6218045,38.9639098 L37.0225564,38.9639098 C37.081203,38.9639098 37.1285714,39.0112782 37.1285714,39.0699248 L37.1285714,39.818797 C37.1285714,39.8774436 37.081203,39.924812 37.0225564,39.924812 L35.6218045,39.924812 L35.6218045,41.3684211 C35.6218045,41.4270677 35.5744361,41.4744361 35.5157895,41.4744361 L34.3518797,41.4744361 C34.2932331,41.4744361 34.2458647,41.4270677 34.2458647,41.3684211 L34.2458647,39.9293233 L32.8902256,39.9293233 C32.8315789,39.9293233 32.7842105,39.8819549 32.7842105,39.8233083 L32.7842105,39.0744361 C32.7842105,39.0157895 32.8315789,38.9684211 32.8902256,38.9684211 L34.2458647,38.9684211 L34.2458647,38.4180451 L32.8902256,38.4180451 C32.8315789,38.4180451 32.7842105,38.3706767 32.7842105,38.3120301 L32.7842105,37.5631579 C32.7842105,37.5022556 32.8315789,37.4548872 32.8902256,37.4548872 L33.7135338,37.4548872 L32.4977444,35.3142857 C32.4593985,35.2443609 32.5067669,35.156391 32.5902256,35.156391 L33.9548872,35.156391 L34.956391,37.0827068 L35.9511278,35.156391 L37.2458647,35.156391 C37.3270677,35.156391 37.3789474,35.2421053 37.3383459,35.3142857 L37.3383459,35.3142857 Z" id="形状"></path>
                            </g>
                        </g>
                    </g>
                </g>
            </g>
        </g>
    </g>
</svg>