<?xml version="1.0" encoding="UTF-8"?>
<svg width="16px" height="16px" viewBox="0 0 16 16" version="1.1" xmlns="http://www.w3.org/2000/svg" xmlns:xlink="http://www.w3.org/1999/xlink">
    <title>buheshi-cai</title>
    <g id="及时通-客户端运价" stroke="none" stroke-width="1" fill="none" fill-rule="evenodd" opacity="0.65">
        <g id="编组-36备份" transform="translate(0.000000, -2.000000)" fill="#FD953E" fill-rule="nonzero">
            <g id="buheshi-cai" transform="translate(0.000000, 2.000000)">
                <path d="M11.7777778,16 L4.22222223,16 C1.89333333,16 0,14.1066667 0,11.7777778 L0,4.22222223 C0,1.89333333 1.89333333,0 4.22222223,0 L11.7777778,0 C14.1066667,0 16,1.89333333 16,4.22222223 L16,11.7777778 C16,14.1066667 14.1066667,16 11.7777778,16 Z M4.22222223,1.33333333 C2.6311111,1.33333333 1.33333333,2.6311111 1.33333333,4.22222223 L1.33333333,11.7777778 C1.33333333,13.3688889 2.6311111,14.6666667 4.22222223,14.6666667 L11.7777778,14.6666667 C13.3688889,14.6666667 14.6666667,13.3688889 14.6666667,11.7777778 L14.6666667,4.22222223 C14.6666667,2.63111112 13.3688889,1.33333333 11.7777778,1.33333333 L4.22222223,1.33333333 Z" id="形状"></path>
                <path d="M10.9866667,5.01333333 C11.2444445,5.27555556 11.2488889,5.69777777 10.9866667,5.95555556 L8.9425062,7.99966666 L10.9866667,10.0444444 C11.2488889,10.3066667 11.2488889,10.7288889 10.9866667,10.9866667 C10.8533333,11.1155556 10.6844444,11.1822222 10.5155556,11.1822222 C10.3466667,11.1822222 10.1733333,11.1155556 10.0444444,10.9866667 L7.9995062,8.94266666 L5.95555556,10.9866667 C5.82666667,11.1155556 5.65777779,11.1822222 5.48444444,11.1822222 C5.31555554,11.1822222 5.14222221,11.1155556 5.01333333,10.9866667 C4.8873902,10.8622516 4.8165062,10.6925888 4.8165062,10.5155556 C4.8165062,10.3385223 4.8873902,10.1688595 5.01333333,10.0444444 L7.0565062,7.99966666 L5.01333333,5.95555556 C4.7511111,5.69333333 4.7511111,5.27111112 5.01333333,5.01333333 C5.27555556,4.75555554 5.69777777,4.7511111 5.95555556,5.01333333 L7.9995062,7.05666666 L10.0444444,5.01333333 C10.3066667,4.7511111 10.7288889,4.7511111 10.9866667,5.01333333 Z" id="路径-12"></path>
            </g>
        </g>
    </g>
</svg>