<?xml version="1.0" encoding="UTF-8"?>
<svg width="16px" height="16px" viewBox="0 0 16 16" version="1.1" xmlns="http://www.w3.org/2000/svg" xmlns:xlink="http://www.w3.org/1999/xlink">
    <title>zhiding</title>
    <g id="及时通-承运人端运价" stroke="none" stroke-width="1" fill="none" fill-rule="evenodd">
        <g id="zhiding" fill="#E8EFF2" fill-rule="nonzero">
            <polygon id="路径" points="0 1.5 0 0 16 0 16 1.5"></polygon>
            <path d="M6,15.98 L6,9.475 L3.992,9.475 C3.59185073,9.47507629 3.23018205,9.23660576 3.07260806,8.86878803 C2.91503408,8.50097029 2.99189699,8.07463179 3.268,7.785 L7.275,3.577 C7.46379396,3.37826918 7.72588853,3.26574887 8,3.26574887 C8.27411147,3.26574887 8.53620604,3.37826918 8.725,3.577 L12.721,7.787 C12.9958454,8.07690998 13.0717778,8.50258184 12.9141246,8.86964208 C12.7564713,9.23670232 12.3954843,9.47471619 11.996,9.475 L10.116,9.475 L10.116,15.98 L6,15.98 Z" id="路径"></path>
        </g>
    </g>
</svg>