<?xml version="1.0" encoding="UTF-8"?>
<svg width="46px" height="42px" viewBox="0 0 46 42" version="1.1" xmlns="http://www.w3.org/2000/svg" xmlns:xlink="http://www.w3.org/1999/xlink">
    <title>zoushi</title>
    <defs>
        <filter x="-2.0%" y="-3.9%" width="104.0%" height="107.7%" filterUnits="objectBoundingBox" id="filter-1">
            <feOffset dx="0" dy="0" in="SourceAlpha" result="shadowOffsetOuter1"></feOffset>
            <feGaussianBlur stdDeviation="5" in="shadowOffsetOuter1" result="shadowBlurOuter1"></feGaussianBlur>
            <feColorMatrix values="0 0 0 0 0   0 0 0 0 0   0 0 0 0 0  0 0 0 0.25 0" type="matrix" in="shadowBlurOuter1" result="shadowMatrixOuter1"></feColorMatrix>
            <feMerge>
                <feMergeNode in="shadowMatrixOuter1"></feMergeNode>
                <feMergeNode in="SourceGraphic"></feMergeNode>
            </feMerge>
        </filter>
    </defs>
    <g id="及时通-承运人端运价" stroke="none" stroke-width="1" fill="none" fill-rule="evenodd">
        <g id="及时通-询价沟通-报价" transform="translate(-285.000000, -162.000000)" fill-rule="nonzero">
            <g id="报底价弹窗" filter="url(#filter-1)" transform="translate(220.000000, 156.000000)">
                <g id="编组-5" transform="translate(80.000000, 16.000000)">
                    <g id="zoushi" transform="translate(0.000000, 5.000000)">
                        <path d="M15.1647032,0.999438748 L15.1647032,0.899438748 L15.0647032,0.899438748 L15.0932746,0.928010177 C15.121846,0.949438748 15.1432746,0.97086732 15.1647032,0.999438748 Z" id="路径" fill="#000000"></path>
                        <path d="M15.5968412,10.4008803 L0.35655042,10.4008803 C0.159462248,10.4008803 0,10.6015519 0,10.848808 C0,11.0960641 0.159462248,11.2967357 0.35655042,11.2967357 L15.5968412,11.2967357 C15.7939294,11.2967357 15.9533917,11.0960641 15.9533917,10.848808 C15.9515999,10.6015519 15.7921377,10.4008803 15.5968412,10.4008803 Z M0.7399765,7.32451315 L5.22283656,4.08151687 L8.89763511,7.6022283 L15.0664949,1.53907945 C15.0754534,1.5301209 15.084412,1.51937063 15.0933705,1.50862037 L15.1041208,2.74848414 C15.1059125,2.9939485 15.3065841,3.19282838 15.5520485,3.19282838 L15.5556319,3.19282838 C15.802888,3.19103667 16.0017678,2.98857337 15.9999881,2.7413173 L15.9784756,0 L13.0418618,0.00537513196 C12.7946058,0.00537513196 12.5939342,0.206046725 12.5939342,0.453302795 C12.5939342,0.700558866 12.7946058,0.901230459 13.0418618,0.901230459 L14.4393962,0.899438748 L14.4376044,0.901230459 L8.88867655,6.35519769 L5.30346353,2.91869665 L0.215005278,6.59887034 C0.0143336852,6.7439989 -0.0304590811,7.02350576 0.114669482,7.22417736 C0.259798045,7.42484895 0.539304907,7.46964171 0.7399765,7.32451315 Z M15.1647032,0.899438748 L15.1647032,0.999438748 C15.1432746,0.97086732 15.121846,0.949438748 15.0932746,0.928010177 L15.0647032,0.899438748 L15.1647032,0.899438748 Z" id="形状" fill="#FD953E"></path>
                    </g>
                </g>
            </g>
        </g>
    </g>
</svg>