<?xml version="1.0" encoding="UTF-8"?>
<svg width="16px" height="16px" viewBox="0 0 16 16" version="1.1" xmlns="http://www.w3.org/2000/svg" xmlns:xlink="http://www.w3.org/1999/xlink">
    <title>qq</title>
    <g id="及时通-承运人端运价" stroke="none" stroke-width="1" fill="none" fill-rule="evenodd">
        <g id="及时通-供应商询价沟通-无浮窗页" transform="translate(-799.000000, -837.000000)" fill="#938F87" fill-rule="nonzero">
            <g id="详情页面" transform="translate(160.000000, 59.000000)">
                <g id="编组-25备份" transform="translate(400.000000, 181.000000)">
                    <g id="编组-5" transform="translate(0.000000, 44.000000)">
                        <g id="编组-9" transform="translate(0.000000, 537.000000)">
                            <g id="编组-7" transform="translate(24.000000, 11.000000)">
                                <g id="电话交换备份" transform="translate(215.000000, 3.000000)">
                                    <g id="qq" transform="translate(0.000000, 2.000000)">
                                        <path d="M8.27724884,0 C13.6768589,0 13.9424212,5.1563804 13.9424212,5.1563804 C14.761496,6.24099922 14.3189712,7.21459393 14.3189712,7.21459393 C16.952445,11.3532441 15.2485583,12.5489053 14.7837922,12.6370667 C14.3189712,12.7252463 13.8760078,12.1277447 13.8760078,12.1277447 C13.8760078,12.1277447 13.7215244,12.7247712 13.3448648,13.0354194 C14.7174336,13.6765266 14.4736008,14.4737437 14.4736008,14.4737437 C14.4736008,14.4737437 14.1857605,16.8805638 8.47647088,15.3591405 L7.98942681,15.2704857 C2.51720794,17.2456367 1.83715551,14.5842744 1.83715551,14.5842744 C1.83715551,14.5842744 1.61567382,13.4783097 2.67794162,13.0572039 C2.05808895,12.680654 1.83715551,11.8843872 1.83715551,11.8843872 C1.83715551,11.8843872 1.28364317,12.7915867 0.553406014,12.459684 C-0.176959068,12.1277264 -0.619392469,9.18462784 2.1245572,7.06009223 C2.1245572,7.06009223 1.7266431,5.79856584 2.63386093,5.04594111 C2.63386093,5.04594109 2.87762054,0 8.27724884,0 M3.47464703,5.3337814 C2.27957063,6.3515299 3.0763126,7.37019218 3.0763126,7.37019218 C0.442857064,8.98591748 0.907641484,11.5970403 0.907641484,11.5970403 C0.907641484,11.5970403 1.32774214,11.3864874 1.62651122,10.7780569 C1.92531687,10.1695717 2.39008302,10.8776223 2.39008302,10.8776223 C2.39008302,10.8776223 2.67792333,12.2719024 3.5592081,12.818068 C4.4405477,13.3642518 3.5203725,13.7127488 3.5203725,13.7127488 C3.5203725,13.7127488 2.55028671,13.7268392 2.63384264,14.3855641 C2.71730718,15.0443072 5.84623184,15.8690656 7.72382786,14.407842 L8.71962739,14.5406689 C11.9953049,15.6798037 13.6105185,14.6174445 13.718381,14.4136536 C13.82628,14.2098444 13.223588,13.8098469 12.6696005,13.5780395 C12.1155582,13.3461042 11.973027,13.101778 12.4631048,12.7755042 C12.9532557,12.44934 13.1467941,11.8019277 13.4336292,11.131799 C13.7203547,10.4616153 14.1524807,10.7889492 14.2080567,10.9773155 C14.2635231,11.1655722 14.672768,11.7957323 14.672768,11.7957323 C14.672768,11.7957323 15.7397509,10.6650042 13.5217906,7.32558151 C13.5217906,7.32558151 14.0031327,6.32499378 13.1897599,5.51120069 C13.1897599,5.51120069 12.9910862,0.819111277 8.18802746,0.819111277 C3.38495051,0.819111277 3.47464703,5.3337814 3.47464703,5.3337814" id="形状"></path>
                                    </g>
                                </g>
                            </g>
                        </g>
                    </g>
                </g>
            </g>
        </g>
    </g>
</svg>