<?xml version="1.0" encoding="UTF-8"?>
<svg width="16px" height="16px" viewBox="0 0 16 16" version="1.1" xmlns="http://www.w3.org/2000/svg" xmlns:xlink="http://www.w3.org/1999/xlink">
    <title>fahuodanju</title>
    <g id="及时通-承运人端运价" stroke="none" stroke-width="1" fill="none" fill-rule="evenodd">
        <g id="及时通-供应商询价沟通-无浮窗页" transform="translate(-584.000000, -837.000000)" fill-rule="nonzero">
            <g id="详情页面" transform="translate(160.000000, 59.000000)">
                <g id="编组-25备份" transform="translate(400.000000, 181.000000)">
                    <g id="编组-5" transform="translate(0.000000, 44.000000)">
                        <g id="编组-9" transform="translate(0.000000, 537.000000)">
                            <g id="编组-7" transform="translate(24.000000, 11.000000)">
                                <g id="提交拖书" transform="translate(0.000000, 3.000000)">
                                    <g id="fahuodanju" transform="translate(0.000000, 2.000000)">
                                        <path d="M13.5384615,0 C14.8923077,0 16,1.10769231 16,2.46153847 L16,7.2 C16,7.56923077 15.7538462,7.81538461 15.3846154,7.81538461 C15.0153846,7.81538461 14.7692308,7.56923077 14.7692308,7.2 L14.7692308,3.07692308 C14.7692308,2.03076923 13.9692308,1.23076923 12.9230769,1.23076923 L5.723,1.23 L5.72307692,3.26153847 C5.72307692,4.56123076 4.7022277,5.63406769 3.42276333,5.71781514 L3.26153847,5.72307692 L1.23,5.723 L1.23076923,12.9230769 C1.23076923,13.9692308 2.03076923,14.7692308 3.07692308,14.7692308 L7.2,14.7692308 C7.50769231,14.7692308 7.81538461,15.0153846 7.81538461,15.3846154 C7.81538461,15.7538462 7.56923077,16 7.2,16 L2.46153847,16 C1.10769231,16 0,14.8923077 0,13.5384615 L0,4.12307692 L4.12307692,0 L13.5384615,0 Z M7.44615384,7.44615384 C7.75384616,7.44615384 8.06153847,7.69230769 8.06153847,8.06153847 C8.06153847,8.36923078 7.81538463,8.67692308 7.44615384,8.67692308 L3.75384616,8.67692308 C3.44615384,8.67692308 3.13846153,8.43076923 3.13846153,8.06153847 C3.13846153,7.6923077 3.44615384,7.44615384 3.75384616,7.44615384 L7.44615384,7.44615384 Z M11.3846154,3.69230769 C11.6923077,3.69230769 12,3.93846153 12,4.30769231 C12,4.61538462 11.7538462,4.92307692 11.3846154,4.92307692 L7.69230769,4.92307692 C7.38461538,4.92307692 7.07692308,4.67692308 7.07692308,4.30769231 C7.07692308,4 7.32307692,3.69230769 7.69230769,3.69230769 L11.3846154,3.69230769 Z M4.49230769,1.23076923 L1.23076923,4.49230769 L2.64615384,4.49230769 C3.69230769,4.49230769 4.49230769,3.69230769 4.49230769,2.64615384 L4.49230769,2.64615384 L4.49230769,1.23076923 Z" id="路径-4" fill="#938F87"></path>
                                        <path d="M11.9384615,7.01538461 C12.0615385,7.01538461 12.2461538,7.07692308 12.3692308,7.2 L12.3692308,7.2 L15.8153846,10.6461538 C15.9384615,10.7692308 16,10.9538462 16,11.0769231 C16,11.2 15.9384615,11.3846154 15.8153846,11.5076923 C15.6923077,11.6307692 15.5076923,11.6923077 15.3846154,11.6923077 C15.2615385,11.6923077 15.0769231,11.6307692 14.9538462,11.5076923 L14.9538462,11.5076923 L12.4913846,9.04538461 L12.4923077,15.3846154 C12.4923077,15.7202797 12.2888748,15.9542276 11.9744784,15.9939895 L11.8769231,16 C11.5076923,16 11.2615385,15.7538462 11.2615385,15.3846154 L11.2615385,15.3846154 L11.2613846,9.10738461 L8.86153847,11.5076923 C8.76307693,11.6061538 8.66461539,11.6652308 8.53464616,11.6849231 L8.43076923,11.6923077 C8.24615384,11.6923077 8.12307692,11.6307692 8,11.5076923 C7.87692308,11.3846154 7.81538461,11.2615385 7.81538461,11.0769231 C7.81538461,10.8923077 7.87692308,10.7692308 8,10.6461538 L8,10.6461538 L11.3909633,7.25283656 C11.5091732,7.1032906 11.6930481,7.01538461 11.8769231,7.01538461 C11.8892536,7.01538461 11.9014469,7.01565913 11.9134983,7.01620359 Z" id="路径-3" fill="#FD953E"></path>
                                    </g>
                                </g>
                            </g>
                        </g>
                    </g>
                </g>
            </g>
        </g>
    </g>
</svg>