<?xml version="1.0" encoding="UTF-8"?>
<svg width="16px" height="16px" viewBox="0 0 16 16" version="1.1" xmlns="http://www.w3.org/2000/svg" xmlns:xlink="http://www.w3.org/1999/xlink">
    <title>3.1收藏-选中</title>
    <g id="及时通-客户端运价" stroke="none" stroke-width="1" fill="none" fill-rule="evenodd">
        <g id="3.1收藏-选中" fill-rule="nonzero">
            <rect id="矩形" fill="#000000" opacity="0" x="0" y="0" width="16" height="16"></rect>
            <path d="M14.6011942,6.16904559 C14.5432815,5.99649868 14.3938788,5.87013462 14.2133292,5.84242809 L10.1021166,5.20862758 L8.26502616,1.28045061 C8.18520827,1.10985194 8.01391641,1.00049504 7.82510043,1 C7.82462076,1 7.82412509,1 7.82412509,1 C7.63628445,1 7.46497659,1.10838277 7.38419935,1.27850237 L5.52844956,5.2025593 L1.40473343,5.81909714 C1.2266142,5.84971004 1.08013751,5.97609007 1.02417545,6.14766287 C0.967717727,6.31875659 1.0120077,6.50733656 1.13757057,6.63662297 L4.12511302,9.70597785 L3.4121724,14.0307652 C3.38200085,14.2139955 3.4593724,14.39919 3.61170112,14.5065987 C3.76353418,14.6140073 3.96403823,14.6256808 4.1270637,14.5357584 L7.80466627,12.5152907 L11.4744821,14.548406 C11.5479683,14.5892391 11.6292412,14.6096477 11.7105141,14.6096477 C11.8088155,14.6096477 11.9066371,14.580488 11.9898447,14.5206994 C12.1421574,14.4137699 12.2205203,14.2290704 12.1908284,14.0453451 L11.4924859,9.71859349 L14.4873194,6.66236528 C14.6143373,6.53259978 14.6586273,6.34159251 14.6011942,6.16904559 Z" id="路径" fill="#FD953E"></path>
        </g>
    </g>
</svg>