<?xml version="1.0" encoding="UTF-8"?>
<svg width="16px" height="16px" viewBox="0 0 16 16" version="1.1" xmlns="http://www.w3.org/2000/svg" xmlns:xlink="http://www.w3.org/1999/xlink">
    <title>shoucang备份</title>
    <g id="及时通-客户端运价" stroke="none" stroke-width="1" fill="none" fill-rule="evenodd">
        <g id="shoucang备份" fill="#938F87" fill-rule="nonzero">
            <path d="M4.68148962,15.3871066 C4.00808063,15.8055122 3.12746889,15.5891093 2.71846343,14.9079002 C2.52457163,14.5844636 2.46430985,14.1982143 2.55046119,13.8310859 L3.42207282,10.1140363 C3.44322179,10.0258865 3.41426107,9.93324294 3.34667182,9.87283305 L0.493633744,7.38679987 C-0.0989741577,6.87079299 -0.16737507,5.96838095 0.339231677,5.36677292 C0.58271081,5.07686857 0.931940079,4.89627744 1.30924462,4.86516623 L5.05349459,4.56016215 C5.13509568,4.55336206 5.20809664,4.49956134 5.2414971,4.41776025 L6.68411634,0.889513177 C6.98472035,0.154503368 7.82073151,-0.196501316 8.55014124,0.11210279 C8.8980114,0.259941108 9.17325076,0.539422667 9.31575146,0.889513177 L10.7583707,4.41756026 C10.7917712,4.49956134 10.8647721,4.55356207 10.9463732,4.56016215 L14.6910232,4.86536622 C15.4762337,4.92936707 16.0576414,5.62397635 15.9954406,6.41258688 C15.9662217,6.78892234 15.790665,7.13881524 15.5064341,7.38719987 L12.653396,9.87323305 C12.5869951,9.93103383 12.5569947,10.0246351 12.577995,10.1142363 L13.4496066,13.8312859 C13.630009,14.6002961 13.1616028,15.3751065 12.3969926,15.5605089 C12.0287802,15.6498735 11.6401003,15.5874598 11.3183782,15.3873066 L8.11253541,13.3952801 C8.04368725,13.3520651 7.95618057,13.3520651 7.8873324,13.3952801 L4.68128961,15.3873066 L4.68148962,15.3871066 Z M8.74614387,12.3758665 L11.9519867,14.367893 C12.0011873,14.3982934 12.0591881,14.4076936 12.1141888,14.3942934 C12.2343904,14.365093 12.3121914,14.2362913 12.281591,14.1050895 L11.4099794,10.3880399 C11.2872222,9.86693314 11.4623438,9.32064003 11.8651855,8.96802098 L14.7182236,6.48218781 C14.7648242,6.44158727 14.7942246,6.38258648 14.7994246,6.31818561 C14.8100248,6.18438383 14.7152235,6.07118232 14.5936219,6.06138219 L10.8489719,5.75597811 C10.3139065,5.71106547 9.84952824,5.36916062 9.6477559,4.87156631 L8.20513664,1.34351923 C8.18258014,1.2868385 8.13850103,1.24139315 8.08253501,1.21711755 C7.97193353,1.17031692 7.84393184,1.22411764 7.79513118,1.34351923 L6.35231191,4.87156631 C6.15053957,5.36916062 5.68616133,5.71106547 5.15109588,5.75597811 L1.40664592,6.06138219 C1.34830165,6.06646162 1.29442247,6.09469777 1.25704392,6.13978323 C1.1722636,6.24217269 1.18329064,6.3931989 1.28204427,6.48218781 L4.13508234,8.96822097 C4.53792401,9.32084002 4.71304558,9.86713314 4.59028841,10.3882399 L3.71867678,14.1050895 C3.70377731,14.1681711 3.71395998,14.2345737 3.74707715,14.290292 C3.81247802,14.3988934 3.94547979,14.4314939 4.04828117,14.367693 L7.25432396,12.3758665 C7.71099796,12.0916908 8.28946987,12.0916908 8.74614387,12.3758665 Z" id="形状"></path>
        </g>
    </g>
</svg>