<?xml version="1.0" encoding="UTF-8"?>
<svg width="12px" height="16px" viewBox="0 0 12 16" version="1.1" xmlns="http://www.w3.org/2000/svg" xmlns:xlink="http://www.w3.org/1999/xlink">
    <title>shouji</title>
    <g id="及时通-承运人端运价" stroke="none" stroke-width="1" fill="none" fill-rule="evenodd">
        <g id="及时通-供应商询价沟通-无浮窗页" transform="translate(-690.000000, -837.000000)" fill-rule="nonzero">
            <g id="详情页面" transform="translate(160.000000, 59.000000)">
                <g id="编组-25备份" transform="translate(400.000000, 181.000000)">
                    <g id="编组-5" transform="translate(0.000000, 44.000000)">
                        <g id="编组-9" transform="translate(0.000000, 537.000000)">
                            <g id="编组-7" transform="translate(24.000000, 11.000000)">
                                <g id="电话交换" transform="translate(106.000000, 3.000000)">
                                    <g id="shouji" transform="translate(0.000000, 2.000000)">
                                        <path d="M9.47228381,0 L1.80931264,0 C0.815964523,0 0,0.815964523 0,1.80931264 L0,14.1906874 C0,15.1840355 0.815964523,16 1.80931264,16 L9.49002217,16 C10.4833703,16 11.2993348,15.1840355 11.2993348,14.1906874 L11.2993348,1.80931264 C11.2815965,0.815964523 10.4656319,0 9.47228381,0 Z M1.80931264,1.01108647 L9.49002217,1.01108647 C9.93348115,1.01108647 10.2882483,1.36585366 10.2882483,1.80931264 L10.2882483,11.9379157 L1.01108647,11.9379157 L1.01108647,1.80931264 C1.01108647,1.36585366 1.36585366,1.01108647 1.80931264,1.01108647 Z M9.47228381,14.9889135 L1.80931264,14.9889135 C1.36585366,14.9889135 1.01108647,14.6341463 1.01108647,14.1906874 L1.01108647,12.9490022 L10.2882483,12.9490022 L10.2882483,14.1906874 C10.27051,14.6341463 9.91574279,14.9889135 9.47228381,14.9889135 L9.47228381,14.9889135 Z" id="形状" fill="#938F87"></path>
                                        <path d="M4.59423503,3.19290466 L6.70509978,3.19290466 C6.98891353,3.19290466 7.20177384,2.96230599 7.20177384,2.6962306 C7.20177384,2.43015521 6.97117517,2.19955654 6.70509978,2.19955654 L4.59423503,2.19955654 C4.31042129,2.19955654 4.09756098,2.43015521 4.09756098,2.6962306 C4.09756098,2.96230599 4.31042129,3.19290466 4.59423503,3.19290466 Z" id="路径" fill="#FD953E"></path>
                                    </g>
                                </g>
                            </g>
                        </g>
                    </g>
                </g>
            </g>
        </g>
    </g>
</svg>