<?xml version="1.0" encoding="UTF-8"?>
<svg width="54px" height="54px" viewBox="0 0 54 54" version="1.1" xmlns="http://www.w3.org/2000/svg" xmlns:xlink="http://www.w3.org/1999/xlink">
    <title>物流- HS编码查询</title>
    <defs>
        <linearGradient x1="50%" y1="0%" x2="50%" y2="100%" id="linearGradient-1">
            <stop stop-color="#4ABDFE" offset="0%"></stop>
            <stop stop-color="#5390FE" offset="100%"></stop>
        </linearGradient>
    </defs>
    <g id="页面-1" stroke="none" stroke-width="1" fill="none" fill-rule="evenodd">
        <g id="物流基础库" transform="translate(-371.000000, -140.000000)">
            <g id="物流--HS编码查询" transform="translate(371.000000, 140.000000)">
                <circle id="椭圆形" fill="url(#linearGradient-1)" cx="27" cy="27" r="27"></circle>
                <g id="产品编码" transform="translate(15.000000, 15.000000)" fill="#FFFFFF" fill-rule="nonzero">
                    <path d="M3.02147239,19.9953107 L1.1595092,19.9953107 C0.521472393,19.9953107 0.00306748466,19.4669793 0.00306748466,18.8167253 L0.00306748466,1.17858538 C0.00306748466,0.528331379 0.521472393,0 1.1595092,0 L3.02147239,0 C3.6595092,0 4.17791411,0.528331379 4.17791411,1.17858538 L4.17791411,18.8167253 C4.17484663,19.4669793 3.65644172,19.9953107 3.02147239,19.9953107 L3.02147239,19.9953107 Z M13.0122699,19.9953107 L11.809816,19.9953107 C11.1717791,19.9953107 10.6533742,19.4669793 10.6533742,18.8167253 L10.6533742,1.17858538 C10.6533742,0.528331379 11.1717791,0 11.809816,0 L13.0122699,0 C13.6503067,0 14.1687117,0.528331379 14.1687117,1.17858538 L14.1687117,18.8167253 C14.1656442,19.4669793 13.6503067,19.9953107 13.0122699,19.9953107 L13.0122699,19.9953107 Z M18.7269939,19.9953107 L16.4171779,19.9953107 C15.7791411,19.9953107 15.2607362,19.4669793 15.2607362,18.8167253 L15.2607362,1.17858538 C15.2607362,0.528331379 15.7791411,0 16.4171779,0 L18.7269939,0 C19.3650307,0 19.8834356,0.528331379 19.8834356,1.17858538 L19.8834356,18.8167253 C19.8803681,19.4669793 19.3619632,19.9953107 18.7269939,19.9953107 L18.7269939,19.9953107 Z M7.36196319,19.9953107 L7.13803681,19.9953107 C6.5,19.9953107 5.98159509,19.4669793 5.98159509,18.8167253 L5.98159509,1.17858538 C5.98159509,0.528331379 6.5,0 7.13803681,0 L7.36196319,0 C8,0 8.51840491,0.528331379 8.51840491,1.17858538 L8.51840491,18.8167253 C8.51533742,19.4669793 8,19.9953107 7.36196319,19.9953107 L7.36196319,19.9953107 Z M22.8435583,19.9953107 L22.6196319,19.9953107 C21.9815951,19.9953107 21.4631902,19.4669793 21.4631902,18.8167253 L21.4631902,1.17858538 C21.4631902,0.528331379 21.9815951,0 22.6196319,0 L22.8435583,0 C23.4815951,0 24,0.528331379 24,1.17858538 L24,18.8167253 C23.9969325,19.4669793 23.4815951,19.9953107 22.8435583,19.9953107 L22.8435583,19.9953107 Z M22.8435583,24 L1.15644172,24 C0.518404908,24 0,23.4716686 0,22.8214146 L0,22.8151622 C0,22.1649082 0.518404908,21.6365768 1.15644172,21.6365768 L22.8435583,21.6365768 C23.4815951,21.6365768 24,22.1649082 24,22.8151622 L24,22.8214146 C23.9969325,23.4747948 23.4815951,24 22.8435583,24 Z" id="形状"></path>
                </g>
            </g>
        </g>
    </g>
</svg>