<?xml version="1.0" encoding="UTF-8"?>
<svg width="54px" height="54px" viewBox="0 0 54 54" version="1.1" xmlns="http://www.w3.org/2000/svg" xmlns:xlink="http://www.w3.org/1999/xlink">
    <title>物流-危险品标识</title>
    <defs>
        <linearGradient x1="50%" y1="0%" x2="50%" y2="100%" id="linearGradient-1">
            <stop stop-color="#FE6762" offset="0%"></stop>
            <stop stop-color="#FF4347" offset="100%"></stop>
        </linearGradient>
    </defs>
    <g id="页面-1" stroke="none" stroke-width="1" fill="none" fill-rule="evenodd">
        <g id="物流基础库" transform="translate(-83.000000, -237.000000)">
            <g id="物流-危险品标识" transform="translate(83.000000, 237.000000)">
                <circle id="椭圆形" fill="url(#linearGradient-1)" cx="27" cy="27" r="27"></circle>
                <g id="危险" transform="translate(14.000000, 16.000000)" fill="#FFFFFF" fill-rule="nonzero">
                    <path d="M23.5900915,22 C22.793644,22 2.52939205,22 1.3749537,22 C0.238579119,22 -0.314828735,20.6770587 0.184387845,19.6674029 C0.867526324,18.2892715 10.6827155,1.95459903 11.2952411,0.790735362 C11.8437225,-0.25463173 13.1525238,-0.272487379 13.7010052,0.790735362 C14.5368645,2.40910647 24.304431,18.6707331 24.7855839,19.6170825 C25.3915408,20.800425 24.6246522,22 23.5900915,22 L23.5900915,22 Z M11.3313686,6.94281809 L12.1130367,15.0492828 L13.2838966,15.0492828 L14.0672068,6.94281809 L11.3313686,6.94281809 L11.3313686,6.94281809 Z M14.0672068,16.2099 L11.3313686,16.2099 L11.3313686,18.5246414 L14.0672068,18.5246414 L14.0672068,16.2099 L14.0672068,16.2099 Z" id="形状"></path>
                </g>
            </g>
        </g>
    </g>
</svg>