<?xml version="1.0" encoding="UTF-8"?>
<svg width="54px" height="54px" viewBox="0 0 54 54" version="1.1" xmlns="http://www.w3.org/2000/svg" xmlns:xlink="http://www.w3.org/1999/xlink">
    <title>物流-装箱大师</title>
    <defs>
        <linearGradient x1="50%" y1="0%" x2="50%" y2="100%" id="linearGradient-1">
            <stop stop-color="#E6CB91" offset="0.0676081731%"></stop>
            <stop stop-color="#CAA973" offset="100%"></stop>
        </linearGradient>
    </defs>
    <g id="页面-1" stroke="none" stroke-width="1" fill="none" fill-rule="evenodd">
        <g id="物流基础库" transform="translate(-371.000000, -46.000000)">
            <g id="物流-装箱大师" transform="translate(371.000000, 46.000000)">
                <circle id="椭圆形" fill="url(#linearGradient-1)" cx="27" cy="27" r="27"></circle>
                <g id="searates-logo" transform="translate(15.000000, 15.000000)" fill="#FFFFFF">
                    <path d="M0.0651345203,2.44284532 C-0.0217115068,2.1130829 -0.0217115068,1.76596456 0.0651345203,1.43620213 C0.151980547,1.10643971 0.325672602,0.811389121 0.568841477,0.568406283 C0.812010353,0.325423444 1.10728685,0.151864274 1.45467095,0.0650846889 C1.78468586,-0.0216948963 2.13206996,-0.0216948963 2.46208487,0.0650846889 L11.2161644,2.39077757 C11.3030104,2.40813349 11.3898565,2.42548941 11.4593333,2.46020124 C11.6503945,2.52962491 11.8240866,2.68582816 11.9109326,2.85938733 C11.9977786,3.05030242 12.0325171,3.25857342 11.9630402,3.46684443 C11.9109326,3.67511543 11.771979,3.8486746 11.5982869,3.9528101 C11.4245949,4.05694561 11.1987952,4.10901336 10.9903647,4.05694561 L10.7993035,4.00487786 C9.86136638,3.79660685 8.88869087,3.83131869 7.96812299,4.09165744 C7.0475551,4.3519962 6.21383324,4.83796187 5.51906502,5.49748672 C4.85903522,6.17436749 4.37269746,7.0074515 4.11215938,7.92731511 C3.8516213,8.82982279 3.81688289,9.80175415 4.02531336,10.7216177 L4.07742097,10.9298888 C4.11215938,11.0340243 4.11215938,11.1381598 4.11215938,11.2596512 C4.09479018,11.3637867 4.06005177,11.4679222 4.00794415,11.5720577 C3.95583653,11.6588373 3.88635971,11.7456169 3.79951369,11.8150405 C3.71266766,11.8844642 3.60845243,11.9365319 3.50423719,11.9712438 C3.40002196,12.0059556 3.27843752,12.0059556 3.17422229,11.9885997 C3.07000706,11.9712438 2.96579183,11.9365319 2.86157659,11.8844642 C2.75736136,11.8323964 2.68788454,11.7629728 2.61840772,11.6761932 C2.5489309,11.5894136 2.49682328,11.4852781 2.46208487,11.3811426 C2.42734646,11.294363 2.40997725,11.2075834 2.39260805,11.1208038 L0.0651345203,2.44284532 Z" id="路径"></path>
                    <path d="M11.7047928,14.8312972 C10.8384288,15.0735371 9.93519825,15.0549033 9.08726751,14.7753956 C8.23933678,14.4958879 7.5020057,13.9741403 6.9490074,13.2660541 C6.39600909,12.557968 6.08264338,11.7008111 6.00891028,10.8063866 C5.95361045,9.911962 6.15637649,9.01753743 6.59877514,8.25354978 C7.04117378,7.47092827 7.70477175,6.85601138 8.51583593,6.46470063 C9.30846684,6.07338988 10.2116974,5.92431912 11.0964947,6.03612219 C11.981292,6.14792526 12.8107894,6.53923601 13.4743874,7.11688521 C14.1379854,7.71316826 14.6172506,8.49578976 14.8384499,9.35294665 C14.9859161,9.911962 15.0412159,10.5082451 14.9674828,11.0858943 C14.8937497,11.6635435 14.709417,12.2225588 14.4144845,12.7443065 C14.1195521,13.2474203 13.7324533,13.6946326 13.2716214,14.0486757 C12.8107894,14.4213526 12.2762244,14.6822264 11.7047928,14.8312972 Z" id="路径" fill-rule="nonzero"></path>
                    <path d="M22.4752589,5.51481919 C22.8211703,5.6050531 23.1488759,5.78552093 23.403758,6.03817589 C23.6586401,6.29083085 23.8406987,6.59762615 23.931728,6.94051503 C24.0227573,7.2834039 24.0227573,7.64433956 23.931728,7.98722843 C23.8406987,8.3301173 23.6586401,8.63691261 23.403758,8.88956757 L16.704,15.5307836 L16.4855297,15.747345 C16.4127062,15.8195322 16.303471,15.8917193 16.1942359,15.9278129 C16.0850007,15.9639064 15.9757655,16 15.8665303,16 C15.7572951,16 15.6298541,15.9819532 15.5388248,15.9278129 C15.4295896,15.8917193 15.3385603,15.8195322 15.2475309,15.747345 C15.0836782,15.584924 14.9926488,15.3683626 14.9926488,15.1337544 C14.9926488,14.8991462 15.0836782,14.6825849 15.2475309,14.5201638 L15.4113837,14.3757895 C16.0850007,13.6358715 16.5583531,12.7515791 16.8132352,11.7950996 C17.0499115,10.8386201 17.0499115,9.82800028 16.8132352,8.87152079 C16.5583531,7.9150413 16.0485889,7.04879572 15.374972,6.32692441 C14.6831492,5.6050531 13.8274735,5.0816964 12.8807686,4.75685431 L12.6440924,4.70271396 C12.425622,4.64857361 12.2253575,4.50419935 12.1161223,4.30568474 C12.0068872,4.10717013 11.9704754,3.87256195 12.025093,3.65600056 C12.0797106,3.43943916 12.2253575,3.24092455 12.425622,3.13264385 C12.6258865,3.00631637 12.8625628,2.97022281 13.0810331,3.02436316 L13.3541211,3.09655029 L22.4752589,5.51481919 Z" id="路径"></path>
                    <path d="M8.95376636,23.4019433 C8.70147155,23.6576011 8.39511356,23.8402139 8.05271346,23.9315202 C7.71031336,24.0228266 7.3498922,24.0228266 7.0074921,23.9315202 C6.665092,23.8402139 6.34071296,23.6576011 6.08841815,23.4019433 C5.83612334,23.1462854 5.65591276,22.8358438 5.56580747,22.4888796 L3.09692254,13.3399811 C3.09692254,13.2486748 3.06088042,13.1573684 3.02483831,13.0843233 C2.97077513,12.865188 3.00681725,12.6277914 3.1149436,12.4269174 C3.241091,12.2260434 3.42130158,12.0799532 3.65557533,12.0251694 C3.87182803,11.9703856 4.12412284,12.0069081 4.32235448,12.1164758 C4.52058611,12.2260434 4.66475458,12.4269174 4.71881775,12.6460527 L4.77288092,12.8469267 C5.07923891,13.796513 5.60184959,14.6547929 6.3226919,15.3669826 C7.04353422,16.060911 7.908545,16.5722267 8.86366107,16.8461458 C9.81877714,17.0835424 10.8279564,17.0835424 11.7830724,16.8461458 C12.7381885,16.6087492 13.6212204,16.1339561 14.3600837,15.458289 L14.5222733,15.2939375 C14.6844628,15.129586 14.9007155,15.0382796 15.1349892,15.0382796 C15.369263,15.0382796 15.5855157,15.129586 15.7477052,15.2939375 C15.9098947,15.458289 16,15.6774242 16,15.9148208 C16,16.1522174 15.9098947,16.3713527 15.7477052,16.5357041 C15.675621,16.6087492 15.6215578,16.6817943 15.5494736,16.7365782 L8.95376636,23.4019433 Z" id="路径"></path>
                </g>
            </g>
        </g>
    </g>
</svg>